<svg id="Слой_3" data-name="Слой 3" xmlns="http://www.w3.org/2000/svg" viewBox="0 0 708.13 211.41"><defs><style>.cls-1{fill:#f3f6ff;}.cls-2,.cls-6{fill:#ebefff;}.cls-3,.cls-4,.cls-8,.cls-9{fill:#c5d0fc;}.cls-4,.cls-5,.cls-6,.cls-9{stroke:#c5d0fc;stroke-miterlimit:10;}.cls-4,.cls-5,.cls-6{stroke-width:3px;}.cls-5{fill:none;}.cls-7{fill:#bbc3f1;}.cls-8{opacity:0.2;}.cls-10{opacity:0.3;}.cls-11{fill:#a9b8ed;}</style></defs><title>404</title><g id="bg"><path class="cls-1" d="M793.33,506.83s43.67-32,103.67-32,73.33,36,130.67,36,67.08-36,145.21-36,121.45,113.33,121.45,113.33H637.67Z" transform="translate(-611.56 -382.43)"/><path class="cls-2" d="M611.67,591.75c-2.6,5.55,43.93-87.59,152.66-87.59,111.34,0,134.67,58,249.67,58s99.67-40,187.67-40c87.23,0,98.13,75.38,97.37,69.82Z" transform="translate(-611.56 -382.43)"/></g><g id="mill"><path class="cls-3" d="M671.56,417A54.91,54.91,0,0,1,676,392.34l1.52-3.51,1.2,2.38a54.61,54.61,0,0,1,5.76,27.54l-.54,9.9a14.12,14.12,0,0,0-11.71-.07ZM678,431.15a10.36,10.36,0,1,1-10.35,10.36A10.36,10.36,0,0,1,678,431.15Zm-15.25,28.6a54.78,54.78,0,0,1-26.18,10.49l-2.58.31,2.1-3.25A54.87,54.87,0,0,1,654,450l10-6a14.21,14.21,0,0,0,6.82,9.71Zm31,132c0-.08-8.15-133.38-8.15-133.38l6,4.43a58.59,58.59,0,0,0,28,11.22l6.61.8h.23a1.91,1.91,0,0,0,1.6-2.94l-4.31-6.66a58.65,58.65,0,0,0-19.17-18.47l-12.6-7.71a14.14,14.14,0,0,0-4.34-7.93l.67-12.17a58.5,58.5,0,0,0-6.17-29.46l-3-6a1.89,1.89,0,0,0-2.55-.84,1.85,1.85,0,0,0-.89.94l-3.14,7.24a58.75,58.75,0,0,0-4.73,26.39l.77,13.76a14.17,14.17,0,0,0-4.59,8.71l-11.88,7.06a58.77,58.77,0,0,0-19.19,18.49l-4.3,6.66a1.91,1.91,0,0,0,.56,2.64,2,2,0,0,0,1,.3h.23L637,474a58.42,58.42,0,0,0,28-11.22l5.57-4.1L664,591.76h3.83l6.86-136.09.39-.29a14.11,14.11,0,0,0,6.3-.11l8.39,136.51ZM720,470.24a54.77,54.77,0,0,1-26.19-10.5l-8.38-6.21a14.19,14.19,0,0,0,6.54-10L702.56,450A54.87,54.87,0,0,1,720.5,467.3l2.1,3.25Zm0,0" transform="translate(-611.56 -382.43)"/><path class="cls-3" d="M678,447.74a6.23,6.23,0,1,0-6.22-6.23,6.24,6.24,0,0,0,6.22,6.23Zm0-8.65a2.42,2.42,0,1,1-2.42,2.42,2.42,2.42,0,0,1,2.42-2.42Zm0,0" transform="translate(-611.56 -382.43)"/><line class="cls-4" x1="77.01" y1="150.7" x2="55.76" y2="171.95"/><line class="cls-4" x1="77.01" y1="150.7" x2="55.76" y2="171.95"/><line class="cls-4" x1="56.09" y1="150.7" x2="78.39" y2="171.09"/><line class="cls-5" x1="59.27" y1="104.57" x2="74.44" y2="104.57"/><line class="cls-5" x1="55.69" y1="193.19" x2="79.19" y2="193.19"/></g><g id="tree"><polygon class="cls-6" points="660.54 128.68 660.54 207.39 644.04 207.39 644.04 160.03 623.83 139.81 629.88 133.76 644.04 147.88 644.04 128.68 660.54 128.68"/><path class="cls-6" d="M1318.19,504a23.52,23.52,0,0,1-43.87,11.77,43.32,43.32,0,0,1-12.29,1.77,42.81,42.81,0,0,1-15.41-2.83,21.62,21.62,0,0,1-39.19-12.6v-.24a22.53,22.53,0,0,1,12.29-41.4c.45,0,.91,0,1.35.05a43.23,43.23,0,0,1,83.38,22.09A23.51,23.51,0,0,1,1318.19,504Z" transform="translate(-611.56 -382.43)"/><path class="cls-7" d="M1249.85,459.71c-5.14-1.81-12.22-.67-13.84,5.27-1.51,5.51,1.86,11,7.63,11.4l-1.29-2.26c-3,7-3.35,16.7,3.85,21.24,8.88,5.6,26.82,3.47,29.24-8.64.38-1.88-2.51-2.69-2.89-.79-2.07,10.3-18.65,11.91-25.66,6.24-5-4-3.76-12.27-2-16.54a1.52,1.52,0,0,0-1.3-2.25c-4.25-.31-6.39-5.56-4.13-9.08,1.91-3,6.62-2.73,9.54-1.69,1.83.64,2.61-2.26.8-2.9Z" transform="translate(-611.56 -382.43)"/><path class="cls-8" d="M1278.58,521.14s30.53.3,33.15-33.3c.26-3.31,6.46,11.58,6.46,11.58l-3.17,16.4-8.18,8.33-10.26,3.39-11.83-2.2Z" transform="translate(-611.56 -382.43)"/><rect class="cls-9" x="626.99" y="206.68" width="50.6" height="1.93" rx="0.96" ry="0.96"/></g><g id="logo" class="cls-10"><path class="cls-11" d="M955,514.08a17.34,17.34,0,0,0-17.32,17.31,16.82,16.82,0,0,0,1.52,7.07c3.49,7.64,9.56,15.63,13.06,19.92h0c.84,1,1.53,1.84,2,2.39a1,1,0,0,0,.73.34.87.87,0,0,0,.32-.06,1.21,1.21,0,0,0,.2-.09,1,1,0,0,0,.21-.19c.64-.74,1.69-2,3-3.58,1.42-1.78,3.11-4,4.84-6.46.82-1.16,1.65-2.38,2.46-3.64a.58.58,0,0,0-.08-.71L964,544.45l-3.06-3.06a.68.68,0,0,0-.8-.12,10.86,10.86,0,1,1-4.63-20.45,10.87,10.87,0,0,1,9.16,15.91.71.71,0,0,0,.13.84l3.89,3.89a.45.45,0,0,0,.72-.11c.07-.15.15-.29.23-.44.42-.82.82-1.63,1.19-2.45a12.23,12.23,0,0,0,.57-1.41,17,17,0,0,0,1-5.66A17.34,17.34,0,0,0,955,514.08Z" transform="translate(-611.56 -382.43)"/><path class="cls-11" d="M963.17,531.67a8.15,8.15,0,1,1-8.14-8.15A8.16,8.16,0,0,1,963.17,531.67Z" transform="translate(-611.56 -382.43)"/></g><g id="_404" data-name="404"><path class="cls-11" d="M841.54,514.14H864.7v32.7H841.54V591H801v-44.2H717.21l-1.82-25.54,85.18-134.58h41Zm-85.74,0H801V442l-2.67,4.63Z" transform="translate(-611.56 -382.43)"/><path class="cls-11" d="M1024,506.56q0,42.39-17.54,64.83t-51.36,22.46q-33.41,0-51.08-22t-18.1-63.14V471.06q0-42.81,17.75-65t51.15-22.17q33.39,0,51.08,22T1024,469Zm-40.55-41.35q0-25.43-6.95-37t-21.68-11.59q-14.31,0-21.12,11t-7.23,34.48v49.73q0,25,6.81,37.15t21.82,12.15q14.88,0,21.47-11.66t6.88-35.68Z" transform="translate(-611.56 -382.43)"/><path class="cls-11" d="M1171.32,514.14h23.16v32.7h-23.16V591h-40.55v-44.2H1047l-1.83-25.54,85.18-134.58h41Zm-85.74,0h45.19V442l-2.67,4.63Z" transform="translate(-611.56 -382.43)"/></g></svg>