<svg id="Layer_1" data-name="Layer 1" xmlns="http://www.w3.org/2000/svg" viewBox="0 0 512 512"><defs><style>.cls-1{fill:#304269;}.cls-2{fill:#25a59a;}.cls-3{fill:#ffef76;}.cls-4{fill:#606060;}.cls-5{fill:#ffd34e;}.cls-6{fill:#ff8c3e;}.cls-7{fill:#f60;}.cls-8{fill:#fff;}</style></defs><title>backpack</title><path class="cls-1" d="M256,0C397.39,0,512,114.61,512,256S397.39,512,256,512,0,397.39,0,256,114.61,0,256,0Z" transform="translate(0 0)"/><path class="cls-2" d="M332.28,319.7v58a17.51,17.51,0,0,0,17.5,17.5h32.74a17.51,17.51,0,0,0,17.5-17.5v-58Z" transform="translate(0 0)"/><path class="cls-2" d="M112,319.7v58a17.5,17.5,0,0,0,17.5,17.5h32.73a17.51,17.51,0,0,0,17.51-17.5v-58Z" transform="translate(0 0)"/><rect class="cls-3" x="110.33" y="87.85" width="291.34" height="66.16" rx="26.64" ry="26.64"/><polygon class="cls-4" points="147.5 154.01 167.28 154.01 167.28 87.84 147.5 87.84 147.5 154.01"/><polygon class="cls-4" points="344.71 154.01 364.5 154.01 364.5 87.84 344.71 87.84 344.71 154.01"/><path class="cls-5" d="M162.21,287H129.48a17.49,17.49,0,0,0-17.5,17.5V319.7h67.74V304.49A17.5,17.5,0,0,0,162.21,287Z" transform="translate(0 0)"/><path class="cls-5" d="M349.78,287h32.74a17.5,17.5,0,0,1,17.5,17.5V319.7H332.28V304.49A17.5,17.5,0,0,1,349.78,287Z" transform="translate(0 0)"/><path class="cls-2" d="M256,195.9A41.9,41.9,0,1,1,297.89,154,41.94,41.94,0,0,1,256,195.9Zm0-66.29h0A24.4,24.4,0,1,0,280.39,154,24.43,24.43,0,0,0,256,129.61Z" transform="translate(0 0)"/><path class="cls-6" d="M365.6,406.65a17.5,17.5,0,0,1-17.5,17.5H163.9a17.5,17.5,0,0,1-17.5-17.5V171.51A17.5,17.5,0,0,1,163.9,154H348.1a17.49,17.49,0,0,1,17.49,17.5V406.65Z" transform="translate(0 0)"/><path class="cls-7" d="M365.6,250.53A17.51,17.51,0,0,1,348.1,268H163.9a17.51,17.51,0,0,1-17.5-17.5v-79A17.5,17.5,0,0,1,163.9,154H348.1a17.49,17.49,0,0,1,17.49,17.5v79Z" transform="translate(0 0)"/><path class="cls-5" d="M282,319.7H230a17.5,17.5,0,0,0-17.5,17.5v29h86.94v-29A17.5,17.5,0,0,0,282,319.7Z" transform="translate(0 0)"/><polygon class="cls-2" points="212.53 366.2 212.53 424.15 299.47 424.15 299.47 366.2 212.53 366.2"/><polygon class="cls-4" points="179.57 154.01 179.57 299.7 192.69 314.7 205.82 299.7 205.82 154.01 179.57 154.01"/><path class="cls-8" d="M207.33,283H178.06a2.91,2.91,0,0,1-2.91-2.92V250.83a2.91,2.91,0,0,1,2.91-2.92h29.27a2.91,2.91,0,0,1,2.91,2.92v29.26A2.91,2.91,0,0,1,207.33,283ZM181,277.17h23.43V253.74H181Z" transform="translate(0 0)"/><polygon class="cls-4" points="306.18 154.01 306.18 299.7 319.31 314.7 332.43 299.7 332.43 154.01 306.18 154.01"/><path class="cls-8" d="M333.94,283H304.67a2.92,2.92,0,0,1-2.92-2.92V250.83a2.92,2.92,0,0,1,2.92-2.92h29.27a2.91,2.91,0,0,1,2.91,2.92v29.26A2.91,2.91,0,0,1,333.94,283Zm-26.35-5.84H331V253.74H307.59Z" transform="translate(0 0)"/><polygon class="cls-4" points="242.88 352.02 242.88 400.89 256 415.89 269.12 400.89 269.12 352.02 242.88 352.02"/><path class="cls-8" d="M270.63,384.2H241.37a2.92,2.92,0,0,1-2.92-2.92V352a2.92,2.92,0,0,1,2.92-2.92h29.26a2.92,2.92,0,0,1,2.92,2.92v29.26A2.92,2.92,0,0,1,270.63,384.2Zm-26.35-5.83h23.43V354.94H244.28Z" transform="translate(0 0)"/></svg>