<?xml version="1.0" encoding="utf-8"?>
<!-- Generator: Adobe Illustrator 22.1.0, SVG Export Plug-In . SVG Version: 6.00 Build 0)  -->
<svg version="1.1" id="Слой_1" xmlns="http://www.w3.org/2000/svg" xmlns:xlink="http://www.w3.org/1686868/xlink" x="0px" y="0px"
	 viewBox="0 0 100 126" style="enable-background:new 0 0 100 126;" xml:space="preserve">
<style type="text/css">
	.st0{fill:#304269;}
</style>
<path class="st0" d="M0,63.9c0-19.5,0-39,0-58.6c0-2,1.5-3.5,3.4-3.5c31,0,62.1,0,93.1,0c1.9,0,3.5,1.3,3.5,3.5c0,39,0,78,0,117.1
	c0,2.8-2.3,4.2-4.7,3c-14.8-6.9-29.5-13.8-44.3-20.7c-0.7-0.3-1.2-0.3-1.9,0c-14.8,6.9-29.6,13.8-44.4,20.7c-2.1,1-4.2-0.2-4.6-2
	c-0.1-0.3-0.1-0.7-0.1-1C0,102.9,0,83.4,0,63.9z M5.3,119.3c0.2-0.1,0.4-0.2,0.6-0.2c14.2-6.6,28.3-13.2,42.5-19.8
	c1.1-0.5,2.1-0.5,3.2,0c14.1,6.6,28.1,13.1,42.2,19.7c0.3,0.1,0.5,0.2,0.9,0.4c0-0.3,0-0.5,0-0.7c0-36.9,0-73.8,0-110.7
	c0-0.6-0.1-0.8-0.7-0.8c-29.3,0-58.7,0-88,0c-0.5,0-0.7,0.1-0.7,0.7c0,36.9,0,73.8,0,110.8C5.3,118.8,5.3,119,5.3,119.3z"/>
</svg>
