<?xml version="1.0" encoding="utf-8"?>
<!-- Generator: Adobe Illustrator 22.1.0, SVG Export Plug-In . SVG Version: 6.00 Build 0)  -->
<svg version="1.1" id="Слой_1" xmlns="http://www.w3.org/2000/svg" xmlns:xlink="http://www.w3.org/1686868/xlink" x="0px" y="0px"
	 viewBox="0 0 100 126" style="enable-background:new 0 0 100 126;" xml:space="preserve">
<style type="text/css">
	.st0{fill:#F26101;}
	.st1{fill:#304269;}
</style>
<path class="st0" d="M0,63.9c0-19.5,0-39,0-58.6c0-2,1.5-3.5,3.4-3.5c31,0,62.1,0,93.1,0c1.9,0,3.5,1.3,3.5,3.5c0,39,0,78,0,117.1
	c0,2.8-2.3,4.2-4.7,3c-14.8-6.9-29.5-13.8-44.3-20.7c-0.7-0.3-1.2-0.3-1.9,0c-14.8,6.9-29.6,13.8-44.4,20.7c-2.1,1-4.2-0.2-4.6-2
	c-0.1-0.3-0.1-0.7-0.1-1C0,102.9,0,83.4,0,63.9z"/>
<path class="st1" d="M94.1,119"/>
</svg>
