<?xml version="1.0" encoding="utf-8"?>
<!-- Generator: Adobe Illustrator 22.0.0, SVG Export Plug-In . SVG Version: 6.00 Build 0)  -->
<svg version="1.1" id="Слой_1" xmlns="http://www.w3.org/2000/svg" xmlns:xlink="http://www.w3.org/1999/xlink" x="0px" y="0px"
	 viewBox="0 0 512 512" style="enable-background:new 0 0 512 512;" xml:space="preserve">
<style type="text/css">
	.st0{fill:#FFFFFF;}
	.st1{fill:none;stroke:#FFFFFF;stroke-width:9;stroke-miterlimit:10;}
</style>
<g>
	<path class="st0" d="M419.1,150.9L388.2,120c-1.8-1.8-4.6-2.4-7-1.4c-2.4,1-4,3.3-4,6v6.4H285c-3.6,0-6.4,2.9-6.4,6.4
		c0,3.6,2.9,6.4,6.4,6.4h98.6c2.8,0,5.1-1.7,6-4.2l15.8,15.8l-15.8,15.8c-0.9-2.4-3.3-4.2-6-4.2h-42.3c0,0-0.1,0-0.1,0H256
		c-49,0-88.9,39.9-88.9,88.9s39.9,88.9,88.9,88.9s88.9-39.9,88.9-88.9c0-32.2-17.2-60.4-42.9-76.1h36.3
		c19.2,20.8,29.7,47.7,29.7,76.1c0,61.8-50.3,112.1-112.1,112.1S143.9,317.8,143.9,256c0-51.6,34.9-96.4,84.9-108.8
		c3.5-0.9,5.6-4.4,4.7-7.8c-0.9-3.5-4.4-5.6-7.8-4.7c-26.6,6.6-50.6,22.2-67.7,43.8c-17.6,22.3-27,49.1-27,77.6
		c0,28.6,9.7,55,25.9,76.1h-22v-6.4c0-2.6-1.6-5-4-6c-2.4-1-5.2-0.4-7,1.4L92.9,352c-2.5,2.5-2.5,6.6,0,9.1l30.9,30.9
		c1.2,1.2,2.9,1.9,4.6,1.9c0.8,0,1.7-0.2,2.5-0.5c2.4-1,4-3.3,4-6V381H256c68.9,0,125-56.1,125-125c0-27.8-9.1-54.3-25.8-76.1h21.9
		v6.4c0,2.6,1.6,5,4,6c0.8,0.3,1.6,0.5,2.5,0.5c1.7,0,3.3-0.7,4.6-1.9l30.9-30.9C421.6,157.5,421.6,153.4,419.1,150.9z M332.1,256
		c0,41.9-34.1,76.1-76.1,76.1s-76.1-34.1-76.1-76.1c0-41.9,34.1-76.1,76.1-76.1S332.1,214.1,332.1,256z M128.4,368.1
		c-2.8,0-5.1,1.7-6,4.2l-15.8-15.8l15.8-15.8c0.9,2.4,3.3,4.2,6,4.2h39.8c9.5,9.4,20.5,17.2,32.5,23.2H128.4z"/>
	<path class="st0" d="M251.6,260.6c1.3,1.3,2.9,1.9,4.6,1.9c1.6,0,3.3-0.6,4.6-1.9l35.1-35.1c2.5-2.5,2.5-6.6,0-9.1
		c-2.5-2.5-6.6-2.5-9.1,0L256.1,247l-14.3-14.3c-2.5-2.5-6.6-2.5-9.1,0c-2.5,2.5-2.5,6.6,0,9.1L251.6,260.6z"/>
	<path class="st0" d="M256,205.7c1.7,0,3.4-0.7,4.6-1.9s1.9-2.9,1.9-4.6s-0.7-3.4-1.9-4.6s-2.9-1.9-4.6-1.9c-1.7,0-3.4,0.7-4.6,1.9
		s-1.9,2.9-1.9,4.6s0.7,3.4,1.9,4.6S254.3,205.7,256,205.7z"/>
	<path class="st0" d="M256,306.3c-1.7,0-3.4,0.7-4.6,1.9s-1.9,2.9-1.9,4.6c0,1.7,0.7,3.4,1.9,4.6s2.9,1.9,4.6,1.9
		c1.7,0,3.4-0.7,4.6-1.9s1.9-2.9,1.9-4.6c0-1.7-0.7-3.4-1.9-4.6S257.7,306.3,256,306.3z"/>
	<path class="st0" d="M312.7,262.4c1.7,0,3.4-0.7,4.6-1.9s1.9-2.9,1.9-4.6c0-1.7-0.7-3.4-1.9-4.6s-2.9-1.9-4.6-1.9s-3.4,0.7-4.6,1.9
		s-1.9,2.9-1.9,4.6c0,1.7,0.7,3.4,1.9,4.6S311,262.4,312.7,262.4z"/>
	<path class="st0" d="M194.7,251.4c-1.2,1.2-1.9,2.9-1.9,4.6c0,1.7,0.7,3.4,1.9,4.6s2.9,1.9,4.6,1.9s3.4-0.7,4.6-1.9
		s1.9-2.9,1.9-4.6c0-1.7-0.7-3.4-1.9-4.6s-2.9-1.9-4.6-1.9S195.9,250.2,194.7,251.4z"/>
	<path class="st0" d="M256,143.9c1.7,0,3.4-0.7,4.6-1.9s1.9-2.9,1.9-4.6s-0.7-3.4-1.9-4.6s-2.9-1.9-4.6-1.9c-1.7,0-3.4,0.7-4.6,1.9
		s-1.9,2.9-1.9,4.6s0.7,3.4,1.9,4.6S254.3,143.9,256,143.9z"/>
</g>
<circle class="st1" cx="256" cy="256" r="248.5"/>
</svg>
