<?xml version="1.0" encoding="utf-8"?>
<!-- Generator: Adobe Illustrator 22.0.0, SVG Export Plug-In . SVG Version: 6.00 Build 0)  -->
<svg version="1.1" id="Слой_1" xmlns="http://www.w3.org/2000/svg" xmlns:xlink="http://www.w3.org/1999/xlink" x="0px" y="0px"
	 viewBox="0 0 512 512" style="enable-background:new 0 0 512 512;" xml:space="preserve">
<style type="text/css">
	.st0{fill:#FFFFFF;}
	.st1{fill:none;stroke:#FFFFFF;stroke-width:9;stroke-miterlimit:10;}
</style>
<g>
	<path class="st0" d="M357.6,251.3c-0.3-0.2-0.5-0.4-0.8-0.5c-0.2-0.1-0.3-0.1-0.5-0.2c-17.9-9.8-38.4-15.3-60.2-15.3h-0.3
		c13.5-10.7,22.7-26.7,24.3-44.9h1.6c14.5,0,26.3-11.8,26.3-26.3c0-14-10.9-25.4-24.7-26.2c12.9-7.8,19.9-17.8,19.9-28.6
		c0-12.8-9.8-24.4-27.5-32.7C299.7,69.1,278.5,65,256,65s-43.6,4.1-59.7,11.6c-17.8,8.2-27.5,19.8-27.5,32.7
		c0,10.8,7,20.8,19.9,28.6c-13.8,0.8-24.7,12.3-24.7,26.2c0,14.5,11.8,26.3,26.3,26.3h1.6c1.6,18.2,10.7,34.2,24.3,44.9h-0.3
		c-21.3,0-42,5.4-60.4,15.5c-0.1,0-0.1,0.1-0.2,0.1c-0.2,0.1-0.4,0.2-0.6,0.3c-7.4,4.1-14.5,9-21,14.6c-2.9,2.5-3.2,6.9-0.7,9.8
		c2.5,2.9,6.9,3.2,9.8,0.7c4.1-3.5,8.4-6.7,12.9-9.6l25.9,50.2l-20.9,20.9c-2.5,2.5-2.7,6.6-0.4,9.3l48.4,58.4H103.7v-44.3
		c0-11.5,1.7-22.8,5.2-33.7c1.1-3.6-0.9-7.5-4.5-8.7c-3.6-1.2-7.5,0.9-8.7,4.5c-3.8,12.2-5.8,24.9-5.8,37.9v51.2
		c0,3.8,3.1,6.9,6.9,6.9h318.3c3.8,0,6.9-3.1,6.9-6.9v-51.2C422.1,314.1,396.1,272.9,357.6,251.3z M317.2,323.1l20.1,20l-51.7,62.4
		h-11.7l37.5-155.4c11.6,1.6,22.7,5,32.9,9.8l-28.4,55C314.5,317.7,315,320.9,317.2,323.1z M252.4,405.5l-29.2-120.7l32.8-32.8
		l32.8,32.8l-29.2,120.7H252.4z M297.4,249.1l-4.8,19.9l-19.9-19.9h23.4C296.6,249.1,297,249.1,297.4,249.1z M204.7,141.1h102.7
		c-3,9.6-11.9,16.6-22.5,16.6h-57.7C216.6,157.7,207.6,150.7,204.7,141.1z M334.2,164.1c0,6.9-5.6,12.5-12.5,12.5h-1.4v-24.9h1.4
		C328.6,151.6,334.2,157.2,334.2,164.1z M182.6,109.2c0-14.4,30.1-30.4,73.4-30.4s73.4,16,73.4,30.4c0,6.1-5.6,12.7-15.5,18.1H198.1
		C188.3,121.9,182.6,115.4,182.6,109.2z M177.8,164.1c0-6.9,5.6-12.5,12.5-12.5h1.4v24.9h-1.4C183.4,176.5,177.8,170.9,177.8,164.1z
		 M205.5,184.7v-20.1c6.1,4.4,13.6,7,21.7,7h57.7c8.1,0,15.6-2.6,21.7-7v20.1c0,27.9-22.7,50.5-50.5,50.5S205.5,212.6,205.5,184.7z
		 M239.3,249.1L219.4,269l-4.8-19.9c0.4,0,0.8,0,1.3,0H239.3z M174.8,343.1l20.1-20c2.1-2.1,2.6-5.4,1.3-8.1l-28.4-55
		c10.4-4.9,21.5-8.3,32.9-9.8l37.5,155.4h-11.7L174.8,343.1z M408.3,405.5H303.5l48.4-58.4c2.3-2.8,2.1-6.8-0.4-9.3l-20.9-20.9
		l25.9-50.1c31.2,19.9,51.9,54.8,51.9,94.5V405.5z"/>
	<path class="st0" d="M115.2,304.5c1.8,0,3.6-0.7,4.9-2c1.3-1.3,2-3.1,2-4.9c0-1.8-0.7-3.6-2-4.9c-1.3-1.3-3.1-2-4.9-2
		c-1.8,0-3.6,0.7-4.9,2c-1.3,1.3-2,3.1-2,4.9c0,1.8,0.7,3.6,2,4.9C111.6,303.8,113.4,304.5,115.2,304.5z"/>
</g>
<circle class="st1" cx="256" cy="257" r="248.5"/>
</svg>
