<?xml version="1.0" encoding="utf-8"?>
<!-- Generator: Adobe Illustrator 16.0.0, SVG Export Plug-In . SVG Version: 6.00 Build 0)  -->
<!DOCTYPE svg PUBLIC "-//W3C//DTD SVG 1.1//EN" "http://www.w3.org/Graphics/SVG/1.1/DTD/svg11.dtd" [
	<!ENTITY ns_flows "http://ns.adobe.com/Flows/1.0/">
	<!ENTITY ns_extend "http://ns.adobe.com/Extensibility/1.0/">
	<!ENTITY ns_ai "http://ns.adobe.com/AdobeIllustrator/10.0/">
	<!ENTITY ns_graphs "http://ns.adobe.com/Graphs/1.0/">
]>
<svg version="1.1" id="Layer_1" xmlns:x="&ns_extend;" xmlns:i="&ns_ai;" xmlns:graph="&ns_graphs;"
	 xmlns="http://www.w3.org/2000/svg" xmlns:xlink="http://www.w3.org/1999/xlink" xmlns:a="http://ns.adobe.com/AdobeSVGViewerExtensions/3.0/"
	 x="0px" y="0px" width="240px" height="47.926px" viewBox="63.152 12.611 240 47.926"
	 enable-background="new 63.152 12.611 240 47.926" xml:space="preserve">
<g>
	<path fill="#ffffff" d="M303.152,34.028l-12.318,18.503c-1.644,2.468-3.656,4.36-6.463,5.813c-4.271,2.223-9.002,2.192-9.002,2.192
		l2.888-4.657c0,0,1.979-0.48,4.473-2.23c2.687-1.888,2.895-3.461,2.895-3.461l-1.968-0.99l0.075-15.226
		c0,0,4.584,0.336,4.983,3.822l0.798,6.979l8.008-9.528C299.091,33.376,303.152,34.028,303.152,34.028z"/>
	<path fill="#ffffff" d="M276.027,33.973c7.045,0.23,5.858,3.58,5.858,3.58l-5.692,15.411h-4.883l0.134-1.737
		c0,0-2.358,1.737-6.199,1.737c-3.839,0-5.053-2.007-3.839-5.372c2.652-7.378,13.682-6.219,13.682-6.219
		c0.178-0.603,0.265-1.036,0.318-1.361c0.055-0.322,0.071-0.536,0.075-0.707c0.003-0.172-0.01-0.301-0.057-0.42
		c-0.041-0.118-0.118-0.227-0.231-0.335c-0.113-0.11-0.265-0.223-0.449-0.316c-0.184-0.096-0.401-0.177-0.609-0.232
		c-0.208-0.057-0.405-0.092-0.582-0.115c-0.18-0.024-0.339-0.036-0.563-0.042c-0.226-0.006-0.517-0.004-1,0.035
		c-0.482,0.039-1.158,0.117-1.944,0.247c-0.785,0.132-1.685,0.317-2.646,0.571l-0.2-3.099
		C267.2,35.597,269.626,33.973,276.027,33.973z M273.322,46.362c0.399-1.117,0.687-1.936,0.687-1.936s-2.433-0.203-4.653,1.277
		c-2.225,1.485-1.08,3.643,1.684,3.033C272.452,48.429,272.91,47.394,273.322,46.362z"/>
	<path fill="#ffffff" d="M255.731,33.986c5.047,0,7.735,2.835,5.818,8.389c-4.052,11.742-14.301,10.64-14.301,10.64
		c-0.307,0.851-0.987,2.74-1.623,4.505c-1.148,3.182-7.959,2.994-7.959,2.994l9.247-25.16
		C246.914,35.353,250.681,33.986,255.731,33.986z M255.047,42.885c2.396-7.021-3.169-4.275-3.169-4.275l-3.166,9.241
		C248.712,47.85,252.888,49.192,255.047,42.885z"/>
	<path fill="#ffffff" d="M240.652,33.991c2.531,0,3.352,1.212,2.463,3.636l-5.1,13.871c-0.315,0.854-1.126,1.422-2.036,1.422h-4.565
		l4.637-12.611c0.205-0.561-0.084-1.186-0.646-1.392c-0.119-0.042-0.245-0.066-0.373-0.066h-0.201c-1.365,0-2.583,0.851-3.054,2.131
		l-3.865,10.517c-0.314,0.854-1.127,1.422-2.038,1.422h-4.563l4.635-12.611c0.207-0.561-0.08-1.186-0.643-1.392
		c-0.119-0.042-0.247-0.066-0.373-0.066h-0.362c-1.363,0-2.582,0.851-3.055,2.131l-3.864,10.517
		c-0.314,0.854-1.127,1.422-2.037,1.422h-4.562l6.957-18.929h6.075l0.021,0.008l-0.624,1.695c1.97-1.188,4.242-1.78,6.54-1.703
		c1.996,0,3.05,0.568,3.159,1.703C235.479,34.491,238.057,33.905,240.652,33.991z"/>
	<path fill="#ffffff" d="M211.129,33.991c2.53,0,3.35,1.212,2.459,3.636l-5.097,13.871c-0.314,0.854-1.129,1.422-2.036,1.422h-4.563
		l4.634-12.611c0.206-0.561-0.081-1.186-0.643-1.392c-0.121-0.042-0.247-0.066-0.375-0.066h-0.201c-1.365,0-2.585,0.851-3.056,2.131
		l-3.864,10.517c-0.313,0.854-1.129,1.422-2.035,1.422h-4.563l4.634-12.611c0.206-0.561-0.082-1.186-0.643-1.392
		c-0.121-0.042-0.247-0.066-0.375-0.066h-0.361c-1.362,0-2.582,0.851-3.054,2.131l-3.864,10.517
		c-0.314,0.854-1.128,1.422-2.036,1.422h-4.563l6.957-18.929h6.076l0.021,0.008l-0.623,1.695c1.969-1.188,4.24-1.78,6.539-1.703
		c1.998,0,3.051,0.568,3.161,1.703C205.956,34.491,208.53,33.905,211.129,33.991z"/>
	<path fill="#ffffff" d="M177.467,33.96c4.381,0,7.396,3.339,5.02,9.398c-2.373,6.058-6.477,9.568-12.499,9.568
		c-6.017,0-7.483-2.98-4.833-10.189C167.797,35.542,173.091,33.96,177.467,33.96z M173.941,47.679
		c1.737-2.033,3.231-6.098,2.987-8.128c-0.244-2.034-2.225-2.034-3.962,0c-1.737,2.032-3.231,6.096-2.988,8.128
		C170.222,49.71,172.203,49.71,173.941,47.679z"/>
	<path fill="#ffffff" d="M167.216,35.359l-2.932,3.132c0,0-2.228-1.537-4.422,0.007c-1.105,0.775-2.06,2.778-3.012,5.269
		c-2.797,7.333,4.403,3.713,4.403,3.713l0.903,3.908c0,0-2.957,1.564-7.453,1.564c-4.497,0-5.864-3.323-3.611-10.26
		c2.167-6.705,7.421-8.699,11.334-8.699C166.335,33.99,167.216,35.359,167.216,35.359z"/>
	<path fill="#ffffff" d="M145.1,33.964c5.499,0,4.968,4.526,4.616,6.387c-0.358,1.863-1.247,4.264-1.247,4.264h-10.291
		c0,0-1.148,3.725,1.421,4.344c2.576,0.623,5.856-1.419,5.856-1.419l0.354,3.638c0,0-1.949,1.776-7.097,1.776
		c-5.146,0-7.189-3.106-4.973-9.582C135.961,36.892,139.598,33.964,145.1,33.964z M144.478,41.329c0,0,1.153-3.549-1.331-3.549
		c-2.481,0-3.46,3.549-3.46,3.549H144.478z"/>
	<path fill="#ffffff" d="M122.436,31.098c1.097,0.762,1.368,2.269,0.605,3.365l-15.205,21.87c-1.446,2.079-3.818,3.318-6.353,3.318
		H63.152l17.893-25.733l4.13,5.93l-9.058,13.029h24.193c0.317,0,0.614-0.155,0.794-0.416l15.154-21.796h4.798
		C121.549,30.665,122.031,30.816,122.436,31.098z"/>
	<path fill="#ffffff" d="M121.583,13.026c0.064,0.146,0.039,0.342-0.002,0.527c-0.163,0.732-0.565,1.288-0.967,1.851
		c-1.066,1.5-2.115,3.04-3.164,4.582L98.921,46.764c-0.162,0.232-0.365,0.433-0.604,0.589c-1.024,0.677-2.404,0.396-3.081-0.629
		c-5.926-8.961-7.137-10.793-8.013-12.106c-0.878-1.314-1.42-2.11-1.522-2.763s0.233-1.161,0.854-1.564
		c0.619-0.403,1.521-0.701,10.007,2.781c5.392-4.908,10.786-9.813,15.978-15.026c1.435-1.44,2.855-2.906,4.548-4.013
		c0.573-0.376,1.179-0.71,1.799-0.997c0.604-0.277,1.222-0.509,1.961-0.396C121.153,12.69,121.481,12.796,121.583,13.026z"/>
</g>
</svg>
