<svg id="Слой_1" data-name="Слой 1" xmlns="http://www.w3.org/2000/svg" viewBox="0 0 612.22 512"><defs><style>.cls-1{fill:#304269;}</style></defs><title>filter</title><path class="cls-1" d="M478,0H21.51A21.43,21.43,0,0,0,2.4,11.64,21.76,21.76,0,0,0,4.09,34.27L171.33,269.85a2.07,2.07,0,0,0,.17.24,47.84,47.84,0,0,1,9.38,28.35V490.51A21.36,21.36,0,0,0,202.23,512a22,22,0,0,0,8.43-1.69l94-35.83c8.42-2.57,14-10.51,14-20.08v-156A47.79,47.79,0,0,1,328,270.09l.18-.24L495.41,34.26a21.7,21.7,0,0,0,1.69-22.62A21.43,21.43,0,0,0,478,0ZM307.06,254.7a74,74,0,0,0-14.42,43.74v152.8l-85.77,32.7V298.44a73.9,73.9,0,0,0-14.43-43.74L30.09,26H469.42Z"/><path class="cls-1" d="M604.81,326.71h-176v-7a18.53,18.53,0,0,0-18.51-18.51H381.56A18.53,18.53,0,0,0,363,319.75v7H334a7.41,7.41,0,1,0,0,14.81h29v7A18.54,18.54,0,0,0,381.55,367h28.73a18.53,18.53,0,0,0,18.51-18.51v-7h176a7.41,7.41,0,1,0,0-14.81ZM414,348.48a3.71,3.71,0,0,1-3.71,3.7H381.56a3.71,3.71,0,0,1-3.71-3.7V319.75a3.71,3.71,0,0,1,3.71-3.7h28.72a3.71,3.71,0,0,1,3.71,3.7Z"/><path class="cls-1" d="M604.81,396.18h-29v-7a18.53,18.53,0,0,0-18.52-18.51H528.56A18.53,18.53,0,0,0,510,389.22v7H334A7.41,7.41,0,1,0,334,411H510v7a18.53,18.53,0,0,0,18.52,18.51h28.72A18.53,18.53,0,0,0,575.79,418v-7h29a7.41,7.41,0,1,0,0-14.81ZM561,418a3.71,3.71,0,0,1-3.71,3.7H528.56a3.71,3.71,0,0,1-3.71-3.7V389.22a3.71,3.71,0,0,1,3.71-3.7h28.72a3.71,3.71,0,0,1,3.71,3.7Z"/><path class="cls-1" d="M604.81,471.72h-124v-7a18.53,18.53,0,0,0-18.52-18.51H433.58a18.53,18.53,0,0,0-18.52,18.51v7H334a7.41,7.41,0,1,0,0,14.81h81v7A18.53,18.53,0,0,0,433.58,512H462.3a18.53,18.53,0,0,0,18.52-18.51v-7h124a7.41,7.41,0,1,0,0-14.81ZM466,493.49a3.71,3.71,0,0,1-3.71,3.7H433.58a3.71,3.71,0,0,1-3.71-3.7V464.76a3.71,3.71,0,0,1,3.71-3.7H462.3a3.71,3.71,0,0,1,3.71,3.7v28.73Z"/></svg>