<?xml version="1.0" encoding="utf-8"?>
<!-- Generator: Adobe Illustrator 22.0.0, SVG Export Plug-In . SVG Version: 6.00 Build 0)  -->
<svg version="1.1" id="Layer_1" xmlns="http://www.w3.org/2000/svg" xmlns:xlink="http://www.w3.org/1999/xlink" x="0px" y="0px"
	 viewBox="0 0 100.8 100.7" style="enable-background:new 0 0 100.8 100.7;" xml:space="preserve">
<style type="text/css">
	.st0{fill:#304269;}
</style>
<g>
	<path class="st0" d="M26.8,41.6c0,2.8,2.3,5,5,5s5-2.3,5-5s-2.3-5-5-5S26.8,38.9,26.8,41.6z M34,41.6c0,1.2-1,2.1-2.1,2.1
		s-2.1-1-2.1-2.1s1-2.1,2.1-2.1S34,40.5,34,41.6z"/>
	<path class="st0" d="M76.4,26c-0.7-0.4-1.6-0.1-2,0.6s-0.1,1.6,0.6,2C85,34,91,42.8,91,52.1c0,8.5-3.4,14.9-11.1,20.5
		c-0.3,0.2-0.5,0.5-0.6,0.9l-2.9,12.9h-5.4l-1.7-6.6c-0.1-0.4-0.4-0.7-0.7-0.9s-0.8-0.2-1.2-0.1c-4.8,1.8-8.4,2.3-14.8,2.3
		c-6.1,0-10.5-0.4-16.1-2.7c-0.4-0.2-0.8-0.1-1.2,0.1c-0.4,0.2-0.7,0.5-0.7,1l-1.6,6.9h-5.3l-2.8-13.9c-0.1-0.4-0.3-0.7-0.6-0.9
		C12.1,63.4,5.9,56.3,5.9,50.6v-5.5c0-2.4,1.7-4.3,3.7-4.3h6.5l0.1,0c0.1,0,0.1,0,0.2,0c0.6,0.1,1.1-0.2,1.4-0.7
		c2.1-3.5,5.1-6.6,9-9.3c0.4-0.3,0.6-0.7,0.6-1.2V17.5c5.2,0.5,8.8,3.9,10.2,7.3c0.3,0.7,1.2,1.1,1.9,0.8c0.7-0.3,1.1-1.2,0.8-1.9
		c-1.9-4.5-7.1-9.1-14.4-9.1c-0.8,0-1.5,0.6-1.5,1.5v12.9c-3.7,2.7-6.6,5.7-8.8,9.1H9.6C6,38,3,41.2,3,45.1v5.5
		c0,9.8,13.8,19.4,19,23L25,88.1c0.1,0.7,0.7,1.2,1.4,1.2h7.7c0.7,0,1.3-0.5,1.4-1.1l1.5-6.4c5.3,1.9,9.7,2.3,15.7,2.3
		c5.5,0,9.4-0.3,14.3-2l1.6,6.1c0.2,0.6,0.7,1.1,1.4,1.1h7.7c0.7,0,1.3-0.5,1.4-1.1l3-13.5c8.1-6.1,11.8-13.2,11.8-22.5
		C93.9,41.8,87.4,32,76.4,26z"/>
	<path class="st0" d="M47.7,30.2c0.4,0,0.8-0.2,1.1-0.5c2-2.2,5.1-3.5,8.5-3.5c3.3,0,6.4,1.3,8.4,3.5c0.3,0.3,0.7,0.5,1.1,0.5
		c0,0,0,0,0.1,0c0.4,0,0.8-0.2,1.1-0.6c1.8-2.4,2.8-5.2,2.8-8.2c0-7.4-6-13.4-13.4-13.4s-13.4,6-13.4,13.4c0,2.9,0.9,5.7,2.7,8.1
		C46.8,29.9,47.2,30.2,47.7,30.2z M57.3,11c5.8,0,10.5,4.7,10.5,10.5c0,1.8-0.4,3.5-1.3,5c-2.5-2.1-5.8-3.2-9.2-3.2
		c-3.5,0-6.8,1.1-9.3,3.1c-0.8-1.5-1.2-3.2-1.2-5C46.8,15.7,51.5,11,57.3,11z"/>
</g>
</svg>
