<?xml version="1.0" encoding="utf-8"?>
<!-- Generator: Adobe Illustrator 22.0.0, SVG Export Plug-In . SVG Version: 6.00 Build 0)  -->
<svg version="1.1" id="Layer_1" xmlns="http://www.w3.org/2000/svg" xmlns:xlink="http://www.w3.org/1999/xlink" x="0px" y="0px"
	 viewBox="0 0 512 512" style="enable-background:new 0 0 512 512;" xml:space="preserve">
<style type="text/css">
	.st0{display:none;}
	.st1{display:inline;}
	.st2{fill:#ff6600;}
</style>
<g class="st0">
	<g class="st1">
		<g>
			<path class="st2" d="M256,0C153.8,0,70.6,83.2,70.6,185.4c0,126.9,165.9,313.2,173,321c6.6,7.4,18.2,7.4,24.8,0
				c7.1-7.9,173-194.1,173-321C441.4,83.2,358.2,0,256,0z M256,278.7c-51.4,0-93.3-41.9-93.3-93.3s41.9-93.3,93.3-93.3
				s93.3,41.9,93.3,93.3S307.4,278.7,256,278.7z"/>
		</g>
	</g>
</g>
<g>
	<g>
		<g id="directions-bus">
			<path class="st2" d="M40.4,377.3c0,24.3,10.8,45.8,26.9,59.3v48.5c0,16.2,10.8,26.9,26.9,26.9h26.9c16.2,0,26.9-10.8,26.9-26.9
				v-26.9h215.6v26.9c0,16.2,10.8,26.9,26.9,26.9h26.9c16.2,0,26.9-10.8,26.9-26.9v-48.5c16.2-13.5,26.9-35,26.9-59.3V107.8
				C471.6,13.5,374.6,0,256,0S40.4,13.5,40.4,107.8V377.3z M134.7,404.2c-21.6,0-40.4-18.9-40.4-40.4s18.9-40.4,40.4-40.4
				s40.4,18.9,40.4,40.4S156.3,404.2,134.7,404.2z M377.3,404.2c-21.6,0-40.4-18.9-40.4-40.4s18.9-40.4,40.4-40.4
				s40.4,18.9,40.4,40.4S398.8,404.2,377.3,404.2z M397.7,242.5H114.3c-11,0-20-9-20-20v-94.7c0-11,9-20,20-20h283.4
				c11,0,20,9,20,20v94.7C417.7,233.6,408.7,242.5,397.7,242.5z"/>
		</g>
	</g>
</g>
</svg>
