<svg id="Слой_1" data-name="Слой 1" xmlns="http://www.w3.org/2000/svg" xmlns:xlink="http://www.w3.org/1999/xlink" viewBox="0 0 766.83 294.32"><defs><style>.cls-1{fill:none;}.cls-2{fill:url(#Безымянный_градиент_86);}.cls-3{fill:url(#Безымянный_градиент_87);}.cls-4{fill:url(#Безымянный_градиент_88);}.cls-5{fill:url(#Безымянный_градиент_89);}.cls-6{fill:#eac1a4;}.cls-7{fill:#292949;}.cls-8{fill:#3c4043;}.cls-9{clip-path:url(#clip-path);}.cls-10{fill:#f7f7f7;}.cls-11{fill:#474ebb;}.cls-12{fill:#f60;}.cls-13{fill:#304269;}.cls-14{fill:#39517c;}.cls-15{fill:#bac5f4;}.cls-16{fill:#e1e6fb;}.cls-17{fill:#3b455a;}.cls-18{fill:#babcc3;}.cls-19{fill:#d1d1d1;}.cls-20{fill:#353a85;}.cls-21{fill:#5d66d3;}.cls-22,.cls-34{fill:#fff;}.cls-23{fill:#cecfd3;}.cls-24,.cls-25,.cls-47{fill:#000100;}.cls-24,.cls-33{opacity:0.09;}.cls-24,.cls-25,.cls-33,.cls-34{isolation:isolate;}.cls-25,.cls-34{opacity:0.15;}.cls-26{fill:#34383a;}.cls-27{fill:url(#Безымянный_градиент_90);}.cls-28{fill:url(#Безымянный_градиент_91);}.cls-29{fill:url(#Безымянный_градиент_92);}.cls-30{fill:url(#Безымянный_градиент_93);}.cls-31{fill:url(#Безымянный_градиент_94);}.cls-32{fill:url(#Безымянный_градиент_95);}.cls-33{fill:url(#Безымянный_градиент_96);}.cls-35{fill:url(#Безымянный_градиент_97);}.cls-36{fill:url(#Безымянный_градиент_98);}.cls-37{fill:#4b45bd;}.cls-38{fill:url(#Безымянный_градиент_99);}.cls-39{fill:url(#Безымянный_градиент_100);}.cls-40{fill:url(#Безымянный_градиент_101);}.cls-41{fill:#484f5b;}.cls-42{fill:#8cabef;}.cls-43{fill:url(#Безымянный_градиент_102);}.cls-44{fill:url(#Безымянный_градиент_103);}.cls-45{fill:#587bc9;}.cls-46{opacity:0.1;}.cls-48{fill:#ffd559;}</style><linearGradient id="Безымянный_градиент_86" x1="362.38" y1="238.12" x2="362.38" y2="316.12" gradientTransform="matrix(1, 0, 0, -1, 0, 310)" gradientUnits="userSpaceOnUse"><stop offset="0" stop-color="#fff"/><stop offset="1" stop-color="#cfcfcf"/></linearGradient><linearGradient id="Безымянный_градиент_87" x1="257.65" y1="-21.21" x2="257.65" y2="77.56" gradientTransform="matrix(1, 0, 0, -1, 0, 310)" gradientUnits="userSpaceOnUse"><stop offset="0.48" stop-color="#fff"/><stop offset="1" stop-color="#cfcfcf"/></linearGradient><linearGradient id="Безымянный_градиент_88" x1="29.4" y1="44.79" x2="29.4" y2="128.92" xlink:href="#Безымянный_градиент_86"/><linearGradient id="Безымянный_градиент_89" x1="750.72" y1="238.79" x2="750.72" y2="308.81" xlink:href="#Безымянный_градиент_86"/><clipPath id="clip-path" transform="translate(-1.25 -6.3)"><polygon class="cls-1" points="560.2 258 558 235.7 557 221.2 553.6 209.4 534.9 206.5 511.8 210.4 510.7 214.9 515.2 256.4 537.4 258 537.1 232.2 540.5 248.2 540.4 258 560.2 258"/></clipPath><linearGradient id="Безымянный_градиент_90" x1="77.05" y1="193.7" x2="77.05" y2="303.75" xlink:href="#Безымянный_градиент_86"/><linearGradient id="Безымянный_градиент_91" x1="87" y1="193.7" x2="87" y2="303.75" xlink:href="#Безымянный_градиент_86"/><linearGradient id="Безымянный_градиент_92" x1="146.8" y1="193.7" x2="146.8" y2="303.75" xlink:href="#Безымянный_градиент_86"/><linearGradient id="Безымянный_градиент_93" x1="123.59" y1="193.7" x2="123.59" y2="303.75" xlink:href="#Безымянный_градиент_86"/><linearGradient id="Безымянный_градиент_94" x1="124.75" y1="193.7" x2="124.75" y2="303.75" gradientTransform="matrix(1, 0, 0, -1, -1.25, 303.7)" xlink:href="#Безымянный_градиент_86"/><linearGradient id="Безымянный_градиент_95" x1="118.5" y1="193.7" x2="118.5" y2="303.75" gradientTransform="matrix(1, 0, 0, -1, -1.25, 303.7)" xlink:href="#Безымянный_градиент_86"/><linearGradient id="Безымянный_градиент_96" x1="119.8" y1="193.7" x2="119.8" y2="303.75" gradientTransform="matrix(1, 0, 0, -1, -1.25, 303.7)" xlink:href="#Безымянный_градиент_86"/><linearGradient id="Безымянный_градиент_97" x1="124.95" y1="193.7" x2="124.95" y2="303.75" xlink:href="#Безымянный_градиент_86"/><linearGradient id="Безымянный_градиент_98" x1="125.05" y1="209.04" x2="125.05" y2="261.24" xlink:href="#Безымянный_градиент_86"/><linearGradient id="Безымянный_градиент_99" x1="257.55" y1="15.7" x2="257.55" y2="83.04" xlink:href="#Безымянный_градиент_86"/><linearGradient id="Безымянный_градиент_100" x1="274.8" y1="15.7" x2="274.8" y2="83.04" xlink:href="#Безымянный_градиент_86"/><linearGradient id="Безымянный_градиент_101" x1="239.6" y1="15.7" x2="239.6" y2="83.04" xlink:href="#Безымянный_градиент_86"/><linearGradient id="Безымянный_градиент_102" x1="699.51" y1="57.7" x2="699.51" y2="159.92" xlink:href="#Безымянный_градиент_86"/><linearGradient id="Безымянный_градиент_103" x1="699.55" y1="57.7" x2="699.55" y2="159.92" xlink:href="#Безымянный_градиент_86"/></defs><title>history</title><g id="Слой_24" data-name="Слой 24"><path class="cls-2" d="M379.6,14.2a22.74,22.74,0,0,0-34.8.4,29.53,29.53,0,0,0,.4,38.3l15.6,17.2a2.66,2.66,0,0,0,2,.9,2.88,2.88,0,0,0,2-.9L380,52.6A29.79,29.79,0,0,0,379.6,14.2ZM363.1,46.8a14.85,14.85,0,1,1,14.7-15A14.85,14.85,0,0,1,363.1,46.8Z" transform="translate(-1.25 -6.3)"/><path class="cls-3" d="M272.3,252.3a19.31,19.31,0,0,0-14.9-6.7,19.83,19.83,0,0,0-14.8,7.1,25.14,25.14,0,0,0,.4,32.6l13.3,14.6a1.9,1.9,0,0,0,1.7.7,2.72,2.72,0,0,0,1.7-.8l13-14.9A25.14,25.14,0,0,0,272.3,252.3ZM258.4,280a12.65,12.65,0,1,1,12.5-12.8A12.76,12.76,0,0,1,258.4,280Z" transform="translate(-1.25 -6.3)"/><path class="cls-4" d="M49.2,197.6a26.17,26.17,0,0,0-40.1.5,34.07,34.07,0,0,0,.5,44.1l18,19.8a3.26,3.26,0,0,0,2.3,1,3,3,0,0,0,2.3-1.1l17.5-20.2A34.06,34.06,0,0,0,49.2,197.6ZM30.3,235a17.05,17.05,0,1,1,17-17.2A17.09,17.09,0,0,1,30.3,235Z" transform="translate(-1.25 -6.3)"/><path class="cls-5" d="M762.9,26.1a16.14,16.14,0,0,0-24.7.3,21,21,0,0,0,.3,27.2l11.1,12.2a2,2,0,0,0,1.4.6,1.62,1.62,0,0,0,1.4-.7l10.8-12.5A20.78,20.78,0,0,0,762.9,26.1ZM751.3,49.2a10.5,10.5,0,1,1,10.4-10.6A10.44,10.44,0,0,1,751.3,49.2Z" transform="translate(-1.25 -6.3)"/><g id="_Группа_" data-name="&lt;Группа&gt;"><path id="_Контур_" data-name="&lt;Контур&gt;" class="cls-6" d="M544.1,248.1l.3,15.6c-.1,4.3.3,8.7.5,13,.2,4-.6,8.1,1.3,11.9.6,1.2,1.9,2,2.8.6.7-1,.4-2.8.6-4,1.4-9.1,4-17.9,5.2-27C556.2,248.7,552.5,249,544.1,248.1Z" transform="translate(-1.25 -6.3)"/></g><path class="cls-7" d="M545.7,285.9h0a3.34,3.34,0,0,0,1.9,5.2l5.2,1.3a1.64,1.64,0,0,0,2.1-.6h0a1.53,1.53,0,0,0-.3-2l-5.1-4.4Z" transform="translate(-1.25 -6.3)"/><g id="_Группа_2" data-name="&lt;Группа&gt;"><path id="_Контур_2" data-name="&lt;Контур&gt;" class="cls-6" d="M533,248.3l-2.8,15.4c-1,6.9-3.2,13.6-4.2,20.4-.2,1.6-.1,3.3-.8,4.8s-1.9,1.5-3,.5c-1.5-1.3-.8-3.7-.8-5.5.2-12.1-.8-23.9-1-36,0-.2,0-.3.1-.4s.2-.1.4-.1C522,247.4,532.9,248.6,533,248.3Z" transform="translate(-1.25 -6.3)"/></g><path class="cls-7" d="M521.3,286.5h0a2.58,2.58,0,0,0-.3,4.2l4.6,3.9a3.51,3.51,0,0,0,3.3-.2h0a1.81,1.81,0,0,0,.2-2.1l-3.7-5.1a1,1,0,0,0-.7-.4Z" transform="translate(-1.25 -6.3)"/><polygon id="SVGID" class="cls-8" points="558.95 251.7 556.75 229.4 555.75 214.9 552.35 203.1 533.65 200.2 510.55 204.1 509.45 208.6 513.95 250.1 536.15 251.7 535.85 225.9 539.25 241.9 539.15 251.7 558.95 251.7"/><g class="cls-9"><path class="cls-10" d="M522.7,241.5a.35.35,0,0,0-.1-.2.58.58,0,0,0-.9-.2c-1.8.8-2.6,4.4-3.1,6.1-.6,2.2-1.5,5.4-.9,7.6a.62.62,0,0,0,1.2,0c.6-2,.4-4.3.9-6.4a22.88,22.88,0,0,1,.8-2.8c.3-.8.9-3.1,1.7-3.4A.51.51,0,0,0,522.7,241.5Z" transform="translate(-1.25 -6.3)"/><path class="cls-11" d="M521.3,228.5a1.86,1.86,0,0,0-2.4-1.2,2.08,2.08,0,0,0-1.4,2.5,1.93,1.93,0,0,0,1.9,1.5h.1a1.8,1.8,0,0,0,1.7-1.9A1,1,0,0,0,521.3,228.5Z" transform="translate(-1.25 -6.3)"/><path class="cls-12" d="M535.4,253.1a3,3,0,0,0-5.3-.2c-.5-.4-.8-1-1.5-1.3a3.62,3.62,0,0,0-2.3.3c-1,.5-2,1.3-1.4,2.5.1.2.3.1.4-.1.4-1.2,2.3-2.3,3.4-1.4.5.4.7.9,1.3,1.2.3.1.7.1.8-.2a1.93,1.93,0,0,1,3.5-.3C534.7,254.4,535.9,253.8,535.4,253.1Z" transform="translate(-1.25 -6.3)"/><path class="cls-12" d="M538.9,248.8c-.4-3-4.2-3.5-6-1.5-1.2-.9-3.1-1.1-3.3.8-.1.4.5.4.7.2l2.2.3a.65.65,0,0,0,1.1,0c.7-1.2,3.6-1.7,3.8.3C537.4,249.8,539,249.8,538.9,248.8Z" transform="translate(-1.25 -6.3)"/><path class="cls-12" d="M530.7,241.7c-2.1-1.7-5.2-1.7-7.6-.8.1-.3.2-.5.3-.8a6.77,6.77,0,0,1,2.4-1.2c1.2-.4,2.6,0,3.7-.4a.25.25,0,0,0,.1-.4c-1.1-1-3.3-.6-4.6-.1a10.09,10.09,0,0,0-1.5.7,8.89,8.89,0,0,0-.8-4.4c-.2-.5-.9-.1-.8.3a13.45,13.45,0,0,1,.5,3.5,5.08,5.08,0,0,1-.3,1.7l-.6.6a8.86,8.86,0,0,0-1.6-3.4,3.86,3.86,0,0,0-3.9-1.3c-.2.1-.2.4,0,.4,1.7.6,3,1,3.8,2.7a4.8,4.8,0,0,1,.5,1.7,6.69,6.69,0,0,0-2,0c-1.1.1-2.9.3-3.1,1.7,0,.2.1.4.3.3,1.3-.7,3.7-1.5,5.2-.7a12.23,12.23,0,0,0-1.9,1.2c-.7.5-1.7,1.1-1.9,2-.1.2.2.4.4.4a7.48,7.48,0,0,0,2.4-1.5,10.54,10.54,0,0,0,1.1-.7,5.56,5.56,0,0,1,.5,2.3c0,1-.4,2-.5,3,0,.4.5.4.7.2,1-1.4,1.5-4.1.5-5.8a.76.76,0,0,0,.4-.1.37.37,0,0,1,.3-.1,6.72,6.72,0,0,1,2.3,1.6c.8.8.7,1.7.9,2.7,0,.2.4.3.6.1.9-1.1.2-2.8-.6-3.7a6.39,6.39,0,0,0-1.5-1.3,12.88,12.88,0,0,1,5.8.5C530.7,242.4,531,242,530.7,241.7Z" transform="translate(-1.25 -6.3)"/><path class="cls-10" d="M556.9,220.4a.35.35,0,0,0-.1-.2.58.58,0,0,0-.9-.2c-1.7.8-2.6,4.4-3.1,6.1-.6,2.2-1.5,5.4-.9,7.6a.62.62,0,0,0,1.2,0c.6-2,.4-4.3.9-6.4a22.88,22.88,0,0,1,.8-2.8c.3-.8.9-3.1,1.7-3.4A.51.51,0,0,0,556.9,220.4Z" transform="translate(-1.25 -6.3)"/><path class="cls-12" d="M543.3,246.7a1.86,1.86,0,0,0-2.4-1.2,2.08,2.08,0,0,0-1.4,2.5,1.93,1.93,0,0,0,1.9,1.5h.1a1.8,1.8,0,0,0,1.7-1.9A1,1,0,0,0,543.3,246.7Z" transform="translate(-1.25 -6.3)"/><path class="cls-12" d="M560.6,244.7a3,3,0,0,0-5.3-.2c-.5-.4-.8-1-1.5-1.3a3.62,3.62,0,0,0-2.3.3c-1,.5-2,1.3-1.4,2.5.1.2.3.1.4-.1.4-1.2,2.3-2.3,3.4-1.4.5.4.7.9,1.3,1.2.3.1.7.1.8-.2a1.93,1.93,0,0,1,3.5-.3A.61.61,0,1,0,560.6,244.7Z" transform="translate(-1.25 -6.3)"/><path class="cls-12" d="M564,240.5c-.4-3-4.2-3.5-6-1.5-1.2-.9-3.1-1.1-3.3.8-.1.4.5.4.7.2l2.2.3a.65.65,0,0,0,1.1,0c.7-1.2,3.6-1.7,3.8.3C562.6,241.4,564.1,241.4,564,240.5Z" transform="translate(-1.25 -6.3)"/><path class="cls-12" d="M565,220.6c-2.1-1.7-5.2-1.7-7.6-.8.1-.3.2-.5.3-.8a6.77,6.77,0,0,1,2.4-1.2c1.2-.4,2.6,0,3.7-.4a.25.25,0,0,0,.1-.4c-1.1-1-3.3-.6-4.6-.1a10.09,10.09,0,0,0-1.5.7,8.89,8.89,0,0,0-.8-4.4c-.2-.5-.9-.1-.8.3a13.45,13.45,0,0,1,.5,3.5,5.08,5.08,0,0,1-.3,1.7l-.6.6a8.86,8.86,0,0,0-1.6-3.4,3.86,3.86,0,0,0-3.9-1.3c-.2.1-.2.4,0,.4,1.7.6,3,1,3.8,2.7a4.8,4.8,0,0,1,.5,1.7,6.69,6.69,0,0,0-2,0c-1.1.1-2.9.3-3.1,1.7,0,.2.1.4.3.3,1.3-.7,3.7-1.5,5.2-.7a12.23,12.23,0,0,0-1.9,1.2c-.7.5-1.7,1.1-1.9,2-.1.2.2.4.4.4a7.48,7.48,0,0,0,2.4-1.5,10.54,10.54,0,0,0,1.1-.7,5.56,5.56,0,0,1,.5,2.3c0,1-.4,2-.5,3,0,.4.5.4.7.2,1-1.4,1.5-4.1.5-5.8a.76.76,0,0,0,.4-.1.37.37,0,0,1,.3-.1,6.72,6.72,0,0,1,2.3,1.6c.8.8.7,1.7.9,2.7,0,.2.4.3.6.1.9-1.1.2-2.8-.6-3.7a6.39,6.39,0,0,0-1.5-1.3,12.88,12.88,0,0,1,5.8.5C565,221.3,565.3,220.9,565,220.6Z" transform="translate(-1.25 -6.3)"/><path class="cls-10" d="M516.7,211.1a.35.35,0,0,0-.1-.2.58.58,0,0,0-.9-.2c-1.7.8-2.6,4.4-3.1,6.1-.6,2.2-1.5,5.4-.9,7.6a.62.62,0,0,0,1.2,0c.6-2,.4-4.3.9-6.4a22.88,22.88,0,0,1,.8-2.8c.3-.8.9-3.1,1.7-3.4C516.8,211.6,516.9,211.3,516.7,211.1Z" transform="translate(-1.25 -6.3)"/><path class="cls-12" d="M529.5,222.6a3,3,0,0,0-5.3-.2c-.5-.4-.8-1-1.5-1.3a3.62,3.62,0,0,0-2.3.3c-1,.5-2,1.3-1.4,2.5.1.2.3.1.4-.1.4-1.2,2.3-2.3,3.4-1.4.5.4.7.9,1.3,1.2.3.1.7.1.8-.2a1.93,1.93,0,0,1,3.5-.3A.61.61,0,1,0,529.5,222.6Z" transform="translate(-1.25 -6.3)"/><path class="cls-12" d="M533,218.3c-.4-3-4.2-3.5-6-1.5-1.2-.9-3.1-1.1-3.3.8-.1.4.5.4.7.2l2.2.3a.65.65,0,0,0,1.1,0c.7-1.2,3.6-1.7,3.8.3C531.5,219.3,533.1,219.3,533,218.3Z" transform="translate(-1.25 -6.3)"/><path class="cls-12" d="M524.8,211.2c-2.1-1.7-5.2-1.7-7.6-.8.1-.3.2-.5.3-.8a6.77,6.77,0,0,1,2.4-1.2c1.2-.4,2.6,0,3.7-.4a.25.25,0,0,0,.1-.4c-1.1-1-3.3-.6-4.6-.1a10.09,10.09,0,0,0-1.5.7,8.89,8.89,0,0,0-.8-4.4c-.2-.5-.9-.1-.8.3a13.45,13.45,0,0,1,.5,3.5,5.08,5.08,0,0,1-.3,1.7l-.6.6a8.86,8.86,0,0,0-1.6-3.4,3.86,3.86,0,0,0-3.9-1.3c-.2.1-.2.4,0,.4,1.7.6,3,1,3.8,2.7a4.8,4.8,0,0,1,.5,1.7,6.69,6.69,0,0,0-2,0c-1.1.1-2.9.3-3.1,1.7,0,.2.1.4.3.3,1.3-.7,3.7-1.5,5.2-.7a12.23,12.23,0,0,0-1.9,1.2c-.7.5-1.7,1.1-1.9,2-.1.2.2.4.4.4a7.48,7.48,0,0,0,2.4-1.5,10.54,10.54,0,0,0,1.1-.7,5.56,5.56,0,0,1,.5,2.3c0,1-.4,2-.5,3,0,.4.5.4.7.2,1-1.4,1.5-4.1.5-5.8a.76.76,0,0,0,.4-.1.37.37,0,0,1,.3-.1,6.72,6.72,0,0,1,2.3,1.6c.8.8.7,1.7.9,2.7,0,.2.4.3.6.1.9-1.1.2-2.8-.6-3.7a6.39,6.39,0,0,0-1.5-1.3,12.88,12.88,0,0,1,5.8.5C524.8,211.9,525.1,211.5,524.8,211.2Z" transform="translate(-1.25 -6.3)"/><path class="cls-11" d="M542.7,208.7a1.61,1.61,0,0,0-.7-.4,1.71,1.71,0,0,0-1.7-.1,1.74,1.74,0,0,0-1.6,1.2,1.05,1.05,0,0,0,.3,1.2v.1a.37.37,0,0,0,.1.3c.2.8,1,1,1.7,1a2.61,2.61,0,0,0,1.7-.7,1.21,1.21,0,0,0,.5-.5A1.64,1.64,0,0,0,542.7,208.7Z" transform="translate(-1.25 -6.3)"/></g><path class="cls-6" d="M620.9,287.5a15.67,15.67,0,0,0,3,.5,51.69,51.69,0,0,0,2-10.4c-2,1.2-3-.2-3.9,3C621.7,281.7,621.6,286.1,620.9,287.5Z" transform="translate(-1.25 -6.3)"/><path class="cls-7" d="M624.9,287c0,1.9,1.5,4,2.4,5.7a1.42,1.42,0,0,1,.2.6,1.8,1.8,0,0,1-.4.9,2.13,2.13,0,0,1-1,.9,2.23,2.23,0,0,1-1.4,0c-.8-.2-1.5-.4-2.2-.6-.2-.1-.4-.1-.5-.2s-.3-.4-.4-.6a5.21,5.21,0,0,1-.9-2.9,21.64,21.64,0,0,0,0-3.6c-.1-.6-.3-1.3.2-1.6s1.1.1,1.5.2a5.37,5.37,0,0,1,2.1.5c.1.1.3.2.4.3Z" transform="translate(-1.25 -6.3)"/><path class="cls-13" d="M619.9,225.8c.4,8.6,1.3,17.1.7,25.7-.8,10.7-.1,21.5-1.3,32.1a25.4,25.4,0,0,0,3.7,1c1.4.3,3.8.6,4.8-.8a9.61,9.61,0,0,0,.8-2.9c.7-2.6,1.3-5.3,1.9-7.9,1.7-7.5,3.7-15,4.6-22.7,1-8,2-16.1,3.1-24.1.6-4.1,1-8.3,1.2-12.5.1-1.1.6-12.1.1-12.2a51.16,51.16,0,0,0-19.1.8,3,3,0,0,0-1.6.8c-.4.4-.3,1-.3,1.6.1,5.2.9,10.3,1.1,15.6C619.7,222.1,619.8,223.9,619.9,225.8Z" transform="translate(-1.25 -6.3)"/><path class="cls-6" d="M599.9,289.4a15.44,15.44,0,0,1-3-.4,46.33,46.33,0,0,1,1.2-10.5c1.6,1.7,2.9.7,2.8,4C600.9,283.5,599.7,287.7,599.9,289.4Z" transform="translate(-1.25 -6.3)"/><path class="cls-7" d="M596.7,287.2c-1.2-.4-1.4,2.4-1.5,3.1a4.87,4.87,0,0,1-.1,1.2,2.59,2.59,0,0,1-.7,1.1c-.6.7-1.1,1.4-1.7,2.2a6.07,6.07,0,0,0-.7,1,2.29,2.29,0,0,0,1.1,2.6c3.2,1.6,6.1-2.3,6.8-4.8l.3-1.2c.2-.8.8-2.6.5-3.4s-1.5-.3-2.3-.6A9.14,9.14,0,0,0,596.7,287.2Z" transform="translate(-1.25 -6.3)"/><path class="cls-14" d="M619.2,230.7c-3,8.1-6.4,15.9-8.3,24.4-2.4,10.4-6.3,20.6-8.3,31a25.49,25.49,0,0,1-3.9-.2c-1.5-.2-3.8-.6-4.3-2.2a7.64,7.64,0,0,1,.1-3c.1-2.7.3-5.4.5-8.2.6-7.7,1-15.5,2.4-23,1.5-8,2.9-16,4.2-23.9.7-4.1,1.5-8.2,2.5-12.3.3-1,3-11.8,3.6-11.7a50.41,50.41,0,0,1,18,6.4,2.74,2.74,0,0,1,1.3,1.3,2.19,2.19,0,0,1-.2,1.6c-1.7,5-3.9,9.6-5.7,14.5C620.5,227.2,619.8,229,619.2,230.7Z" transform="translate(-1.25 -6.3)"/><path class="cls-6" d="M599,127a1.09,1.09,0,0,1,.8.8,2.45,2.45,0,0,1-.6,1.6,27.92,27.92,0,0,0-3.3,5.8c-.4,1.2-.5,3.3-2.2,3.3a2.54,2.54,0,0,1-1.2-.2,2.18,2.18,0,0,1-.8-.5c-.2-.2-.6-.4-.6-.6-.1-1.4.9-3.7,1.1-5.2.1-.9,1.7-11.8,2.1-11.7.7.1,1.5.3,2.2.4a.69.69,0,0,1,.6.7,13,13,0,0,1-.2,4.8,2.77,2.77,0,0,0-.1,1.3.75.75,0,0,0,1,.5c.3-.2.4-.6.7-.8A.55.55,0,0,1,599,127Z" transform="translate(-1.25 -6.3)"/><path class="cls-15" d="M585.8,152.9c1.6-6.9,4.5-19,5.9-18.7a16.43,16.43,0,0,1,6.4,2.3c-1.1,4.9-2.8,10-2.4,15.1.4,4.1,4.5,4.9,7.9,5.4,4.8.7,9.3,1.3,14.2,1.6.3,0,.7,0,.9.3s.3.6.4,1a8.88,8.88,0,0,1-.1,2.3,15.34,15.34,0,0,1-2.8,7.8,8.77,8.77,0,0,1-7.3,3.5,15.28,15.28,0,0,1-4.6-1.4c-3.2-1.4-5.9-3.5-8.9-5.4a88.1,88.1,0,0,1-10-7.3,1.6,1.6,0,0,1-.7-.9,2.72,2.72,0,0,1,0-.9C584.8,157.1,585.2,155.4,585.8,152.9Z" transform="translate(-1.25 -6.3)"/><path class="cls-6" d="M651.4,138.2h-.5a.37.37,0,0,0-.3.1.22.22,0,0,0-.2.2,13.07,13.07,0,0,0-1.7,2.8c-.2.4-.2.4,0,.8a8.26,8.26,0,0,0,.7,1.3,12.5,12.5,0,0,1,.3,1.9c.2,1.6-1.3,5.3.6,6.1a2.61,2.61,0,0,0,1.1.3,2.92,2.92,0,0,0,.9-.2c.2-.1.6-.2.7-.4a5.65,5.65,0,0,0,0-1.3,20.9,20.9,0,0,0-.1-2.5c0-.8,0-1.8.6-2.2.1-.1.3-.2.4-.3a2.19,2.19,0,0,0,.3-.5,8.3,8.3,0,0,0,.6-2.1c.1-.7-.3-1-.6-1.5a9.5,9.5,0,0,1-.6-1.8,1.34,1.34,0,0,0-1.4-.7Z" transform="translate(-1.25 -6.3)"/><path class="cls-15" d="M652.9,169.4c.3-1.7.5-3.5.9-5.3a57.56,57.56,0,0,0,1-15.5,14.75,14.75,0,0,0-6.6-.3s-2.7,12.1-3.3,13.3c-1.5,3.1-1.4,2.8-4.2,1.4-2.4-1.2-4.7-2.9-7-4.2s-4.8-2.4-7.4-2.1c-.2,3-.4,6-.4,9a8.55,8.55,0,0,0,.4,3.2,7.63,7.63,0,0,0,1.8,2.5c4.3,4.8,8.7,9.8,14.6,12.6a3.18,3.18,0,0,0,.9.3,2.39,2.39,0,0,0,1.4-.5C650.4,180.8,651.9,175.4,652.9,169.4Z" transform="translate(-1.25 -6.3)"/><path class="cls-16" d="M616.3,157.1c-.1,0-.2.1-.3.1a17.36,17.36,0,0,0-4.6,3c-2.2,1.7-3.2,2.5-4,5.1a46.69,46.69,0,0,0-1.7,7.4c-2.4,12.7-2.9,25.4-4.7,38.2-.5,3.5-.8,7.6,1.7,10,4.6-3.6,10.3-3.8,15.9-3.8,3.9,0,7.7-1.3,11.6-.8,3.7.4,7-.5,10.8-.3.9.1,2.1,0,2.4-.8-1.3-3.9-1.3-8.2-1.6-12.3-.8-10.7-4.3-20.9-5.7-31.5-.5-3.6-.7-9.6-3.5-12.3-3-3-10-3-13.9-2.4A5.07,5.07,0,0,0,616.3,157.1Z" transform="translate(-1.25 -6.3)"/><path class="cls-6" d="M619.2,156.9c.1.1.1.2.3.4a3.81,3.81,0,0,0,1.7.8,7.07,7.07,0,0,0,2.5-.2c1.1-.2,1.1-.9,1.2-1.9.1-.5.1-1.1.2-1.6,0-.3-.1-1.4.1-1.6s.7-.1.9-.2a2,2,0,0,0,.9-.9,4.49,4.49,0,0,0,.7-1.8c.3-1.1.7-2.2,1-3.3a20.92,20.92,0,0,0,.8-3.4c.2-1.8-.1-4.3-1.5-5.6a7.75,7.75,0,0,0-4.6-1.8,8.92,8.92,0,0,0-6.2,1.3,5,5,0,0,0-1.9,1.9,9,9,0,0,0-.6,4.3c.1,1.4.1,2.7.2,4.1.1,1.6.3,3.4,1.5,4.2.6.5,1.4.5,2,1.1s.6,1.8.7,2.7A2.57,2.57,0,0,0,619.2,156.9Z" transform="translate(-1.25 -6.3)"/><path class="cls-17" d="M626,139.2c.1.1.1.3.2.4a16,16,0,0,1,.3,2.3c.4,1.2,1.7,1.8,1.9,3,.2,1-.5,1.9-.6,2.9s.6,2.1.5,3.2a8.59,8.59,0,0,1-1.2,3c.2-.2,1.7-.1,2.1-.4a1.76,1.76,0,0,0,.9-1.3c.2-.6,0-1.3.3-1.9.3-.8,1.1-1.4,1.3-2.3.3-1.2-.3-2.4-.2-3.6.1-1.8,1.7-3.6,1.1-5.3-.3-1-1.3-1.7-1.9-2.6a15.71,15.71,0,0,1-.9-2.3,2.87,2.87,0,0,0-1.6-1.8c-.4-.1-.9-.1-1.4-.2-.8-.1-1.4-.7-2.2-.9-1.1-.4-3,.7-3.6,1.6a2,2,0,0,0,.3,2.5C622.6,136.8,625.2,137.7,626,139.2Z" transform="translate(-1.25 -6.3)"/><path class="cls-7" d="M611.6,133.7a24.26,24.26,0,0,0-2,1.4,6.15,6.15,0,0,0-1.4,4.4c0,1.4-.6,2.6-.5,4.1a3.26,3.26,0,0,0,1.3,2.5c1,.7,2.5.8,3,2s-.8,2.8,0,3.9c.4.6,1.3.7,1.9,1.1s1,1.2,1.5,1.9a2.32,2.32,0,0,0,1.9,1.4,6.74,6.74,0,0,0-.5-3.4c-.3-.7-1.2-1.9-.5-2.6.4-.6,1.5-.8,1.5-1.5a1.8,1.8,0,0,0-.4-.9,4.43,4.43,0,0,1-.3-3.9,5.13,5.13,0,0,1,2.8-2.8c1.4-.7,1.2-1,1.6-2.4s1.1-1.5,2.2-2a2.49,2.49,0,0,0,1.7-1.6,2.65,2.65,0,0,0,.2-2.3,5,5,0,0,0-1.4-1.5,5.81,5.81,0,0,0-3.9-1.7c-.8.1-1.6.4-2.4.5-.5,0-1.1-.1-1.6-.1a4,4,0,0,0-2.6.8c-.7.5-.7,1.1-1.1,1.9C612.2,133.2,611.9,133.5,611.6,133.7Z" transform="translate(-1.25 -6.3)"/><path class="cls-7" d="M614.8,128.6c.1-.9.1-2-.8-2.3-.5-.2-1,0-1.4-.1-1-.2-1.3-1.4-1.9-2.3-.1-.1-.2-.3-.3-.3s-.4,0-.6,0c-1,.1-1.8-.9-2.7-1.2a2.43,2.43,0,0,0-3,1.5,8,8,0,0,1-.3,1.5c-.5,2-3.5,2.9-3.6,4.9-.1,1.4,1.3,2.7.8,4-.3.8-1.4,1.4-1.3,2.3a1.3,1.3,0,0,0,1.3,1,2.13,2.13,0,0,0,1.5-.7c.7-.6,1.2-1.4,1.9-2a2.91,2.91,0,0,1,2.4-1c.9.1,1.7.8,2.5.6s1.2-.7,1.9-.9,1.3.1,2,.1,1.5-.3,1.5-1v-.5c.1-.4.9-.4,1-.8-.3-.5-.8-.3-1.1-1A12.37,12.37,0,0,1,614.8,128.6Z" transform="translate(-1.25 -6.3)"/><path class="cls-18" d="M629.2,116.1l-2.2.6-.3-1.2c0-.1,0-.2.1-.2l1.9-.5c.1,0,.2,0,.2.1Z" transform="translate(-1.25 -6.3)"/><path class="cls-19" d="M635.1,114.5l-5.5,1.4-.4-1.5c0-.1,0-.2.1-.2l5.1-1.3c.1,0,.2,0,.2.1Z" transform="translate(-1.25 -6.3)"/><path class="cls-19" d="M660.9,108.3l-5.5,1.4-.4-1.5c0-.1,0-.2.1-.2l5.1-1.3c.1,0,.2,0,.2.1Z" transform="translate(-1.25 -6.3)"/><path class="cls-20" d="M672.6,136.5,630.8,147c-.1,0-.2,0-.2-.1l-7.3-29.2c0-.1,0-.2.1-.2L665.3,107c.1,0,.2,0,.2.1l7.3,29.2Z" transform="translate(-1.25 -6.3)"/><rect class="cls-21" x="626.7" y="118.09" width="43.5" height="21.6" transform="translate(-13.13 155.21) rotate(-14.07)"/><polygon class="cls-19" points="636.85 114.1 636.65 107.7 638.75 102.9 645.75 101.1 649.45 104.4 652.35 110.2 636.85 114.1"/><path class="cls-22" d="M633.1,120l-6.3,1.6c-.1,0-.2,0-.3-.2l-.5-2.1c0-.1,0-.2.2-.3l6.3-1.6c.1,0,.2,0,.3.2l.5,2.1C633.3,119.9,633.2,120,633.1,120Z" transform="translate(-1.25 -6.3)"/><path class="cls-21" d="M636.8,117.6a1.22,1.22,0,0,1-.9,1.5,1.18,1.18,0,0,1-1.5-.9,1.22,1.22,0,0,1,.9-1.5A1.35,1.35,0,0,1,636.8,117.6Z" transform="translate(-1.25 -6.3)"/><path class="cls-23" d="M662.6,124.8a.37.37,0,0,0-.3-.1l-.5-2a.57.57,0,0,0-1.1.3l.5,2c-.1.1-.2.2-.2.3a1.19,1.19,0,0,0,.4,1.7,1.39,1.39,0,0,0,1.7-.4A1.41,1.41,0,0,0,662.6,124.8Z" transform="translate(-1.25 -6.3)"/><polygon class="cls-24" points="636.85 114.1 638.05 117.7 653.35 114.1 652.35 110.2 636.85 114.1"/><path class="cls-25" d="M658.4,123a10.48,10.48,0,0,0-2.2-2,2.18,2.18,0,0,1,.4.5,10.11,10.11,0,0,1,2.3,5.9V129a10.51,10.51,0,0,1-2.6,5.9,11.66,11.66,0,0,1-5.5,3.4,11,11,0,0,1-6.7-.3,13.44,13.44,0,0,1-2.4-1.2,11.08,11.08,0,0,0,4.2,2.8,11,11,0,0,0,6.7.3,11.66,11.66,0,0,0,5.5-3.4,10.59,10.59,0,0,0,2.6-5.9,4.3,4.3,0,0,0,0-1.6A10.14,10.14,0,0,0,658.4,123Z" transform="translate(-1.25 -6.3)"/><ellipse class="cls-21" cx="648.6" cy="128.38" rx="10.7" ry="10.4" transform="translate(-13 155.23) rotate(-14.07)"/><ellipse class="cls-22" cx="648.6" cy="128.38" rx="9.2" ry="9" transform="translate(-13 155.23) rotate(-14.07)"/><path class="cls-20" d="M656,120.1a11.39,11.39,0,0,0-6.1-2.5,12.48,12.48,0,0,0-6.8,1.4,10.73,10.73,0,0,0-2.5,17.2,11.89,11.89,0,0,0,5.9,3,11.36,11.36,0,0,0,6.8-.9,10.71,10.71,0,0,0,4.9-4.5,11,11,0,0,0,1.5-6.4,11.29,11.29,0,0,0-3.7-7.3Zm2.6,12a10.65,10.65,0,0,1-4,4.9,11.09,11.09,0,0,1-6.4,1.8,10.53,10.53,0,0,1-6-2,10.24,10.24,0,0,1-.2-16.5,11,11,0,0,1,6.2-2.3,10.67,10.67,0,0,1,10.3,6.3,8.8,8.8,0,0,1,.5,1.5A10.43,10.43,0,0,1,658.6,132.1Z" transform="translate(-1.25 -6.3)"/><ellipse class="cls-26" cx="648.6" cy="128.39" rx="6" ry="5.8" transform="translate(-13 155.23) rotate(-14.07)"/><path class="cls-27" d="M80,46.4l-5.1,1.3-.8-3.1c0-.1,0-.2.1-.2L79,43.2c.1,0,.2,0,.2.1Z" transform="translate(-1.25 -6.3)"/><path class="cls-28" d="M93.8,42.8,81.1,46l-.9-3.7c0-.1,0-.2.1-.2L92.6,39c.1,0,.2,0,.2.1Z" transform="translate(-1.25 -6.3)"/><path class="cls-29" d="M153.6,28.2l-12.7,3.2-.9-3.7c0-.1,0-.2.1-.2l12.3-3.1c.1,0,.2,0,.2.1Z" transform="translate(-1.25 -6.3)"/><path class="cls-30" d="M180.7,93.5l-97,24.3a.38.38,0,0,1-.5-.3l-17-67.7a.38.38,0,0,1,.3-.5l97-24.3a.38.38,0,0,1,.5.3L181,93C181,93.2,180.9,93.5,180.7,93.5Z" transform="translate(-1.25 -6.3)"/><polygon class="cls-31" points="178.45 81.7 80.75 106.2 68.55 57.6 166.35 33.2 178.45 81.7"/><polygon class="cls-32" points="99.45 50 99.05 35.1 103.75 24.1 120.05 20 128.55 27.7 135.45 41 99.45 50"/><path class="cls-22" d="M89.4,55.4,74.2,59.2c-.1,0-.2,0-.3-.2l-1.4-5.5c0-.1,0-.2.2-.3l15.2-3.8c.1,0,.2,0,.3.2l1.4,5.5C89.5,55.2,89.5,55.3,89.4,55.4Z" transform="translate(-1.25 -6.3)"/><path class="cls-22" d="M97.7,49.9a2.84,2.84,0,0,1-2.1,3.4,2.88,2.88,0,0,1-3.5-2,2.84,2.84,0,0,1,2.1-3.4A2.88,2.88,0,0,1,97.7,49.9Z" transform="translate(-1.25 -6.3)"/><path class="cls-22" d="M157.5,66.5c-.2-.1-.5-.2-.7-.3l-1.2-4.7a1.4,1.4,0,0,0-1.7-1,1.35,1.35,0,0,0-1,1.6l1.2,4.7a2.65,2.65,0,0,0-.5.6,2.7,2.7,0,0,0,1,3.8,2.88,2.88,0,0,0,3.9-1A2.79,2.79,0,0,0,157.5,66.5Z" transform="translate(-1.25 -6.3)"/><polygon class="cls-33" points="99.45 50 102.25 58.4 137.65 50.1 135.45 41 99.45 50"/><path class="cls-34" d="M147.7,62.4a24.72,24.72,0,0,0-5.1-4.6,10.63,10.63,0,0,1,.9,1.1,23.64,23.64,0,0,1,5.3,17.6,24.93,24.93,0,0,1-5.9,13.6A25.68,25.68,0,0,1,130.2,98a25.67,25.67,0,0,1-20.9-3.5,25.33,25.33,0,0,0,9.6,6.4,26.09,26.09,0,0,0,15.4.7A25.68,25.68,0,0,0,147,93.7a24.62,24.62,0,0,0,6-17.4A23.2,23.2,0,0,0,147.7,62.4Z" transform="translate(-1.25 -6.3)"/><path class="cls-35" d="M149,68.8c3.2,12.9-4.9,26.1-18.2,29.4s-26.7-4.4-29.9-17.3,4.9-26.1,18.2-29.4S145.8,55.9,149,68.8Z" transform="translate(-1.25 -6.3)"/><ellipse class="cls-22" cx="124.99" cy="74.79" rx="21.4" ry="20.8" transform="translate(-15.68 26.33) rotate(-14.07)"/><path class="cls-22" d="M142,55.5a26.14,26.14,0,0,0-14.1-5.9,27.59,27.59,0,0,0-15.7,3.3,26,26,0,0,0-10.6,11.2,25.47,25.47,0,0,0-2.3,15.1,25.07,25.07,0,0,0,7.2,13.7,26.06,26.06,0,0,0,13.6,6.9A27.35,27.35,0,0,0,136,97.6a25.9,25.9,0,0,0,11.4-10.3,24.38,24.38,0,0,0,3.4-14.9,26.29,26.29,0,0,0-.6-3.9A25,25,0,0,0,142,55.5Zm6.1,28a24.89,24.89,0,0,1-9.3,11.3,25.55,25.55,0,0,1-14.7,4.3,24.6,24.6,0,0,1-13.9-4.6A23.58,23.58,0,0,1,101.4,68a24.41,24.41,0,0,1,8.4-11.9,25.16,25.16,0,0,1,14.4-5.3,24.85,24.85,0,0,1,23.9,14.5,21.72,21.72,0,0,1,1.2,3.6A26.15,26.15,0,0,1,148.1,83.5Z" transform="translate(-1.25 -6.3)"/><path class="cls-36" d="M138.4,71.5a13.77,13.77,0,1,1-16.6-9.6A13.49,13.49,0,0,1,138.4,71.5Z" transform="translate(-1.25 -6.3)"/><path class="cls-6" d="M515.9,161.9c0,.8-.1,1.5-.1,2.3-.3,15.3.6,30.8.7,46.3a173.8,173.8,0,0,1,23.9-2c1.9,0,10.3,1.3,11.4.2,1.6-1.5-.2-1.2,0-3.2.2-2.5-1.1-4.6-.6-7.6.5-3.5,1.6-7,2.2-10.5a153.69,153.69,0,0,0,2.2-21.4c.2-6.4,0-13-2.8-18.7-6.7-14.2-28.5-13.9-34.4.9A41.11,41.11,0,0,0,515.9,161.9Z" transform="translate(-1.25 -6.3)"/><path class="cls-6" d="M560.7,130.9c2.3-3,3.2-6.3,4.2-10.4.7-3.1,1.3-6.1,1.8-9.2a28.85,28.85,0,0,0,.7-5.9c0-1.7.9-4.1-.6-5.4a1.34,1.34,0,0,1,1.9-.5c.1.1.2.2.3.2a.55.55,0,0,0,.5-.3,4.8,4.8,0,0,0,.5-1.7c.2-.9.5-2.5,1.2-3.1a8.17,8.17,0,0,1,2-1.2.6.6,0,0,1,.4-.1c.1,0,.2.1.3.2a28.48,28.48,0,0,1,2.3,2.6c-1,.9-1.2,2.1-1.7,3.3-.7,1.5-1.7,2.7-1.8,4.4-.2,2.7-.1,5.4-.3,8.1-.4,5.3-1.1,10.5-1.8,15.8-.5,3.5-.9,7-2.3,10.3s-3.3,5.1-6,7.4a5.33,5.33,0,0,1-2,1.3,4.07,4.07,0,0,1-3.5-.7,6.76,6.76,0,0,1-2.2-8.5,15.45,15.45,0,0,1,3.4-3.8A11.79,11.79,0,0,0,560.7,130.9Z" transform="translate(-1.25 -6.3)"/><path class="cls-13" d="M538.7,145.1l-4.2,7.6c.3,10.9.6,21.7.9,32.6.1,5,.3,10,.4,15,.1,2.4.1,4.9.2,7.3a1.27,1.27,0,0,0,.1.6c.9,1.4,4.5,1,6.1,1.1a28.53,28.53,0,0,1,7.1,1.2,18.6,18.6,0,0,0,4.5,1.6c.4.1.8.1,1-.2a1.5,1.5,0,0,0,.4-1.1c.6-7.5.6-15.2,1-22.7.3-6.2,1.2-12.8.7-19v-.2c-.5-3,0-12.8,0-12.8,0-.4,1.4-1.5,1.7-1.8,1.4-1.5,2.8-2.9,4.2-4.4,2.8-2.9,8.2-6.5,6-11.2a5.83,5.83,0,0,0-1.1-1.5c-3.2-3.4-7.2-5.3-9.5-9.5-4,2-7.2,5.8-11.5,7.5a12.16,12.16,0,0,1-6.8.6c-1.4-.3-4.3-1.4-3.5,1.3a6.62,6.62,0,0,0,1.5,2.2A5.05,5.05,0,0,1,538.7,145.1Z" transform="translate(-1.25 -6.3)"/><path class="cls-13" d="M529.2,145.9l4.3,7.9c-.1,0-.7,26.4-.8,28.2-.2,6.8-.4,13.5-.6,20.3-.1,1.9.2,4.1-.2,5.9-.5,2.6-3.2,2.1-5.5,2.3-5.1.5-10.4,1.3-15.5,1.1-1.5-.1.5-30.7.5-33.5,0-10.3-2.1-21.7,3.1-31,1.5-2.7,4.2-7.1,7.1-8.4s6.7-1.5,9.7-2.2l.2,1.9-1.7,2.1A4.54,4.54,0,0,0,529.2,145.9Z" transform="translate(-1.25 -6.3)"/><path class="cls-37" d="M522.7,162.5l45.2-3.3a5.39,5.39,0,0,1,5.8,5l2.3,30.7a5.39,5.39,0,0,1-5,5.8L525.8,204a5.39,5.39,0,0,1-5.8-5l-2.3-30.7A5.52,5.52,0,0,1,522.7,162.5Z" transform="translate(-1.25 -6.3)"/><path class="cls-22" d="M558.2,182.2l10.8-.8a1.62,1.62,0,0,0,1.4-1.6l-.8-10.7a1.46,1.46,0,0,0-1.6-1.3l-10.8.8a1.62,1.62,0,0,0-1.4,1.6l.8,10.7A1.46,1.46,0,0,0,558.2,182.2Z" transform="translate(-1.25 -6.3)"/><path class="cls-22" d="M559.5,198.4l10.8-.8a1.62,1.62,0,0,0,1.4-1.6l-.8-10.7a1.46,1.46,0,0,0-1.6-1.3l-10.8.8a1.62,1.62,0,0,0-1.4,1.6l.8,10.7A1.46,1.46,0,0,0,559.5,198.4Z" transform="translate(-1.25 -6.3)"/><path class="cls-22" d="M541.4,183.5l10.8-.8a1.62,1.62,0,0,0,1.4-1.6l-.8-10.7a1.46,1.46,0,0,0-1.6-1.3l-10.8.8a1.62,1.62,0,0,0-1.4,1.6l.8,10.7A1.62,1.62,0,0,0,541.4,183.5Z" transform="translate(-1.25 -6.3)"/><path class="cls-22" d="M542.7,199.6l10.8-.8a1.62,1.62,0,0,0,1.4-1.6l-.8-10.7a1.46,1.46,0,0,0-1.6-1.3l-10.8.8a1.62,1.62,0,0,0-1.4,1.6l.8,10.7A1.46,1.46,0,0,0,542.7,199.6Z" transform="translate(-1.25 -6.3)"/><path class="cls-22" d="M524.6,184.7l10.8-.8a1.62,1.62,0,0,0,1.4-1.6l-.8-10.7a1.46,1.46,0,0,0-1.6-1.3l-10.8.8a1.62,1.62,0,0,0-1.4,1.6l.8,10.7A1.46,1.46,0,0,0,524.6,184.7Z" transform="translate(-1.25 -6.3)"/><path class="cls-22" d="M525.9,200.9l10.8-.8a1.62,1.62,0,0,0,1.4-1.6l-.8-10.7a1.46,1.46,0,0,0-1.6-1.3l-10.8.8a1.62,1.62,0,0,0-1.4,1.6l.8,10.7A1.53,1.53,0,0,0,525.9,200.9Z" transform="translate(-1.25 -6.3)"/><path class="cls-11" d="M561.6,155.2l1.6-.1a1.57,1.57,0,0,1,1.7,1.4l.4,5.8a1.57,1.57,0,0,1-1.4,1.7l-1.6.1a1.57,1.57,0,0,1-1.7-1.4l-.4-5.8A1.5,1.5,0,0,1,561.6,155.2Z" transform="translate(-1.25 -6.3)"/><path class="cls-11" d="M526.4,157.8l1.6-.1a1.57,1.57,0,0,1,1.7,1.4l.4,5.8a1.57,1.57,0,0,1-1.4,1.7l-1.6.1a1.57,1.57,0,0,1-1.7-1.4l-.4-5.8A1.57,1.57,0,0,1,526.4,157.8Z" transform="translate(-1.25 -6.3)"/><path class="cls-38" d="M234.7,244.3l45.3-.4a5.46,5.46,0,0,1,5.5,5.4l.3,30.8a5.53,5.53,0,0,1-5.4,5.5l-45.3.4a5.46,5.46,0,0,1-5.5-5.4l-.3-30.8A5.4,5.4,0,0,1,234.7,244.3Z" transform="translate(-1.25 -6.3)"/><path class="cls-22" d="M268.8,266.2l10.8-.1a1.54,1.54,0,0,0,1.5-1.5l-.1-10.7a1.39,1.39,0,0,0-1.5-1.4l-10.8.1a1.54,1.54,0,0,0-1.5,1.5l.1,10.7A1.45,1.45,0,0,0,268.8,266.2Z" transform="translate(-1.25 -6.3)"/><path class="cls-22" d="M269.1,282.4l10.8-.1a1.54,1.54,0,0,0,1.5-1.5l-.1-10.7a1.39,1.39,0,0,0-1.5-1.4l-10.8.1a1.54,1.54,0,0,0-1.5,1.5l.1,10.7A1.45,1.45,0,0,0,269.1,282.4Z" transform="translate(-1.25 -6.3)"/><path class="cls-22" d="M252,266.4l10.8-.1a1.54,1.54,0,0,0,1.5-1.5l-.1-10.7a1.39,1.39,0,0,0-1.5-1.4l-10.8.1a1.54,1.54,0,0,0-1.5,1.5l.1,10.7A1.52,1.52,0,0,0,252,266.4Z" transform="translate(-1.25 -6.3)"/><path class="cls-22" d="M252.2,282.6l10.8-.1a1.54,1.54,0,0,0,1.5-1.5l-.1-10.7a1.39,1.39,0,0,0-1.5-1.4l-10.8.1a1.54,1.54,0,0,0-1.5,1.5l.1,10.7A1.52,1.52,0,0,0,252.2,282.6Z" transform="translate(-1.25 -6.3)"/><path class="cls-22" d="M235.1,266.5l10.8-.1a1.54,1.54,0,0,0,1.5-1.5l-.1-10.7a1.39,1.39,0,0,0-1.5-1.4l-10.8.1a1.54,1.54,0,0,0-1.5,1.5l.1,10.7A1.45,1.45,0,0,0,235.1,266.5Z" transform="translate(-1.25 -6.3)"/><path class="cls-22" d="M235.4,282.7l10.8-.1a1.54,1.54,0,0,0,1.5-1.5l-.1-10.7a1.39,1.39,0,0,0-1.5-1.4l-10.8.1a1.54,1.54,0,0,0-1.5,1.5l.1,10.7A1.45,1.45,0,0,0,235.4,282.7Z" transform="translate(-1.25 -6.3)"/><path class="cls-39" d="M273.9,239.4h1.6a1.56,1.56,0,0,1,1.6,1.5l.1,5.8a1.56,1.56,0,0,1-1.5,1.6h-1.6a1.56,1.56,0,0,1-1.6-1.5l-.1-5.8A1.71,1.71,0,0,1,273.9,239.4Z" transform="translate(-1.25 -6.3)"/><path class="cls-40" d="M238.7,239.8h1.6a1.56,1.56,0,0,1,1.6,1.5l.1,5.8a1.56,1.56,0,0,1-1.5,1.6h-1.6a1.56,1.56,0,0,1-1.6-1.5l-.1-5.8A1.44,1.44,0,0,1,238.7,239.8Z" transform="translate(-1.25 -6.3)"/><path class="cls-6" d="M505.7,165.5c.9-4,1.4-8.5,6.6-8.9,2.8-.2,5.7,2.1,5.6,4.9a8.73,8.73,0,0,1-1.3,3.5c-1.5,2.9-3.1,5.7-4.6,8.6a2.84,2.84,0,0,0-.4,1.2,3.26,3.26,0,0,0,.4,1.4,38.25,38.25,0,0,0,7.2,9.7,6.32,6.32,0,0,0,3.4,2c.7.1,3.9.7,2,2.1a1.1,1.1,0,0,1-1.5-.3,15.23,15.23,0,0,1,3.7,3,.86.86,0,0,1,.3.6,4.33,4.33,0,0,1-.1.5c-.3.7-.5,1.3-.8,2a.22.22,0,0,1-.2.2c-.1.1-.2,0-.3,0-1.3-.3-2.6-.5-3.9-.8-2.4-.5-3.3-3.7-5-5.5l-10.5-10.8A10.51,10.51,0,0,1,504,176c-.8-1.8-.1-2.9.3-4.6S505.3,167.6,505.7,165.5Z" transform="translate(-1.25 -6.3)"/><path class="cls-14" d="M516.7,141.8a18.32,18.32,0,0,0-4.5,3.2,19,19,0,0,0-3,4.9,63.66,63.66,0,0,0-4.1,12.8c4.6,1.1,9.2,2.2,13.7,3.4a57.09,57.09,0,0,1,6.9-12.3,6.57,6.57,0,0,0,1.4-2.4,7.67,7.67,0,0,0,.1-2.6,52.49,52.49,0,0,0-.9-5.5c-.2-1.2-.4-4-1.3-4.8C523.1,136.9,518.3,140.8,516.7,141.8Z" transform="translate(-1.25 -6.3)"/><path class="cls-7" d="M540.4,117a12.46,12.46,0,0,1,1.5,5.4,1.74,1.74,0,0,0,.5,1.4c.4.3.1,1,.4.6a12,12,0,0,0,1.5-2.4,22.85,22.85,0,0,0,0-3.7,5.14,5.14,0,0,0-1-3,8.78,8.78,0,0,0-1.5-1.2,6.19,6.19,0,0,0-2.5-1.1c-1.6-.3-2.6.3-1.2,1.4A7.49,7.49,0,0,1,540.4,117Z" transform="translate(-1.25 -6.3)"/><path class="cls-6" d="M530.5,138.2c0,.8-.1,1.6.5,2.2a2.57,2.57,0,0,0,1.2.5,7.31,7.31,0,0,0,3.3-.2,2.73,2.73,0,0,0,1.2-.6,1.37,1.37,0,0,0,.4-1.2,11,11,0,0,1,.2-1.8c.2-1.3.2-2.6.3-3.9a5.44,5.44,0,0,0,4.6-5c.2-2.7.4-5.4.4-8.2a8.61,8.61,0,0,0-.3-2.8,5.67,5.67,0,0,0-3.5-3.1,12.3,12.3,0,0,0-11.2.7,7.22,7.22,0,0,0-2.3,2.3c-.8,1.5-.7,3.4-.6,5.1l.3,4.8c.1,1.9.4,4,1.8,5,.8.5,1.8.6,2.4,1.3,1.2,1.2.6,2.9.9,4.4C530.5,137.8,530.5,138,530.5,138.2Z" transform="translate(-1.25 -6.3)"/><path class="cls-7" d="M543.7,112.2a14.16,14.16,0,0,0,.4-2,4.42,4.42,0,0,1-2,.2v-1.2c0-.3-4.5-.6-4.8-.6-3.4-.3-6.5-.5-9.6,1.3a9.4,9.4,0,0,0-4.7,6.9,14.56,14.56,0,0,0,2.2,9.1c0-.8-.5-2.6-.3-3.3a8.64,8.64,0,0,1,.7-2.1,9.21,9.21,0,0,1,3-3.2,21.47,21.47,0,0,1,13.4-2.2c1,.3,1.2.5,1.8-.5a17.85,17.85,0,0,0,.9-2.3A3.08,3.08,0,0,0,543.7,112.2Z" transform="translate(-1.25 -6.3)"/><polygon class="cls-6" points="471.85 138.4 475.35 138.1 475.45 132.2 472.25 130.5 469.45 132.1 471.05 134.4 470.35 134.5 469.65 133.9 469.05 134.6 471.85 138.4"/><path class="cls-16" d="M468.5,179.5a52.06,52.06,0,0,1-9.1-25.6c-.1-1.1.2-2.7,1.4-2.8a1.66,1.66,0,0,1,1.2.5c3,2.2,4.4,6,6.8,8.9.5.6,1.3,1.1,1.9.7a1.16,1.16,0,0,0,.4-1c.3-2.5-.1-5.3,0-7.9.1-1.9-.4-7.7,1.1-8.6.3-.2,4.7-.5,4.7-.6.9,4.7,1.7,9.3,2.6,14,.6,3.5,1.3,7,1.9,10.5,1,5.2.4,13.5-2.8,17.9a3.31,3.31,0,0,1-2.3,1.6c-1.2.1-2.2-.8-3-1.6A60,60,0,0,1,468.5,179.5Z" transform="translate(-1.25 -6.3)"/><g id="_Группа_3" data-name="&lt;Группа&gt;"><path id="_Контур_3" data-name="&lt;Контур&gt;" class="cls-7" d="M451.6,292.4a3.66,3.66,0,0,1-2.3,4.6l-2.3.7a2.25,2.25,0,0,1-2.7-1h0a2.3,2.3,0,0,1,.5-3l1.4-1.1,5.4-.2Z" transform="translate(-1.25 -6.3)"/><polygon id="_Контур_4" data-name="&lt;Контур&gt;" class="cls-14" points="461.85 215.5 450.35 286.1 445.05 286.3 441.95 237.2 440.55 212.8 461.85 215.5"/></g><g id="_Группа_4" data-name="&lt;Группа&gt;"><polygon id="_Контур_5" data-name="&lt;Контур&gt;" class="cls-13" points="477.65 214.8 470.25 283.9 465.45 284.4 460.35 231.4 456.35 215.8 477.65 214.8"/><path class="cls-7" d="M471.5,290.2l-4.8.5h0a3,3,0,0,0,1.6,3.5l2.3,1.1a2.48,2.48,0,0,0,2.8-.7h0a2.32,2.32,0,0,0-.4-3.1Z" transform="translate(-1.25 -6.3)"/></g><polygon class="cls-41" points="441.75 216.8 439.35 208.6 441.75 199.4 477.65 200.7 477.65 214.8 441.75 216.8"/><path class="cls-6" d="M460.5,126.7c-3.6,2.4-8.8,1-12.1,4-2.2,1.9-3,5.3-2.4,8.4a8.07,8.07,0,0,0,1.7,3.9,5.11,5.11,0,0,0,2.1,1.5,7.31,7.31,0,0,0,3.3.8,18.81,18.81,0,0,1-.5,3.3c2.1-.3,4.2-.5,6.3-.8-.1-1.3-.3-2.6-.4-3.9a7.55,7.55,0,0,0,1.4-1.1,11.83,11.83,0,0,0,2.9-10.9A27.3,27.3,0,0,0,460.5,126.7Z" transform="translate(-1.25 -6.3)"/><path class="cls-7" d="M451,130c.1-.1.3-.1.5-.2a14.31,14.31,0,0,1,6.8-.7,6.65,6.65,0,0,1,2.4.7,5.65,5.65,0,0,1,2.2,3.2,13.61,13.61,0,0,1,.4,4,2.34,2.34,0,0,0,1.2-1,12.27,12.27,0,0,0,2.2-4.6c.3-1.7-.3-3.6.4-5.2a8.47,8.47,0,0,1,1.4-1.9,5.63,5.63,0,0,0,.9-4.9,4.06,4.06,0,0,0-1.9-2.5c-1.5-.8-3.4-.1-5.1-.5a18.29,18.29,0,0,0-2.5-.8c-1.8-.3-3.6.8-4.9,2.1s-2.6,2.8-4.3,3.6c-1.3.6-2.9.7-4.2,1.2a8.83,8.83,0,0,0-5,5.5c-.9,2.8-.7,6.3,1.2,8.5a23.05,23.05,0,0,1,2.5,3.6c.3.4,1.9,2,1.8.3-.1-1.3-.6-2.5-.7-3.8A6.85,6.85,0,0,1,451,130Z" transform="translate(-1.25 -6.3)"/><path class="cls-15" d="M458.6,148h0a14.07,14.07,0,0,0-14.4,8.7,161.8,161.8,0,0,0-7.2,21.6,99.15,99.15,0,0,0-1.6,43.6s19.6-3.8,47.3-.4l-8.1-57.3-4.5-8.6A14.78,14.78,0,0,0,458.6,148Z" transform="translate(-1.25 -6.3)"/><path class="cls-37" d="M461.8,203.1h-.2v-3.7a4,4,0,0,0-4-4H436.9a4,4,0,0,0-4,4v3.7h-.2a1.16,1.16,0,0,0-1.2,1.2v2.3h6.2v-2.3a1.16,1.16,0,0,0-1.2-1.2H436v-3a1.69,1.69,0,0,1,1.7-1.7h19.2a1.69,1.69,0,0,1,1.7,1.7v3h-.5a1.16,1.16,0,0,0-1.2,1.2v2.3h6.2v-2.3A1.31,1.31,0,0,0,461.8,203.1Z" transform="translate(-1.25 -6.3)"/><path class="cls-42" d="M475,266.1H419.5a11.65,11.65,0,0,1-11.7-11.7V217.5a11.65,11.65,0,0,1,11.7-11.7H475a11.65,11.65,0,0,1,11.7,11.7v36.9A11.65,11.65,0,0,1,475,266.1Z" transform="translate(-1.25 -6.3)"/><path class="cls-37" d="M423.1,266.9h-1.6a1.16,1.16,0,0,1-1.2-1.2V206.5a1.16,1.16,0,0,1,1.2-1.2h1.6a1.16,1.16,0,0,1,1.2,1.2v59.2A1.22,1.22,0,0,1,423.1,266.9Z" transform="translate(-1.25 -6.3)"/><path class="cls-37" d="M472.2,266.9h-.8a1.58,1.58,0,0,1-1.6-1.6V206.8a1.58,1.58,0,0,1,1.6-1.6h.8a1.58,1.58,0,0,1,1.6,1.6v58.5A1.58,1.58,0,0,1,472.2,266.9Z" transform="translate(-1.25 -6.3)"/><path class="cls-43" d="M715.8,174.5h-.2v-4.1a4.48,4.48,0,0,0-4.5-4.5h-23a4.48,4.48,0,0,0-4.5,4.5v4.1h-.2a1.37,1.37,0,0,0-1.4,1.4v2.6h6.9v-2.6a1.37,1.37,0,0,0-1.4-1.4h-.6v-3.3a1.9,1.9,0,0,1,1.9-1.9h21.4a1.9,1.9,0,0,1,1.9,1.9v3.3h-.6a1.37,1.37,0,0,0-1.4,1.4v2.6H717v-2.6A1.22,1.22,0,0,0,715.8,174.5Z" transform="translate(-1.25 -6.3)"/><path class="cls-44" d="M731.8,244.7H667.3A11.65,11.65,0,0,1,655.6,233V189.3a11.65,11.65,0,0,1,11.7-11.7h64.5a11.65,11.65,0,0,1,11.7,11.7V233A11.71,11.71,0,0,1,731.8,244.7Z" transform="translate(-1.25 -6.3)"/><path class="cls-22" d="M672.8,245.5h-2a1.16,1.16,0,0,1-1.2-1.2V178.1a1.16,1.16,0,0,1,1.2-1.2h2a1.16,1.16,0,0,1,1.2,1.2v66.2A1.16,1.16,0,0,1,672.8,245.5Z" transform="translate(-1.25 -6.3)"/><path class="cls-22" d="M727.5,245.5h-1.3a1.58,1.58,0,0,1-1.6-1.6V178.4a1.58,1.58,0,0,1,1.6-1.6h1.3a1.58,1.58,0,0,1,1.6,1.6V244A1.56,1.56,0,0,1,727.5,245.5Z" transform="translate(-1.25 -6.3)"/><path class="cls-37" d="M447.1,219.1A12.65,12.65,0,0,0,434.6,232a11.67,11.67,0,0,0,1.2,5.2c3.3,6.9,9.5,14.2,11.4,16.2.1.2.3.2.5.2a.55.55,0,0,0,.5-.3,112.09,112.09,0,0,0,7.6-10.5l-4.3-4.1a8.12,8.12,0,0,1-4,1.2,8,8,0,1,1,7.9-8.1,9.19,9.19,0,0,1-1,4.1l3.5,3.4c.4-.8.9-1.7,1.2-2.5a11.51,11.51,0,0,0,1-5.2A12.74,12.74,0,0,0,447.1,219.1Z" transform="translate(-1.25 -6.3)"/><path class="cls-37" d="M453.4,231.9a6,6,0,1,1-6.1-5.9A6.08,6.08,0,0,1,453.4,231.9Z" transform="translate(-1.25 -6.3)"/><path class="cls-15" d="M442.7,232.1H444a3.35,3.35,0,0,1,3.3-3.4v-1.3A4.61,4.61,0,0,0,442.7,232.1Z" transform="translate(-1.25 -6.3)"/><path class="cls-16" d="M456.5,162.8a49.7,49.7,0,0,1-2.7,5.1c-3.2,6-5.1,12.6-7,19.1a7.66,7.66,0,0,0-.3,4.5c.3,1.3,1,1.7.5,3.1-1,3.1-3.1,3.4-5.2,1.5a63,63,0,0,1-8.3-8.8,5.92,5.92,0,0,1-1.3-2.3,7,7,0,0,1,.2-2.9,82.71,82.71,0,0,1,13.7-30c.9-1.2,1.8-2.4,3.3-2.8a4.94,4.94,0,0,1,4,1.2,10,10,0,0,1,3.8,9.5A7.22,7.22,0,0,1,456.5,162.8Z" transform="translate(-1.25 -6.3)"/><polygon class="cls-6" points="444.85 187.8 442.85 190.5 447.15 194.5 450.45 193.5 450.95 190.5 448.25 190 448.65 189.5 449.55 189.4 449.35 188.5 444.85 187.8"/><path class="cls-17" d="M579.1,93.9A51,51,0,0,0,566,89.4a12.22,12.22,0,0,1-2.8-1.1,47.72,47.72,0,0,0-12.5-5.8c-.8-.2-1.6-.4-2.5-.6-.4,1-.7,1.7-.7,1.7a1.87,1.87,0,0,1,1,2.5l-.4,1a5.81,5.81,0,0,0,.1,4.3,6.46,6.46,0,0,0,3.4,3.1,10.86,10.86,0,0,0,3.9,1.1,8.66,8.66,0,0,0,3.2-.6,7.62,7.62,0,0,0,2.7-2,3.59,3.59,0,0,0,.7-1c.1-.2.2-.3.3-.5a1,1,0,0,1,.4-.5.91.91,0,0,1,1.2,0,.82.82,0,0,1,.4.6c.1.2,0,.5,0,.7h0c-.1.2-.1.5-.2.7-.1.4-.1.8-.2,1.2a6.28,6.28,0,0,0,.6,3.3,8.3,8.3,0,0,0,1.9,2.7,10,10,0,0,0,6.4,2.5,5.54,5.54,0,0,0,4.8-3.5l.4-1a1.88,1.88,0,0,1,2.4-1.2s.3-.7.7-1.7A12.78,12.78,0,0,0,579.1,93.9Z" transform="translate(-1.25 -6.3)"/><path class="cls-45" d="M561.2,88.9a39.47,39.47,0,0,0-9.9-4.5,1.09,1.09,0,0,0-.5-.1L549.7,87a.31.31,0,0,1-.1.2,4.71,4.71,0,0,0-.2.5,3.75,3.75,0,0,0,.2,3.1,5.52,5.52,0,0,0,2.7,2.3,11.05,11.05,0,0,0,3.1.9,5.28,5.28,0,0,0,2.5-.4,6,6,0,0,0,2.1-1.4,1.79,1.79,0,0,0,.5-.7c.1-.1.1-.2.2-.4h0l.8-2.1A.37.37,0,0,1,561.2,88.9Z" transform="translate(-1.25 -6.3)"/><path class="cls-45" d="M566.9,91.2a40.49,40.49,0,0,1,10.3,3.6c.2.1.3.2.5.3l-1.1,2.7a.31.31,0,0,1-.1.2,4.71,4.71,0,0,0-.2.5,3.45,3.45,0,0,1-2.3,2.1,5.57,5.57,0,0,1-3.6-.2,11.43,11.43,0,0,1-2.9-1.5,6.15,6.15,0,0,1-1.6-2,4.18,4.18,0,0,1-.5-2.4,2.77,2.77,0,0,1,.1-.9c0-.1.1-.3.1-.4h0l.8-2.1A2,2,0,0,1,566.9,91.2Z" transform="translate(-1.25 -6.3)"/><g class="cls-46"><path class="cls-47" d="M549.7,87.5a.35.35,0,0,1,.1-.2l1.1-2.7a4.33,4.33,0,0,1,.5.1,39.47,39.47,0,0,1,9.9,4.5h.1l.1-.2c-.1-.1-.2-.1-.3-.2a39.47,39.47,0,0,0-9.9-4.5,1.09,1.09,0,0,0-.5-.1l-1.1,2.7a.31.31,0,0,1-.1.2,4.71,4.71,0,0,0-.2.5,3.89,3.89,0,0,0,.1,3,4.16,4.16,0,0,1,0-2.7C549.5,88.1,549.6,87.8,549.7,87.5Z" transform="translate(-1.25 -6.3)"/></g><g class="cls-46"><path class="cls-48" d="M565.7,93.9c0-.1.1-.3.1-.4h0l.8-2.1c.1,0,.2.1.3.1a40.49,40.49,0,0,1,10.3,3.6c.1.1.2.1.3.2l.1-.2c-.2-.1-.3-.2-.5-.3a45.06,45.06,0,0,0-10.3-3.6c-.1,0-.2-.1-.3-.1l-.8,2.1h0c0,.1-.1.3-.1.4a2.77,2.77,0,0,0-.1.9,5.93,5.93,0,0,0,.5,2.3,5.22,5.22,0,0,1-.4-2.1C565.6,94.5,565.7,94.2,565.7,93.9Z" transform="translate(-1.25 -6.3)"/></g><g class="cls-46"><path class="cls-47" d="M549.5,90.8h0a5.09,5.09,0,0,0,2.8,2.4,11.05,11.05,0,0,0,3.1.9,5.28,5.28,0,0,0,2.5-.4,4.87,4.87,0,0,0,2.1-1.4c.2-.2.3-.4.5-.6s.1-.2.2-.4h0l.8-1.9C561.5,89.3,557.7,94,549.5,90.8Z" transform="translate(-1.25 -6.3)"/></g><g class="cls-46"><path class="cls-47" d="M566.3,97.5a5.71,5.71,0,0,0,1.3,1.4,8.86,8.86,0,0,0,2.9,1.5,5.57,5.57,0,0,0,3.6.2,4.32,4.32,0,0,0,2.3-2.1,4.71,4.71,0,0,1,.2-.5.35.35,0,0,1,.1-.2l.2-.5C575,98.4,571.6,99.6,566.3,97.5Z" transform="translate(-1.25 -6.3)"/></g><path class="cls-22" d="M553.5,85.6c-.7-.2-1.3-.5-2-.7h0c-.2-.1-.5.1-.6.3l-.8,1.9a.31.31,0,0,1-.1.2c0,.1-.1.2-.1.3A3.43,3.43,0,0,1,553.5,85.6Z" transform="translate(-1.25 -6.3)"/><path class="cls-22" d="M569.2,92.3a10.55,10.55,0,0,0-1.9-.5h0c-.2-.1-.5.1-.6.3l-.7,1.7a.31.31,0,0,1-.1.2c0,.1-.1.2-.1.3A3.31,3.31,0,0,1,569.2,92.3Z" transform="translate(-1.25 -6.3)"/></g></svg>