<?xml version="1.0" encoding="utf-8"?>
<!-- Generator: Adobe Illustrator 22.1.0, SVG Export Plug-In . SVG Version: 6.00 Build 0)  -->
<svg version="1.1" xmlns="http://www.w3.org/2000/svg" xmlns:xlink="http://www.w3.org/1999/xlink" x="0px" y="0px"
	 viewBox="0 0 769.3 294.9" style="enable-background:new 0 0 769.3 294.9;" xml:space="preserve">
<style type="text/css">
	.st0{display:none;}
	.st1{opacity:0.8;}
	.st2{fill:#E1E6FB;}
	.st3{fill:#F4CDAF;}
	.st4{fill:#D1D1D1;}
	.st5{fill:#373791;}
	.st6{fill:#EFEFEF;}
	.st7{fill:#304269;}
	.st8{fill:#3F3FAA;}
	.st9{fill:#4B45BD;}
	.st10{fill:#DEDAE8;}
	.st11{fill:#BAC5F4;}
	.st12{fill:#3C4043;}
	.st13{fill:#FFFFFF;}
	.st14{fill:#F8F8FF;}
	.st15{fill:url(#SVGID_1_);}
	.st16{fill:url(#SVGID_2_);}
	.st17{fill:url(#SVGID_3_);}
	.st18{fill:url(#SVGID_4_);}
	.st19{fill:#F5F5FC;}
	.st20{fill:#F7F7F7;stroke:#E1E6FB;stroke-width:3;stroke-miterlimit:10;}
	.st21{fill:url(#SVGID_5_);}
	.st22{fill:url(#SVGID_6_);}
	.st23{fill:url(#SVGID_7_);}
	.st24{fill:url(#SVGID_8_);}
	.st25{fill:url(#SVGID_9_);}
	.st26{fill:#F7F7F7;}
	.st27{fill:url(#SVGID_10_);}
	.st28{fill:url(#SVGID_11_);}
	.st29{display:none;fill:#F7F7F7;}
	.st30{fill:url(#SVGID_12_);}
	.st31{fill:url(#SVGID_13_);}
	.st32{fill:url(#SVGID_14_);}
	.st33{fill:url(#SVGID_15_);}
	.st34{fill:url(#SVGID_16_);}
	.st35{fill:url(#SVGID_17_);}
	.st36{fill:#EAC5B0;}
	.st37{opacity:0.2;fill:#BAC5F4;}
	.st38{opacity:0.57;}
	.st39{fill:#E5E5E7;}
	.st40{fill:none;stroke:#D1D1D1;stroke-miterlimit:10;}
	.st41{fill:#47BEC4;}
	.st42{fill:none;stroke:#FFFFFF;stroke-width:2;stroke-miterlimit:10;}
	.st43{fill:#F77A4B;}
	.st44{fill:url(#SVGID_18_);}
	.st45{fill:url(#SVGID_19_);}
	.st46{fill:url(#SVGID_20_);}
	.st47{fill:url(#SVGID_21_);}
	.st48{fill:url(#SVGID_22_);}
	.st49{fill:url(#SVGID_23_);}
	.st50{fill:url(#SVGID_24_);}
	.st51{fill:url(#SVGID_25_);}
	.st52{fill:url(#SVGID_26_);}
	.st53{clip-path:url(#SVGID_28_);fill:#BAC5F4;}
	.st54{opacity:0.4;fill:#F1F2F2;}
	.st55{fill:#ACD9DD;}
	.st56{opacity:0.2;}
	.st57{fill:#FFFDF3;}
	.st58{fill:#232A35;}
	.st59{fill:#3B455A;}
	.st60{opacity:0.1;}
	.st61{fill:#000100;}
	.st62{fill:url(#SVGID_29_);}
	.st63{fill:url(#SVGID_30_);}
	.st64{fill:url(#SVGID_31_);}
	.st65{fill:url(#SVGID_32_);}
	.st66{fill:#BDBDBD;}
	.st67{fill:url(#SVGID_33_);}
	.st68{fill:#5A5A5C;}
	.st69{opacity:0.56;fill:url(#SVGID_34_);}
	.st70{opacity:0.66;fill:#FFFFFF;}
	.st71{fill:#C4DFE1;}
	.st72{fill:#33435A;}
	.st73{fill:#57859B;}
	.st74{fill:#427CCC;}
	.st75{fill:#FFBFA4;}
	.st76{fill:#141C2B;}
	.st77{fill:#BABCBC;}
	.st78{opacity:0.14;}
	.st79{fill:url(#SVGID_35_);}
	.st80{fill:url(#SVGID_36_);}
	.st81{fill:url(#SVGID_37_);}
	.st82{fill:url(#SVGID_38_);}
	.st83{fill:url(#SVGID_39_);}
	.st84{fill:url(#SVGID_40_);}
	.st85{display:inline;fill:url(#SVGID_41_);}
	.st86{display:inline;fill:url(#SVGID_42_);}
	.st87{display:inline;fill:url(#SVGID_43_);}
	.st88{display:inline;fill:url(#SVGID_44_);}
	.st89{display:inline;fill:url(#SVGID_45_);}
	.st90{display:inline;fill:url(#SVGID_46_);}
	.st91{fill:url(#SVGID_47_);}
	.st92{opacity:0.6;}
	.st93{fill:url(#SVGID_48_);}
	.st94{opacity:0.3;}
	.st95{fill:url(#SVGID_49_);}
	.st96{fill:url(#SVGID_50_);}
	.st97{fill:#DE937A;}
	.st98{fill:#28415A;}
	.st99{fill:#59595B;}
	.st100{fill:#39517C;}
	.st101{fill:#34383A;}
	.st102{fill:#F3CFC1;}
	.st103{fill:#FF6600;}
	.st104{fill:#D9E8F5;}
	.st105{fill:#F5CEB0;}
	.st106{fill:#F26101;}
	.st107{fill:#FFFFF2;}
	.st108{display:inline;}
	.st109{fill:#7DB5DB;}
	.st110{fill:#EFBFA5;}
	.st111{fill:#EACDB0;}
	.st112{fill:#4D4D4D;}
	.st113{display:inline;fill:#D8D8D8;stroke:#FFFFFF;stroke-miterlimit:10;}
	.st114{display:inline;fill:#BCBEC0;}
	.st115{display:inline;fill:#305399;}
	.st116{fill:#F0F1F1;}
	.st117{display:inline;opacity:0.1;fill:#000100;}
	.st118{display:inline;fill:#3B455A;}
	.st119{display:inline;fill:#7DB5DB;}
	.st120{fill:#98C7E2;}
	.st121{fill:#FFFDF0;}
	.st122{opacity:6.000000e-02;fill:#FFFFFF;}
	.st123{opacity:0.1;fill:#000100;}
	.st124{fill:url(#SVGID_51_);}
	.st125{fill:url(#SVGID_52_);}
	.st126{fill:url(#SVGID_53_);}
	.st127{fill:url(#SVGID_54_);}
	.st128{fill:url(#SVGID_55_);}
	.st129{fill:url(#SVGID_56_);}
	.st130{fill:url(#SVGID_57_);}
	.st131{fill:url(#SVGID_58_);}
	.st132{fill:#EAC1A4;}
	.st133{fill:#484F5B;}
	.st134{fill:#8CABEF;}
	.st135{fill:url(#SVGID_59_);}
	.st136{fill:url(#SVGID_60_);}
	.st137{fill:url(#SVGID_61_);}
	.st138{fill:url(#SVGID_62_);}
	.st139{fill:url(#SVGID_63_);}
	.st140{fill:url(#SVGID_64_);}
	.st141{fill:url(#SVGID_65_);}
	.st142{fill:url(#SVGID_66_);}
	.st143{fill:url(#SVGID_67_);}
	.st144{fill:url(#SVGID_68_);}
	.st145{fill:url(#SVGID_69_);}
	.st146{fill:url(#SVGID_70_);}
	.st147{fill:url(#SVGID_71_);}
	.st148{fill:url(#SVGID_72_);}
	.st149{fill:#BABCBE;}
	.st150{fill:#242449;}
	.st151{fill:#2F3787;}
	.st152{fill:#3D475B;}
	.st153{fill:#366362;}
	.st154{fill:#89B336;}
	.st155{fill:#96BD34;}
	.st156{opacity:7.000000e-02;}
	.st157{fill:#B5D381;}
	.st158{fill:#3B308A;}
	.st159{opacity:8.000000e-02;}
	.st160{fill:#F3E6DC;}
	.st161{fill:#92C59B;}
	.st162{fill:#88C9DA;}
	.st163{fill:#F9CD5B;}
	.st164{fill:#F6D5D5;}
	.st165{fill:#424DBF;}
	.st166{fill:#7EACF1;}
	.st167{fill:#F17187;}
	.st168{fill:#EAEAEA;}
	.st169{fill:#A0A2A6;}
	.st170{fill:#CE7361;}
	.st171{fill:#C7C8C9;}
	.st172{opacity:9.000000e-02;}
	.st173{opacity:0.15;}
	.st174{fill:#5B6475;}
	.st175{fill:#EDEDED;}
</style>
<g id="Слой_1" class="st0">
</g>
<g id="Слой_9">
	<g id="Слой_3__x28_копия2_x29_" class="st1">
	</g>
	<g id="Слой_10">
		<g id="Слой_11">
		</g>
		<g id="Слой_11__x28_копия_x29_">
			<g id="Слой_11_копия_2">
			</g>
			<g id="Слой_11_копия_3">
			</g>
		</g>
	</g>
</g>
<g id="poezdki">
	<g id="Слой_3__x28_копия_x29_" class="st1">
		<g>
			<linearGradient id="SVGID_1_" gradientUnits="userSpaceOnUse" x1="363.7641" y1="65.5513" x2="363.7641" y2="-12.4516">
				<stop  offset="0" style="stop-color:#FFFFFF"/>
				<stop  offset="1" style="stop-color:#CFCFCF"/>
			</linearGradient>
			<path class="st15" d="M381,7.9c-4.4-5.1-10.8-8-17.5-7.9c-6.7,0.1-13.1,3.1-17.3,8.3c-9.3,11.2-9.1,27.4,0.4,38.3l15.6,17.2
				c0.5,0.6,1.3,0.9,2,0.9c0.8,0,1.5-0.4,2-0.9l15.2-17.6C390.7,35.1,390.5,18.9,381,7.9z M364.6,40.5c-8.2,0.1-14.9-6.5-15-14.7
				c-0.1-8.2,6.5-14.9,14.7-15c8.2-0.1,14.9,6.5,15,14.7C379.3,33.6,372.8,40.4,364.6,40.5z"/>
		</g>
		<g>
			<linearGradient id="SVGID_2_" gradientUnits="userSpaceOnUse" x1="125.0374" y1="132.2179" x2="125.0374" y2="-13.8201">
				<stop  offset="0" style="stop-color:#FFFFFF"/>
				<stop  offset="1" style="stop-color:#CFCFCF"/>
			</linearGradient>
			<path class="st16" d="M158.7,18.1c-8.6-9.9-21.1-15.6-34.2-15.4c-13.1,0.1-25.5,6.1-33.8,16.2c-18.1,21.8-17.7,53.4,0.8,74.8
				l30.5,33.6c1,1.1,2.5,1.7,4,1.7s2.9-0.7,3.9-1.8l29.7-34.3C177.6,71.2,177.2,39.5,158.7,18.1z M126.6,81.6
				C110.6,81.8,97.5,69,97.3,53C97.2,37,110,23.9,126,23.7c16-0.2,29.1,12.6,29.3,28.6C155.4,68.3,142.6,81.4,126.6,81.6z"/>
		</g>
		<g>
			<linearGradient id="SVGID_3_" gradientUnits="userSpaceOnUse" x1="259.1175" y1="324.8846" x2="259.1175" y2="226.1076">
				<stop  offset="0.4826" style="stop-color:#FFFFFF"/>
				<stop  offset="1" style="stop-color:#CFCFCF"/>
			</linearGradient>
			<path class="st17" d="M273.8,246c-3.7-4.3-9.2-6.8-14.9-6.7c-5.7,0.1-11.1,2.7-14.8,7.1c-7.9,9.5-7.7,23.3,0.4,32.6l13.3,14.6
				c0.4,0.5,1.1,0.8,1.7,0.7c0.7,0,1.3-0.3,1.7-0.8l13-14.9C282,269.1,281.9,255.3,273.8,246z M259.8,273.6
				c-7,0.1-12.7-5.5-12.8-12.5c-0.1-7,5.5-12.7,12.5-12.8c7-0.1,12.7,5.5,12.8,12.5C272.4,267.8,266.8,273.6,259.8,273.6z"/>
		</g>
		<g>
			<linearGradient id="SVGID_4_" gradientUnits="userSpaceOnUse" x1="28.8432" y1="258.8846" x2="28.8432" y2="174.7551">
				<stop  offset="0" style="stop-color:#FFFFFF"/>
				<stop  offset="1" style="stop-color:#CFCFCF"/>
			</linearGradient>
			<path class="st18" d="M48.7,191.2c-5.1-5.9-12.4-9.2-20.2-9.1c-7.7,0.1-15,3.6-19.9,9.6C-2.1,204.5-1.9,223.2,9,235.8l18,19.8
				c0.6,0.6,1.4,1,2.3,1c0.9,0,1.7-0.4,2.3-1.1l17.5-20.2C59.8,222.5,59.6,203.8,48.7,191.2z M29.8,228.7
				c-9.4,0.1-17.2-7.4-17.3-16.9c-0.1-9.4,7.5-17.2,16.9-17.3c9.4-0.1,17.2,7.5,17.3,16.9C46.7,220.8,39.2,228.5,29.8,228.7z"/>
		</g>
		<g>
			<linearGradient id="SVGID_5_" gradientUnits="userSpaceOnUse" x1="753.1562" y1="64.8846" x2="753.1562" y2="-5.144">
				<stop  offset="0" style="stop-color:#FFFFFF"/>
				<stop  offset="1" style="stop-color:#CFCFCF"/>
			</linearGradient>
			<path class="st21" d="M765.4,19.8c-3.1-3.6-7.7-5.7-12.4-5.6c-4.8,0.1-9.3,2.2-12.3,5.9c-6.6,7.9-6.4,19.4,0.3,27.2L752,59.5
				c0.4,0.4,0.9,0.6,1.4,0.6c0.5,0,1.1-0.2,1.4-0.7L765.7,47C772.2,39.1,772.1,27.6,765.4,19.8z M753.7,42.9
				c-5.8,0.1-10.6-4.6-10.6-10.4c-0.1-5.8,4.6-10.6,10.4-10.6c5.8-0.1,10.6,4.6,10.6,10.4C764.2,38.1,759.5,42.8,753.7,42.9z"/>
		</g>
		<g>
			<linearGradient id="SVGID_6_" gradientUnits="userSpaceOnUse" x1="699.4863" y1="256.8846" x2="699.4863" y2="153.242">
				<stop  offset="0" style="stop-color:#FFFFFF"/>
				<stop  offset="1" style="stop-color:#CFCFCF"/>
			</linearGradient>
			<path class="st22" d="M724.5,173.9c-6.4-7.4-15.7-11.6-25.5-11.5c-9.8,0.1-19,4.5-25.2,12.1c-13.5,16.2-13.2,39.8,0.6,55.7
				l22.7,25c0.7,0.8,1.8,1.3,2.9,1.3c1.1,0,2.2-0.5,2.9-1.3l22.1-25.5C738.6,213.4,738.3,189.8,724.5,173.9z M700.7,221.2
				c-11.9,0.1-21.7-9.4-21.8-21.3c-0.1-11.9,9.4-21.7,21.3-21.8c11.9-0.1,21.7,9.4,21.8,21.3C722.1,211.3,712.6,221.1,700.7,221.2z"
				/>
		</g>
		<g>
			<g>
				<path class="st2" d="M402.8,223.6c-4.7-5.4-11.5-8.5-18.6-8.4c-7.1,0.1-13.8,3.3-18.4,8.8c-9.8,11.8-9.6,29,0.5,40.6l16.5,18.2
					c0.5,0.6,1.3,0.9,2.2,0.9c0.8,0,1.6-0.4,2.1-1l16.1-18.6C413.1,252.4,412.9,235.3,402.8,223.6z M385.4,258.1
					c-8.7,0.1-15.8-6.9-15.9-15.5c-0.1-8.7,6.9-15.8,15.5-15.9c8.7-0.1,15.8,6.9,15.9,15.5C401.1,250.9,394.1,258,385.4,258.1z"/>
			</g>
		</g>
		<g>
			<g>
				<path class="st2" d="M518.8,251.4c-2.5-2.9-6.2-4.6-10-4.5c-3.9,0-7.5,1.8-9.9,4.8c-5.3,6.4-5.2,15.7,0.2,22l8.9,9.9
					c0.3,0.3,0.7,0.5,1.2,0.5c0.4,0,0.9-0.2,1.2-0.5l8.7-10.1C524.4,267,524.3,257.7,518.8,251.4z M509.4,270.1
					c-4.7,0.1-8.5-3.7-8.6-8.4c-0.1-4.7,3.7-8.5,8.4-8.6c4.7-0.1,8.5,3.7,8.6,8.4C517.9,266.2,514.1,270,509.4,270.1z"/>
			</g>
		</g>
		<g>
			<g>
				<path class="st2" d="M656.7,164.6c-9.3-10.8-22.9-16.9-37.2-16.8c-14.3,0.2-27.7,6.6-36.8,17.6c-19.6,23.7-19.3,58.1,0.9,81.3
					l33.1,36.5c1.1,1.2,2.7,1.9,4.3,1.9c1.6,0,3.2-0.7,4.3-2l32.3-37.2C677.3,222.2,676.9,187.8,656.7,164.6z M621.9,233.6
					c-17.4,0.2-31.6-13.7-31.8-31.1c-0.2-17.4,13.7-31.6,31.1-31.8c17.4-0.2,31.6,13.7,31.8,31.1
					C653.2,219.2,639.3,233.4,621.9,233.6z"/>
			</g>
		</g>
		<g>
			<g>
				<path class="st2" d="M449.8,185.9c-7.6-8.8-18.7-13.8-30.3-13.7c-11.6,0.1-22.6,5.4-29.9,14.3c-16,19.3-15.7,47.3,0.7,66.2
					l27,29.7c0.9,1,2.2,1.5,3.5,1.5c1.3,0,2.6-0.6,3.5-1.6l26.3-30.3C466.5,232.8,466.2,204.8,449.8,185.9z M421.5,242.1
					c-14.1,0.2-25.7-11.2-25.9-25.3c-0.2-14.1,11.2-25.7,25.3-25.9c14.2-0.2,25.7,11.2,25.9,25.3
					C446.9,230.3,435.6,241.9,421.5,242.1z"/>
			</g>
		</g>
	</g>
	<g id="Слой_8">
		<g>
			<g>
				<g>
					<g>
						<g>
							<polygon class="st36" points="563.9,279.6 564,288.7 558.6,288.8 558.5,278.7 							"/>
						</g>
					</g>
					<g>
						<g>
							<path class="st7" d="M558.6,287.7l6.1,1.1c0,0,0.5,2,0.5,2.6l-0.1,1.1c-0.1,0.9-0.7,1.6-1.6,1.6l-10,0.8
								c-0.9,0.1-1.6-0.6-1.6-1.5c0-1.2,0.7-2.3,1.9-2.7l0.6-0.2L558.6,287.7z"/>
						</g>
					</g>
				</g>
			</g>
			<path class="st8" d="M590.5,195c0-4.7-0.5-9.2-1.4-12.7c-0.1-0.3-0.3-0.5-0.7-0.5c-7.4-0.3-15.8,0.5-23.1,2
				c-7.3,1.5-11.9,3.1-11.9,11c-0.1,14.6-7,26.6-9.5,40.6c-1.4,8.2,1,15.5,3.8,23c2.9,8.1,8.5,21.1,10.6,29.4c0.4,0,6.3,1,6.3,1
				c2.8-14.1-3.6-31.4-3.4-42.2c0.1-8,6-12.1,9-19.6c3.2-8.3,7.9-5,13.3-9.8C588.7,212.5,590.5,203.5,590.5,195z"/>
			<g>
				<g>
					<g>
						<g>
							<g>
								<g>
									<polygon class="st36" points="602.7,270.9 606.3,279.3 601.6,281.9 597.4,272.1 									"/>
								</g>
							</g>
							<g>
								<g>
									<path class="st7" d="M601.4,281.6c0.2-0.2,0.4-0.4,0.6-0.6c0.6-0.4,5.4-3,5.8-1.8c0.1,0.2,0,0.4,0,0.6
										c-0.4,3.3-1.2,6.6-2.3,9.7c-0.5,1.3-1.2,2.8-2.6,3.2c-0.6,0.1-1.2,0-1.9-0.1c-0.9-0.2-1.8-0.5-2.6-0.8
										c-0.3-0.1-0.6-0.3-0.8-0.6c-0.3-0.6,0.2-1.3,0.8-1.6c0.6-0.3,1.3-0.5,1.6-1.2c0.1-0.3,0.1-0.6,0.2-0.9
										C600.4,285.2,600,283.1,601.4,281.6z"/>
								</g>
							</g>
						</g>
					</g>
					<g>
						<path class="st9" d="M567.7,238.1c1.8,8.1,6.8,13.9,12.2,19.9c5.1,5.6,16.7,18,21.2,24l6.1-3.2c-2.5-9.4-12.2-26.6-15.7-35.7
							c-2.9-7.5-2.8-15.2-3-23.3c-0.1-4,0.9-7.7,1.4-11.6c0.6-4.8,0.7-9.8,1.3-14.7c0.2-1.6,0.3-3.6-0.9-4.6c-0.6-0.5-1.3-0.7-2-0.8
							C561.7,182.9,564.3,222.7,567.7,238.1z"/>
					</g>
				</g>
			</g>
		</g>
		<g>
			<g>
				<path class="st3" d="M524.9,131.9c0.1,0,0.3,0,0.4,0.1c1.1,0.4,1.5,1.3,2.4,2c0.4,0.3,1.7-0.2,1.7,0.9c0,0.4-0.2,1.4-0.3,2.3
					c-0.1,1.3,0.6,3,1.4,4.2c3,4.8,7.3,8.7,11.7,12.4c0.2,0.2,0.5,0.4,0.8,0.5c0.6,0.1,1.1-0.2,1.6-0.6c2.2-1.5,4.6-2.9,7.1-3.9
					c2.2-1,4.6-1.8,7-1.7c2.4,0.1,4.9,1.2,6.1,3.2c0.9,1.6,1,3.6,0.3,5.2c-1.9,4.1-8.4,3.9-12.2,4.5c-3.6,0.6-7.2,0.9-10.9,1
					c-0.4,0-0.9,0-1.3-0.2c-0.4-0.2-0.8-0.5-1.1-0.9c-4.3-4.5-8.1-9.3-11.8-14.2c-1-1.3-1.2-3.1-2.2-4.3c-0.6-0.8-1.7-1-2.4-1.6
					c-0.7-0.6-1.6-1.6-2-2.4c-0.9-1.7-0.1-3.4,0.5-5c0.1-0.4,0.2-0.7,0.5-0.9c0.5-0.4,1.1-0.5,1.7-0.6
					C524.2,131.9,524.6,131.9,524.9,131.9z"/>
			</g>
			<g>
				<path class="st4" d="M543.1,153.8c1.1,0.2,20.2-12,21.1-12.5c3.3-1.8,6.7-3.7,10.4-4c8-0.6,12.8,8.8,6.8,14.5
					c-6.5,6.3-15.8,10.6-24.7,11.7c-0.2,0-14.5,0-16.7-1.1c-1.8-0.9-15.6-17.4-15.3-19s4.5-4.4,5.4-3.8
					C531.2,140.5,541.8,153.6,543.1,153.8z"/>
			</g>
		</g>
		<g>
			<path class="st6" d="M581.9,138.9c0.8,0.6,1.6,1.4,2.3,2.2c0.7,0.7,1.3,1.4,2,2.1c2.3,2.4,3.4,6,4.3,9
				c5.1,16.2,6.9,38.3,3.6,55.2c-12.5,1.1-27-2.1-39.5-3.8c-1.2-0.2-2.6-0.4-3.2-1.5c-0.4-0.6-0.4-1.4-0.4-2.2
				c0-10.7,2.3-22.2,4.4-32.8c0.9-4.5,2-8.9,3.4-13.2c1.5-4.6,3.2-9.5,6.7-13c3.8-3.7,10.9-5.5,15.6-2.6
				C581.4,138.5,581.7,138.7,581.9,138.9z"/>
		</g>
		<g>
			<path class="st12" d="M573.7,117.7c-1.1,1.5-1.8,3.3-2.2,5.2c-0.1,0.5-0.2,1.1-0.6,1.3c-0.5,0.3-0.2,1-0.5,0.5
				c-0.3-0.5-1.2-2.1-1.1-2.6c0.1-1.3,0.2-2.5,0.5-3.7c0.2-1.1,0.6-2.2,1.4-2.9c0.5-0.4,1.1-0.7,1.7-1c0.9-0.4,1.7-0.8,2.7-0.8
				c1.6-0.1,2.5,0.6,1,1.5C575.4,115.9,574.5,116.7,573.7,117.7z"/>
			<path class="st3" d="M576.7,141.3c2,0.5,4-0.8,4.3-2.9c0.2-1.3,0.5-2.5,1.2-3c0.7-0.6,1.7-0.6,2.5-1c1.5-0.8,2.1-2.9,2.5-4.7
				c0.3-1.6,0.7-3.2,1-4.8c0.4-1.7,0.7-3.6,0.1-5.2c-0.4-1-1.1-1.9-1.9-2.6c-3-2.5-7.2-3.2-11-2.1c-1.5,0.4-3,1.1-3.8,2.6
				c-0.4,0.8-0.6,1.8-0.7,2.8c-0.3,2.8-0.7,5.5-1,8.3c-0.1,0.7-0.2,1.3,0,2c0.4,2.1,2.5,3,4.3,3.5c-0.1,1.2-0.2,2.4-0.2,3.6
				C574,139.5,575.1,140.9,576.7,141.3L576.7,141.3z"/>
			<g>
				<path class="st12" d="M569.3,130.2c0.1,1.8,0.7,3.5,1.9,4.6c1.4,1.3,3.4,1.6,5.2,1.9c1,0.2,2,0.3,3,0.5c2.5,0.4,5.1,0.4,6.8-2.2
					c0.8-1.2,1.2-2.6,1.3-4.1c0-0.4,0-0.8-0.1-1.2c-0.1-0.4-0.4-0.7-0.8-0.7c-0.5,0-0.8,0.5-1.1,0.8c-0.7,0.8-1.9,1.1-2.8,0.5
					c-0.3-0.2-0.5-0.4-0.7-0.6c-0.1-0.1-0.2-0.2-0.3-0.3c-0.9-0.9-2-1.4-3.1-1.7c-1-0.3-2.5-0.8-3.3-0.1c-0.5,0.5-1,0.9-1.5,1.4
					c-0.2,0.2-0.4,0.4-0.7,0.5c-0.3,0.1-0.5,0.1-0.8,0.1c-0.7-0.1-1.4-0.5-1.6-1.2c-0.1-0.3,0-0.7,0-1c0-0.3,0-0.7-0.1-1
					c-0.6-1-1,0.4-1.1,0.9C569.3,128.4,569.2,129.3,569.3,130.2z M576.2,131.6c0.7,0.7,1.6,0.8,2.5,0.6c0.5-0.1,0.6,0.7,0.1,0.8
					c-1.1,0.2-2.2,0-3.1-0.8C575.3,132,575.8,131.3,576.2,131.6z"/>
			</g>
			<g>
				<path class="st12" d="M571.1,112.5c-0.1-0.7-0.1-1.4-0.1-2.1c0.6,0.3,1.3,0.5,1.9,0.4c0.1-0.4,0.1-0.8,0.2-1.2
					c0-0.3,4.5,0,4.8,0c3.4,0.2,6.5,0.3,9.2,2.5c2.4,1.9,3.7,4.4,3.7,7.5c0,2.9-1.3,6.6-3.3,8.8c0.1-0.8,0.6-2.5,0.5-3.3
					c0-0.7-0.1-1.5-0.4-2.2c-0.5-1.4-1.4-2.6-2.5-3.6c-1.8-1.5-4-2.5-6.2-3.1c-2-0.6-4.5-1.2-6.7-0.9c-1,0.1-1.2,0.4-1.7-0.7
					c-0.1-0.2-0.6-2.4-0.6-2.4C570.4,112.5,570.7,112.5,571.1,112.5z"/>
			</g>
		</g>
	</g>
	<g>
		<g>
			<g>
				<path class="st9" d="M573.2,150.8v67.3c0,1.8-0.6,3.4-1.7,4.6c-0.4,0.5-0.9,0.9-1.4,1.3l0,0c-1,0.6-2.1,1.1-3.3,1.2c0,0,0,0,0,0
					c-0.2,0-0.5,0-0.7,0H454.2c-0.8,0-1.6-0.1-2.3-0.4c-0.3-0.1-0.5-0.2-0.8-0.3c-2.1-1-3.6-3-3.9-5.3c0-0.3-0.1-0.7-0.1-1v-67.3
					c0-3.9,3.2-7.1,7.1-7.1h111.9c2.8,0,5.2,1.6,6.3,3.9c0.1,0.1,0.1,0.2,0.2,0.4c0,0,0,0,0,0C573,148.9,573.2,149.8,573.2,150.8z"
					/>
				<g>
					<path class="st37" d="M480.1,148.7h-23.2c-3.8,0-6.9,3.1-6.9,6.9v19.8C450,160.7,463.5,148.7,480.1,148.7z"/>
				</g>
			</g>
		</g>
		<g class="st38">
			<path class="st39" d="M452.2,227.7c0.1,0,0.2,0.1,0.3,0.1L452.2,227.7L452.2,227.7z"/>
			<polyline class="st40" points="456.5,184 464.9,182.8 467,168.5 			"/>
			<path class="st41" d="M452.4,227.8l-0.3-0.1v0C452.2,227.8,452.3,227.8,452.4,227.8z"/>
			<polyline class="st40" points="479,225.2 478.9,225.2 471.6,222.6 481.5,204 477.2,201.9 447.2,210 			"/>
			<polyline class="st40" points="534.2,159.7 505.3,165.8 481.5,204 			"/>
			<line class="st40" x1="502.2" y1="194.7" x2="484.5" y2="225.2"/>
			<polyline class="st40" points="488.5,143.7 485.2,148 478.1,157.3 474.7,157.8 474.1,160.4 472.2,168.2 			"/>
			<line class="st40" x1="511.9" y1="143.7" x2="505.3" y2="165.8"/>
			<path class="st40" d="M485,147.8c0,0,2.6,2.6,6.7,4.5c4.3,2,11.1,2.7,17.3-0.3"/>
			<polyline class="st40" points="495.6,153.7 492.8,157.8 489.5,155.4 491.7,152.3 			"/>
			<polyline class="st40" points="529.3,188.2 509.4,211.7 504.2,214.4 			"/>
			<polyline class="st40" points="573.2,174.1 571.6,173.1 554.4,143.7 			"/>
			<polyline class="st40" points="562.7,158.7 546.1,203.6 551.3,212.3 			"/>
			<line class="st40" x1="547" y1="205.1" x2="541.9" y2="215.7"/>
			<polyline class="st40" points="495.8,205.8 504.2,214.4 505.7,217.4 492.8,220.1 490.5,225.2 			"/>
			<polyline class="st40" points="457.2,166.9 457.3,167 457.5,167 456.5,184 452.4,202.1 471.3,222.8 478.5,225.2 			"/>
			<line class="st40" x1="498.7" y1="201.9" x2="509.3" y2="211.5"/>
			<path class="st40" d="M523.7,225.2c0.2-0.7,0.5-1.4,0.8-2.1c1.1-2.8,2.2-5.6,3.3-8.1c0.4-0.9,0.8-1.7,1.2-2.5l0.1-0.2l0.8-1.5
				c0.5-0.9,0.9-1.8,1.4-2.7c0,0,0,0,0,0c4.5-8.5,8.4-15,8.4-15v0l1.8-6.3l0-0.1v0l0.5-1.8l-0.2-2.7l-7.5-22.6l2.5-16"/>
			<polyline class="st40" points="530,211 530,211 543.2,217 543.3,217 			"/>
			<line class="st40" x1="447.1" y1="148.7" x2="474.1" y2="160.4"/>
			<path class="st40" d="M447.1,165.3l2.9,0.5l1.9,0.3l5.3,0.8l0.1,0l0.1,0l2.5,0.4l0.1,0l6.9,1.1c0,0,2.5,0.4,2.5,0.4
				c0,0,1.9-0.7,2.7-0.6c0.9,0,33-2.4,33.1-2.4l11.5,3.7c0,0,2.2,8.6,3.7,10.3c0,0,0,0,0,0c0,0.1,0.1,0.1,0.1,0.2
				c0.6,0.7,1.2,1.4,1.8,2.1c0.1,0.1,0.2,0.2,0.3,0.4c0,0,0,0,0,0c7.8,8.3,13.1,8.8,13.1,8.8l3.7,1.9l4.8,2.4l16.6,8.3"/>
			<line class="st40" x1="555.1" y1="179.4" x2="569.3" y2="189.9"/>
		</g>
		<g>
			<path class="st11" d="M573.2,180.4v36.5c0,2.2-0.8,4.1-2.2,5.6c-1.5,1.6-3.7,2.7-6.1,2.7h-62.7c8.3,0,15.7-0.8,22.2-2.1
				c0.3,0,0.6-0.1,0.9-0.2c3-0.6,5.8-1.4,8.5-2.3c1.2-0.4,2.3-0.8,3.4-1.2h0c2.1-0.8,4.1-1.7,5.9-2.6c2.7-1.3,5.2-2.7,7.4-4.3
				c0.9-0.6,1.8-1.3,2.7-1.9c2.9-2.2,5.4-4.5,7.5-6.8c0.1-0.1,0.1-0.1,0.2-0.2c0.8-0.9,1.6-1.8,2.3-2.8c0.7-0.9,1.4-1.8,2.1-2.8
				c1.6-2.3,2.9-4.6,3.9-6.7C572.5,185.2,573.2,180.4,573.2,180.4z"/>
		</g>
	</g>
	<g>
		<g>
			<g>
				<path class="st3" d="M567.6,198.6c-0.1-0.1-0.1-0.3-0.1-0.4c-0.1-1.2,0.5-1.9,0.7-3.1c0.1-0.5-0.9-1.5,0.1-1.9
					c0.4-0.2,1.4-0.4,2.2-0.8c1.2-0.5,2.4-1.9,3.1-3.1c1.4-2.4,2.5-10.3,6.1-10.5c8.3-0.4-2.2,13-2.8,14.4c-0.4,0.9-0.1,1.9-0.3,2.9
					c-0.2,0.9-0.7,2.1-1.3,2.9c-1.1,1.6-3,1.6-4.7,1.9c-0.4,0.1-0.7,0.1-1.1,0c-0.6-0.2-1-0.8-1.3-1.3
					C567.9,199.2,567.7,198.9,567.6,198.6z"/>
			</g>
		</g>
		<g>
			<path class="st4" d="M587.4,144.2c0.2,0.4,0.4,1.1,0.7,1.9c1.6,4,1.5,9.6,1.5,13.8c-0.1,9.1-6.2,25.4-10.2,33.6
				c-0.1,0.3-0.3,0.6-0.6,0.7c-0.3,0.1-0.6,0-0.9-0.2c-1.9-0.8-3.8-1.6-5.6-2.4c-0.4-0.2-0.8-0.4-1.1-0.7c-0.5-0.7-0.2-1.7,0.1-2.5
				c1.9-5.3,7.5-15,7.7-23.8c0.1-2.7-0.4-6.1,0.3-8.6c0.6-2.3,2.5-4.5,3.2-6.9c0.4-1.5,1.1-3.7,2.4-4.6
				C586.6,143.2,587.1,143.3,587.4,144.2z"/>
		</g>
	</g>
	<g>
		<path class="st42" d="M546.8,169.9c0,0,0.3,12.9-3.6,12.9c-2.6,0-22.5-14.8-22.5-3.4c0,4.9-17.7,21.6-19.5,13.7
			c-1.7-7.3-6.6-1.7-7.5-6.4c-1.7-8.9-12-6.8-15.7-5.2c-2.8,1.2-4.4,3.5-4.4,5.2c0,3.9-4.3,11.8-13,11.8c-8.6,0-3.3,3-3.3,9.1
			l-10.2,2.4"/>
		<g>
			<path class="st43" d="M550.3,154.1c0,1.9-1.6,3.5-3.5,3.5c-1.9,0-3.5-1.6-3.5-3.5c0-1.9,1.6-3.5,3.5-3.5
				C548.7,150.6,550.3,152.2,550.3,154.1z"/>
			<path class="st13" d="M544.1,154.1h0.8c0-1.1,0.9-1.9,1.9-1.9v-0.8C545.3,151.4,544.1,152.6,544.1,154.1z"/>
			<g>
				<path class="st13" d="M546.8,146.6c-4.1,0-7.4,3.3-7.4,7.4c0,1.1,0.2,2.1,0.6,3c1.8,4,5.4,8.3,6.4,9.5c0.1,0.1,0.2,0.1,0.3,0.1
					c0.1,0,0.2-0.1,0.3-0.1c0.7-0.9,2.7-3.3,4.5-6l-2.4-2.4c-0.7,0.4-1.5,0.6-2.4,0.6c-2.6,0-4.6-2.1-4.6-4.6c0-2.6,2.1-4.6,4.6-4.6
					c2.6,0,4.6,2.1,4.6,4.6c0,0.9-0.2,1.7-0.6,2.4l2,2c0.3-0.5,0.5-1,0.7-1.5c0.4-0.9,0.6-2,0.6-3
					C554.2,149.9,550.9,146.6,546.8,146.6z"/>
			</g>
		</g>
		<linearGradient id="SVGID_7_" gradientUnits="userSpaceOnUse" x1="453.9785" y1="207.5589" x2="460.8064" y2="207.5589">
			<stop  offset="1.376186e-03" style="stop-color:#F8C547"/>
			<stop  offset="1" style="stop-color:#F71D69"/>
		</linearGradient>
		<path class="st23" d="M460.8,207.6c0,1.9-1.5,3.4-3.4,3.4c-1.9,0-3.4-1.5-3.4-3.4c0-1.9,1.5-3.4,3.4-3.4
			C459.3,204.1,460.8,205.7,460.8,207.6z"/>
		<linearGradient id="SVGID_8_" gradientUnits="userSpaceOnUse" x1="474.6629" y1="181.4413" x2="481.4908" y2="181.4413">
			<stop  offset="1.376186e-03" style="stop-color:#F8C547"/>
			<stop  offset="1" style="stop-color:#F71D69"/>
		</linearGradient>
		<path class="st24" d="M481.5,181.4c0,1.9-1.5,3.4-3.4,3.4c-1.9,0-3.4-1.5-3.4-3.4c0-1.9,1.5-3.4,3.4-3.4
			C480,178,481.5,179.6,481.5,181.4z"/>
		<linearGradient id="SVGID_9_" gradientUnits="userSpaceOnUse" x1="517.3481" y1="179.3728" x2="524.176" y2="179.3728">
			<stop  offset="1.376186e-03" style="stop-color:#F8C547"/>
			<stop  offset="1" style="stop-color:#F71D69"/>
		</linearGradient>
		<path class="st25" d="M524.2,179.4c0,1.9-1.5,3.4-3.4,3.4c-1.9,0-3.4-1.5-3.4-3.4s1.5-3.4,3.4-3.4
			C522.6,176,524.2,177.5,524.2,179.4z"/>
	</g>
</g>
<g id="auto">
	<g id="Слой_3">
		<g id="Слой_4">
		</g>
	</g>
</g>
<g id="nastroiki">
</g>
<g id="otzivi">
</g>
<g id="history">
	<g id="Слой_18">
	</g>
</g>
<g id="driver_x5F_history">
	<g id="Слой_21">
	</g>
	<g id="Слой_18__x28_копия_x29_">
	</g>
</g>
<g id="user_x5F_poezdki">
</g>
</svg>
