<svg xmlns="http://www.w3.org/2000/svg" xmlns:xlink="http://www.w3.org/1999/xlink" viewBox="0 0 779.8 310"><defs><style>.cls-1{isolation:isolate;}.cls-2{fill:#e1e6fb;}.cls-3{fill:url(#Безымянный_градиент_73);}.cls-4{fill:url(#Безымянный_градиент_73-2);}.cls-5{fill:url(#Безымянный_градиент_73-3);}.cls-6{fill:url(#Безымянный_градиент_73-4);}.cls-7{fill:url(#Безымянный_градиент_73-5);}.cls-8{fill:url(#Безымянный_градиент_73-6);}.cls-9{fill:url(#Безымянный_градиент_73-7);}.cls-10{fill:#f77a4b;}.cls-11{fill:url(#linear-gradient);}.cls-12{fill:url(#linear-gradient-2);}.cls-13{fill:url(#linear-gradient-3);}.cls-14{fill:url(#linear-gradient-4);}.cls-15{fill:url(#linear-gradient-6);}.cls-16{fill:url(#linear-gradient-7);}.cls-17{fill:url(#linear-gradient-8);}.cls-18{fill:url(#linear-gradient-9);}.cls-19{fill:url(#linear-gradient-10);}.cls-20{fill:url(#linear-gradient-11);}.cls-21{fill:url(#linear-gradient-12);}.cls-22{fill:url(#linear-gradient-13);}.cls-23{fill:url(#linear-gradient-14);}.cls-24{fill:url(#linear-gradient-15);}.cls-25{fill:url(#linear-gradient-16);}.cls-26{fill:url(#linear-gradient-17);}.cls-27{fill:url(#linear-gradient-18);}.cls-28{fill:url(#linear-gradient-19);}.cls-29{fill:url(#linear-gradient-20);}.cls-30{fill:url(#linear-gradient-21);}.cls-31{fill:url(#linear-gradient-24);}.cls-32{fill:url(#linear-gradient-25);}.cls-33{fill:url(#linear-gradient-26);}.cls-34{fill:url(#linear-gradient-27);}.cls-35{fill:url(#linear-gradient-28);}.cls-36{fill:url(#linear-gradient-30);}.cls-37{fill:url(#linear-gradient-31);}.cls-38{fill:url(#linear-gradient-33);}.cls-39{fill:url(#linear-gradient-34);}.cls-40{fill:url(#linear-gradient-35);}.cls-41{fill:url(#linear-gradient-36);}.cls-42{fill:url(#linear-gradient-37);}.cls-43{fill:url(#linear-gradient-38);}.cls-44{fill:url(#linear-gradient-39);}.cls-45{fill:url(#linear-gradient-40);}.cls-46{fill:url(#linear-gradient-42);}.cls-47{fill:url(#linear-gradient-43);}.cls-48{fill:url(#linear-gradient-44);}.cls-49{fill:url(#linear-gradient-45);}.cls-50{fill:url(#linear-gradient-46);}.cls-51{fill:url(#linear-gradient-47);}.cls-52{fill:url(#linear-gradient-50);}.cls-53{fill:url(#linear-gradient-52);}.cls-54{fill:url(#linear-gradient-53);}.cls-55{fill:url(#linear-gradient-55);}.cls-56{fill:url(#linear-gradient-56);}.cls-57{fill:url(#linear-gradient-57);}.cls-58{fill:url(#linear-gradient-58);}.cls-59{fill:url(#linear-gradient-59);}.cls-60{fill:url(#linear-gradient-60);}.cls-61{fill:url(#linear-gradient-61);}.cls-62{fill:url(#linear-gradient-62);}.cls-63{fill:url(#linear-gradient-63);}.cls-64{fill:url(#linear-gradient-64);}.cls-65{fill:#0d1a38;}.cls-66{fill:#b5a6fe;}.cls-66,.cls-74{mix-blend-mode:multiply;}.cls-67{fill:url(#linear-gradient-65);}.cls-68{fill:#304269;}.cls-69{fill:#fc6da2;}.cls-70{fill:#3c5582;}.cls-71{fill:#f2edff;}.cls-72,.cls-74{fill:#b5d8ff;}.cls-73{fill:#9ab8d9;}.cls-75{fill:#ded1fd;}.cls-76{fill:url(#linear-gradient-66);}.cls-102,.cls-77{fill:#fff;}.cls-78{fill:#efbfa5;}.cls-79{fill:url(#Безымянный_градиент_73-8);}.cls-80{fill:url(#Безымянный_градиент_73-9);}.cls-81{fill:#2c90bf;}.cls-82{fill:#39517c;}.cls-83{fill:#bac5f4;}.cls-84{fill:#1c4f69;}.cls-85{fill:#3b455a;}.cls-86{fill:#e5e5e5;}.cls-87{fill:#3f3faa;}.cls-88{fill:#4b45bd;}.cls-89{fill:#a9cee6;}.cls-90{fill:#702b0a;}.cls-91{fill:#f4cdaf;}.cls-92{fill:#d1d1d1;}.cls-93{fill:#3c4043;}.cls-94{fill:#282828;}.cls-95{fill:#422d11;}.cls-96{fill:#f45a2a;}.cls-97{fill:#ffbfa4;}.cls-98{fill:#f60;}.cls-99{fill:#9eb1f2;}.cls-100{fill:#242449;}.cls-101{fill:#f5ceb0;}.cls-102{opacity:0.5;}.cls-103{opacity:0.8;}</style><linearGradient id="Безымянный_градиент_73" x1="122.91" y1="185.24" x2="122.91" y2="-44.37" gradientUnits="userSpaceOnUse"><stop offset="0.07" stop-color="#fff"/><stop offset="0.73" stop-color="#e2e2e2"/><stop offset="1" stop-color="#cfcfcf"/></linearGradient><linearGradient id="Безымянный_градиент_73-2" x1="20.98" y1="286.99" x2="20.98" y2="148.97" xlink:href="#Безымянный_градиент_73"/><linearGradient id="Безымянный_градиент_73-3" x1="219.81" y1="328.86" x2="219.81" y2="216.91" xlink:href="#Безымянный_градиент_73"/><linearGradient id="Безымянный_градиент_73-4" x1="706.03" y1="115.26" x2="706.03" y2="24.72" xlink:href="#Безымянный_градиент_73"/><linearGradient id="Безымянный_градиент_73-5" x1="630.24" y1="80.87" x2="630.24" y2="-0.51" xlink:href="#Безымянный_градиент_73"/><linearGradient id="Безымянный_градиент_73-6" x1="259.71" y1="132.2" x2="259.71" y2="-13.8" xlink:href="#Безымянный_градиент_73"/><linearGradient id="Безымянный_градиент_73-7" x1="333.73" y1="81.87" x2="333.73" y2="21.34" xlink:href="#Безымянный_градиент_73"/><linearGradient id="linear-gradient" x1="577.39" y1="278.21" x2="546.43" y2="138.08" gradientUnits="userSpaceOnUse"><stop offset="0" stop-color="#eaedfc"/><stop offset="0.84" stop-color="#cae0fc"/></linearGradient><linearGradient id="linear-gradient-2" x1="617.41" y1="278.21" x2="586.46" y2="138.08" gradientUnits="userSpaceOnUse"><stop offset="0" stop-color="#eaedfc"/><stop offset="0.84" stop-color="#aed1fc"/></linearGradient><linearGradient id="linear-gradient-3" x1="529.74" y1="178.7" x2="529.74" y2="193.74" xlink:href="#linear-gradient"/><linearGradient id="linear-gradient-4" x1="541.04" y1="178.7" x2="541.04" y2="193.74" xlink:href="#linear-gradient"/><linearGradient id="linear-gradient-6" x1="529.74" y1="178.7" x2="529.74" y2="193.74" xlink:href="#linear-gradient"/><linearGradient id="linear-gradient-7" x1="529.74" y1="178.7" x2="529.74" y2="193.74" xlink:href="#linear-gradient"/><linearGradient id="linear-gradient-8" x1="541.04" y1="178.7" x2="541.04" y2="193.74" xlink:href="#linear-gradient"/><linearGradient id="linear-gradient-9" x1="585.06" y1="217.47" x2="585.06" y2="232.5" xlink:href="#linear-gradient"/><linearGradient id="linear-gradient-10" x1="585.06" y1="178.7" x2="585.06" y2="193.74" xlink:href="#linear-gradient"/><linearGradient id="linear-gradient-11" x1="613.26" y1="178.7" x2="613.26" y2="193.74" xlink:href="#linear-gradient"/><linearGradient id="linear-gradient-12" x1="585.06" y1="178.7" x2="585.06" y2="193.74" xlink:href="#linear-gradient"/><linearGradient id="linear-gradient-13" x1="599.16" y1="178.7" x2="599.16" y2="193.74" xlink:href="#linear-gradient"/><linearGradient id="linear-gradient-14" x1="599.16" y1="157.55" x2="599.16" y2="172.59" xlink:href="#linear-gradient"/><linearGradient id="linear-gradient-15" x1="613.26" y1="178.7" x2="613.26" y2="193.74" xlink:href="#linear-gradient"/><linearGradient id="linear-gradient-16" x1="599.16" y1="178.7" x2="599.16" y2="193.74" xlink:href="#linear-gradient"/><linearGradient id="linear-gradient-17" x1="613.26" y1="178.7" x2="613.26" y2="193.74" xlink:href="#linear-gradient"/><linearGradient id="linear-gradient-18" x1="447.96" y1="254.48" x2="417" y2="114.35" xlink:href="#linear-gradient"/><linearGradient id="linear-gradient-19" x1="487.98" y1="254.48" x2="457.02" y2="114.35" xlink:href="#linear-gradient-2"/><linearGradient id="linear-gradient-20" x1="402.87" y1="154.41" x2="402.87" y2="169.45" xlink:href="#linear-gradient"/><linearGradient id="linear-gradient-21" x1="414.17" y1="154.41" x2="414.17" y2="169.45" xlink:href="#linear-gradient"/><linearGradient id="linear-gradient-24" x1="402.87" y1="154.41" x2="402.87" y2="169.45" xlink:href="#linear-gradient"/><linearGradient id="linear-gradient-25" x1="414.17" y1="154.41" x2="414.17" y2="169.45" xlink:href="#linear-gradient"/><linearGradient id="linear-gradient-26" x1="458.18" y1="193.17" x2="458.18" y2="208.21" xlink:href="#linear-gradient"/><linearGradient id="linear-gradient-27" x1="458.18" y1="154.41" x2="458.18" y2="169.45" xlink:href="#linear-gradient"/><linearGradient id="linear-gradient-28" x1="486.39" y1="154.41" x2="486.39" y2="169.45" xlink:href="#linear-gradient"/><linearGradient id="linear-gradient-30" x1="472.28" y1="154.41" x2="472.28" y2="169.45" xlink:href="#linear-gradient"/><linearGradient id="linear-gradient-31" x1="472.28" y1="133.25" x2="472.28" y2="148.29" xlink:href="#linear-gradient"/><linearGradient id="linear-gradient-33" x1="472.28" y1="154.41" x2="472.28" y2="169.45" xlink:href="#linear-gradient"/><linearGradient id="linear-gradient-34" x1="486.39" y1="154.41" x2="486.39" y2="169.45" xlink:href="#linear-gradient"/><linearGradient id="linear-gradient-35" x1="516.55" y1="246.24" x2="482.88" y2="93.84" xlink:href="#linear-gradient"/><linearGradient id="linear-gradient-36" x1="527.96" y1="190.23" x2="503.38" y2="78.97" xlink:href="#linear-gradient"/><linearGradient id="linear-gradient-37" x1="536.25" y1="246.24" x2="502.58" y2="93.84" xlink:href="#linear-gradient-2"/><linearGradient id="linear-gradient-38" x1="547.66" y1="190.23" x2="523.07" y2="78.97" xlink:href="#linear-gradient-2"/><linearGradient id="linear-gradient-39" x1="476" y1="114.71" x2="476" y2="126.77" xlink:href="#linear-gradient"/><linearGradient id="linear-gradient-40" x1="485.07" y1="114.71" x2="485.07" y2="126.77" xlink:href="#linear-gradient"/><linearGradient id="linear-gradient-42" x1="507.63" y1="114.71" x2="507.63" y2="126.77" xlink:href="#linear-gradient"/><linearGradient id="linear-gradient-43" x1="530.26" y1="114.71" x2="530.26" y2="126.77" xlink:href="#linear-gradient"/><linearGradient id="linear-gradient-44" x1="476" y1="114.7" x2="476" y2="126.77" xlink:href="#linear-gradient"/><linearGradient id="linear-gradient-45" x1="507.63" y1="114.7" x2="507.63" y2="126.77" xlink:href="#linear-gradient"/><linearGradient id="linear-gradient-46" x1="518.95" y1="114.7" x2="518.95" y2="126.77" xlink:href="#linear-gradient"/><linearGradient id="linear-gradient-47" x1="530.26" y1="114.7" x2="530.26" y2="126.77" xlink:href="#linear-gradient"/><linearGradient id="linear-gradient-50" x1="518.95" y1="114.71" x2="518.95" y2="126.77" xlink:href="#linear-gradient"/><linearGradient id="linear-gradient-52" x1="476" y1="1415.11" x2="476" y2="1427.18" gradientTransform="matrix(1, 0, 0, -1, 0, 1516.42)" xlink:href="#linear-gradient"/><linearGradient id="linear-gradient-53" x1="485.07" y1="1415.11" x2="485.07" y2="1427.18" gradientTransform="matrix(1, 0, 0, -1, 0, 1516.42)" xlink:href="#linear-gradient"/><linearGradient id="linear-gradient-55" x1="507.63" y1="1415.11" x2="507.63" y2="1427.18" gradientTransform="matrix(1, 0, 0, -1, 0, 1516.42)" xlink:href="#linear-gradient"/><linearGradient id="linear-gradient-56" x1="530.26" y1="1415.11" x2="530.26" y2="1427.18" gradientTransform="matrix(1, 0, 0, -1, 0, 1516.42)" xlink:href="#linear-gradient"/><linearGradient id="linear-gradient-57" x1="476" y1="1415.11" x2="476" y2="1427.18" gradientTransform="matrix(1, 0, 0, -1, 0, 1516.42)" xlink:href="#linear-gradient"/><linearGradient id="linear-gradient-58" x1="507.63" y1="1415.11" x2="507.63" y2="1427.18" gradientTransform="matrix(1, 0, 0, -1, 0, 1516.42)" xlink:href="#linear-gradient"/><linearGradient id="linear-gradient-59" x1="518.95" y1="1415.11" x2="518.95" y2="1427.18" gradientTransform="matrix(1, 0, 0, -1, 0, 1516.42)" xlink:href="#linear-gradient"/><linearGradient id="linear-gradient-60" x1="530.26" y1="1415.11" x2="530.26" y2="1427.18" gradientTransform="matrix(1, 0, 0, -1, 0, 1516.42)" xlink:href="#linear-gradient"/><linearGradient id="linear-gradient-61" x1="476" y1="1415.11" x2="476" y2="1427.18" gradientTransform="matrix(1, 0, 0, -1, 0, 1516.42)" xlink:href="#linear-gradient"/><linearGradient id="linear-gradient-62" x1="485.07" y1="1415.11" x2="485.07" y2="1427.18" gradientTransform="matrix(1, 0, 0, -1, 0, 1516.42)" xlink:href="#linear-gradient"/><linearGradient id="linear-gradient-63" x1="518.95" y1="1415.11" x2="518.95" y2="1427.18" gradientTransform="matrix(1, 0, 0, -1, 0, 1516.42)" xlink:href="#linear-gradient"/><linearGradient id="linear-gradient-64" x1="530.26" y1="1415.11" x2="530.26" y2="1427.18" gradientTransform="matrix(1, 0, 0, -1, 0, 1516.42)" xlink:href="#linear-gradient"/><linearGradient id="linear-gradient-65" x1="471.29" y1="256.73" x2="495.72" y2="256.73" gradientUnits="userSpaceOnUse"><stop offset="0.02" stop-color="#fff"/><stop offset="1" stop-color="#dcd6e8"/></linearGradient><linearGradient id="linear-gradient-66" x1="629.77" y1="256.73" x2="654.2" y2="256.73" xlink:href="#linear-gradient-65"/><linearGradient id="Безымянный_градиент_73-8" x1="419.4" y1="114.37" x2="419.4" y2="43.37" xlink:href="#Безымянный_градиент_73"/><linearGradient id="Безымянный_градиент_73-9" x1="582.84" y1="133.87" x2="582.84" y2="73.77" xlink:href="#Безымянный_градиент_73"/></defs><title>illustrations_partners</title><g class="cls-1"><g id="Слой_29" data-name="Слой 29"><polygon class="cls-2" points="701.7 113.71 706.03 112.1 701.84 110.51 700.22 104.17 698.63 110.37 694.29 111.98 698.49 113.58 700.11 119.91 701.7 113.71"/><polygon class="cls-2" points="622.17 33.07 626.51 31.45 622.31 29.86 620.7 23.53 619.11 29.72 614.77 31.34 618.97 32.93 620.58 39.26 622.17 33.07"/><polygon class="cls-2" points="364.4 45.97 368.73 44.36 364.53 42.77 362.92 36.43 361.33 42.63 356.99 44.24 361.19 45.84 362.81 52.17 364.4 45.97"/><polygon class="cls-2" points="282.31 143.62 286.65 142.01 282.45 140.42 280.84 134.09 279.24 140.28 274.91 141.9 279.11 143.49 280.72 149.82 282.31 143.62"/><path class="cls-3" d="M131.08,19.43a35.82,35.82,0,0,1,10.4,3.45,30.43,30.43,0,0,1,7.5,5.38,22.69,22.69,0,0,1,4.6,6.35,18.15,18.15,0,0,1,1.81,6.23,2.69,2.69,0,0,1-.9,2.36,3.49,3.49,0,0,1-2.36.91h-8.47a5,5,0,0,1-3.08-.79,7.85,7.85,0,0,1-1.88-2.12,15.85,15.85,0,0,0-5.5-5.26q-3.69-2.23-10.95-2.24a25.81,25.81,0,0,0-6,.67,17.22,17.22,0,0,0-5,1.93A10.35,10.35,0,0,0,108,39.39a7.22,7.22,0,0,0-1.21,4.11A7.35,7.35,0,0,0,108.09,48a10.42,10.42,0,0,0,4.3,3A45.61,45.61,0,0,0,120,53.42q4.65,1.09,11.31,2.54a70.57,70.57,0,0,1,12.28,3.69,28.16,28.16,0,0,1,8.23,5.08,17.14,17.14,0,0,1,4.59,6.84,25.93,25.93,0,0,1,1.4,8.83A21.64,21.64,0,0,1,156,89.23a22.8,22.8,0,0,1-5.26,7.38,29,29,0,0,1-8.41,5.44,41.72,41.72,0,0,1-11.25,3v8.22a3.31,3.31,0,0,1-3.27,3.27H118a3.3,3.3,0,0,1-3.26-3.27v-8.22a44.13,44.13,0,0,1-10.22-2.84,34,34,0,0,1-8.35-4.9,24,24,0,0,1-5.75-6.72A18.67,18.67,0,0,1,88,82.21a2.65,2.65,0,0,1,.91-2.35A3.43,3.43,0,0,1,91.28,79h8.47a5.68,5.68,0,0,1,3.14.72,5.54,5.54,0,0,1,1.82,2.18A22.49,22.49,0,0,0,106.76,85,11.33,11.33,0,0,0,110,87.78a19.84,19.84,0,0,0,5.14,2,31.42,31.42,0,0,0,7.68.79,44.57,44.57,0,0,0,7-.54,20.65,20.65,0,0,0,5.93-1.82,12.74,12.74,0,0,0,4.11-3.14,7,7,0,0,0,1.57-4.66A5.92,5.92,0,0,0,139.79,76a13.74,13.74,0,0,0-5.14-2.9,73.54,73.54,0,0,0-8.53-2.3q-5.09-1.08-11.73-2.78a62.73,62.73,0,0,1-10.59-3.45,24.81,24.81,0,0,1-7.5-4.9,18.27,18.27,0,0,1-4.42-6.83,27.31,27.31,0,0,1-1.45-9.38,20.93,20.93,0,0,1,1.81-8.71,24.45,24.45,0,0,1,5-7.2A27.09,27.09,0,0,1,105,22.27a39.42,39.42,0,0,1,9.8-3.09V11A3.3,3.3,0,0,1,118,7.69h9.8A3.31,3.31,0,0,1,131.08,11Z"/><path class="cls-4" d="M25.9,187.32a21.46,21.46,0,0,1,6.25,2.07,18.5,18.5,0,0,1,4.51,3.24,13.74,13.74,0,0,1,2.76,3.81,10.9,10.9,0,0,1,1.09,3.75,1.62,1.62,0,0,1-.54,1.42,2.1,2.1,0,0,1-1.42.54H33.46a3,3,0,0,1-1.86-.47,5,5,0,0,1-1.12-1.27,9.54,9.54,0,0,0-3.31-3.17,13,13,0,0,0-6.58-1.34,15.58,15.58,0,0,0-3.6.4,10,10,0,0,0-3,1.16,6.09,6.09,0,0,0-2,1.86,4.3,4.3,0,0,0-.73,2.47,4.44,4.44,0,0,0,.8,2.73,6.23,6.23,0,0,0,2.58,1.81,27.68,27.68,0,0,0,4.58,1.42q2.81.66,6.8,1.53a42,42,0,0,1,7.38,2.22,17,17,0,0,1,4.95,3.05,10.38,10.38,0,0,1,2.76,4.11A15.57,15.57,0,0,1,42,224a13.14,13.14,0,0,1-1.09,5.31,13.6,13.6,0,0,1-3.17,4.43A17.33,17.33,0,0,1,32.66,237a24.87,24.87,0,0,1-6.76,1.82v4.95a1.89,1.89,0,0,1-.59,1.38,1.85,1.85,0,0,1-1.38.58H18a2,2,0,0,1-2-2V238.8a26.57,26.57,0,0,1-6.15-1.71,20.41,20.41,0,0,1-5-2.94,14.45,14.45,0,0,1-3.46-4A11.14,11.14,0,0,1,0,225.06a1.61,1.61,0,0,1,.54-1.42A2.12,2.12,0,0,1,2,223.1H7.06a3.39,3.39,0,0,1,1.89.43A3.27,3.27,0,0,1,10,224.84a13.59,13.59,0,0,0,1.24,1.89,6.65,6.65,0,0,0,2,1.67,11.72,11.72,0,0,0,3.09,1.2,18.83,18.83,0,0,0,4.62.48,26.33,26.33,0,0,0,4.22-.33,12.3,12.3,0,0,0,3.56-1.09,7.65,7.65,0,0,0,2.48-1.89,4.27,4.27,0,0,0,.94-2.8,3.54,3.54,0,0,0-1-2.62A8.24,8.24,0,0,0,28,219.6a44.47,44.47,0,0,0-5.13-1.38q-3-.65-7-1.67a37.72,37.72,0,0,1-6.36-2.07A14.88,14.88,0,0,1,5,211.53a10.91,10.91,0,0,1-2.65-4.11,16,16,0,0,1-.88-5.63,12.64,12.64,0,0,1,1.09-5.24,14.72,14.72,0,0,1,3-4.32,16.06,16.06,0,0,1,4.62-3.2,23.6,23.6,0,0,1,5.89-1.86v-4.94a1.89,1.89,0,0,1,.58-1.39,1.92,1.92,0,0,1,1.38-.58h5.89a2,2,0,0,1,2,2Z"/><path class="cls-5" d="M223.8,248a18.09,18.09,0,0,1,5.07,1.68,15.28,15.28,0,0,1,3.66,2.63,11,11,0,0,1,2.24,3.1,8.69,8.69,0,0,1,.88,3,1.27,1.27,0,0,1-.44,1.15,1.67,1.67,0,0,1-1.15.45h-4.13a2.4,2.4,0,0,1-1.5-.39,3.69,3.69,0,0,1-.91-1,7.75,7.75,0,0,0-2.69-2.57,10.55,10.55,0,0,0-5.34-1.09,12.62,12.62,0,0,0-2.92.33,8.37,8.37,0,0,0-2.42.94,5.12,5.12,0,0,0-1.62,1.51,3.88,3.88,0,0,0,.06,4.21,5.1,5.1,0,0,0,2.1,1.48,23.69,23.69,0,0,0,3.71,1.15c1.52.35,3.35.77,5.52,1.24a33.83,33.83,0,0,1,6,1.8,13.43,13.43,0,0,1,4,2.47,8.42,8.42,0,0,1,2.25,3.34,12.69,12.69,0,0,1,.67,4.3,10.58,10.58,0,0,1-.88,4.31,11.16,11.16,0,0,1-2.57,3.59,14,14,0,0,1-4.1,2.66,20.07,20.07,0,0,1-5.48,1.47v4a1.6,1.6,0,0,1-1.59,1.6h-4.78a1.54,1.54,0,0,1-1.12-.47,1.53,1.53,0,0,1-.47-1.13v-4a21.24,21.24,0,0,1-5-1.38,16.66,16.66,0,0,1-4.07-2.39,11.74,11.74,0,0,1-2.8-3.27,9.12,9.12,0,0,1-1.18-4.1,1.3,1.3,0,0,1,.44-1.15,1.69,1.69,0,0,1,1.15-.45h4.13a2.76,2.76,0,0,1,1.54.36,2.69,2.69,0,0,1,.88,1.06,12.1,12.1,0,0,0,1,1.53,5.56,5.56,0,0,0,1.6,1.36,9.45,9.45,0,0,0,2.5,1,15.25,15.25,0,0,0,3.75.39,21.15,21.15,0,0,0,3.42-.27,10.22,10.22,0,0,0,2.89-.88,6.35,6.35,0,0,0,2-1.54,3.4,3.4,0,0,0,.76-2.27,2.87,2.87,0,0,0-.82-2.12,6.82,6.82,0,0,0-2.51-1.42,36.85,36.85,0,0,0-4.16-1.12q-2.48-.52-5.72-1.36A30.08,30.08,0,0,1,210.5,270a12,12,0,0,1-3.66-2.39,8.9,8.9,0,0,1-2.15-3.33,13.21,13.21,0,0,1-.71-4.57,10.17,10.17,0,0,1,.88-4.25,12.16,12.16,0,0,1,2.45-3.51,13.24,13.24,0,0,1,3.75-2.59,18.69,18.69,0,0,1,4.78-1.5v-4a1.52,1.52,0,0,1,.47-1.12,1.54,1.54,0,0,1,1.12-.47h4.78a1.6,1.6,0,0,1,1.59,1.59Z"/><path class="cls-6" d="M709.26,49.87a14.53,14.53,0,0,1,4.1,1.36,12.29,12.29,0,0,1,3,2.13,9.21,9.21,0,0,1,1.81,2.5,7.18,7.18,0,0,1,.71,2.46,1,1,0,0,1-.35.93,1.36,1.36,0,0,1-.93.36h-3.34A2,2,0,0,1,713,59.3a3.23,3.23,0,0,1-.74-.84,6.3,6.3,0,0,0-2.17-2.08,8.56,8.56,0,0,0-4.32-.88,10.6,10.6,0,0,0-2.36.26,6.8,6.8,0,0,0-2,.77,4.14,4.14,0,0,0-1.31,1.21,3.2,3.2,0,0,0,.05,3.42,4.14,4.14,0,0,0,1.69,1.19,19.53,19.53,0,0,0,3,.93c1.22.29,2.71.62,4.46,1a27,27,0,0,1,4.84,1.46,11,11,0,0,1,3.25,2,6.86,6.86,0,0,1,1.81,2.69,10.19,10.19,0,0,1,.55,3.49,8.47,8.47,0,0,1-.72,3.48A9,9,0,0,1,717,80.31a11.6,11.6,0,0,1-3.32,2.15,16.41,16.41,0,0,1-4.43,1.19v3.24A1.32,1.32,0,0,1,708,88.18H704.1a1.32,1.32,0,0,1-1.29-1.29V83.65a17.49,17.49,0,0,1-4-1.12,13.71,13.71,0,0,1-3.29-1.93A9.47,9.47,0,0,1,693.23,78a7.24,7.24,0,0,1-1-3.32,1.07,1.07,0,0,1,.36-.93,1.36,1.36,0,0,1,.93-.36h3.34a2.25,2.25,0,0,1,1.24.29,2.12,2.12,0,0,1,.71.86,9.82,9.82,0,0,0,.82,1.24,4.38,4.38,0,0,0,1.28,1.1,7.55,7.55,0,0,0,2,.78,12.33,12.33,0,0,0,3,.31,17.87,17.87,0,0,0,2.77-.21,7.84,7.84,0,0,0,2.34-.72,5,5,0,0,0,1.62-1.24,2.76,2.76,0,0,0,.62-1.83,2.36,2.36,0,0,0-.67-1.72,5.48,5.48,0,0,0-2-1.15,28.56,28.56,0,0,0-3.36-.9c-1.34-.29-2.88-.65-4.63-1.1a24,24,0,0,1-4.17-1.36,9.73,9.73,0,0,1-3-1.93,7.14,7.14,0,0,1-1.74-2.7,10.68,10.68,0,0,1-.57-3.69,8.18,8.18,0,0,1,.71-3.44,9.83,9.83,0,0,1,2-2.84,10.76,10.76,0,0,1,3-2.1,15.55,15.55,0,0,1,3.86-1.21V46.53a1.33,1.33,0,0,1,1.29-1.29H708a1.33,1.33,0,0,1,1.29,1.29Z"/><path class="cls-7" d="M682,54H578l0-.52a17.4,17.4,0,0,1,31.25-9.26,15.14,15.14,0,0,1,18.93-3.34,16.11,16.11,0,0,1,32-.26,14.8,14.8,0,0,1,22.27,12.79V54ZM579.05,53H681.5a13.84,13.84,0,0,0-21.43-11.18l-.69.46-.06-.83a15.13,15.13,0,0,0-30.19.25l0,.82-.7-.44a14.14,14.14,0,0,0-18.72,3.21l-.41.52-.38-.54A16.44,16.44,0,0,0,579.05,53Z"/><path class="cls-8" d="M311.82,67.64H207.6l.13-.59a14.81,14.81,0,0,1,23.17-8.71,16.32,16.32,0,0,1-.09-1.71,15.78,15.78,0,0,1,31.56-.55A15.11,15.11,0,0,1,280,59.24a17.41,17.41,0,0,1,31.73,7.86Zm-103-1H310.72a16.44,16.44,0,0,0-30.21-6.37l-.35.56-.43-.5a14.17,14.17,0,0,0-17.6-3l-.74.42v-1s0-.08,0-.13a14.82,14.82,0,0,0-29.63,0A15.11,15.11,0,0,0,232,59.4l.27,1.38-1.07-.92a13.78,13.78,0,0,0-9.06-3.39A13.94,13.94,0,0,0,208.83,66.66Z"/><path class="cls-9" d="M385.48,74.89h-104l0-.52a17.41,17.41,0,0,1,31.26-9.26,15.15,15.15,0,0,1,18.92-3.35,16.11,16.11,0,0,1,32-.25A14.8,14.8,0,0,1,386,74.3v.56Z"/><path class="cls-10" d="M574.51,36.66v-7a.54.54,0,0,1,1.07,0v7a.54.54,0,1,1-1.07,0Z"/><path class="cls-10" d="M571.55,32.63h7a.54.54,0,0,1,0,1.07h-7a.54.54,0,1,1,0-1.07Z"/><path class="cls-10" d="M461.13,38.8a3.66,3.66,0,1,1,3.66-3.66A3.66,3.66,0,0,1,461.13,38.8Zm0-5.68a2,2,0,1,0,2,2A2,2,0,0,0,461.13,33.12Z"/><g id="build"><path class="cls-11" d="M593.68,272.07V108.46a1.43,1.43,0,0,0-1.43-1.43H523.64a1.43,1.43,0,0,0-1.43,1.43V272.07Z"/><path class="cls-12" d="M633.7,272.07V108.46a1.43,1.43,0,0,0-1.43-1.43H563.66a1.43,1.43,0,0,0-1.43,1.43V272.07Z"/><rect class="cls-13" x="526.28" y="111.99" width="6.93" height="11.67"/><rect class="cls-14" x="537.58" y="111.99" width="6.93" height="11.67"/><rect class="cls-14" x="537.58" y="111.99" width="6.93" height="11.67"/><rect class="cls-15" x="526.28" y="133.29" width="6.93" height="11.67"/><rect class="cls-16" x="526.28" y="154.58" width="6.93" height="11.67"/><rect class="cls-17" x="537.58" y="154.58" width="6.93" height="11.67"/><rect class="cls-18" x="581.59" y="172.05" width="6.93" height="11.67"/><rect class="cls-19" x="581.59" y="111.99" width="6.93" height="11.67"/><rect class="cls-20" x="609.8" y="111.99" width="6.93" height="11.67"/><rect class="cls-21" x="581.59" y="133.29" width="6.93" height="11.67"/><rect class="cls-22" x="595.69" y="133.29" width="6.93" height="11.67"/><rect class="cls-23" x="595.69" y="112.13" width="6.93" height="11.67"/><rect class="cls-24" x="609.8" y="133.29" width="6.93" height="11.67"/><rect class="cls-25" x="595.69" y="154.58" width="6.93" height="11.67"/><rect class="cls-26" x="609.8" y="154.58" width="6.93" height="11.67"/><path class="cls-27" d="M466.8,272.07V84.16a1.43,1.43,0,0,0-1.42-1.43H396.77a1.43,1.43,0,0,0-1.43,1.43V272.07Z"/><path class="cls-28" d="M506.82,272.07V84.16a1.43,1.43,0,0,0-1.42-1.43H436.79a1.43,1.43,0,0,0-1.43,1.43V272.07Z"/><rect class="cls-29" x="399.4" y="87.7" width="6.93" height="11.67"/><rect class="cls-30" x="410.7" y="87.7" width="6.93" height="11.67"/><rect class="cls-30" x="410.7" y="87.7" width="6.93" height="11.67"/><rect class="cls-29" x="399.4" y="108.99" width="6.93" height="11.67"/><rect class="cls-31" x="399.4" y="130.28" width="6.93" height="11.67"/><rect class="cls-32" x="410.7" y="130.28" width="6.93" height="11.67"/><rect class="cls-33" x="454.72" y="147.75" width="6.93" height="11.67"/><rect class="cls-34" x="454.72" y="87.7" width="6.93" height="11.67"/><rect class="cls-35" x="482.92" y="87.7" width="6.93" height="11.67"/><rect class="cls-34" x="454.72" y="108.99" width="6.93" height="11.67"/><rect class="cls-36" x="468.82" y="108.99" width="6.93" height="11.67"/><rect class="cls-37" x="468.82" y="87.84" width="6.93" height="11.67"/><rect class="cls-35" x="482.92" y="108.99" width="6.93" height="11.67"/><rect class="cls-38" x="468.82" y="130.28" width="6.93" height="11.67"/><rect class="cls-39" x="482.92" y="130.28" width="6.93" height="11.67"/><path class="cls-40" d="M527.31,272.07V58.33a1.14,1.14,0,0,0-1.15-1.14h-55A1.14,1.14,0,0,0,470,58.33V272.07Z"/><path class="cls-41" d="M481,41.45h35.21a3.21,3.21,0,0,1,3.21,3.21v26a0,0,0,0,1,0,0H477.82a0,0,0,0,1,0,0v-26A3.21,3.21,0,0,1,481,41.45Z"/><path class="cls-42" d="M547,272.07V58.33a1.14,1.14,0,0,0-1.14-1.14H490.8a1.15,1.15,0,0,0-1.15,1.14V272.07Z"/><path class="cls-43" d="M500.72,41.45h35.21a3.21,3.21,0,0,1,3.21,3.21v26a0,0,0,0,1,0,0H497.51a0,0,0,0,1,0,0v-26A3.21,3.21,0,0,1,500.72,41.45Z"/><rect class="cls-44" x="473.22" y="61.17" width="5.56" height="9.36"/><rect class="cls-45" x="482.29" y="61.17" width="5.56" height="9.36"/><rect class="cls-45" x="482.29" y="61.17" width="5.56" height="9.36"/><rect class="cls-46" x="504.85" y="61.17" width="5.56" height="9.36"/><rect class="cls-47" x="527.48" y="61.17" width="5.56" height="9.36"/><rect class="cls-48" x="473.22" y="78.26" width="5.56" height="9.36"/><rect class="cls-49" x="504.85" y="78.26" width="5.56" height="9.36"/><rect class="cls-50" x="516.17" y="78.26" width="5.56" height="9.36"/><rect class="cls-51" x="527.48" y="78.26" width="5.56" height="9.36"/><rect class="cls-44" x="473.22" y="95.35" width="5.56" height="9.36"/><rect class="cls-45" x="482.29" y="95.35" width="5.56" height="9.36"/><rect class="cls-52" x="516.17" y="95.35" width="5.56" height="9.36"/><rect class="cls-47" x="527.48" y="95.35" width="5.56" height="9.36"/><rect class="cls-53" x="473.22" y="145.49" width="5.56" height="9.36"/><rect class="cls-54" x="482.29" y="145.49" width="5.56" height="9.36"/><rect class="cls-54" x="482.29" y="145.49" width="5.56" height="9.36"/><rect class="cls-55" x="504.85" y="145.49" width="5.56" height="9.36"/><rect class="cls-56" x="527.48" y="145.49" width="5.56" height="9.36"/><rect class="cls-57" x="473.22" y="128.4" width="5.56" height="9.36"/><rect class="cls-58" x="504.85" y="128.4" width="5.56" height="9.36"/><rect class="cls-59" x="516.17" y="128.4" width="5.56" height="9.36"/><rect class="cls-60" x="527.48" y="128.4" width="5.56" height="9.36"/><rect class="cls-61" x="473.22" y="111.31" width="5.56" height="9.36"/><rect class="cls-62" x="482.29" y="111.31" width="5.56" height="9.36"/><rect class="cls-63" x="516.17" y="111.31" width="5.56" height="9.36"/><rect class="cls-64" x="527.48" y="111.31" width="5.56" height="9.36"/></g><g id="car"><rect class="cls-65" x="492.32" y="260.86" width="154.58" height="5.04"/><path class="cls-65" d="M508.43,264c5.52,0-6.64,0-6.93,0-5.28-.09-42.82.94-43.52-1.22s-11.85-19-4.75-23,16.39-10.38,16.39-10.38l21.5-6.19,17.12,14.75.73,10.75-.91,8.74Z"/><path class="cls-65" d="M465.33,256.73a18.18,18.18,0,1,1,18.18,18.17A18.18,18.18,0,0,1,465.33,256.73Z"/><path class="cls-66" d="M483.37,242.61c10.31,0,16,5.93,19.22,12.25-1.73-8-6.46-20-19.3-20-13.91,0-18.4,12.48-20,20.2C466.42,248.72,472.27,242.61,483.37,242.61Z"/><path class="cls-67" d="M471.29,256.73a12.22,12.22,0,1,1,12.22,12.21A12.22,12.22,0,0,1,471.29,256.73Z"/><path class="cls-65" d="M617.49,264c.58-.06,49.64-1.22,49.64-1.22l3.58-8.67L671.8,243s-4.55-11.65-13.84-16.39-31.51-.91-31.51-.91l-3.28-2-11.47,8.92Z"/><path class="cls-66" d="M643.39,241.41c15.35,0,23.87,8.83,28.6,18.23-2.57-11.94-9.61-29.79-28.72-29.79-20.69,0-27.38,18.57-29.76,30.06C618.17,250.51,626.87,241.41,643.39,241.41Z"/><path class="cls-68" d="M664.85,262.78c1.87,0,28.23-.94,29.16-1.87s-.15-15.22-1.08-16.82-2.19-1.87-2.42-2.26-.7-8.37-1-9-14.85-15.38-65.19-22.32c-10.81-5.83-27.51-18.53-49-25.76a97.78,97.78,0,0,0-31.3-5.32c-36.95,0-64.69,10-91.81,27.89-1.56,3.74-7.48,11.66-8.73,14s-6.55,27.39-6.91,28.16a18.1,18.1,0,0,0-1.3,4.11c0,.78,1.14,1.24,1.14,1.24a2.73,2.73,0,0,0,1.15,3.8c2.49,1.35,19.83,4.1,23.78,4.15.57-2.44-1.26-26.64,22.12-26.64S504.68,264,504.68,264H619.44s-5.15-27.68,23-27.68S664.85,262.78,664.85,262.78Z"/><path class="cls-69" d="M444.69,243c1.84-1.84,4.29-21.86,4.29-21.86l-5.09-.74q-.31.51-.51.87c-.85,1.61-3.6,13.81-5.37,21.62C440.42,243.55,443.6,244.12,444.69,243Z"/><path class="cls-70" d="M485.65,215.15c1.27,3.26,6.15,10.65,10.06,17.27,5,6.21,8.34,12.23,12,16.26,19.91,1.63,90.55,6.53,109.86,7.78.44-4.95,1.26-11.75,6.86-15.86C601,236.46,490.64,216.37,485.65,215.15Z"/><path class="cls-71" d="M661.48,224.16c9.58-.93,28,8.63,28,8.63.35.67.82,8.65,1,9C679.73,238.4,661.85,225.74,661.48,224.16Z"/><path class="cls-72" d="M611.85,214.87s-43.56-6.14-67-6.63-50.09-.79-66.32-4.85c2.27-1.78,20.29-19.3,63.15-19.3,0,0,22.47-1.28,39.2,7S611.85,214.87,611.85,214.87Z"/><path class="cls-73" d="M541.66,192.7s22.47-1.29,39.2,7a106.4,106.4,0,0,1,20.28,13.72c6.5.84,10.71,1.43,10.71,1.43s-14.26-15.44-31-23.75-39.2-7-39.2-7c-42.86,0-60.88,17.52-63.15,19.3,2.86.72,6.06,1.31,9.5,1.82C497.58,199.62,514.71,192.7,541.66,192.7Z"/><path class="cls-74" d="M479.53,203.63c10.22,2.4,24.24,3.41,39,4a233.28,233.28,0,0,1-15.5-17.7c-12.69,4.29-20,9.8-23,12.3C479.8,202.67,479.66,203.15,479.53,203.63Z"/><path class="cls-74" d="M551.68,184.23a93.57,93.57,0,0,0-10-.14h-1.43c-.2,8,.35,16,.81,24.06l3.79.08c8.71.18,20.2,1.14,31.19,2.28C566.36,202.46,557.91,192.44,551.68,184.23Z"/><path class="cls-70" d="M545.06,184v1.82h0c6.34,0,22.44.67,35,6.91,11.23,5.58,21.44,14.55,26.7,19.59-12.4-1.64-43.46-5.53-61.88-5.92l-4.4-.09c-20.13-.41-42.73-.87-57.91-3.9a67.5,67.5,0,0,1,14.87-8.5c12.55-5.32,27.43-8,44.23-8h.1s1.25-.07,3.29-.07V184Zm0,0c-2.13,0-3.39.07-3.39.07-42.86,0-60.88,17.52-63.15,19.3,16.23,4.06,42.86,4.35,66.32,4.85s67,6.63,67,6.63-14.26-15.44-31-23.75c-12.77-6.35-28.9-7.1-35.81-7.1Z"/><path class="cls-75" d="M451.05,209.37a20.68,20.68,0,0,0,1.06-2.09,170.56,170.56,0,0,1,38.29-19.35,14.51,14.51,0,0,1-5.87,6.41C478.79,197.71,462.14,211.7,451.05,209.37Z"/><path class="cls-72" d="M451.05,209.37a20.68,20.68,0,0,0,1.06-2.09,170.56,170.56,0,0,1,38.29-19.35,14.51,14.51,0,0,1-5.87,6.41C478.79,197.71,462.14,211.7,451.05,209.37Z"/><path class="cls-70" d="M484.07,193.56c-1.1.64-2.61,1.67-4.36,2.85-7.42,5-19.66,13.29-28.28,12.26-.28.53-.6,1.1-1,1.7a13.93,13.93,0,0,0,2.44.21c9.09,0,20.64-7.81,27.82-12.66,1.72-1.17,3.22-2.18,4.26-2.79a18.94,18.94,0,0,0,6.88-7.67l-.05,0-2.52.88A16.61,16.61,0,0,1,484.07,193.56Z"/><path class="cls-72" d="M608,206.66c-11.07-9.2-25.72-16.21-29.31-18.08a9.2,9.2,0,0,1-3.47-3.87c21.28,7.14,37.83,19.6,48.65,25.54l.08.2h.31C623.85,211.75,614.91,211,608,206.66Z"/><path class="cls-70" d="M543.83,184c1.42,5.21,4.91,18,6.53,24.41-1.94-.1-3.79-.16-5.53-.2l-6.45-.13-1.78-23.93c1.65-.06,3.33-.09,5.06-.09C541.66,184.09,542.44,184.05,543.83,184Z"/><path class="cls-70" d="M587.25,258.31c-7.54,0-16.12-.07-24.73-.2-13.92-.23-46.59-1-49.43-3-2.48-1.75-9.66-11.33-15.48-19.9s-11.93-18.53-11.78-21.08c.28-4.85.35-5,3.73-8.39,3.1-3.1,6.66-7.41,6.66-13.29h.31c0,6-3.6,10.37-6.75,13.51-3.36,3.36-3.37,3.45-3.64,8.19s22.36,37.34,27.13,40.71c1.92,1.35,20.34,2.44,49.25,2.9,22.84.37,46.39.21,48.92-.32,8.44-20.31.14-42.31,0-42.53l.3-.11c.08.22,8.44,22.39-.09,42.84l0,.07-.08,0C610.22,258.11,600.32,258.31,587.25,258.31Z"/><path class="cls-70" d="M544.85,257.54l-.3-.06c5.85-33.7-4.49-72.91-4.6-73.3l.3-.08C540.36,184.49,550.71,223.77,544.85,257.54Z"/><path class="cls-70" d="M624.27,210.47l-.93-.51a27.09,27.09,0,0,1-14.93-3.9c-9.95-8.25-22.53-14.64-27.91-17.37-.61-.3-1.11-.56-1.49-.76a6.46,6.46,0,0,1-2-2.6l-2-.67.09.18c.79,1.62,1.78,3.64,3.2,4.38l1.5.77c5.34,2.71,17.84,9.06,27.67,17.22l.08.06a29.61,29.61,0,0,0,14.47,4.19,8,8,0,0,0,2.59-.32,1.67,1.67,0,0,0,.72-.51Z"/><path class="cls-70" d="M611.85,214.87s-4.07-.57-10.38-1.38a65.62,65.62,0,0,1,1.16-7.38C608.28,211,611.85,214.87,611.85,214.87Z"/><path class="cls-70" d="M603.16,213.62s-1.39.59-5.84.48A44.13,44.13,0,0,1,588.8,213s-1.82-9.43,4.29-10.39,10.07,4.18,10.07,4.18Z"/><ellipse class="cls-65" cx="641.99" cy="256.73" rx="18.17" ry="18.17" transform="translate(383.07 897.84) rotate(-89.81)"/><path class="cls-76" d="M629.77,256.73A12.22,12.22,0,1,1,642,268.94,12.22,12.22,0,0,1,629.77,256.73Z"/><path class="cls-77" d="M519.22,224a8.19,8.19,0,0,0-8.17,8.17,8,8,0,0,0,.71,3.34,51.45,51.45,0,0,0,7.12,10.53.46.46,0,0,0,.68,0,60.89,60.89,0,0,0,5-6.64l-2.68-2.69a5.06,5.06,0,0,1-2.61.72,5.14,5.14,0,1,1,4.42-2.53l2.22,2.22c.29-.53.56-1.07.81-1.61a8,8,0,0,0,.71-3.34A8.18,8.18,0,0,0,519.22,224Z"/><path class="cls-10" d="M523.08,232.31a3.85,3.85,0,1,1-3.85-3.84A3.86,3.86,0,0,1,523.08,232.31Z"/><path class="cls-77" d="M516.24,232.31h.86a2.13,2.13,0,0,1,2.13-2.13v-.86A3,3,0,0,0,516.24,232.31Z"/><path class="cls-77" d="M542.86,227.74a1.32,1.32,0,0,1,0,1.85,1.37,1.37,0,0,1-1,.34h-3.48v11.61a1.26,1.26,0,0,1-.42,1,1.48,1.48,0,0,1-1,.39,1.38,1.38,0,0,1-1-.39,1.28,1.28,0,0,1-.4-1V229.93h-3.48a1.34,1.34,0,0,1-1-.36,1.17,1.17,0,0,1-.38-.93,1.16,1.16,0,0,1,.39-.9,1.35,1.35,0,0,1,1-.36h9.84A1.34,1.34,0,0,1,542.86,227.74Z"/><path class="cls-77" d="M550.27,231.19a1.11,1.11,0,0,1,.46.89,1.36,1.36,0,0,1-.36,1,1.14,1.14,0,0,1-.84.34,2.26,2.26,0,0,1-.75-.15l-.3-.09a1.63,1.63,0,0,0-.5-.07,2,2,0,0,0-1.11.36,2.56,2.56,0,0,0-.87,1.07,3.94,3.94,0,0,0-.34,1.72v5.25a1.34,1.34,0,0,1-.38,1,1.36,1.36,0,0,1-1.91,0,1.33,1.33,0,0,1-.37-1v-9.15a1.34,1.34,0,0,1,.37-1,1.39,1.39,0,0,1,1.91,0,1.34,1.34,0,0,1,.38,1v.29a3.28,3.28,0,0,1,1.46-1.39,4.43,4.43,0,0,1,2-.47A1.67,1.67,0,0,1,550.27,231.19Z"/><path class="cls-77" d="M552.31,229.35a1.05,1.05,0,0,1-.31-.86v-.42a1,1,0,0,1,.34-.87,1.82,1.82,0,0,1,1.06-.24,1.85,1.85,0,0,1,1.09.24,1.09,1.09,0,0,1,.31.87v.42a1,1,0,0,1-.33.87,1.87,1.87,0,0,1-1.09.24A1.74,1.74,0,0,1,552.31,229.35Zm2,13.15a1.35,1.35,0,0,1-1.9,0,1.34,1.34,0,0,1-.38-1v-9.15a1.34,1.34,0,0,1,.38-1,1.38,1.38,0,0,1,1.9,0,1.34,1.34,0,0,1,.38,1v9.15A1.34,1.34,0,0,1,554.35,242.5Z"/><path class="cls-77" d="M566.16,231.6a5.53,5.53,0,0,1,2,2.18,6.82,6.82,0,0,1,.72,3.17,7,7,0,0,1-.71,3.18,5.38,5.38,0,0,1-1.94,2.19,4.88,4.88,0,0,1-2.71.79,4.75,4.75,0,0,1-2-.43,5.47,5.47,0,0,1-1.56-1.05V246a1.3,1.3,0,0,1-.38,1,1.25,1.25,0,0,1-.95.39,1.3,1.3,0,0,1-1-.38,1.31,1.31,0,0,1-.38-1V232.39a1.34,1.34,0,0,1,.38-1,1.3,1.3,0,0,1,1-.38,1.28,1.28,0,0,1,.95.38,1.3,1.3,0,0,1,.38,1v.09a4.64,4.64,0,0,1,1.49-1.17,4.22,4.22,0,0,1,2-.49A5.1,5.1,0,0,1,566.16,231.6Zm-.78,8a4.35,4.35,0,0,0,0-5.31,2.9,2.9,0,0,0-2.33-1.05,3,3,0,0,0-2.35,1.05,4.33,4.33,0,0,0,0,5.31,2.93,2.93,0,0,0,2.35,1.06A2.9,2.9,0,0,0,565.38,239.61Z"/><path class="cls-77" d="M574.9,229.28a1.6,1.6,0,0,0-.31.94v1h2a1.22,1.22,0,0,1,.89.34,1.27,1.27,0,0,1,0,1.75,1.23,1.23,0,0,1-.89.35h-2v7.84a1.33,1.33,0,0,1-.37,1,1.36,1.36,0,0,1-1.91,0,1.33,1.33,0,0,1-.37-1V233.7h-1.2a1.25,1.25,0,0,1-.89-.35,1.27,1.27,0,0,1,0-1.75,1.24,1.24,0,0,1,.89-.34h1.2v-1a3.48,3.48,0,0,1,1.14-2.7,4.67,4.67,0,0,1,3.29-1,3,3,0,0,1,1.43.33,1.1,1.1,0,0,1,.61,1,1.24,1.24,0,0,1-.31.86,1,1,0,0,1-.76.33.93.93,0,0,1-.23,0l-.26,0a3.75,3.75,0,0,0-.88-.14A1.24,1.24,0,0,0,574.9,229.28Z"/><path class="cls-77" d="M589.14,237.55a1.43,1.43,0,0,1-.93.33H580.9a3.31,3.31,0,0,0,1.21,2.05,3.4,3.4,0,0,0,2.15.74,4.82,4.82,0,0,0,1.42-.16,3.46,3.46,0,0,0,.81-.36l.41-.25a1.72,1.72,0,0,1,.75-.2,1.09,1.09,0,0,1,.8.33,1.07,1.07,0,0,1,.33.78,1.35,1.35,0,0,1-.62,1.08,5.36,5.36,0,0,1-1.66.87,6.93,6.93,0,0,1-5.35-.42A5.44,5.44,0,0,1,579,240.2a6.26,6.26,0,0,1-.75-3.07,6.72,6.72,0,0,1,.8-3.35,5.64,5.64,0,0,1,2.1-2.2,5.42,5.42,0,0,1,2.79-.76,5.16,5.16,0,0,1,2.76.79,5.93,5.93,0,0,1,2.07,2.15,5.76,5.76,0,0,1,.78,2.93A1.17,1.17,0,0,1,589.14,237.55Zm-8.22-1.88h5.8v-.16a2.27,2.27,0,0,0-.91-1.59,2.82,2.82,0,0,0-1.86-.67A2.75,2.75,0,0,0,580.92,235.67Z"/><path class="cls-77" d="M598.7,231.19a1.11,1.11,0,0,1,.46.89,1.36,1.36,0,0,1-.36,1,1.14,1.14,0,0,1-.84.34,2.26,2.26,0,0,1-.75-.15l-.3-.09a1.59,1.59,0,0,0-.5-.07,2,2,0,0,0-1.11.36,2.56,2.56,0,0,0-.87,1.07,3.94,3.94,0,0,0-.34,1.72v5.25a1.34,1.34,0,0,1-.38,1,1.36,1.36,0,0,1-1.91,0,1.33,1.33,0,0,1-.37-1v-9.15a1.34,1.34,0,0,1,.37-1,1.39,1.39,0,0,1,1.91,0,1.34,1.34,0,0,1,.38,1v.29a3.33,3.33,0,0,1,1.46-1.39,4.43,4.43,0,0,1,2-.47A1.67,1.67,0,0,1,598.7,231.19Z"/></g><path class="cls-78" d="M419.75,192a2.14,2.14,0,1,0-2.13,2.13A2.13,2.13,0,0,0,419.75,192Z"/><path class="cls-79" d="M449.87,107.53a.59.59,0,0,1-.58-.59v-3.52a.59.59,0,1,1,1.17,0v3.52A.59.59,0,0,1,449.87,107.53Zm-60.94,0a.59.59,0,0,1-.58-.59v-1a.59.59,0,1,1,1.17,0v1A.59.59,0,0,1,388.93,107.53Zm0-4.48a.59.59,0,0,1-.58-.59V98.94a.59.59,0,1,1,1.17,0v3.52A.59.59,0,0,1,388.93,103.05Zm60.94-2.56a.59.59,0,0,1-.58-.59V96.38a.59.59,0,1,1,1.17,0V99.9A.59.59,0,0,1,449.87,100.49ZM388.93,96a.59.59,0,0,1-.58-.59v-.94c0-.87,0-1.76.11-2.63a.58.58,0,0,1,.63-.53.6.6,0,0,1,.54.63c-.07.84-.11,1.69-.11,2.53v.94A.59.59,0,0,1,388.93,96Zm60.9-2.56a.6.6,0,0,1-.59-.56,30.22,30.22,0,0,0-.37-3.43.58.58,0,0,1,1.15-.19,32.58,32.58,0,0,1,.4,3.56.61.61,0,0,1-.56.62ZM389.54,89h-.12a.6.6,0,0,1-.46-.7,32,32,0,0,1,.91-3.46.59.59,0,0,1,1.12.36,29.29,29.29,0,0,0-.88,3.34A.58.58,0,0,1,389.54,89Zm59.12-2.49a.59.59,0,0,1-.57-.42,31.35,31.35,0,0,0-1.15-3.25.59.59,0,1,1,1.08-.46,31.58,31.58,0,0,1,1.2,3.38.59.59,0,0,1-.4.73A.44.44,0,0,1,448.66,86.52Zm-56.94-4.19a.7.7,0,0,1-.25,0,.6.6,0,0,1-.29-.78,31.94,31.94,0,0,1,1.69-3.16.59.59,0,0,1,.81-.2.59.59,0,0,1,.19.81,29.52,29.52,0,0,0-1.62,3A.58.58,0,0,1,391.72,82.33Zm54.2-2.28a.59.59,0,0,1-.51-.29,30.56,30.56,0,0,0-1.88-2.9.59.59,0,0,1,.13-.82.58.58,0,0,1,.82.13,29.76,29.76,0,0,1,1.95,3,.58.58,0,0,1-.51.87Zm-50.55-3.71a.57.57,0,0,1-.36-.13.59.59,0,0,1-.1-.82,30.19,30.19,0,0,1,2.37-2.69.58.58,0,1,1,.83.82,30.93,30.93,0,0,0-2.27,2.59A.6.6,0,0,1,395.37,76.34Zm46.4-2a.58.58,0,0,1-.43-.18,29.68,29.68,0,0,0-2.49-2.4.59.59,0,0,1,.77-.89,31.9,31.9,0,0,1,2.58,2.49.59.59,0,0,1,0,.83A.6.6,0,0,1,441.77,74.38Zm-41.47-3a.57.57,0,0,1-.45-.21.59.59,0,0,1,.08-.83,31,31,0,0,1,2.92-2.08.58.58,0,0,1,.81.18.59.59,0,0,1-.18.81,30.48,30.48,0,0,0-2.81,2A.58.58,0,0,1,400.3,71.33Zm36.14-1.52a.58.58,0,0,1-.33-.1,31.59,31.59,0,0,0-3-1.76.59.59,0,1,1,.54-1,30.07,30.07,0,0,1,3.08,1.83.57.57,0,0,1,.15.81A.56.56,0,0,1,436.44,69.81Zm-30.19-2.22a.59.59,0,0,1-.53-.34.58.58,0,0,1,.27-.78,34,34,0,0,1,3.32-1.36.59.59,0,1,1,.38,1.11,29.29,29.29,0,0,0-3.19,1.31A.57.57,0,0,1,406.25,67.59Zm23.95-1a.45.45,0,0,1-.2,0,29.31,29.31,0,0,0-3.3-1,.59.59,0,0,1-.42-.72.58.58,0,0,1,.71-.42,30.82,30.82,0,0,1,3.42,1.07.58.58,0,0,1,.34.76A.59.59,0,0,1,430.2,66.58Zm-17.31-1.27a.59.59,0,0,1-.57-.47.58.58,0,0,1,.45-.69,28,28,0,0,1,3.54-.56.58.58,0,0,1,.64.52.59.59,0,0,1-.52.65,29.86,29.86,0,0,0-3.41.53Zm10.5-.44h-.07a30.61,30.61,0,0,0-3.45-.25.57.57,0,0,1-.57-.59.58.58,0,0,1,.58-.58h0a30.47,30.47,0,0,1,3.58.26.58.58,0,0,1,.5.66A.59.59,0,0,1,423.39,64.87Z"/><path class="cls-77" d="M530.88,138.41a.59.59,0,0,1-.59-.59V134.3a.59.59,0,0,1,1.18,0v3.52A.59.59,0,0,1,530.88,138.41Zm0-7a.59.59,0,0,1-.59-.59v-3.52a.59.59,0,0,1,1.18,0v3.52A.59.59,0,0,1,530.88,131.37Zm0-7a.59.59,0,0,1-.59-.59v-3.52a.59.59,0,0,1,1.18,0v3.52A.59.59,0,0,1,530.88,124.33Zm0-7a.6.6,0,0,1-.59-.59v-.89c0-.86,0-1.73-.08-2.59a.59.59,0,0,1,1.17-.07c.06.88.09,1.77.09,2.66v.89A.6.6,0,0,1,530.88,117.29Zm-80.72-.89a.58.58,0,0,1-.58-.59c0-.32,0-.65,0-1a.6.6,0,0,1,.59-.58h0a.59.59,0,0,1,.57.6c0,.32,0,.64,0,1A.58.58,0,0,1,450.16,116.4Zm.25-4.47h-.06a.57.57,0,0,1-.52-.65c.13-1.18.31-2.36.54-3.52a.59.59,0,1,1,1.15.23c-.22,1.12-.4,2.28-.53,3.42A.59.59,0,0,1,450.41,111.93Zm80-1.66a.57.57,0,0,1-.58-.5c-.18-1.13-.4-2.28-.67-3.4a.57.57,0,0,1,.43-.7.58.58,0,0,1,.71.43c.28,1.15.51,2.33.69,3.5a.59.59,0,0,1-.49.67ZM451.79,105a.5.5,0,0,1-.17,0,.59.59,0,0,1-.4-.73c.34-1.14.73-2.27,1.16-3.38a.59.59,0,1,1,1.09.43c-.42,1.07-.8,2.18-1.12,3.28A.58.58,0,0,1,451.79,105Zm77-1.59a.58.58,0,0,1-.55-.39q-.56-1.65-1.26-3.24a.59.59,0,0,1,1.08-.47c.47,1.08.91,2.2,1.29,3.33a.59.59,0,0,1-.56.77Zm-74.4-5a.58.58,0,0,1-.26-.06.6.6,0,0,1-.27-.79c.53-1.06,1.11-2.11,1.73-3.12a.59.59,0,0,1,.81-.2.59.59,0,0,1,.19.81c-.6,1-1.16,2-1.68,3A.58.58,0,0,1,454.35,98.49ZM525.92,97a.56.56,0,0,1-.51-.31c-.56-1-1.16-2-1.8-3a.58.58,0,0,1,1-.65c.66,1,1.28,2,1.86,3a.58.58,0,0,1-.24.79A.57.57,0,0,1,525.92,97ZM458,92.49a.66.66,0,0,1-.35-.11.59.59,0,0,1-.12-.82c.7-1,1.46-1.89,2.24-2.78a.59.59,0,0,1,.83-.06.6.6,0,0,1,.05.83c-.76.87-1.49,1.77-2.18,2.7A.57.57,0,0,1,458,92.49Zm64-1.33a.58.58,0,0,1-.46-.22c-.72-.9-1.49-1.77-2.28-2.6a.59.59,0,0,1,.84-.82c.82.86,1.62,1.76,2.36,2.69a.59.59,0,0,1-.09.82A.58.58,0,0,1,522,91.16Zm-59.35-4a.59.59,0,0,1-.41-1c.86-.82,1.77-1.61,2.69-2.35a.6.6,0,0,1,.83.09.59.59,0,0,1-.1.83c-.89.72-1.77,1.48-2.61,2.28A.57.57,0,0,1,462.66,87.21Zm54.49-1.13a.62.62,0,0,1-.39-.14c-.86-.76-1.77-1.5-2.7-2.18a.58.58,0,0,1-.12-.82.59.59,0,0,1,.82-.12c1,.7,1.89,1.45,2.78,2.23a.59.59,0,0,1-.39,1Zm-49-3.26a.58.58,0,0,1-.49-.26.59.59,0,0,1,.16-.82c1-.66,2-1.28,3.06-1.85a.59.59,0,0,1,.56,1c-1,.55-2,1.16-3,1.8A.63.63,0,0,1,468.15,82.82Zm43.34-.9a.59.59,0,0,1-.31-.09c-1-.6-2-1.16-3-1.67a.58.58,0,0,1-.26-.79.57.57,0,0,1,.78-.26c1.07.52,2.12,1.1,3.13,1.72a.59.59,0,0,1,.2.81A.59.59,0,0,1,511.49,81.92Zm-37.17-2.48a.59.59,0,0,1-.24-1.13c1.09-.47,2.21-.91,3.33-1.29a.59.59,0,0,1,.38,1.12c-1.1.36-2.18.79-3.24,1.25A.59.59,0,0,1,474.32,79.44Zm30.87-.64a.54.54,0,0,1-.22,0c-1.07-.42-2.18-.79-3.28-1.12a.58.58,0,1,1,.33-1.12c1.14.33,2.27.71,3.38,1.15a.59.59,0,0,1-.21,1.13ZM481,77.19a.58.58,0,0,1-.57-.45.59.59,0,0,1,.43-.71c1.15-.28,2.33-.51,3.5-.69a.59.59,0,0,1,.67.5.57.57,0,0,1-.49.66c-1.14.18-2.28.4-3.4.67Zm17.46-.36h-.12c-1.12-.23-2.28-.4-3.42-.53a.58.58,0,1,1,.12-1.16c1.18.12,2.37.31,3.53.54a.59.59,0,0,1-.11,1.16Zm-10.51-.69a.59.59,0,0,1,0-1.18c.89,0,1.79-.09,2.67-.08h.9a.6.6,0,0,1,.58.6.59.59,0,0,1-.59.57h-.93c-.85,0-1.71,0-2.55.08Z"/><path class="cls-77" d="M632.54,113.23a.58.58,0,0,1-.5-.29c-.29-.5-.6-1-.91-1.49a.59.59,0,0,1,1-.63c.32.51.63,1,.93,1.52a.6.6,0,0,1-.21.81A.64.64,0,0,1,632.54,113.23Z"/><path class="cls-80" d="M536,121.83a.59.59,0,0,1-.56-.77c.38-1.12.79-2.24,1.24-3.33a.59.59,0,0,1,1.09.45c-.44,1.06-.85,2.15-1.22,3.25A.59.59,0,0,1,536,121.83Zm2.68-6.49a.65.65,0,0,1-.26-.06.57.57,0,0,1-.26-.78c.53-1.06,1.1-2.11,1.7-3.12a.58.58,0,0,1,.8-.21.59.59,0,0,1,.21.8c-.59,1-1.15,2-1.66,3A.59.59,0,0,1,538.71,115.34Zm3.57-6a.58.58,0,0,1-.48-.92c.67-1,1.38-1.93,2.11-2.85a.59.59,0,0,1,.83-.1.6.6,0,0,1,.09.83c-.72.9-1.41,1.84-2.07,2.79A.58.58,0,0,1,542.28,109.3Zm87.37-.48a.6.6,0,0,1-.48-.24c-.68-.93-1.4-1.85-2.14-2.74a.59.59,0,0,1,.9-.75c.76.91,1.5,1.85,2.19,2.8a.59.59,0,0,1-.13.82A.6.6,0,0,1,629.65,108.82Zm-83-5a.58.58,0,0,1-.39-.15.59.59,0,0,1,0-.83c.8-.87,1.63-1.72,2.49-2.54a.59.59,0,1,1,.81.85c-.84.8-1.66,1.63-2.43,2.48A.59.59,0,0,1,546.65,103.81Zm78.49-.37a.6.6,0,0,1-.43-.18c-.79-.84-1.63-1.65-2.48-2.43a.59.59,0,0,1,0-.83.57.57,0,0,1,.82,0c.87.8,1.73,1.63,2.54,2.49a.58.58,0,0,1,0,.83A.61.61,0,0,1,625.14,103.44ZM551.74,99a.57.57,0,0,1-.45-.21.6.6,0,0,1,.07-.83c.91-.75,1.86-1.48,2.81-2.17a.58.58,0,0,1,.82.13.59.59,0,0,1-.13.82c-.93.67-1.86,1.39-2.75,2.12A.54.54,0,0,1,551.74,99ZM620,98.69a.63.63,0,0,1-.37-.12c-.9-.73-1.83-1.43-2.78-2.09a.59.59,0,0,1,.68-1c1,.68,1.92,1.39,2.84,2.13a.58.58,0,0,1-.37,1Zm-62.53-3.83a.58.58,0,0,1-.49-.28.58.58,0,0,1,.18-.81c1-.62,2-1.22,3.08-1.78a.58.58,0,1,1,.55,1c-1,.55-2,1.14-3,1.75A.56.56,0,0,1,557.43,94.86Zm56.78-.19a.55.55,0,0,1-.3-.09c-1-.6-2-1.17-3-1.7a.59.59,0,0,1,.54-1c1,.54,2.08,1.13,3.09,1.74a.59.59,0,0,1-.3,1.09Zm-50.59-3.13a.59.59,0,0,1-.24-1.12c1.08-.49,2.18-1,3.28-1.37a.59.59,0,0,1,.42,1.1c-1.08.41-2.16.86-3.21,1.33A.54.54,0,0,1,563.62,91.54ZM608,91.43a.59.59,0,0,1-.23-.05c-1.06-.47-2.14-.91-3.22-1.3a.58.58,0,0,1-.35-.76.57.57,0,0,1,.75-.34c1.11.4,2.22.85,3.29,1.32a.59.59,0,0,1,.3.78A.61.61,0,0,1,608,91.43ZM570.2,89.06a.59.59,0,0,1-.17-1.15c1.13-.34,2.28-.65,3.43-.92a.59.59,0,0,1,.27,1.15c-1.13.26-2.26.56-3.36.89A.51.51,0,0,1,570.2,89.06Zm31.19,0a.44.44,0,0,1-.16,0c-1.11-.33-2.24-.62-3.37-.88a.58.58,0,1,1,.26-1.14c1.16.26,2.31.56,3.44.89a.6.6,0,0,1,.4.73A.59.59,0,0,1,601.39,89ZM577,87.47A.59.59,0,0,1,577,86.3c1.17-.19,2.35-.35,3.52-.46a.59.59,0,0,1,.65.52.6.6,0,0,1-.53.65c-1.15.11-2.31.26-3.45.45Zm17.5,0h-.09c-1.14-.19-2.3-.34-3.45-.45a.59.59,0,0,1-.53-.64.6.6,0,0,1,.64-.53c1.18.12,2.36.27,3.53.46a.59.59,0,0,1-.1,1.17ZM584,86.78a.59.59,0,0,1,0-1.17c.6,0,1.21,0,1.82,0l1.73,0a.59.59,0,1,1,0,1.17c-.57,0-1.15,0-1.72,0s-1.17,0-1.75,0Z"/><path class="cls-77" d="M534.61,127l-.13,0a.59.59,0,0,1-.45-.7c.13-.58.27-1.16.42-1.73a.59.59,0,0,1,1.14.29c-.15.56-.28,1.13-.41,1.7A.59.59,0,0,1,534.61,127Z"/><g id="guy_01"><path class="cls-78" d="M378.25,269.23s-.28,4.09,0,4.17,3.34.54,3.29.09.57-4.54.57-4.54Z"/><path class="cls-78" d="M400.75,269.35s.28,4.08,0,4.17-3.34.54-3.28.08-.57-4.53-.57-4.53Z"/><path class="cls-78" d="M397.27,176.37c0,2.86.07,5.78.17,8.67s.27,5.77.54,8.58.76,5.6,1.29,8.44c.27,1.42.56,2.84.85,4.26l.46,2.14.23,1.07.11.54.06.29,0,.16,0,.11,0,.09v.12a.72.72,0,0,1,0,.18c-1.68-.38,4,1-4.45,1.83a2.53,2.53,0,0,1,3.84-3.3c-8.4.8-2.76,2.2-4.45,1.82,0,.12,0,.15,0,.16v.09l0-.11-.07-.25-.14-.52-.28-1.07-.57-2.14c-.37-1.43-.73-2.87-1.08-4.31-.69-2.9-1.36-5.81-1.8-8.88s-.71-6-.95-8.93-.42-5.91-.55-8.91a3.34,3.34,0,0,1,6.68-.3v.17Z"/><path class="cls-81" d="M397.44,185c-.1-2.89-.16-5.81-.17-8.67v-.17a3.34,3.34,0,0,0-6.68.3c.13,3,.32,5.93.55,8.91.1,1.25.21,2.51.34,3.76l6.15-.21C397.55,187.65,397.49,186.34,397.44,185Z"/><path class="cls-78" d="M396.74,216.46a4.46,4.46,0,1,0-2.62-5.71A4.42,4.42,0,0,0,396.74,216.46Z"/><path class="cls-68" d="M392.77,251.05c.3,2.06,1.91,8.61,3.32,14.22l.8,4.85h3.92L399.05,211s-.4-.55-1.06-1.4h-9.54c-.35,4.58,3.06,26.83,3.36,29.85S392.21,247.23,392.77,251.05Z"/><path class="cls-82" d="M382.29,270.12c1.45-6.2,3.92-17,4.17-19.74a36.51,36.51,0,0,0-.18-8.57c.43-2.85,7.16-28.39,6.59-30.85a2.6,2.6,0,0,0-1-1.42h-9.49a31.09,31.09,0,0,1-3.14.84L378,270.12Z"/><path class="cls-83" d="M399.08,210.41s-1.76-11.42-1.54-33.35a5.88,5.88,0,0,0-3-5.27c-3.53-1.87-8.2-.8-12.26.2-5.41,1.33-2.24,10.19-4.41,38.17C385.46,211.13,399.08,210.41,399.08,210.41Z"/><path class="cls-2" d="M412.83,196.53a5.15,5.15,0,0,1,2.25-4.89l-.49-.11-1.1-.26-2.18-.54c-1.45-.37-2.89-.76-4.31-1.18s-2.82-.86-4.18-1.35c-.67-.24-1.33-.5-2-.77s-1.22-.54-1.81-.85a34.56,34.56,0,0,1-6.75-4.77c-1.06-.94-2.09-1.93-3.07-3-.49-.51-1-1-1.45-1.57-.23-.26-.46-.53-.68-.8l-.34-.4-.15-.19-.13-.17,0-.05-.11-.13a3.9,3.9,0,1,0-5.91,5.09l.23.28.22.24.42.46c.28.31.57.61.85.9.57.59,1.15,1.16,1.74,1.72,1.18,1.13,2.4,2.2,3.68,3.23a41.56,41.56,0,0,0,8.45,5.37c.79.36,1.61.7,2.39,1s1.57.53,2.35.76c1.55.46,3.09.85,4.62,1.21s3.07.69,4.6,1l2.29.44.73.13A3.45,3.45,0,0,1,412.83,196.53Z"/><path class="cls-78" d="M412.83,196.53a5.15,5.15,0,0,1,2.25-4.89l-.34-.08-1-.22-1.89-.46c-1.26-.32-2.51-.65-3.75-1a66.75,66.75,0,0,1-7.16-2.39,21.53,21.53,0,0,1-3.31-1.72,47.19,47.19,0,0,0-2.9,6.46c.56.29,1.13.56,1.7.81s1.4.57,2.08.81a70.49,70.49,0,0,0,8,2.2c1.33.3,2.65.57,4,.82l2,.37.42.08A3.45,3.45,0,0,1,412.83,196.53Z"/><rect class="cls-83" x="395.64" y="185.24" width="0.86" height="7.35" transform="translate(110.45 -144.22) rotate(23.89)"/><path class="cls-83" d="M384.73,171.41c2.95-.63,6-1,8.62-.11-.15,2.93-.78,5.44-3.77,5.44C386.18,176.74,385.07,174.73,384.73,171.41Z"/><path class="cls-84" d="M381.65,272.78a7.74,7.74,0,0,0-3.4-.14c-1.82.31-4.23.74-4.41,1.05a1.39,1.39,0,0,0-.09.77s7.61-.08,7.93-.25S381.65,272.78,381.65,272.78Z"/><path class="cls-84" d="M397.12,272.78a7.76,7.76,0,0,1,3.4-.14c1.83.31,2.1.74,2.27,1.05a1.39,1.39,0,0,1,.09.77s-5.47-.08-5.78-.25S397.12,272.78,397.12,272.78Z"/><ellipse class="cls-78" cx="416.46" cy="195.48" rx="4.42" ry="4.46" transform="translate(-1.97 386.72) rotate(-49.71)"/><path class="cls-78" d="M394.73,164.64a27.14,27.14,0,0,1-2.33,3.52,7.93,7.93,0,0,0-1.24,3.5c-.15,1-.49,1.71-1.64,1.87-2.17.31-1.55-1.49-2-2.79-.57-1.5-1.77-2.68-2.61-4-2.43-3.85-1.74-11.46,3.31-13.08C393.7,151.87,396.51,160.74,394.73,164.64Z"/><path class="cls-85" d="M385.93,160.91a2.72,2.72,0,0,0-1.78.5c-.47.42-.42,1.33.2,1.43s1.27-.49,1.61-.06c.2.24,0,.61-.12.9a5.27,5.27,0,0,0-.49,3.58c-.22.21-.58,0-.78-.23a11.45,11.45,0,0,1-2.29-3.76,2.36,2.36,0,0,1-.84.82,2.72,2.72,0,0,0-.05-1.62c-.48-1.95-.8-4.23.56-5.82a5.12,5.12,0,0,1,2.95-1.55,15.19,15.19,0,0,1,3.37-.1c.48,0,1.07.12,1.18.57a5.28,5.28,0,0,0-2.66,2.24C386.63,158.11,386,160.91,385.93,160.91Z"/><path class="cls-85" d="M388.15,156.23l-.11.08a4.76,4.76,0,0,1-1.5,1c-.83.23-1.73-.17-2.55.11s-1.52,1.42-2.18,2.06a9.6,9.6,0,0,1-3.92,2.29,9.42,9.42,0,0,1-2.29.41,4.17,4.17,0,0,1-1.17,0c-.46-.13-.45-.34.05-.49,1.54-.5,2-2.66,1.9-4.1-.09-1.13-.48-2.32-.05-3.37a4,4,0,0,1,1.73-1.67c.75-.51,1.57-.37,2.43-.62s1.62-1,2.54-1.14a7.67,7.67,0,0,1,2.89.43,6.16,6.16,0,0,0,2.42,0,9.84,9.84,0,0,1,2.13-.44,3.48,3.48,0,0,1,2.68,1.55,7.13,7.13,0,0,1,1.15,5c.05-.25-.8-1.17-1-1.36A2.26,2.26,0,0,0,392,155,5.92,5.92,0,0,0,388.15,156.23Z"/></g><g id="guy_02"><path class="cls-86" d="M451.3,178.78c-.08.17-.11.25-.17.36l-.14.3-.29.56q-.29.56-.6,1.08c-.4.71-.83,1.4-1.28,2.07a36.35,36.35,0,0,1-3,3.84,25.56,25.56,0,0,1-12.28,8.11c-1.5.49-3,.88-4.45,1.23s-2.95.65-4.43.92c-.74.14-1.47.26-2.21.38l-1.11.17-.55.08-.27,0-.13,0h-.05s0,0,0,0h0l.09,0c-1-2.24,2.09,5.11-.46-5.77a2.93,2.93,0,1,1-.51,5.84c-2.55-10.87.53-3.52-.45-5.77l.11,0h.07l.06,0h.09l.14,0,.27-.06.52-.1,1-.22c.69-.15,1.38-.31,2.06-.48,1.37-.32,2.73-.68,4.06-1.08s2.64-.82,3.88-1.3a20.68,20.68,0,0,0,3.4-1.62,21.47,21.47,0,0,0,5.52-5,30.72,30.72,0,0,0,2.19-3.17c.33-.55.64-1.12.93-1.69.14-.28.28-.57.41-.85l.19-.41.08-.2a.59.59,0,0,0,0-.14,3.87,3.87,0,0,1,7.15,2.95Z"/><path class="cls-87" d="M452,239.32c.12-3,2.28-25.68,1.47-29.1-.37-1.52,3,.6,1-.25a58.63,58.63,0,0,0,.23-8.08c-.87-5.4-11.58,10-11.58,10l1.93,60.52,2.55.11v.22s0-.08,0-.22l.79,0,.9-8.37c1.06-5.39,2.26-11.71,2.44-13.69C452.11,246.86,451.92,242.31,452,239.32Z"/><path class="cls-88" d="M464.43,249.89a37.73,37.73,0,0,0-1.91-8.25c-.15-2.74-1.19-28.37-2.26-30.74-1.46-3.24-7.3-2.22-7.3-2.22l.33,1.62h-.24a35.16,35.16,0,0,1-3.82,1.09L460.74,273l3.4.14S464.85,253.62,464.43,249.89Z"/><path class="cls-86" d="M443.19,211.8s-.39-32.78,1-36.15c2.29-5.69,10.34-7.11,15.7-4.19,1.22,3.29-.15,22.22-.15,22.22a84.5,84.5,0,0,0,1.85,17.5C459.14,210.33,443.19,211.8,443.19,211.8Z"/><path class="cls-89" d="M448.76,175.4c0,.26.14.47.32.47s.32-.21.32-.47-.14-.48-.31-.48S448.77,175.13,448.76,175.4Z"/><path class="cls-65" d="M451.57,175.67c0,1.15-.7,2.09-1.57,2.09s-1.58-.94-1.58-2.09.7-2.09,1.58-2.09S451.57,174.52,451.57,175.67Z"/><polygon class="cls-90" points="443.14 211.96 463.03 211.96 463.05 209.94 443.16 209.94 443.14 211.96"/><path class="cls-86" d="M461.07,172.61a62.09,62.09,0,0,1,5.58,9.66,37.14,37.14,0,0,1,2,5.48,26.57,26.57,0,0,1,.92,5.92,25.63,25.63,0,0,1-.45,6,28.43,28.43,0,0,1-1.74,5.64,43.22,43.22,0,0,1-5.86,9.64,2.93,2.93,0,0,1-4.71-3.48l0,0a38,38,0,0,0,4.67-8.47,20.29,20.29,0,0,0,1.29-8.88,24,24,0,0,0-2.68-8.71,54.31,54.31,0,0,0-5.29-8.26h0a3.87,3.87,0,0,1,6.18-4.65Z"/><path class="cls-91" d="M451.62,173.65a13.21,13.21,0,0,0-1.54,0,1.21,1.21,0,0,0-1,.2c-.93-2.81.6-8.39-.34-10.83,2,.13,7.29,1.32,7.29,1.32s.05,3.2,0,5.9c-.44,2.24-1.6,4.15-3.2,4.91A1.74,1.74,0,0,0,451.62,173.65Z"/><path class="cls-92" d="M449.92,173.66,447.68,176s-.11-4-.07-4.31,1.33-1.38,1.33-1.38S448.87,172.64,449.92,173.66Z"/><path class="cls-92" d="M462.14,214.71c.17-.14,1.87-3.11,1.87-3.11s-.75-3-5.56-3.32a22.2,22.2,0,0,0-2,3.51Z"/><path class="cls-91" d="M456.29,217.8a3.9,3.9,0,1,1,5.43-.88A3.86,3.86,0,0,1,456.29,217.8Z"/><path class="cls-92" d="M422.53,197.81c.22,0,3.06,0,3.06,0a6.41,6.41,0,0,0-1.29-7.21,21.37,21.37,0,0,0-3.81,1.22Z"/><path class="cls-91" d="M416.85,199.09A4.42,4.42,0,1,1,423,197.9,4.42,4.42,0,0,1,416.85,199.09Z"/><path class="cls-93" d="M446.74,156.44a8.23,8.23,0,0,0-.8,3.72,1.15,1.15,0,0,1-.26,1c-.27.23,0,.69-.23.41a6.25,6.25,0,0,1-1.09-1.59,13.69,13.69,0,0,1-.12-2.56,3.68,3.68,0,0,1,.59-2.11,4.28,4.28,0,0,1,1-.85,5.16,5.16,0,0,1,1.66-.86c1.06-.26,1.73.09.83.9A6.47,6.47,0,0,0,446.74,156.44Z"/><path class="cls-91" d="M454.08,170.6l-4.37.65a28.17,28.17,0,0,1-.59-3.88c-1.28-.16-2.8-.5-3.3-1.83a4.59,4.59,0,0,1-.22-1.34c-.11-1.88-.21-3.76-.32-5.64a5.41,5.41,0,0,1,.11-1.93,3.91,3.91,0,0,1,2.21-2.21,8.23,8.23,0,0,1,7.57.07,4.23,4.23,0,0,1,1.59,1.47,6.66,6.66,0,0,1,.56,3.48l-.06,3.31c0,1.27-.14,2.74-1.07,3.46-.49.38-1.15.48-1.57,1C453.88,168,454.31,169.44,454.08,170.6Z"/><path class="cls-93" d="M445.45,165.31a4.64,4.64,0,0,0,1.81,2.86,6,6,0,0,0,3.57.63l2-.06c1.68-.05,3.35-.37,4.12-2.28a5.88,5.88,0,0,0,.33-2.86,2,2,0,0,0-.2-.76.61.61,0,0,0-.6-.34c-.3.06-.46.41-.64.68a1.45,1.45,0,0,1-1.73.68,2.33,2.33,0,0,1-.5-.34l-.2-.15a4.17,4.17,0,0,0-2.23-.78c-.67-.05-1.68-.26-2.15.37l-.82,1.1a1.62,1.62,0,0,1-.37.41,1.23,1.23,0,0,1-1.67-.48,2.93,2.93,0,0,1-.1-.66,1,1,0,0,0-.2-.62c-.53-.61-.62.41-.62.76A7.58,7.58,0,0,0,445.45,165.31Zm4.6.08a1.8,1.8,0,0,0,1.7.1c.3-.11.45.42.16.53a2.22,2.22,0,0,1-2.08-.14C449.55,165.71,449.78,165.21,450.05,165.39Z"/><path class="cls-93" d="M444.34,153.3a9.45,9.45,0,0,1-.34-1.37,2.65,2.65,0,0,0,1.34,0l0-.82c0-.22,3-.53,3.22-.57,2.26-.31,4.33-.6,6.45.54a6.28,6.28,0,0,1,3.39,4.54,9.74,9.74,0,0,1-1.18,6.25,13.32,13.32,0,0,0,.07-2.27,4.81,4.81,0,0,0-.55-1.4,5.87,5.87,0,0,0-2.14-2.06,11,11,0,0,0-4.51-1.28,11.81,11.81,0,0,0-4.55.23c-.66.22-.76.4-1.21-.27a12.09,12.09,0,0,1-.66-1.52Z"/><path class="cls-94" d="M448.45,272.6a7.54,7.54,0,0,0-3.37-.15c-1.81.32-4.2.74-4.37,1.05a1.35,1.35,0,0,0-.09.76s7.54-.09,7.85-.25S448.45,272.6,448.45,272.6Z"/><path class="cls-94" d="M464.14,272.6a7.54,7.54,0,0,0-3.37-.15c-1.81.32-4.2.74-4.37,1.05a1.35,1.35,0,0,0-.09.76s7.54-.09,7.85-.25S464.14,272.6,464.14,272.6Z"/><path class="cls-87" d="M454.57,212.9s7.79,3.53,7.24,4.35-.95,4.44-4,4.26-4-1.63-4-3.08A53,53,0,0,1,454.57,212.9Z"/><path class="cls-95" d="M450.2,212.37H447a1,1,0,0,1-.76-.32,1,1,0,0,1-.31-.76v-.95a.84.84,0,0,1,.84-.82h3.45a1.07,1.07,0,0,1,.76.31,1,1,0,0,1,.31.77v.69A1.1,1.1,0,0,1,450.2,212.37Zm-3.43-2.49a.47.47,0,0,0-.47.46v.95a.72.72,0,0,0,.71.71h3.2a.72.72,0,0,0,.72-.71v-.69a.75.75,0,0,0-.21-.51.71.71,0,0,0-.5-.21Z"/><path class="cls-95" d="M451.08,211.15h-2.69a.19.19,0,0,1-.18-.19.18.18,0,0,1,.18-.18h2.69a.19.19,0,0,1,.19.18A.2.2,0,0,1,451.08,211.15Z"/><polygon class="cls-92" points="452.5 176.42 449.92 173.66 456.1 169.18 457.46 170.53 452.5 176.42"/><polygon class="cls-65" points="449.37 176.57 447.4 204.13 448.56 207.26 450.17 204.35 450.1 176.79 449.37 176.57"/></g><g id="ava_04"><polygon class="cls-82" points="391.15 120.8 383.01 128.93 391.15 139.23 399.29 128.93 391.15 120.8"/><path class="cls-68" d="M383,128.93l3.25,4.11a15.77,15.77,0,0,0,9.93-.19l3.1-3.92-8.14-8.13Z"/><ellipse class="cls-82" cx="390.95" cy="115.95" rx="15.78" ry="15.78"/><ellipse class="cls-77" cx="390.95" cy="115.95" rx="14.93" ry="14.92"/><path class="cls-82" d="M397.38,113.8a6.17,6.17,0,1,0-6.17,6.17A6.17,6.17,0,0,0,397.38,113.8Z"/><path class="cls-82" d="M396,118.53a7.1,7.1,0,0,1-9.78-.17,16.39,16.39,0,0,0-6.77,7.76,15.6,15.6,0,0,0,23,0A16.61,16.61,0,0,0,396,118.53Z"/></g><g id="ava_03"><polygon class="cls-88" points="452.4 110.17 444.26 118.3 452.4 128.6 460.54 118.3 452.4 110.17"/><path class="cls-87" d="M444.26,118.3l3.25,4.11a15.77,15.77,0,0,0,9.93-.19l3.1-3.92-8.14-8.13Z"/><ellipse class="cls-88" cx="452.2" cy="105.32" rx="15.78" ry="15.78"/><ellipse class="cls-77" cx="452.2" cy="105.32" rx="14.93" ry="14.92"/><circle class="cls-88" cx="452.46" cy="103.17" r="6.17"/><path class="cls-88" d="M457.27,107.9a7.1,7.1,0,0,1-9.78-.17,16.39,16.39,0,0,0-6.77,7.76,15.6,15.6,0,0,0,23,0A16.61,16.61,0,0,0,457.27,107.9Z"/></g><g id="ava_02"><polygon class="cls-10" points="530.39 145.17 522.25 153.31 530.39 163.61 538.53 153.31 530.39 145.17"/><path class="cls-96" d="M522.25,153.31l3.25,4.11a15.77,15.77,0,0,0,9.93-.19l3.1-3.92-8.14-8.14Z"/><ellipse class="cls-10" cx="530.19" cy="140.33" rx="15.78" ry="15.78"/><ellipse class="cls-77" cx="530.19" cy="140.33" rx="14.93" ry="14.92"/><path class="cls-10" d="M536.62,138.18a6.17,6.17,0,1,0-6.17,6.17A6.17,6.17,0,0,0,536.62,138.18Z"/><path class="cls-10" d="M535.26,142.91a7.1,7.1,0,0,1-9.78-.17,16.39,16.39,0,0,0-6.77,7.76,15.62,15.62,0,0,0,23,0A16.68,16.68,0,0,0,535.26,142.91Z"/></g><g id="guy_03"><path class="cls-97" d="M625,203h-.44l-.3,0-.51-.06c-.34,0-.62-.11-.93-.17a15.38,15.38,0,0,1-1.66-.49l-.39-.14-.38-.16-.75-.33c-.47-.23-.94-.48-1.4-.74a22.63,22.63,0,0,1-4.71-3.69l-.51-.52-.26-.26-.23-.26-.94-1.08c-.32-.36-.58-.74-.87-1.11l-.84-1.12c-.51-.77-1-1.54-1.5-2.31L607,188.17a3,3,0,0,1,5-3.17l.12.17,1.36,2c.48.62,1,1.23,1.46,1.84l.78.85c.26.28.5.58.78.83l.82.78.2.2.21.17.43.35a15.7,15.7,0,0,0,3.52,2.29l.89.36.44.14.22.07.21.05a5.4,5.4,0,0,0,.81.15l.34,0h0A3.9,3.9,0,0,1,625,203Z"/><path class="cls-97" d="M625.32,181.85a115.49,115.49,0,0,0-3.47,13.28c-.83,5.13,5,6.12,5,6.12s3.19-6.42,3-10.09-2.5-9.44-2.5-9.44Z"/><path class="cls-2" d="M625.32,181.85s-1.35,4.17-2.43,8.42c2.14,1.54,5.42,4,6.4,4.71a12.41,12.41,0,0,0,.55-3.82c-.24-3.66-2.5-9.44-2.5-9.44Z"/><polygon class="cls-83" points="628.82 195.07 629.24 194.59 622.95 189.66 622.5 190.16 628.82 195.07"/><path class="cls-94" d="M643.7,262.88a13,13,0,0,0,.23,3.08c.28,1.87.84,4.35,1.12,4.56a6,6,0,0,0,1.68.24s.27-8,.12-8.33S643.7,262.88,643.7,262.88Z"/><path class="cls-87" d="M634.12,213.91l-.93.41c-.8.35-7.63.6-8.42.93l.68,58.78,2.56.11,0,.21s0-.07,0-.21l.78,0s.38-3.18,1-8.19c1.11-5.3,2.36-11.49,2.55-13.43.35-3.6.2-8.06.34-11,.13-2.77,2.23-22.75,1.8-27.8Z"/><path class="cls-88" d="M645.52,265.65a1.73,1.73,0,0,0,.88-2.2c-2-5.07-4.61-10.3-5.73-13.95a10.47,10.47,0,0,0-5.11-6s8.73-23.88,8.24-28.82c-.68-6.74-9.61-3.06-11-3.19-.64,8.52-4.06,23.51-5.64,28.89a10.15,10.15,0,0,0-.42,3c0,1.11,2.4,4.24,3.05,5.14,2.52,3.49,9.35,10.11,13.64,16.48a1.64,1.64,0,0,0,2.06.58Z"/><path class="cls-94" d="M629,274.18a7.31,7.31,0,0,0-3.35-.15c-1.87.31-4.33.73-4.56,1a1.33,1.33,0,0,0-.22.74s7.56-.08,7.9-.24S629,274.18,629,274.18Z"/><path class="cls-83" d="M624.69,215.61s0-5.93,0-11.91c0-8.7-.67-19.26.88-22.66,2.61-5.74,7.93-6.39,13.49-5.41s5.74,12.83,5,40C641.22,214.73,624.69,215.61,624.69,215.61Z"/><path class="cls-97" d="M645.57,181l.27.29.22.24.4.48c.27.31.52.63.76,1,.49.63,1,1.27,1.39,1.92a43.36,43.36,0,0,1,2.43,4,46.78,46.78,0,0,1,2,4.25c.15.36.28.73.41,1.1s.28.73.39,1.1l.36,1.12c.06.18.12.38.17.59l.17.6a32.59,32.59,0,0,1,.78,4.73c.15,1.54.22,3.06.23,4.57a67.33,67.33,0,0,1-.53,9,3,3,0,0,1-5.89-.57v0a61.72,61.72,0,0,0,0-8.16c-.09-1.35-.22-2.69-.42-4a25.54,25.54,0,0,0-.82-3.71l-.14-.41c0-.14-.09-.28-.15-.44l-.35-.91c-.11-.3-.25-.6-.38-.9s-.25-.59-.39-.89c-.55-1.17-1.16-2.32-1.83-3.44a35.58,35.58,0,0,0-2.19-3.21c-.38-.52-.79-1-1.2-1.49-.21-.24-.42-.48-.63-.7l-.3-.32-.15-.15-.1-.1a3.9,3.9,0,0,1,5.49-5.53Z"/><path class="cls-2" d="M640.76,176.39a3.7,3.7,0,0,0-1.7-.76c-4.24-.75-8.34-.55-11.2,2.14.14,2.48,1.14,5.33,5.47,5.33S639.76,179.46,640.76,176.39Z"/><path class="cls-97" d="M636.92,171.06s.48,10.42-3.51,10.42-1.13-5.61-2.27-8.35C632.85,173.24,636.92,171.06,636.92,171.06Z"/><path class="cls-97" d="M639.06,175.63c-3.65-.64-7.2-.59-9.94,1.16-.1,2.14.21,5.48,4.43,5.48,4,0,5.63-3.81,6.29-6.42A4.1,4.1,0,0,0,639.06,175.63Z"/><path class="cls-77" d="M630.13,169.47c-.27-.92,1-.22,2.27-.57s2-1.62,2.23-.71-.53,1.95-1.78,2.3A2.11,2.11,0,0,1,630.13,169.47Z"/><path class="cls-96" d="M606.16,180l5,11.72a1.08,1.08,0,0,0,1.29.61l4.53-1.32a.7.7,0,0,0,.45-.94l-5-11.71a1.07,1.07,0,0,0-1.28-.61l-4.53,1.31A.7.7,0,0,0,606.16,180Z"/><path class="cls-98" d="M605.69,180.11l5,11.72a1.08,1.08,0,0,0,1.28.61l4.54-1.32a.68.68,0,0,0,.44-.94l-5-11.71a1.07,1.07,0,0,0-1.28-.61l-4.54,1.31A.69.69,0,0,0,605.69,180.11Z"/><path class="cls-96" d="M606.1,180.06l1,2.32a.22.22,0,0,0,.26.12l.9-.26a.13.13,0,0,0,.09-.18l-1-2.33a.21.21,0,0,0-.25-.12l-.9.26A.14.14,0,0,0,606.1,180.06Z"/><circle class="cls-97" cx="610.23" cy="185.9" r="4.44"/><path class="cls-97" d="M654.93,220.7c-.84,2.31-2.32.55-4.62-.29s-4.57-.44-3.73-2.75a4.44,4.44,0,0,1,8.35,3Z"/><path class="cls-83" d="M640.54,176.27c.28,0,3.31,1,6.27,6.27s5.31,6.13,1.93,5.78S640.54,176.27,640.54,176.27Z"/><path class="cls-2" d="M651,188.93a43.36,43.36,0,0,0-2.43-4c-.43-.65-.9-1.29-1.39-1.92-.24-.32-.49-.64-.76-1l-.4-.48-.22-.24-.27-.29a3.9,3.9,0,0,0-5.49,5.53l.1.1.15.15.3.32c.21.22.42.46.63.7.41.48.82,1,1.2,1.49a35.58,35.58,0,0,1,2.19,3.21c.25.41.48.82.71,1.24,1.32-.8,4-2.44,6.18-3.86C651.38,189.58,651.21,189.26,651,188.93Z"/><polygon class="cls-83" points="644.8 193.66 645.12 194.21 651.91 190 651.59 189.41 644.8 193.66"/><path class="cls-2" d="M607.33,180.39a.36.36,0,0,1-.34.49.67.67,0,0,1-.6-.49.35.35,0,0,1,.34-.49A.67.67,0,0,1,607.33,180.39Z"/><path class="cls-2" d="M607.81,181.79a.31.31,0,0,1-.29.42.57.57,0,0,1-.51-.42.3.3,0,0,1,.29-.41A.57.57,0,0,1,607.81,181.79Z"/><g id="ava_01"><polygon class="cls-83" points="633.55 129.5 625.41 137.64 633.55 147.93 641.69 137.64 633.55 129.5"/><path class="cls-99" d="M625.41,137.64l3.25,4.1a15.86,15.86,0,0,0,9.93-.18l3.1-3.92-8.14-8.14Z"/><ellipse class="cls-83" cx="633.35" cy="124.66" rx="15.78" ry="15.78" transform="translate(506.21 757.52) rotate(-89.77)"/><ellipse class="cls-77" cx="633.35" cy="124.66" rx="14.92" ry="14.93" transform="translate(505.97 757.47) rotate(-89.75)"/><path class="cls-83" d="M638.3,127.13a7.1,7.1,0,0,1-9.78-.17,16.39,16.39,0,0,0-6.77,7.76,15.62,15.62,0,0,0,23,0A16.56,16.56,0,0,0,638.3,127.13Z"/><circle class="cls-83" cx="633.49" cy="122.4" r="6.17"/></g><path class="cls-97" d="M629.48,172.38a5.36,5.36,0,0,0,2.71,2.7,3.82,3.82,0,0,0,3.85-1c3-2.71,6.75-15.19-2.66-16.3C624.84,156.81,627.12,168,629.48,172.38Z"/><path class="cls-100" d="M637.6,167.08c.68.68.94,1.29,1.5.5,2.06-2.9,4-3.67,2.59-7.38-1.17-3.09-5-4.83-5.18-.72,0,1.45,1.13,3.26,1.19,4.86C637.79,166.61,638.19,164.9,637.6,167.08Z"/><path class="cls-100" d="M622.89,159.07c2.92,2.05,3.73,3.14,10.21,3.17,4.38,0,8.56-2.89,5.15-5.9C633.7,152.32,629.68,158.31,622.89,159.07Z"/></g><g id="girl"><path class="cls-10" d="M532.79,202.37a26,26,0,0,1-2.09-3.73,2.51,2.51,0,0,0-2.28-1.44l-3.68,0-1.8.08-3.86.88s1.47,2.72,1.28,3.55-.13,1-.45,2.28a5.23,5.23,0,0,0,0,1.8c3.9.2,10.48.35,14.52.46C535.3,205,533.48,203.29,532.79,202.37Z"/><path class="cls-91" d="M522.66,191.74l.28,5.57s4,3.46,4.39,3.57,1.4-2.76,1.16-3.57-.52-3.09-.6-3.36.12-3.29.12-3.94a12,12,0,0,0-.12-1.46Z"/><path class="cls-91" d="M533.1,187c0,5-2.52,9.11-5.62,9.11s-5.63-4.08-5.63-9.11,2.52-9.11,5.63-9.11S533.1,181.92,533.1,187Z"/><path class="cls-91" d="M523.67,191.14a1.75,1.75,0,0,0-.09-2.46,1.7,1.7,0,0,0-2.43.09,1.74,1.74,0,0,0,.09,2.45A1.71,1.71,0,0,0,523.67,191.14Z"/><path class="cls-101" d="M536.89,222.33c1.32.25,4.76-.67,5.55-1.88,1.83-2.81-2.5-1.94-4.06-2a9.22,9.22,0,0,0,.43-1.62c.07-.51-4.58.81-5,1.3-1.07,1.17-.58,2-.48,3.53C534.5,221.87,535.69,222.11,536.89,222.33Z"/><path class="cls-10" d="M522.6,203.34s0,0,0,0h0l0,0-.06.12-.13.27c-.09.19-.17.38-.25.58a10.71,10.71,0,0,0-.4,1.21,7.55,7.55,0,0,0-.27,2.3,4.63,4.63,0,0,0,1.79,3.54l.23.18.28.21.61.43c.41.28.84.56,1.29.82.88.53,1.8,1,2.75,1.52s1.92.93,2.91,1.36l1.49.62.76.31.38.14.31.13h0a1.09,1.09,0,0,1,.69,1.11,10.6,10.6,0,0,1-1.09,3.27,1.09,1.09,0,0,1-1.25.6c-.94-.24-1.66-.47-1.66-.47-.55-.18-1.11-.37-1.66-.57-1.1-.39-2.19-.81-3.28-1.27s-2.18-1-3.26-1.51c-.54-.28-1.08-.57-1.62-.88-.27-.16-.54-.32-.8-.49l-.42-.26-.44-.32a11.35,11.35,0,0,1-3.12-3.4,11.19,11.19,0,0,1-1.47-4.46,14.43,14.43,0,0,1,.21-4.38,16.81,16.81,0,0,1,.54-2c.1-.33.22-.66.35-1l.21-.5.12-.26.06-.14.1-.19a3.5,3.5,0,0,1,6.14,3.35Z"/><path class="cls-93" d="M532.62,188.24c.52,1.93-.5,3.89-1.4,5.57-.79,1.48-1.1,2.48.68,3,1,.29,2.78.82,3.71.1.7-.55.43-2.39.14-3.13-.22-.57-.86-.88-1.07-1.45a2.05,2.05,0,0,1-.07-.74,9.93,9.93,0,0,1,.59-3,10.51,10.51,0,0,0,.63-2c.14-1-.5-2.2-.82-3.14-.59-1.74-2.86-4.17-5-2.94a2.87,2.87,0,0,0-1,1.27,2.38,2.38,0,0,0-.31.93c-.09,1.31,1.09,1.59,1.88,2.27A6.51,6.51,0,0,1,532.62,188.24Z"/><path class="cls-93" d="M526.36,177.75c-2,.55-3.33,2.45-5.27,3.12-1.11.39-2.4.37-3.33,1.1-2.08,1.61-.69,5.34-2.44,7.31-.36.41-.84.71-1.2,1.12a5.78,5.78,0,0,0-1.09,3.32,3.73,3.73,0,0,0,0,.82c.1,2.74,4.07,2.79,5.65,2.7,1.73-.09,1.21-1.08,1.21-1.08l-.06-.08a3.32,3.32,0,0,1,1.33-2.93,4,4,0,0,0,1-.76c.56-.75.13-1.81.26-2.74.51-3.72,6.74-2.56,8.66-5.12C533.39,181.38,530.09,176.72,526.36,177.75Z"/><rect class="cls-10" x="520.72" y="190.95" width="2.06" height="2.06" rx="1.03" ry="1.03" transform="translate(17.1 425.24) rotate(-45.01)"/></g><path class="cls-100" d="M627,160.94c.2-.15.55.52.55.52a10.39,10.39,0,0,0-.21,1.23,15.65,15.65,0,0,0,0,1.88S626,161.76,627,160.94Z"/><path class="cls-2" d="M429.38,139.47a8.22,8.22,0,0,0-.76-2.52c-.39-.44-1.16-.31-1.72-.3a17.76,17.76,0,0,0-5,.77.9.9,0,0,0-.87,1,12.08,12.08,0,0,0,.17,2.48c.15.64.53,1.82,1.17,2.15s1.71,0,2.37-.16a12.76,12.76,0,0,0,4.84-2.17.32.32,0,0,0,.11-.12.33.33,0,0,0,0-.22Z"/><path class="cls-2" d="M412.45,145.89l2.44,2c-.05-.05,3.19-3.51,3.38-3.72a7.42,7.42,0,0,0,1.74-2.7,2.44,2.44,0,0,0-3.68-2.78,12.83,12.83,0,0,0-4.76,6.27.34.34,0,0,0,0,.17.4.4,0,0,0,.14.18Z"/><path class="cls-102" d="M750.29,100.66a7.79,7.79,0,1,0-15.57,0,7.63,7.63,0,0,0,.68,3.18,49.45,49.45,0,0,0,6.78,10,.45.45,0,0,0,.33.15.44.44,0,0,0,.32-.15,58.51,58.51,0,0,0,4.73-6.33L745,105a4.88,4.88,0,1,1,2.4-4.21,5,5,0,0,1-.67,2.48l2.11,2.11c.28-.51.54-1,.77-1.53a7.63,7.63,0,0,0,.68-3.18"/><path class="cls-102" d="M746.18,100.78a3.66,3.66,0,1,1-3.66-3.66A3.66,3.66,0,0,1,746.18,100.78Z"/></g></g></svg>