<?xml version="1.0" encoding="utf-8"?>
<!-- Generator: Adobe Illustrator 22.1.0, SVG Export Plug-In . SVG Version: 6.00 Build 0)  -->
<svg version="1.1" xmlns="http://www.w3.org/2000/svg" xmlns:xlink="http://www.w3.org/1999/xlink" x="0px" y="0px"
	 viewBox="0 0 770.5 298.5" style="enable-background:new 0 0 770.5 298.5;" xml:space="preserve">
<style type="text/css">
	.st0{display:none;}
	.st1{opacity:0.8;}
	.st2{fill:#E1E6FB;}
	.st3{fill:#F4CDAF;}
	.st4{fill:#D1D1D1;}
	.st5{fill:#373791;}
	.st6{fill:#EFEFEF;}
	.st7{fill:#304269;}
	.st8{fill:#3F3FAA;}
	.st9{fill:#4B45BD;}
	.st10{fill:#DEDAE8;}
	.st11{fill:#BAC5F4;}
	.st12{fill:#3C4043;}
	.st13{fill:#FFFFFF;}
	.st14{fill:#F8F8FF;}
	.st15{fill:url(#SVGID_1_);}
	.st16{fill:url(#SVGID_2_);}
	.st17{fill:url(#SVGID_3_);}
	.st18{fill:url(#SVGID_4_);}
	.st19{fill:#F5F5FC;}
	.st20{font-family:'ArialMT';}
	.st21{font-size:7.5457px;}
	.st22{fill:#F7F7F7;stroke:#E1E6FB;stroke-width:3;stroke-miterlimit:10;}
	.st23{fill:url(#SVGID_5_);}
	.st24{font-family:'Roboto-Medium';}
	.st25{font-size:47px;}
	.st26{fill:url(#SVGID_6_);}
	.st27{font-size:68px;}
	.st28{fill:url(#SVGID_7_);}
	.st29{font-size:24px;}
	.st30{fill:url(#SVGID_8_);}
	.st31{fill:url(#SVGID_9_);}
	.st32{fill:#F7F7F7;}
	.st33{fill:url(#SVGID_10_);}
	.st34{font-size:53.8214px;}
	.st35{fill:url(#SVGID_11_);}
	.st36{display:none;fill:#F7F7F7;}
	.st37{fill:url(#SVGID_12_);}
	.st38{fill:url(#SVGID_13_);}
	.st39{fill:url(#SVGID_14_);}
	.st40{fill:url(#SVGID_15_);}
	.st41{fill:url(#SVGID_16_);}
	.st42{fill:url(#SVGID_17_);}
	.st43{fill:#EAC5B0;}
	.st44{opacity:0.2;fill:#BAC5F4;}
	.st45{opacity:0.57;}
	.st46{fill:#E5E5E7;}
	.st47{fill:none;stroke:#D1D1D1;stroke-miterlimit:10;}
	.st48{fill:#47BEC4;}
	.st49{fill:none;stroke:#FFFFFF;stroke-width:2;stroke-miterlimit:10;}
	.st50{fill:#F77A4B;}
	.st51{fill:url(#SVGID_18_);}
	.st52{fill:url(#SVGID_19_);}
	.st53{fill:url(#SVGID_20_);}
	.st54{fill:url(#SVGID_21_);}
	.st55{fill:url(#SVGID_22_);}
	.st56{fill:url(#SVGID_23_);}
	.st57{fill:url(#SVGID_24_);}
	.st58{fill:url(#SVGID_25_);}
	.st59{fill:url(#SVGID_26_);}
	.st60{clip-path:url(#SVGID_28_);fill:#BAC5F4;}
	.st61{opacity:0.4;fill:#F1F2F2;}
	.st62{fill:#ACD9DD;}
	.st63{opacity:0.2;}
	.st64{fill:#FFFDF3;}
	.st65{fill:#232A35;}
	.st66{fill:#3B455A;}
	.st67{opacity:0.1;}
	.st68{fill:#000100;}
	.st69{fill:url(#SVGID_29_);}
	.st70{fill:url(#SVGID_30_);}
	.st71{fill:url(#SVGID_31_);}
	.st72{fill:url(#SVGID_32_);}
	.st73{fill:#BDBDBD;}
	.st74{fill:url(#SVGID_33_);}
	.st75{fill:#5A5A5C;}
	.st76{opacity:0.56;fill:url(#SVGID_34_);}
	.st77{opacity:0.66;fill:#FFFFFF;}
	.st78{fill:#C4DFE1;}
	.st79{fill:#33435A;}
	.st80{fill:#57859B;}
	.st81{fill:#427CCC;}
	.st82{fill:#FFBFA4;}
	.st83{fill:#141C2B;}
	.st84{fill:#BABCBC;}
	.st85{opacity:0.14;}
	.st86{fill:url(#SVGID_35_);}
	.st87{fill:url(#SVGID_36_);}
	.st88{fill:url(#SVGID_37_);}
	.st89{fill:url(#SVGID_38_);}
	.st90{fill:url(#SVGID_39_);}
	.st91{fill:url(#SVGID_40_);}
	.st92{display:inline;fill:url(#SVGID_41_);}
	.st93{display:inline;fill:url(#SVGID_42_);}
	.st94{display:inline;fill:url(#SVGID_43_);}
	.st95{display:inline;fill:url(#SVGID_44_);}
	.st96{display:inline;fill:url(#SVGID_45_);}
	.st97{display:inline;fill:url(#SVGID_46_);}
	.st98{fill:url(#SVGID_47_);}
	.st99{opacity:0.6;}
	.st100{fill:url(#SVGID_48_);}
	.st101{opacity:0.3;}
	.st102{fill:url(#SVGID_49_);}
	.st103{fill:url(#SVGID_50_);}
	.st104{fill:#DE937A;}
	.st105{fill:#28415A;}
	.st106{fill:#59595B;}
	.st107{fill:#39517C;}
	.st108{fill:#34383A;}
	.st109{fill:#F3CFC1;}
	.st110{fill:#FF6600;}
	.st111{fill:#D9E8F5;}
	.st112{fill:#F5CEB0;}
	.st113{fill:#F26101;}
	.st114{fill:#FFFFF2;}
	.st115{display:inline;}
	.st116{fill:#7DB5DB;}
	.st117{fill:#EFBFA5;}
	.st118{fill:#EACDB0;}
	.st119{fill:#4D4D4D;}
	.st120{display:inline;fill:#D8D8D8;stroke:#FFFFFF;stroke-miterlimit:10;}
	.st121{display:inline;fill:#BCBEC0;}
	.st122{display:inline;fill:#305399;}
	.st123{fill:#F0F1F1;}
	.st124{display:inline;opacity:0.1;fill:#000100;}
	.st125{display:inline;fill:#3B455A;}
	.st126{display:inline;fill:#7DB5DB;}
	.st127{fill:#98C7E2;}
	.st128{fill:#FFFDF0;}
	.st129{opacity:6.000000e-02;fill:#FFFFFF;}
	.st130{opacity:0.1;fill:#000100;}
	.st131{fill:url(#SVGID_51_);}
	.st132{fill:url(#SVGID_52_);}
	.st133{fill:url(#SVGID_53_);}
	.st134{fill:url(#SVGID_54_);}
	.st135{fill:url(#SVGID_55_);}
	.st136{fill:url(#SVGID_56_);}
	.st137{fill:url(#SVGID_57_);}
	.st138{fill:url(#SVGID_58_);}
	.st139{fill:#EAC1A4;}
	.st140{fill:#484F5B;}
	.st141{fill:#8CABEF;}
	.st142{fill:url(#SVGID_59_);}
	.st143{fill:url(#SVGID_60_);}
	.st144{fill:url(#SVGID_61_);}
	.st145{fill:url(#SVGID_62_);}
	.st146{fill:url(#SVGID_63_);}
	.st147{fill:url(#SVGID_64_);}
	.st148{fill:url(#SVGID_65_);}
	.st149{fill:url(#SVGID_66_);}
	.st150{fill:url(#SVGID_67_);}
	.st151{fill:url(#SVGID_68_);}
	.st152{fill:url(#SVGID_69_);}
	.st153{fill:url(#SVGID_70_);}
	.st154{fill:url(#SVGID_71_);}
	.st155{fill:url(#SVGID_72_);}
	.st156{fill:#BABCBE;}
	.st157{fill:#242449;}
	.st158{fill:#2F3787;}
	.st159{fill:#3D475B;}
	.st160{fill:#366362;}
	.st161{fill:#89B336;}
	.st162{fill:#96BD34;}
	.st163{opacity:7.000000e-02;}
	.st164{fill:#B5D381;}
	.st165{fill:#3B308A;}
	.st166{opacity:8.000000e-02;}
	.st167{fill:#F3E6DC;}
	.st168{fill:#92C59B;}
	.st169{fill:#88C9DA;}
	.st170{fill:#F9CD5B;}
	.st171{fill:#F6D5D5;}
	.st172{fill:#424DBF;}
	.st173{fill:#7EACF1;}
	.st174{fill:#F17187;}
	.st175{fill:#EAEAEA;}
	.st176{fill:#A0A2A6;}
	.st177{fill:#CE7361;}
	.st178{fill:#C7C8C9;}
	.st179{opacity:9.000000e-02;}
	.st180{opacity:0.15;}
	.st181{fill:#5B6475;}
	.st182{fill:#EDEDED;}
</style>
<g id="Слой_1" class="st0">
</g>
<g id="Слой_9">
	<g id="Слой_3__x28_копия2_x29_" class="st1">
	</g>
	<g id="Слой_10">
		<g>
			<path class="st2" d="M493.1,291.4c-0.8,0-1.4-0.7-1.4-1.4c0-0.8,0.6-1.4,1.4-1.4c0,0,0,0,0,0c0.4,0,0.8,0,1.2,0
				c2.3,0.1,4.7-0.1,7-0.4c0.8-0.1,1.5,0.5,1.6,1.2c0.1,0.8-0.5,1.5-1.2,1.6c-2.4,0.3-4.8,0.4-7.3,0.4c0,0-0.1,0-0.1,0
				C493.9,291.4,493.5,291.4,493.1,291.4z"/>
			<path class="st2" d="M486,290.8c-2.9-0.4-5.7-1-8.4-1.9c-0.7-0.2-1.2-1-0.9-1.7c0.2-0.7,1-1.2,1.8-0.9c2.6,0.8,5.2,1.4,8,1.8
				c0.8,0.1,1.3,0.8,1.2,1.6c-0.1,0.7-0.7,1.2-1.4,1.2C486.1,290.8,486.1,290.8,486,290.8z"/>
			<path class="st2" d="M507.1,288.7c-0.2-0.8,0.3-1.5,1-1.7c2.7-0.7,5.3-1.5,7.8-2.6c0.7-0.3,1.5,0,1.8,0.7c0.3,0.7,0,1.5-0.7,1.8
				c-2.6,1.1-5.3,2-8.2,2.7c-0.1,0-0.2,0-0.3,0C507.8,289.7,507.2,289.3,507.1,288.7z"/>
			<path class="st2" d="M470.9,286.3c-2.6-1.3-5-2.9-7.3-4.8c-0.6-0.5-0.7-1.4-0.2-2c0.5-0.6,1.4-0.7,2-0.1c2.1,1.8,4.3,3.3,6.7,4.4
				c0.7,0.3,1,1.2,0.6,1.9c-0.2,0.5-0.7,0.8-1.3,0.8C471.3,286.5,471.1,286.4,470.9,286.3z"/>
			<path class="st2" d="M521.5,283.3c-0.3-0.7-0.1-1.5,0.6-1.9c1.4-0.7,2.9-1.4,4.3-2.1l3.2-1.6c0.7-0.3,1.5-0.1,1.9,0.6
				c0.3,0.7,0.1,1.5-0.6,1.9l-3.2,1.6c-1.4,0.7-2.9,1.4-4.3,2.1c-0.2,0.1-0.4,0.1-0.6,0.1C522.2,284.1,521.7,283.8,521.5,283.3z"/>
			<path class="st2" d="M535.3,276.5c-0.3-0.7,0-1.5,0.7-1.9c2.9-1.3,5.4-2.4,7.8-3.4c0.7-0.3,1.5,0.1,1.8,0.8
				c0.3,0.7-0.1,1.5-0.8,1.8c-2.3,0.9-4.8,2-7.6,3.3c-0.2,0.1-0.4,0.1-0.6,0.1C536,277.4,535.5,277.1,535.3,276.5z"/>
			<path class="st2" d="M458.6,276.3c-1.8-2.3-3.4-4.8-4.6-7.4c-0.3-0.7,0-1.5,0.7-1.9c0.7-0.3,1.5,0,1.9,0.7
				c1.2,2.4,2.6,4.7,4.3,6.8c0.5,0.6,0.4,1.5-0.2,2c-0.3,0.2-0.6,0.3-0.9,0.3C459.2,276.8,458.8,276.6,458.6,276.3z"/>
			<path class="st2" d="M604.6,274.3c-2.6,0-5.4-0.3-8.6-0.9c-0.8-0.1-1.3-0.9-1.1-1.6c0.1-0.8,0.9-1.3,1.6-1.1
				c3,0.6,5.6,0.9,8.1,0.9c0.8,0,1.4,0.6,1.4,1.4C606,273.7,605.3,274.3,604.6,274.3L604.6,274.3z"/>
			<path class="st2" d="M610.1,272.5c-0.2-0.8,0.3-1.5,1.1-1.7c2.3-0.5,4.5-1.3,6.8-2.4c0.3-0.1,0.5-0.2,0.8-0.4
				c0.7-0.3,1.5,0,1.9,0.7c0.3,0.7,0,1.5-0.7,1.9c-0.3,0.1-0.6,0.3-0.9,0.4c-2.5,1.2-4.9,2-7.3,2.6c-0.1,0-0.2,0-0.3,0
				C610.9,273.5,610.3,273.1,610.1,272.5z"/>
			<path class="st2" d="M589.1,271.8l-0.5-0.1c-2.5-0.6-5-1.3-7.7-1.8c-0.8-0.2-1.3-0.9-1.1-1.6c0.1-0.8,0.9-1.3,1.6-1.1
				c2.7,0.5,5.3,1.2,7.8,1.8l0.5,0.1c0.7,0.2,1.2,0.9,1,1.7c-0.2,0.6-0.7,1.1-1.4,1.1C589.3,271.8,589.2,271.8,589.1,271.8z"/>
			<path class="st2" d="M549.5,270.7c-0.2-0.7,0.2-1.5,0.9-1.8c2.9-0.9,5.6-1.6,8.3-2.1c0.8-0.1,1.5,0.4,1.6,1.1
				c0.1,0.8-0.4,1.5-1.1,1.6c-2.6,0.5-5.2,1.1-8,2c-0.1,0-0.3,0.1-0.4,0.1C550.3,271.7,549.7,271.3,549.5,270.7z"/>
			<path class="st2" d="M574.2,268.9c-2.7-0.3-5.5-0.3-8.2-0.1c-0.8,0.1-1.4-0.5-1.5-1.3c0-0.8,0.5-1.4,1.3-1.5
				c2.8-0.2,5.7-0.1,8.6,0.1c0.7,0,1.3,0.7,1.3,1.4c0,0.8-0.6,1.4-1.4,1.4C574.3,268.9,574.2,268.9,574.2,268.9z"/>
			<path class="st2" d="M624.1,266.3c-0.5-0.5-0.5-1.4,0-2c1.8-1.8,3.3-4,4.4-6.5c0.3-0.7,1.1-1,1.8-0.7c0.7,0.3,1,1.1,0.7,1.8
				c-1.3,2.8-2.9,5.3-5,7.3c-0.3,0.3-0.6,0.4-1,0.4C624.7,266.7,624.4,266.6,624.1,266.3z"/>
			<path class="st2" d="M451.5,262.1c-0.7-2.9-1.1-5.8-1.1-8.7v0c0-0.8,0.6-1.4,1.4-1.4c0.8,0,1.4,0.6,1.4,1.4c0,2.6,0.3,5.3,1,8
				c0.2,0.7-0.3,1.5-1,1.7c-0.1,0-0.2,0-0.4,0C452.2,263.1,451.6,262.7,451.5,262.1z"/>
			<path class="st2" d="M452.4,247.9c-0.7-0.2-1.2-1-1-1.7c0.8-2.8,1.8-5.4,3.3-8.1c0.4-0.7,1.2-0.9,1.9-0.6
				c0.7,0.4,0.9,1.2,0.6,1.9c-1.3,2.5-2.3,4.9-3,7.5c-0.2,0.6-0.7,1-1.3,1C452.7,247.9,452.5,247.9,452.4,247.9z"/>
			<path class="st2" d="M628.7,237.1c-1-2.5-2.3-4.8-4-6.9c-0.5-0.6-0.4-1.5,0.2-2c0.6-0.5,1.5-0.4,2,0.2c1.8,2.3,3.3,4.8,4.4,7.6
				c0.3,0.7-0.1,1.5-0.8,1.8c-0.2,0.1-0.3,0.1-0.5,0.1C629.5,238,628.9,237.7,628.7,237.1z"/>
			<path class="st2" d="M458.9,234c-0.6-0.5-0.8-1.3-0.3-2l0.3-0.5c1.3-1.8,3.6-4,5.6-5.8c0.6-0.5,1.5-0.5,2,0.1
				c0.5,0.6,0.5,1.5-0.1,2c-1.9,1.8-4.1,3.8-5.3,5.4l-0.3,0.5c-0.3,0.4-0.7,0.6-1.1,0.6C459.4,234.3,459.1,234.2,458.9,234z"/>
			<path class="st2" d="M620,225.6c-2.2-1.7-4.5-3.2-6.8-4.6c-0.7-0.4-0.9-1.3-0.4-1.9c0.4-0.7,1.3-0.9,1.9-0.4
				c2.2,1.4,4.8,3,7.1,4.8c0.6,0.5,0.7,1.4,0.2,2c-0.3,0.4-0.7,0.5-1.1,0.5C620.5,225.9,620.2,225.8,620,225.6z"/>
			<path class="st2" d="M607.2,217.1c-2.7-2-4.7-4-6.3-6.2c-0.4-0.6-0.3-1.5,0.3-2c0.6-0.4,1.5-0.3,2,0.3c1.4,1.9,3.2,3.7,5.7,5.5
				c0.6,0.5,0.8,1.3,0.3,2c-0.3,0.4-0.7,0.6-1.1,0.6C607.7,217.3,607.4,217.2,607.2,217.1z"/>
			<path class="st2" d="M597.8,204.1c-0.5-1.8-0.7-3.7-0.8-5.8c0-0.3,0-0.5,0-0.8c0-0.8,0-1.5,0.1-2.2c0.1-0.8,0.7-1.3,1.5-1.3
				c0.8,0.1,1.3,0.7,1.3,1.5c-0.1,0.6-0.1,1.3-0.1,2c0,0.2,0,0.5,0,0.7c0,1.9,0.3,3.6,0.7,5.2c0.2,0.7-0.3,1.5-1,1.7
				c-0.1,0-0.2,0-0.3,0C598.5,205.2,598,204.8,597.8,204.1z"/>
			<path class="st2" d="M465.5,200c-2.1-1.2-4.7-2.4-7.5-3.6c-0.7-0.3-1-1.1-0.7-1.8c0.3-0.7,1.1-1,1.8-0.7c2.9,1.2,5.5,2.5,7.7,3.7
				c0.7,0.4,0.9,1.2,0.6,1.9c-0.3,0.5-0.7,0.7-1.2,0.7C465.9,200.2,465.7,200.1,465.5,200z"/>
			<path class="st2" d="M451.6,193.9c-2.9-1.1-5.8-2-7.9-2.7c-0.7-0.2-1.1-1-0.9-1.8c0.2-0.7,1-1.1,1.8-0.9c2.2,0.7,5,1.7,8,2.8
				c0.7,0.3,1.1,1.1,0.8,1.8c-0.2,0.6-0.7,0.9-1.3,0.9C451.9,194,451.7,194,451.6,193.9z"/>
			<path class="st2" d="M599.6,190c-0.7-0.3-1-1.2-0.7-1.9c1.2-2.6,3-4.9,5.5-7c0.6-0.5,1.5-0.4,2,0.2c0.5,0.6,0.4,1.5-0.2,2
				c-2.2,1.9-3.7,3.8-4.8,6.1c-0.2,0.5-0.7,0.8-1.3,0.8C600,190.1,599.8,190.1,599.6,190z"/>
			<path class="st2" d="M437,189l-0.7-0.2c-2.7-1.1-5.1-2.2-7.2-3.4c-0.7-0.4-0.9-1.2-0.5-1.9c0.4-0.7,1.2-0.9,1.9-0.5
				c1.9,1.1,4.2,2.2,6.7,3.2l0.6,0.2c0.7,0.3,1.1,1.1,0.9,1.8c-0.2,0.6-0.7,0.9-1.3,0.9C437.3,189,437.1,189,437,189z"/>
			<path class="st2" d="M423.3,180.9c-2.3-2.3-3.9-4.8-4.8-7.6c-0.2-0.7,0.2-1.5,0.9-1.8c0.7-0.2,1.5,0.2,1.8,0.9
				c0.8,2.4,2.1,4.5,4.1,6.4c0.6,0.5,0.6,1.4,0,2c-0.3,0.3-0.6,0.4-1,0.4C423.9,181.3,423.5,181.2,423.3,180.9z"/>
			<path class="st2" d="M609.9,178.9c-0.4-0.7-0.2-1.5,0.4-1.9l1.7-1.1c1.8-1.1,3.6-2.2,5.3-3.5c0.6-0.5,1.5-0.3,2,0.3
				c0.5,0.6,0.3,1.5-0.3,2c-1.8,1.3-3.7,2.5-5.5,3.6l-1.7,1c-0.2,0.1-0.5,0.2-0.7,0.2C610.6,179.5,610.1,179.3,609.9,178.9z"/>
			<path class="st2" d="M622.4,170c-0.6-0.5-0.6-1.4-0.1-2c1.8-2,3.1-4.2,4.1-6.7c0.3-0.7,1.1-1.1,1.8-0.8c0.7,0.3,1.1,1.1,0.8,1.8
				c-1.1,2.8-2.6,5.3-4.6,7.5c-0.3,0.3-0.7,0.5-1,0.5C623,170.3,622.7,170.2,622.4,170z"/>
			<path class="st2" d="M418.9,167.4c-0.8-0.1-1.3-0.7-1.3-1.5c0.1-0.8,0.2-1.6,0.3-2.4c0.4-2.3,1.1-4.3,2.3-6.2
				c0.4-0.7,1.3-0.9,1.9-0.5c0.7,0.4,0.9,1.3,0.5,1.9c-0.9,1.6-1.6,3.3-1.9,5.2c-0.1,0.7-0.2,1.5-0.3,2.1c-0.1,0.7-0.7,1.3-1.4,1.3
				C419,167.4,418.9,167.4,418.9,167.4z"/>
			<path class="st2" d="M423.7,153.3c-0.7-0.3-1-1.2-0.7-1.9c0.3-0.7,0.7-1.4,1.1-2.2c1.2-2,2.6-3.6,4.3-5c0.6-0.5,1.5-0.4,2,0.2
				c0.5,0.6,0.4,1.5-0.2,2c-1.4,1.1-2.6,2.5-3.6,4.2c-0.4,0.6-0.7,1.3-1,1.9c-0.3,0.7-1.1,1-1.8,0.7
				C423.7,153.3,423.7,153.3,423.7,153.3z"/>
			<path class="st2" d="M629.2,156.5c-0.8-0.1-1.3-0.8-1.2-1.6c0.2-1.6,0.3-3.1,0.3-4.7c0-1.1-0.1-2.2-0.2-3.3
				c-0.1-0.8,0.5-1.5,1.2-1.5c0.8-0.1,1.5,0.5,1.5,1.2c0.1,1.2,0.2,2.4,0.2,3.7c0,1.7-0.1,3.4-0.4,5.1c-0.1,0.7-0.7,1.2-1.4,1.2
				C629.3,156.5,629.3,156.5,629.2,156.5z"/>
			<path class="st2" d="M541.1,95.9c-0.4,0.7-1.2,0.9-1.9,0.5c-2.8-1.6-5.1-2.7-7.3-3.6c-0.7-0.3-1.1-1.1-0.8-1.8
				c0.3-0.7,1.1-1.1,1.8-0.8c2.4,0.9,4.8,2.1,7.8,3.8c0.2,0.1,0.4,0.3,0.5,0.5C541.4,94.9,541.4,95.4,541.1,95.9z"/>
			<path class="st2" d="M626.6,140.4c-0.9-2.5-2.2-4.8-3.8-7c-0.5-0.6-0.3-1.5,0.3-2c0.6-0.5,1.5-0.3,2,0.3c1.8,2.3,3.2,4.9,4.2,7.7
				c0.3,0.7-0.1,1.5-0.8,1.8c-0.2,0.1-0.3,0.1-0.5,0.1C627.4,141.3,626.9,141,626.6,140.4z"/>
			<path class="st2" d="M618.2,128.7c-2-1.7-4.3-3.1-6.8-4.2c-0.7-0.3-1-1.2-0.7-1.9c0.3-0.7,1.2-1,1.9-0.7c2.7,1.3,5.2,2.8,7.4,4.6
				c0.6,0.5,0.7,1.4,0.2,2c-0.3,0.3-0.7,0.5-1.1,0.5C618.8,129,618.5,128.9,618.2,128.7z"/>
			<path class="st2" d="M605,122.2c-2.3-0.6-4.8-1-7.3-1.2l-0.7-0.1c-0.8,0-1.4-0.7-1.3-1.5c0-0.8,0.7-1.4,1.5-1.3l0.8,0.1
				c2.7,0.2,5.3,0.7,7.7,1.3c0.7,0.2,1.2,1,1,1.7c-0.2,0.6-0.7,1-1.4,1C605.3,122.2,605.1,122.2,605,122.2z"/>
			<path class="st2" d="M574.6,121.1c-3.3-0.2-6.1-0.6-8.6-1.4c-0.7-0.2-1.2-1-0.9-1.7c0.2-0.7,1-1.2,1.7-0.9
				c2.3,0.7,4.9,1.1,7.9,1.3c0.8,0,1.4,0.7,1.3,1.5C576.1,120.6,575.5,121.1,574.6,121.1C574.7,121.1,574.7,121.1,574.6,121.1z"/>
			<path class="st2" d="M559.4,116.7c-2.4-1.4-4.7-3.2-6.9-5.3c-0.6-0.5-0.6-1.4,0-2c0.5-0.6,1.4-0.6,2,0c2,2,4.1,3.6,6.4,4.9
				c0.7,0.4,0.9,1.2,0.5,1.9c-0.3,0.4-0.7,0.7-1.2,0.7C559.9,116.9,559.6,116.8,559.4,116.7z"/>
			<path class="st2" d="M547.7,106c-1.6-2-3.1-4.1-4.6-6.2l-0.4-0.6c-0.5-0.6-0.3-1.5,0.3-2c0.6-0.5,1.5-0.3,2,0.3l0.4,0.6
				c1.5,2,3,4.1,4.5,6.1c0.5,0.6,0.4,1.5-0.2,2c-0.3,0.2-0.6,0.3-0.9,0.3C548.4,106.5,548,106.3,547.7,106z"/>
		</g>
		<g>
			<g>
				<g>
					<path class="st3" d="M510.8,153.1c-0.1-0.5-0.1-1.1-0.5-1.5c-0.3-0.4-1-0.6-1.4-0.2c-0.9,0.9-0.5,1-1.7,0.8
						c-1.8-0.3-3.3-2.4-4.8-0.8c-1.4,1.6-0.3,2.2,1.2,2.9c1.2,0.5,2.5,1,3.4,2c0.6,0.6,2.3,3.4,2.3,4.2c0.1,0.1,0.2,0.3,0.3,0.4
						c0.2,0.1,0.6,0,0.8-0.2C513.4,158.7,511.2,156,510.8,153.1z"/>
					<path class="st4" d="M521.9,169.5c-2.4-3.3-4.3-7.1-6.8-10.4c-1.2-1.5-1.2-2.2-3.3-2.4c-0.5,0-5,1.1-4.9,1.5
						c2.1,8.4,4.7,16.6,7.9,24.6c1.9,4.8,5.2,3.4,9.8,3.4c4.9-0.1,9.7-0.1,14.6-0.2c2.7,0,5.7-0.2,7.4-2.3c2-2.4,3.1-7.1,2.7-10
						c-0.6-5.3-4.4-4.9-8.6-4.3c-4.7,0.7-9.4,1.4-14.2,2.2c-0.9,0.1-1.8,0.3-2.6-0.1c-0.6-0.3-1.1-0.8-1.5-1.4
						C522.3,169.9,522.1,169.7,521.9,169.5z"/>
				</g>
				<g>
					<path class="st5" d="M524.6,240c0.5-4.5,2.8-8,6.9-10c3.4-1.6,7.2-2,10.8-2.4c8.2-1.1,16.1-2.1,24.4-1.8
						c6.6,0.3,10.7,5.9,13.8,11.5c2,3.5,1.4,5.2-1.1,8.1c-2.3,2.7-5,5-8.1,6.8c-6.1,3.5-15.5,2.6-22.2,1.9
						c-6.3-0.7-12.5-2.6-18.2-5.6C527.4,246.6,524.1,244.4,524.6,240z"/>
					<path class="st6" d="M553.4,168.4c-3.1-0.4-6.3-1-8.9,0.2c-2.2,1-2.2,3.8-2.7,5.9c-1.6,7-2.9,14.1-3.8,21.2
						c-0.5,3.4-1.3,7.1-1.2,10.5c0,2.8,0.7,5.4,0.5,8.3c-0.2,2.2-1.1,4.5-3.1,5.4c-1,0.4-2.1,0.5-3.1,0.9c-1,0.4-1.9,1.6-1.4,2.6
						c0.2,0.5,0.7,0.7,1.2,1c2.5,1.4,4.9,2.8,7.4,4.1c1.9,1.1,3.8,2.1,5.8,2.8c2.9,1,6,1.4,9,1.5c7.9,0.4,15.8-0.5,23.5-2.6
						c4.1-1.1,8.1-3.1,7.1-7.8c-1-4.8-3-9.5-5.1-13.9c-2.6-5.3-3.4-11.7-5.2-17.3c-1.7-5.2-3.4-10.4-5.3-15.5
						c-0.9-2.5-2.6-4.9-5-6.1C560,168,556.6,168.8,553.4,168.4z"/>
					<g>
						<path class="st7" d="M539.5,255c-0.7,0-1.4,0.1-2.1,0.1c-0.8,0-1.6,0.1-2.2-0.5c-0.7-0.6-0.6-1.8-0.1-2.6
							c0.6-0.8,1.5-1.2,2.4-1.4c2.2-0.7,4.5-0.9,6.7-1c0.2,0,0.5,0,0.7,0.1c0.4,0.1,0.6,0.5,0.7,0.9
							C546.9,254.6,542.3,254.9,539.5,255z"/>
						<g>
							<path class="st7" d="M566.9,261.7c0,0.3,0.1,0.7-0.1,0.9c-0.1,0.2-0.3,0.4-0.5,0.5c-1.5,0.9-3.4-0.1-4.6-1.4
								c-1.1-1.3-1.9-3-3.3-4c-3.3-2.3-0.3-6.4,3.1-5.4C565.6,253.4,566.5,258.2,566.9,261.7z"/>
							<g>
								<path class="st8" d="M586.4,244.4c2.8-1.3,5.6-3,6.7-6.2c1.1-3.2-0.1-8.6-3.6-11.5c-4.2-3.6-8.5-1.7-11.6,0.3
									c-6.4,4.2-13.3,7.5-20.1,11.1c-2.3,1.2-10.3,5.8-10.3,5.8c-0.2,0.9,3.7,10.5,4.8,10.5C564.4,254.3,576.4,249.3,586.4,244.4z
									"/>
								<path class="st9" d="M522.7,240.4c-2.8-2.1-5.7-4.4-6.7-7.9c-1-3.5,0.4-8.5,4.1-10.5c4.5-2.5,8.8,0.6,12,3.4
									c6.5,5.8,13.6,11,20.5,16.4c2.3,1.8,10.5,8.5,10.5,8.5c0.2,0.9-4.1,9.4-5.3,9.1C545.1,256,532.8,247.8,522.7,240.4z"/>
							</g>
						</g>
					</g>
				</g>
				<g>
					<polygon class="st10" points="516.9,228.1 552.8,216.8 597.2,219.1 572.1,230.2 					"/>
					<polygon class="st11" points="517,225 515.6,190.1 570.5,191.5 572.1,228.8 					"/>
					<path class="st11" d="M596.4,219c-8.1,3.2-16.2,6.5-24.2,9.7c0,0-0.1,0-0.1,0l0.1-1.7L517,225l-0.1,3.1l54.7,2.1
						c0.1,0.5,0.5,0.9,1.1,0.7c8.1-3.2,16.2-6.5,24.2-9.7C598.1,220.6,597.6,218.5,596.4,219z"/>
				</g>
				<g>
					<path class="st3" d="M572.8,216.9c-0.3,0.2-0.6,0.4-0.6,0.7c0,0.2,0.1,0.4,0.2,0.6c0.3,0.5,0.8,1,1.4,1.2
						c0.6,0.2,1.3-0.1,1.5-0.7c0.6,0.9,0,2.2-0.7,2.9c-0.8,0.7-1.8,1.3-2.4,2.1c-0.5,0.7-0.7,1.5-0.9,2.3c2.6,0.7,5.5-0.5,6.9-2.9
						c0.5-0.9,0.8-1.9,1.1-2.9c0.5-1.8,1-3.7,1.6-5.5c-1.4-1-2.6-2.3-4.2-1.7C575.4,213.7,574,216,572.8,216.9z"/>
					<path class="st4" d="M586.4,208.4c0.1,4.4-1.8,9.1-5.6,11.2c-1.1-2.4-3.2-4.1-4.5-6.3c-3.4-5.7-1.1-13.1-3.2-19.4
						c-1.2-3.5-3.6-6.2-5.7-9.2c-1.1-1.6-2.1-3.1-2.9-4.8c-0.5-1-2.1-3-2.3-3.9c-0.2-0.6,0-1.3,0.2-1.9c0.3-1-0.2-4,0.8-4.3
						c1.1-0.4,4,1.1,5,1.7C583.7,180.7,586.3,204,586.4,208.4z"/>
				</g>
			</g>
			<g>
				<path class="st3" d="M557,170.2c-0.1,0.1-0.2,0.3-0.4,0.4c-0.6,0.5-1.4,0.6-2.2,0.8c-1,0.2-2,0.4-3,0.1
					c-3.1-0.9-1.7-6.2-1.4-8.5c-2-0.7-4.4-1.9-4.7-4.2c-0.1-0.7,0-1.5,0.2-2.3c0.5-3.1,1.1-6.2,1.6-9.3c0.2-1.1,0.4-2.2,0.9-3.1
					c0.9-1.6,2.7-2.4,4.4-2.7c4.3-0.9,9,0,12.2,3c0.9,0.8,1.7,1.8,2,3c0.6,1.9,0.1,3.9-0.4,5.9c-0.5,1.8-0.9,3.6-1.4,5.4
					c-0.5,2.1-1.3,4.4-3,5.2c-0.9,0.4-2.1,0.3-2.9,1C557.3,166.1,558.2,168.8,557,170.2z"/>
			</g>
			<path class="st12" d="M545.4,158.1c0,1.6,0.6,3.1,1.9,4.2c1.5,1.2,3.5,1.6,5.5,1.9c1.1,0.2,2.1,0.4,3.2,0.5
				c2.7,0.5,5.5,0.6,7.3-1.6c0.9-1,1.3-2.3,1.5-3.5c0-0.3,0.1-0.7-0.1-1c-0.1-0.3-0.5-0.6-0.8-0.6c-0.5,0-0.9,0.4-1.2,0.7
				c-0.8,0.6-2.1,0.9-3,0.3c-0.3-0.2-0.5-0.4-0.7-0.6c-0.1-0.1-0.2-0.2-0.3-0.3c-0.9-0.8-2.1-1.3-3.3-1.7c-1.1-0.3-2.6-0.8-3.5-0.2
				c-0.6,0.4-1.1,0.8-1.7,1.1c-0.2,0.2-0.5,0.3-0.7,0.4c-0.3,0.1-0.6,0.1-0.9,0c-0.7-0.1-1.5-0.5-1.6-1.2c-0.1-0.3,0-0.6,0.1-0.9
				c0-0.3,0.1-0.6-0.1-0.9c-0.6-0.9-1.1,0.3-1.3,0.8C545.5,156.5,545.4,157.3,545.4,158.1z M552.7,159.6c0.8,0.6,1.7,0.8,2.7,0.6
				c0.5-0.1,0.6,0.7,0.1,0.7c-1.2,0.1-2.3-0.1-3.2-0.8C551.8,159.9,552.3,159.3,552.7,159.6z"/>
			<path class="st12" d="M547.3,140.8c-0.2-0.8-0.3-1.7-0.4-2.5c0.6,0.3,1.3,0.3,2,0.2c0-0.5,0-1,0-1.5c0-0.4,4.4-0.7,4.8-0.7
				c3.4-0.3,8.9,0.7,11.9,3c2.6,1.9,3.5,2.5,3.9,6.3c0.4,3.6-2.5,9.1-4.2,12c0-0.9,0.7-3.2,0.5-4.1c-0.1-0.9-0.4-1.8-0.7-2.6
				c-0.7-1.6-1.8-3-3-3.9c-2-1.5-4.3-2.3-6.6-2.7c-2.1-0.4-4.7-0.7-6.7,0c-1,0.3-1.2,0.6-1.8-0.6c-0.1-0.2-0.9-2.8-0.9-2.8
				C546.6,140.8,547,140.8,547.3,140.8z"/>
		</g>
		<g id="Layer_2_1_">
			<path class="st9" d="M438.4,72.9h85.5c2.4,0,4.3,1.9,4.3,4.3v60.7c0,2.4-1.9,4.3-4.3,4.3h-85.5c-2.4,0-4.3-1.9-4.3-4.3V77.2
				C434.1,74.9,436,72.9,438.4,72.9z"/>
			<rect x="437.3" y="74" class="st9" width="89.7" height="4.9"/>
			<rect x="437.3" y="78.6" class="st9" width="89.7" height="62.5"/>
		</g>
		<g id="Layer_3_1_">
			<path class="st11" d="M453.4,81h8.5c0.7,0,1.3,0.6,1.3,1.3v9.9c0,0.7-0.6,1.3-1.3,1.3h-8.5c-0.7,0-1.3-0.6-1.3-1.3v-9.9
				C452.1,81.6,452.7,81,453.4,81z"/>
			<path class="st11" d="M465.8,81h8.5c0.7,0,1.3,0.6,1.3,1.3v9.9c0,0.7-0.6,1.3-1.3,1.3h-8.5c-0.7,0-1.3-0.6-1.3-1.3v-9.9
				C464.5,81.6,465.1,81,465.8,81z"/>
			<path class="st11" d="M477.9,81h8.5c0.7,0,1.3,0.6,1.3,1.3v9.9c0,0.7-0.6,1.3-1.3,1.3h-8.5c-0.7,0-1.3-0.6-1.3-1.3v-9.9
				C476.7,81.6,477.2,81,477.9,81z"/>
			<path class="st13" d="M490.3,81h8.5c0.7,0,1.3,0.6,1.3,1.3v9.9c0,0.7-0.6,1.3-1.3,1.3h-8.5c-0.7,0-1.3-0.6-1.3-1.3v-9.9
				C489.1,81.6,489.6,81,490.3,81z"/>
			<path class="st13" d="M502.4,81h8.5c0.7,0,1.3,0.6,1.3,1.3v9.9c0,0.7-0.6,1.3-1.3,1.3h-8.5c-0.7,0-1.3-0.6-1.3-1.3v-9.9
				C501.2,81.6,501.7,81,502.4,81z"/>
			<path class="st13" d="M514.8,81h8.5c0.7,0,1.3,0.6,1.3,1.3v9.9c0,0.7-0.6,1.3-1.3,1.3h-8.5c-0.7,0-1.3-0.6-1.3-1.3v-9.9
				C513.6,81.6,514.1,81,514.8,81z"/>
			<path class="st13" d="M453.4,95.3h8.5c0.7,0,1.3,0.6,1.3,1.3v9.9c0,0.7-0.6,1.3-1.3,1.3h-8.5c-0.7,0-1.3-0.6-1.3-1.3v-9.9
				C452.1,95.9,452.7,95.3,453.4,95.3z"/>
			<path class="st13" d="M465.8,95.3h8.5c0.7,0,1.3,0.6,1.3,1.3v9.9c0,0.7-0.6,1.3-1.3,1.3h-8.5c-0.7,0-1.3-0.6-1.3-1.3v-9.9
				C464.5,95.9,465.1,95.3,465.8,95.3z"/>
			<path class="st14" d="M477.9,95.3h8.5c0.7,0,1.3,0.6,1.3,1.3v9.9c0,0.7-0.6,1.3-1.3,1.3h-8.5c-0.7,0-1.3-0.6-1.3-1.3v-9.9
				C476.7,95.9,477.2,95.3,477.9,95.3z"/>
			<path class="st13" d="M490.3,95.3h8.5c0.7,0,1.3,0.6,1.3,1.3v9.9c0,0.7-0.6,1.3-1.3,1.3h-8.5c-0.7,0-1.3-0.6-1.3-1.3v-9.9
				C489.1,95.9,489.6,95.3,490.3,95.3z"/>
			<linearGradient id="SVGID_1_" gradientUnits="userSpaceOnUse" x1="501.1837" y1="101.5075" x2="512.2328" y2="101.5075">
				<stop  offset="6.775068e-04" style="stop-color:#93DF93"/>
				<stop  offset="0.9993" style="stop-color:#21C2C1"/>
			</linearGradient>
			<path class="st15" d="M502.4,95.3h8.5c0.7,0,1.3,0.6,1.3,1.3v9.9c0,0.7-0.6,1.3-1.3,1.3h-8.5c-0.7,0-1.3-0.6-1.3-1.3v-9.9
				C501.2,95.9,501.7,95.3,502.4,95.3z"/>
			<path class="st13" d="M514.8,95.3h8.5c0.7,0,1.3,0.6,1.3,1.3v9.9c0,0.7-0.6,1.3-1.3,1.3h-8.5c-0.7,0-1.3-0.6-1.3-1.3v-9.9
				C513.6,95.9,514.1,95.3,514.8,95.3z"/>
			<path class="st13" d="M453.4,109.1h8.5c0.7,0,1.3,0.6,1.3,1.3v9.9c0,0.7-0.6,1.3-1.3,1.3h-8.5c-0.7,0-1.3-0.6-1.3-1.3v-9.9
				C452.1,109.6,452.7,109.1,453.4,109.1z"/>
			<path class="st13" d="M465.8,109.1h8.5c0.7,0,1.3,0.6,1.3,1.3v9.9c0,0.7-0.6,1.3-1.3,1.3h-8.5c-0.7,0-1.3-0.6-1.3-1.3v-9.9
				C464.5,109.6,465.1,109.1,465.8,109.1z"/>
			<linearGradient id="SVGID_2_" gradientUnits="userSpaceOnUse" x1="476.6601" y1="115.2515" x2="487.7092" y2="115.2515">
				<stop  offset="6.775068e-04" style="stop-color:#93DF93"/>
				<stop  offset="0.9993" style="stop-color:#21C2C1"/>
			</linearGradient>
			<path class="st16" d="M477.9,109.1h8.5c0.7,0,1.3,0.6,1.3,1.3v9.9c0,0.7-0.6,1.3-1.3,1.3h-8.5c-0.7,0-1.3-0.6-1.3-1.3v-9.9
				C476.7,109.6,477.2,109.1,477.9,109.1z"/>
			<path class="st13" d="M490.3,109.1h8.5c0.7,0,1.3,0.6,1.3,1.3v9.9c0,0.7-0.6,1.3-1.3,1.3h-8.5c-0.7,0-1.3-0.6-1.3-1.3v-9.9
				C489.1,109.6,489.6,109.1,490.3,109.1z"/>
			<path class="st14" d="M502.4,109.1h8.5c0.7,0,1.3,0.6,1.3,1.3v9.9c0,0.7-0.6,1.3-1.3,1.3h-8.5c-0.7,0-1.3-0.6-1.3-1.3v-9.9
				C501.2,109.6,501.7,109.1,502.4,109.1z"/>
			<path class="st13" d="M514.8,109.1h8.5c0.7,0,1.3,0.6,1.3,1.3v9.9c0,0.7-0.6,1.3-1.3,1.3h-8.5c-0.7,0-1.3-0.6-1.3-1.3v-9.9
				C513.6,109.6,514.1,109.1,514.8,109.1z"/>
			<linearGradient id="SVGID_3_" gradientUnits="userSpaceOnUse" x1="452.406" y1="129.265" x2="463.4551" y2="129.265">
				<stop  offset="6.775068e-04" style="stop-color:#93DF93"/>
				<stop  offset="0.9993" style="stop-color:#21C2C1"/>
			</linearGradient>
			<path class="st17" d="M453.7,123.1h8.5c0.7,0,1.3,0.6,1.3,1.3v9.9c0,0.7-0.6,1.3-1.3,1.3h-8.5c-0.7,0-1.3-0.6-1.3-1.3v-9.9
				C452.4,123.6,453,123.1,453.7,123.1z"/>
			<path class="st14" d="M466.1,123.1h8.5c0.7,0,1.3,0.6,1.3,1.3v9.9c0,0.7-0.6,1.3-1.3,1.3h-8.5c-0.7,0-1.3-0.6-1.3-1.3v-9.9
				C464.8,123.6,465.4,123.1,466.1,123.1z"/>
			<path class="st13" d="M478.2,123.1h8.5c0.7,0,1.3,0.6,1.3,1.3v9.9c0,0.7-0.6,1.3-1.3,1.3h-8.5c-0.7,0-1.3-0.6-1.3-1.3v-9.9
				C476.9,123.6,477.5,123.1,478.2,123.1z"/>
			<path class="st13" d="M490.6,123.1h8.5c0.7,0,1.3,0.6,1.3,1.3v9.9c0,0.7-0.6,1.3-1.3,1.3h-8.5c-0.7,0-1.3-0.6-1.3-1.3v-9.9
				C489.3,123.6,489.9,123.1,490.6,123.1z"/>
			<linearGradient id="SVGID_4_" gradientUnits="userSpaceOnUse" x1="501.4532" y1="129.265" x2="512.5023" y2="129.265">
				<stop  offset="1.376186e-03" style="stop-color:#F8C547"/>
				<stop  offset="1" style="stop-color:#F71D69"/>
			</linearGradient>
			<path class="st18" d="M502.7,123.1h8.5c0.7,0,1.3,0.6,1.3,1.3v9.9c0,0.7-0.6,1.3-1.3,1.3h-8.5c-0.7,0-1.3-0.6-1.3-1.3v-9.9
				C501.5,123.6,502,123.1,502.7,123.1z"/>
			<path class="st13" d="M515.1,123.1h8.5c0.7,0,1.3,0.6,1.3,1.3v9.9c0,0.7-0.6,1.3-1.3,1.3h-8.5c-0.7,0-1.3-0.6-1.3-1.3v-9.9
				C513.8,123.6,514.4,123.1,515.1,123.1z"/>
			<circle class="st11" cx="439.9" cy="76.6" r="0.9"/>
			<circle class="st11" cx="442.8" cy="76.6" r="0.9"/>
			<circle class="st11" cx="445.8" cy="76.6" r="0.9"/>
			<path class="st13" d="M441.2,95h7.5c0.7,0,1.2,0.5,1.2,1.2l0,0c0,0.7-0.5,1.2-1.2,1.2h-7.5c-0.7,0-1.2-0.5-1.2-1.2l0,0
				C440,95.6,440.6,95,441.2,95z"/>
			<path class="st13" d="M441.2,109.1h7.5c0.7,0,1.2,0.5,1.2,1.2l0,0c0,0.7-0.5,1.2-1.2,1.2h-7.5c-0.7,0-1.2-0.5-1.2-1.2l0,0
				C440,109.6,440.6,109.1,441.2,109.1z"/>
			<path class="st13" d="M441.2,123.1h7.5c0.7,0,1.2,0.5,1.2,1.2l0,0c0,0.7-0.5,1.2-1.2,1.2h-7.5c-0.7,0-1.2-0.5-1.2-1.2l0,0
				C440,123.6,440.6,123.1,441.2,123.1z"/>
			<path class="st11" d="M454.2,96.1h4.3c0.5,0,0.9,0.4,0.9,0.9l0,0c0,0.5-0.4,0.9-0.9,0.9h-4.3c-0.5,0-0.9-0.4-0.9-0.9l0,0
				C453.2,96.5,453.6,96.1,454.2,96.1z"/>
			<path class="st11" d="M453.9,99.6h1.9c0.4,0,0.7,0.3,0.7,0.7l0,0c0,0.4-0.3,0.7-0.7,0.7h-1.9c-0.4,0-0.7-0.3-0.7-0.7l0,0
				C453.2,99.9,453.5,99.6,453.9,99.6z"/>
			<path class="st11" d="M466.7,96.1h4.3c0.4,0,0.8,0.4,0.8,0.8l0,0c0,0.4-0.4,0.8-0.8,0.8h-4.3c-0.4,0-0.8-0.4-0.8-0.8l0,0
				C465.9,96.5,466.2,96.1,466.7,96.1z"/>
			<path class="st13" d="M503.3,125h4.3c0.4,0,0.8,0.4,0.8,0.8l0,0c0,0.4-0.4,0.8-0.8,0.8h-4.3c-0.4,0-0.8-0.4-0.8-0.8l0,0
				C502.5,125.3,502.9,125,503.3,125z"/>
			<path class="st19" d="M515.5,110.4h4.3c0.4,0,0.8,0.4,0.8,0.8l0,0c0,0.4-0.4,0.8-0.8,0.8h-4.3c-0.4,0-0.8-0.4-0.8-0.8l0,0
				C514.7,110.8,515,110.4,515.5,110.4z"/>
			<path class="st19" d="M515.2,96.4h4.3c0.4,0,0.8,0.4,0.8,0.8l0,0c0,0.4-0.4,0.8-0.8,0.8h-4.3c-0.4,0-0.8-0.4-0.8-0.8l0,0
				C514.4,96.7,514.8,96.4,515.2,96.4z"/>
			<path class="st19" d="M503.1,96.4h4.3c0.4,0,0.8,0.4,0.8,0.8l0,0c0,0.4-0.4,0.8-0.8,0.8h-4.3c-0.4,0-0.8-0.4-0.8-0.8l0,0
				C502.3,96.7,502.6,96.4,503.1,96.4z"/>
			<circle class="st11" cx="467" cy="99.9" r="1.1"/>
			<circle class="st11" cx="491.5" cy="98" r="1.1"/>
			<circle class="st11" cx="495.3" cy="98" r="1.1"/>
			<circle class="st11" cx="495.3" cy="111.5" r="1.1"/>
			<circle class="st11" cx="491.5" cy="111.5" r="1.1"/>
			<circle class="st11" cx="495" cy="125.2" r="1.1"/>
			<circle class="st11" cx="491.2" cy="125.2" r="1.1"/>
			<circle class="st13" cx="458.3" cy="125.5" r="1.1"/>
			<circle class="st13" cx="454.6" cy="125.5" r="1.1"/>
			<circle class="st11" cx="491.5" cy="83.5" r="1.1"/>
			<circle class="st13" cx="478.8" cy="83.5" r="1.1"/>
			<circle class="st13" cx="482.6" cy="83.5" r="1.1"/>
			<circle class="st13" cx="466.7" cy="83.5" r="1.1"/>
			<circle class="st13" cx="470.5" cy="83.5" r="1.1"/>
			<circle class="st13" cx="454.6" cy="83.5" r="1.1"/>
			<circle class="st13" cx="458.3" cy="83.5" r="1.1"/>
			<text transform="matrix(1 0 0 1 495.3856 92.2604)" class="st11 st20 st21">4</text>
			<text transform="matrix(1 0 0 1 471.3993 92.2604)" class="st13 st20 st21">2</text>
			<text transform="matrix(1 0 0 1 458.825 106.2223)" class="st11 st20 st21">7</text>
			<text transform="matrix(1 0 0 1 491.4813 106.2379)" class="st11 st20 st21">10</text>
			<text transform="matrix(1 0 0 1 478.8153 120.1891)" class="st13 st20 st21">15</text>
			<text transform="matrix(1 0 0 1 515.8407 120.7272)" class="st11 st20 st21">18</text>
			<text transform="matrix(1 0 0 1 467.5536 133.4987)" class="st11 st20 st21">2</text>
			<text transform="matrix(1 0 0 1 471.4012 133.4987)" class="st11 st20 st21">0</text>
		</g>
		<path class="st22" d="M631.4,253.7c-3.2,0-5.8-2.6-5.8-5.9c0-3.1,2.6-5.7,5.7-5.7c3.2,0,5.9,2.6,5.9,5.8
			C637.2,251.1,634.6,253.7,631.4,253.7L631.4,253.7z"/>
		<path class="st22" d="M586.4,125.4c-3.2,0-5.8-2.6-5.8-5.9c0-3.1,2.6-5.7,5.7-5.7c3.2,0,5.9,2.6,5.9,5.8
			C592.2,122.8,589.6,125.4,586.4,125.4L586.4,125.4z"/>
		<path class="st22" d="M472.9,219.2c-3.9,0-7.1-3.2-7.1-7.1s3.2-7.1,7.1-7.1c3.9,0,7.1,3.2,7.1,7.1S476.8,219.2,472.9,219.2
			L472.9,219.2z"/>
		<g id="Слой_11">
			<linearGradient id="SVGID_5_" gradientUnits="userSpaceOnUse" x1="366.6466" y1="91.8366" x2="366.6466" y2="-71.6926">
				<stop  offset="0" style="stop-color:#FFFFFF"/>
				<stop  offset="1" style="stop-color:#CFCFCF"/>
			</linearGradient>
			<path class="st23" d="M344.1,0h45.1c3.6,0,6.6,3,6.6,6.6v52.2c0,3.6-3,6.6-6.6,6.6h-45.1c-3.6,0-6.6-3-6.6-6.6V6.6
				C337.5,3,340.4,0,344.1,0z"/>
			<circle class="st13" cx="347.2" cy="11" r="5.6"/>
			<circle class="st13" cx="362.2" cy="11" r="5.6"/>
			<text transform="matrix(1 0 0 1 362.1825 56.0866)" class="st13 st24 st25">2</text>
			<linearGradient id="SVGID_6_" gradientUnits="userSpaceOnUse" x1="688.6439" y1="258.8366" x2="688.6439" y2="74.7035">
				<stop  offset="0" style="stop-color:#FFFFFF"/>
				<stop  offset="1" style="stop-color:#CFCFCF"/>
			</linearGradient>
			<path class="st26" d="M656.8,167.7h63.7c5.2,0,9.3,4.2,9.3,9.3v73.7c0,5.2-4.2,9.3-9.3,9.3h-63.7c-5.2,0-9.3-4.2-9.3-9.3v-73.7
				C647.5,171.9,651.7,167.7,656.8,167.7z"/>
			<circle class="st13" cx="658.3" cy="180.4" r="5.1"/>
			<circle class="st13" cx="671.9" cy="180.4" r="5.1"/>
			<circle class="st13" cx="685.1" cy="180.4" r="5.1"/>
			<text transform="matrix(1 0 0 1 682.3431 246.901)" class="st13 st24 st27">5</text>
			<linearGradient id="SVGID_7_" gradientUnits="userSpaceOnUse" x1="749.2231" y1="79.8366" x2="749.2231" y2="-35.2721">
				<stop  offset="0" style="stop-color:#FFFFFF"/>
				<stop  offset="1" style="stop-color:#CFCFCF"/>
			</linearGradient>
			<path class="st28" d="M733.5,19.6h31.4c2.5,0,4.6,2.1,4.6,4.6v36.4c0,2.5-2.1,4.6-4.6,4.6h-31.4c-2.5,0-4.6-2.1-4.6-4.6V24.2
				C728.9,21.6,731,19.6,733.5,19.6z"/>
			<circle class="st13" cx="734.3" cy="25.8" r="2.5"/>
			<circle class="st13" cx="741" cy="25.8" r="2.5"/>
			<circle class="st13" cx="747.5" cy="25.8" r="2.5"/>
			<text transform="matrix(1 0 0 1 740.9772 58.6383)" class="st13 st24 st29">18</text>
		</g>
		<g id="Слой_11__x28_копия_x29_">
			<linearGradient id="SVGID_8_" gradientUnits="userSpaceOnUse" x1="124.1959" y1="152.5033" x2="124.1959" y2="-46.2037">
				<stop  offset="0" style="stop-color:#FFFFFF"/>
				<stop  offset="1" style="stop-color:#CFCFCF"/>
			</linearGradient>
			<path class="st30" d="M90.4,16.5H158c5.5,0,9.9,4.4,9.9,9.9v78.2c0,5.5-4.4,9.9-9.9,9.9H90.4c-5.5,0-9.9-4.4-9.9-9.9V26.4
				C80.5,20.9,85,16.5,90.4,16.5z"/>
			<circle class="st13" cx="95.1" cy="32.9" r="8.4"/>
			<circle class="st13" cx="113.2" cy="32.9" r="8.4"/>
			<g>
				<path class="st13" d="M150.2,67.6c0,5-4,9-9,9c-5,0-9-4-9-9c0-5,4-9,9-9C146.2,58.6,150.2,62.7,150.2,67.6z"/>
				<linearGradient id="SVGID_9_" gradientUnits="userSpaceOnUse" x1="134.2267" y1="64.1145" x2="141.2295" y2="64.1145">
					<stop  offset="0" style="stop-color:#FFFFFF"/>
					<stop  offset="1" style="stop-color:#CFCFCF"/>
				</linearGradient>
				<path class="st31" d="M134.2,67.6h2c0-2.8,2.2-5,5-5v-2C137.4,60.6,134.2,63.8,134.2,67.6z"/>
				<g>
					<path class="st13" d="M141.2,48.2c-10.5,0-19.1,8.6-19.1,19.1c0,2.8,0.6,5.4,1.7,7.8c4.8,10.5,14,21.5,16.7,24.7
						c0.2,0.2,0.5,0.4,0.8,0.4c0.3,0,0.6-0.1,0.8-0.4c1.9-2.2,7.1-8.4,11.6-15.5l-6.3-6.3c-1.8,1.1-3.9,1.7-6.1,1.7
						c-6.6,0-12-5.4-12-12c0-6.6,5.4-12,12-12c6.6,0,12,5.4,12,12c0,2.2-0.6,4.3-1.7,6.1l5.2,5.2c0.7-1.3,1.3-2.5,1.9-3.8
						c1.1-2.4,1.7-5.1,1.7-7.8C160.3,56.8,151.8,48.2,141.2,48.2z"/>
				</g>
			</g>
			<g>
				<path class="st32" d="M546.9,207c0,1.7-1.4,2.9-3.1,2.6c-1.7-0.3-3.1-2-3.1-3.7c0-1.7,1.4-2.9,3.1-2.6
					C545.5,203.7,546.9,205.3,546.9,207z"/>
				<path class="st11" d="M541.3,206.1l0.7,0.1c0-1,0.8-1.6,1.7-1.4v-0.7C542.4,203.8,541.3,204.7,541.3,206.1z"/>
				<g>
					<path class="st32" d="M543.8,199.7c-3.7-0.6-6.6,1.8-6.6,5.5c0,1,0.2,1.9,0.6,2.8c1.7,3.9,4.8,8.3,5.8,9.6
						c0.1,0.1,0.2,0.2,0.3,0.2c0.1,0,0.2,0,0.3-0.1c0.7-0.7,2.5-2.5,4-4.7l-2.2-2.6c-0.6,0.3-1.3,0.3-2.1,0.2
						c-2.3-0.4-4.2-2.6-4.2-4.9s1.9-3.8,4.2-3.4c2.3,0.4,4.2,2.6,4.2,4.9c0,0.8-0.2,1.5-0.6,2l1.8,2.1c0.2-0.4,0.5-0.8,0.7-1.2
						c0.4-0.8,0.6-1.7,0.6-2.6C550.4,203.9,547.4,200.4,543.8,199.7z"/>
				</g>
			</g>
			<g id="Слой_11_копия_2">
				<linearGradient id="SVGID_10_" gradientUnits="userSpaceOnUse" x1="34.0284" y1="280.8366" x2="34.0284" y2="137.613">
					<stop  offset="0" style="stop-color:#FFFFFF"/>
					<stop  offset="1" style="stop-color:#CFCFCF"/>
				</linearGradient>
				<path class="st33" d="M8.2,187.2h51.7c4.2,0,7.6,3.4,7.6,7.6v59.8c0,4.2-3.4,7.6-7.6,7.6H8.2c-4.2,0-7.6-3.4-7.6-7.6v-59.8
					C0.6,190.6,4,187.2,8.2,187.2z"/>
				<circle class="st13" cx="11.7" cy="199.8" r="6.4"/>
				<text transform="matrix(1 0 0 1 28.9166 251.4606)" class="st13 st24 st34">8</text>
			</g>
			<g id="Слой_11_копия_3">
				<linearGradient id="SVGID_11_" gradientUnits="userSpaceOnUse" x1="257.2729" y1="297.8366" x2="257.2729" y2="183.7829">
					<stop  offset="0" style="stop-color:#FFFFFF"/>
					<stop  offset="1" style="stop-color:#CFCFCF"/>
				</linearGradient>
				<path class="st35" d="M238.7,244.6h37.2c3,0,5.4,2.4,5.4,5.4v43c0,3-2.4,5.4-5.4,5.4h-37.2c-3,0-5.4-2.4-5.4-5.4v-43
					C233.2,247,235.7,244.6,238.7,244.6z"/>
				<path class="st13" d="M240.8,249.4h23.8c2.3,0,4.2,1.9,4.2,4.2l0,0c0,2.3-1.9,4.2-4.2,4.2h-23.8c-2.3,0-4.2-1.9-4.2-4.2l0,0
					C236.6,251.3,238.5,249.4,240.8,249.4z"/>
			</g>
			<rect x="86.6" y="24.5" class="st36" width="16.8" height="16.8"/>
		</g>
	</g>
</g>
<g id="poezdki">
	<g id="Слой_3__x28_копия_x29_" class="st1">
	</g>
	<g id="Слой_8">
	</g>
</g>
<g id="auto">
	<g id="Слой_3">
		<g id="Слой_4">
		</g>
	</g>
</g>
<g id="nastroiki">
</g>
<g id="otzivi">
</g>
<g id="history">
	<g id="Слой_18">
	</g>
</g>
<g id="driver_x5F_history">
	<g id="Слой_21">
	</g>
	<g id="Слой_18__x28_копия_x29_">
	</g>
</g>
<g id="user_x5F_poezdki">
</g>
</svg>
