<svg xmlns="http://www.w3.org/2000/svg" xmlns:xlink="http://www.w3.org/1999/xlink" viewBox="0 0 334.39 311"><defs><style>.cls-1{fill:none;}.cls-2{isolation:isolate;}.cls-3{clip-path:url(#clip-path);}.cls-4{fill:#0d1a38;}.cls-5{fill:#304269;}.cls-6{fill:#f77a4b;}.cls-7{fill:#ded1fd;}.cls-74,.cls-8{fill:#b5d8ff;}.cls-9{fill:#3c5582;}.cls-10{fill:url(#Безымянный_градиент_73);}.cls-11{opacity:0.05;}.cls-12{fill:url(#Безымянный_градиент_73-2);}.cls-13{fill:url(#linear-gradient);}.cls-14{fill:url(#linear-gradient-2);}.cls-15{fill:url(#linear-gradient-3);}.cls-16{fill:url(#linear-gradient-4);}.cls-17{fill:url(#linear-gradient-6);}.cls-18{fill:url(#linear-gradient-7);}.cls-19{fill:url(#linear-gradient-8);}.cls-20{fill:url(#linear-gradient-9);}.cls-21{fill:url(#linear-gradient-10);}.cls-22{fill:url(#linear-gradient-11);}.cls-23{fill:url(#linear-gradient-12);}.cls-24{fill:url(#linear-gradient-13);}.cls-25{fill:url(#linear-gradient-14);}.cls-26{fill:url(#linear-gradient-15);}.cls-27{fill:url(#linear-gradient-16);}.cls-28{fill:url(#linear-gradient-17);}.cls-29{fill:url(#linear-gradient-18);}.cls-30{fill:url(#linear-gradient-19);}.cls-31{fill:url(#linear-gradient-20);}.cls-32{fill:url(#linear-gradient-21);}.cls-33{fill:url(#linear-gradient-24);}.cls-34{fill:url(#linear-gradient-25);}.cls-35{fill:url(#linear-gradient-26);}.cls-36{fill:url(#linear-gradient-27);}.cls-37{fill:url(#linear-gradient-28);}.cls-38{fill:url(#linear-gradient-30);}.cls-39{fill:url(#linear-gradient-31);}.cls-40{fill:url(#linear-gradient-33);}.cls-41{fill:url(#linear-gradient-34);}.cls-42{fill:url(#linear-gradient-35);}.cls-43{fill:url(#linear-gradient-36);}.cls-44{fill:url(#linear-gradient-37);}.cls-45{fill:url(#linear-gradient-38);}.cls-46{fill:url(#linear-gradient-39);}.cls-47{fill:url(#linear-gradient-40);}.cls-48{fill:url(#linear-gradient-42);}.cls-49{fill:url(#linear-gradient-43);}.cls-50{fill:url(#linear-gradient-44);}.cls-51{fill:url(#linear-gradient-45);}.cls-52{fill:url(#linear-gradient-46);}.cls-53{fill:url(#linear-gradient-47);}.cls-54{fill:url(#linear-gradient-50);}.cls-55{fill:url(#linear-gradient-52);}.cls-56{fill:url(#linear-gradient-53);}.cls-57{fill:url(#linear-gradient-55);}.cls-58{fill:url(#linear-gradient-56);}.cls-59{fill:url(#linear-gradient-57);}.cls-60{fill:url(#linear-gradient-58);}.cls-61{fill:url(#linear-gradient-59);}.cls-62{fill:url(#linear-gradient-60);}.cls-63{fill:url(#linear-gradient-61);}.cls-64{fill:url(#linear-gradient-62);}.cls-65{fill:url(#linear-gradient-63);}.cls-66{fill:url(#linear-gradient-64);}.cls-67{clip-path:url(#clip-path-2);}.cls-68{fill:#d6e0f7;}.cls-69{fill:#b5a6fe;}.cls-69,.cls-74{mix-blend-mode:multiply;}.cls-70{fill:url(#linear-gradient-65);}.cls-71{fill:#f60;}.cls-72{fill:#f2edff;}.cls-73{fill:#9ab8d9;}.cls-75{fill:url(#linear-gradient-66);}.cls-76{fill:#fff;}.cls-77{fill:#f4cdaf;}.cls-78{fill:#f5ceb0;}.cls-79{fill:#3c4043;}.cls-80{fill:#efbfa5;}.cls-81{fill:#39517c;}.cls-82{fill:#1c4f69;}.cls-83{fill:#bac5f4;}.cls-84{fill:#e1e6fb;}.cls-85{fill:#162b47;}</style><clipPath id="clip-path"><path class="cls-1" d="M725.44,192.45c38,102.3-65.79,86.9-113.85,102.35C549,314.93,479.47,308.05,428.66,272.65c-55.37-38.57.06-57.77,7.78-110.24,4.42-30.06-9.43-81.89,34-65.86,97.5,36,146.26,9.74,167-14.77,19.54-23.11,73-1.45,67,32.91C695.07,168.32,708.22,146.09,725.44,192.45Z"/></clipPath><linearGradient id="Безымянный_градиент_73" x1="278.39" y1="55.3" x2="278.39" y2="-26.08" gradientUnits="userSpaceOnUse"><stop offset="0.07" stop-color="#fff"/><stop offset="0.73" stop-color="#e2e2e2"/><stop offset="1" stop-color="#cfcfcf"/></linearGradient><linearGradient id="Безымянный_градиент_73-2" x1="52.1" y1="44.37" x2="52.1" y2="-2.28" xlink:href="#Безымянный_градиент_73"/><linearGradient id="linear-gradient" x1="223.16" y1="239.32" x2="192.2" y2="99.19" gradientUnits="userSpaceOnUse"><stop offset="0" stop-color="#eaedfc"/><stop offset="0.84" stop-color="#cae0fc"/></linearGradient><linearGradient id="linear-gradient-2" x1="266.07" y1="245.3" x2="230.54" y2="84.48" gradientUnits="userSpaceOnUse"><stop offset="0" stop-color="#eaedfc"/><stop offset="0.84" stop-color="#aed1fc"/></linearGradient><linearGradient id="linear-gradient-3" x1="175.51" y1="139.81" x2="175.51" y2="154.85" xlink:href="#linear-gradient"/><linearGradient id="linear-gradient-4" x1="186.81" y1="139.81" x2="186.81" y2="154.85" xlink:href="#linear-gradient"/><linearGradient id="linear-gradient-6" x1="175.51" y1="139.81" x2="175.51" y2="154.85" xlink:href="#linear-gradient"/><linearGradient id="linear-gradient-7" x1="175.51" y1="139.81" x2="175.51" y2="154.85" xlink:href="#linear-gradient"/><linearGradient id="linear-gradient-8" x1="186.81" y1="139.81" x2="186.81" y2="154.85" xlink:href="#linear-gradient"/><linearGradient id="linear-gradient-9" x1="230.83" y1="178.57" x2="230.83" y2="193.61" xlink:href="#linear-gradient"/><linearGradient id="linear-gradient-10" x1="230.83" y1="139.81" x2="230.83" y2="154.85" xlink:href="#linear-gradient"/><linearGradient id="linear-gradient-11" x1="259.03" y1="139.81" x2="259.03" y2="154.85" xlink:href="#linear-gradient"/><linearGradient id="linear-gradient-12" x1="230.83" y1="139.81" x2="230.83" y2="154.85" xlink:href="#linear-gradient"/><linearGradient id="linear-gradient-13" x1="244.93" y1="139.81" x2="244.93" y2="154.85" xlink:href="#linear-gradient"/><linearGradient id="linear-gradient-14" x1="244.93" y1="118.66" x2="244.93" y2="133.69" xlink:href="#linear-gradient"/><linearGradient id="linear-gradient-15" x1="259.03" y1="139.81" x2="259.03" y2="154.85" xlink:href="#linear-gradient"/><linearGradient id="linear-gradient-16" x1="244.93" y1="139.81" x2="244.93" y2="154.85" xlink:href="#linear-gradient"/><linearGradient id="linear-gradient-17" x1="259.03" y1="139.81" x2="259.03" y2="154.85" xlink:href="#linear-gradient"/><linearGradient id="linear-gradient-18" x1="93.73" y1="215.59" x2="62.77" y2="75.46" xlink:href="#linear-gradient"/><linearGradient id="linear-gradient-19" x1="133.75" y1="215.59" x2="102.79" y2="75.46" xlink:href="#linear-gradient-2"/><linearGradient id="linear-gradient-20" x1="48.64" y1="115.52" x2="48.64" y2="130.55" xlink:href="#linear-gradient"/><linearGradient id="linear-gradient-21" x1="59.93" y1="115.52" x2="59.93" y2="130.55" xlink:href="#linear-gradient"/><linearGradient id="linear-gradient-24" x1="48.64" y1="115.52" x2="48.64" y2="130.55" xlink:href="#linear-gradient"/><linearGradient id="linear-gradient-25" x1="59.93" y1="115.52" x2="59.93" y2="130.55" xlink:href="#linear-gradient"/><linearGradient id="linear-gradient-26" x1="103.95" y1="154.28" x2="103.95" y2="169.32" xlink:href="#linear-gradient"/><linearGradient id="linear-gradient-27" x1="103.95" y1="115.52" x2="103.95" y2="130.55" xlink:href="#linear-gradient"/><linearGradient id="linear-gradient-28" x1="132.15" y1="115.52" x2="132.15" y2="130.55" xlink:href="#linear-gradient"/><linearGradient id="linear-gradient-30" x1="118.05" y1="115.52" x2="118.05" y2="130.55" xlink:href="#linear-gradient"/><linearGradient id="linear-gradient-31" x1="118.05" y1="94.36" x2="118.05" y2="109.4" xlink:href="#linear-gradient"/><linearGradient id="linear-gradient-33" x1="118.05" y1="115.52" x2="118.05" y2="130.55" xlink:href="#linear-gradient"/><linearGradient id="linear-gradient-34" x1="132.15" y1="115.52" x2="132.15" y2="130.55" xlink:href="#linear-gradient"/><linearGradient id="linear-gradient-35" x1="162.32" y1="207.34" x2="128.65" y2="54.95" xlink:href="#linear-gradient"/><linearGradient id="linear-gradient-36" x1="173.73" y1="151.34" x2="149.15" y2="40.08" xlink:href="#linear-gradient"/><linearGradient id="linear-gradient-37" x1="182.01" y1="207.34" x2="148.35" y2="54.95" xlink:href="#linear-gradient-2"/><linearGradient id="linear-gradient-38" x1="193.42" y1="151.34" x2="168.84" y2="40.08" xlink:href="#linear-gradient-2"/><linearGradient id="linear-gradient-39" x1="121.77" y1="75.81" x2="121.77" y2="87.88" xlink:href="#linear-gradient"/><linearGradient id="linear-gradient-40" x1="130.84" y1="75.81" x2="130.84" y2="87.88" xlink:href="#linear-gradient"/><linearGradient id="linear-gradient-42" x1="153.4" y1="75.81" x2="153.4" y2="87.88" xlink:href="#linear-gradient"/><linearGradient id="linear-gradient-43" x1="176.03" y1="75.81" x2="176.03" y2="87.88" xlink:href="#linear-gradient"/><linearGradient id="linear-gradient-44" x1="121.77" y1="75.81" x2="121.77" y2="87.88" xlink:href="#linear-gradient"/><linearGradient id="linear-gradient-45" x1="153.4" y1="75.81" x2="153.4" y2="87.88" xlink:href="#linear-gradient"/><linearGradient id="linear-gradient-46" x1="164.71" y1="75.81" x2="164.71" y2="87.88" xlink:href="#linear-gradient"/><linearGradient id="linear-gradient-47" x1="176.03" y1="75.81" x2="176.03" y2="87.88" xlink:href="#linear-gradient"/><linearGradient id="linear-gradient-50" x1="164.71" y1="75.81" x2="164.71" y2="87.88" xlink:href="#linear-gradient"/><linearGradient id="linear-gradient-52" x1="121.77" y1="3737.11" x2="121.77" y2="3749.17" gradientTransform="matrix(1, 0, 0, -1, 0, 3799.53)" xlink:href="#linear-gradient"/><linearGradient id="linear-gradient-53" x1="130.84" y1="3737.11" x2="130.84" y2="3749.17" gradientTransform="matrix(1, 0, 0, -1, 0, 3799.53)" xlink:href="#linear-gradient"/><linearGradient id="linear-gradient-55" x1="153.4" y1="3737.11" x2="153.4" y2="3749.17" gradientTransform="matrix(1, 0, 0, -1, 0, 3799.53)" xlink:href="#linear-gradient"/><linearGradient id="linear-gradient-56" x1="176.03" y1="3737.11" x2="176.03" y2="3749.17" gradientTransform="matrix(1, 0, 0, -1, 0, 3799.53)" xlink:href="#linear-gradient"/><linearGradient id="linear-gradient-57" x1="121.77" y1="3737.11" x2="121.77" y2="3749.17" gradientTransform="matrix(1, 0, 0, -1, 0, 3799.53)" xlink:href="#linear-gradient"/><linearGradient id="linear-gradient-58" x1="153.4" y1="3737.11" x2="153.4" y2="3749.17" gradientTransform="matrix(1, 0, 0, -1, 0, 3799.53)" xlink:href="#linear-gradient"/><linearGradient id="linear-gradient-59" x1="164.71" y1="3737.11" x2="164.71" y2="3749.17" gradientTransform="matrix(1, 0, 0, -1, 0, 3799.53)" xlink:href="#linear-gradient"/><linearGradient id="linear-gradient-60" x1="176.03" y1="3737.11" x2="176.03" y2="3749.17" gradientTransform="matrix(1, 0, 0, -1, 0, 3799.53)" xlink:href="#linear-gradient"/><linearGradient id="linear-gradient-61" x1="121.77" y1="3737.11" x2="121.77" y2="3749.17" gradientTransform="matrix(1, 0, 0, -1, 0, 3799.53)" xlink:href="#linear-gradient"/><linearGradient id="linear-gradient-62" x1="130.84" y1="3737.11" x2="130.84" y2="3749.17" gradientTransform="matrix(1, 0, 0, -1, 0, 3799.53)" xlink:href="#linear-gradient"/><linearGradient id="linear-gradient-63" x1="164.71" y1="3737.11" x2="164.71" y2="3749.17" gradientTransform="matrix(1, 0, 0, -1, 0, 3799.53)" xlink:href="#linear-gradient"/><linearGradient id="linear-gradient-64" x1="176.03" y1="3737.11" x2="176.03" y2="3749.17" gradientTransform="matrix(1, 0, 0, -1, 0, 3799.53)" xlink:href="#linear-gradient"/><clipPath id="clip-path-2"><path class="cls-1" d="M315.75,204.52C295.32,243,260.68,275,219.91,294.8,160.72,323.52,87.8,308.05,37,272.65c-55.37-38.57-7.35-106.56,38.47-133.28,29.33-17.1,65.63-19.77,98.09-28.72,32.77-9,53.37-24.76,74.1-49.27,19.55-23.11,49.41-25.85,66.65,2.35C342.7,110.18,339,160.86,315.75,204.52Z"/></clipPath><linearGradient id="linear-gradient-65" x1="36.12" y1="241.6" x2="60.55" y2="241.6" gradientUnits="userSpaceOnUse"><stop offset="0.02" stop-color="#fff"/><stop offset="1" stop-color="#dcd6e8"/></linearGradient><linearGradient id="linear-gradient-66" x1="194.6" y1="241.6" x2="219.03" y2="241.6" xlink:href="#linear-gradient-65"/></defs><title>illustration</title><g class="cls-2"><g id="User"><g id="_3" data-name="3"><g id="car"><g class="cls-3"><g id="car-2" data-name="car"><path class="cls-4" d="M385.09,248.86c5.52,0-6.64,0-6.93,0-5.28-.1-42.82.93-43.52-1.22s-11.85-19-4.75-23,16.39-10.38,16.39-10.38l21.5-6.19,17.12,14.75.73,10.74-.91,8.74Z"/><path class="cls-5" d="M541.51,247.65c1.87,0,28.23-.94,29.16-1.87s-.15-15.23-1.08-16.82-2.18-1.87-2.42-2.26-.7-8.38-1-9-14.85-15.39-65.19-22.32c-10.81-5.84-27.51-18.53-49.05-25.77a98.05,98.05,0,0,0-31.3-5.32c-36.94,0-64.69,10-91.81,27.89-1.56,3.74-7.48,11.67-8.73,14s-6.55,27.38-6.91,28.16a18,18,0,0,0-1.3,4.1c0,.78,1.14,1.25,1.14,1.25a2.72,2.72,0,0,0,1.15,3.79c2.49,1.35,19.83,4.1,23.78,4.16.57-2.44-1.26-26.65,22.12-26.65s21.32,27.89,21.32,27.89H496.1s-5.15-27.67,23-27.67S541.51,247.65,541.51,247.65Z"/><path class="cls-6" d="M321.35,227.89c1.84-1.84,4.29-21.87,4.29-21.87l-5.09-.74c-.21.34-.38.64-.51.88-.85,1.6-3.6,13.8-5.37,21.62C317.08,228.42,320.26,229,321.35,227.89Z"/><path class="cls-7" d="M327.71,194.24a19.73,19.73,0,0,0,1.06-2.1,171.41,171.41,0,0,1,38.29-19.35,14.52,14.52,0,0,1-5.87,6.42C355.45,182.57,338.8,196.56,327.71,194.24Z"/><path class="cls-8" d="M327.71,194.24a19.73,19.73,0,0,0,1.06-2.1,171.41,171.41,0,0,1,38.29-19.35,14.52,14.52,0,0,1-5.87,6.42C355.45,182.57,338.8,196.56,327.71,194.24Z"/><path class="cls-9" d="M360.73,178.42c-1.1.65-2.61,1.67-4.36,2.86-7.42,5-19.66,13.28-28.28,12.26-.28.53-.6,1.1-1,1.69a13.93,13.93,0,0,0,2.44.22c9.09,0,20.64-7.81,27.82-12.67,1.72-1.16,3.22-2.17,4.26-2.79a18.94,18.94,0,0,0,6.88-7.67l0,0-2.52.87A16.41,16.41,0,0,1,360.73,178.42Z"/></g></g></g></g><g id="_2" data-name="2"><path class="cls-10" d="M330.14,28.44h-104l0-.52a17.41,17.41,0,0,1,31.26-9.26,15.15,15.15,0,0,1,18.92-3.35,16.11,16.11,0,0,1,32-.25,14.8,14.8,0,0,1,22.27,12.79v.56Zm-102.93-1H329.65a13.84,13.84,0,0,0-21.43-11.17l-.69.46-.06-.83a15.13,15.13,0,0,0-30.19.24l0,.83-.7-.44a14.14,14.14,0,0,0-18.72,3.21l-.41.52-.38-.54a16.43,16.43,0,0,0-29.81,7.72Z"/><path class="cls-11" d="M315.75,204.52C295.32,243,260.68,275,219.91,294.8,160.72,323.52,87.8,308.05,37,272.65c-55.37-38.57-7.35-106.56,38.47-133.28,29.33-17.1,65.63-19.77,98.09-28.72,32.77-9,53.37-24.76,74.1-49.27,19.55-23.11,49.41-25.85,66.65,2.35C342.7,110.18,339,160.86,315.75,204.52Z"/><path class="cls-12" d="M92,39H11.84l0-.4A13.41,13.41,0,0,1,36,31.46a11.66,11.66,0,0,1,14.58-2.58,12.42,12.42,0,0,1,24.66-.2,11.42,11.42,0,0,1,17.16,9.86V39Z"/><g id="build"><path class="cls-13" d="M239.44,233.17V69.56A1.41,1.41,0,0,0,238,68.14H169.41A1.42,1.42,0,0,0,168,69.56V233.17Z"/><path class="cls-14" d="M279.47,239.42V49.14A1.43,1.43,0,0,0,278,47.71H209.43A1.43,1.43,0,0,0,208,49.14V239.42Z"/><rect class="cls-15" x="172.05" y="73.1" width="6.93" height="11.67"/><rect class="cls-16" x="183.34" y="73.1" width="6.93" height="11.67"/><rect class="cls-16" x="183.34" y="73.1" width="6.93" height="11.67"/><rect class="cls-17" x="172.05" y="94.39" width="6.93" height="11.67"/><rect class="cls-18" x="172.05" y="115.69" width="6.93" height="11.67"/><rect class="cls-19" x="183.34" y="115.69" width="6.93" height="11.67"/><rect class="cls-20" x="227.36" y="133.15" width="6.93" height="11.67"/><rect class="cls-21" x="227.36" y="73.1" width="6.93" height="11.67"/><rect class="cls-22" x="255.56" y="73.1" width="6.93" height="11.67"/><rect class="cls-23" x="227.36" y="94.39" width="6.93" height="11.67"/><rect class="cls-24" x="241.46" y="94.39" width="6.93" height="11.67"/><rect class="cls-25" x="241.46" y="73.24" width="6.93" height="11.67"/><rect class="cls-26" x="255.56" y="94.39" width="6.93" height="11.67"/><rect class="cls-27" x="241.46" y="115.69" width="6.93" height="11.67"/><rect class="cls-28" x="255.56" y="115.69" width="6.93" height="11.67"/><path class="cls-29" d="M112.57,233.17V45.27a1.43,1.43,0,0,0-1.43-1.43H42.53a1.43,1.43,0,0,0-1.42,1.43v187.9Z"/><path class="cls-30" d="M152.59,233.17V45.27a1.43,1.43,0,0,0-1.43-1.43H82.55a1.43,1.43,0,0,0-1.42,1.43v187.9Z"/><rect class="cls-31" x="45.17" y="48.81" width="6.93" height="11.67"/><rect class="cls-32" x="56.47" y="48.81" width="6.93" height="11.67"/><rect class="cls-32" x="56.47" y="48.81" width="6.93" height="11.67"/><rect class="cls-31" x="45.17" y="70.1" width="6.93" height="11.67"/><rect class="cls-33" x="45.17" y="91.39" width="6.93" height="11.67"/><rect class="cls-34" x="56.47" y="91.39" width="6.93" height="11.67"/><rect class="cls-35" x="100.49" y="108.86" width="6.93" height="11.67"/><rect class="cls-36" x="100.49" y="48.81" width="6.93" height="11.67"/><rect class="cls-37" x="128.69" y="48.81" width="6.93" height="11.67"/><rect class="cls-36" x="100.49" y="70.1" width="6.93" height="11.67"/><rect class="cls-38" x="114.59" y="70.1" width="6.93" height="11.67"/><rect class="cls-39" x="114.59" y="48.94" width="6.93" height="11.67"/><rect class="cls-37" x="128.69" y="70.1" width="6.93" height="11.67"/><rect class="cls-40" x="114.59" y="91.39" width="6.93" height="11.67"/><rect class="cls-41" x="128.69" y="91.39" width="6.93" height="11.67"/><path class="cls-42" d="M173.08,233.17V19.44a1.16,1.16,0,0,0-1.15-1.15H116.87a1.15,1.15,0,0,0-1.14,1.15V233.17Z"/><path class="cls-43" d="M126.8,2.56H162a3.21,3.21,0,0,1,3.21,3.21v26a0,0,0,0,1,0,0H123.59a0,0,0,0,1,0,0v-26A3.21,3.21,0,0,1,126.8,2.56Z"/><path class="cls-44" d="M192.77,233.17V19.44a1.15,1.15,0,0,0-1.14-1.15H136.57a1.15,1.15,0,0,0-1.15,1.15V233.17Z"/><path class="cls-45" d="M146.49,2.56H181.7a3.21,3.21,0,0,1,3.21,3.21v26a0,0,0,0,1,0,0H143.28a0,0,0,0,1,0,0v-26A3.21,3.21,0,0,1,146.49,2.56Z"/><rect class="cls-46" x="118.99" y="22.28" width="5.56" height="9.36"/><rect class="cls-47" x="128.06" y="22.28" width="5.56" height="9.36"/><rect class="cls-47" x="128.06" y="22.28" width="5.56" height="9.36"/><rect class="cls-48" x="150.62" y="22.28" width="5.56" height="9.36"/><rect class="cls-49" x="173.25" y="22.28" width="5.56" height="9.36"/><rect class="cls-50" x="118.99" y="39.36" width="5.56" height="9.36"/><rect class="cls-51" x="150.62" y="39.36" width="5.56" height="9.36"/><rect class="cls-52" x="161.93" y="39.36" width="5.56" height="9.36"/><rect class="cls-53" x="173.25" y="39.36" width="5.56" height="9.36"/><rect class="cls-46" x="118.99" y="56.45" width="5.56" height="9.36"/><rect class="cls-47" x="128.06" y="56.45" width="5.56" height="9.36"/><rect class="cls-54" x="161.93" y="56.45" width="5.56" height="9.36"/><rect class="cls-49" x="173.25" y="56.45" width="5.56" height="9.36"/><rect class="cls-55" x="118.99" y="106.59" width="5.56" height="9.36"/><rect class="cls-56" x="128.06" y="106.59" width="5.56" height="9.36"/><rect class="cls-56" x="128.06" y="106.59" width="5.56" height="9.36"/><rect class="cls-57" x="150.62" y="106.59" width="5.56" height="9.36"/><rect class="cls-58" x="173.25" y="106.59" width="5.56" height="9.36"/><rect class="cls-59" x="118.99" y="89.51" width="5.56" height="9.36"/><rect class="cls-60" x="150.62" y="89.51" width="5.56" height="9.36"/><rect class="cls-61" x="161.93" y="89.51" width="5.56" height="9.36"/><rect class="cls-62" x="173.25" y="89.51" width="5.56" height="9.36"/><rect class="cls-63" x="118.99" y="72.42" width="5.56" height="9.36"/><rect class="cls-64" x="128.06" y="72.42" width="5.56" height="9.36"/><rect class="cls-65" x="161.93" y="72.42" width="5.56" height="9.36"/><rect class="cls-66" x="173.25" y="72.42" width="5.56" height="9.36"/></g><g id="car-3" data-name="car"><g class="cls-67"><ellipse class="cls-68" cx="129.6" cy="257.23" rx="133.03" ry="8.99"/></g><g id="car-4" data-name="car"><rect class="cls-4" x="57.14" y="245.72" width="154.58" height="5.04"/><path class="cls-4" d="M73.26,248.86c5.52,0-6.64,0-6.93,0-5.28-.1-42.82.93-43.52-1.22s-11.85-19-4.75-23,16.39-10.38,16.39-10.38L56,208l17.12,14.75.73,10.74-.91,8.74Z"/><path class="cls-4" d="M30.16,241.6a18.18,18.18,0,1,1,18.18,18.17A18.17,18.17,0,0,1,30.16,241.6Z"/><path class="cls-69" d="M48.2,227.47c10.31,0,16,5.94,19.22,12.25-1.73-8-6.46-20-19.3-20-13.91,0-18.4,12.47-20,20.19C31.25,233.59,37.09,227.47,48.2,227.47Z"/><path class="cls-70" d="M36.12,241.6a12.22,12.22,0,1,1,12.22,12.21A12.21,12.21,0,0,1,36.12,241.6Z"/><path class="cls-4" d="M182.32,248.86c.58-.05,49.64-1.21,49.64-1.21l3.58-8.68,1.09-11.1s-4.55-11.66-13.84-16.39-31.51-.91-31.51-.91l-3.28-2-11.48,8.93Z"/><path class="cls-69" d="M208.22,226.28c15.35,0,23.87,8.83,28.6,18.22-2.57-11.93-9.61-29.78-28.72-29.78-20.69,0-27.38,18.56-29.76,30.05C183,235.37,191.7,226.28,208.22,226.28Z"/><path class="cls-5" d="M229.68,247.65c1.87,0,28.23-.94,29.16-1.87s-.15-15.23-1.08-16.82-2.19-1.87-2.42-2.26-.7-8.38-1.05-9-14.85-15.39-65.19-22.32c-10.82-5.84-27.51-18.53-49.06-25.77a98,98,0,0,0-31.3-5.32c-36.94,0-64.68,10-91.8,27.89-1.56,3.74-7.48,11.67-8.73,14S1.66,233.54,1.3,234.32a18,18,0,0,0-1.3,4.1c0,.78,1.14,1.25,1.14,1.25a2.72,2.72,0,0,0,1.15,3.79c2.49,1.35,19.83,4.1,23.77,4.16.58-2.44-1.25-26.65,22.13-26.65s21.32,27.89,21.32,27.89H184.27s-5.15-27.67,23-27.67S229.68,247.65,229.68,247.65Z"/><path class="cls-71" d="M9.52,227.89c1.84-1.84,4.29-21.87,4.29-21.87l-5.09-.74c-.21.34-.39.64-.51.88-.85,1.6-3.6,13.8-5.37,21.62C5.25,228.42,8.43,229,9.52,227.89Z"/><path class="cls-9" d="M50.48,200c1.27,3.26,6.15,10.66,10.05,17.27,5,6.22,8.35,12.23,12,16.26,19.91,1.63,90.55,6.54,109.86,7.79.44-5,1.26-11.75,6.85-15.86C165.79,221.33,55.47,201.24,50.48,200Z"/><path class="cls-72" d="M226.31,209c9.58-.93,28,8.63,28,8.63.35.66.82,8.65,1.05,9C244.56,223.26,226.68,210.61,226.31,209Z"/><path class="cls-8" d="M176.67,199.73s-43.55-6.13-67-6.63-50.09-.79-66.33-4.85c2.28-1.78,20.3-19.29,63.16-19.29,0,0,22.47-1.29,39.2,7S176.67,199.73,176.67,199.73Z"/><path class="cls-73" d="M106.49,177.56s22.47-1.28,39.2,7A105.48,105.48,0,0,1,166,198.31c6.5.83,10.7,1.42,10.7,1.42s-14.25-15.43-31-23.75-39.2-7-39.2-7c-42.86,0-60.88,17.51-63.16,19.29a96.59,96.59,0,0,0,9.51,1.82C62.41,184.49,79.54,177.56,106.49,177.56Z"/><path class="cls-74" d="M44.36,188.5c10.22,2.39,24.24,3.41,39,3.95-5.74-5.89-11-12-15.5-17.7-12.7,4.28-20,9.79-23,12.3C44.63,187.53,44.49,188,44.36,188.5Z"/><path class="cls-74" d="M116.51,169.1a90.42,90.42,0,0,0-10-.14h-1.43c-.2,8,.35,16,.81,24.06l3.79.08c8.71.19,20.2,1.15,31.19,2.29C131.19,187.32,122.74,177.31,116.51,169.1Z"/><path class="cls-9" d="M109.88,168.88v1.82h0c6.35,0,22.45.68,35,6.91,11.23,5.58,21.43,14.55,26.7,19.6-12.4-1.64-43.46-5.54-61.88-5.93l-4.4-.09c-20.13-.41-42.73-.87-57.91-3.9a66.91,66.91,0,0,1,14.87-8.49c12.55-5.33,27.43-8,44.23-8h.1s1.24-.07,3.29-.07v-1.82Zm0,0c-2.13,0-3.39.08-3.39.08-42.86,0-60.88,17.51-63.16,19.29,16.24,4.06,42.87,4.36,66.33,4.85s67,6.63,67,6.63-14.25-15.43-31-23.75c-12.78-6.35-28.9-7.1-35.81-7.1Z"/><path class="cls-7" d="M15.88,194.24a19.73,19.73,0,0,0,1.06-2.1,171.55,171.55,0,0,1,38.28-19.35,14.43,14.43,0,0,1-5.86,6.42C43.62,182.57,27,196.56,15.88,194.24Z"/><path class="cls-8" d="M15.88,194.24a19.73,19.73,0,0,0,1.06-2.1,171.55,171.55,0,0,1,38.28-19.35,14.43,14.43,0,0,1-5.86,6.42C43.62,182.57,27,196.56,15.88,194.24Z"/><path class="cls-9" d="M48.9,178.42c-1.1.65-2.61,1.67-4.36,2.86-7.43,5-19.66,13.28-28.28,12.26-.28.53-.6,1.1-1,1.69a13.9,13.9,0,0,0,2.43.22c9.1,0,20.65-7.81,27.82-12.67,1.73-1.16,3.22-2.17,4.27-2.79a18.94,18.94,0,0,0,6.88-7.67l-.05,0-2.52.87A16.51,16.51,0,0,1,48.9,178.42Z"/><path class="cls-8" d="M172.81,191.52c-11.07-9.19-25.72-16.21-29.31-18.08a9.07,9.07,0,0,1-3.47-3.87c21.28,7.14,37.83,19.61,48.65,25.54l.07.21h.31C188.68,196.61,179.74,195.88,172.81,191.52Z"/><path class="cls-9" d="M108.65,168.89c1.43,5.22,4.92,18,6.54,24.41-1.94-.09-3.79-.16-5.53-.2l-6.45-.13L101.43,169c1.65,0,3.33-.08,5.06-.08C106.49,169,107.27,168.91,108.65,168.89Z"/><path class="cls-9" d="M152.08,243.17c-7.54,0-16.13-.06-24.73-.2-13.92-.22-46.59-1-49.43-3-2.48-1.74-9.67-11.33-15.48-19.89S50.51,201.57,50.66,199c.28-4.86.35-5,3.73-8.4,3.1-3.1,6.66-7.41,6.66-13.29h.31c0,6-3.61,10.37-6.75,13.51-3.36,3.37-3.37,3.46-3.64,8.19s22.36,37.34,27.13,40.71c1.92,1.36,20.33,2.45,49.25,2.91,22.84.36,46.39.21,48.92-.32,8.43-20.31.14-42.31,0-42.53l.29-.11c.09.22,8.45,22.38-.08,42.83l0,.07-.08,0C175.05,243,165.15,243.17,152.08,243.17Z"/><path class="cls-9" d="M109.68,242.4l-.3-.05c5.84-33.71-4.49-72.91-4.6-73.3l.3-.08C105.19,169.36,115.54,208.63,109.68,242.4Z"/><path class="cls-9" d="M189.1,195.34l-.93-.51c-2.54.3-9.4-.44-14.93-3.9-10-8.26-22.54-14.64-27.91-17.37l-1.49-.76a6.46,6.46,0,0,1-2-2.6l-2-.68.09.18c.79,1.63,1.78,3.65,3.2,4.39l1.5.77c5.34,2.71,17.84,9,27.67,17.22l.08.06a29.69,29.69,0,0,0,14.47,4.19,7.86,7.86,0,0,0,2.58-.33,1.64,1.64,0,0,0,.73-.51Z"/><path class="cls-9" d="M176.67,199.73s-4.06-.57-10.38-1.38a65.29,65.29,0,0,1,1.17-7.37A125.24,125.24,0,0,1,176.67,199.73Z"/><path class="cls-9" d="M168,198.48s-1.39.59-5.84.48a43.68,43.68,0,0,1-8.52-1.12s-1.82-9.43,4.29-10.4S168,191.62,168,191.62Z"/><ellipse class="cls-4" cx="206.81" cy="241.6" rx="18.17" ry="18.17" transform="translate(-35.48 447.59) rotate(-89.81)"/><path class="cls-75" d="M194.6,241.6a12.22,12.22,0,1,1,12.21,12.21A12.21,12.21,0,0,1,194.6,241.6Z"/><path class="cls-76" d="M82.68,209a8.22,8.22,0,0,0-6.79,8.52,8,8,0,0,0,.7,2.87,51.45,51.45,0,0,0,7.12,10.53.44.44,0,0,0,.68,0,60.89,60.89,0,0,0,5-6.64l-2.68-2.68a5.11,5.11,0,1,1,1.81-1.81L90.7,222q.43-.81.81-1.62a8,8,0,0,0,.71-3.33A8.18,8.18,0,0,0,82.68,209Z"/><path class="cls-71" d="M87.9,217.18a3.84,3.84,0,1,1-3.84-3.85A3.84,3.84,0,0,1,87.9,217.18Z"/><path class="cls-76" d="M81.07,217.18h.86A2.13,2.13,0,0,1,84.06,215v-.85A3,3,0,0,0,81.07,217.18Z"/><path class="cls-76" d="M107.69,212.6a1.24,1.24,0,0,1,.38.93,1.18,1.18,0,0,1-.38.92,1.38,1.38,0,0,1-1,.34h-3.48V226.4a1.26,1.26,0,0,1-.42,1,1.47,1.47,0,0,1-1,.38,1.37,1.37,0,0,1-1-.38,1.28,1.28,0,0,1-.4-1V214.79H96.88a1.37,1.37,0,0,1-1-.35,1.23,1.23,0,0,1-.37-.93,1.18,1.18,0,0,1,.39-.91,1.32,1.32,0,0,1,1-.35h9.84A1.35,1.35,0,0,1,107.69,212.6Z"/><path class="cls-76" d="M115.1,216.06a1.1,1.1,0,0,1,.46.88,1.36,1.36,0,0,1-.36,1,1.15,1.15,0,0,1-.84.35,2.3,2.3,0,0,1-.75-.16l-.3-.09a2,2,0,0,0-.5-.06,2,2,0,0,0-1.11.35,2.66,2.66,0,0,0-.87,1.08,3.92,3.92,0,0,0-.35,1.71v5.25a1.34,1.34,0,0,1-.37,1,1.39,1.39,0,0,1-1.91,0,1.34,1.34,0,0,1-.37-1v-9.15a1.33,1.33,0,0,1,.37-1,1.36,1.36,0,0,1,1.91,0,1.33,1.33,0,0,1,.37,1v.29a3.33,3.33,0,0,1,1.47-1.38,4.43,4.43,0,0,1,2-.48A1.69,1.69,0,0,1,115.1,216.06Z"/><path class="cls-76" d="M117.14,214.22a1.06,1.06,0,0,1-.31-.87v-.42a1,1,0,0,1,.34-.86,1.82,1.82,0,0,1,1.06-.24,1.79,1.79,0,0,1,1.08.24,1,1,0,0,1,.31.86v.42a1,1,0,0,1-.32.88,2,2,0,0,1-1.09.23A1.8,1.8,0,0,1,117.14,214.22Zm2,13.15a1.26,1.26,0,0,1-1,.38,1.24,1.24,0,0,1-1-.38,1.34,1.34,0,0,1-.38-1v-9.15a1.34,1.34,0,0,1,.38-1,1.25,1.25,0,0,1,1-.39,1.27,1.27,0,0,1,1,.39,1.34,1.34,0,0,1,.38,1v9.15A1.34,1.34,0,0,1,119.18,227.37Z"/><path class="cls-76" d="M131,216.47a5.53,5.53,0,0,1,2,2.18,6.82,6.82,0,0,1,.72,3.17A7,7,0,0,1,133,225a5.44,5.44,0,0,1-1.94,2.19,5,5,0,0,1-2.71.79,4.75,4.75,0,0,1-2-.44,5,5,0,0,1-1.56-1v4.34a1.34,1.34,0,0,1-.38,1,1.27,1.27,0,0,1-1,.39,1.3,1.3,0,0,1-1-.38,1.33,1.33,0,0,1-.38-1V217.25a1.34,1.34,0,0,1,.38-1,1.35,1.35,0,0,1,1.9,0,1.34,1.34,0,0,1,.38,1v.09a4.58,4.58,0,0,1,1.48-1.16,4.3,4.3,0,0,1,2-.5A5,5,0,0,1,131,216.47Zm-.78,8a4.35,4.35,0,0,0,0-5.31,2.9,2.9,0,0,0-2.33-1,3,3,0,0,0-2.35,1,3.88,3.88,0,0,0-.91,2.65,3.94,3.94,0,0,0,.91,2.66,3,3,0,0,0,2.35,1.06A2.93,2.93,0,0,0,130.21,224.48Z"/><path class="cls-76" d="M139.73,214.14a1.63,1.63,0,0,0-.31.94v1h2a1.25,1.25,0,0,1,.89.35,1.27,1.27,0,0,1,0,1.75,1.24,1.24,0,0,1-.89.34h-2v7.84a1.34,1.34,0,0,1-.37,1,1.39,1.39,0,0,1-1.91,0,1.34,1.34,0,0,1-.37-1v-7.84h-1.2a1.22,1.22,0,0,1-.89-.34,1.27,1.27,0,0,1,0-1.75,1.23,1.23,0,0,1,.89-.35h1.2v-1a3.51,3.51,0,0,1,1.14-2.7,4.72,4.72,0,0,1,3.29-1,3,3,0,0,1,1.43.33,1.09,1.09,0,0,1,.6,1,1.22,1.22,0,0,1-.31.87,1,1,0,0,1-.75.33l-.23,0-.26,0a3.66,3.66,0,0,0-.88-.13A1.23,1.23,0,0,0,139.73,214.14Z"/><path class="cls-76" d="M154,222.42a1.43,1.43,0,0,1-.93.33h-7.32a3.4,3.4,0,0,0,1.22,2.05,3.44,3.44,0,0,0,2.15.74,4.77,4.77,0,0,0,1.42-.17,4,4,0,0,0,.81-.35l.41-.26a1.72,1.72,0,0,1,.75-.2,1.14,1.14,0,0,1,1.13,1.11,1.41,1.41,0,0,1-.62,1.09,5.15,5.15,0,0,1-1.66.86,6.41,6.41,0,0,1-2.11.36,6.48,6.48,0,0,1-3.24-.78,5.44,5.44,0,0,1-2.14-2.14,6.26,6.26,0,0,1-.75-3.07,6.68,6.68,0,0,1,.8-3.34,5.67,5.67,0,0,1,2.1-2.21,5.42,5.42,0,0,1,2.79-.76,5.18,5.18,0,0,1,2.76.8,6,6,0,0,1,2.07,2.15,5.73,5.73,0,0,1,.78,2.92A1.19,1.19,0,0,1,154,222.42Zm-8.22-1.89h5.8v-.15a2.29,2.29,0,0,0-.91-1.6,2.86,2.86,0,0,0-1.86-.66A2.74,2.74,0,0,0,145.75,220.53Z"/><path class="cls-76" d="M163.53,216.06a1.1,1.1,0,0,1,.46.88,1.36,1.36,0,0,1-.36,1,1.15,1.15,0,0,1-.84.35,2.3,2.3,0,0,1-.75-.16l-.3-.09a2,2,0,0,0-.5-.06,2,2,0,0,0-1.11.35,2.66,2.66,0,0,0-.87,1.08,3.92,3.92,0,0,0-.35,1.71v5.25a1.34,1.34,0,0,1-.37,1,1.39,1.39,0,0,1-1.91,0,1.34,1.34,0,0,1-.37-1v-9.15a1.33,1.33,0,0,1,.37-1,1.36,1.36,0,0,1,1.91,0,1.33,1.33,0,0,1,.37,1v.29a3.33,3.33,0,0,1,1.47-1.38,4.44,4.44,0,0,1,2-.48A1.68,1.68,0,0,1,163.53,216.06Z"/></g><g id="driver"><path class="cls-71" d="M135.85,188.59c-.16-1.7-.68-3.32-2-4a18.35,18.35,0,0,0-4.71-1.35l-3.68,0-1.79.07-3.87.89s1.47,2.72,1.28,3.54-.13,1-.44,2.29a5,5,0,0,0,0,1.8c3.9.2,11.85,1.07,15.89,1.19C136.33,191.71,136,190,135.85,188.59Z"/><path class="cls-77" d="M123,177.82l.28,5.57s1.62,2.38,3.79,2.2a1.84,1.84,0,0,0,1.76-2.2c-.25-.81-.53-3.08-.61-3.35s.12-3.3.12-3.95a12.2,12.2,0,0,0-.12-1.46Z"/><path class="cls-77" d="M131.52,173.32c.49,4.74-1.3,8.83-5.58,9.25-2.92.29-5.69-3.29-6.18-8s3.27-7.4,4.58-7.63C130.69,165.83,131,168.59,131.52,173.32Z"/><path class="cls-78" d="M137.26,208.42c1.33.25,3.57-.57,3.83-1.53.66-2.47-.78-2.3-2.34-2.33.18-.55,1.13-3.14,0-2.36-2,1.45-3.49,2.28-4.62,2-1.55-.34-.59,2-.49,3.52C134.87,208,136.07,208.2,137.26,208.42Z"/><path class="cls-71" d="M123,189.43v0l0,0-.07.12-.13.27c-.09.19-.17.38-.25.58a8.83,8.83,0,0,0-.39,1.2c-.22.81.39,1.39.43,2.1.07,1.43-.11,2.74,1.09,3.75l.23.18.28.21.61.43c.41.28.84.55,1.28.82.88.53,1.81,1,2.76,1.51s1.92.93,2.91,1.36c.49.22,1,.43,1.49.63l.75.3.38.15.31.12h0a1.08,1.08,0,0,1,.69,1.12,10.48,10.48,0,0,1-1.09,3.27,1.09,1.09,0,0,1-1.25.6c-.94-.24-1.66-.47-1.66-.47q-.83-.27-1.65-.57c-1.1-.39-2.2-.81-3.29-1.27s-2.18-1-3.26-1.51c-.54-.28-1.08-.57-1.61-.88l-.81-.49c-.14-.09-.26-.16-.41-.27l-.45-.31a11.14,11.14,0,0,1-4.59-7.87,14.37,14.37,0,0,1,.22-4.37,15.12,15.12,0,0,1,.53-2c.11-.34.23-.66.36-1a5.32,5.32,0,0,1,.21-.5l.11-.26.07-.14.09-.19a3.5,3.5,0,0,1,6.14,3.35Z"/><path class="cls-79" d="M130.51,170.24a8.09,8.09,0,0,1,.78,3.66,15.27,15.27,0,0,0,.29,1.64,4.27,4.27,0,0,0,.5-1.51,13.37,13.37,0,0,0,.25-2.52,3.83,3.83,0,0,0-.56-2.14c-.26-.35-.29-.59-.64-.83a5.06,5.06,0,0,0-1.64-.86c-1-.25-1.7.1-.81.89C129.31,169.13,130.13,169.47,130.51,170.24Z"/><path class="cls-79" d="M131.69,177.45c0-.35-.1-1.36-.62-.75a1.14,1.14,0,0,0-.2.61,2.37,2.37,0,0,1-.09.65,1.1,1.1,0,0,1-1.13.62.93.93,0,0,1-.51-.16,1.53,1.53,0,0,1-.37-.39l-.81-1.09c-.46-.62-1.45-.41-2.11-.36a4.19,4.19,0,0,0-2.19.76l-.2.16a2.34,2.34,0,0,1-.49.33,1.43,1.43,0,0,1-1.7-.67c-.18-.27-.34-.61-.63-.67a.59.59,0,0,0-.59.33,1.9,1.9,0,0,0-.2.75,5.83,5.83,0,0,0,.32,2.82c.76,1.88,2.4,2.19,4.06,2.24l2,.06a5.89,5.89,0,0,0,3.51-.63,4.51,4.51,0,0,0,1.78-2.8A7.85,7.85,0,0,0,131.69,177.45Zm-4.51,2.37a2.2,2.2,0,0,1-2,.13c-.3-.11-.14-.63.15-.52a1.77,1.77,0,0,0,1.67-.1C127.23,179.16,127.45,179.64,127.18,179.82Z"/><path class="cls-79" d="M132.58,167.44a8.89,8.89,0,0,0,.34-1.35,2.69,2.69,0,0,1-1.32,0l0-.8c0-.22-2.92-.53-3.16-.56-2.23-.31-4.26-.59-6.35.52a6.23,6.23,0,0,0-3.34,4.47,9.63,9.63,0,0,0,1.17,6.15,14,14,0,0,1-.07-2.23,4.56,4.56,0,0,1,.54-1.38,5.86,5.86,0,0,1,2.11-2A11.07,11.07,0,0,1,127,169a11.64,11.64,0,0,1,4.48.23c.65.22.75.39,1.19-.27a12.32,12.32,0,0,0,.65-1.49Z"/></g></g><g id="guy"><path class="cls-80" d="M316.2,280.12s.31,4.48,0,4.57-3.66.59-3.6.1-.63-5-.63-5Z"/><path class="cls-80" d="M291.55,280.25s-.31,4.48,0,4.57,3.66.59,3.6.09.62-5,.62-5Z"/><path class="cls-5" d="M300.3,260.18c-.33,2.26-2.09,9.45-3.65,15.59l-.87,5.32h-4.3l1.93-64.87s.44-.6,1.16-1.53H305c.38,5-3.35,29.42-3.68,32.72S300.91,256,300.3,260.18Z"/><path class="cls-81" d="M316.42,280.7c.23-6.89.58-18.93.27-21.89a40,40,0,0,0-2-9.2c-.15-3.13,1.67-31.66.51-34.22a3,3,0,0,0-1.35-1.38l-.13,0-10.17,1.44a34.42,34.42,0,0,1-3.23,1.38l11.42,64.51Z"/><path class="cls-82" d="M295.4,284.05a8.4,8.4,0,0,0-3.73-.16c-2,.35-4.64.82-4.83,1.16a1.48,1.48,0,0,0-.1.84s8.34-.09,8.68-.28S295.4,284.05,295.4,284.05Z"/><path class="cls-82" d="M312.35,284.05a8.4,8.4,0,0,1,3.73-.16c2,.35,2.29.82,2.48,1.16a1.48,1.48,0,0,1,.1.84s-6-.09-6.33-.28S312.35,284.05,312.35,284.05Z"/><path class="cls-83" d="M288.92,199.21l-.3-.08-.17-.06-.31-.11-.51-.21c-.35-.15-.62-.3-.92-.45a17.11,17.11,0,0,1-1.58-1l-.36-.26-.35-.28-.67-.56c-.42-.39-.83-.78-1.22-1.19a23,23,0,0,1-3.67-5.24l-.36-.68-.18-.35-.15-.34-.61-1.4c-.21-.46-.35-.94-.53-1.41l-.49-1.41c-.26-1-.53-1.91-.77-2.86l-.6-2.86a3.36,3.36,0,0,1,2.59-3.86,3.15,3.15,0,0,1,3.79,2l.06.21.76,2.43c.29.79.59,1.57.89,2.35l.52,1.11c.18.37.33.76.54,1.1l.58,1,.15.26.16.25.32.49a16.29,16.29,0,0,0,2.91,3.41l.82.65.41.27.21.14.21.12a8.52,8.52,0,0,0,.8.4c.12,0,.25.1.34.12l.14,0h0l-.12,0a4,4,0,0,1,3,5.07A4.56,4.56,0,0,1,288.92,199.21Z"/><path class="cls-83" d="M296.75,177.31a133.81,133.81,0,0,0-8.34,12.79c-2.68,5.09,5.17,7.35,5.17,7.35s3.61-5.24,4.66-9.12.69-10.56.69-10.56Z"/><path class="cls-84" d="M292.19,222.17S293.61,209.55,294,203c.54-9.54.4-21.12,2.29-24.85,3.2-6.3,9.06-7,15.1-5.93s7,18.33,4.65,48.07C313,219.35,292.19,222.17,292.19,222.17Z"/><path class="cls-85" d="M274.43,168.63l5.08,12.72a1.12,1.12,0,0,0,1.39.63l5-1.57a.79.79,0,0,0,.52-1l-5.08-12.72A1.12,1.12,0,0,0,280,166l-5,1.57A.8.8,0,0,0,274.43,168.63Z"/><path class="cls-81" d="M273.9,168.75,279,181.47a1.11,1.11,0,0,0,1.38.64l5-1.57a.81.81,0,0,0,.52-1l-5.08-12.72a1.12,1.12,0,0,0-1.39-.63l-5,1.57A.8.8,0,0,0,273.9,168.75Z"/><path class="cls-80" d="M274.37,175.26c0-1.26.66-3.39,1-2.87,2.09,3.4,3.62-.5,5.6.05,2.59.73,3.51,2.5,2.23,4.87a4.79,4.79,0,0,1-5.35,2.33C275.19,179.2,274.37,178,274.37,175.26Z"/><path class="cls-85" d="M275.7,169a.42.42,0,0,1-.39.55.69.69,0,0,1-.65-.52.41.41,0,0,1,.39-.55A.69.69,0,0,1,275.7,169Z"/><path class="cls-83" d="M314.67,173c.18.1,3.78,2.27,3.89,2.36s.19.18.27.24l.5.5c.33.33.64.65.95,1,.6.68,1.2,1.36,1.75,2.07a33,33,0,0,1,2.88,4.47,28.68,28.68,0,0,1,1.92,4.84c.13.42.22.83.31,1.24s.18.85.25,1.24.16.91.22,1.23a5.83,5.83,0,0,1,.09.7c0,.23,0,.51.05.68a29.78,29.78,0,0,1-.17,5.27,21.88,21.88,0,0,1-1,5,21.08,21.08,0,0,1-5.16,8.33,3.56,3.56,0,0,1-4.75.29c-1.44-1.15-1.23-2.6-.35-4,0,0,0,0,0,0a14.48,14.48,0,0,0,3.69-6.1,17.17,17.17,0,0,0,.48-3.78,22.35,22.35,0,0,0-.21-3.74l-.08-.44c0-.17,0-.27-.08-.5s-.1-.66-.17-1-.15-.61-.24-.92-.16-.65-.26-1a18.34,18.34,0,0,0-1.59-3.53,17.2,17.2,0,0,0-2.36-3.14c-.45-.47-.93-.91-1.4-1.36-.23-.22-.5-.43-.72-.64L313,182l-.18-.15c-.06,0-.09,0-.14-.11-1.48-1.88-1.73-3.9-.17-5.86S312.61,171.85,314.67,173Z"/><path class="cls-80" d="M315.66,215.88c-2.19,1.46-4.79.57-6.26-1.47s-1.74-3.78.91-4.27c3.84-.72.11-3.1,1.18-3.41,1.35-.38,4.66,1.6,5.61,2.81C318.79,211.72,317.84,214.43,315.66,215.88Z"/><path class="cls-5" d="M311.49,172.19a17.64,17.64,0,0,0-9.35.4c.17,3.21.76,5.44,4,5.44C309.9,178,311.12,175.83,311.49,172.19Z"/><path class="cls-80" d="M310.84,165.86a55.26,55.26,0,0,1-.06,6.11c-.32,3.14-1.37,5-4.57,5-5.55,0-2.47-9.16-4.35-12.47C304.25,164.67,310.84,165.86,310.84,165.86Z"/><path class="cls-5" d="M297.8,158.52a3.94,3.94,0,1,1,4.07,3.8A3.92,3.92,0,0,1,297.8,158.52Z"/><path class="cls-5" d="M299.77,150.76a3.94,3.94,0,1,1,4.08,3.8A3.95,3.95,0,0,1,299.77,150.76Z"/><path class="cls-5" d="M304.11,150.84a3.94,3.94,0,1,1,4.07,3.8A3.93,3.93,0,0,1,304.11,150.84Z"/><path class="cls-5" d="M307.47,154.79a3.94,3.94,0,1,1,4.07,3.8A3.93,3.93,0,0,1,307.47,154.79Z"/><path class="cls-5" d="M308,161.36a3.94,3.94,0,1,1,4.07,3.8A3.94,3.94,0,0,1,308,161.36Z"/><path class="cls-80" d="M309.17,164.38a2.3,2.3,0,0,1,2.21-2.35,2.25,2.25,0,0,1,2.33,2.19,2.29,2.29,0,0,1-2.21,2.35A2.25,2.25,0,0,1,309.17,164.38Z"/><path class="cls-80" d="M303.88,170.54l2.05-.07a5.83,5.83,0,0,0,5.62-6l-.11-4.4a6,6,0,0,0-6.2-5.83l-6.15.22.31,11.83A4.31,4.31,0,0,0,303.88,170.54Z"/><path class="cls-5" d="M296.94,153.53a3.94,3.94,0,1,1,4.07,3.8A3.93,3.93,0,0,1,296.94,153.53Z"/><path class="cls-5" d="M309.72,149.18a17.77,17.77,0,0,1-5.09-.09c1.51-.17,3.17-.38,4.81-.43l.78.51A1.69,1.69,0,0,0,309.72,149.18Z"/><path class="cls-5" d="M301.88,152.49a26.73,26.73,0,0,0,8,.5,2.13,2.13,0,0,0,1.57-3,5,5,0,0,1,1.48,1.7c1.18,2.93-.83,7.52-.83,7.52l-1.61-.27s.35-3.79-2-4a77.14,77.14,0,0,0-9.29.47l-.14,0s0-1.57,0-3.49C300,152.17,300.94,152.34,301.88,152.49Z"/><path class="cls-5" d="M311.09,164.14c-.34-.33-.62-1.34-.94-1.69.54-1.45.78-1.83.33-3.45,1.36-1.91.5-1.38,1-.83s0,3.84,0,3.84S311.22,163.32,311.09,164.14Z"/></g></g></g></g></svg>