<svg xmlns="http://www.w3.org/2000/svg" xmlns:xlink="http://www.w3.org/1999/xlink" viewBox="0 0 370.27 296.28"><defs><style>.cls-1{mask:url(#mask);filter:url(#luminosity-noclip-7);}.cls-10,.cls-12,.cls-2,.cls-4,.cls-47,.cls-49,.cls-6,.cls-8{mix-blend-mode:multiply;}.cls-2{fill:url(#linear-gradient);}.cls-3{mask:url(#mask-2);filter:url(#luminosity-noclip-12);}.cls-4{fill:url(#linear-gradient-2);}.cls-5{mask:url(#mask-3);filter:url(#luminosity-noclip-8);}.cls-6{fill:url(#linear-gradient-3);}.cls-7{mask:url(#mask-4);filter:url(#luminosity-noclip-9);}.cls-8{fill:url(#linear-gradient-4);}.cls-9{mask:url(#mask-5);filter:url(#luminosity-noclip-10);}.cls-10{fill:url(#linear-gradient-5);}.cls-11{mask:url(#mask-6);filter:url(#luminosity-noclip-11);}.cls-12{fill:url(#linear-gradient-6);}.cls-13{isolation:isolate;}.cls-14{opacity:0.05;}.cls-15{mask:url(#mask-7);}.cls-16{fill:url(#linear-gradient-7);}.cls-17,.cls-39{fill:#fff;}.cls-18{mask:url(#mask-8);}.cls-19{fill:url(#linear-gradient-8);}.cls-20{mask:url(#mask-9);}.cls-21{fill:url(#linear-gradient-9);}.cls-22{mask:url(#mask-10);}.cls-23{fill:url(#linear-gradient-10);}.cls-24{mask:url(#mask-11);}.cls-25{fill:url(#linear-gradient-11);}.cls-26{mask:url(#mask-12);}.cls-27{fill:url(#linear-gradient-12);}.cls-28{fill:#d6e0f7;}.cls-29{fill:url(#linear-gradient-13);}.cls-30{fill:url(#linear-gradient-14);}.cls-31{fill:#a3c3e6;}.cls-32{fill:url(#linear-gradient-15);}.cls-33{fill:url(#linear-gradient-16);}.cls-34{fill:#0d1a38;}.cls-35{fill:url(#linear-gradient-17);}.cls-36{fill:#f77a4b;}.cls-37{fill:#304269;}.cls-38{fill:#f60;}.cls-39{opacity:0.5;mix-blend-mode:overlay;}.cls-40{fill:#c5cdeb;}.cls-41{fill:#e3e8fc;}.cls-42{fill:#7f9edd;}.cls-43{fill:#9db1e0;}.cls-44{fill:#b5c1e5;}.cls-45{fill:#e06a46;}.cls-46{opacity:0.41;}.cls-48{fill:url(#linear-gradient-18);}.cls-49{fill:url(#linear-gradient-19);}.cls-50{fill:#efbfa5;}.cls-51{fill:#e1e6fb;}.cls-52{fill:#ea9e7c;}.cls-53{fill:#282828;}.cls-54{fill:#39517c;}.cls-55{fill:#bac5f4;}.cls-56{fill:url(#linear-gradient-20);}.cls-57{fill:#2b1a12;}.cls-58{fill:#4a2b1e;}.cls-59{fill:#140c09;}.cls-60{fill:#807976;}.cls-61{fill:#db9474;}.cls-62{fill:#ff714d;}.cls-63{fill:#422d11;}.cls-64{fill:url(#Безымянный_градиент_73);}.cls-65{fill:url(#Безымянный_градиент_73-2);}.cls-66{fill:url(#Безымянный_градиент_73-3);}.cls-67{filter:url(#luminosity-noclip-6);}.cls-68{filter:url(#luminosity-noclip-5);}.cls-69{filter:url(#luminosity-noclip-4);}.cls-70{filter:url(#luminosity-noclip-3);}.cls-71{filter:url(#luminosity-noclip-2);}.cls-72{filter:url(#luminosity-noclip);}</style><filter id="luminosity-noclip" x="256.93" y="-9468.7" width="48.95" height="32766" filterUnits="userSpaceOnUse" color-interpolation-filters="sRGB"><feFlood flood-color="#fff" result="bg"/><feBlend in="SourceGraphic" in2="bg"/></filter><mask id="mask" x="256.93" y="-9468.7" width="48.95" height="32766" maskUnits="userSpaceOnUse"><g class="cls-72"/></mask><linearGradient id="linear-gradient" x1="291.27" y1="59.89" x2="282.17" y2="94.82" gradientUnits="userSpaceOnUse"><stop offset="0" stop-color="#4d4d4d"/><stop offset="0.99" stop-color="#b3b3b3"/></linearGradient><filter id="luminosity-noclip-2" x="25.09" y="-9468.7" width="23.61" height="32766" filterUnits="userSpaceOnUse" color-interpolation-filters="sRGB"><feFlood flood-color="#fff" result="bg"/><feBlend in="SourceGraphic" in2="bg"/></filter><mask id="mask-2" x="25.09" y="-9468.7" width="23.61" height="32766" maskUnits="userSpaceOnUse"><g class="cls-71"/></mask><linearGradient id="linear-gradient-2" x1="-207.14" y1="143.42" x2="-271.56" y2="155.52" gradientTransform="matrix(-1, 0, 0, 1, -214.21, 0)" xlink:href="#linear-gradient"/><filter id="luminosity-noclip-3" x="300.26" y="-9468.7" width="70.02" height="32766" filterUnits="userSpaceOnUse" color-interpolation-filters="sRGB"><feFlood flood-color="#fff" result="bg"/><feBlend in="SourceGraphic" in2="bg"/></filter><mask id="mask-3" x="300.26" y="-9468.7" width="70.02" height="32766" maskUnits="userSpaceOnUse"><g class="cls-70"/></mask><linearGradient id="linear-gradient-3" x1="382.73" y1="135.18" x2="300.04" y2="150.71" xlink:href="#linear-gradient"/><filter id="luminosity-noclip-4" x="312.03" y="-9468.7" width="30.32" height="32766" filterUnits="userSpaceOnUse" color-interpolation-filters="sRGB"><feFlood flood-color="#fff" result="bg"/><feBlend in="SourceGraphic" in2="bg"/></filter><mask id="mask-4" x="312.03" y="-9468.7" width="30.32" height="32766" maskUnits="userSpaceOnUse"><g class="cls-69"/></mask><linearGradient id="linear-gradient-4" x1="383.65" y1="139.95" x2="300.92" y2="155.49" xlink:href="#linear-gradient"/><filter id="luminosity-noclip-5" x="62.28" y="-9468.7" width="38.11" height="32766" filterUnits="userSpaceOnUse" color-interpolation-filters="sRGB"><feFlood flood-color="#fff" result="bg"/><feBlend in="SourceGraphic" in2="bg"/></filter><mask id="mask-5" x="62.28" y="-9468.7" width="38.11" height="32766" maskUnits="userSpaceOnUse"><g class="cls-68"/></mask><linearGradient id="linear-gradient-5" x1="-287.87" y1="84.35" x2="-294.95" y2="111.55" gradientTransform="matrix(-1, 0, 0, 1, -214.21, 0)" xlink:href="#linear-gradient"/><filter id="luminosity-noclip-6" x="3.35" y="-9468.7" width="54.52" height="32766" filterUnits="userSpaceOnUse" color-interpolation-filters="sRGB"><feFlood flood-color="#fff" result="bg"/><feBlend in="SourceGraphic" in2="bg"/></filter><mask id="mask-6" x="3.35" y="-9468.7" width="54.52" height="32766" maskUnits="userSpaceOnUse"><g class="cls-67"/></mask><linearGradient id="linear-gradient-6" x1="-207.86" y1="139.7" x2="-272.25" y2="151.8" gradientTransform="matrix(-1, 0, 0, 1, -214.21, 0)" xlink:href="#linear-gradient"/><filter id="luminosity-noclip-7" x="256.93" y="43.86" width="48.95" height="73.07" filterUnits="userSpaceOnUse" color-interpolation-filters="sRGB"><feFlood flood-color="#fff" result="bg"/><feBlend in="SourceGraphic" in2="bg"/></filter><mask id="mask-7" x="256.93" y="43.86" width="48.95" height="73.07" maskUnits="userSpaceOnUse"><g class="cls-1"><path class="cls-2" d="M257.35,116.44l.11-.12a78.11,78.11,0,0,1,7.44-30.4A113.08,113.08,0,0,1,283.77,58c.75-.84,1.52-1.66,2.29-2.48-.11,2.79,0,5.61,1.57,8-.69,1.8-1.33,3.62-1.94,5.44a.36.36,0,0,0-.06.2c-.76,2.27-1.47,4.55-2.15,6.82-.16.52-.32,1-.47,1.56-2.59-3.61-3.31-8.08-3.52-12.44a.34.34,0,0,0-.68,0c.22,4.65,1,9.44,4,13.21q-1.89,6.5-3.36,13.12a28.42,28.42,0,0,1-6.13-18.48c0-.44-.67-.39-.68,0a29,29,0,0,0,6.62,19.28q-.89,4.09-1.62,8.22a90.54,90.54,0,0,1,8.54-3.8,45.68,45.68,0,0,0,5.24-4.59c4.26-4.25,8.12-8.88,12-13.5a.34.34,0,0,0-.53-.44c-3.57,4.28-7.14,8.57-11,12.56-3.73,3.82-7.93,7.71-13.33,8.83q.63-3.47,1.38-6.9a.31.31,0,0,0,.17-.5l-.05-.07q.63-2.88,1.35-5.75l.09,0c7.67-4.53,12.3-12.28,16.67-19.75.22-.38-.4-.67-.62-.29-4.21,7.2-8.66,14.65-15.91,19.16q2.07-8.16,4.8-16.13a40.2,40.2,0,0,0,12.88-13.6c.23-.38-.4-.67-.62-.29A39.52,39.52,0,0,1,286.7,68.32c.42-1.21.85-2.43,1.3-3.63.1-.26.19-.51.29-.76a.32.32,0,0,0,.13-.36,74.45,74.45,0,0,1,7.08-14.45c.24-.36-.28-.81-.52-.44a75,75,0,0,0-7,14.08c-1.32-2.38-1.31-5.14-1.17-7.82a.51.51,0,0,0,0-.13c3.38-3.56,6.93-7,10.58-10.25,3.27,3.89,4.57,8.91,5.5,13.8a140.64,140.64,0,0,1,2.33,16.45,87.25,87.25,0,0,1-.05,12.73l.53-.17a89.78,89.78,0,0,0,.13-10.88,132,132,0,0,0-2.2-16.93c-1-5.43-2.24-11.08-5.9-15.39a.26.26,0,0,0-.41-.25A157.78,157.78,0,0,0,274,69.29a94.57,94.57,0,0,0-14.58,30.07,72.94,72.94,0,0,0-2.53,17.57Z"/></g></mask><linearGradient id="linear-gradient-7" x1="291.27" y1="59.89" x2="282.17" y2="94.82" gradientUnits="userSpaceOnUse"><stop offset="0" stop-color="#fff"/><stop offset="0.99" stop-color="#fff"/></linearGradient><filter id="luminosity-noclip-8" x="300.26" y="125.71" width="70.02" height="43.2" filterUnits="userSpaceOnUse" color-interpolation-filters="sRGB"><feFlood flood-color="#fff" result="bg"/><feBlend in="SourceGraphic" in2="bg"/></filter><mask id="mask-8" x="300.26" y="125.71" width="70.02" height="43.2" maskUnits="userSpaceOnUse"><g class="cls-5"><path class="cls-6" d="M370.12,136.76a158.19,158.19,0,0,0-32.75-9.7,108.68,108.68,0,0,0-12.07-1.35c-.06.16-.12.33-.19.49a119.3,119.3,0,0,1,26.54,4.65c1.08.31,2.15.63,3.22,1-2.53,1.1-5,2.42-6.43,4.82-1.9.16-3.8.37-5.68.62a.3.3,0,0,0-.21,0c-2.35.3-4.68.65-7,1l-1.58.26c2.06-3.84,5.71-6.38,9.48-8.43.38-.21,0-.79-.34-.59-4,2.19-7.92,4.95-10,9.15q-6.6,1.11-13.12,2.64A27.6,27.6,0,0,1,333.7,128c.4-.17.05-.76-.34-.58a28.14,28.14,0,0,0-14.19,14.1c-1.91.45-3.8.93-5.69,1.43l-.81.92q3.21-.88,6.43-1.66a.31.31,0,0,0,.52,0,.3.3,0,0,1,0-.08q2.83-.67,5.69-1.27a.27.27,0,0,0,.08.07c7.4,4.85,16.32,5.63,24.88,6.3.43,0,.42-.64,0-.67-8.24-.64-16.82-1.4-24-5.88Q334.43,139,342.7,138a40.65,40.65,0,0,0,17.75,5.59c.44,0,.42-.65,0-.68a39.81,39.81,0,0,1-16.63-5c1.27-.14,2.54-.28,3.8-.4l.8-.07a.33.33,0,0,0,.38,0,74,74,0,0,1,15.95.09c.42.05.59-.6.16-.65a75.31,75.31,0,0,0-15.6-.21c1.52-2.18,4-3.35,6.42-4.38a.26.26,0,0,0,.1-.07c4.65,1.47,9.24,3.16,13.77,5-2,4.55-5.89,7.85-9.83,10.76a137.58,137.58,0,0,1-13.56,9.09,87.59,87.59,0,0,1-28.73,10.22,88.64,88.64,0,0,1-17,1.22c-.33,0-.28.49,0,.5A89.22,89.22,0,0,0,331,164.3a87.58,87.58,0,0,0,14-6.1A129.37,129.37,0,0,0,359,149c4.39-3.18,8.84-6.72,11.06-11.8A.24.24,0,0,0,370.12,136.76Z"/></g></mask><linearGradient id="linear-gradient-8" x1="382.73" y1="135.18" x2="300.04" y2="150.71" xlink:href="#linear-gradient-7"/><filter id="luminosity-noclip-9" x="312.03" y="144.07" width="30.32" height="12.94" filterUnits="userSpaceOnUse" color-interpolation-filters="sRGB"><feFlood flood-color="#fff" result="bg"/><feBlend in="SourceGraphic" in2="bg"/></filter><mask id="mask-9" x="312.03" y="144.07" width="30.32" height="12.94" maskUnits="userSpaceOnUse"><g class="cls-7"><path class="cls-8" d="M324.68,152.18c5.65,2,11.46,3.39,17.26,4.82a.33.33,0,0,0,.16-.65c-5.37-1.33-10.75-2.66-16-4.4-5-1.65-10.22-3.67-13.6-7.88l-.45.5C315.25,148.48,320,150.56,324.68,152.18Z"/></g></mask><linearGradient id="linear-gradient-9" x1="383.65" y1="139.95" x2="300.92" y2="155.49" xlink:href="#linear-gradient-7"/><filter id="luminosity-noclip-10" x="62.28" y="71.87" width="38.11" height="56.89" filterUnits="userSpaceOnUse" color-interpolation-filters="sRGB"><feFlood flood-color="#fff" result="bg"/><feBlend in="SourceGraphic" in2="bg"/></filter><mask id="mask-10" x="62.28" y="71.87" width="38.11" height="56.89" maskUnits="userSpaceOnUse"><g class="cls-9"><path class="cls-10" d="M100.07,128.38l-.09-.09a60.93,60.93,0,0,0-5.79-23.67A88,88,0,0,0,79.5,82.9c-.59-.65-1.18-1.29-1.79-1.93a10.4,10.4,0,0,1-1.22,6.25c.54,1.4,1,2.81,1.51,4.23a.24.24,0,0,1,0,.16c.59,1.77,1.14,3.54,1.68,5.31l.36,1.21c2-2.81,2.57-6.29,2.74-9.69,0-.34.55-.3.53,0-.18,3.62-.81,7.35-3.09,10.29q1.49,5.07,2.62,10.21a22.11,22.11,0,0,0,4.77-14.39c0-.34.52-.3.53,0a22.56,22.56,0,0,1-5.15,15c.46,2.12.88,4.26,1.26,6.4a70.47,70.47,0,0,0-6.65-3,35.48,35.48,0,0,1-4.08-3.57c-3.32-3.32-6.32-6.92-9.32-10.52a.27.27,0,0,1,.41-.34c2.78,3.33,5.56,6.67,8.6,9.78s6.17,6,10.38,6.88q-.49-2.7-1.07-5.38a.24.24,0,0,1-.14-.39l0,0c-.33-1.5-.68-3-1-4.48a.11.11,0,0,1-.07,0c-6-3.52-9.58-9.56-13-15.38-.17-.29.31-.52.48-.22,3.28,5.6,6.74,11.41,12.39,14.92q-1.6-6.36-3.74-12.56a31.47,31.47,0,0,1-10-10.59c-.17-.3.31-.52.48-.23a30.77,30.77,0,0,0,9.27,10c-.33-1-.67-1.89-1-2.83l-.22-.6a.26.26,0,0,1-.11-.28A57.5,57.5,0,0,0,70.36,76c-.18-.28.22-.63.41-.34a59.06,59.06,0,0,1,5.48,11,11.06,11.06,0,0,0,.91-6.08.3.3,0,0,1,0-.1c-2.64-2.77-5.4-5.43-8.24-8-2.55,3-3.56,6.94-4.28,10.75A108.63,108.63,0,0,0,62.84,96a68.43,68.43,0,0,0,0,9.92l-.41-.13a68.54,68.54,0,0,1-.11-8.48,102.66,102.66,0,0,1,1.72-13.18c.76-4.23,1.74-8.62,4.59-12,0-.16.17-.33.32-.19A121.79,121.79,0,0,1,87.07,91.67a73.37,73.37,0,0,1,11.35,23.41,56.56,56.56,0,0,1,2,13.68C100.29,128.63,100.18,128.51,100.07,128.38Z"/></g></mask><linearGradient id="linear-gradient-10" x1="-287.87" y1="84.35" x2="-294.95" y2="111.55" gradientTransform="matrix(-1, 0, 0, 1, -214.21, 0)" xlink:href="#linear-gradient-7"/><filter id="luminosity-noclip-11" x="3.35" y="132.33" width="54.52" height="33.64" filterUnits="userSpaceOnUse" color-interpolation-filters="sRGB"><feFlood flood-color="#fff" result="bg"/><feBlend in="SourceGraphic" in2="bg"/></filter><mask id="mask-11" x="3.35" y="132.33" width="54.52" height="33.64" maskUnits="userSpaceOnUse"><g class="cls-11"><path class="cls-12" d="M3.46,140.93A123.75,123.75,0,0,1,29,133.38a84.72,84.72,0,0,1,9.4-1l.14.38a92.65,92.65,0,0,0-20.66,3.62c-.84.24-1.67.49-2.5.75a10.21,10.21,0,0,1,5,3.75c1.48.13,2.95.29,4.42.48a.27.27,0,0,1,.16,0c1.83.24,3.65.51,5.45.79l1.24.2c-1.61-3-4.45-5-7.39-6.57-.29-.16,0-.61.27-.45,3.14,1.7,6.17,3.85,7.77,7.12q5.15.87,10.22,2.05a21.48,21.48,0,0,0-10.67-10.36c-.31-.14,0-.59.27-.46a21.86,21.86,0,0,1,11,11c1.48.35,3,.72,4.43,1.12l.63.71q-2.49-.69-5-1.29a.23.23,0,0,1-.4,0l0-.06c-1.47-.35-2.95-.68-4.43-1l-.06.06c-5.77,3.77-12.71,4.38-19.37,4.9-.34,0-.33-.5,0-.52,6.41-.5,13.09-1.09,18.7-4.58q-6.34-1.29-12.79-2.07A31.53,31.53,0,0,1,11,146.22c-.34,0-.33-.49,0-.52A31,31,0,0,0,24,141.77l-3-.31-.62-.06a.24.24,0,0,1-.3,0,57.22,57.22,0,0,0-12.41.07c-.33,0-.46-.47-.12-.51a57.94,57.94,0,0,1,12.14-.16,10.89,10.89,0,0,0-5-3.41l-.08-.06c-3.62,1.15-7.19,2.46-10.72,3.88,1.57,3.55,4.59,6.11,7.65,8.38a106.74,106.74,0,0,0,10.56,7.07,68.27,68.27,0,0,0,22.37,8,69,69,0,0,0,13.23.94c.26,0,.22.39,0,.39A68.83,68.83,0,0,1,23,157.63a101.23,101.23,0,0,1-10.94-7.15c-3.42-2.48-6.88-5.23-8.61-9.18A.2.2,0,0,1,3.46,140.93Z"/></g></mask><linearGradient id="linear-gradient-11" x1="-207.86" y1="139.7" x2="-272.25" y2="151.8" gradientTransform="matrix(-1, 0, 0, 1, -214.21, 0)" xlink:href="#linear-gradient-7"/><filter id="luminosity-noclip-12" x="25.09" y="146.63" width="23.61" height="10.08" filterUnits="userSpaceOnUse" color-interpolation-filters="sRGB"><feFlood flood-color="#fff" result="bg"/><feBlend in="SourceGraphic" in2="bg"/></filter><mask id="mask-12" x="25.09" y="146.63" width="23.61" height="10.08" maskUnits="userSpaceOnUse"><g class="cls-3"><path class="cls-4" d="M38.85,152.94c-4.4,1.52-8.93,2.64-13.44,3.75a.26.26,0,0,1-.13-.5c4.19-1,8.38-2.07,12.48-3.43,3.87-1.28,8-2.86,10.59-6.13l.35.38C46.19,150.06,42.51,151.68,38.85,152.94Z"/></g></mask><linearGradient id="linear-gradient-12" x1="-207.14" y1="143.42" x2="-271.56" y2="155.52" gradientTransform="matrix(-1, 0, 0, 1, -214.21, 0)" xlink:href="#linear-gradient-7"/><linearGradient id="linear-gradient-13" x1="230.59" y1="200.07" x2="369.92" y2="200.07" gradientUnits="userSpaceOnUse"><stop offset="0" stop-color="#eaedfc"/><stop offset="0.84" stop-color="#aed1fc"/></linearGradient><linearGradient id="linear-gradient-14" x1="239.48" y1="182.43" x2="270.81" y2="27.1" xlink:href="#linear-gradient-13"/><linearGradient id="linear-gradient-15" x1="141.95" y1="225.62" x2="-4.05" y2="162.96" xlink:href="#linear-gradient-13"/><linearGradient id="linear-gradient-16" x1="131.8" y1="189.58" x2="97.8" y2="21.58" xlink:href="#linear-gradient-13"/><linearGradient id="linear-gradient-17" x1="183.91" y1="46.48" x2="183.91" y2="286.61" gradientUnits="userSpaceOnUse"><stop offset="0.02" stop-color="#fff"/><stop offset="1" stop-color="#dcd6e8"/></linearGradient><linearGradient id="linear-gradient-18" x1="205.79" y1="228.21" x2="187.45" y2="209.87" xlink:href="#linear-gradient-17"/><linearGradient id="linear-gradient-19" x1="235.56" y1="244.18" x2="235.56" y2="227.45" xlink:href="#linear-gradient-17"/><linearGradient id="linear-gradient-20" x1="32.31" y1="133.43" x2="47" y2="133.43" gradientTransform="matrix(1, 0, -0.05, 1, 83.69, -0.69)" gradientUnits="userSpaceOnUse"><stop offset="0" stop-color="#eaedfc"/><stop offset="0.84" stop-color="#cae0fc"/></linearGradient><linearGradient id="Безымянный_градиент_73" x1="69.08" y1="49.29" x2="69.08" y2="11.05" gradientUnits="userSpaceOnUse"><stop offset="0.07" stop-color="#fff"/><stop offset="0.73" stop-color="#e2e2e2"/><stop offset="1" stop-color="#cfcfcf"/></linearGradient><linearGradient id="Безымянный_градиент_73-2" x1="348.17" y1="92.66" x2="348.17" y2="54.42" xlink:href="#Безымянный_градиент_73"/><linearGradient id="Безымянный_градиент_73-3" x1="23.7" y1="109.22" x2="23.7" y2="78.2" xlink:href="#Безымянный_градиент_73"/></defs><title>illustration</title><g class="cls-13"><g id="User"><g id="_4" data-name="4"><g class="cls-14"><path d="M57.59,229.06a139.25,139.25,0,0,0,17.14,16.81A218.11,218.11,0,0,0,157.43,289a218.66,218.66,0,0,0,147.86-13c9.67-4.52,16.69-14.55,20.46-24.55,2.09-5.55,1.84-12.4-2.17-16.77-4.22-4.59-12.19-6.44-13.1-12.6-1-6.68,7.09-10.45,13.22-13.3,33.76-15.67,65-107.54,27.28-116.21-39.5-9.08,3.91-39.7-15.71-81.39C320-21.3,63.57,40.47,55.32,87.51c-3,17-16.73,15.17-28.5,27.75-12.12,13-6.88,33.73-.91,50.43C35.15,191.54,42.1,210.79,57.59,229.06Z"/></g><g id="bg_obj"><g class="cls-15"><path class="cls-16" d="M257.35,116.44l.11-.12a78.11,78.11,0,0,1,7.44-30.4A113.08,113.08,0,0,1,283.77,58c.75-.84,1.52-1.66,2.29-2.48-.11,2.79,0,5.61,1.57,8-.69,1.8-1.33,3.62-1.94,5.44a.36.36,0,0,0-.06.2c-.76,2.27-1.47,4.55-2.15,6.82-.16.52-.32,1-.47,1.56-2.59-3.61-3.31-8.08-3.52-12.44a.34.34,0,0,0-.68,0c.22,4.65,1,9.44,4,13.21q-1.89,6.5-3.36,13.12a28.42,28.42,0,0,1-6.13-18.48c0-.44-.67-.39-.68,0a29,29,0,0,0,6.62,19.28q-.89,4.09-1.62,8.22a90.54,90.54,0,0,1,8.54-3.8,45.68,45.68,0,0,0,5.24-4.59c4.26-4.25,8.12-8.88,12-13.5a.34.34,0,0,0-.53-.44c-3.57,4.28-7.14,8.57-11,12.56-3.73,3.82-7.93,7.71-13.33,8.83q.63-3.47,1.38-6.9a.31.31,0,0,0,.17-.5l-.05-.07q.63-2.88,1.35-5.75l.09,0c7.67-4.53,12.3-12.28,16.67-19.75.22-.38-.4-.67-.62-.29-4.21,7.2-8.66,14.65-15.91,19.16q2.07-8.16,4.8-16.13a40.2,40.2,0,0,0,12.88-13.6c.23-.38-.4-.67-.62-.29A39.52,39.52,0,0,1,286.7,68.32c.42-1.21.85-2.43,1.3-3.63.1-.26.19-.51.29-.76a.32.32,0,0,0,.13-.36,74.45,74.45,0,0,1,7.08-14.45c.24-.36-.28-.81-.52-.44a75,75,0,0,0-7,14.08c-1.32-2.38-1.31-5.14-1.17-7.82a.51.51,0,0,0,0-.13c3.38-3.56,6.93-7,10.58-10.25,3.27,3.89,4.57,8.91,5.5,13.8a140.64,140.64,0,0,1,2.33,16.45,87.25,87.25,0,0,1-.05,12.73l.53-.17a89.78,89.78,0,0,0,.13-10.88,132,132,0,0,0-2.2-16.93c-1-5.43-2.24-11.08-5.9-15.39a.26.26,0,0,0-.41-.25A157.78,157.78,0,0,0,274,69.29a94.57,94.57,0,0,0-14.58,30.07,72.94,72.94,0,0,0-2.53,17.57Z"/></g><path class="cls-17" d="M353.13,77.63a.38.38,0,0,0-.3-.65C335.88,79.24,319,82.74,303,88.63c-15.66,5.73-30.55,13.79-43.25,24.63a108.66,108.66,0,0,0-18.6,20.37c-.28.4.3.9.58.5,9.39-13.45,22-24.39,36-32.78,14.43-8.59,30.37-14.42,46.67-18.38,1.63-.4,3.26-.77,4.9-1.13-2.49,3.33-4.71,6.91-4.85,11.16q-3.53,2.44-7,5a.39.39,0,0,0-.24.19c-2.85,2.15-5.64,4.35-8.4,6.56L307,106.31c-.13-6.59,2.76-12.67,6.18-18.2.34-.56-.54-1.07-.88-.51-3.65,5.89-6.7,12.44-6.29,19.52q-7.81,6.39-15.19,13.27a42.31,42.31,0,0,1,8.08-27.8c.39-.53-.5-1-.88-.51a43.08,43.08,0,0,0-8.15,29.2q-6.87,6.43-13.34,13.26l-2.09,2.23c3.12-8.24,2.53-17.3,4.21-25.88.12-.64-.86-.91-1-.27-1.81,9.25-.92,19.17-5.05,27.87a.46.46,0,0,0-.05.32Q266,146,259.85,153.59c-.4.5.31,1.23.72.72q10.1-12.51,21.4-24l.08,0c7.27,3.1,15.24,2.3,22.82.89,8.81-1.65,17.45-4.09,26.07-6.52a.51.51,0,0,0-.27-1c-8,2.25-16,4.52-24.14,6.14-7.8,1.56-16.23,2.82-23.8-.34q3.69-3.72,7.51-7.32c.31.1.68,0,.64-.46,0,0,0-.08,0-.12q3.21-3,6.5-5.92a.76.76,0,0,0,.16,0c13.22.87,25.44-4.75,37.1-10.25.59-.28.07-1.16-.52-.88-11.23,5.3-23,10.71-35.67,10.16q9.42-8.26,19.49-15.75a60.37,60.37,0,0,0,27.28-5.87c.59-.29.07-1.16-.52-.88a59.11,59.11,0,0,1-25.4,5.75c1.54-1.14,3.1-2.26,4.66-3.37l1-.69a.49.49,0,0,0,.47-.33,111.12,111.12,0,0,1,20.87-11.78c.6-.25.34-1.23-.27-1A112.33,112.33,0,0,0,325.5,92.26c.39-4,2.74-7.39,5.16-10.56a.51.51,0,0,0,.09-.18c7.15-1.52,14.38-2.73,21.63-3.7.72,7.52-1.91,14.75-4.91,21.54a209.81,209.81,0,0,1-11,22.11,132.92,132.92,0,0,1-51.26,49.22c-.43.24,0,.86.43.63a133.53,133.53,0,0,0,50.17-47.27,199,199,0,0,0,11.59-22.61C350.76,94,354,86,353.13,77.63Z"/><g class="cls-18"><path class="cls-19" d="M370.12,136.76a158.19,158.19,0,0,0-32.75-9.7,108.68,108.68,0,0,0-12.07-1.35c-.06.16-.12.33-.19.49a119.3,119.3,0,0,1,26.54,4.65c1.08.31,2.15.63,3.22,1-2.53,1.1-5,2.42-6.43,4.82-1.9.16-3.8.37-5.68.62a.3.3,0,0,0-.21,0c-2.35.3-4.68.65-7,1l-1.58.26c2.06-3.84,5.71-6.38,9.48-8.43.38-.21,0-.79-.34-.59-4,2.19-7.92,4.95-10,9.15q-6.6,1.11-13.12,2.64A27.6,27.6,0,0,1,333.7,128c.4-.17.05-.76-.34-.58a28.14,28.14,0,0,0-14.19,14.1c-1.91.45-3.8.93-5.69,1.43l-.81.92q3.21-.88,6.43-1.66a.31.31,0,0,0,.52,0,.3.3,0,0,1,0-.08q2.83-.67,5.69-1.27a.27.27,0,0,0,.08.07c7.4,4.85,16.32,5.63,24.88,6.3.43,0,.42-.64,0-.67-8.24-.64-16.82-1.4-24-5.88Q334.43,139,342.7,138a40.65,40.65,0,0,0,17.75,5.59c.44,0,.42-.65,0-.68a39.81,39.81,0,0,1-16.63-5c1.27-.14,2.54-.28,3.8-.4l.8-.07a.33.33,0,0,0,.38,0,74,74,0,0,1,15.95.09c.42.05.59-.6.16-.65a75.31,75.31,0,0,0-15.6-.21c1.52-2.18,4-3.35,6.42-4.38a.26.26,0,0,0,.1-.07c4.65,1.47,9.24,3.16,13.77,5-2,4.55-5.89,7.85-9.83,10.76a137.58,137.58,0,0,1-13.56,9.09,87.59,87.59,0,0,1-28.73,10.22,88.64,88.64,0,0,1-17,1.22c-.33,0-.28.49,0,.5A89.22,89.22,0,0,0,331,164.3a87.58,87.58,0,0,0,14-6.1A129.37,129.37,0,0,0,359,149c4.39-3.18,8.84-6.72,11.06-11.8A.24.24,0,0,0,370.12,136.76Z"/></g><g class="cls-20"><path class="cls-21" d="M324.68,152.18c5.65,2,11.46,3.39,17.26,4.82a.33.33,0,0,0,.16-.65c-5.37-1.33-10.75-2.66-16-4.4-5-1.65-10.22-3.67-13.6-7.88l-.45.5C315.25,148.48,320,150.56,324.68,152.18Z"/></g><g class="cls-22"><path class="cls-23" d="M100.07,128.38l-.09-.09a60.93,60.93,0,0,0-5.79-23.67A88,88,0,0,0,79.5,82.9c-.59-.65-1.18-1.29-1.79-1.93a10.4,10.4,0,0,1-1.22,6.25c.54,1.4,1,2.81,1.51,4.23a.24.24,0,0,1,0,.16c.59,1.77,1.14,3.54,1.68,5.31l.36,1.21c2-2.81,2.57-6.29,2.74-9.69,0-.34.55-.3.53,0-.18,3.62-.81,7.35-3.09,10.29q1.49,5.07,2.62,10.21a22.11,22.11,0,0,0,4.77-14.39c0-.34.52-.3.53,0a22.56,22.56,0,0,1-5.15,15c.46,2.12.88,4.26,1.26,6.4a70.47,70.47,0,0,0-6.65-3,35.48,35.48,0,0,1-4.08-3.57c-3.32-3.32-6.32-6.92-9.32-10.52a.27.27,0,0,1,.41-.34c2.78,3.33,5.56,6.67,8.6,9.78s6.17,6,10.38,6.88q-.49-2.7-1.07-5.38a.24.24,0,0,1-.14-.39l0,0c-.33-1.5-.68-3-1-4.48a.11.11,0,0,1-.07,0c-6-3.52-9.58-9.56-13-15.38-.17-.29.31-.52.48-.22,3.28,5.6,6.74,11.41,12.39,14.92q-1.6-6.36-3.74-12.56a31.47,31.47,0,0,1-10-10.59c-.17-.3.31-.52.48-.23a30.77,30.77,0,0,0,9.27,10c-.33-1-.67-1.89-1-2.83l-.22-.6a.26.26,0,0,1-.11-.28A57.5,57.5,0,0,0,70.36,76c-.18-.28.22-.63.41-.34a59.06,59.06,0,0,1,5.48,11,11.06,11.06,0,0,0,.91-6.08.3.3,0,0,1,0-.1c-2.64-2.77-5.4-5.43-8.24-8-2.55,3-3.56,6.94-4.28,10.75A108.63,108.63,0,0,0,62.84,96a68.43,68.43,0,0,0,0,9.92l-.41-.13a68.54,68.54,0,0,1-.11-8.48,102.66,102.66,0,0,1,1.72-13.18c.76-4.23,1.74-8.62,4.59-12,0-.16.17-.33.32-.19A121.79,121.79,0,0,1,87.07,91.67a73.37,73.37,0,0,1,11.35,23.41,56.56,56.56,0,0,1,2,13.68C100.29,128.63,100.18,128.51,100.07,128.38Z"/></g><path class="cls-17" d="M25.49,98.16c-.16-.18-.07-.54.23-.5a183.33,183.33,0,0,1,38.84,9.06,110,110,0,0,1,33.68,19.19,84.52,84.52,0,0,1,14.48,15.86c.22.31-.23.7-.45.38a90.14,90.14,0,0,0-28.06-25.51,131.27,131.27,0,0,0-36.33-14.32c-1.27-.31-2.54-.6-3.82-.88,1.94,2.6,3.67,5.38,3.77,8.69,1.84,1.27,3.64,2.59,5.42,3.93a.38.38,0,0,1,.2.15c2.21,1.67,4.39,3.39,6.53,5.1l1.47,1.19c.1-5.14-2.15-9.87-4.81-14.18-.27-.43.41-.83.68-.4,2.84,4.59,5.22,9.69,4.9,15.21q6.07,5,11.83,10.33a33,33,0,0,0-6.3-21.65c-.3-.41.39-.8.69-.4a33.63,33.63,0,0,1,6.35,22.74q5.34,5,10.38,10.32l1.63,1.74c-2.43-6.41-2-13.47-3.28-20.15-.09-.49.67-.71.77-.21,1.41,7.21.71,14.93,3.93,21.7a.45.45,0,0,1,0,.25q5.1,5.59,9.86,11.51c.32.39-.24.95-.56.56A250,250,0,0,0,80.9,139.2l-.06,0c-5.67,2.41-11.87,1.79-17.77.69-6.86-1.28-13.59-3.18-20.3-5.08a.39.39,0,0,1,.21-.76c6.22,1.76,12.45,3.52,18.8,4.79,6.07,1.21,12.63,2.18,18.53-.27q-2.88-2.9-5.85-5.7c-.24.07-.53,0-.5-.36,0,0,0-.06,0-.1-1.67-1.56-3.36-3.09-5.07-4.61a.2.2,0,0,1-.11,0c-10.3.68-19.82-3.7-28.89-8-.46-.22-.06-.9.4-.68,8.74,4.12,17.89,8.33,27.78,7.9q-7.34-6.43-15.18-12.26a47,47,0,0,1-21.24-4.57c-.46-.22-.06-.9.4-.69a46,46,0,0,0,19.78,4.48c-1.2-.88-2.41-1.76-3.63-2.62l-.77-.54a.37.37,0,0,1-.37-.26,87.2,87.2,0,0,0-16.25-9.17c-.47-.19-.26-1,.21-.76a87.17,87.17,0,0,1,16,8.85c-.3-3.13-2.13-5.76-4-8.23a.42.42,0,0,1-.06-.14c-5.57-1.18-11.2-2.12-16.84-2.88-.56,5.85,1.48,11.49,3.82,16.77a164.29,164.29,0,0,0,8.57,17.22,103.37,103.37,0,0,0,39.92,38.32c.34.19,0,.68-.34.49A104.1,104.1,0,0,1,39,134.31a154.53,154.53,0,0,1-9-17.61C27.34,110.89,24.83,104.67,25.49,98.16Z"/><g class="cls-24"><path class="cls-25" d="M3.46,140.93A123.75,123.75,0,0,1,29,133.38a84.72,84.72,0,0,1,9.4-1l.14.38a92.65,92.65,0,0,0-20.66,3.62c-.84.24-1.67.49-2.5.75a10.21,10.21,0,0,1,5,3.75c1.48.13,2.95.29,4.42.48a.27.27,0,0,1,.16,0c1.83.24,3.65.51,5.45.79l1.24.2c-1.61-3-4.45-5-7.39-6.57-.29-.16,0-.61.27-.45,3.14,1.7,6.17,3.85,7.77,7.12q5.15.87,10.22,2.05a21.48,21.48,0,0,0-10.67-10.36c-.31-.14,0-.59.27-.46a21.86,21.86,0,0,1,11,11c1.48.35,3,.72,4.43,1.12l.63.71q-2.49-.69-5-1.29a.23.23,0,0,1-.4,0l0-.06c-1.47-.35-2.95-.68-4.43-1l-.06.06c-5.77,3.77-12.71,4.38-19.37,4.9-.34,0-.33-.5,0-.52,6.41-.5,13.09-1.09,18.7-4.58q-6.34-1.29-12.79-2.07A31.53,31.53,0,0,1,11,146.22c-.34,0-.33-.49,0-.52A31,31,0,0,0,24,141.77l-3-.31-.62-.06a.24.24,0,0,1-.3,0,57.22,57.22,0,0,0-12.41.07c-.33,0-.46-.47-.12-.51a57.94,57.94,0,0,1,12.14-.16,10.89,10.89,0,0,0-5-3.41l-.08-.06c-3.62,1.15-7.19,2.46-10.72,3.88,1.57,3.55,4.59,6.11,7.65,8.38a106.74,106.74,0,0,0,10.56,7.07,68.27,68.27,0,0,0,22.37,8,69,69,0,0,0,13.23.94c.26,0,.22.39,0,.39A68.83,68.83,0,0,1,23,157.63a101.23,101.23,0,0,1-10.94-7.15c-3.42-2.48-6.88-5.23-8.61-9.18A.2.2,0,0,1,3.46,140.93Z"/></g><g class="cls-26"><path class="cls-27" d="M38.85,152.94c-4.4,1.52-8.93,2.64-13.44,3.75a.26.26,0,0,1-.13-.5c4.19-1,8.38-2.07,12.48-3.43,3.87-1.28,8-2.86,10.59-6.13l.35.38C46.19,150.06,42.51,151.68,38.85,152.94Z"/></g></g><path id="floor" class="cls-28" d="M350.32,238c0,5.49-54.12,9.93-165.42,9.93S19.49,243.46,19.49,238,73.59,228,184.9,228,350.32,232.49,350.32,238Z"/><g id="leafs"><path class="cls-29" d="M235.79,237.91c3,.16,77.16,10.27,134.13-69.29-19.44-8.7-74.11-16.19-129.65,24.14C221.52,221.86,235.79,237.91,235.79,237.91Z"/><path class="cls-17" d="M289.34,195.41A114.33,114.33,0,0,0,317.65,218c.4-.23.8-.47,1.19-.72a113,113,0,0,1-28.31-22.32q2.6-1,5.21-2.07a.58.58,0,0,0,.61-.2l0-.06c2.84-1.1,5.69-2.16,8.55-3.2,6.51,9.42,17.16,14.43,27.69,18.37l1.12-.87c-10.44-3.85-21.09-8.7-27.62-17.93q9.84-3.52,19.86-6.62c4.05,7.08,11.56,11.49,19.26,14.67.36-.33.71-.67,1.06-1-2-.86-4-1.79-6-2.79-5.21-2.66-10.18-6.1-13.16-11.24l1.09-.33,10-3a.57.57,0,0,0,.47-.14l11.71-3.57a45.72,45.72,0,0,0,9.1,7.1l.79-.92a43.77,43.77,0,0,1-8.58-6.58l9.07-2.77c.75-.23.28-1.35-.46-1.13-7.12,2.18-14.27,4.28-21.41,6.43.51-5.56,3-10.29,6.3-14.48l-1.41-.15a27.34,27.34,0,0,0-6.13,15c-11.52,3.47-23,7-34.27,11.18q-2.62,1-5.25,2a379.37,379.37,0,0,1,27.47-28.67l-1.86.09a377.15,377.15,0,0,0-28,29.51q-3.11,1.23-6.2,2.51a.7.7,0,0,0-.82.34c-4.25,1.78-8.48,3.62-12.66,5.56a221.91,221.91,0,0,1,24.38-34.73l-1.95.44a223.91,223.91,0,0,0-24.32,35.16q-10.92,5.13-21.47,11-11.19,6.18-21.91,13.15c.05.46.11.9.18,1.34,1.53-1,3.08-2,4.63-3,3.35,5,6,10.13,10.33,14.41.26.26.53.51.8.76l1.75,0c-.43-.39-.85-.78-1.26-1.18a41,41,0,0,1-6.14-7.32c-1.54-2.4-2.88-4.92-4.46-7.3q9.59-6,19.51-11.37c3.5,9.62,9.88,17.62,17.6,24.16l1.5-.33c-7.92-6.55-14.48-14.62-18-24.41q6.84-3.69,13.84-7.06c5.47,11.17,16,18.59,26.71,24.34l1.45-.6c-10.84-5.66-21.61-13.07-27.06-24.27l3.24-1.54Q282.31,198.29,289.34,195.41Z"/><path class="cls-30" d="M259.14,185.94c1.61-2.51,46.91-61.92,5.41-150.48C247.39,48.05,214,91.82,221.9,159.86,238.1,190.43,259.14,185.94,259.14,185.94Z"/><path class="cls-17" d="M248.34,118.57A114.73,114.73,0,0,0,282,105.08c0-.46,0-.92,0-1.39a113.38,113.38,0,0,1-33.42,13.6c.23-1.85.48-3.69.75-5.54a.58.58,0,0,0,.12-.63l0-.07q.65-4.5,1.41-9c11.42-1,21-7.8,29.66-15l-.21-1.4c-8.5,7.17-18,14-29.24,15.16q1.75-10.29,4-20.5c8.18,0,15.72-4.39,22.29-9.51l-.36-1.41c-1.75,1.34-3.54,2.62-5.38,3.82-4.88,3.21-10.33,5.83-16.29,5.89l.24-1.1q1.13-5.07,2.24-10.15a.54.54,0,0,0,.11-.47l2.64-11.93a45.86,45.86,0,0,0,10.68-4.4c-.14-.38-.28-.76-.43-1.14a43.76,43.76,0,0,1-10,4.21l2-9.23c.17-.77-1-.91-1.21-.16-1.6,7.25-3.27,14.49-4.91,21.74a27,27,0,0,1-9.55-12.58l-.83,1.15a27.41,27.41,0,0,0,10.1,12.7c-2.63,11.7-5.15,23.42-7.09,35.23-.3,1.84-.58,3.69-.85,5.53a375.18,375.18,0,0,1-11.55-37.94L236,72.23a376.91,376.91,0,0,0,12,38.82c-.31,2.2-.59,4.41-.86,6.62a.68.68,0,0,0-.1.88c-.54,4.56-1,9.13-1.38,13.71A222,222,0,0,1,227.35,94l-.57,1.91a223.65,223.65,0,0,0,18.76,38.4q-.89,12-1,24-.09,12.76.73,25.49c.42.18.84.34,1.25.5-.12-1.83-.22-3.65-.31-5.47,6-.45,11.79-.2,17.68-1.89l1-.32c.28-.49.56-1,.84-1.52l-1.65.51a40.74,40.74,0,0,1-9.41,1.72c-2.86.17-5.72.08-8.57.28q-.53-11.25-.35-22.51c10.13,1.68,20.26.08,29.77-3.4l.45-1.47c-9.62,3.66-19.89,5.38-30.19,3.64q.15-7.75.63-15.49c12.45.75,24.1-4.71,34.41-11.21l.18-1.54c-10.27,6.61-22,12.32-34.51,11.54.08-1.19.16-2.38.25-3.57C247.2,128.61,247.72,123.58,248.34,118.57Z"/><path class="cls-31" d="M242.45,243.1c2.47-1.68,67.55-38.57,64.29-136.27-20.74,4.86-68.73,32-88.25,97.7C221.33,239,242.45,243.1,242.45,243.1Z"/><path class="cls-17" d="M259.07,176.91a115.09,115.09,0,0,0,36.24.76l.5-1.29a113.54,113.54,0,0,1-36.09-.59c.94-1.6,1.9-3.21,2.87-4.8a.61.61,0,0,0,.37-.53v-.08q2.37-3.88,4.84-7.71c10.91,3.54,22.42,1.06,33.19-2.18l.36-1.37c-10.64,3.27-22.06,5.86-32.87,2.49q5.67-8.76,11.74-17.29c7.53,3.17,16.18,2.12,24.24,0,.08-.47.15-1,.23-1.44q-3.21.82-6.46,1.41c-5.75,1-11.8,1.32-17.3-1l.66-.92,6.06-8.45a.55.55,0,0,0,.28-.4l7.13-9.93a45.67,45.67,0,0,0,11.56.13l.06-1.21a44,44,0,0,1-10.82,0q2.75-3.85,5.51-7.69c.46-.64-.6-1.25-1.05-.62-4.33,6-8.72,12-13.09,18.07A27,27,0,0,1,283.41,117l-1.21.73a27.33,27.33,0,0,0,4.27,15.63c-7,9.73-14,19.53-20.4,29.63-1,1.57-2,3.16-3,4.75a372.29,372.29,0,0,1,4.33-39.42l-1.42,1.2a372.46,372.46,0,0,0-4.25,40.41c-1.16,1.9-2.28,3.82-3.4,5.75a.66.66,0,0,0-.44.76q-3.45,6-6.68,12.08a222.18,222.18,0,0,1-1.8-42.35l-1.28,1.54a223.89,223.89,0,0,0,2.12,42.65Q244.74,201,239.92,212q-5.11,11.7-9.38,23.72c.32.33.63.65,1,.95.61-1.72,1.24-3.44,1.87-5.15,5.72,1.94,10.92,4.43,17,5.19l1.1.12,1.37-1.08c-.57-.05-1.15-.1-1.72-.17a41.56,41.56,0,0,1-9.34-2.1c-2.69-1-5.28-2.17-8-3.1q4-10.54,8.56-20.84c8.65,5.52,18.6,8,28.71,8.53l1-1.17c-10.28-.41-20.4-2.84-29.19-8.48q3.19-7.06,6.69-14c11.15,5.56,24,5.1,36,3.16.27-.44.53-.89.79-1.35-12.06,2.06-25.13,2.7-36.29-2.89.54-1.07,1.08-2.13,1.64-3.19C254.07,185.69,256.53,181.28,259.07,176.91Z"/><path class="cls-32" d="M134.13,237.91c-3,.16-77.16,10.27-134.13-69.29,19.44-8.7,74.12-16.19,129.65,24.14C148.4,221.86,134.13,237.91,134.13,237.91Z"/><path class="cls-17" d="M80.58,195.41A114.33,114.33,0,0,1,52.27,218c-.4-.23-.8-.47-1.19-.72a113,113,0,0,0,28.31-22.32q-2.6-1-5.21-2.07a.59.59,0,0,1-.61-.2l0-.06c-2.84-1.1-5.69-2.16-8.55-3.2-6.51,9.42-17.16,14.43-27.68,18.37l-1.13-.87C46.61,203,57.25,198.18,63.78,189q-9.84-3.52-19.85-6.62c-4.06,7.08-11.57,11.49-19.27,14.67l-1.06-1q3-1.29,6-2.79c5.2-2.66,10.17-6.1,13.15-11.24l-1.08-.33-10-3a.57.57,0,0,1-.47-.14l-11.71-3.57a45.72,45.72,0,0,1-9.1,7.1l-.78-.92a44,44,0,0,0,8.57-6.58L9.13,171.7c-.75-.23-.28-1.35.46-1.13,7.12,2.18,14.27,4.28,21.41,6.43-.5-5.56-2.95-10.29-6.3-14.48l1.41-.15a27.34,27.34,0,0,1,6.13,15c11.52,3.47,23,7,34.27,11.18,1.76.64,3.5,1.3,5.25,2a379.37,379.37,0,0,0-27.47-28.67l1.86.09a377.15,377.15,0,0,1,28,29.51q3.11,1.23,6.2,2.51a.7.7,0,0,1,.82.34c4.25,1.78,8.48,3.62,12.66,5.56a221.91,221.91,0,0,0-24.38-34.73l2,.44a223.91,223.91,0,0,1,24.32,35.16q10.92,5.13,21.47,11,11.19,6.18,21.91,13.15c-.05.46-.11.9-.18,1.34q-2.3-1.5-4.62-3c-3.36,5-6,10.13-10.34,14.41-.26.26-.53.51-.8.76l-1.75,0,1.27-1.18a40.92,40.92,0,0,0,6.13-7.32c1.54-2.4,2.88-4.92,4.46-7.3q-9.59-6-19.51-11.37c-3.5,9.62-9.88,17.62-17.6,24.16l-1.5-.33c7.92-6.55,14.48-14.62,18-24.41q-6.84-3.69-13.84-7.06c-5.47,11.17-16,18.59-26.71,24.34q-.72-.28-1.44-.6c10.83-5.66,21.6-13.07,27.05-24.27l-3.24-1.54Q87.61,198.29,80.58,195.41Z"/><path class="cls-33" d="M110.65,185.94C109,183.43,63.74,124,105.25,35.46c17.15,12.59,50.58,56.36,42.64,124.4C131.69,190.43,110.65,185.94,110.65,185.94Z"/><path class="cls-17" d="M121.46,118.57a114.79,114.79,0,0,1-33.62-13.49c0-.46,0-.92,0-1.39a113.49,113.49,0,0,0,33.42,13.6c-.23-1.85-.48-3.69-.74-5.54a.56.56,0,0,1-.13-.63l0-.07q-.65-4.5-1.4-9c-11.43-1-21-7.8-29.66-15,.06-.47.13-.93.2-1.4,8.5,7.17,18,14,29.25,15.16q-1.77-10.29-4-20.5c-8.18,0-15.72-4.39-22.29-9.51l.36-1.41c1.75,1.34,3.54,2.62,5.38,3.82,4.89,3.21,10.33,5.83,16.29,5.89l-.24-1.1q-1.11-5.07-2.24-10.15a.58.58,0,0,1-.11-.47q-1.31-6-2.63-11.93a45.93,45.93,0,0,1-10.69-4.4c.15-.38.29-.76.43-1.14a43.76,43.76,0,0,0,10,4.21l-2-9.23c-.17-.77,1-.91,1.21-.16,1.6,7.25,3.28,14.49,4.91,21.74a27,27,0,0,0,9.55-12.58l.83,1.15a27.45,27.45,0,0,1-10.09,12.7c2.63,11.7,5.14,23.42,7.08,35.23.3,1.84.58,3.69.85,5.53a372.63,372.63,0,0,0,11.55-37.94l.84,1.66a374.47,374.47,0,0,1-12,38.82c.31,2.2.59,4.41.86,6.62a.68.68,0,0,1,.1.88q.83,6.84,1.38,13.71A222,222,0,0,0,142.44,94l.57,1.91a223.65,223.65,0,0,1-18.76,38.4q.9,12,1,24,.09,12.76-.72,25.49l-1.26.5c.12-1.83.22-3.65.31-5.47-6-.45-11.79-.2-17.67-1.89l-1.06-.32-.84-1.52,1.65.51a40.73,40.73,0,0,0,9.42,1.72c2.85.17,5.71.08,8.56.28q.52-11.25.35-22.51c-10.13,1.68-20.26.08-29.76-3.4q-.24-.74-.45-1.47c9.61,3.66,19.88,5.38,30.19,3.64q-.15-7.75-.64-15.49c-12.45.75-24.09-4.71-34.4-11.21-.07-.51-.13-1-.19-1.54,10.28,6.61,22,12.32,34.51,11.54-.08-1.19-.16-2.38-.25-3.57C122.59,128.61,122.07,123.58,121.46,118.57Z"/><path class="cls-31" d="M127.34,243.1c-2.47-1.68-67.55-38.57-64.29-136.27,20.74,4.86,68.73,32,88.26,97.7C148.46,239,127.34,243.1,127.34,243.1Z"/><path class="cls-17" d="M110.72,176.91a115,115,0,0,1-36.23.76L74,176.38a113.54,113.54,0,0,0,36.09-.59c-.94-1.6-1.9-3.21-2.87-4.8a.58.58,0,0,1-.36-.53v-.08q-2.37-3.88-4.84-7.71c-10.91,3.54-22.42,1.06-33.18-2.18-.13-.45-.25-.91-.37-1.37,10.64,3.27,22.06,5.86,32.87,2.49q-5.67-8.76-11.73-17.29c-7.54,3.17-16.19,2.12-24.25,0-.08-.47-.15-1-.23-1.44q3.21.82,6.46,1.41c5.75,1,11.8,1.32,17.3-1l-.66-.92c-2-2.82-4-5.64-6-8.45a.54.54,0,0,1-.29-.4l-7.13-9.93a45.67,45.67,0,0,1-11.56.13c0-.4,0-.81-.05-1.21a44,44,0,0,0,10.82,0l-5.52-7.69c-.46-.64.6-1.25,1-.62,4.33,6,8.73,12,13.09,18.07A26.85,26.85,0,0,0,86.38,117l1.21.73a27.25,27.25,0,0,1-4.27,15.63c7,9.73,14,19.53,20.4,29.63,1,1.57,2,3.16,3,4.75a375,375,0,0,0-4.34-39.42l1.43,1.2A377.54,377.54,0,0,1,108,169.88q1.73,2.85,3.39,5.75a.66.66,0,0,1,.44.76q3.45,6,6.68,12.08a222.18,222.18,0,0,0,1.8-42.35l1.28,1.54a222.26,222.26,0,0,1-2.12,42.65Q125.05,201,129.88,212q5.1,11.7,9.38,23.72c-.32.33-.64.65-1,.95q-.92-2.58-1.87-5.15c-5.72,1.94-10.92,4.43-17,5.19-.36.05-.73.08-1.1.12L117,235.77c.58-.05,1.15-.1,1.72-.17a41.43,41.43,0,0,0,9.34-2.1c2.69-1,5.28-2.17,8-3.1q-4-10.54-8.56-20.84c-8.65,5.52-18.6,8-28.71,8.53l-1-1.17c10.28-.41,20.41-2.84,29.19-8.48q-3.18-7.06-6.69-14c-11.15,5.56-24,5.1-36,3.16l-.78-1.35c12.06,2.06,25.12,2.7,36.29-2.89l-1.64-3.19C115.72,185.69,113.26,181.28,110.72,176.91Z"/></g><g id="phone"><path class="cls-34" d="M124.59,80h0a2.27,2.27,0,0,1-2.27-2.26V64.87a2.26,2.26,0,0,1,2.27-2.25h0a2.26,2.26,0,0,1,2.26,2.25V77.78A2.26,2.26,0,0,1,124.59,80Z"/><path class="cls-34" d="M124.59,99.59h0a2.27,2.27,0,0,1-2.27-2.26V84.42a2.27,2.27,0,0,1,2.27-2.26h0a2.26,2.26,0,0,1,2.26,2.26V97.33A2.26,2.26,0,0,1,124.59,99.59Z"/><rect class="cls-34" x="124.25" y="38.04" width="119.34" height="234" rx="22.12" ry="22.12"/><path class="cls-35" d="M125.91,51.26v196a8.32,8.32,0,0,0,8.32,8.33H233.6a8.33,8.33,0,0,0,8.32-8.33V58.38a7.67,7.67,0,0,0-7.64-7.62H133.46a7.55,7.55,0,0,0-7.55,7.53Z"/><path class="cls-34" d="M211.14,54.06H156.69a6,6,0,0,1-6-6h0a6,6,0,0,1,6-6h54.45a6,6,0,0,1,6,6h0A6,6,0,0,1,211.14,54.06Z"/><path class="cls-28" d="M181.71,247.69c21,0,41.25-.12,60.22-.34V227.12c-19-.22-39.21-.34-60.22-.34-19.42,0-38.17.1-55.88.29v20.32C143.54,247.59,162.29,247.69,181.71,247.69Z"/><g id="guys"><path class="cls-36" d="M216.58,198a2.84,2.84,0,0,1,1.63-.06c.92.22,10-.61,9.42-5s-6.75-1.51-7.14-1.31a6.5,6.5,0,0,0-2.16,2.85c-.37,1.26-2.33.91-2.33.91Z"/><rect class="cls-37" x="153.57" y="228.27" width="58.6" height="3.03"/><rect class="cls-37" x="141.13" y="213.78" width="17.33" height="21.42" rx="4.38" ry="4.38"/><rect class="cls-37" x="210.01" y="213.78" width="17.33" height="21.42" rx="4.38" ry="4.38" transform="translate(437.35 448.98) rotate(180)"/><path class="cls-38" d="M225.71,225.76c.07-.48,1.11-16.71,1.06-19a2.92,2.92,0,0,0-1.78-2.88,2.92,2.92,0,0,1-.47-1.4c-.09-.41-2.7-1.52-4.06-2a4,4,0,0,1-2.06-1.53,2,2,0,0,0-1.16-.54l-11.3-4.16-21.77.21-21.78-.21-11.3,4.16a2,2,0,0,0-1.16.54,4,4,0,0,1-2.06,1.53c-1.36.49-4,1.6-4.06,2s-.12,1.06-.47,1.4a2.92,2.92,0,0,0-1.78,2.88c-.05,2.33,1,18.56,1.06,19s-.77,3.37,4.55,4.07c5.16.68,35.18.58,37,.57s31.83.11,37-.57C226.48,229.13,225.64,226.23,225.71,225.76Z"/><path class="cls-39" d="M218.4,198.9a4,4,0,0,0,2.06,1.53c1.36.49,4,1.6,4.06,2a8.51,8.51,0,0,1-4.29,5.21c-3.42,1.63-16.86,3.69-16.37,3.32s8.72-5.26,13.38-12.61A2,2,0,0,1,218.4,198.9Z"/><path class="cls-17" d="M203.86,211.32c0-.34,4.35-1.9,8.7-3.08,3.81-1,6.6-1.75,7.39-1.08,1.69,1.45,1.72,5.27,1,6s-1.45,1.3-3.81,1.27-8.27-.06-9.16-.39S204,212.62,203.86,211.32Z"/><path class="cls-39" d="M149.93,198.9a4,4,0,0,1-2.06,1.53c-1.36.49-4,1.6-4.06,2a8.51,8.51,0,0,0,4.29,5.21c3.42,1.63,16.86,3.69,16.37,3.32s-8.72-5.26-13.38-12.61A2,2,0,0,0,149.93,198.9Z"/><path class="cls-39" d="M208.24,197.31c-.51,0-22-2.62-24.13-2.88v0h-.18v0c-2.14.26-23.62,2.88-24.14,2.88s-8,1.11-8,1.11,11.08,11.82,15.07,13.16c5.41.33,16.13,0,17.19,0s11.77.33,17.19,0c4-1.34,15.07-13.16,15.07-13.16S208.78,197.31,208.24,197.31Z"/><path class="cls-37" d="M151.9,198.42s11,2.62,30.42,2.62a206.62,206.62,0,0,0,33.92-2.6c-.81.05-13.58-.34-16.58,0s-16.15.44-16.15.44-11.64-.9-13.34-1-7.56,0-7.56,0Z"/><path class="cls-36" d="M208,179.43c-4.25-2.05-23.33-1.9-23.77-1.9s-19.51-.15-23.77,1.9-9.39,18.93-9.39,18.93,27.83,1.89,33.16,1.89,33.16-1.89,33.16-1.89S212.28,181.49,208,179.43Z"/><path class="cls-40" d="M151.9,198.42c4.62.31,27.56,1.83,32.35,1.83s27.73-1.52,32.35-1.83c-.86-2.59-5.57-16.35-9.33-18.16-4.15-2-22.59-1.85-23-1.85s-18.87-.14-23,1.85C157.48,182.07,152.76,195.83,151.9,198.42Z"/><path class="cls-41" d="M184.25,200.25c3.54,0,16.81-.84,26-1.46-1.55-4.8-4.38-12.56-6.75-13.86-3.47-1.89-18.9-1.75-19.26-1.75S168.46,183,165,184.93c-2.38,1.3-5.2,9.07-6.76,13.86C167.42,199.41,180.65,200.25,184.25,200.25Z"/><path class="cls-42" d="M184.25,200.25c3.16,0,14.06-.67,22.9-1.25l-.67-4a4.72,4.72,0,0,0-4.66-3.95H165.6a4.73,4.73,0,0,0-4.67,3.95l-.65,4C169.27,199.53,180.91,200.25,184.25,200.25Z"/><path class="cls-43" d="M191.14,200a19.58,19.58,0,0,0,2.88-5.13c1.32-3.72,2.5-6.79,5.32-6.82s4,3.1,5.32,6.82a6.35,6.35,0,0,0,5,4C204,199.26,196.61,199.72,191.14,200Z"/><path class="cls-43" d="M177.68,200a19.61,19.61,0,0,1-2.89-5.13c-1.32-3.72-2.49-6.79-5.31-6.82s-4,3.1-5.32,6.82a6.36,6.36,0,0,1-5,4C164.79,199.26,172.21,199.72,177.68,200Z"/><path class="cls-42" d="M195.23,199.19a4.63,4.63,0,0,1,0-.54,4.38,4.38,0,0,1,8.76,0c0,.14,0,.29,0,.43.48-.05,1-.09,1.45-.11,0-.11,0-.21,0-.32a5.82,5.82,0,0,0-11.64,0q0,.3,0,.6C194.27,199.21,194.75,199.2,195.23,199.19Z"/><path class="cls-44" d="M215.34,198.5h.26l.52,0h.48l-.06-.2-.09-.24v0c-1.16-3.43-5.61-16-9.18-17.7-4.15-2-22.59-1.85-23-1.85s-18.87-.14-23,1.85c-3.76,1.81-8.48,15.57-9.34,18.16l1.46.09h0c6.74.45,26.48,1.74,30.89,1.74S208.77,198.94,215.34,198.5Zm-60.9-3.16c1.78-5,5-13.16,7.75-14.52,4-2,21.65-1.84,22.06-1.84s18.09-.14,22.06,1.84c2.79,1.39,6.12,9.87,7.87,14.84a5.6,5.6,0,0,1-2.79,1.72c-3.29,1.05-5.95-1.49-11.4-1.49s-6.76,3.15-9.77,3.23-30.6-1.59-33.5-2.13A2.9,2.9,0,0,1,154.44,195.34Z"/><rect class="cls-42" x="183.23" y="178.41" width="1.96" height="2.67"/><path class="cls-42" d="M186.79,183.92h-5a1.83,1.83,0,0,1-1.83-2l.05-.46a.82.82,0,0,1,.81-.73h6.89a.82.82,0,0,1,.82.73l.05.46A1.84,1.84,0,0,1,186.79,183.92Z"/><path class="cls-36" d="M151.75,198a2.89,2.89,0,0,0-1.64-.06c-.91.22-10-.61-9.41-5s6.74-1.51,7.13-1.31a6.36,6.36,0,0,1,2.16,2.85c.37,1.26,2.33.91,2.33.91Z"/><path class="cls-45" d="M191.17,210.53c-2.78,0-5.3,0-6.38.06h-1.07c-1.08,0-3.61-.06-6.38-.06-9.84,0-10.39.49-10.65.72s-.51.71-.44,2.63a42.81,42.81,0,0,0,.48,4.49,16.87,16.87,0,0,0,2.4,6.37c.5.91,2.27,1.58,5.42,2.06a77.43,77.43,0,0,0,19.4,0c3.15-.48,4.93-1.15,5.42-2.06a16.7,16.7,0,0,0,2.4-6.37,38,38,0,0,0,.48-4.49c.07-1.92-.18-2.41-.43-2.63s-.81-.72-10.65-.72Z"/><path class="cls-17" d="M164.47,211.32c0-.63-15.4-5.61-17.09-4.16s-1.72,5.27-1,6,2.45,1.3,4.81,1.27,8.27-.06,9.16-.39S164.37,212.62,164.47,211.32Z"/><g class="cls-46"><path class="cls-17" d="M166.25,199.34l2.32.15c3.62-6.57,7.79-14.16,11.57-21.06l-2.63,0Z"/><path class="cls-17" d="M183.39,178.41H182l-11.44,21.19,1.25.07C175.43,193.06,179.61,185.38,183.39,178.41Z"/><path class="cls-17" d="M200.06,178.94c-.82-.07-1.65-.13-2.5-.18L186,200.22l2.45-.1C192,193.57,196.23,185.93,200.06,178.94Z"/><path class="cls-17" d="M203.12,179.28l-1.3-.16L190.54,200l1.33-.07C195.36,193.54,199.41,186.11,203.12,179.28Z"/></g><path class="cls-17" d="M183.58,213.39a4.33,4.33,0,0,0-3.22,6,27.33,27.33,0,0,0,3.77,5.57.24.24,0,0,0,.36,0,32,32,0,0,0,2.62-3.51l-1.42-1.42a2.71,2.71,0,1,1-1-5,2.71,2.71,0,0,1,2,4.07l1.18,1.17c.15-.28.3-.57.42-.85a4.08,4.08,0,0,0,.38-1.77A4.33,4.33,0,0,0,183.58,213.39Z"/><path class="cls-36" d="M186.35,217.72a2,2,0,1,1-2-2A2,2,0,0,1,186.35,217.72Z"/><path class="cls-17" d="M182.73,217.72h.46a1.13,1.13,0,0,1,1.13-1.13v-.45A1.59,1.59,0,0,0,182.73,217.72Z"/></g></g><g id="shadow_" class="cls-47"><path class="cls-48" d="M139.08,149.61c-.07-1.25-.19-2.49-.35-3.72l.37-.1L139,145l-.35.09c0-.26-.07-.52-.12-.78-.1-.58-.22-1.15-.35-1.72l-.09-.42c-.23-1-.5-2-.8-3-.13-.43-.27-.85-.42-1.27s-.3-.85-.46-1.27-.33-.85-.52-1.27l-.29-.65-.16-.34a1.51,1.51,0,0,1-.09-.18.93.93,0,0,1-.05-.1l-.07-.12a4.38,4.38,0,0,0-2.1-1.84c-2.21-2.5-3.9-2.68-4.3-2.7l-.21-.13-.26-.13-.27-.13-.19-.07h0l-.21-.06-.17-.06-.06,0-.55-.11-.5-.08a28.15,28.15,0,0,0,1.35-5.94c0-.07,0-.14,0-.2v-.08c0-.07,0-.13,0-.18V122h.33a3.05,3.05,0,0,0,3.16-2.64,2.33,2.33,0,0,0-.74-1.84,12.36,12.36,0,0,0,.37-5.65c-.51-4-2.2-7.17-3.78-7.17a1.09,1.09,0,0,0-.39.08,1.61,1.61,0,0,0-.69-.65,17,17,0,0,0-1.8-.8v88.9c1.54-3.69,3.1-7.59,4.26-11a4.82,4.82,0,0,0,1.22-1,4.76,4.76,0,0,0,1.21-4.08,3.75,3.75,0,0,0,.88-1.06,76.13,76.13,0,0,0,4.46-9.63c.62-1.65,1.18-3.33,1.66-5.06A33,33,0,0,0,139,155l.06-.72c0-.24,0-.48,0-.7l0-1.33c0-.44,0-.88,0-1.33S139.11,150.05,139.08,149.61Z"/></g><path id="shadow_2" data-name="shadow_" class="cls-49" d="M243.58,178.69c-.35.11-.62.21-.81.28a3.2,3.2,0,0,0-.67.06c-2.72.5-5.22,3.27-7.77,6.23a19.66,19.66,0,0,0-3.27,4.63v0h0a6.5,6.5,0,0,0-.63,2.2c-.25,3.28,1.54,8.28,1.21,12.27a14.4,14.4,0,0,1-1.41,5.79c-.72,1.1-5.05,9.14-.94,14.86,2.24,3.12,8.75,5.28,14.3,5.54Z"/><g id="guy_02"><path class="cls-34" d="M109.59,113.86a4.41,4.41,0,0,1-1.47-5.33c3.06-.11,3.79-.87,3.35.31s-1,2.32-1,2.32l-.61,1.41Z"/><path class="cls-50" d="M104.14,159.83h-.5l-.34,0-.58-.07c-.38,0-.69-.12-1-.19a16.21,16.21,0,0,1-1.86-.56l-.44-.16c-.14,0-.28-.12-.42-.18l-.83-.37c-.53-.27-1-.55-1.55-.84a24,24,0,0,1-5.15-4.2l-.55-.58-.27-.29-.25-.31-1-1.22c-.34-.41-.62-.84-.92-1.26l-.89-1.27c-.53-.88-1.07-1.75-1.58-2.63L84.58,143a3.47,3.47,0,0,1,1.5-4.58,3.3,3.3,0,0,1,4.37,1l.12.19L92,141.79c.51.7,1,1.39,1.55,2.09l.83,1c.28.32.54.66.84.95l.88.88.22.23.23.2.47.39a16.32,16.32,0,0,0,3.86,2.59l1,.42.49.16.25.08.24,0a6.64,6.64,0,0,0,.91.18c.13,0,.28,0,.38,0h.16s0,0,0,0h-.13a4.16,4.16,0,0,1,4.42,4.21A4.73,4.73,0,0,1,104.14,159.83Z"/><path class="cls-50" d="M105.84,135.8a137.7,137.7,0,0,0-4.76,15.09c-1.25,5.82,5.36,7,5.36,7s4-7.3,4-11.46-2.27-10.73-2.27-10.73Z"/><path class="cls-51" d="M105.84,135.8s-1.79,4.74-3.27,9.56c2.33,1.75,5.93,4.53,7,5.36a14.62,14.62,0,0,0,.85-4.34c0-4.16-2.27-10.73-2.27-10.73Z"/><path class="cls-34" d="M120.39,111.82c.46,4,2,7.17,3.35,7.17s2.16-3.21,1.7-7.17-2-7.17-3.34-7.17S119.94,107.86,120.39,111.82Z"/><path class="cls-52" d="M120.47,119.31a2.81,2.81,0,0,1,2.79-2.64,2.48,2.48,0,0,1,2.51,2.64A2.83,2.83,0,0,1,123,122,2.47,2.47,0,0,1,120.47,119.31Z"/><path class="cls-53" d="M122.69,227.52a13.62,13.62,0,0,0,.12,3.46c.23,2.11.77,4.89,1.08,5.12a6.78,6.78,0,0,0,1.92.28s.68-9,.52-9.37S122.69,227.52,122.69,227.52Z"/><path class="cls-37" d="M113.91,172.47l-1.08.46c-.94.4-8.78.68-9.71,1l-1.89,66.09,2.92.12,0,.24.06-.24.9,0s.58-3.59,1.48-9.22c1.52-5.95,3.24-12.91,3.54-15.09.57-4,.6-9.07.89-12.36.28-3.12,3.6-25.57,3.33-31.24Z"/><path class="cls-54" d="M124.66,230.64a2,2,0,0,0,1.1-2.47c-2.1-5.71-4.83-11.59-5.94-15.69a11.21,11.21,0,0,0-5.6-6.7s11.11-26.85,10.77-32.39c-.47-7.58-10.89-3.45-12.45-3.59-1.11,9.58-5.73,26.43-7.79,32.47a11.57,11.57,0,0,0-.62,3.41c0,1.25,2.56,4.77,3.27,5.79,2.74,3.92,10.27,11.36,14.91,18.53a1.86,1.86,0,0,0,2.34.64Z"/><path class="cls-53" d="M105.33,240.22a8.42,8.42,0,0,0-3.83-.16c-2.16.34-5,.81-5.28,1.15a1.6,1.6,0,0,0-.3.84s8.69-.1,9.09-.28S105.33,240.22,105.33,240.22Z"/><path class="cls-55" d="M103.07,174.14s.34-6.73.73-13.52c.56-9.88.41-21.87,2.38-25.74,3.32-6.52,9.41-7.25,15.69-6.14s5.75,14.57,3.26,45.38C122,173.15,103.07,174.14,103.07,174.14Z"/><path class="cls-56" d="M123.75,129.61a3.84,3.84,0,0,0-1.88-.87c-4.79-.85-9.47-.62-12.89,2.43,0,2.82,1,6.05,5.9,6.05S122.43,133.09,123.75,129.61Z"/><path class="cls-50" d="M122.69,121.92s-.76,12.81-7,12.81-1.29-10.52-2.86-14.32C115.5,120.56,122.69,121.92,122.69,121.92Z"/><path class="cls-50" d="M121.87,128.74c-4.12-.73-8.17-.67-11.4,1.31-.23,2.44-.09,6.23,4.71,6.23,4.55,0,6.65-4.33,7.56-7.29A4,4,0,0,0,121.87,128.74Z"/><path class="cls-52" d="M113.74,126.26h2.39a7.17,7.17,0,0,0,7.09-6.71l.28-5.12a6.61,6.61,0,0,0-6.68-7h-7.18l-.73,13.77A4.77,4.77,0,0,0,113.74,126.26Z"/><path class="cls-50" d="M113.74,126.26h2.39a7.17,7.17,0,0,0,7.09-6.71l.28-5.12a6.61,6.61,0,0,0-6.68-7h-7.18l-.73,13.77A4.77,4.77,0,0,0,113.74,126.26Z"/><path class="cls-34" d="M122.27,119.87s-1.62-5.56-1.54-6,.67-2.78.67-2.78-8.17,1.8-10.13,1.56-4.61-3.87-4.24-6.42a2.9,2.9,0,0,1,3.74-2.61c1.31.35,4.12-3.13,10.37.48,1.33.77.71,2.88,1.33,3.23s1.64,9.55,1.64,9.55Z"/><path class="cls-57" d="M84.13,133.72l5,13.3a1.15,1.15,0,0,0,1.42.69l5.24-1.49a.83.83,0,0,0,.57-1.07l-4.94-13.3a1.15,1.15,0,0,0-1.43-.69l-5.24,1.49A.84.84,0,0,0,84.13,133.72Z"/><path class="cls-58" d="M83.59,133.83l4.94,13.3a1.16,1.16,0,0,0,1.42.7l5.25-1.5a.82.82,0,0,0,.56-1.06L90.82,132a1.15,1.15,0,0,0-1.42-.69l-5.25,1.49A.83.83,0,0,0,83.59,133.83Z"/><path class="cls-59" d="M84.06,133.77l1,2.64a.23.23,0,0,0,.28.14l1-.3a.16.16,0,0,0,.12-.21l-1-2.64a.25.25,0,0,0-.29-.14l-1,.3A.16.16,0,0,0,84.06,133.77Z"/><path class="cls-50" d="M83.35,140.4a5.39,5.39,0,0,1,5.33-5,4.75,4.75,0,0,1,4.79,5,5.4,5.4,0,0,1-5.33,5A4.74,4.74,0,0,1,83.35,140.4Z"/><path class="cls-55" d="M121.48,141.2s-1.62,5.24,0-.47a61.37,61.37,0,0,0,2-11.27c.31,0,2.91.1,6,6.12-.78,6.9.46,6.49-1,10.95"/><path class="cls-50" d="M129.23,134c.09.19.13.27.18.4l.14.34c.1.22.18.43.26.65.17.42.32.84.46,1.27.29.84.55,1.69.78,2.54a50.17,50.17,0,0,1,1.1,5.15,51.19,51.19,0,0,1,.53,5.26c0,.44,0,.88,0,1.32s0,.89,0,1.33l0,1.33c0,.22,0,.46,0,.7l-.06.72a36.5,36.5,0,0,1-.93,5.39c-.42,1.73-.92,3.41-1.47,5.06a82.09,82.09,0,0,1-3.94,9.63,3.55,3.55,0,0,1-4.53,1.76,3.21,3.21,0,0,1-1.6-4.24v0a73.27,73.27,0,0,0,3.1-8.9c.41-1.49.77-3,1-4.47a30.61,30.61,0,0,0,.51-4.3v-.5c0-.17,0-.33,0-.52l0-1.1c0-.37,0-.74-.07-1.1s-.05-.74-.08-1.1c-.16-1.46-.38-2.91-.68-4.33a39.41,39.41,0,0,0-1.15-4.2c-.22-.68-.48-1.35-.74-2-.13-.32-.27-.64-.41-1-.07-.15-.14-.31-.21-.45l-.1-.21c0-.05-.08-.15-.08-.14a4.6,4.6,0,0,1,2-6A4.3,4.3,0,0,1,129.23,134Z"/><path class="cls-50" d="M124.4,180.23c-1.77,2.25-4.85,2.2-7,.56a4.35,4.35,0,0,1-.83-6.51,5.17,5.17,0,0,1,7.13-1.1A5,5,0,0,1,124.4,180.23Z"/><path class="cls-51" d="M132.15,144.35a50.17,50.17,0,0,0-1.1-5.15c-.23-.85-.49-1.7-.78-2.54-.14-.43-.29-.85-.46-1.27-.08-.22-.16-.43-.26-.65l-.14-.34c0-.13-.09-.21-.18-.4a4.3,4.3,0,0,0-5.95-1.72,4.6,4.6,0,0,0-2,6s0,.09.08.14l.1.21c.07.14.14.3.21.45.14.31.28.63.41,1,.26.66.52,1.33.74,2a39.41,39.41,0,0,1,1.15,4.2c.11.52.2,1.05.29,1.57,1.73-.45,5.24-1.39,8.11-2.25C132.27,145.17,132.21,144.76,132.15,144.35Z"/><path class="cls-37" d="M115.66,174.93c.41.41,4.34,6.22,7.46,6.35a15.27,15.27,0,0,0-.81,3s-7.66-1.48-7.72-1.66a20.45,20.45,0,0,1-.17-4A36.88,36.88,0,0,1,115.66,174.93Z"/><path class="cls-60" d="M85.45,134.14a.44.44,0,0,1-.42.56.71.71,0,0,1-.66-.56.42.42,0,0,1,.42-.55A.73.73,0,0,1,85.45,134.14Z"/><path class="cls-60" d="M85.9,135.74a.36.36,0,0,1-.35.47.59.59,0,0,1-.55-.47.36.36,0,0,1,.35-.47A.6.6,0,0,1,85.9,135.74Z"/></g><g id="grl"><path class="cls-34" d="M236.64,209.89c-.83,1.19-5.9,10-2.32,16.21s21.85,9,23,1.78-1.64-14.57-1.64-14.57a34.34,34.34,0,0,0-2.83-5.8c-1.12-1.41-5.45-2.9-5.45-2.9s-5.37,1.12-5.74,1.71S236.64,209.89,236.64,209.89Z"/><path class="cls-61" d="M274.44,227.22h-.12c-4-.14-10.5-2.52-21.1-21.56l-.55-1a3.44,3.44,0,0,1,5-4.67,7.13,7.13,0,0,1,1.6,2.32c9,16.12,13.69,18,15.31,18a3.43,3.43,0,0,1-.11,6.86Zm-21.2-21.94Zm0,0Z"/><path class="cls-62" d="M259.23,202.33a6.85,6.85,0,0,0-1.59-2.32,3.44,3.44,0,0,0-5,4.67l.55,1a101.84,101.84,0,0,0,7.3,11.5l.2-.22,3.66-6.16C262.85,208.52,261.14,205.75,259.23,202.33Z"/><path class="cls-34" d="M259.2,183.87l-7-2.49-8.59.78s-4.53,4.44-5.08,8,.78,9,.08,13.39a18.18,18.18,0,0,1-1.94,6.32l6,.24c-.06-.89.27.14,1.42.14H249a4.89,4.89,0,0,0,1.21-1.56s4.76-1.4,6.17-4.36,3.75-12.53,3.75-12.53Z"/><path class="cls-34" d="M262.59,184.81l-3.26-3.14L256,179.43l-1.91.95-3.71,5.43-9,1.3c-.2,2.14,0,4.33,0,6.47l0,1.93a8.13,8.13,0,0,1,6.36,3.36c2.93,4,2.76,3.64,6.41,3s5.51-.28,8.77-5.26S262.59,184.81,262.59,184.81Z"/><path class="cls-38" d="M258.79,201.34a3.84,3.84,0,0,0-3.15-1.77l-4.58,0-2.22.09L246,200.83c-3.08,1.23-4.5,4.56-3.43,8s5.77,11.78,5.77,11.78,1.62,12.82,1.74,13.19c4.9.26,10.35-1.67,15.4-1.53C265.86,231.47,259.72,202.78,258.79,201.34Z"/><path class="cls-34" d="M248.82,199.69s3.31,5.35,5.84,5.47c1.75-1.28,1.06-5.47,1.06-5.47s-1.14,3.14-1.26,3.14-1.59-.5-1.59-.5Z"/><path class="cls-62" d="M254.88,212a4.57,4.57,0,0,1,3.11-5.17,3.68,3.68,0,0,1,4.44,3.28,4.57,4.57,0,0,1-3.11,5.17A3.68,3.68,0,0,1,254.88,212Z"/><path class="cls-52" d="M244,221.84a4.5,4.5,0,0,1-3.45-1.22,3.73,3.73,0,0,1-.88-3.82c.53-1.57,2.28-8.68,3.32-13.07a3.44,3.44,0,0,1,6.69,1.58c-.18.75-1.27,5.35-2.23,9.1,3.21-.72,7.88-2,11.89-3.31a3.42,3.42,0,1,1,2.09,6.52c-.16.06-4.15,1.33-8.37,2.46S246,221.84,244,221.84Z"/><rect class="cls-54" x="258.05" y="205.14" width="7.43" height="11.15" rx="1.97" ry="1.97" transform="translate(523.52 421.43) rotate(180)"/><path class="cls-52" d="M266.54,213.67a5.06,5.06,0,0,0-5-4.74,4.45,4.45,0,0,0-4.5,4.74,5.07,5.07,0,0,0,5,4.74A4.45,4.45,0,0,0,266.54,213.67Z"/><path class="cls-52" d="M248.47,192.78l.35,6.91s5,4.3,5.45,4.43,1.75-3.42,1.45-4.43-.65-3.82-.75-4.16.15-4.09.15-4.89a14.63,14.63,0,0,0-.15-1.81Z"/><ellipse class="cls-52" cx="254.46" cy="186.85" rx="7" ry="11.3"/><path class="cls-52" d="M249.72,192a2.17,2.17,0,0,0-.1-3,2.15,2.15,0,1,0,.1,3Z"/><path class="cls-34" d="M254.82,178.27s-.62-2.92-3.43-2.36-5.61,3.66-8.48,7c-.86,1-1.23,1.95-3.57,4.91.41,3.09.58,3,1,6.13,3.59-2.89,6.62-5.35,7.1-5.45.94-.18,4.74.62,6.74-3A9.43,9.43,0,0,0,254.82,178.27Z"/><path class="cls-34" d="M253.88,180.94c.51-.05,2.81-.73,5.57,2.13s1.92,5.62,1.74,7.11c.62.34,6.85-9.52,2.64-13.61s-12-.61-12-.61Z"/><path class="cls-34" d="M254,182.89c.64.16,7.89,1.44,8.21,7.38.38-5.88.11-7.28.11-7.28l-3.92-3.69-4.51-.48-1,1.44Z"/><path class="cls-62" d="M248.24,192.18h0a1.27,1.27,0,0,0-1.8,0h0a1.28,1.28,0,0,0,0,1.81h0a1.27,1.27,0,0,0,1.8,0h0A1.28,1.28,0,0,0,248.24,192.18Z"/><path class="cls-63" d="M260.43,233.54v-.84a1.3,1.3,0,0,1,1.3-1.3h4.19a1,1,0,0,1,1,1v1.15a1.27,1.27,0,0,1-.37.92,1.31,1.31,0,0,1-.93.39h-3.88A1.33,1.33,0,0,1,260.43,233.54Zm1.29-1.7a.84.84,0,0,0-.6.25.86.86,0,0,0-.25.61v.84a.87.87,0,0,0,.87.86h3.88a.85.85,0,0,0,.86-.86V232.4a.57.57,0,0,0-.57-.56Z"/><path class="cls-63" d="M260.68,233.37h3.26a.23.23,0,1,0,0-.45h-3.26a.22.22,0,0,0-.22.22A.22.22,0,0,0,260.68,233.37Z"/><path class="cls-37" d="M278.05,234.54l.79,0c3.38.07,6.12,2.37,6.12,5.13v2.73a35.09,35.09,0,0,0-7.84,2.46c-.24.1-.47.22-.7.34l.18.86c-1.47.23-7.46.24-13.25.53-7.22.38-13.29-4.4-13.29-10.36v-2.38Z"/><path class="cls-37" d="M266.17,246.36a12.2,12.2,0,0,0-1.41-5.29,11.8,11.8,0,0,0-1.8-3.49l.76-.68,20.65.59s8.14,15-12.2,39.56a20.78,20.78,0,0,0-2.63-1.4s4.19-8.95,6.71-29.93A77.48,77.48,0,0,0,266.17,246.36Z"/><path class="cls-54" d="M283.54,224.07h0a6.3,6.3,0,0,0-.56-.51h0a6.49,6.49,0,0,0-6.22-.51l-.73.3-25.93,10.52.05,3.51A9.68,9.68,0,0,0,259,246.9a14.41,14.41,0,0,0,7.55-1.5c4.83-2.4,10.65-9.08,12.44-10.64,5.95,19.94,5.7,29.67,5.7,29.67a21,21,0,0,1,3,.24C295.31,237.89,286,226.51,283.54,224.07Z"/><path class="cls-61" d="M274.1,229.15a4.67,4.67,0,0,1-3.53-5.61,4.72,4.72,0,0,1,5.61-3.58,4.71,4.71,0,0,1-2.08,9.19Z"/><path class="cls-53" d="M270.1,273.39a12,12,0,0,1,3.41,4.17c.49.93.94,1.74,1.32,2.42a4,4,0,0,1-.06,4.15h0a1.13,1.13,0,0,1-1.84.14c-1.92-2.32-5.9-7.16-6-7.62S270.1,273.39,270.1,273.39Z"/><path class="cls-53" d="M287.65,264.62l-2.59-.25a1.68,1.68,0,0,0-1.8,2.08c.6,2.44,1.6,6.13,2.2,8.34a2.05,2.05,0,0,0,2.78,1.39,1,1,0,0,0,.33-.22c.37-.49,0-4.53-.3-7.58A13.08,13.08,0,0,0,287.65,264.62Z"/><path class="cls-38" d="M247.67,213.58c.91-3.57,1.86-7.57,2-8.27a3.44,3.44,0,0,0-6.7-1.58c-.61,2.59-1.47,6.11-2.18,8.9A65,65,0,0,0,247.67,213.58Z"/></g><path class="cls-17" d="M76.25,76.83a10,10,0,0,1,3,1,8.54,8.54,0,0,1,2.13,1.52,6.45,6.45,0,0,1,1.3,1.8,5.24,5.24,0,0,1,.52,1.77.75.75,0,0,1-.26.67,1,1,0,0,1-.67.26h-2.4a1.45,1.45,0,0,1-.88-.22,2.42,2.42,0,0,1-.53-.6,4.42,4.42,0,0,0-1.56-1.5,6.13,6.13,0,0,0-3.11-.63,7.26,7.26,0,0,0-1.7.19,4.76,4.76,0,0,0-1.4.55,3,3,0,0,0-1,.87,2,2,0,0,0-.34,1.17A2.12,2.12,0,0,0,69.73,85,3,3,0,0,0,71,85.8a12.72,12.72,0,0,0,2.16.67q1.32.32,3.21.72a20.21,20.21,0,0,1,3.48,1,8,8,0,0,1,2.34,1.44,4.89,4.89,0,0,1,1.3,1.94,7.47,7.47,0,0,1,.4,2.51,6.15,6.15,0,0,1-.52,2.5,6.46,6.46,0,0,1-1.49,2.1,8.13,8.13,0,0,1-2.39,1.54,11.91,11.91,0,0,1-3.19.86v2.33a.94.94,0,0,1-.93.93H72.54a.89.89,0,0,1-.65-.27.91.91,0,0,1-.27-.66v-2.33a12.28,12.28,0,0,1-2.9-.81,9.14,9.14,0,0,1-2.37-1.39A6.68,6.68,0,0,1,64.72,97,5.15,5.15,0,0,1,64,94.64a.77.77,0,0,1,.26-.67,1,1,0,0,1,.67-.25h2.4a1.57,1.57,0,0,1,.89.2,1.61,1.61,0,0,1,.52.62,5.88,5.88,0,0,0,.58.89,3.19,3.19,0,0,0,.93.79,5.56,5.56,0,0,0,1.46.57,8.93,8.93,0,0,0,2.18.22,12.94,12.94,0,0,0,2-.15,6,6,0,0,0,1.68-.52,3.7,3.7,0,0,0,1.17-.89,2,2,0,0,0,.44-1.32,1.67,1.67,0,0,0-.48-1.24,3.89,3.89,0,0,0-1.46-.82,19,19,0,0,0-2.42-.65c-1-.21-2.07-.47-3.33-.79a18.22,18.22,0,0,1-3-1,7.08,7.08,0,0,1-2.13-1.39,5.19,5.19,0,0,1-1.25-1.94,7.55,7.55,0,0,1-.41-2.66,5.93,5.93,0,0,1,.51-2.47,6.83,6.83,0,0,1,1.43-2,7.69,7.69,0,0,1,2.18-1.51,10.89,10.89,0,0,1,2.78-.87V74.42a.91.91,0,0,1,.27-.65.89.89,0,0,1,.65-.27h2.78a.89.89,0,0,1,.65.27.88.88,0,0,1,.28.65Z"/><path class="cls-17" d="M318.38,25.46a12,12,0,0,1,3.43,1.13,10,10,0,0,1,2.47,1.78,7.42,7.42,0,0,1,1.51,2.09,5.88,5.88,0,0,1,.6,2,.87.87,0,0,1-.3.78,1.11,1.11,0,0,1-.77.3h-2.79a1.66,1.66,0,0,1-1-.26,2.52,2.52,0,0,1-.62-.7,5.21,5.21,0,0,0-1.81-1.73,7.1,7.1,0,0,0-3.61-.74,8.38,8.38,0,0,0-2,.22,5.79,5.79,0,0,0-1.64.64,3.43,3.43,0,0,0-1.09,1,2.64,2.64,0,0,0,0,2.86,3.45,3.45,0,0,0,1.41,1,15.44,15.44,0,0,0,2.51.78l3.73.84a23.51,23.51,0,0,1,4.05,1.21,9.49,9.49,0,0,1,2.71,1.68,5.6,5.6,0,0,1,1.51,2.25,8.46,8.46,0,0,1,.46,2.91,7.08,7.08,0,0,1-.6,2.91,7.53,7.53,0,0,1-1.73,2.43,9.38,9.38,0,0,1-2.77,1.79,13.53,13.53,0,0,1-3.71,1v2.71a1.05,1.05,0,0,1-.32.76,1,1,0,0,1-.76.32h-3.22a1,1,0,0,1-.76-.32,1,1,0,0,1-.32-.76V53.68a14.08,14.08,0,0,1-3.37-.94,10.71,10.71,0,0,1-2.75-1.61A7.75,7.75,0,0,1,305,48.92a6.11,6.11,0,0,1-.8-2.77.87.87,0,0,1,.3-.78,1.11,1.11,0,0,1,.77-.3h2.8a1.85,1.85,0,0,1,1,.24,1.81,1.81,0,0,1,.6.72,7.61,7.61,0,0,0,.68,1,3.48,3.48,0,0,0,1.07.92,6.28,6.28,0,0,0,1.7.66,10.58,10.58,0,0,0,2.53.26,14.42,14.42,0,0,0,2.31-.18,6.57,6.57,0,0,0,1.95-.6,4,4,0,0,0,1.36-1,2.27,2.27,0,0,0,.52-1.53,2,2,0,0,0-.56-1.44,4.44,4.44,0,0,0-1.69-1,23.33,23.33,0,0,0-2.81-.76c-1.12-.24-2.41-.54-3.87-.92a20.76,20.76,0,0,1-3.49-1.13,8.15,8.15,0,0,1-2.47-1.62,6.12,6.12,0,0,1-1.46-2.25,9.13,9.13,0,0,1-.47-3.09,6.83,6.83,0,0,1,.59-2.87,7.88,7.88,0,0,1,1.66-2.37,8.93,8.93,0,0,1,2.53-1.76,13,13,0,0,1,3.23-1V22.67a1,1,0,0,1,.32-.76,1,1,0,0,1,.76-.32h3.22a1.09,1.09,0,0,1,1.08,1.08Z"/><path class="cls-64" d="M70.44,21.67a5.68,5.68,0,0,1,1.73.58,5.06,5.06,0,0,1,1.25.89,3.91,3.91,0,0,1,.77,1.06,3.25,3.25,0,0,1,.3,1,.46.46,0,0,1-.15.39.58.58,0,0,1-.39.15H72.54a.85.85,0,0,1-.52-.13,1.34,1.34,0,0,1-.31-.35,2.6,2.6,0,0,0-.92-.88A3.54,3.54,0,0,0,69,24.05a4.64,4.64,0,0,0-1,.11,2.75,2.75,0,0,0-.82.32,1.65,1.65,0,0,0-.56.52,1.23,1.23,0,0,0-.2.68,1.29,1.29,0,0,0,.22.76,1.79,1.79,0,0,0,.72.5,7.79,7.79,0,0,0,1.27.39l1.88.43a11.79,11.79,0,0,1,2,.61,4.92,4.92,0,0,1,1.37.85,2.9,2.9,0,0,1,.76,1.13,4.26,4.26,0,0,1,.23,1.48,3.65,3.65,0,0,1-.3,1.47,4,4,0,0,1-.87,1.23,5,5,0,0,1-1.4.9,7.39,7.39,0,0,1-1.88.51v1.37a.52.52,0,0,1-.16.38.51.51,0,0,1-.38.16H68.27a.53.53,0,0,1-.39-.16.57.57,0,0,1-.16-.38V35.94a7.76,7.76,0,0,1-1.7-.48,5.71,5.71,0,0,1-1.39-.81,4.06,4.06,0,0,1-1-1.12,3.2,3.2,0,0,1-.4-1.4.49.49,0,0,1,.15-.4.58.58,0,0,1,.39-.15h1.41a1,1,0,0,1,.53.12,1,1,0,0,1,.3.37,3.85,3.85,0,0,0,.34.52,1.8,1.8,0,0,0,.55.46,3.07,3.07,0,0,0,.85.34,5.67,5.67,0,0,0,1.28.13,7.49,7.49,0,0,0,1.17-.09,3.2,3.2,0,0,0,1-.31,2,2,0,0,0,.68-.52,1.14,1.14,0,0,0,.26-.77,1,1,0,0,0-.28-.73,2.18,2.18,0,0,0-.85-.48,11.18,11.18,0,0,0-1.42-.39c-.57-.12-1.22-.27-2-.46a10.41,10.41,0,0,1-1.76-.57,4.44,4.44,0,0,1-1.25-.82,3.12,3.12,0,0,1-.74-1.14,4.49,4.49,0,0,1-.24-1.56,3.48,3.48,0,0,1,.3-1.45,4.27,4.27,0,0,1,.84-1.2,4.54,4.54,0,0,1,1.28-.88,6.48,6.48,0,0,1,1.63-.52V20.26a.55.55,0,0,1,.16-.38.53.53,0,0,1,.39-.16H69.9a.55.55,0,0,1,.54.54Z"/><path class="cls-65" d="M349.53,65a6.18,6.18,0,0,1,1.73.58,5.26,5.26,0,0,1,1.25.89,3.87,3.87,0,0,1,.76,1.06,3,3,0,0,1,.31,1,.44.44,0,0,1-.16.39.56.56,0,0,1-.39.15h-1.41a.8.8,0,0,1-.51-.13,1.07,1.07,0,0,1-.31-.35,2.69,2.69,0,0,0-.92-.88,3.67,3.67,0,0,0-1.82-.37,4.57,4.57,0,0,0-1,.11,3.12,3.12,0,0,0-.83.32,1.84,1.84,0,0,0-.55.52,1.16,1.16,0,0,0-.2.68,1.22,1.22,0,0,0,.22.76,1.75,1.75,0,0,0,.71.5,9.22,9.22,0,0,0,1.27.4l1.89.42a11.93,11.93,0,0,1,2,.61,4.65,4.65,0,0,1,1.37.85,2.89,2.89,0,0,1,.77,1.14A4.45,4.45,0,0,1,354,75.2a3.65,3.65,0,0,1-.3,1.47,3.87,3.87,0,0,1-.88,1.23,4.82,4.82,0,0,1-1.4.9,6.92,6.92,0,0,1-1.87.51v1.37a.55.55,0,0,1-.16.38.53.53,0,0,1-.39.16h-1.63a.55.55,0,0,1-.54-.54V79.31a7.19,7.19,0,0,1-1.71-.48,5.71,5.71,0,0,1-1.39-.81,4,4,0,0,1-.95-1.12,3.17,3.17,0,0,1-.41-1.4.44.44,0,0,1,.16-.39.56.56,0,0,1,.39-.15h1.41a.93.93,0,0,1,.52.12.91.91,0,0,1,.3.36,4,4,0,0,0,.35.52,1.8,1.8,0,0,0,.54.47,3.51,3.51,0,0,0,.86.33,5.15,5.15,0,0,0,1.28.13,7.49,7.49,0,0,0,1.17-.09,3.42,3.42,0,0,0,1-.3A2.19,2.19,0,0,0,351,76a1.16,1.16,0,0,0,.26-.77,1,1,0,0,0-.28-.73,2.37,2.37,0,0,0-.86-.48,12.73,12.73,0,0,0-1.42-.38c-.56-.12-1.22-.28-1.95-.47a10.54,10.54,0,0,1-1.77-.57,4.05,4.05,0,0,1-1.25-.82,3,3,0,0,1-.73-1.14,4.49,4.49,0,0,1-.24-1.56,3.52,3.52,0,0,1,.3-1.45,4.07,4.07,0,0,1,.84-1.2,4.49,4.49,0,0,1,1.27-.88,6.55,6.55,0,0,1,1.64-.52V63.63a.52.52,0,0,1,.16-.38.51.51,0,0,1,.38-.16H349a.53.53,0,0,1,.39.16.57.57,0,0,1,.16.38Z"/><path class="cls-66" d="M24.8,86.82a4.87,4.87,0,0,1,1.41.47,4.14,4.14,0,0,1,1,.72,3.21,3.21,0,0,1,.62.86,2.45,2.45,0,0,1,.24.84A.37.37,0,0,1,28,90a.47.47,0,0,1-.32.12H26.5a.69.69,0,0,1-.42-.1,1.22,1.22,0,0,1-.25-.29,2.11,2.11,0,0,0-.74-.71,3,3,0,0,0-1.48-.3,3.47,3.47,0,0,0-.81.09,2.4,2.4,0,0,0-.67.26,1.3,1.3,0,0,0-.45.42,1.1,1.1,0,0,0,0,1.16,1.37,1.37,0,0,0,.59.41,5.91,5.91,0,0,0,1,.32l1.53.35a9.26,9.26,0,0,1,1.66.49,3.75,3.75,0,0,1,1.11.69,2.24,2.24,0,0,1,.62.92,3.44,3.44,0,0,1,.19,1.2,3,3,0,0,1-.24,1.19,3.27,3.27,0,0,1-.71,1,4,4,0,0,1-1.14.73,5.63,5.63,0,0,1-1.52.41V99.5a.44.44,0,0,1-.44.44H23a.44.44,0,0,1-.32-.13.46.46,0,0,1-.13-.31V98.39A6.1,6.1,0,0,1,21.21,98a4.27,4.27,0,0,1-1.12-.67,3.17,3.17,0,0,1-.78-.9A2.48,2.48,0,0,1,19,95.3.37.37,0,0,1,19.1,95a.49.49,0,0,1,.32-.12h1.15a.66.66,0,0,1,.67.39,2.62,2.62,0,0,0,.28.43,1.37,1.37,0,0,0,.44.37,2.48,2.48,0,0,0,.69.27,4.3,4.3,0,0,0,1,.11,7.32,7.32,0,0,0,.95-.07,3,3,0,0,0,.8-.25,1.71,1.71,0,0,0,.55-.42,1,1,0,0,0,.22-.63.81.81,0,0,0-.23-.59,1.84,1.84,0,0,0-.7-.39,8.05,8.05,0,0,0-1.15-.31l-1.59-.38a8.57,8.57,0,0,1-1.43-.47,3.53,3.53,0,0,1-1-.66,2.42,2.42,0,0,1-.59-.92,3.49,3.49,0,0,1-.2-1.27,2.85,2.85,0,0,1,.24-1.17,3.45,3.45,0,0,1,.68-1,3.93,3.93,0,0,1,1-.72,5,5,0,0,1,1.32-.41V85.68a.44.44,0,0,1,.45-.44h1.32a.42.42,0,0,1,.31.13.4.4,0,0,1,.13.31Z"/><path class="cls-17" d="M250.18,16.78a6.13,6.13,0,0,1,1.74.57,5.21,5.21,0,0,1,1.25.9,3.68,3.68,0,0,1,.76,1.05,2.81,2.81,0,0,1,.3,1,.41.41,0,0,1-.15.39.57.57,0,0,1-.39.16h-1.41a.85.85,0,0,1-.52-.14,1.35,1.35,0,0,1-.31-.35,2.55,2.55,0,0,0-.91-.87,3.57,3.57,0,0,0-1.83-.38,4.48,4.48,0,0,0-1,.11,2.72,2.72,0,0,0-.83.33,1.6,1.6,0,0,0-.55.51,1.16,1.16,0,0,0-.21.68,1.21,1.21,0,0,0,.23.76,1.6,1.6,0,0,0,.71.5,7.7,7.7,0,0,0,1.27.4l1.88.42a11.79,11.79,0,0,1,2.05.61,4.78,4.78,0,0,1,1.37.85,2.86,2.86,0,0,1,.76,1.14,4.2,4.2,0,0,1,.24,1.47,3.49,3.49,0,0,1-.31,1.47,3.73,3.73,0,0,1-.87,1.23,5.21,5.21,0,0,1-1.4.91,6.9,6.9,0,0,1-1.88.5v1.37a.55.55,0,0,1-.54.54H248a.53.53,0,0,1-.39-.16.55.55,0,0,1-.16-.38V31a7.23,7.23,0,0,1-1.7-.47,6.07,6.07,0,0,1-1.39-.82,4.09,4.09,0,0,1-1-1.12,3.16,3.16,0,0,1-.4-1.4.46.46,0,0,1,.15-.39.6.6,0,0,1,.4-.15H245a1,1,0,0,1,.52.12.91.91,0,0,1,.3.36,4.21,4.21,0,0,0,.34.52,2,2,0,0,0,.55.47,3.59,3.59,0,0,0,.85.33,5.2,5.2,0,0,0,1.28.13,7.31,7.31,0,0,0,1.17-.09,3.39,3.39,0,0,0,1-.3,2.15,2.15,0,0,0,.68-.52,1.16,1.16,0,0,0,.27-.78,1,1,0,0,0-.29-.73,2.24,2.24,0,0,0-.85-.48,12.73,12.73,0,0,0-1.42-.38c-.57-.12-1.22-.28-2-.47a10.41,10.41,0,0,1-1.76-.57,4.05,4.05,0,0,1-1.25-.82,3,3,0,0,1-.73-1.13,4.35,4.35,0,0,1-.25-1.57,3.37,3.37,0,0,1,.31-1.45,4.05,4.05,0,0,1,.83-1.19,4.37,4.37,0,0,1,1.28-.89,6.09,6.09,0,0,1,1.63-.51V15.37a.55.55,0,0,1,.55-.55h1.63A.55.55,0,0,1,250,15a.53.53,0,0,1,.16.39Z"/><g id="card"><path class="cls-37" d="M219.07,81.77l-69.46-.24a8.17,8.17,0,0,0-8.18,8.13l-.12,35.19a8.16,8.16,0,0,0,8.12,8.18l69.46.24a8.16,8.16,0,0,0,8.18-8.12L227.2,90a8.17,8.17,0,0,0-8.13-8.18Z"/><path class="cls-38" d="M155.06,85.16a6.75,6.75,0,1,0,6.73,6.77,6.75,6.75,0,0,0-6.73-6.77Z"/><path class="cls-55" d="M162.53,85.18A6.76,6.76,0,1,0,169.26,92a6.78,6.78,0,0,0-6.73-6.78Z"/><path class="cls-17" d="M160.47,108a1.74,1.74,0,1,1,0,3.47l-11.39,0a1.74,1.74,0,0,1,0-3.47l11.38,0Z"/><path class="cls-17" d="M180.27,108.05a1.74,1.74,0,1,1,0,3.47l-11.38,0a1.74,1.74,0,0,1,0-3.47l11.38,0Z"/><path class="cls-17" d="M200.07,108.12a1.74,1.74,0,0,1,0,3.47l-11.38,0a1.75,1.75,0,0,1-1.73-1.74,1.73,1.73,0,0,1,1.74-1.73l11.38,0Z"/><path class="cls-17" d="M219.87,108.19a1.73,1.73,0,1,1,0,3.46l-11.38,0a1.75,1.75,0,0,1-1.73-1.75,1.72,1.72,0,0,1,1.74-1.72l11.38,0Z"/><path class="cls-17" d="M170.75,115.26a1.74,1.74,0,1,1,0,3.47l-21.69-.07a1.74,1.74,0,1,1,0-3.47l21.69.07Z"/><path class="cls-17" d="M178.13,122.27a1.74,1.74,0,1,1,0,3.47l-29.09-.1a1.74,1.74,0,0,1,0-3.47l29.09.1Z"/><path class="cls-17" d="M189.45,122.31a1.74,1.74,0,0,1,0,3.47l-5.38,0a1.74,1.74,0,0,1,0-3.47l5.39,0Z"/></g><polygon class="cls-38" points="184.3 239.94 185.82 243.03 189.23 243.53 186.77 245.93 187.35 249.33 184.3 247.72 181.25 249.33 181.84 245.93 179.37 243.53 182.78 243.03 184.3 239.94"/><polygon class="cls-38" points="196.87 239.94 198.39 243.03 201.8 243.53 199.34 245.93 199.92 249.33 196.87 247.72 193.82 249.33 194.4 245.93 191.94 243.53 195.34 243.03 196.87 239.94"/><polygon class="cls-38" points="211.68 239.94 213.21 243.03 216.62 243.53 214.15 245.93 214.73 249.33 211.68 247.72 208.63 249.33 209.22 245.93 206.75 243.53 210.16 243.03 211.68 239.94"/><polygon class="cls-38" points="171.29 239.94 172.81 243.03 176.22 243.53 173.75 245.93 174.33 249.33 171.29 247.72 168.24 249.33 168.82 245.93 166.35 243.53 169.76 243.03 171.29 239.94"/><polygon class="cls-38" points="158.49 239.94 160.02 243.03 163.43 243.53 160.96 245.93 161.54 249.33 158.49 247.72 155.45 249.33 156.03 245.93 153.56 243.53 156.97 243.03 158.49 239.94"/></g></g></g></svg>