<?xml version="1.0" encoding="utf-8"?>
<!-- Generator: Adobe Illustrator 22.1.0, SVG Export Plug-In . SVG Version: 6.00 Build 0)  -->
<svg version="1.1" xmlns="http://www.w3.org/2000/svg" xmlns:xlink="http://www.w3.org/1999/xlink" x="0px" y="0px"
	 viewBox="0 0 770.5 307.5" style="enable-background:new 0 0 770.5 307.5;" xml:space="preserve">
<style type="text/css">
	.st0{display:none;}
	.st1{opacity:0.8;}
	.st2{fill:#E1E6FB;}
	.st3{fill:#F4CDAF;}
	.st4{fill:#D1D1D1;}
	.st5{fill:#373791;}
	.st6{fill:#EFEFEF;}
	.st7{fill:#304269;}
	.st8{fill:#3F3FAA;}
	.st9{fill:#4B45BD;}
	.st10{fill:#DEDAE8;}
	.st11{fill:#BAC5F4;}
	.st12{fill:#3C4043;}
	.st13{fill:#FFFFFF;}
	.st14{fill:#F8F8FF;}
	.st15{fill:url(#SVGID_1_);}
	.st16{fill:url(#SVGID_2_);}
	.st17{fill:url(#SVGID_3_);}
	.st18{fill:url(#SVGID_4_);}
	.st19{fill:#F5F5FC;}
	.st20{fill:#F7F7F7;stroke:#E1E6FB;stroke-width:3;stroke-miterlimit:10;}
	.st21{fill:url(#SVGID_5_);}
	.st22{fill:url(#SVGID_6_);}
	.st23{fill:url(#SVGID_7_);}
	.st24{fill:url(#SVGID_8_);}
	.st25{fill:url(#SVGID_9_);}
	.st26{fill:#F7F7F7;}
	.st27{fill:url(#SVGID_10_);}
	.st28{fill:url(#SVGID_11_);}
	.st29{display:none;fill:#F7F7F7;}
	.st30{fill:url(#SVGID_12_);}
	.st31{fill:url(#SVGID_13_);}
	.st32{fill:url(#SVGID_14_);}
	.st33{fill:url(#SVGID_15_);}
	.st34{fill:url(#SVGID_16_);}
	.st35{fill:url(#SVGID_17_);}
	.st36{fill:#EAC5B0;}
	.st37{opacity:0.2;fill:#BAC5F4;}
	.st38{opacity:0.57;}
	.st39{fill:#E5E5E7;}
	.st40{fill:none;stroke:#D1D1D1;stroke-miterlimit:10;}
	.st41{fill:#47BEC4;}
	.st42{fill:none;stroke:#FFFFFF;stroke-width:2;stroke-miterlimit:10;}
	.st43{fill:#F77A4B;}
	.st44{fill:url(#SVGID_18_);}
	.st45{fill:url(#SVGID_19_);}
	.st46{fill:url(#SVGID_20_);}
	.st47{fill:url(#SVGID_21_);}
	.st48{fill:url(#SVGID_22_);}
	.st49{fill:url(#SVGID_23_);}
	.st50{fill:url(#SVGID_24_);}
	.st51{fill:url(#SVGID_25_);}
	.st52{fill:url(#SVGID_26_);}
	.st53{clip-path:url(#SVGID_28_);fill:#BAC5F4;}
	.st54{opacity:0.4;fill:#F1F2F2;}
	.st55{fill:#ACD9DD;}
	.st56{opacity:0.2;}
	.st57{fill:#FFFDF3;}
	.st58{fill:#232A35;}
	.st59{fill:#3B455A;}
	.st60{opacity:0.1;}
	.st61{fill:#000100;}
	.st62{fill:url(#SVGID_29_);}
	.st63{fill:url(#SVGID_30_);}
	.st64{fill:url(#SVGID_31_);}
	.st65{fill:url(#SVGID_32_);}
	.st66{fill:#BDBDBD;}
	.st67{fill:url(#SVGID_33_);}
	.st68{fill:#5A5A5C;}
	.st69{opacity:0.56;fill:url(#SVGID_34_);}
	.st70{opacity:0.66;fill:#FFFFFF;}
	.st71{fill:#C4DFE1;}
	.st72{fill:#33435A;}
	.st73{fill:#57859B;}
	.st74{fill:#427CCC;}
	.st75{fill:#FFBFA4;}
	.st76{fill:#141C2B;}
	.st77{fill:#BABCBC;}
	.st78{opacity:0.14;}
	.st79{fill:url(#SVGID_35_);}
	.st80{fill:url(#SVGID_36_);}
	.st81{fill:url(#SVGID_37_);}
	.st82{fill:url(#SVGID_38_);}
	.st83{fill:url(#SVGID_39_);}
	.st84{fill:url(#SVGID_40_);}
	.st85{display:inline;fill:url(#SVGID_41_);}
	.st86{display:inline;fill:url(#SVGID_42_);}
	.st87{display:inline;fill:url(#SVGID_43_);}
	.st88{display:inline;fill:url(#SVGID_44_);}
	.st89{display:inline;fill:url(#SVGID_45_);}
	.st90{display:inline;fill:url(#SVGID_46_);}
	.st91{fill:url(#SVGID_47_);}
	.st92{opacity:0.6;}
	.st93{fill:url(#SVGID_48_);}
	.st94{opacity:0.3;}
	.st95{fill:url(#SVGID_49_);}
	.st96{fill:url(#SVGID_50_);}
	.st97{fill:#DE937A;}
	.st98{fill:#28415A;}
	.st99{fill:#59595B;}
	.st100{fill:#39517C;}
	.st101{fill:#34383A;}
	.st102{fill:#F3CFC1;}
	.st103{fill:#FF6600;}
	.st104{fill:#D9E8F5;}
	.st105{fill:#F5CEB0;}
	.st106{fill:#F26101;}
	.st107{fill:#FFFFF2;}
	.st108{display:inline;}
	.st109{fill:#7DB5DB;}
	.st110{fill:#EFBFA5;}
	.st111{fill:#EACDB0;}
	.st112{fill:#4D4D4D;}
	.st113{display:inline;fill:#D8D8D8;stroke:#FFFFFF;stroke-miterlimit:10;}
	.st114{display:inline;fill:#BCBEC0;}
	.st115{display:inline;fill:#305399;}
	.st116{fill:#F0F1F1;}
	.st117{display:inline;opacity:0.1;fill:#000100;}
	.st118{display:inline;fill:#3B455A;}
	.st119{display:inline;fill:#7DB5DB;}
	.st120{fill:#98C7E2;}
	.st121{fill:#FFFDF0;}
	.st122{opacity:6.000000e-02;fill:#FFFFFF;}
	.st123{opacity:0.1;fill:#000100;}
	.st124{fill:url(#SVGID_51_);}
	.st125{fill:url(#SVGID_52_);}
	.st126{fill:url(#SVGID_53_);}
	.st127{fill:url(#SVGID_54_);}
	.st128{fill:url(#SVGID_55_);}
	.st129{fill:url(#SVGID_56_);}
	.st130{fill:url(#SVGID_57_);}
	.st131{fill:url(#SVGID_58_);}
	.st132{fill:#EAC1A4;}
	.st133{fill:#484F5B;}
	.st134{fill:#8CABEF;}
	.st135{fill:url(#SVGID_59_);}
	.st136{fill:url(#SVGID_60_);}
	.st137{fill:url(#SVGID_61_);}
	.st138{fill:url(#SVGID_62_);}
	.st139{fill:url(#SVGID_63_);}
	.st140{fill:url(#SVGID_64_);}
	.st141{fill:url(#SVGID_65_);}
	.st142{fill:url(#SVGID_66_);}
	.st143{fill:url(#SVGID_67_);}
	.st144{fill:url(#SVGID_68_);}
	.st145{fill:url(#SVGID_69_);}
	.st146{fill:url(#SVGID_70_);}
	.st147{fill:url(#SVGID_71_);}
	.st148{fill:url(#SVGID_72_);}
	.st149{fill:#BABCBE;}
	.st150{fill:#242449;}
	.st151{fill:#2F3787;}
	.st152{fill:#3D475B;}
	.st153{fill:#366362;}
	.st154{fill:#89B336;}
	.st155{fill:#96BD34;}
	.st156{opacity:7.000000e-02;}
	.st157{fill:#B5D381;}
	.st158{fill:#3B308A;}
	.st159{opacity:8.000000e-02;}
	.st160{fill:#F3E6DC;}
	.st161{fill:#92C59B;}
	.st162{fill:#88C9DA;}
	.st163{fill:#F9CD5B;}
	.st164{fill:#F6D5D5;}
	.st165{fill:#424DBF;}
	.st166{fill:#7EACF1;}
	.st167{fill:#F17187;}
	.st168{fill:#EAEAEA;}
	.st169{fill:#A0A2A6;}
	.st170{fill:#CE7361;}
	.st171{fill:#C7C8C9;}
	.st172{opacity:9.000000e-02;}
	.st173{opacity:0.15;}
	.st174{fill:#5B6475;}
	.st175{fill:#EDEDED;}
</style>
<g id="Слой_1" class="st0">
</g>
<g id="Слой_9">
	<g id="Слой_3__x28_копия2_x29_" class="st1">
	</g>
	<g id="Слой_10">
		<g id="Слой_11">
		</g>
		<g id="Слой_11__x28_копия_x29_">
			<g id="Слой_11_копия_2">
			</g>
			<g id="Слой_11_копия_3">
			</g>
		</g>
	</g>
</g>
<g id="poezdki">
	<g id="Слой_3__x28_копия_x29_" class="st1">
	</g>
	<g id="Слой_8">
	</g>
</g>
<g id="auto">
	<g id="Слой_3">
		<g id="Слой_4">
		</g>
	</g>
</g>
<g id="nastroiki">
	<g>
		<g>
			<linearGradient id="SVGID_1_" gradientUnits="userSpaceOnUse" x1="753.1325" y1="55.4651" x2="753.1325" y2="-2.3044">
				<stop  offset="0" style="stop-color:#FFFFFF"/>
				<stop  offset="1" style="stop-color:#CFCFCF"/>
			</linearGradient>
			<path class="st15" d="M769.8,36.3c0-0.6-0.1-1.3-0.2-1.9l-3.3-0.5l-1.1-3.1l2.2-2.5c-0.7-1.1-1.5-2.1-2.4-3.1l-3,1.5l-2.8-1.9
				l0.3-3.3c-1.1-0.5-2.3-0.8-3.6-1.1l-1.6,3l-3.3,0.1l-1.7-2.9c-1.3,0.3-2.5,0.7-3.6,1.3l0.5,3.3l-2.6,2l-3.1-1.3
				c-0.8,1-1.6,2-2.2,3.2l2.3,2.4l-0.9,3.2l-3.3,0.7c-0.1,0.7-0.1,1.3-0.1,2c0,0.6,0.1,1.2,0.2,1.8l3.3,0.6L741,43l-2.2,2.5
				c0.7,1.1,1.5,2.1,2.4,3.1l3-1.5l2.7,1.9l-0.3,3.3c1.2,0.5,2.4,0.9,3.7,1.1l1.5-3l3.3-0.1l1.7,2.9c1.3-0.3,2.5-0.7,3.6-1.3
				l-0.5-3.3l2.6-2l3.1,1.3c0.8-1,1.6-2,2.2-3.2l-2.4-2.4l0.9-3.2l3.3-0.7C769.8,37.6,769.9,37,769.8,36.3z M758.1,42.5
				c-3.1,2.7-7.8,2.4-10.6-0.7c-2.7-3.1-2.4-7.8,0.7-10.6c3.1-2.7,7.8-2.4,10.6,0.7C761.5,35,761.2,39.8,758.1,42.5z"/>
			<path class="st13" d="M761.4,29.6c-4-4.5-10.9-5-15.5-1c-4.5,4-5,10.9-1,15.5c4,4.5,10.9,5,15.5,1
				C764.9,41.1,765.4,34.2,761.4,29.6z M759.7,44.3c-4.1,3.6-10.3,3.2-14-0.9c-3.6-4.1-3.2-10.3,0.9-14c4.1-3.6,10.4-3.2,14,0.9
				C764.2,34.4,763.8,40.7,759.7,44.3z"/>
		</g>
		<g>
			<linearGradient id="SVGID_2_" gradientUnits="userSpaceOnUse" x1="366.002" y1="82.6317" x2="366.002" y2="-14.7022">
				<stop  offset="0" style="stop-color:#FFFFFF"/>
				<stop  offset="1" style="stop-color:#CFCFCF"/>
			</linearGradient>
			<path class="st16" d="M395.4,28.4c0-1.1-0.1-2.2-0.3-3.3l-5.8-1l-2-5.5l3.9-4.5c-1.2-2-2.6-3.8-4.2-5.4l-5.3,2.7l-4.8-3.3
				l0.5-5.9c-2-0.8-4.1-1.5-6.3-1.9l-2.7,5.2l-5.9,0.1l-3-5.1C357.2,1.2,355,2,353,3l0.9,5.8l-4.6,3.6l-5.4-2.3
				c-1.5,1.7-2.8,3.6-3.8,5.6l4.1,4.2l-1.7,5.6l-5.8,1.3c-0.1,1.2-0.1,2.3-0.1,3.6c0,1.1,0.1,2.2,0.3,3.2l5.8,1l2,5.5l-3.9,4.4
				c1.2,2,2.6,3.8,4.2,5.4l5.3-2.6l4.8,3.3l-0.5,5.9c2.1,0.9,4.3,1.5,6.5,1.9l2.7-5.3l5.9-0.2l3,5.1c2.2-0.5,4.4-1.3,6.4-2.3
				l-0.9-5.8l4.6-3.6l5.4,2.3c1.5-1.7,2.8-3.6,3.8-5.6l-4.2-4.2l1.6-5.6l5.8-1.3C395.4,30.7,395.4,29.5,395.4,28.4z M374.7,39.3
				c-5.5,4.8-13.8,4.3-18.6-1.2c-4.8-5.5-4.3-13.8,1.2-18.6c5.4-4.8,13.8-4.3,18.6,1.1C380.7,26.1,380.2,34.4,374.7,39.3z"/>
			<path class="st13" d="M380.5,16.6c-7-8-19.3-8.8-27.3-1.7c-8,7.1-8.8,19.2-1.7,27.2c7,8,19.2,8.8,27.2,1.7
				C386.8,36.8,387.5,24.6,380.5,16.6z M377.5,42.4c-7.2,6.4-18.2,5.7-24.6-1.5c-6.4-7.2-5.7-18.2,1.5-24.6
				c7.2-6.4,18.2-5.7,24.6,1.6C385.4,25.1,384.7,36.1,377.5,42.4z"/>
		</g>
		<g>
			
				<linearGradient id="SVGID_3_" gradientUnits="userSpaceOnUse" x1="125.09" y1="132.5104" x2="125.09" y2="-54.8009" gradientTransform="matrix(0.8781 0.4785 -0.4785 0.8781 47.8055 -51.5697)">
				<stop  offset="0" style="stop-color:#FFFFFF"/>
				<stop  offset="1" style="stop-color:#CFCFCF"/>
			</linearGradient>
			<path class="st17" d="M185.8,63.8c-0.2-2.3-0.5-4.6-0.9-6.9l-12.1-1.5l-4.5-11.2l7.7-9.5c-2.6-4-5.6-7.6-9-10.8l-10.7,5.9
				L146,23.3l0.6-12.2c-4.2-1.6-8.7-2.8-13.2-3.4l-5.3,11L116,19.5l-6.6-10.3c-4.6,1.2-9,3-13.1,5.2l2.2,12l-9.4,7.7l-11.4-4.4
				c-2.9,3.6-5.5,7.6-7.5,11.9l8.9,8.4l-3,11.7l-11.8,3.1c-0.1,2.4-0.1,4.9,0,7.4c0.2,2.3,0.5,4.5,0.8,6.7l12.1,1.6l4.5,11.3
				l-7.7,9.5c2.6,4,5.6,7.6,9,10.9l10.7-5.9l10.2,6.5l-0.7,12.2c4.4,1.7,8.9,2.9,13.7,3.5l5.2-11.1l12.1-0.8l6.6,10.3
				c4.6-1.3,9-3,13.1-5.2l-2.3-12l9.3-7.8l11.4,4.4c2.9-3.7,5.5-7.6,7.5-11.9l-8.9-8.4l3-11.8l11.8-3.1
				C186,68.6,186,66.2,185.8,63.8z M143.8,87.8c-10.9,10.3-28.2,9.9-38.6-1.1c-10.3-11-9.9-28.2,1.1-38.6c10.9-10.4,28.2-9.9,38.6,1
				C155.3,60.2,154.8,77.5,143.8,87.8z"/>
		</g>
		<g>
			
				<linearGradient id="SVGID_4_" gradientUnits="userSpaceOnUse" x1="30.118" y1="247.4272" x2="30.118" y2="159.1265" gradientTransform="matrix(0.8593 0.5114 -0.5114 0.8593 115.225 15.123)">
				<stop  offset="0" style="stop-color:#FFFFFF"/>
				<stop  offset="1" style="stop-color:#CFCFCF"/>
			</linearGradient>
			<path class="st18" d="M58.8,216.1c0-1.1-0.1-2.2-0.3-3.3l-5.7-0.9l-1.9-5.4l3.8-4.3c-1.1-1.9-2.5-3.7-4.1-5.3l-5.2,2.6l-4.7-3.2
				l0.5-5.7c-2-0.8-4-1.5-6.2-1.8l-2.7,5.1l-5.7,0.1l-2.9-5c-2.2,0.5-4.3,1.2-6.3,2.2l0.8,5.7l-4.5,3.5l-5.3-2.3
				c-1.5,1.7-2.7,3.5-3.8,5.5l4,4.1l-1.6,5.5l-5.6,1.3c-0.1,1.1-0.1,2.3-0.1,3.5c0,1.1,0.1,2.1,0.3,3.2l5.7,1l1.9,5.4l-3.8,4.3
				c1.2,1.9,2.5,3.7,4.1,5.3l5.2-2.6l4.7,3.2l-0.5,5.7c2,0.9,4.2,1.5,6.4,1.9l2.7-5.1l5.7-0.2l2.9,5c2.2-0.5,4.3-1.3,6.3-2.2
				l-0.9-5.7l4.5-3.5l5.3,2.3c1.5-1.7,2.7-3.5,3.8-5.5l-4-4.1l1.6-5.5l5.6-1.3C58.8,218.4,58.9,217.3,58.8,216.1z M38.6,226.7
				c-5.3,4.7-13.5,4.2-18.2-1.2c-4.7-5.4-4.1-13.5,1.2-18.1c5.3-4.7,13.5-4.2,18.1,1.2C44.5,213.9,43.9,222,38.6,226.7z"/>
			<path class="st13" d="M44.3,204.6c-6.9-7.8-18.8-8.6-26.6-1.8c-7.8,6.9-8.6,18.8-1.7,26.6c6.9,7.8,18.8,8.6,26.6,1.7
				C50.4,224.3,51.1,212.4,44.3,204.6z"/>
		</g>
		<g>
			<g id="XMLID_2_">
				<g id="XMLID_5_">
					<g id="XMLID_12_">
						<path class="st2" d="M442,223.3L442,223.3c0,1.3,1.1,2.4,2.4,2.4l1.1,0c1.3,0,2.4-1.1,2.4-2.4l0,0c0.1-11.7-9.4-21.3-21-21.3
							c-11.7,0-21.2,9.5-21.2,21.3l-0.1,19.5l5.8,0l0.1-19.5c0-8.5,6.9-15.4,15.4-15.4C435.2,207.9,442,214.8,442,223.3z"/>
					</g>
					<g id="XMLID_6_">
						<path id="XMLID_11_" class="st2" d="M459.7,273.9c0,1.3-1,2.3-2.3,2.3l-55.6,0c-1.3,0-2.3-1-2.3-2.3l0-36.4
							c0-1.3,1-2.3,2.3-2.3l55.6,0c1.3,0,2.3,1,2.3,2.3L459.7,273.9z"/>
					</g>
				</g>
			</g>
			<path class="st13" d="M434.6,249.5c0-2.8-2.2-5-5-5c-2.7,0-5,2.2-5,5c0,1.7,0.8,3.1,2,4l-1.6,11.3l9.1,0l-1.6-11.3
				C433.8,252.6,434.6,251.2,434.6,249.5z"/>
		</g>
		<g>
			<g id="XMLID_13_">
				<g id="XMLID_14_">
					<g id="XMLID_17_">
						<path class="st2" d="M543.9,199.2L543.9,199.2c0,2.6-2.1,4.7-4.7,4.7l-2.2,0c-2.6,0-4.7-2.1-4.7-4.7l0,0
							c-0.1-23.4,18.7-42.4,41.9-42.4c23.2,0,42.2,19,42.3,42.4l0.2,38.8l-11.6,0l-0.2-38.8c-0.1-16.9-13.8-30.7-30.6-30.7
							C557.4,168.6,543.8,182.3,543.9,199.2z"/>
					</g>
					<g id="XMLID_15_">
						<path id="XMLID_16_" class="st2" d="M508.6,299.9c0,2.5,2,4.5,4.5,4.5l110.7,0c2.5,0,4.5-2,4.5-4.5l0-72.6
							c0-2.5-2-4.5-4.5-4.5l-110.7,0c-2.5,0-4.5,2-4.5,4.5L508.6,299.9z"/>
					</g>
				</g>
			</g>
			<path class="st13" d="M558.6,251.4c0-5.5,4.4-10,9.9-10c5.5,0,9.9,4.5,9.9,10c0,3.3-1.6,6.2-4,8l3.1,22.6l-18.1,0l3.1-22.6
				C560.1,257.6,558.6,254.7,558.6,251.4z"/>
		</g>
	</g>
	<g>
		<path class="st66" d="M244.3,274.8c0.4,0.5,0.9,0.9,1.4,1.4C245.2,275.7,244.8,275.3,244.3,274.8z M245.7,276.1
			c0.2,0.2,0.5,0.4,0.7,0.6C246.2,276.6,246,276.3,245.7,276.1z"/>
		
			<linearGradient id="SVGID_5_" gradientUnits="userSpaceOnUse" x1="278.5345" y1="361.4617" x2="278.5345" y2="288.286" gradientTransform="matrix(0.8363 0.5482 -0.5482 0.8363 196.1031 -150.9065)">
			<stop  offset="0" style="stop-color:#FFFFFF"/>
			<stop  offset="1" style="stop-color:#CFCFCF"/>
		</linearGradient>
		<path class="st21" d="M280.4,258.3c0-0.3-0.1-0.6-0.1-0.9c-0.1-0.5-0.2-1-0.3-1.5c-0.3-1.4-0.8-2.9-1.4-4.2
			c-0.2-0.3-0.3-0.7-0.5-1c-0.7-1.4-1.6-2.7-2.6-3.9c-0.5-0.6-1-1.1-1.5-1.6c-1.3-1.2-2.7-2.3-4.2-3.1c-0.5-0.3-0.9-0.5-1.4-0.7
			c0,0,0,0-0.1,0c-0.7-0.3-1.5-0.6-2.2-0.9c-0.1,0-0.2-0.1-0.3-0.1c-0.4-0.1-0.8-0.2-1.2-0.3c-6.4-1.6-13.4-0.2-18.7,4.4
			c-8,6.8-9.5,18.4-4,27.1l-7.8,6.7l-0.3-0.4c-0.2-0.2-0.6-0.3-0.8,0l-0.1,0.1c-0.2,0.2-0.2,0.4-0.1,0.6l-14.3,12.4
			c-1.2,1.1-1.1,3.3,0.3,5l0.1,0.1c1.4,1.7,3.6,2.2,4.9,1.1l14.4-12.1l0-0.1c0.2,0.1,0.4,0.1,0.5-0.1l0,0c0.2-0.2,0.3-0.5,0.1-0.7
			l-0.3-0.3l8.1-6.9c7.8,6.2,19,6.3,26.8-0.3C278.7,271.8,281.1,264.9,280.4,258.3z M272,273.7c-1.3,1.2-2.7,2.1-4.3,2.9l-0.3,0.5
			l-0.3-0.2c0,0,0,0-0.1,0c-0.1,0.1-0.2,0.1-0.4,0.2c-0.1,0.1-0.2,0.1-0.3,0.1c-0.1,0-0.1,0-0.2,0.1c-0.1,0-0.2,0.1-0.3,0.1
			c-0.6,0.2-1.3,0.4-1.9,0.6c-0.1,0-0.2,0.1-0.3,0.1c-0.2,0-0.4,0.1-0.6,0.1c-0.1,0-0.3,0-0.4,0.1c-0.1,0-0.2,0-0.3,0
			c-0.1,0-0.2,0-0.3,0c0,0-0.1,0-0.1,0c-0.1,0-0.2,0-0.4,0c0,0-0.1,0-0.1,0c-0.1,0-0.2,0-0.3,0c-0.3,0-0.6,0-0.9,0
			c-4,0-8-1.3-11.2-3.8c-0.2-0.1-0.4-0.3-0.6-0.5c-1.6-1.4-3-3-4-4.8c-1.1-1.9-1.8-4-2.2-6.2c-0.5-3.1-0.2-6.3,1-9.2
			c1.5-3.9,4.5-7.3,8.2-9.2c3.5-1.8,7.5-2.5,11.3-1.8c0.4,0.1,0.9,0.2,1.3,0.3c0,0,0.1,0,0.1,0c0,0,0.1,0,0.1,0
			c0.8,0.2,1.6,0.5,2.3,0.8c0,0,0,0,0.1,0c0.5,0.2,1,0.4,1.4,0.7c1.5,0.8,3,1.8,4.2,3.1c0.8,0.7,1.5,1.6,2.1,2.4
			c0,0,0.1,0.1,0.1,0.1c0.3,0.4,0.5,0.8,0.8,1.2c0,0,0,0.1,0.1,0.1l0,0c0,0.1,0.1,0.1,0.1,0.2c0.1,0.1,0.1,0.2,0.2,0.3
			c0.1,0.2,0.2,0.4,0.3,0.6l0,0.1c0.1,0.1,0.1,0.2,0.2,0.3c0,0.1,0,0.1,0.1,0.2c0.1,0.1,0.1,0.2,0.2,0.4c0,0.1,0.1,0.2,0.1,0.4
			c0.1,0.2,0.2,0.5,0.3,0.7c0.1,0.2,0.2,0.5,0.2,0.7c0,0.1,0,0.1,0.1,0.2c0,0.1,0.1,0.2,0.1,0.3c0.1,0.4,0.2,0.9,0.3,1.3
			c0,0.2,0.1,0.4,0.1,0.6c0,0,0,0.1,0,0.1c0,0.2,0,0.4,0.1,0.5c0,0.2,0,0.4,0.1,0.7c0,0.1,0,0.2,0,0.3c0,0.1,0,0.2,0,0.3
			c0,0.1,0,0.3,0,0.4c0,0.1,0,0.2,0,0.3c0,0.1,0,0.2,0,0.3c0,0.1,0,0.3,0,0.4c0,0,0,0,0,0c0,0,0,0,0,0c0,0.1,0,0.2,0,0.3
			c0,0.1,0,0.3,0,0.5c0,0.1,0,0.3,0,0.5C277.1,266.8,275.1,270.8,272,273.7z"/>
		<path class="st68" d="M275.2,251.5c0,0,0,0.1,0.1,0.1C275.2,251.6,275.2,251.6,275.2,251.5z"/>
		
			<linearGradient id="SVGID_6_" gradientUnits="userSpaceOnUse" x1="278.7724" y1="326.5038" x2="278.7724" y2="270.2986" gradientTransform="matrix(0.8363 0.5482 -0.5482 0.8363 196.1031 -150.9065)">
			<stop  offset="0" style="stop-color:#FFFFFF"/>
			<stop  offset="1" style="stop-color:#CFCFCF"/>
		</linearGradient>
		<path style="opacity:0.56;fill:url(#SVGID_6_);" d="M267.8,246.5c0,0-0.1-0.1-0.1-0.1c0.1,0,0.2,0.1,0.2,0.2
			C267.8,246.5,267.8,246.5,267.8,246.5z M275.6,268.8c0.1-0.2,0.2-0.4,0.3-0.6c0-0.1,0.1-0.2,0.1-0.3c0.1-0.2,0.2-0.4,0.2-0.6
			c0.1-0.1,0.1-0.3,0.2-0.4c0,0,0-0.1,0-0.1c0,0,0,0,0-0.1c0-0.1,0.1-0.2,0.1-0.3c0-0.1,0.1-0.2,0.1-0.3c0-0.1,0.1-0.2,0.1-0.3
			c0,0,0,0,0,0c0-0.1,0.1-0.2,0.1-0.3c0-0.1,0.1-0.2,0.1-0.3c0-0.1,0.1-0.2,0.1-0.3c0-0.1,0.1-0.2,0.1-0.3c0-0.1,0-0.2,0.1-0.3
			c0-0.1,0-0.2,0.1-0.3c0-0.1,0-0.2,0.1-0.3c0-0.1,0-0.2,0-0.3c0-0.1,0-0.3,0.1-0.4c0-0.1,0-0.3,0.1-0.4c0,0,0,0,0,0
			c0-0.1,0-0.3,0-0.4c0-0.1,0-0.3,0-0.4c0-0.1,0-0.2,0-0.3c0,0,0,0,0,0c0-0.2,0-0.4,0-0.6c0-0.1,0-0.3,0-0.4c0-0.1,0-0.2,0-0.3
			c0-0.5,0-0.9-0.1-1.4c0-0.1,0-0.2,0-0.3c0-0.2,0-0.4-0.1-0.5c0-0.1,0-0.2,0-0.3c0-0.1,0-0.3-0.1-0.4c0-0.1,0-0.1,0-0.2
			c0-0.1,0-0.2-0.1-0.3c0-0.2-0.1-0.4-0.2-0.7c-0.1-0.4-0.2-0.8-0.4-1.2c0-0.1-0.1-0.2-0.1-0.3c0,0,0,0,0-0.1c0-0.1,0-0.1-0.1-0.2
			c0-0.1,0-0.1-0.1-0.2c0,0,0,0,0,0c0-0.1-0.1-0.2-0.1-0.4c0-0.1-0.1-0.2-0.2-0.4c0,0,0-0.1-0.1-0.1c0-0.1-0.1-0.2-0.2-0.3
			c-0.1-0.1-0.1-0.3-0.2-0.4c0-0.1-0.1-0.1-0.1-0.2c0-0.1-0.1-0.1-0.1-0.2c0-0.1-0.1-0.2-0.2-0.3c0-0.1-0.1-0.2-0.1-0.2l0,0
			c0,0,0-0.1-0.1-0.1c-0.2-0.4-0.5-0.8-0.8-1.2c0,0-0.1-0.1-0.1-0.1c-0.6-0.9-1.3-1.7-2.1-2.4c-1.2-1.2-2.7-2.2-4.2-3.1
			c-0.5-0.2-0.9-0.5-1.4-0.7c0,0,0,0-0.1,0c-0.7-0.3-1.5-0.6-2.3-0.8c0,0-0.1,0-0.1,0c0,0-0.1,0-0.1,0c-0.4-0.1-0.9-0.2-1.3-0.3
			c-3.9-0.6-7.9,0-11.3,1.8c-3.7,2-6.7,5.3-8.2,9.2c-1.1,2.9-1.5,6.1-1,9.2c0.4,2.2,1.1,4.3,2.2,6.2c1,1.8,2.4,3.5,4,4.8
			c0.2,0.2,0.4,0.3,0.6,0.5c3.2,2.5,7.2,3.8,11.2,3.8c0.3,0,0.6,0,0.9,0c0.1,0,0.2,0,0.3,0c0,0,0.1,0,0.1,0c0.1,0,0.2,0,0.4,0
			c0,0,0.1,0,0.1,0c0.1,0,0.2,0,0.3,0c0.1,0,0.2,0,0.3,0c0.1,0,0.3,0,0.4-0.1c0.2,0,0.4-0.1,0.6-0.1c0.1,0,0.2,0,0.3-0.1
			c0.7-0.2,1.3-0.3,1.9-0.6c0.1,0,0.2-0.1,0.3-0.1c0.1,0,0.1,0,0.2-0.1c0.1,0,0.2-0.1,0.3-0.1c0.1,0,0.2-0.1,0.4-0.2c0,0,0,0,0.1,0
			c0.2-0.1,0.4-0.2,0.7-0.3c1.3-0.6,2.5-1.4,3.6-2.4c0.1-0.1,0.2-0.2,0.4-0.3c0.1-0.1,0.2-0.2,0.4-0.3l0,0c0.1-0.1,0.2-0.2,0.3-0.3
			c0.1-0.1,0.2-0.2,0.4-0.4c0.1-0.2,0.3-0.3,0.4-0.5c0.1-0.1,0.1-0.2,0.2-0.2c0.1-0.1,0.2-0.2,0.3-0.3c0,0,0.1-0.1,0.1-0.1
			c0.1-0.1,0.2-0.2,0.2-0.3c0-0.1,0.1-0.1,0.1-0.2c0.1-0.1,0.2-0.2,0.2-0.3c0-0.1,0.1-0.1,0.2-0.2c0,0,0-0.1,0.1-0.1
			c0.1-0.1,0.2-0.3,0.3-0.4C275.1,269.7,275.3,269.3,275.6,268.8z M246.7,260C246.7,260.1,246.7,260.1,246.7,260
			c-0.1,0.1-0.2,0.1-0.2,0.2c-0.1,0.1-0.2,0.1-0.2,0.1c-0.1,0-0.2,0.1-0.2,0.1c0,0,0,0,0,0c0,0-0.1,0-0.1,0
			c-0.6,0.1-1.2-0.1-1.6-0.5c-0.1-0.1-0.2-0.2-0.2-0.3c-0.1-0.1-0.1-0.3-0.1-0.4c-0.1-0.6,0.1-1.2,0.5-1.6c0.2-0.2,0.5-0.3,0.7-0.4
			c0.3-0.1,0.5-0.1,0.8,0c0.3,0.1,0.6,0.3,0.8,0.5c0.1,0.1,0.2,0.3,0.3,0.5c0,0.1,0.1,0.2,0.1,0.3c0,0.1,0,0.2,0,0.3
			c0,0.2,0,0.4-0.1,0.5C247.1,259.5,247,259.8,246.7,260C246.8,260,246.8,260,246.7,260z M272.5,258.3c0-0.1-0.1-0.1-0.1-0.2
			c0,0,0-0.1,0-0.1c0,0,0-0.1,0-0.1c0,0,0-0.1,0-0.1c0-0.1,0-0.2,0-0.2c0-0.1,0-0.2,0-0.2c0,0,0-0.1,0-0.1c0-0.1,0-0.2,0-0.2
			c0-0.1,0-0.2-0.1-0.2c0-0.1-0.1-0.2-0.1-0.4c0-0.1,0-0.1-0.1-0.2c0-0.1,0-0.1,0-0.2c0-0.1,0-0.1-0.1-0.2c0,0,0-0.1,0-0.1
			c0,0,0-0.1,0-0.1c0-0.1,0-0.1-0.1-0.2c0,0,0-0.1,0-0.1c0-0.1,0-0.1-0.1-0.2c-0.1-0.2-0.2-0.5-0.3-0.7c0-0.1-0.1-0.2-0.1-0.2
			c0-0.1-0.1-0.2-0.1-0.3c0-0.1-0.1-0.1-0.1-0.2c0-0.1-0.1-0.2-0.1-0.3c-0.1-0.1-0.1-0.2-0.2-0.3c0,0,0-0.1,0-0.1c0,0,0,0,0,0
			c0,0-0.1-0.1-0.1-0.1c0-0.1-0.1-0.1-0.1-0.2c0,0,0,0,0,0c0,0,0,0,0-0.1c-0.1-0.2-0.3-0.4-0.4-0.6c0,0,0,0,0,0
			c0-0.1-0.1-0.1-0.1-0.2c0,0,0-0.1-0.1-0.1c0,0,0,0,0-0.1c0,0,0,0,0,0c0,0,0-0.1-0.1-0.1c-0.1-0.1-0.1-0.1-0.2-0.2
			c-0.1-0.1-0.1-0.2-0.2-0.2c-0.2-0.3-0.5-0.6-0.8-0.8c-0.1-0.1-0.1-0.1-0.2-0.2c0,0-0.1-0.1-0.1-0.1c0,0,0,0,0,0c0,0,0,0-0.1-0.1
			c0,0,0,0-0.1-0.1c0,0-0.1-0.1-0.1-0.1c0,0,0,0,0,0c-0.1,0-0.1-0.1-0.2-0.1c-0.1,0-0.1-0.1-0.2-0.1c-0.1-0.1-0.2-0.1-0.3-0.2
			c0,0,0,0-0.1,0c-0.1-0.1-0.2-0.1-0.3-0.2c0,0,0,0,0,0c0,0-0.1-0.1-0.1-0.1c-0.2-0.1-0.3-0.2-0.5-0.3c-0.1,0-0.1-0.1-0.2-0.1
			c-0.1-0.1-0.2-0.1-0.3-0.2c0,0,0,0-0.1,0c-0.1-0.1-0.2-0.1-0.3-0.2c0,0-0.1,0-0.1-0.1c0,0-0.1,0-0.1-0.1c-0.1,0-0.2-0.1-0.3-0.1
			c-0.1,0-0.2-0.1-0.3-0.1c-0.1-0.1-0.3-0.1-0.4-0.2c0,0,0,0,0,0c-0.1,0-0.2-0.1-0.2-0.1c-0.1,0-0.2-0.1-0.4-0.1
			c-0.2-0.1-0.4-0.1-0.5-0.2c-0.1,0-0.2-0.1-0.3-0.1c-0.1,0-0.2-0.1-0.3-0.1c-0.1,0-0.2,0-0.2-0.1c-0.1,0-0.1,0-0.2,0c0,0,0,0,0,0
			c-0.1,0-0.1,0-0.2,0c0,0-0.1,0-0.1,0c0,0-0.1,0-0.1,0c-0.1,0-0.2,0-0.3,0c-0.1,0-0.2,0-0.3,0c-0.1,0-0.2,0-0.3,0
			c-0.1,0-0.2,0-0.3,0c0,0,0,0,0,0c-0.1,0-0.1,0-0.2,0c0,0,0,0,0,0c-0.1,0-0.2,0-0.2,0c0,0-0.1,0-0.1,0c0,0,0,0,0,0c0,0-0.1,0-0.1,0
			c-0.1,0-0.1,0-0.2,0c-0.1,0-0.2,0-0.4,0c0,0,0,0-0.1,0c-0.1,0-0.3,0-0.4,0c-0.1,0-0.2,0-0.3,0c0,0,0,0-0.1,0c-0.1,0-0.1,0-0.2,0
			c0,0-0.1,0-0.1,0c-0.1,0-0.3,0-0.4,0.1c0,0,0,0,0,0c-0.1,0-0.2,0-0.4,0.1c0,0,0,0-0.1,0c-0.1,0-0.3,0.1-0.4,0.1
			c-0.1,0-0.3,0.1-0.4,0.1c-0.1,0-0.1,0-0.2,0.1c-0.1,0-0.3,0.1-0.4,0.1c-0.1,0-0.2,0.1-0.3,0.1c0,0,0,0,0,0c-0.1,0-0.1,0-0.2,0.1
			c0,0,0,0-0.1,0c0,0-0.1,0-0.1,0.1c-0.1,0-0.2,0.1-0.3,0.1c-0.1,0-0.2,0.1-0.3,0.1c-0.3,0.1-0.5,0.2-0.8,0.4c0,0,0,0,0,0
			c-0.1,0.1-0.3,0.1-0.4,0.2c-0.1,0.1-0.3,0.2-0.4,0.2c-0.1,0.1-0.2,0.1-0.3,0.2c0,0-0.1,0.1-0.1,0.1c-0.1,0.1-0.2,0.1-0.3,0.2
			c-0.1,0.1-0.3,0.2-0.4,0.3c-0.1,0.1-0.2,0.1-0.3,0.2c0,0-0.1,0.1-0.1,0.1c-0.1,0.1-0.1,0.1-0.2,0.2c0,0-0.1,0.1-0.1,0.1
			c0,0,0,0,0,0c-0.1,0-0.1,0.1-0.2,0.2c-0.1,0.1-0.2,0.2-0.3,0.3c-0.1,0.1-0.1,0.1-0.2,0.2c-0.2,0.2-0.3,0.3-0.5,0.5
			c0,0-0.1,0.1-0.1,0.1c-0.2,0.2-0.4,0.4-0.5,0.6c-0.1,0.1-0.2,0.2-0.3,0.4c-0.1,0.1-0.2,0.2-0.3,0.4c-0.5,0.7-0.9,1.5-1.2,2.3
			c0,0.1-0.1,0.2-0.1,0.3c-0.5,0.8-1.6,0.7-2.1,0.1c0,0-0.1-0.1-0.1-0.2c0-0.1-0.1-0.2-0.1-0.3c-0.1-0.2,0-0.5,0.1-0.7
			c0.6-1.6,1.5-3,2.6-4.3c0.1-0.1,0.1-0.1,0.2-0.2c0.1-0.2,0.3-0.3,0.5-0.5c0.9-0.9,1.8-1.7,2.9-2.3c0.4-0.3,0.8-0.5,1.3-0.7
			c0.3-0.2,0.6-0.3,0.9-0.4c0.5-0.2,0.9-0.4,1.4-0.5c0,0,0,0,0,0c0.3-0.1,0.6-0.2,1-0.3c0.2,0,0.3-0.1,0.5-0.1
			c0.3-0.1,0.7-0.1,1-0.2c0.2,0,0.3,0,0.5-0.1c0.5-0.1,1-0.1,1.5-0.1c0.3,0,0.7,0,1,0c0.1,0,0.2,0,0.4,0c0.1,0,0.1,0,0.2,0
			c0.1,0,0.3,0,0.4,0.1c0,0,0.1,0,0.1,0c0,0,0.1,0,0.1,0c0.1,0,0.3,0,0.4,0.1c0.1,0,0.2,0,0.2,0c0,0,0.1,0,0.1,0
			c0.1,0,0.2,0,0.3,0.1c0.2,0,0.3,0.1,0.5,0.1c0,0,0.1,0,0.1,0c0.1,0,0.2,0,0.2,0.1c0,0,0,0,0,0c0,0,0,0,0,0c0,0,0,0,0,0
			c0,0,0.1,0,0.1,0c0,0,0.1,0,0.1,0c0.1,0,0.1,0,0.2,0.1c0,0,0,0,0,0c0.1,0,0.1,0,0.2,0.1c0,0,0,0,0.1,0c0.1,0,0.1,0,0.2,0.1
			c0.2,0.1,0.4,0.2,0.6,0.2c0.1,0,0.2,0.1,0.3,0.1c0,0,0,0,0.1,0c0.2,0.1,0.3,0.1,0.5,0.2c0.1,0.1,0.3,0.1,0.4,0.2
			c0.1,0,0.2,0.1,0.3,0.1c0,0,0.1,0,0.1,0c0.1,0,0.1,0.1,0.2,0.1c0.1,0.1,0.3,0.1,0.4,0.2c0.1,0,0.1,0.1,0.2,0.1
			c0.1,0,0.2,0.1,0.2,0.2c0.1,0,0.1,0.1,0.2,0.1c0,0,0,0,0.1,0c0.1,0,0.1,0.1,0.2,0.1c0.1,0,0.1,0.1,0.2,0.1c0,0,0,0,0.1,0
			c0,0,0,0,0,0c0.1,0,0.1,0.1,0.2,0.1c0.1,0.1,0.1,0.1,0.2,0.2c0,0,0,0,0,0c0,0,0.1,0,0.1,0.1c0.3,0.2,0.5,0.5,0.8,0.7
			c0,0,0.1,0.1,0.1,0.1c0.1,0.1,0.1,0.1,0.2,0.2c0,0,0,0,0,0c0,0,0.1,0.1,0.1,0.1c0,0,0,0,0.1,0.1c0,0,0,0,0,0
			c0.1,0.1,0.2,0.2,0.3,0.3c0,0,0,0,0.1,0.1c0.1,0.1,0.2,0.2,0.2,0.3c0,0,0.1,0.1,0.1,0.1c0.1,0.1,0.2,0.2,0.3,0.3
			c0.2,0.2,0.3,0.4,0.5,0.6c0,0,0.1,0.1,0.1,0.1c0.1,0.1,0.1,0.1,0.1,0.2c0,0,0,0.1,0.1,0.1c0,0.1,0.1,0.1,0.1,0.2
			c0.1,0.1,0.2,0.3,0.3,0.4c0,0.1,0.1,0.1,0.1,0.2c0,0,0,0.1,0.1,0.1c0.1,0.2,0.2,0.3,0.3,0.5c0.1,0.1,0.1,0.2,0.2,0.3
			c0,0,0,0.1,0.1,0.1c0,0,0,0.1,0.1,0.1c0.3,0.5,0.5,1.1,0.7,1.7c0,0.1,0.1,0.2,0.1,0.3c0,0.1,0.1,0.3,0.1,0.4
			c0,0.1,0.1,0.3,0.1,0.4c0,0.1,0.1,0.3,0.1,0.5c0,0.2,0.1,0.3,0.1,0.5c0.1,0.3,0.1,0.6,0.2,0.9C275,258.7,273.1,259.3,272.5,258.3z
			 M267.8,246.5c0,0-0.1-0.1-0.1-0.1c0.1,0,0.2,0.1,0.2,0.2C267.8,246.5,267.8,246.5,267.8,246.5z"/>
		<path class="st70" d="M260.6,244.1c-6.6-0.4-12.7,3.5-15.2,9.7c-0.6,1.5,1.8,2.3,2.4,0.8c2.1-5.4,7.7-8.7,13.4-7.9
			c5.7,0.8,10.2,5.4,11,11.1c0.2,1.6,2.7,1.2,2.5-0.4c-0.1-0.6-0.2-1.2-0.4-1.8C272.6,249.2,267.1,244.5,260.6,244.1z"/>
		<path class="st71" d="M244.5,257.6c-0.7,0.6-0.8,1.6-0.2,2.3c0.6,0.7,1.7,0.8,2.3,0.2c0.7-0.6,0.8-1.6,0.2-2.3
			C246.2,257.1,245.2,257,244.5,257.6z"/>
		<path class="st13" d="M244.5,257.6c-0.7,0.6-0.8,1.6-0.2,2.3c0.6,0.7,1.7,0.8,2.3,0.2c0.7-0.6,0.8-1.6,0.2-2.3
			C246.2,257.1,245.2,257,244.5,257.6z"/>
		<path class="st72" d="M267.7,276.6l-0.3,0.5l-0.3-0.2c0,0,0,0,0,0c0.1,0,0.2-0.1,0.3-0.2C267.5,276.7,267.6,276.6,267.7,276.6z"/>
		<path class="st73" d="M275.3,251.6c0,0.1,0.1,0.2,0.1,0.2C275.3,251.8,275.3,251.7,275.3,251.6z"/>
		<path class="st74" d="M267.7,276.6c-0.1,0.1-0.2,0.1-0.3,0.2c-0.1,0.1-0.2,0.1-0.3,0.2c0,0,0,0,0,0l0,0
			C267.3,276.8,267.5,276.7,267.7,276.6z"/>
	</g>
	<g>
		<g>
			<g>
				<g>
					<g>
						<g id="XMLID_100_">
							<path id="XMLID_101_" class="st75" d="M502.9,255.9l2.3,16.6c0.7,7.4,2.8,14.7,3.6,22.1c0.2,1.7,0,3.6,0.6,5.2
								c0.6,1.6,2,1.7,3.2,0.7c1.7-1.4,1-3.9,1.1-5.9c0.4-13,1.9-25.7,2.7-38.6c0-0.2,0-0.4-0.1-0.5c-0.1-0.1-0.3-0.1-0.4-0.1
								C514.7,255.5,503,256.3,502.9,255.9z"/>
						</g>
						<path class="st76" d="M513.8,297.6l0.7,1.3c0.4,0.8,0.3,1.7-0.2,2.4l-3,3.8c-0.3,0.4-0.7,0.7-1.2,0.8l-2.7,0.6
							c-0.8,0.2-1.6-0.1-2.1-0.7l0,0c-0.7-0.8-0.7-1.9-0.2-2.7l3.9-5.6H513.8z"/>
					</g>
					<path class="st8" d="M500.6,250.2c-1.1-11-1.4-21.8,0.5-33.2c0.3-1.5,0.6-3.1,1.4-4.4c2.2-3.6,7.2-4,11.4-3.6
						c3.8,0.4,7.6,1.3,11.2,2.5c6.4,2.2,4.2,11.1,4.3,16.6l-9.7,24.5l-5.8,44.9H509c-1.4-10.3-5.1-21.8-6.5-32.1
						C501.8,260.3,501.1,255.3,500.6,250.2z"/>
				</g>
				<g>
					<g>
						<g id="XMLID_102_">
							<path id="XMLID_103_" class="st75" d="M530.8,259.7l8.2,14.6c3.4,6.6,8,12.7,11.4,19.3c0.8,1.5,1.3,3.3,2.5,4.6
								c1.2,1.3,2.5,0.9,3.3-0.5c1.1-1.9-0.5-4-1.1-5.9c-4.4-12.2-7.5-24.6-11.5-37c-0.1-0.2-0.1-0.3-0.3-0.4c-0.1,0-0.3,0-0.4,0.1
								C541.7,255.1,531,260,530.8,259.7z"/>
						</g>
						<path class="st76" d="M556.1,294.5l1,0.9c0.7,0.6,1,1.6,0.8,2.5l-1.4,4.5c-0.1,0.5-0.4,0.9-0.8,1.2l-2.3,1.6
							c-0.6,0.4-1.5,0.5-2.2,0.1l0,0c-0.9-0.5-1.4-1.5-1.1-2.5l1.7-6.4L556.1,294.5z"/>
					</g>
					<g>
						<path class="st9" d="M513.8,220.5c0,0,1.2-4.7,1.9-8.3c0.1-0.5,0.2-1.1,0.6-1.5c0.3-0.4,0.8-0.6,1.3-0.7
							c6.8-2.5,13.9-4.1,21.2-4.8c0.5-0.1,1.1-0.1,1.6,0.2c0.6,0.4,3.2,1.3,3.4,2c1,4,0.9,26.1,0.7,38.6c-0.1,5.8,0.7,11.5,2.3,17
							l9.4,31.6l-4.4,2c-3.3-6-14.9-19.3-20.9-27.9C527.2,263.4,513.8,220.5,513.8,220.5z"/>
					</g>
				</g>
				<path class="st6" d="M544.1,180.1c0-0.1,0-0.2,0-0.3c-1-6.1,0-12.2-1-18.3c-0.9-5.4-3.1-8.2-7.7-10.7c-4.4-2.3-9.4-3.4-14.3-3
					c-4.9,0.4-10.1,1.3-14,4.5c-1.7,1.4-2.7,3-3.7,4.9c-4.2,8.1-3.4,17.6-3.1,26.5c0.3,9-2.6,18.9-5.1,27.6
					c13.9,6.6,29.6,8.6,44.5,5.6c0.8-0.2,1.8-0.4,2.2-1.2c0.3-0.5,0.4-1.2,0.4-1.8c0.3-4.8,0.7-9.6,1-14.3
					C543.7,193.1,544.6,186.4,544.1,180.1z"/>
				<g>
					<g>
						<path class="st12" d="M515.2,128.9c-1,1.7-1.4,3.6-1.5,5.5c0,0.5-0.1,1.1-0.5,1.4c-0.4,0.3-0.1,1-0.4,0.6
							c-0.3-0.4-1.5-1.9-1.5-2.5c-0.1-1.3-0.1-2.6,0-3.8c0.1-1.1,0.3-2.3,1.1-3.1c0.4-0.5,1-0.9,1.6-1.2c0.8-0.5,1.7-1,2.6-1.2
							c1.6-0.3,2.6,0.3,1.2,1.4C516.7,126.9,515.9,127.8,515.2,128.9z"/>
						<g>
							<path class="st3" d="M518.4,150.7c0,0.8-0.2,1.6,0.5,2.2c0.3,0.3,0.8,0.4,1.2,0.5c1.1,0.2,2.3,0.1,3.4-0.2
								c0.5-0.1,0.9-0.3,1.2-0.7c0.4-0.4,0.4-0.8,0.4-1.3c0-0.6,0.1-1.2,0.2-1.8c0.2-1.3,0.2-2.6,0.3-4c1.9-0.3,4.2-1,4.9-3
								c0.2-0.6,0.2-1.3,0.2-2c0-2.8,0-5.7,0.1-8.5c0-1,0-2-0.3-2.9c-0.6-1.6-2.1-2.5-3.5-3.1c-3.7-1.5-8.1-1.5-11.5,0.7
								c-0.9,0.6-1.8,1.3-2.3,2.3c-0.8,1.6-0.7,3.5-0.6,5.3c0.1,1.7,0.2,3.3,0.4,5c0.1,1.9,0.4,4.1,1.9,5.1c0.8,0.5,1.8,0.6,2.5,1.3
								c1.2,1.2,0.6,3,1,4.5C518.4,150.3,518.4,150.5,518.4,150.7z"/>
						</g>
						<path class="st12" d="M531,139.7c0-0.5-0.2-2.1-1-1.1c-0.2,0.2-0.3,0.6-0.3,0.9c0,0.3,0,0.7-0.1,1c-0.3,0.7-1,1-1.7,1
							c-0.3,0-0.5-0.1-0.8-0.2c-0.2-0.1-0.4-0.4-0.6-0.6c-0.4-0.5-0.8-1.1-1.3-1.6c-0.7-0.9-2.2-0.6-3.2-0.5
							c-1.2,0.1-2.3,0.5-3.3,1.2c-0.1,0.1-0.2,0.2-0.3,0.2c-0.2,0.2-0.5,0.4-0.7,0.5c-0.9,0.4-2-0.1-2.6-1c-0.3-0.4-0.5-0.9-1-1
							c-0.3-0.1-0.7,0.2-0.9,0.5c-0.2,0.3-0.3,0.8-0.3,1.2c-0.1,1.5,0,3,0.6,4.3c1.2,2.9,3.7,3.3,6.2,3.3c1,0,2,0,3,0
							c1.8,0,3.8,0,5.3-1.1c1.4-0.9,2.2-2.6,2.6-4.3C530.9,141.5,531,140.6,531,139.7z M524.2,143.4c-1,0.7-2,0.7-3.1,0.3
							c-0.5-0.2-0.2-1,0.2-0.8c0.9,0.3,1.7,0.3,2.5-0.2C524.3,142.4,524.6,143.1,524.2,143.4z"/>
						<path class="st12" d="M511.7,124c-0.2-0.7-0.3-1.4-0.4-2.1c0.7,0.2,1.4,0.3,2,0.2c0-0.4,0-0.8,0-1.2c0-0.3,4.6-0.6,5-0.6
							c3.5-0.3,6.7-0.6,9.8,1.3c2.7,1.6,4.4,4,4.8,7.1c0.4,3-0.2,6.3-2,8.8c0-0.8,0-2.1-0.1-2.9c-0.1-0.8-0.4-1.5-0.7-2.1
							c-0.7-1.3-1.8-2.5-3.1-3.3c-2-1.3-4.4-2-6.8-2.3c-2.2-0.3-4.8-0.6-7,0c-1,0.3-1.2,0.5-1.8-0.5c-0.1-0.2-1-2.3-0.9-2.3
							C510.9,124,511.3,124,511.7,124z"/>
					</g>
				</g>
			</g>
		</g>
		<g>
			<g>
				<g>
					<g>
						<path class="st11" d="M566.4,215.5h-94.4v-57.6c0-3,2.4-5.5,5.5-5.5h83.5c3,0,5.5,2.4,5.5,5.5V215.5z"/>
					</g>
					<rect x="475.7" y="156.8" class="st9" width="86.9" height="55.2"/>
				</g>
			</g>
			<g>
				<g>
					<path class="st77" d="M572,220.5c-0.1,0.1-0.2,0.2-0.2,0.3c0,0,0,0,0,0c-0.7,1-1.8,1.8-2.9,2.3c-0.8,0.3-1.6,0.5-2.5,0.5h0
						l-3.3,0l-3.4,0l-0.5,0l-1.7,0l-5,0l-10.1,0l-14.6,0h0l-14.7,0l-15.8,0l-25.3-0.1c-2,0-3.8-0.9-5-2.4c-0.2-0.3-0.4-0.5-0.6-0.8
						l31.4,0.1l15.3,0l15.2,0l13.9,0l9.5,0l4.8,0l1.7,0h0.4l3.4,0l5.7,0L572,220.5z"/>
					<path class="st11" d="M570.2,221h-102c-1.1,0-2-0.9-2-2v-1.7c0-1.1,0.9-2,2-2h102c1.1,0,2,0.9,2,2v1.7
						C572.1,220.2,571.3,221,570.2,221z"/>
				</g>
				<path class="st78" d="M527.1,219h-15.8c-0.5,0-0.8-0.4-0.8-0.8v-0.4c0-0.5,0.4-0.8,0.8-0.8h15.8c0.5,0,0.8,0.4,0.8,0.8v0.4
					C527.9,218.7,527.5,219,527.1,219z"/>
			</g>
		</g>
		<g>
			<rect x="475.7" y="175.6" class="st13" width="86.9" height="25.4"/>
			<g>
				<linearGradient id="SVGID_7_" gradientUnits="userSpaceOnUse" x1="496.7911" y1="188.3281" x2="507.6499" y2="188.3281">
					<stop  offset="1.376186e-03" style="stop-color:#F8C547"/>
					<stop  offset="1" style="stop-color:#F71D69"/>
				</linearGradient>
				<path class="st23" d="M507.5,185.4L507.5,185.4c0.4,0.7,0.1,1.5-0.7,1.8l-3,1.1l3,1.1c0.7,0.3,1,1.1,0.7,1.8l0,0.1
					c-0.4,0.7-1.3,0.9-1.9,0.4l-2.5-2l0.5,3.2c0.1,0.8-0.5,1.5-1.2,1.5h-0.1c-0.8,0-1.4-0.7-1.3-1.4l0.4-3.2l-2.5,2
					c-0.6,0.5-1.5,0.3-1.9-0.4l-0.1-0.1c-0.4-0.7-0.1-1.5,0.7-1.8l3-1.1l-2.9-1.1c-0.7-0.3-1-1.1-0.7-1.8l0,0
					c0.4-0.7,1.3-0.9,1.9-0.4l2.6,2l-0.5-3.2c-0.1-0.8,0.5-1.4,1.3-1.4h0.1c0.8,0,1.4,0.7,1.2,1.5l-0.5,3.2l2.5-2
					C506.2,184.6,507.1,184.7,507.5,185.4z"/>
			</g>
			<g>
				<linearGradient id="SVGID_8_" gradientUnits="userSpaceOnUse" x1="514.303" y1="188.3281" x2="525.1617" y2="188.3281">
					<stop  offset="1.376186e-03" style="stop-color:#F8C547"/>
					<stop  offset="1" style="stop-color:#F71D69"/>
				</linearGradient>
				<path class="st24" d="M525,185.4L525,185.4c0.4,0.7,0.1,1.5-0.7,1.8l-3,1.1l3,1.1c0.7,0.3,1,1.1,0.7,1.8l0,0.1
					c-0.4,0.7-1.3,0.9-1.9,0.4l-2.5-2l0.5,3.2c0.1,0.8-0.5,1.5-1.2,1.5h-0.1c-0.8,0-1.4-0.7-1.3-1.4l0.4-3.2l-2.5,2
					c-0.6,0.5-1.5,0.3-1.9-0.4l-0.1-0.1c-0.4-0.7-0.1-1.5,0.7-1.8l3-1.1l-2.9-1.1c-0.7-0.3-1-1.1-0.7-1.8l0,0
					c0.4-0.7,1.3-0.9,1.9-0.4l2.6,2l-0.5-3.2c-0.1-0.8,0.5-1.4,1.3-1.4h0.1c0.8,0,1.4,0.7,1.2,1.5l-0.5,3.2l2.5-2
					C523.7,184.6,524.6,184.7,525,185.4z"/>
			</g>
			<g>
				<linearGradient id="SVGID_9_" gradientUnits="userSpaceOnUse" x1="531.8148" y1="188.3281" x2="542.6736" y2="188.3281">
					<stop  offset="1.376186e-03" style="stop-color:#F8C547"/>
					<stop  offset="1" style="stop-color:#F71D69"/>
				</linearGradient>
				<path class="st25" d="M542.5,185.4L542.5,185.4c0.4,0.7,0.1,1.5-0.7,1.8l-3,1.1l3,1.1c0.7,0.3,1,1.1,0.7,1.8l0,0.1
					c-0.4,0.7-1.3,0.9-1.9,0.4l-2.5-2l0.5,3.2c0.1,0.8-0.5,1.5-1.2,1.5h-0.1c-0.8,0-1.4-0.7-1.3-1.4l0.4-3.2l-2.5,2
					c-0.6,0.5-1.5,0.3-1.9-0.4l-0.1-0.1c-0.4-0.7-0.1-1.5,0.7-1.8l3-1.1l-2.9-1.1c-0.7-0.3-1-1.1-0.7-1.8l0,0
					c0.4-0.7,1.3-0.9,1.9-0.4l2.6,2l-0.5-3.2c-0.1-0.8,0.5-1.4,1.3-1.4h0.1c0.8,0,1.4,0.7,1.2,1.5l-0.5,3.2l2.5-2
					C541.2,184.6,542.1,184.7,542.5,185.4z"/>
			</g>
			<g>
				<linearGradient id="SVGID_10_" gradientUnits="userSpaceOnUse" x1="549.3266" y1="188.3281" x2="560.1854" y2="188.3281">
					<stop  offset="1.376186e-03" style="stop-color:#F8C547"/>
					<stop  offset="1" style="stop-color:#F71D69"/>
				</linearGradient>
				<path class="st27" d="M560,185.4L560,185.4c0.4,0.7,0.1,1.5-0.7,1.8l-3,1.1l3,1.1c0.7,0.3,1,1.1,0.7,1.8l0,0.1
					c-0.4,0.7-1.3,0.9-1.9,0.4l-2.5-2l0.5,3.2c0.1,0.8-0.5,1.5-1.2,1.5h-0.1c-0.8,0-1.4-0.7-1.3-1.4l0.4-3.2l-2.5,2
					c-0.6,0.5-1.5,0.3-1.9-0.4l-0.1-0.1c-0.4-0.7-0.1-1.5,0.7-1.8l3-1.1l-2.9-1.1c-0.7-0.3-1-1.1-0.7-1.8l0,0
					c0.4-0.7,1.3-0.9,1.9-0.4l2.6,2l-0.5-3.2c-0.1-0.8,0.5-1.4,1.3-1.4h0.1c0.8,0,1.4,0.7,1.2,1.5l-0.5,3.2l2.5-2
					C558.8,184.6,559.6,184.7,560,185.4z"/>
			</g>
			<linearGradient id="SVGID_11_" gradientUnits="userSpaceOnUse" x1="479.3618" y1="188.3281" x2="490.2207" y2="188.3281">
				<stop  offset="1.376186e-03" style="stop-color:#F8C547"/>
				<stop  offset="1" style="stop-color:#F71D69"/>
			</linearGradient>
			<path class="st28" d="M490.1,185.4L490.1,185.4c0.4,0.7,0.1,1.5-0.7,1.8l-3,1.1l3,1.1c0.7,0.3,1,1.1,0.7,1.8l0,0.1
				c-0.4,0.7-1.3,0.9-1.9,0.4l-2.5-2l0.5,3.2c0.1,0.8-0.5,1.5-1.2,1.5h-0.1c-0.8,0-1.4-0.7-1.3-1.4l0.4-3.2l-2.5,2
				c-0.6,0.5-1.5,0.3-1.9-0.4l-0.1-0.1c-0.4-0.7-0.1-1.5,0.7-1.8l3-1.1l-2.9-1.1c-0.7-0.3-1-1.1-0.7-1.8l0,0
				c0.4-0.7,1.3-0.9,1.9-0.4l2.6,2l-0.5-3.2c-0.1-0.8,0.5-1.4,1.3-1.4h0.1c0.8,0,1.4,0.7,1.2,1.5l-0.5,3.2l2.5-2
				C488.8,184.6,489.7,184.7,490.1,185.4z"/>
		</g>
		<g>
			<path class="st3" d="M473.1,181.7c0.2-0.1,0.4-0.2,0.6-0.2c0.3,0,0.5,0.4,0.6,0.6c0.3,1.1-0.1,2.4-1.1,3c1.2,0.8,3.3-0.7,4.2,0.5
				c0.2,0.3,0.3,0.8,0.3,1.2c0,1.7,0.1,3.3,0,5c0,0.5,0,1-0.4,1.4c-0.3,0.4-0.9,0.4-1.4,0.5c-0.7,0-1.4,0.1-2.2,0.1
				c-1.2,0.1-2.5,0.1-3.4-0.7c-0.7-0.7-0.9-1.8-1-2.8c-0.1-1.6-0.2-3.2-0.2-4.8C469.1,183.1,471.2,182.8,473.1,181.7z"/>
			<path class="st4" d="M467.9,184.2c-0.3,2.1-0.6,4.2-0.8,6.3c-0.2,1.2-0.3,2.3,0,3.5c0.4,1.4,1.7,2.6,3.1,2.9
				c0.9,0.2,2.1-0.2,2.2-1.1c0-0.4-0.2-0.7-0.4-1c-2.5-4.5-1.3-9.2-1.4-14C468.6,180.6,468.1,182.6,467.9,184.2z"/>
		</g>
		<g>
			<path class="st3" d="M564.6,181.7c-0.2-0.1-0.4-0.2-0.6-0.2c-0.3,0-0.5,0.4-0.6,0.6c-0.3,1.1,0.1,2.4,1.1,3
				c-1.2,0.8-3.3-0.7-4.2,0.5c-0.2,0.3-0.3,0.8-0.3,1.2c0,1.7-0.1,3.3,0,5c0,0.5,0,1,0.4,1.4c0.3,0.4,0.9,0.4,1.4,0.5
				c0.7,0,1.4,0.1,2.2,0.1c1.2,0.1,2.5,0.1,3.4-0.7c0.7-0.7,0.9-1.8,1-2.8c0.1-1.6,0.2-3.2,0.2-4.8
				C568.6,183.1,566.5,182.8,564.6,181.7z"/>
			<path class="st4" d="M569.8,184.2c0.3,2.1,0.6,4.2,0.8,6.3c0.2,1.2,0.3,2.3,0,3.5c-0.4,1.4-1.7,2.6-3.1,2.9
				c-0.9,0.2-2.1-0.2-2.2-1.1c0-0.4,0.2-0.7,0.4-1c2.5-4.5,1.3-9.2,1.4-14C569.1,180.6,569.6,182.6,569.8,184.2z"/>
		</g>
	</g>
	<g>
		<linearGradient id="SVGID_12_" gradientUnits="userSpaceOnUse" x1="695.3463" y1="250.4651" x2="695.3463" y2="185.9166">
			<stop  offset="0" style="stop-color:#FFFFFF"/>
			<stop  offset="1" style="stop-color:#CFCFCF"/>
		</linearGradient>
		<path class="st30" d="M717.6,207.4L717.6,207.4c1.6,2.9,0.3,6.5-2.8,7.6l-12.7,4.7l12.7,4.6c3.1,1.1,4.4,4.7,2.8,7.6l-0.1,0.2
			c-1.6,2.9-5.4,3.6-8,1.6l-10.5-8.4l2.1,13.6c0.5,3.2-2,6.1-5.3,6.1h-0.3c-3.2,0-5.7-2.9-5.3-6.1l1.9-13.7l-10.7,8.6
			c-2.6,2.1-6.4,1.3-8-1.5l-0.3-0.6c-1.6-2.9-0.3-6.5,2.8-7.6l12.6-4.7L676,215c-3.1-1.1-4.4-4.7-2.8-7.6l0.1-0.1
			c1.6-2.9,5.3-3.6,7.9-1.6l10.9,8.4l-2-13.7c-0.5-3.2,2-6.1,5.3-6.1h0.4c3.3,0,5.8,2.9,5.3,6.1l-2.1,13.6l10.7-8.3
			C712.2,203.9,716,204.6,717.6,207.4z"/>
	</g>
	<g class="st0">
		<linearGradient id="SVGID_13_" gradientUnits="userSpaceOnUse" x1="699.5289" y1="328.384" x2="699.5289" y2="-48.7486">
			<stop  offset="0" style="stop-color:#FFFFFF"/>
			<stop  offset="1" style="stop-color:#CFCFCF"/>
		</linearGradient>
		<path style="display:inline;fill:url(#SVGID_13_);" d="M737.7,187.3c-0.9-1.5-2-2.9-3-4.2l-8.5,3.3l-6.9-5.7l1.6-8.9
			c-3.1-1.7-6.4-3-9.7-3.9l-4.9,7.7l-9-0.6l-3.9-8.2c-3.3,0.5-6.6,1.3-9.8,2.5l0.5,9.1l-7.6,4.8l-8-4.4c-2.6,2.4-4.8,5.1-6.7,8
			l5.7,7.1l-3.4,8.4l-9,1.2c-0.6,3.4-0.9,6.9-0.7,10.4l8.8,2.3l2.2,8.7l-6.6,6.2c0.8,1.6,1.6,3.2,2.6,4.8c0.9,1.4,1.9,2.8,2.9,4.1
			l8.5-3.3l6.9,5.8l-1.7,8.9c3.1,1.7,6.4,3,9.8,3.9l4.9-7.6l9,0.6l3.9,8.2c3.4-0.5,6.8-1.3,10.2-2.6l-0.5-9.1l7.6-4.8l8,4.4
			c2.6-2.5,4.8-5.2,6.7-8.1l-5.8-7l3.3-8.4l9-1.2c0.6-3.4,0.9-6.9,0.7-10.5l-8.8-2.3l-2.3-8.7l6.6-6.3
			C739.5,190.3,738.7,188.8,737.7,187.3z M718.8,217.9c-3.5,10.6-14.9,16.5-25.6,13c-10.7-3.5-16.5-14.9-13-25.6
			c3.4-10.7,14.9-16.5,25.5-13.1C716.5,195.8,722.3,207.2,718.8,217.9z"/>
		<linearGradient id="SVGID_14_" gradientUnits="userSpaceOnUse" x1="259.1175" y1="328.384" x2="259.1175" y2="-48.7486">
			<stop  offset="0" style="stop-color:#FFFFFF"/>
			<stop  offset="1" style="stop-color:#CFCFCF"/>
		</linearGradient>
		<path style="display:inline;fill:url(#SVGID_14_);" d="M259.7,247.4l-0.7-1.9c-0.7,0-1.4,0-2.1,0.1c-0.7,0.1-1.4,0.2-2,0.3l-0.3,2
			c-0.3,2.3-3,3.3-4.8,1.8l-1.5-1.3c-1.2,0.7-2.3,1.5-3.3,2.4l0.7,1.9c0.8,2.1-1,4.3-3.2,3.9l-2-0.4c-0.7,1.2-1.3,2.5-1.7,3.8
			l1.6,1.3c1.8,1.4,1.3,4.3-0.8,5l-1.9,0.7c0,0.7,0,1.4,0.1,2.1c0.1,0.7,0.2,1.4,0.3,2l2,0.3c2.3,0.3,3.3,3,1.8,4.8l-1.3,1.5
			c0.7,1.2,1.5,2.3,2.4,3.3l1.9-0.7c2.1-0.8,4.3,1,3.9,3.2l-0.4,2c1.2,0.7,2.5,1.3,3.8,1.7l1.3-1.6c1.4-1.8,4.3-1.3,5,0.8l0.7,1.9
			c0.7,0,1.4,0,2.1-0.1c0.7-0.1,1.4-0.2,2-0.3l0.3-2c0.3-2.3,3-3.3,4.8-1.8l1.5,1.3c1.2-0.7,2.3-1.5,3.3-2.4l-0.7-1.9
			c-0.8-2.1,1-4.3,3.2-3.9l2,0.4c0.7-1.2,1.3-2.5,1.7-3.8l-1.6-1.3c-1.8-1.4-1.3-4.3,0.8-5l1.9-0.7c0-0.7,0-1.4-0.1-2.1
			c-0.1-0.7-0.2-1.4-0.3-2l-2-0.3c-2.3-0.3-3.3-3-1.8-4.8l1.3-1.5c-0.7-1.2-1.5-2.3-2.4-3.3l-1.9,0.7c-2.1,0.8-4.3-1-3.9-3.2l0.4-2
			c-1.2-0.7-2.5-1.3-3.8-1.7l-1.3,1.6C263.4,250,260.5,249.5,259.7,247.4z M267.8,266c0.5,4.8-3,9.1-7.9,9.6c-4.8,0.5-9.1-3-9.6-7.9
			s3-9.1,7.9-9.6C263.1,257.7,267.4,261.2,267.8,266z"/>
		<linearGradient id="SVGID_15_" gradientUnits="userSpaceOnUse" x1="753.1309" y1="58.884" x2="753.1309" y2="-2.4807">
			<stop  offset="0" style="stop-color:#FFFFFF"/>
			<stop  offset="0.8744" style="stop-color:#D5D5D5"/>
			<stop  offset="1" style="stop-color:#CFCFCF"/>
		</linearGradient>
		<path style="display:inline;fill:url(#SVGID_15_);" d="M755.5,22.3l-0.3-1.5c-0.5-0.1-1-0.1-1.6-0.1c-0.5,0-1,0-1.6,0l-0.4,1.5
			c-0.5,1.7-2.6,2.2-3.8,0.9l-1-1.1c-1,0.4-1.9,0.9-2.7,1.5l0.4,1.5c0.4,1.7-1.2,3.2-2.8,2.6l-1.5-0.5c-0.6,0.8-1.2,1.7-1.6,2.7
			l1.1,1.1c1.2,1.2,0.6,3.3-1.1,3.7l-1.5,0.3c-0.1,0.5-0.1,1-0.1,1.6s0,1,0,1.6l1.5,0.4c1.7,0.5,2.2,2.6,0.9,3.8l-1.1,1
			c0.4,1,0.9,1.9,1.5,2.7l1.5-0.4c1.7-0.4,3.2,1.2,2.6,2.8l-0.5,1.5c0.8,0.6,1.7,1.2,2.7,1.6l1.1-1.1c1.2-1.2,3.3-0.6,3.7,1.1
			l0.3,1.5c0.5,0.1,1,0.1,1.6,0.1c0.5,0,1,0,1.6,0l0.4-1.5c0.5-1.7,2.6-2.2,3.8-0.9l1,1.1c1-0.4,1.9-0.9,2.7-1.5l-0.4-1.5
			c-0.4-1.7,1.2-3.2,2.8-2.6l1.5,0.5c0.6-0.8,1.2-1.7,1.6-2.7l-1.1-1.1c-1.2-1.2-0.6-3.3,1.1-3.7l1.5-0.3c0.1-0.5,0.1-1,0.1-1.6
			c0-0.5,0-1,0-1.6l-1.5-0.4c-1.7-0.5-2.2-2.6-0.9-3.8l1.1-1c-0.4-1-0.9-1.9-1.5-2.7l-1.5,0.4c-1.7,0.4-3.2-1.2-2.6-2.8l0.5-1.5
			c-0.8-0.6-1.7-1.2-2.7-1.6l-1.1,1.1C758,24.6,755.9,24,755.5,22.3z M759.8,37.1c-0.1,3.7-3.2,6.5-6.8,6.4
			c-3.7-0.1-6.5-3.2-6.4-6.8c0.1-3.7,3.2-6.5,6.8-6.4C757,30.3,759.9,33.4,759.8,37.1z"/>
		<linearGradient id="SVGID_16_" gradientUnits="userSpaceOnUse" x1="30.1187" y1="328.384" x2="30.1187" y2="-48.7486">
			<stop  offset="0" style="stop-color:#FFFFFF"/>
			<stop  offset="1" style="stop-color:#CFCFCF"/>
		</linearGradient>
		<path style="display:inline;fill:url(#SVGID_16_);" d="M34.5,188.4l-0.6-2.8c-1-0.1-1.9-0.2-2.9-0.2c-1,0-1.9,0-2.9,0l-0.8,2.7
			c-0.9,3.1-4.8,4-7,1.6l-1.9-2.1c-1.8,0.7-3.5,1.7-5.1,2.8l0.7,2.7c0.8,3.1-2.2,5.9-5.2,4.9l-2.7-0.9c-1.2,1.5-2.2,3.2-3.1,4.9l2,2
			c2.2,2.3,1.1,6.2-2.1,6.9l-2.8,0.6c-0.1,1-0.2,1.9-0.2,2.9c0,1,0,1.9,0,2.9l2.7,0.8c3.1,0.9,4,4.8,1.6,7l-2.1,1.9
			c0.7,1.8,1.7,3.5,2.8,5.1l2.7-0.7c3.1-0.8,5.9,2.2,4.9,5.2l-0.9,2.7c1.5,1.2,3.2,2.2,4.9,3.1l2-2c2.3-2.2,6.2-1.1,6.9,2.1l0.6,2.8
			c1,0.1,1.9,0.2,2.9,0.2c1,0,1.9,0,2.9,0l0.8-2.7c0.9-3.1,4.8-4,7-1.6l1.9,2.1c1.8-0.7,3.5-1.7,5.1-2.8l-0.7-2.7
			c-0.8-3.1,2.2-5.9,5.2-4.9l2.7,0.9c1.2-1.5,2.2-3.2,3.1-4.9l-2-2c-2.2-2.3-1.1-6.2,2.1-6.9l2.8-0.6c0.1-1,0.2-1.9,0.2-2.9
			c0-1,0-1.9,0-2.9l-2.7-0.8c-3.1-0.9-4-4.8-1.6-7l2.1-1.9c-0.7-1.8-1.7-3.5-2.8-5.1l-2.7,0.7c-3.1,0.8-5.9-2.2-4.9-5.2l0.9-2.7
			c-1.5-1.2-3.2-2.2-4.9-3.1l-2,2C39.1,192.7,35.2,191.6,34.5,188.4z M42.4,215.9c-0.2,6.8-5.9,12.2-12.7,11.9
			c-6.8-0.2-12.2-5.9-11.9-12.7c0.2-6.8,5.9-12.2,12.7-11.9C37.3,203.4,42.7,209.1,42.4,215.9z"/>
		<linearGradient id="SVGID_17_" gradientUnits="userSpaceOnUse" x1="366.0019" y1="94.384" x2="366.0019" y2="-63.7374">
			<stop  offset="0" style="stop-color:#FFFFFF"/>
			<stop  offset="1" style="stop-color:#CFCFCF"/>
		</linearGradient>
		<path style="display:inline;fill:url(#SVGID_17_);" d="M393.9,28.7l2.6-1.2c-0.2-2-0.5-3.9-1.1-5.8l-2.9-0.2
			c-3.3-0.2-5-3.9-3.1-6.6l1.7-2.3c-1.1-1.6-2.4-3.1-3.8-4.5l-2.6,1.3c-2.9,1.5-6.3-0.9-6-4.1l0.3-2.9c-0.9-0.4-1.8-0.8-2.7-1.1
			s-1.9-0.6-2.8-0.9l-1.6,2.4c-1.8,2.7-5.9,2.4-7.3-0.6l-1.2-2.6c-2,0.2-3.9,0.5-5.8,1.1l-0.2,2.9c-0.2,3.3-3.9,5-6.6,3.1L348.5,5
			c-1.6,1.1-3.1,2.4-4.5,3.8l1.3,2.6c1.5,2.9-0.9,6.3-4.1,6l-2.9-0.3c-0.4,0.9-0.8,1.8-1.1,2.7c-0.3,0.9-0.6,1.9-0.9,2.8l2.4,1.6
			c2.7,1.8,2.4,5.9-0.6,7.3l-2.6,1.2c0.2,2,0.5,3.9,1.1,5.8l2.9,0.2c3.3,0.2,5,3.9,3.1,6.6l-1.7,2.3c1.1,1.6,2.4,3.1,3.8,4.5
			l2.6-1.3c2.9-1.5,6.3,0.9,6,4.1l-0.3,2.9c0.9,0.4,1.8,0.8,2.7,1.1c0.9,0.3,1.9,0.6,2.8,0.9l1.6-2.4c1.8-2.7,5.9-2.4,7.3,0.6
			l1.2,2.6c2-0.2,3.9-0.5,5.8-1.1l0.2-2.9c0.2-3.3,3.9-5,6.6-3.1l2.3,1.7c1.6-1.1,3.1-2.4,4.5-3.8l-1.3-2.6c-1.5-2.9,0.9-6.3,4.1-6
			l2.9,0.3c0.4-0.9,0.8-1.8,1.1-2.7c0.3-0.9,0.6-1.9,0.9-2.8l-2.4-1.6C390.6,34.1,390.9,30,393.9,28.7z M372.2,17.7
			c0.4-1.1,1.7-1.5,2.6-0.9c3.7,2.5,6.2,6.4,6.9,10.7l-12.3,0.3c-0.1-0.1-0.2-0.3-0.3-0.4c-0.1-0.1-0.2-0.2-0.3-0.3L372.2,17.7z
			 M357,17c3-2.1,6.8-3.1,10.5-2.7c1.1,0.1,1.8,1.2,1.5,2.3l-3.4,9.5c-0.4,0-0.8,0.1-1.1,0.3l-7.7-6.6C356,19,356.1,17.7,357,17z
			 M368.4,30.2c-0.1,1.3-1.2,2.4-2.5,2.3s-2.4-1.2-2.3-2.5s1.2-2.4,2.5-2.3C367.5,27.8,368.5,28.9,368.4,30.2z M353.3,35.5
			c-1,0.6-2.3,0.1-2.6-1c-0.9-3.1-0.9-6.5,0.3-9.7c0.3-0.7,0.5-1.4,0.9-2c0.5-1,1.8-1.2,2.7-0.5l7.6,6.5c-0.1,0.4-0.2,0.8-0.2,1.3
			L353.3,35.5z M367.8,45.9c-2.3,0.3-4.8,0-7.1-0.8c-2.4-0.8-4.4-2.2-6.1-3.9c-0.8-0.8-0.6-2.1,0.3-2.7l8.4-5.3c0.7,0.6,1.6,1,2.6,1
			l3.3,9.4C369.6,44.6,368.9,45.8,367.8,45.9z M381.6,33c-0.2,0.8-0.4,1.6-0.6,2.4c-1.2,3.3-3.3,6-6,7.8c-0.9,0.6-2.2,0.2-2.6-0.9
			l-3.4-9.6c0.4-0.4,0.7-1,0.8-1.5l10-0.3C381,31,381.8,32,381.6,33z"/>
		<linearGradient id="SVGID_18_" gradientUnits="userSpaceOnUse" x1="126.4179" y1="328.384" x2="126.4179" y2="-48.7486">
			<stop  offset="0.4826" style="stop-color:#FFFFFF"/>
			<stop  offset="1" style="stop-color:#CFCFCF"/>
		</linearGradient>
		<path style="display:inline;fill:url(#SVGID_18_);" d="M179.7,74.8l5.4-1.3c0.4-3.8,0.5-7.6,0.2-11.4l-5.4-1.4
			c-6.1-1.6-8-9.3-3.4-13.6l4.1-3.8c-1.5-3.5-3.3-6.8-5.5-10l-5.4,1.4c-6.1,1.6-11.6-4.1-9.7-10.1l1.6-5.3c-1.5-1.1-3.1-2.2-4.7-3.2
			c-1.6-1-3.3-1.9-5-2.7l-3.9,3.9c-4.5,4.4-12.1,2.3-13.5-3.9l-1.3-5.4c-3.8-0.4-7.6-0.5-11.4-0.2l-1.4,5.4c-1.6,6.1-9.3,8-13.6,3.4
			l-3.8-4.1c-3.5,1.5-6.8,3.3-10,5.5l1.4,5.4c1.6,6.1-4.1,11.6-10.1,9.7L79,31.6c-1.1,1.5-2.2,3.1-3.2,4.7c-1,1.6-1.9,3.3-2.7,5
			l3.9,3.9c4.4,4.5,2.3,12.1-3.9,13.5L67.7,60c-0.4,3.8-0.5,7.6-0.2,11.4l5.4,1.4c6.1,1.6,8,9.3,3.4,13.6l-4.1,3.8
			c1.5,3.5,3.3,6.8,5.5,10l5.4-1.4c6.1-1.6,11.6,4.1,9.7,10.1l-1.6,5.3c1.5,1.1,3.1,2.2,4.7,3.2c1.6,1,3.3,1.9,5,2.7l3.9-3.9
			c4.5-4.4,12.1-2.3,13.5,3.9l1.3,5.4c3.8,0.4,7.6,0.5,11.4,0.2l1.4-5.4c1.6-6.1,9.3-8,13.6-3.4l3.8,4.1c3.5-1.5,6.8-3.3,10-5.5
			l-1.4-5.4c-1.6-6.1,4.1-11.6,10.1-9.7l5.3,1.6c1.1-1.5,2.2-3.1,3.2-4.7c1-1.6,1.9-3.3,2.7-5l-3.9-3.9
			C171.3,83.8,173.5,76.2,179.7,74.8z M142.8,45.8c1.1-1.9,3.7-2.2,5.2-0.6c6.1,6.1,9.3,14.5,8.9,22.9l-23.3-4.1
			c-0.1-0.3-0.3-0.6-0.4-0.9c-0.1-0.2-0.2-0.4-0.4-0.6L142.8,45.8z M114.4,38.6c6.5-2.8,14-3.3,21-1.1c2.1,0.6,3,3.1,1.9,4.9
			l-10,16.6c-0.7-0.1-1.5-0.1-2.2,0.1l-11.9-15.4C111.8,42,112.4,39.5,114.4,38.6z M130.9,67.9c-0.6,2.5-3.2,4-5.7,3.4
			c-2.5-0.6-4-3.2-3.4-5.7c0.6-2.5,3.2-4,5.7-3.4C130.1,62.9,131.6,65.4,130.9,67.9z M100.4,72.1c-2.1,0.8-4.3-0.6-4.5-2.9
			c-0.5-6.2,0.9-12.5,4.3-18.2c0.7-1.2,1.6-2.4,2.5-3.5c1.3-1.7,3.9-1.6,5.2,0.1l11.8,15.3c-0.4,0.7-0.7,1.5-0.9,2.3L100.4,72.1z
			 M123.8,97.2c-4.5-0.4-9-1.8-13.1-4.3c-4.2-2.5-7.5-5.9-10-9.7c-1.1-1.8-0.4-4.2,1.6-4.9l18-6.8c1.1,1.5,2.7,2.5,4.5,2.9l2.6,19.1
			C127.7,95.6,125.9,97.4,123.8,97.2z M154.8,78.3c-0.6,1.4-1.3,2.9-2.1,4.2c-3.5,5.8-8.5,10-14.3,12.4c-2,0.8-4.3-0.5-4.6-2.6
			L131.1,73c0.9-0.7,1.7-1.6,2.2-2.5l19,3.3C154.3,74.1,155.6,76.3,154.8,78.3z"/>
	</g>
</g>
<g id="otzivi">
</g>
<g id="history">
	<g id="Слой_18">
	</g>
</g>
<g id="driver_x5F_history">
	<g id="Слой_21">
	</g>
	<g id="Слой_18__x28_копия_x29_">
	</g>
</g>
<g id="user_x5F_poezdki">
</g>
</svg>
