<?xml version="1.0" encoding="utf-8"?>
<!-- Generator: Adobe Illustrator 22.1.0, SVG Export Plug-In . SVG Version: 6.00 Build 0)  -->
<svg version="1.1" xmlns="http://www.w3.org/2000/svg" xmlns:xlink="http://www.w3.org/1999/xlink" x="0px" y="0px"
	 viewBox="0 0 769.3 311.2" style="enable-background:new 0 0 769.3 311.2;" xml:space="preserve">
<style type="text/css">
	.st0{display:none;}
	.st1{opacity:0.8;}
	.st2{fill:#E1E6FB;}
	.st3{fill:#F4CDAF;}
	.st4{fill:#D1D1D1;}
	.st5{fill:#373791;}
	.st6{fill:#EFEFEF;}
	.st7{fill:#304269;}
	.st8{fill:#3F3FAA;}
	.st9{fill:#4B45BD;}
	.st10{fill:#DEDAE8;}
	.st11{fill:#BAC5F4;}
	.st12{fill:#3C4043;}
	.st13{fill:#FFFFFF;}
	.st14{fill:#F8F8FF;}
	.st15{fill:url(#SVGID_1_);}
	.st16{fill:url(#SVGID_2_);}
	.st17{fill:url(#SVGID_3_);}
	.st18{fill:url(#SVGID_4_);}
	.st19{fill:#F5F5FC;}
	.st20{fill:#F7F7F7;stroke:#E1E6FB;stroke-width:3;stroke-miterlimit:10;}
	.st21{fill:url(#SVGID_5_);}
	.st22{fill:url(#SVGID_6_);}
	.st23{fill:url(#SVGID_7_);}
	.st24{fill:url(#SVGID_8_);}
	.st25{fill:url(#SVGID_9_);}
	.st26{fill:#F7F7F7;}
	.st27{fill:url(#SVGID_10_);}
	.st28{fill:url(#SVGID_11_);}
	.st29{display:none;fill:#F7F7F7;}
	.st30{fill:url(#SVGID_12_);}
	.st31{fill:url(#SVGID_13_);}
	.st32{fill:url(#SVGID_14_);}
	.st33{fill:url(#SVGID_15_);}
	.st34{fill:url(#SVGID_16_);}
	.st35{fill:url(#SVGID_17_);}
	.st36{fill:#EAC5B0;}
	.st37{opacity:0.2;fill:#BAC5F4;}
	.st38{opacity:0.57;}
	.st39{fill:#E5E5E7;}
	.st40{fill:none;stroke:#D1D1D1;stroke-miterlimit:10;}
	.st41{fill:#47BEC4;}
	.st42{fill:none;stroke:#FFFFFF;stroke-width:2;stroke-miterlimit:10;}
	.st43{fill:#F77A4B;}
	.st44{fill:url(#SVGID_18_);}
	.st45{fill:url(#SVGID_19_);}
	.st46{fill:url(#SVGID_20_);}
	.st47{fill:url(#SVGID_21_);}
	.st48{fill:url(#SVGID_22_);}
	.st49{fill:url(#SVGID_23_);}
	.st50{fill:url(#SVGID_24_);}
	.st51{fill:url(#SVGID_25_);}
	.st52{fill:url(#SVGID_26_);}
	.st53{clip-path:url(#SVGID_28_);fill:#BAC5F4;}
	.st54{opacity:0.4;fill:#F1F2F2;}
	.st55{fill:#ACD9DD;}
	.st56{opacity:0.2;}
	.st57{fill:#FFFDF3;}
	.st58{fill:#232A35;}
	.st59{fill:#3B455A;}
	.st60{opacity:0.1;}
	.st61{fill:#000100;}
	.st62{fill:url(#SVGID_29_);}
	.st63{fill:url(#SVGID_30_);}
	.st64{fill:url(#SVGID_31_);}
	.st65{fill:url(#SVGID_32_);}
	.st66{fill:#BDBDBD;}
	.st67{fill:url(#SVGID_33_);}
	.st68{fill:#5A5A5C;}
	.st69{opacity:0.56;fill:url(#SVGID_34_);}
	.st70{opacity:0.66;fill:#FFFFFF;}
	.st71{fill:#C4DFE1;}
	.st72{fill:#33435A;}
	.st73{fill:#57859B;}
	.st74{fill:#427CCC;}
	.st75{fill:#FFBFA4;}
	.st76{fill:#141C2B;}
	.st77{fill:#BABCBC;}
	.st78{opacity:0.14;}
	.st79{fill:url(#SVGID_35_);}
	.st80{fill:url(#SVGID_36_);}
	.st81{fill:url(#SVGID_37_);}
	.st82{fill:url(#SVGID_38_);}
	.st83{fill:url(#SVGID_39_);}
	.st84{fill:url(#SVGID_40_);}
	.st85{display:inline;fill:url(#SVGID_41_);}
	.st86{display:inline;fill:url(#SVGID_42_);}
	.st87{display:inline;fill:url(#SVGID_43_);}
	.st88{display:inline;fill:url(#SVGID_44_);}
	.st89{display:inline;fill:url(#SVGID_45_);}
	.st90{display:inline;fill:url(#SVGID_46_);}
	.st91{fill:url(#SVGID_47_);}
	.st92{opacity:0.6;}
	.st93{fill:url(#SVGID_48_);}
	.st94{opacity:0.3;}
	.st95{fill:url(#SVGID_49_);}
	.st96{fill:url(#SVGID_50_);}
	.st97{fill:#DE937A;}
	.st98{fill:#28415A;}
	.st99{fill:#59595B;}
	.st100{fill:#39517C;}
	.st101{fill:#34383A;}
	.st102{fill:#F3CFC1;}
	.st103{fill:#FF6600;}
	.st104{fill:#D9E8F5;}
	.st105{fill:#F5CEB0;}
	.st106{fill:#F26101;}
	.st107{fill:#FFFFF2;}
	.st108{display:inline;}
	.st109{fill:#7DB5DB;}
	.st110{fill:#EFBFA5;}
	.st111{fill:#EACDB0;}
	.st112{fill:#4D4D4D;}
	.st113{display:inline;fill:#D8D8D8;stroke:#FFFFFF;stroke-miterlimit:10;}
	.st114{display:inline;fill:#BCBEC0;}
	.st115{display:inline;fill:#305399;}
	.st116{fill:#F0F1F1;}
	.st117{display:inline;opacity:0.1;fill:#000100;}
	.st118{display:inline;fill:#3B455A;}
	.st119{display:inline;fill:#7DB5DB;}
	.st120{fill:#98C7E2;}
	.st121{fill:#FFFDF0;}
	.st122{opacity:6.000000e-02;fill:#FFFFFF;}
	.st123{opacity:0.1;fill:#000100;}
	.st124{fill:url(#SVGID_51_);}
	.st125{fill:url(#SVGID_52_);}
	.st126{fill:url(#SVGID_53_);}
	.st127{fill:url(#SVGID_54_);}
	.st128{fill:url(#SVGID_55_);}
	.st129{fill:url(#SVGID_56_);}
	.st130{fill:url(#SVGID_57_);}
	.st131{fill:url(#SVGID_58_);}
	.st132{fill:#EAC1A4;}
	.st133{fill:#484F5B;}
	.st134{fill:#8CABEF;}
	.st135{fill:url(#SVGID_59_);}
	.st136{fill:url(#SVGID_60_);}
	.st137{fill:url(#SVGID_61_);}
	.st138{fill:url(#SVGID_62_);}
	.st139{fill:url(#SVGID_63_);}
	.st140{fill:url(#SVGID_64_);}
	.st141{fill:url(#SVGID_65_);}
	.st142{fill:url(#SVGID_66_);}
	.st143{fill:url(#SVGID_67_);}
	.st144{fill:url(#SVGID_68_);}
	.st145{fill:url(#SVGID_69_);}
	.st146{fill:url(#SVGID_70_);}
	.st147{fill:url(#SVGID_71_);}
	.st148{fill:url(#SVGID_72_);}
	.st149{fill:#BABCBE;}
	.st150{fill:#242449;}
	.st151{fill:#2F3787;}
	.st152{fill:#3D475B;}
	.st153{fill:#366362;}
	.st154{fill:#89B336;}
	.st155{fill:#96BD34;}
	.st156{opacity:7.000000e-02;}
	.st157{fill:#B5D381;}
	.st158{fill:#3B308A;}
	.st159{opacity:8.000000e-02;}
	.st160{fill:#F3E6DC;}
	.st161{fill:#92C59B;}
	.st162{fill:#88C9DA;}
	.st163{fill:#F9CD5B;}
	.st164{fill:#F6D5D5;}
	.st165{fill:#424DBF;}
	.st166{fill:#7EACF1;}
	.st167{fill:#F17187;}
	.st168{fill:#EAEAEA;}
	.st169{fill:#A0A2A6;}
	.st170{fill:#CE7361;}
	.st171{fill:#C7C8C9;}
	.st172{opacity:9.000000e-02;}
	.st173{opacity:0.15;}
	.st174{fill:#5B6475;}
	.st175{fill:#EDEDED;}
</style>
<g id="Слой_1" class="st0">
</g>
<g id="Слой_9">
	<g id="Слой_3__x28_копия2_x29_" class="st1">
	</g>
	<g id="Слой_10">
		<g id="Слой_11">
		</g>
		<g id="Слой_11__x28_копия_x29_">
			<g id="Слой_11_копия_2">
			</g>
			<g id="Слой_11_копия_3">
			</g>
		</g>
	</g>
</g>
<g id="poezdki">
	<g id="Слой_3__x28_копия_x29_" class="st1">
	</g>
	<g id="Слой_8">
	</g>
</g>
<g id="auto">
	<g id="Слой_3">
		<g id="Слой_4">
		</g>
	</g>
</g>
<g id="nastroiki">
</g>
<g id="otzivi">
</g>
<g id="history">
	<g>
		<g class="st0">
			<g class="st108">
				<path class="st109" d="M470.8,168.8c0.1,0.2,0.2,0.4,0.1,0.6c0,0.2-0.2,0.3-0.3,0.4c-5.5,5-11.1,10-16.6,15
					c-2-3.5-3.9-7.1-5.9-10.6c-0.3-0.5-0.6-1.1-0.6-1.7c0-0.5,0.2-0.9,0.3-1.3c2.1-5.3,4.2-10.6,6.3-15.9c2.3-5.9,5.3-3.2,8.4,0.5
					C465.9,159.8,468.7,164.1,470.8,168.8z"/>
			</g>
			<g class="st108">
				<g>
					<g>
						<g id="XMLID_47_">
							<path id="XMLID_48_" class="st110" d="M454.1,260.2l0.3,15.9c-0.1,4.4,0.3,8.8,0.6,13.2c0.2,4.1-0.6,8.3,1.4,12.1
								c0.6,1.2,1.9,2,2.9,0.6c0.8-1.1,0.4-2.9,0.6-4.1c1.4-9.2,4-18.2,5.3-27.5C466.5,260.8,462.7,261.1,454.1,260.2z"/>
						</g>
						<polygon class="st59" points="455,298.7 454,301.4 459,305.8 463.6,306 465.1,303.6 458.9,298.2 						"/>
					</g>
					<g>
						<g id="XMLID_45_">
							<path id="XMLID_46_" class="st111" d="M442.8,260.4l-2.9,15.7c-1,7-3.3,13.8-4.3,20.8c-0.2,1.6-0.1,3.4-0.8,4.9
								c-0.7,1.5-1.9,1.5-3.1,0.5c-1.5-1.4-0.8-3.8-0.8-5.6c0.2-12.3-0.8-24.4-1-36.7c0-0.2,0-0.3,0.1-0.4c0.1-0.1,0.2-0.1,0.4-0.1
								C431.6,259.5,442.7,260.7,442.8,260.4z"/>
						</g>
						<polygon class="st112" points="430.9,299.4 429.3,301.8 433.2,307.2 437.7,308.4 439.7,306.4 434.8,299.7 						"/>
					</g>
					<polygon class="st59" points="470.5,270.4 468.3,247.6 467.3,232.8 463.7,220.7 444.7,217.8 421.2,221.8 420.1,226.4 
						424.6,268.7 447.3,270.4 447,244 450.5,260.3 450.3,270.4 					"/>
				</g>
				<path class="st13" d="M426.2,176.2c0,0.8-0.1,1.5-0.1,2.3c-0.3,15.6,0.6,31.4,0.7,47.2c8.1-1.3,16.2-2,24.4-2.1
					c1.9,0,10.5,1.3,11.7,0.2c1.6-1.5-0.2-1.2,0-3.2c0.2-2.6-1.1-4.7-0.6-7.7c0.6-3.6,1.6-7.1,2.3-10.7c1.3-7.2,2-14.5,2.3-21.8
					c0.2-6.5,0-13.2-2.8-19.1c-6.9-14.4-29-14.2-35.1,0.9C427,166.6,426.4,171.4,426.2,176.2z"/>
				<path class="st109" d="M451.2,156l-6,11c0.3,11.1,0.6,22.2,0.9,33.2c0.1,5.1,0.3,10.2,0.4,15.3c0.1,1.8,0.1,3.5,0.2,5.3
					c0,0.8-0.2,2.1,0.3,2.8c1,1.4,4.6,1,6.2,1.1c2.5,0.2,4.9,0.4,7.2,1.2c1.5,0.6,3,1.4,4.6,1.6c0.4,0.1,0.8,0.1,1.1-0.2
					c0.3-0.3,0.4-0.7,0.4-1.1c0.6-7.6,0.6-15.5,1-23.1c0.3-6.3,1.2-12.9,0.7-19.2c0-0.1,0-0.2,0-0.3c-1.9-10.5,2.1-18.5-5.6-27.9
					c-4.1-5.1-6.2-4.4-11.7-5.8c-1.4-0.3-4.4-1.4-3.6,1.3C447.7,152.8,450.2,154.7,451.2,156z"/>
				<path class="st109" d="M438.1,157l6,11c-0.1,0-0.8,26.9-0.8,28.7c-0.2,6.9-0.4,13.8-0.6,20.7c-0.1,1.9,0.2,4.2-0.2,6.1
					c-0.5,2.6-3.3,2.1-5.7,2.3c-5.2,0.5-10.6,1.3-15.8,1.1c-1.5-0.1,0.5-31.3,0.5-34.2c0-10.5-2.2-22.1,3.1-31.6
					c1.5-2.8,4.3-7.2,7.3-8.6c2.8-1.3,6.8-1.5,9.9-2.2l0.2,2L438.1,157z"/>
				<g>
					<g>
						<path class="st59" d="M451.2,130.4c0.9,1.7,1.4,3.6,1.5,5.5c0,0.5,0.1,1.1,0.5,1.4c0.4,0.3,0.1,1,0.4,0.6
							c0.3-0.4,1.5-1.9,1.5-2.5c0.1-1.3,0.1-2.6,0-3.8c-0.1-1.1-0.3-2.3-1.1-3.1c-0.4-0.5-1-0.8-1.6-1.2c-0.8-0.5-1.7-1-2.6-1.2
							c-1.6-0.3-2.6,0.3-1.2,1.4C449.7,128.4,450.5,129.3,451.2,130.4z"/>
						<g>
							<path class="st110" d="M441.1,152.1c0,0.8-0.1,1.6,0.5,2.2c0.3,0.3,0.8,0.4,1.2,0.5c1.1,0.2,2.3,0.1,3.4-0.2
								c0.4-0.1,0.9-0.3,1.2-0.7c0.4-0.4,0.4-0.7,0.4-1.3c0-0.6,0.1-1.2,0.2-1.8c0.2-1.3,0.2-2.6,0.3-3.9c1.9-0.3,4.2-1,4.9-3
								c0.2-0.6,0.2-1.3,0.2-2c0-2.8,0-5.6,0.1-8.4c0-1,0-2-0.3-2.9c-0.6-1.6-2.1-2.5-3.5-3.1c-3.7-1.5-8-1.5-11.5,0.7
								c-0.9,0.6-1.8,1.3-2.3,2.3c-0.8,1.5-0.7,3.4-0.6,5.2c0.1,1.6,0.2,3.3,0.3,4.9c0.1,1.9,0.4,4.1,1.9,5.1
								c0.8,0.5,1.8,0.6,2.5,1.3c1.2,1.2,0.6,3,1,4.4C441.1,151.7,441.1,151.9,441.1,152.1z"/>
						</g>
						<path class="st59" d="M454.2,140.8c0-0.5-0.3-2-1-1.1c-0.2,0.3-0.3,0.6-0.3,0.9c0,0.3,0,0.7-0.1,1c-0.2,0.7-1,1.1-1.8,1
							c-0.3,0-0.6-0.1-0.8-0.2c-0.2-0.1-0.4-0.4-0.6-0.6c-0.5-0.5-0.9-1-1.4-1.6c-0.8-0.9-2.3-0.5-3.4-0.4c-1.2,0.2-2.4,0.5-3.4,1.3
							c-0.1,0.1-0.2,0.2-0.3,0.3c-0.2,0.2-0.5,0.4-0.8,0.5c-0.9,0.5-2.1,0-2.8-0.9c-0.3-0.4-0.6-0.9-1.1-1c-0.4-0.1-0.7,0.2-0.9,0.6
							c-0.2,0.3-0.2,0.8-0.3,1.2c-0.1,1.5,0.1,2.9,0.7,4.2c1.4,2.8,4,3.1,6.7,3.1c1,0,2.1,0,3.1-0.1c1.9,0,3.9-0.1,5.6-1.2
							c1.4-1,2.3-2.7,2.6-4.4C454.2,142.7,454.2,141.7,454.2,140.8z M447.2,144.8c-1,0.7-2.1,0.7-3.2,0.4c-0.5-0.1-0.3-0.9,0.2-0.8
							c0.9,0.3,1.8,0.3,2.7-0.3C447.2,143.8,447.6,144.5,447.2,144.8z"/>
						<path class="st59" d="M454.6,125.6c0.2-0.7,0.3-1.4,0.4-2.1c-0.6,0.2-1.4,0.3-2,0.2c0-0.4,0-0.8,0-1.2c0-0.3-4.5-0.6-4.9-0.6
							c-3.5-0.3-6.6-0.6-9.7,1.3c-2.7,1.6-4.4,4-4.8,7c-0.4,2.9,0.6,6.8,2.3,9.2c0-0.8-0.5-2.6-0.3-3.4c0.1-0.7,0.4-1.5,0.7-2.1
							c0.7-1.3,1.8-2.4,3.1-3.2c2-1.3,4.4-1.9,6.7-2.3c2.2-0.3,4.8-0.6,6.9,0c1,0.3,1.2,0.5,1.8-0.5c0.1-0.2,1-2.3,0.9-2.3
							C455.3,125.6,454.9,125.6,454.6,125.6z"/>
					</g>
				</g>
			</g>
			<g class="st108">
				<g>
					<path class="st110" d="M424.3,160.1c-0.6-2.3-2.8-4.1-5.2-4.1c-1,0-2,0.3-2.9,0.5c-2.3,0.7-4.5,1.6-6.6,2.6
						c-1.1,0.6-4,3-5.3,2.6c-2.3-0.7-2.9-8.9-3.4-11c-0.5-2-1.6-4.6-1.4-6.7c0-0.4,1.4-3.7,1.3-3.8c0,0-0.7-0.5-0.7-0.5l-0.5,0.7
						l-0.6,0.1l0.9-2.5l-2.9-0.9l-2.7,2.3c0.6,2.1,1.7,4.2,1.8,6.4c0,0.9-0.1,1.9-0.2,2.8c-0.1,1.6,0,3.3,0.1,4.9
						c0,1.6-0.2,3.2-0.2,4.7c0.2,4.9-1,11.2,4.4,13.4c4,1.7,8.5,0.8,12.6-0.5c4.8-1.5,12.9-4.1,11.7-10.8
						C424.4,160.3,424.4,160.2,424.3,160.1z"/>
				</g>
				<path class="st109" d="M412.3,155.8c-0.2,0.1-0.4,0.2-0.5,0.4c-0.1,0.2-0.1,0.4-0.1,0.5c0.5,7.4,1,14.9,1.5,22.3
					c3.9-1.2,7.7-2.4,11.6-3.5c0.6-0.2,1.2-0.4,1.6-0.8c0.3-0.3,0.5-0.8,0.7-1.2c2.2-5.3,4.4-10.5,6.6-15.8c2.5-5.9-1.5-5.9-6.4-5.5
					C422.1,152.7,417.1,153.9,412.3,155.8z"/>
			</g>
			<g>
				<rect x="397.6" y="66.5" class="st113" width="12.9" height="11.8"/>
				<path class="st114" d="M412.9,77.9h-17.5c-5.6,0-10.2,4.6-10.2,10.2v8.8h37.9v-8.8C423.1,82.5,418.5,77.9,412.9,77.9z"/>
				<path class="st115" d="M430.8,103.6c0.8-1.7,0.3-3.7-1.3-4.8L404.1,84l-25.5,14.9c-1.5,1.1-2.1,3.1-1.3,4.8l0.8,1.7
					c5.1,7.4,10.6,16.6,13.3,25.4l12.5-3.3l12.7,3.1c2.7-8.5,7.9-17.3,12.8-24.5L430.8,103.6z"/>
				<g class="st108">
					<g>
						
							<ellipse transform="matrix(0.2298 -0.9732 0.9732 0.2298 213.8863 459.5676)" class="st116" cx="397.3" cy="94.7" rx="3.2" ry="3.2"/>
					</g>
					<g>
						<path class="st109" d="M399.6,94.7c0,1.3-1,2.3-2.3,2.3c-1.3,0-2.3-1-2.3-2.3s1-2.3,2.3-2.3C398.5,92.4,399.6,93.4,399.6,94.7
							z"/>
					</g>
				</g>
				<g class="st108">
					<g>
						
							<ellipse transform="matrix(0.2298 -0.9732 0.9732 0.2298 224.4313 472.8918)" class="st116" cx="411" cy="94.7" rx="3.2" ry="3.2"/>
					</g>
					<g>
						<path class="st109" d="M413.2,94.7c0,1.3-1,2.3-2.3,2.3s-2.3-1-2.3-2.3s1-2.3,2.3-2.3S413.2,93.4,413.2,94.7z"/>
					</g>
				</g>
				<path class="st117" d="M429.6,98.9L404.1,84v43.5l12.7,3.1c2.7-8.5,7.9-17.3,12.8-24.5l1.2-2.4
					C431.7,101.9,431.1,99.9,429.6,98.9z"/>
				<rect x="397.6" y="66.5" class="st118" width="12.9" height="3.5"/>
				<path class="st119" d="M430.1,131.7h-1.2c-3.3,0-6.4-1.7-8.3-4.4c-1.8,2.7-4.9,4.4-8.3,4.4c-3.4,0-6.4-1.7-8.3-4.4
					c-1.8,2.7-4.9,4.4-8.3,4.4c-3.2,0-6.2-1.7-8.2-4.5c-1.8,2.7-5,4.5-8.3,4.5h-1.2v-2.4h1.2c3.2,0,6.1-2,7.2-5
					c0.2-0.4,0.6-0.7,1.1-0.8c0.5,0,0.9,0.2,1.1,0.7c1.5,3.2,4.2,5,7.2,5c3.2,0,6-1.9,7.1-4.9c0.2-0.5,0.6-0.8,1.1-0.8
					s1,0.3,1.1,0.8c1.2,3,4,4.9,7.1,4.9c3.2,0,6.1-2,7.2-5c0.2-0.5,0.6-0.8,1.1-0.8l0,0c0.5,0,0.9,0.3,1.1,0.8c1.1,3,4,5,7.2,5h1.2
					V131.7z"/>
				<path class="st119" d="M430.1,139.7h-1.2c-3.3,0-6.4-1.7-8.3-4.4c-1.8,2.7-4.9,4.4-8.3,4.4c-3.4,0-6.4-1.7-8.3-4.4
					c-1.8,2.7-4.9,4.4-8.3,4.4c-3.2,0-6.2-1.7-8.2-4.5c-1.8,2.7-5,4.5-8.3,4.5h-1.2v-2.4h1.2c3.2,0,6.1-2,7.2-5
					c0.2-0.4,0.6-0.7,1.1-0.8c0.5,0,0.9,0.2,1.1,0.7c1.5,3.2,4.2,5,7.2,5c3.2,0,6-1.9,7.1-4.9c0.2-0.5,0.6-0.8,1.1-0.8
					c0.5,0,1,0.3,1.1,0.8c1.2,3,4,4.9,7.1,4.9c3.2,0,6.1-2,7.2-5c0.2-0.5,0.6-0.8,1.1-0.8l0,0c0.5,0,0.9,0.3,1.1,0.8
					c1.1,3,4,5,7.2,5h1.2V139.7z"/>
			</g>
		</g>
		<g>
			<g>
				<path class="st3" d="M560.8,140l-1.3-3.7c-0.4-1.1-0.4-2.3-0.1-3.4l0,0c0.3-1.2,1.5-1.9,2.7-1.7l0,0c0.6,0.1,1,0.5,1.1,1
					l0.6,2.5l0.9-0.7c0.4-0.3,0.9-0.1,1,0.3l0,0c0,0.1,0,0.3,0,0.4l-1,3.3l-0.4,2.1L560.8,140z"/>
				<path class="st4" d="M584.2,169.4c-1-0.6-2-1.2-3.1-1.7c-3-1.4-6-2.9-8.9-4.5c-1.8-1-3.6-2-4.8-3.6c-0.7-0.9-1.1-2-1.6-3.1
					c-2.2-5.6-4.1-11.4-5.6-17.3c1.2-0.6,4.6-2.2,5.7-1.1c0.4,0.4,0.6,0.9,0.8,1.4c1,2.4,2,4.7,3,7.1c1.1,2.6,2.3,5.3,4,7.6
					c0.2,0.3,0.4,0.6,0.8,0.8c0.3,0.2,0.7,0.3,1.1,0.3c6,0.9,9.6-1.4,15.5,0.1c1.3,0.3,5.9,1.5,6.7,2.6c0.6,0.9-0.1,4.9,0,5.9
					c0.1,1.4,0,2.9-0.6,4.2c-0.8,1.5-2.3,2.4-3.9,2.9c-1.6,0.4-3.3,0.3-4.9,0.1C586.9,170.9,585.5,170.2,584.2,169.4z"/>
			</g>
			<g>
				<g id="XMLID_7_">
					<path class="st7" d="M599.2,304l0,1.1c0,1-0.5,1.8-1.4,2.3l-3.6,1.8c-1,0.5-2.1,0.3-2.9-0.5l0,0c-1.1-1.1-0.9-2.9,0.4-3.8
						l1.2-0.8H599.2z"/>
				</g>
				<g id="XMLID_1_">
					<path class="st7" d="M617.8,308.6L617.8,308.6c-0.8,0.8-1.9,0.9-2.9,0.5l-3.5-1.8c-0.8-0.4-1.4-1.3-1.4-2.2l0-1.2h6.3l1.2,0.8
						C618.7,305.7,618.9,307.5,617.8,308.6z"/>
				</g>
				<g>
					<g>
						<path class="st8" d="M585,241c-0.1,5,0.3,9.9,1,14.8v0l6.9,48.1h6.3l3.4-55.3l-1.8-25.9c0,0-12.1-0.5-15.6,0.5L585,241z"/>
						<path class="st9" d="M598.5,222.3l1.5,9.7l3,22.9l0,0.3L610,304h6.3l7.6-73.8l0-4.3c-0.7-0.4-1.3-0.8-2.1-1.2L598.5,222.3z"/>
					</g>
				</g>
			</g>
			<g>
				<path class="st6" d="M610,154.2c0.1,0,0.1,0,0.2,0c1.8,0.2,3.6,0.8,4.9,2.1c0.6,0.7,1.1,1.5,1.6,2.3c1.2,2.2,2,4.5,2.9,6.8
					c2.5,6.7,4.5,13.6,6,20.6c0.7,3.4,4.9,41.8,2.4,41.7c-8.3-0.5-16.7-0.9-25-1.2c-7-0.2-14-0.3-21-0.4c-1-19.9-1.9-40.5,5.1-59.2
					c1.1-2.9,2.4-5.8,4.5-8.1C596,153.8,603.8,153.6,610,154.2z"/>
			</g>
			<g>
				<g>
					<g>
						<path class="st12" d="M598.1,134.7c-0.8,1.6-1.1,3.4-1.1,5.3c0,0.5,0,1-0.4,1.3c-0.4,0.3,0,1-0.3,0.6
							c-0.3-0.4-1.5-1.7-1.5-2.3c-0.2-1.2-0.2-2.4-0.2-3.6c0-1,0.2-2.1,0.8-3c0.4-0.5,0.9-0.9,1.4-1.2c0.7-0.5,1.5-1,2.4-1.2
							c1.5-0.4,2.4,0.1,1.2,1.3C599.4,132.7,598.7,133.6,598.1,134.7z"/>
					</g>
					<g>
						<g>
							<path class="st3" d="M608.5,154.7c-2.1,0.3-4.1,0.6-6.2,0.9c-0.4-1.8-0.7-3.6-0.8-5.5c-1.8-0.2-4-0.7-4.7-2.6
								c-0.2-0.6-0.3-1.2-0.3-1.9c-0.2-2.7-0.3-5.3-0.5-8c-0.1-0.9-0.1-1.9,0.2-2.7c0.5-1.5,1.8-2.5,3.1-3.1
								c3.4-1.6,7.4-1.8,10.7,0.1c0.9,0.5,1.7,1.2,2.2,2.1c0.8,1.4,0.8,3.2,0.8,4.9c0,1.6-0.1,3.1-0.1,4.7c0,1.8-0.2,3.9-1.5,4.9
								c-0.7,0.5-1.6,0.7-2.2,1.4C608.2,151,608.8,153,608.5,154.7z"/>
						</g>
					</g>
					<g>
						<path class="st12" d="M596.1,147.2c0.4,1.6,1.3,3.2,2.6,4c1.6,1,3.4,1,5.2,0.9c1,0,1.9-0.1,2.9-0.1c2.5-0.1,4.9-0.5,6-3.2
							c0.5-1.2,0.6-2.7,0.5-4c0-0.4-0.1-0.8-0.3-1.1c-0.2-0.3-0.5-0.5-0.9-0.5c-0.4,0.1-0.7,0.6-0.9,1c-0.6,0.8-1.6,1.4-2.5,1
							c-0.3-0.1-0.5-0.3-0.7-0.5c-0.1-0.1-0.2-0.2-0.3-0.2c-1-0.7-2.1-1-3.3-1.1c-1-0.1-2.5-0.4-3.1,0.5c-0.4,0.5-0.8,1-1.2,1.6
							c-0.2,0.2-0.3,0.4-0.6,0.6c-0.2,0.1-0.5,0.2-0.8,0.2c-0.7,0-1.4-0.2-1.7-0.9c-0.1-0.3-0.1-0.6-0.1-0.9c0-0.3-0.1-0.6-0.3-0.9
							c-0.8-0.9-0.9,0.6-0.9,1.1C595.8,145.5,595.9,146.4,596.1,147.2z M602.8,147.3c0.8,0.5,1.6,0.5,2.5,0.1
							c0.4-0.2,0.7,0.6,0.2,0.7c-1,0.4-2.1,0.4-3-0.2C602.1,147.8,602.4,147.1,602.8,147.3z"/>
					</g>
					<g>
						<path class="st12" d="M594.7,130.2c-0.2-0.6-0.4-1.3-0.5-1.9c0.6,0.2,1.3,0.2,1.9,0.1c0-0.4,0-0.8-0.1-1.1
							c0-0.3,4.2-0.8,4.5-0.8c3.2-0.4,6.1-0.8,9.1,0.8c2.6,1.4,4.3,3.5,4.8,6.4c0.5,2.8-0.2,6.4-1.7,8.8c0-0.7,0.3-2.5,0.1-3.2
							c-0.1-0.7-0.4-1.4-0.8-2c-0.7-1.2-1.8-2.2-3-2.9c-1.9-1.1-4.2-1.6-6.4-1.8c-2-0.2-4.5-0.3-6.4,0.3c-0.9,0.3-1.1,0.6-1.7-0.4
							c-0.1-0.2-1-2.1-0.9-2.1C594,130.3,594.4,130.3,594.7,130.2z"/>
					</g>
				</g>
			</g>
			<g>
				<g>
					<path class="st3" d="M618.6,204.4l3.6,1.2l-1.1,4.8c-0.2,0.8-0.8,1.4-1.5,1.6l-1.4,0.4c-0.7,0.2-1.5,0-2-0.5l0,0
						c-0.9-0.8-0.8-2.2,0-3l0,0c0.2-0.2,0.2-0.6-0.1-0.7l0,0l-0.4,0.2c-0.3,0.1-0.6,0-0.8-0.3l0,0c-0.1-0.2-0.1-0.5,0.1-0.7
						L618.6,204.4z"/>
				</g>
				<g>
					<g>
						<g>
							<path class="st4" d="M614.1,154.7c-1.2-0.3-2.5-0.3-3.7,0.1c-0.6,0.2-1.3,0.5-1.7,0.9c-0.5,0.5-0.8,1.1-1.1,1.8
								c-2.9,8.6,6,18.2,11.4,23.8c3.4,3.6,0.4,10.3-0.4,14.7c-0.4,2-2.3,7.9-1,9.2c0.2,0.2,2.5,1,3.8,1.5c0.5,0.2,1.1-0.1,1.3-0.5
								c1.9-4.3,3.9-8.6,5.8-12.9c1.5-3.4,3.6-6.5,5.1-10c0.5-1.3,1-2.7,0.8-4.1c-0.2-1.1-0.8-2.1-1.3-3c-2.9-4.7-5.9-9.2-9.3-13.5
								c-1.7-2.2-3.4-4.4-5.6-6.1C617,155.7,615.6,155,614.1,154.7z"/>
						</g>
					</g>
				</g>
			</g>
		</g>
		<g>
			<g>
				<path class="st59" d="M580.6,307.6l-12.3,0.1c-2.8,0-5.1-2.2-5.1-5.1l-0.1-28.2l22.5-0.1l0.1,28.2
					C585.7,305.3,583.4,307.6,580.6,307.6z"/>
				<path class="st59" d="M457.1,308.2l-14.8,0.1c-2.1,0-3.8-1.7-3.8-3.8l-0.1-29.5l22.5-0.1l0.1,29.5
					C460.9,306.5,459.2,308.2,457.1,308.2z"/>
				<path class="st9" d="M552.4,177.1l-79.2,0.4c-6.1,0-11.4,4.2-13.4,10.3l-13.1,41.3l0,0l-13.3,24.7c-0.5,1-0.8,2.1-0.8,3.2
					l0.1,26.3c0,3.7,3,6.7,6.7,6.7l144.2,0.6c3.8,0,6.8-3,6.8-6.8l-0.1-25.4c0-0.9-0.2-1.8-0.6-2.7l-12-27.5l-0.4,0L566.1,188
					C564.3,181.5,558.7,177.1,552.4,177.1z"/>
				<path class="st120" d="M561,228.6l-99.6,0.5c-5.2,0-8.9-4.7-7.2-9.2l11.5-30.7c1-2.8,3.9-4.7,7.1-4.7l78-0.4
					c3.3,0,6.3,2,7.2,4.9l10.1,30.6C569.6,224.1,566,228.6,561,228.6z"/>
				<g class="st78">
					<path class="st121" d="M566.1,212.5c-6-3.4-58-26.2-62-28.4l-26.4,0.1c-1.1,0-2.2,0.3-3.2,0.9c0,0,0.1,0,0.1,0.1
						c4,2.2,76,39.8,82.7,43.7l4.7,0c4.3,0,7.4-4.5,6.2-9L566.1,212.5z"/>
					<path class="st121" d="M468,186.4c-1-0.7-6.5,14.1-6.5,14.1c2,1.3,36.5,21.7,49.1,28.2l31.2-0.2
						C535.7,225.1,470.6,187.8,468,186.4z"/>
				</g>
				<path class="st9" d="M574.7,222.4l4.6-2.3c0.8-0.4,1.8-0.5,2.7-0.3l5.8,1.3c1.4,0.3,2.6,1.4,2.9,2.9l0,0
					c0.5,1.9-0.5,3.8-2.2,4.6l-6.3,2.8c-0.6,0.3-1.2,0.4-1.8,0.3l-3.7-0.2c-1.7-0.1-3.2-1.3-3.6-3l-0.4-1.6
					C572.2,225.1,573.1,223.3,574.7,222.4z"/>
				<path class="st9" d="M448.6,223l-4.6-2.3c-0.8-0.4-1.8-0.5-2.7-0.3l-5.8,1.4c-1.4,0.3-2.6,1.5-2.9,2.9l0,0
					c-0.5,1.9,0.5,3.8,2.3,4.5l6.3,2.7c0.6,0.2,1.2,0.4,1.8,0.3l3.7-0.2c1.7-0.1,3.2-1.3,3.6-3l0.4-1.6
					C451.1,225.7,450.3,223.8,448.6,223z"/>
				<path class="st122" d="M590.5,268.1l0.1,15.9c0,3.8-3,6.8-6.8,6.8l-144.2-0.6c-3.7,0-6.7-3-6.7-6.7l0.4-14.2L590.5,268.1z"/>
				<polygon class="st123" points="438.4,290.1 460.8,290.3 460.9,297.3 438.4,292.7 				"/>
				<polygon class="st123" points="563.2,290.9 585.6,291.1 585.7,298.2 563.2,293.5 				"/>
				<g>
					<g>
						
							<ellipse transform="matrix(0.8101 -0.5863 0.5863 0.8101 -44.9314 384.4079)" class="st26" cx="570.9" cy="261.6" rx="9.9" ry="9.9"/>
					</g>
					<path class="st123" d="M575.1,267.4c1.7-0.8,3.3-2.2,4-3.9c0.1,1.8-0.8,3.7-2.3,4.8c-0.5,0.4-1.1,0.7-1.6,0.9
						c-0.6,0.3-1.2,0.5-1.8,0.7c-1.7,0.4-3.6,0-5-1.2c0.4,0.4,2.4,0,2.9-0.1C572.6,268.3,573.9,268,575.1,267.4z"/>
				</g>
				<g>
					<g>
						
							<ellipse transform="matrix(0.1583 -0.9874 0.9874 0.1583 117.8894 668.1495)" class="st26" cx="450.9" cy="264.9" rx="9.9" ry="9.9"/>
					</g>
					<path class="st123" d="M455,270.7c1.7-0.8,3.3-2.2,4-3.9c0.1,1.8-0.8,3.7-2.3,4.8c-0.5,0.4-1.1,0.7-1.6,0.9
						c-0.6,0.3-1.2,0.5-1.8,0.7c-1.7,0.4-3.6,0-5-1.2c0.4,0.4,2.4,0,2.9-0.1C452.5,271.7,453.8,271.3,455,270.7z"/>
				</g>
			</g>
		</g>
		<g class="st0">
			<g class="st108">
				<g>
					<path class="st110" d="M468,181.6c-0.1,0-0.2-0.1-0.3-0.1c-1-0.5-1.1-1.4-1.9-2.2c-0.3-0.3-1.6-0.1-1.3-1.1
						c0.1-0.7,0.7-1.6-0.3-1.8c0.1-1.3,0.7-2.5,1.8-3.3c1.7-1.3,3.7-1,5,0.6c0.6,0.7,1.2,1.7,1.5,2.5c0.6,1.6-0.4,3.1-1.1,4.4
						c-0.2,0.3-0.3,0.6-0.6,0.8c-0.5,0.3-1.1,0.3-1.6,0.3C468.6,181.7,468.3,181.7,468,181.6z"/>
				</g>
			</g>
		</g>
		<g>
			<g>
				<g>
					<g>
						<g>
							<g>
								<path class="st110" d="M405.9,302.5c1.1,0,2.1-0.2,3.2-0.3c0.5-10.5-0.4-21.4-0.9-31.9c-2.7,0.1-5.4,0.3-8.1,0.4
									c1.9,5.6,3.2,11.4,4,17.3C404.3,288.9,405.8,302.5,405.9,302.5z"/>
							</g>
							<g>
								<path class="st59" d="M409.4,300.1c0.7-0.1,1.1,0.2,1.5,0.6c0.3,0.2,0.4,0.6,0.7,0.7c0.3,0.2,0.6,0.2,1,0.2
									c1.9,0.2,6.4,0.1,4,3.4c-2.2,2.9-7.9,1.8-11.2,1c-0.2-0.1-0.4-0.1-0.6-0.3c-0.2-0.2-0.3-0.4-0.3-0.7
									c-0.4-1.4-0.9-3.1,0.8-3.7c0.7-0.2,1.4,0.2,2.2,0C408.1,301.2,408.8,300.2,409.4,300.1z"/>
							</g>
						</g>
					</g>
					<path class="st7" d="M414.3,276.5c-5.5-0.1-11-0.2-16.4-0.3c-4.4-21.1-8.3-42.3-11.7-63.6c-0.3-1.7-0.5-3.4,0-5
						c0.9-3,4.1-4.8,7.3-5.3c4.8-0.9,13.7,0.4,16.2,5.4c2.6,5.3,2.2,14.8,2.8,20.7C414.1,244.3,414.7,260.4,414.3,276.5z"/>
				</g>
				<g>
					<g>
						<g>
							<g>
								<path class="st110" d="M374.6,302.5c-1.1,0-2.1-0.2-3.2-0.3c-0.5-10.5,0.4-21.4,0.9-31.9c2.7,0.1,5.4,0.3,8.1,0.4
									c-1.9,5.6-3.2,11.4-4,17.3C376.3,288.9,374.8,302.5,374.6,302.5z"/>
							</g>
							<g>
								<path class="st59" d="M371.1,300.1c-0.7-0.1-1.1,0.2-1.5,0.6c-0.3,0.2-0.4,0.6-0.7,0.7c-0.3,0.2-0.6,0.2-1,0.2
									c-1.9,0.2-6.4,0.1-4,3.4c2.2,2.9,7.9,1.8,11.2,1c0.2-0.1,0.4-0.1,0.6-0.3c0.2-0.2,0.3-0.4,0.3-0.7c0.4-1.4,0.9-3.1-0.8-3.7
									c-0.7-0.2-1.4,0.2-2.2,0C372.4,301.2,371.8,300.2,371.1,300.1z"/>
							</g>
						</g>
					</g>
					<path class="st100" d="M366.3,276.5c5.5-0.1,11-0.2,16.4-0.3c4.4-21.1,8.3-42.3,11.7-63.6c0.3-1.7,0.5-3.4,0-5
						c-0.9-3-4.1-4.8-7.3-5.3c-4.8-0.9-13.7,0.4-16.2,5.4c-2.6,5.3-2.2,14.8-2.8,20.7C366.5,244.3,365.8,260.4,366.3,276.5z"/>
				</g>
			</g>
			<g>
				<g>
					<path class="st110" d="M417.1,127.2c-0.1,0.1-0.1,0.2-0.2,0.3c-0.4,0.9-0.1,1.6-0.3,2.5c-0.1,0.4-1.1,0.8-0.4,1.5
						c0.2,0.2,0.9,0.7,1.4,1.2c0.8,0.7,1.3,2.1,1.5,3.2c0.9,4.5,0.5,9.2,0.1,13.7c0,0.3-0.1,0.5-0.2,0.8c-0.3,0.4-0.8,0.5-1.2,0.6
						c-2.2,0.3-4.3,0.9-6.3,1.6c-1.8,0.7-3.7,1.5-5,2.9c-1.4,1.4-2.2,3.4-1.8,5.3c0.3,1.4,1.4,2.7,2.7,3.2c3.3,1.4,7.1-2.4,9.6-4.1
						c2.4-1.6,4.7-3.5,6.9-5.4c0.3-0.2,0.5-0.5,0.7-0.8c0.2-0.4,0.2-0.7,0.2-1.1c0-5-0.4-9.9-0.9-14.8c-0.1-1.4-1-2.5-1.1-3.7
						c-0.1-0.8,0.4-1.5,0.5-2.3c0.1-0.8,0-1.8-0.2-2.5c-0.4-1.5-1.8-2.1-3.1-2.7c-0.3-0.2-0.5-0.3-0.8-0.3c-0.5,0-0.9,0.3-1.3,0.6
						C417.5,126.8,417.3,127,417.1,127.2z"/>
				</g>
				<g>
					<path class="st2" d="M415.5,159.6c-0.5-1.8-0.9-5.7-2.1-7.1c-1.1-1.2-3.2-0.9-4.8-0.8c-4.8,0-9.5,0.8-14,2.1
						c-0.9,0.3-1.8,0.6-2.2,1.4c-0.2,0.5-0.2,1-0.2,1.5c0,2.3,0,4.7,0.5,6.9c0.4,1.8,1.5,5.1,3.3,6c1.7,0.9,4.8,0,6.6-0.4
						c4.9-1.1,9.6-3.1,13.6-6.1c0.1-0.1,0.3-0.2,0.3-0.3c0.1-0.2,0-0.4,0-0.6C416,161.4,415.8,160.5,415.5,159.6z"/>
				</g>
			</g>
			<g>
				<path class="st11" d="M380.3,160.8c-4.4,4.2-7.7,9.6-9.7,15.1c-3.5,9.9-3.6,20.4-3.6,30.7c0,3.4,0,6.9,0,10.3
					c0,3.4,0.3,4.1,4,3.7c6.8-0.8,13.9-2.2,20-5.2c2.9-1.4,5.7-3.3,8.7-4.4c4.5-1.6,9.1-0.9,13.5-2c-1.9-5.8-3.3-10.7-4.3-16.7
					c-1-6.2-1.9-12.9-3.4-18.9c-0.9-3.6-2.6-7-4.2-10.4c-1.1-2.3-2.3-4.6-4.3-6.2C391.2,151.8,384.7,156.7,380.3,160.8z"/>
			</g>
			<g>
				<g>
					<g>
						<path class="st110" d="M396.2,146.4c-0.8,1.8-2.2,3.3-3.3,5c-1.1,1.6-1.5,3.1-1.7,4.9c-0.2,1.4-0.7,2.4-2.3,2.6
							c-3.1,0.4-2.2-2.1-2.9-3.9c-0.8-2.1-2.5-3.8-3.7-5.7c-3.4-5.4-2.5-16.2,4.7-18.5C394.7,128.3,398.7,140.9,396.2,146.4z"/>
					</g>
				</g>
				<g>
					<path class="st59" d="M383.8,141.1c-0.9,0-1.9,0.1-2.5,0.7c-0.7,0.6-0.6,1.9,0.3,2c0.8,0.1,1.8-0.7,2.3-0.1
						c0.3,0.3,0,0.9-0.2,1.3c-0.8,1.6-1.1,3.4-0.7,5.1c-0.3,0.3-0.8,0-1.1-0.3c-1.4-1.5-2.5-3.4-3.2-5.3c-0.3,0.5-0.7,0.9-1.2,1.2
						c0.3-0.7,0.1-1.5-0.1-2.3c-0.7-2.8-1.1-6,0.8-8.2c1-1.2,2.6-1.9,4.2-2.2s3.2-0.2,4.8-0.1c0.7,0,1.5,0.2,1.7,0.8
						c-1.5,0.6-3,1.8-3.8,3.2C384.7,137.2,383.8,141.1,383.8,141.1z"/>
				</g>
				<g>
					<path class="st59" d="M386.9,134.5c-0.1,0-0.1,0.1-0.2,0.1c-0.7,0.5-1.3,1.1-2.1,1.4c-1.2,0.3-2.4-0.2-3.6,0.2
						c-1.3,0.4-2.1,2-3.1,2.9c-1.5,1.5-3.5,2.6-5.5,3.2c-1.1,0.3-2.1,0.5-3.2,0.6c-0.5,0-1.2,0.1-1.7,0c-0.7-0.2-0.6-0.5,0.1-0.7
						c2.2-0.7,2.9-3.8,2.7-5.8c-0.1-1.6-0.7-3.3-0.1-4.8c0.5-1.1,1.5-1.7,2.4-2.4c1.1-0.7,2.2-0.5,3.4-0.9c1.3-0.4,2.3-1.4,3.6-1.6
						c1.4-0.3,2.7,0.3,4.1,0.6c1.1,0.2,2.3,0.2,3.4,0c1-0.2,2-0.6,3-0.6c1.5,0,2.9,1,3.8,2.2c1.3,1.7,2.1,4.7,1.6,7
						c0.1-0.4-1.1-1.6-1.4-1.9c-0.5-0.6-1.1-1.1-1.9-1.2C390.5,132.6,388.3,133.4,386.9,134.5z"/>
				</g>
			</g>
			<g>
				<g>
					<path class="st110" d="M385.3,205.2c0-0.1,0-0.2,0-0.3c-0.1-1-0.8-1.4-1.2-2.3c-0.2-0.4,0.4-1.3-0.5-1.5
						c-0.3,0-1.2-0.1-1.9-0.2c-1-0.1-2.2-0.9-3.1-1.8c-1.1-1.1-2.3-2.3-3.3-3.5c-2-2.6-3.9-5.7-5.4-8.7c4.8-2.6,7.8-8.1,7.5-13.5
						c0-0.6-0.1-1.2-0.4-1.6c-0.2-0.4-0.6-0.7-1-1c-4.3-2.6-6.7,1.6-8.7,4.9c-1.3,2.1-2.4,4.3-3.3,6.5c-1.3,3.1-0.3,5.9,1.5,8.6
						c1.9,2.9,3.9,5.9,6.4,8.3c1.2,1.2,2.6,2.1,3.9,3.1c1.3,1,0.8,1.5,1.8,2.7c0.5,0.7,0.9,1.4,1.6,2c1.2,1,2.7,0.6,4.1,0.5
						c0.3,0,0.6-0.1,0.8-0.3c0.4-0.3,0.6-0.8,0.7-1.3C385.2,205.8,385.2,205.5,385.3,205.2z"/>
				</g>
				<g>
					<path class="st2" d="M368.1,177.6c2.3,1.8,4.5,3.7,6.8,5.5c-0.1-0.1,8.9-9.8,9.5-10.4c2-2.3,4-4.6,4.9-7.5
						c1.8-6.2-4.8-11.5-10.3-7.8c-6,4-11,10.7-13.3,17.5c-0.1,0.1-0.1,0.3-0.1,0.5c0,0.2,0.2,0.4,0.4,0.5
						C366.7,176.5,367.4,177,368.1,177.6z"/>
				</g>
			</g>
		</g>
	</g>
	<g>
		<g>
			<g>
				<path class="st13" d="M485.8,237.9c0.3,0.3,0.4,0.6,0.4,1.1c0,0.5-0.1,0.8-0.4,1.1c-0.3,0.3-0.7,0.4-1.2,0.4h-4.1v13.7
					c0,0.5-0.2,0.8-0.5,1.1c-0.3,0.3-0.7,0.5-1.2,0.5c-0.5,0-0.9-0.2-1.2-0.5c-0.3-0.3-0.5-0.7-0.5-1.1v-13.7H473
					c-0.5,0-0.9-0.1-1.2-0.4c-0.3-0.3-0.4-0.6-0.4-1.1c0-0.4,0.2-0.8,0.5-1.1c0.3-0.3,0.7-0.4,1.1-0.4h11.6
					C485.1,237.5,485.5,237.6,485.8,237.9z"/>
				<path class="st13" d="M494.6,242c0.4,0.3,0.5,0.6,0.5,1c0,0.5-0.1,0.9-0.4,1.2c-0.3,0.3-0.6,0.4-1,0.4c-0.3,0-0.6-0.1-0.9-0.2
					c-0.1,0-0.2-0.1-0.4-0.1c-0.2-0.1-0.4-0.1-0.6-0.1c-0.5,0-0.9,0.1-1.3,0.4c-0.4,0.3-0.8,0.7-1,1.3c-0.3,0.6-0.4,1.2-0.4,2v6.2
					c0,0.5-0.1,0.8-0.4,1.1c-0.3,0.3-0.7,0.5-1.1,0.5c-0.5,0-0.8-0.2-1.1-0.5c-0.3-0.3-0.4-0.7-0.4-1.1v-10.8c0-0.5,0.1-0.8,0.4-1.1
					c0.3-0.3,0.7-0.5,1.1-0.5c0.5,0,0.8,0.2,1.1,0.5c0.3,0.3,0.4,0.7,0.4,1.1v0.3c0.4-0.7,1-1.3,1.7-1.6c0.8-0.4,1.6-0.6,2.4-0.6
					C493.8,241.5,494.2,241.7,494.6,242z"/>
				<path class="st13" d="M497,239.8c-0.2-0.2-0.4-0.5-0.4-1v-0.5c0-0.5,0.1-0.8,0.4-1c0.3-0.2,0.7-0.3,1.3-0.3c0.6,0,1,0.1,1.3,0.3
					c0.2,0.2,0.4,0.5,0.4,1v0.5c0,0.5-0.1,0.9-0.4,1c-0.3,0.2-0.7,0.3-1.3,0.3C497.6,240.1,497.2,240,497,239.8z M499.4,255.4
					c-0.3,0.3-0.7,0.5-1.1,0.5c-0.5,0-0.8-0.2-1.1-0.5c-0.3-0.3-0.4-0.7-0.4-1.1v-10.8c0-0.5,0.1-0.8,0.4-1.1
					c0.3-0.3,0.7-0.5,1.1-0.5c0.5,0,0.8,0.2,1.1,0.5c0.3,0.3,0.4,0.7,0.4,1.1v10.8C499.8,254.7,499.7,255.1,499.4,255.4z"/>
				<path class="st13" d="M513.4,242.5c1,0.6,1.8,1.5,2.3,2.6c0.6,1.1,0.9,2.4,0.9,3.8c0,1.4-0.3,2.7-0.8,3.8
					c-0.6,1.1-1.3,2-2.3,2.6c-1,0.6-2,0.9-3.2,0.9c-0.8,0-1.6-0.2-2.4-0.5c-0.7-0.3-1.4-0.8-1.8-1.2v5.1c0,0.5-0.1,0.8-0.4,1.1
					c-0.3,0.3-0.7,0.5-1.1,0.5c-0.5,0-0.8-0.1-1.1-0.4c-0.3-0.3-0.4-0.7-0.4-1.2v-16.1c0-0.5,0.1-0.8,0.4-1.1
					c0.3-0.3,0.7-0.5,1.1-0.5c0.5,0,0.8,0.2,1.1,0.5c0.3,0.3,0.4,0.7,0.4,1.1v0.1c0.4-0.5,1-1,1.8-1.4c0.8-0.4,1.5-0.6,2.4-0.6
					C511.3,241.5,512.4,241.8,513.4,242.5z M512.4,251.9c0.7-0.8,1.1-1.9,1.1-3.1c0-1.3-0.4-2.3-1.1-3.1c-0.7-0.8-1.6-1.2-2.8-1.2
					c-1.1,0-2.1,0.4-2.8,1.2c-0.7,0.8-1.1,1.9-1.1,3.1c0,1.3,0.4,2.3,1.1,3.1c0.7,0.8,1.6,1.3,2.8,1.3
					C510.8,253.2,511.7,252.8,512.4,251.9z"/>
				<path class="st13" d="M523.7,239.7c-0.2,0.3-0.4,0.7-0.4,1.1v1.2h2.4c0.4,0,0.8,0.1,1,0.4c0.3,0.3,0.4,0.6,0.4,1
					c0,0.4-0.1,0.8-0.4,1c-0.3,0.3-0.6,0.4-1,0.4h-2.4v9.3c0,0.5-0.1,0.8-0.4,1.1c-0.3,0.3-0.7,0.5-1.1,0.5c-0.5,0-0.8-0.2-1.1-0.5
					c-0.3-0.3-0.4-0.7-0.4-1.1v-9.3h-1.4c-0.4,0-0.8-0.1-1-0.4c-0.3-0.3-0.4-0.6-0.4-1c0-0.4,0.1-0.8,0.4-1c0.3-0.3,0.6-0.4,1-0.4
					h1.4v-1.2c0-1.3,0.4-2.4,1.4-3.2c0.9-0.8,2.2-1.2,3.9-1.2c0.6,0,1.2,0.1,1.7,0.4c0.5,0.3,0.7,0.7,0.7,1.2c0,0.4-0.1,0.8-0.4,1
					c-0.2,0.3-0.5,0.4-0.9,0.4c-0.1,0-0.2,0-0.3,0c-0.1,0-0.2,0-0.3-0.1c-0.4-0.1-0.8-0.2-1-0.2C524.4,239.2,524,239.4,523.7,239.7z
					"/>
				<path class="st13" d="M540.6,249.5c-0.3,0.3-0.7,0.4-1.1,0.4h-8.7c0.2,1,0.7,1.8,1.4,2.4c0.8,0.6,1.6,0.9,2.5,0.9
					c0.7,0,1.3-0.1,1.7-0.2c0.4-0.1,0.7-0.3,1-0.4c0.2-0.1,0.4-0.2,0.5-0.3c0.3-0.2,0.6-0.2,0.9-0.2c0.4,0,0.7,0.1,0.9,0.4
					c0.3,0.3,0.4,0.6,0.4,0.9c0,0.5-0.2,0.9-0.7,1.3c-0.5,0.4-1.1,0.7-2,1c-0.8,0.3-1.7,0.4-2.5,0.4c-1.5,0-2.7-0.3-3.8-0.9
					c-1.1-0.6-1.9-1.5-2.5-2.5c-0.6-1.1-0.9-2.3-0.9-3.6c0-1.5,0.3-2.8,0.9-4c0.6-1.1,1.5-2,2.5-2.6c1-0.6,2.1-0.9,3.3-0.9
					c1.2,0,2.2,0.3,3.3,0.9c1,0.6,1.8,1.5,2.5,2.5c0.6,1.1,0.9,2.2,0.9,3.5C541,248.9,540.9,249.2,540.6,249.5z M530.8,247.3h6.9
					v-0.2c-0.1-0.7-0.4-1.4-1.1-1.9c-0.6-0.5-1.4-0.8-2.2-0.8C532.4,244.4,531.2,245.4,530.8,247.3z"/>
				<path class="st13" d="M551.9,242c0.4,0.3,0.5,0.6,0.5,1c0,0.5-0.1,0.9-0.4,1.2c-0.3,0.3-0.6,0.4-1,0.4c-0.3,0-0.6-0.1-0.9-0.2
					c-0.1,0-0.2-0.1-0.4-0.1c-0.2-0.1-0.4-0.1-0.6-0.1c-0.5,0-0.9,0.1-1.3,0.4c-0.4,0.3-0.8,0.7-1,1.3c-0.3,0.6-0.4,1.2-0.4,2v6.2
					c0,0.5-0.1,0.8-0.4,1.1c-0.3,0.3-0.7,0.5-1.1,0.5c-0.5,0-0.8-0.2-1.1-0.5c-0.3-0.3-0.4-0.7-0.4-1.1v-10.8c0-0.5,0.1-0.8,0.4-1.1
					c0.3-0.3,0.7-0.5,1.1-0.5c0.5,0,0.8,0.2,1.1,0.5c0.3,0.3,0.4,0.7,0.4,1.1v0.3c0.4-0.7,1-1.3,1.7-1.6c0.8-0.4,1.6-0.6,2.4-0.6
					C551.1,241.5,551.5,241.7,551.9,242z"/>
			</g>
		</g>
		<g>
			<g class="st1">
				<linearGradient id="SVGID_1_" gradientUnits="userSpaceOnUse" x1="512.917" y1="186.8103" x2="512.917" y2="94.3211">
					<stop  offset="0" style="stop-color:#FFFFFF"/>
					<stop  offset="1" style="stop-color:#CFCFCF"/>
				</linearGradient>
				<path class="st15" d="M512.9,104.8c-11.2,0-20.3,9.1-20.3,20.3c0,2.9,0.6,5.7,1.8,8.3c5.1,11.1,14.8,22.8,17.6,26.1
					c0.2,0.3,0.5,0.4,0.9,0.4c0.3,0,0.6-0.1,0.9-0.4c2-2.4,7.5-8.9,12.3-16.5l-6.7-6.7c-1.9,1.1-4.1,1.8-6.5,1.8
					c-7,0-12.7-5.7-12.7-12.7c0-7,5.7-12.7,12.7-12.7c7,0,12.7,5.7,12.7,12.7c0,2.4-0.6,4.6-1.8,6.5l5.5,5.5c0.7-1.3,1.4-2.7,2-4
					c1.2-2.6,1.8-5.4,1.8-8.3C533.2,113.9,524.1,104.8,512.9,104.8z"/>
			</g>
			<g>
				<linearGradient id="SVGID_2_" gradientUnits="userSpaceOnUse" x1="512.9468" y1="146.3103" x2="512.9468" y2="114.2478">
					<stop  offset="0" style="stop-color:#FFFFFF"/>
					<stop  offset="1" style="stop-color:#CFCFCF"/>
				</linearGradient>
				<path class="st16" d="M522.5,125.4c0,5.3-4.3,9.5-9.5,9.5c-5.3,0-9.5-4.3-9.5-9.5c0-5.3,4.3-9.5,9.5-9.5
					C518.2,115.9,522.5,120.2,522.5,125.4z"/>
				<path class="st13" d="M505.5,125.4h2.1c0-2.9,2.4-5.3,5.3-5.3V118C508.9,118,505.5,121.3,505.5,125.4z"/>
			</g>
		</g>
	</g>
	<g id="Слой_18">
		<g>
			<linearGradient id="SVGID_3_" gradientUnits="userSpaceOnUse" x1="362.4677" y1="66.74" x2="362.4677" y2="-11.2629">
				<stop  offset="0" style="stop-color:#FFFFFF"/>
				<stop  offset="1" style="stop-color:#CFCFCF"/>
			</linearGradient>
			<path class="st17" d="M379.7,9.1c-4.4-5.1-10.8-8-17.5-7.9c-6.7,0.1-13.1,3.1-17.3,8.3c-9.3,11.2-9.1,27.4,0.4,38.3L360.9,65
				c0.5,0.6,1.3,0.9,2,0.9c0.8,0,1.5-0.4,2-0.9l15.2-17.6C389.4,36.3,389.2,20.1,379.7,9.1z M363.3,41.6c-8.2,0.1-14.9-6.5-15-14.7
				c-0.1-8.2,6.5-14.9,14.7-15c8.2-0.1,14.9,6.5,15,14.7C378,34.8,371.5,41.5,363.3,41.6z"/>
		</g>
		<g>
			<linearGradient id="SVGID_4_" gradientUnits="userSpaceOnUse" x1="123.741" y1="133.4067" x2="123.741" y2="-12.6314">
				<stop  offset="0" style="stop-color:#FFFFFF"/>
				<stop  offset="1" style="stop-color:#CFCFCF"/>
			</linearGradient>
			<path class="st18" d="M157.4,19.3c-8.6-9.9-21.1-15.6-34.2-15.4C110,4,97.6,10,89.3,20.1c-18.1,21.8-17.7,53.4,0.8,74.8
				l30.5,33.6c1,1.1,2.5,1.7,4,1.7c1.5,0,2.9-0.7,3.9-1.8l29.7-34.3C176.3,72.3,175.9,40.7,157.4,19.3z M125.3,82.8
				C109.3,83,96.2,70.2,96,54.2c-0.2-16,12.6-29.1,28.6-29.3c16-0.2,29.1,12.6,29.3,28.6C154.1,69.5,141.3,82.6,125.3,82.8z"/>
		</g>
		<g>
			<linearGradient id="SVGID_5_" gradientUnits="userSpaceOnUse" x1="257.8211" y1="326.0733" x2="257.8211" y2="227.2964">
				<stop  offset="0.4826" style="stop-color:#FFFFFF"/>
				<stop  offset="1" style="stop-color:#CFCFCF"/>
			</linearGradient>
			<path class="st21" d="M272.5,247.1c-3.7-4.3-9.2-6.8-14.9-6.7c-5.7,0.1-11.1,2.7-14.8,7.1c-7.9,9.5-7.7,23.3,0.4,32.6l13.3,14.6
				c0.4,0.5,1.1,0.8,1.7,0.7c0.7,0,1.3-0.3,1.7-0.8l13-14.9C280.7,270.3,280.6,256.5,272.5,247.1z M258.5,274.8
				c-7,0.1-12.7-5.5-12.8-12.5c-0.1-7,5.5-12.7,12.5-12.8c7-0.1,12.7,5.5,12.8,12.5C271.1,269,265.5,274.7,258.5,274.8z"/>
		</g>
		<g>
			<linearGradient id="SVGID_6_" gradientUnits="userSpaceOnUse" x1="29.5468" y1="260.0733" x2="29.5468" y2="175.9438">
				<stop  offset="0" style="stop-color:#FFFFFF"/>
				<stop  offset="1" style="stop-color:#CFCFCF"/>
			</linearGradient>
			<path class="st22" d="M49.4,192.4c-5.1-5.9-12.4-9.2-20.2-9.1c-7.7,0.1-15,3.6-19.9,9.6C-1.4,205.7-1.2,224.4,9.7,237l18,19.8
				c0.6,0.6,1.4,1,2.3,1c0.9,0,1.7-0.4,2.3-1.1l17.5-20.2C60.5,223.7,60.3,205,49.4,192.4z M30.5,229.8c-9.4,0.1-17.2-7.4-17.3-16.9
				c-0.1-9.4,7.5-17.2,16.9-17.3c9.4-0.1,17.2,7.5,17.3,16.9C47.4,222,39.9,229.7,30.5,229.8z"/>
		</g>
		<g>
			<linearGradient id="SVGID_7_" gradientUnits="userSpaceOnUse" x1="750.8598" y1="66.0733" x2="750.8598" y2="-3.9552">
				<stop  offset="0" style="stop-color:#FFFFFF"/>
				<stop  offset="1" style="stop-color:#CFCFCF"/>
			</linearGradient>
			<path class="st23" d="M763.1,21c-3.1-3.6-7.7-5.7-12.4-5.6c-4.8,0.1-9.3,2.2-12.3,5.9c-6.6,7.9-6.4,19.4,0.3,27.2l11.1,12.2
				c0.4,0.4,0.9,0.6,1.4,0.6c0.5,0,1.1-0.2,1.4-0.7l10.8-12.5C769.9,40.3,769.8,28.8,763.1,21z M751.4,44.1
				c-5.8,0.1-10.6-4.6-10.6-10.4c-0.1-5.8,4.6-10.6,10.4-10.6c5.8-0.1,10.6,4.6,10.6,10.4C761.9,39.2,757.2,44,751.4,44.1z"/>
		</g>
		<g>
			<linearGradient id="SVGID_8_" gradientUnits="userSpaceOnUse" x1="698.1899" y1="258.0733" x2="698.1899" y2="154.4308">
				<stop  offset="0" style="stop-color:#FFFFFF"/>
				<stop  offset="1" style="stop-color:#CFCFCF"/>
			</linearGradient>
			<path class="st24" d="M723.2,175.1c-6.4-7.4-15.7-11.6-25.5-11.5c-9.8,0.1-19,4.5-25.2,12.1c-13.5,16.2-13.2,39.8,0.6,55.7
				l22.7,25c0.7,0.8,1.8,1.3,2.9,1.3c1.1,0,2.2-0.5,2.9-1.3l22.1-25.5C737.3,214.6,737,191,723.2,175.1z M699.4,222.4
				c-11.9,0.1-21.7-9.4-21.8-21.3c-0.1-11.9,9.4-21.7,21.3-21.8c11.9-0.1,21.7,9.4,21.8,21.3C720.8,212.5,711.3,222.2,699.4,222.4z"
				/>
		</g>
	</g>
</g>
<g id="driver_x5F_history">
	<g id="Слой_21">
	</g>
	<g id="Слой_18__x28_копия_x29_">
	</g>
</g>
<g id="user_x5F_poezdki">
</g>
</svg>
