<svg xmlns="http://www.w3.org/2000/svg" xmlns:xlink="http://www.w3.org/1999/xlink" viewBox="0 0 766.83 311"><defs><style>.cls-1{opacity:0.8;}.cls-2{fill:#e5e5e5;}.cls-3{fill:#3f3faa;}.cls-4{fill:#4b45bd;}.cls-5{fill:#a9cee6;}.cls-6{fill:#0d1a38;}.cls-7{fill:#702b0a;}.cls-8{fill:#f4cdaf;}.cls-9{fill:#d1d1d1;}.cls-10{fill:#3c4043;}.cls-11{fill:#282828;}.cls-12{fill:#422d11;}.cls-13{fill:#3c5582;}.cls-14{fill:#304269;}.cls-15{fill:#253551;}.cls-16{fill:#fff;}.cls-17{fill:#c5cdeb;}.cls-18{fill:#e3e8fc;}.cls-19{fill:#7f9edd;}.cls-20{fill:#9db1e0;}.cls-21{fill:#b5c1e5;}.cls-22{opacity:0.41;}.cls-23{fill:#efbfa5;}.cls-24{fill:#3b455a;}.cls-25{fill:#39517c;}.cls-26{fill:#eac1a4;}.cls-27{fill:#e1e6fb;}.cls-28{fill:#484f5b;}.cls-29{fill:#bac5f4;}.cls-30{fill:#8cabef;}.cls-31{fill:url(#Безымянный_градиент_31);}.cls-32{fill:url(#Безымянный_градиент_31-2);}.cls-33{fill:url(#Безымянный_градиент_65);}.cls-34{fill:url(#Безымянный_градиент_67);}.cls-35{fill:url(#Безымянный_градиент_51);}.cls-36{fill:url(#Безымянный_градиент_65-2);}.cls-37{fill:url(#Безымянный_градиент_65-3);}.cls-38{fill:url(#Безымянный_градиент_65-4);}</style><linearGradient id="Безымянный_градиент_31" x1="511.52" y1="187.5" x2="511.52" y2="95.01" gradientUnits="userSpaceOnUse"><stop offset="0" stop-color="#fff"/><stop offset="1" stop-color="#cfcfcf"/></linearGradient><linearGradient id="Безымянный_градиент_31-2" x1="511.55" y1="147" x2="511.55" y2="114.94" xlink:href="#Безымянный_градиент_31"/><linearGradient id="Безымянный_градиент_65" x1="361.07" y1="67.43" x2="361.07" y2="-10.57" xlink:href="#Безымянный_градиент_31"/><linearGradient id="Безымянный_градиент_67" x1="122.34" y1="134.1" x2="122.34" y2="-11.94" xlink:href="#Безымянный_градиент_31"/><linearGradient id="Безымянный_градиент_51" x1="256.42" y1="326.76" x2="256.42" y2="227.99" gradientUnits="userSpaceOnUse"><stop offset="0.48" stop-color="#fff"/><stop offset="1" stop-color="#cfcfcf"/></linearGradient><linearGradient id="Безымянный_градиент_65-2" x1="28.15" y1="260.76" x2="28.15" y2="176.63" xlink:href="#Безымянный_градиент_31"/><linearGradient id="Безымянный_градиент_65-3" x1="749.46" y1="66.76" x2="749.46" y2="-3.27" xlink:href="#Безымянный_градиент_31"/><linearGradient id="Безымянный_градиент_65-4" x1="696.79" y1="258.76" x2="696.79" y2="155.12" xlink:href="#Безымянный_градиент_31"/></defs><title>illustrations</title><g id="driver_history"><g id="guy_02"><path class="cls-2" d="M604.63,170l-.55-.16-.47-.14-.88-.3c-.58-.2-1.14-.41-1.7-.63-1.12-.43-2.21-.9-3.29-1.41-2.15-1-13.86-6.86-16.88-10.85-1.56-2.1-2.82-6.61-3.87-8.68s-1.93-4.13-2.76-6.21-1.6-4.14-2.32-6.23c-.35-1-.7-2.08-1-3.13l-.5-1.57-.24-.79-.11-.38-.06-.18,0-.07s0,0,0,0v.05l0,.12c3-1.92-7,4.16,8.28-1.93a4.31,4.31,0,0,1-8.6.54c15.25-6.11,5.25,0,8.29-1.92l.06.14,0,.1,0,.1,0,.12.07.2.14.37.27.74.55,1.45c.37,1,.75,1.94,1.14,2.9.78,1.91,1.6,3.81,2.47,5.66s1.78,3.65,2.75,5.35,2.15,5.77,3.22,7c2.3,2.72,6.85,3.8,10.32,5.22,2.77,1.13,4.88,2.43,5.77,2.72.45.15.89.29,1.33.41l.64.18.31.08.22.05a5.69,5.69,0,0,1-2.73,11Z"/><path class="cls-3" d="M616.5,257.15c.17-4.4,3.35-37.78,2.15-42.81-.53-2.24,4.46.89,1.47-.36.41-6.12.56-10.45.33-11.89-1.28-7.94-17,14.77-17,14.77l2.83,89L610,306l0,.32s0-.11.07-.31l1.15.05s.52-4.79,1.32-12.31c1.57-7.94,3.34-17.23,3.59-20.14C616.6,268.24,616.32,261.55,616.5,257.15Z"/><path class="cls-4" d="M634.72,272.7a55.16,55.16,0,0,0-2.81-12.14c-.22-4-1.75-41.72-3.32-45.22-2.15-4.77-10.74-3.26-10.74-3.26l.49,2.38H618a53,53,0,0,1-5.61,1.6l16.93,90.65,5,.21S635.34,278.18,634.72,272.7Z"/><path class="cls-2" d="M603.47,216.67s-.56-48.21,1.44-53.17c3.38-8.38,15.23-10.46,23.11-6.16,1.79,4.84-.22,32.67-.22,32.67s-.09,14.38,2.72,25.74C626.94,214.51,603.47,216.67,603.47,216.67Z"/><path class="cls-5" d="M611.68,163.13c0,.38.2.7.46.7s.47-.32.47-.7-.2-.71-.46-.71S611.68,162.74,611.68,163.13Z"/><path class="cls-6" d="M615.81,163.53c0,1.7-1,3.07-2.32,3.07s-2.32-1.37-2.32-3.07,1-3.07,2.32-3.07S615.81,161.83,615.81,163.53Z"/><polygon class="cls-7" points="603.4 216.91 632.67 216.91 632.7 213.93 603.43 213.93 603.4 216.91"/><path class="cls-2" d="M629.78,159A92,92,0,0,1,638,173.24a53.53,53.53,0,0,1,2.9,8.06,40,40,0,0,1,1.35,8.7,37.38,37.38,0,0,1-.67,8.84,42,42,0,0,1-2.56,8.29,64,64,0,0,1-8.61,14.18,4.32,4.32,0,0,1-6.94-5.13l0-.05a55.47,55.47,0,0,0,6.86-12.45,29.64,29.64,0,0,0,1.9-13.06,35.42,35.42,0,0,0-3.93-12.82,81.94,81.94,0,0,0-7.78-12.15h0a5.69,5.69,0,0,1,9.09-6.83Z"/><path class="cls-8" d="M615.88,160.56a18.94,18.94,0,0,0-2.26,0,1.8,1.8,0,0,0-1.45.29c-1.36-4.12.88-12.34-.5-15.92,2.88.19,10.72,1.94,10.72,1.94s.08,4.7,0,8.67c-.66,3.31-2.36,6.11-4.72,7.23A2.53,2.53,0,0,0,615.88,160.56Z"/><path class="cls-9" d="M613.38,160.57l-3.3,3.36s-.15-5.89-.1-6.34,2-2,2-2S611.83,159.07,613.38,160.57Z"/><path class="cls-9" d="M631.35,221c.25-.2,2.76-4.58,2.76-4.58s-1.12-4.43-8.19-4.87a32,32,0,0,0-2.88,5.15Z"/><path class="cls-8" d="M622.75,225.5a5.73,5.73,0,1,1,8-1.29A5.68,5.68,0,0,1,622.75,225.5Z"/><path class="cls-9" d="M570.63,132.4c0,.33.73,4.43.73,4.43a9.4,9.4,0,0,0,10.2-3.45,31.6,31.6,0,0,0-2.62-5.28Z"/><path class="cls-8" d="M567.51,124.41c1.54-3.21,5.56-2.35,8.8-.79.56.27.22-2.24,1.07-2.21,2.82.1,3.12,6,1.85,8.64a6.5,6.5,0,0,1-11.72-5.64Z"/><path class="cls-10" d="M608.7,135.25a12.08,12.08,0,0,0-1.17,5.47,1.74,1.74,0,0,1-.38,1.39c-.41.34,0,1-.35.61a9.28,9.28,0,0,1-1.59-2.35,20.52,20.52,0,0,1-.19-3.76,5.46,5.46,0,0,1,.87-3.1,6.22,6.22,0,0,1,1.45-1.25,8,8,0,0,1,2.45-1.28c1.55-.37,2.54.15,1.22,1.33A9.48,9.48,0,0,0,608.7,135.25Z"/><path class="cls-8" d="M619.49,156.07l-6.42,1a40.41,40.41,0,0,1-.86-5.7c-1.89-.23-4.13-.73-4.87-2.69a6.87,6.87,0,0,1-.31-2l-.48-8.29a8,8,0,0,1,.17-2.85,5.68,5.68,0,0,1,3.25-3.25,12.05,12.05,0,0,1,11.13.11,6.13,6.13,0,0,1,2.34,2.16,9.78,9.78,0,0,1,.82,5.12l-.09,4.87c0,1.86-.2,4-1.57,5.08-.73.56-1.7.7-2.31,1.41C619.2,152.27,619.83,154.36,619.49,156.07Z"/><path class="cls-10" d="M606.8,148.29a6.81,6.81,0,0,0,2.66,4.2c1.56,1,3.46,1,5.25.94l2.94-.09c2.48-.07,4.93-.54,6.07-3.36a8.65,8.65,0,0,0,.49-4.2,2.78,2.78,0,0,0-.3-1.12.93.93,0,0,0-.89-.51c-.43.09-.67.6-.93,1a2.17,2.17,0,0,1-2.55,1,3.57,3.57,0,0,1-.74-.5l-.29-.23a6.18,6.18,0,0,0-3.27-1.14c-1-.08-2.47-.38-3.17.54l-1.2,1.62a2.68,2.68,0,0,1-.56.6,1.54,1.54,0,0,1-.76.23,1.61,1.61,0,0,1-1.68-.93,3.57,3.57,0,0,1-.15-1,1.62,1.62,0,0,0-.29-.91c-.78-.91-.92.6-.93,1.12A11.64,11.64,0,0,0,606.8,148.29Zm6.78.11a2.62,2.62,0,0,0,2.49.15c.44-.16.67.62.23.78a3.29,3.29,0,0,1-3-.2C612.84,148.87,613.17,148.14,613.58,148.4Z"/><path class="cls-10" d="M605.17,130.63a14.19,14.19,0,0,1-.5-2,3.87,3.87,0,0,0,2,.06l0-1.19c0-.33,4.37-.79,4.72-.84,3.34-.45,6.38-.88,9.5.79a9.27,9.27,0,0,1,5,6.68,14.47,14.47,0,0,1-1.74,9.2,20.92,20.92,0,0,0,.1-3.34,6.66,6.66,0,0,0-.81-2.06,8.63,8.63,0,0,0-3.15-3,16.18,16.18,0,0,0-6.63-1.89,17.51,17.51,0,0,0-6.69.34c-1,.32-1.13.58-1.78-.4a19.39,19.39,0,0,1-1-2.23Z"/><path class="cls-11" d="M611.21,306.1a11,11,0,0,0-5-.22c-2.66.47-6.17,1.09-6.42,1.54a1.94,1.94,0,0,0-.14,1.12s11.1-.12,11.55-.37S611.21,306.1,611.21,306.1Z"/><path class="cls-11" d="M634.29,306.1a11,11,0,0,0-4.95-.22c-2.66.47-6.18,1.09-6.43,1.54a2,2,0,0,0-.14,1.12s11.1-.12,11.56-.37S634.29,306.1,634.29,306.1Z"/><path class="cls-3" d="M620.22,218.29s11.45,5.19,10.64,6.39-1.39,6.54-5.93,6.27-5.85-2.4-5.83-4.53A79.42,79.42,0,0,1,620.22,218.29Z"/><path class="cls-12" d="M613.79,217.51h-4.71a1.59,1.59,0,0,1-1.58-1.59l0-1.4a1.22,1.22,0,0,1,1.22-1.21h5.08a1.59,1.59,0,0,1,1.58,1.59v1A1.61,1.61,0,0,1,613.79,217.51Zm-5-3.66a.69.69,0,0,0-.68.68l0,1.39a1.07,1.07,0,0,0,.3.74,1,1,0,0,0,.74.31h4.71a1.06,1.06,0,0,0,1.06-1.05v-1a1.07,1.07,0,0,0-.3-.74,1,1,0,0,0-.74-.31Z"/><path class="cls-12" d="M615.09,215.71h-4a.27.27,0,0,1,0-.54h4a.27.27,0,1,1,0,.54Z"/><polygon class="cls-9" points="617.18 164.63 613.38 160.57 622.46 153.99 624.48 155.97 617.18 164.63"/><polygon class="cls-6" points="612.56 164.85 609.67 205.39 611.38 210 613.74 205.71 613.64 165.17 612.56 164.85"/></g><g id="guys"><path class="cls-13" d="M584.82,224.59a6.5,6.5,0,0,1,3.68-.14c2.07.51,22.46-1.37,21.22-11.29s-15.21-3.39-16.07-2.93a14.37,14.37,0,0,0-4.88,6.4c-.83,2.85-5.25,2.07-5.25,2.07Z"/><rect class="cls-14" x="442.87" y="292.91" width="132.03" height="6.82"/><rect class="cls-15" x="414.85" y="260.26" width="39.05" height="48.26" rx="4.38" ry="4.38"/><rect class="cls-15" x="570.02" y="260.26" width="39.05" height="48.26" rx="4.38" ry="4.38" transform="translate(1179.1 568.77) rotate(180)"/><path class="cls-14" d="M605.4,287.24c.16-1.07,2.5-37.65,2.39-42.88s-3.25-5.73-4-6.5-.83-2.21-1-3.14-6.08-3.45-9.14-4.55a9,9,0,0,1-4.66-3.44,4.49,4.49,0,0,0-2.61-1.21l-25.46-9.37-49.05.47-49.06-.47-25.46,9.37a4.49,4.49,0,0,0-2.61,1.21,9,9,0,0,1-4.66,3.44c-3.06,1.1-8.92,3.61-9.14,4.55s-.28,2.37-1.05,3.14-3.91,1.26-4,6.5,2.23,41.81,2.4,42.88-1.74,7.61,10.24,9.18c11.62,1.52,79.26,1.31,83.36,1.29s71.73.23,83.35-1.29C607.13,294.85,605.23,288.32,605.4,287.24Z"/><path class="cls-14" d="M588.92,226.73a9,9,0,0,0,4.66,3.44c3.06,1.1,8.92,3.61,9.14,4.55,0,0-2,8-9.67,11.72s-38,8.33-36.88,7.5,19.64-11.85,30.14-28.42A4.49,4.49,0,0,1,588.92,226.73Z"/><path class="cls-16" d="M556.17,254.71c0-.75,9.8-4.29,19.59-6.93,8.59-2.32,14.89-4,16.66-2.43,3.8,3.27,3.87,11.87,2.23,13.45s-3.27,2.92-8.58,2.86-18.64-.15-20.65-.9S556.39,257.65,556.17,254.71Z"/><path class="cls-14" d="M434.67,226.73a9,9,0,0,1-4.66,3.44c-3.06,1.1-8.92,3.61-9.14,4.55,0,0,2,8,9.67,11.72s38,8.33,36.88,7.5-19.64-11.85-30.14-28.42A4.49,4.49,0,0,0,434.67,226.73Z"/><path class="cls-13" d="M566,223.16c-1.15,0-49.55-5.91-54.38-6.5v0l-.2,0-.19,0v0c-4.84.59-53.23,6.5-54.38,6.5s-18.11,2.48-18.11,2.48,25,26.64,34,29.66c12.2.75,36.33.07,38.72,0s26.53.75,38.73,0c9-3,34-29.66,34-29.66S567.25,223.16,566,223.16Z"/><path class="cls-14" d="M439.11,225.64s24.68,5.91,68.53,5.91,78.24-6,76.42-5.86-30.59-.75-37.36-.05-36.38,1-36.38,1-26.24-2-30.05-2.24-17,0-17,0Z"/><path class="cls-14" d="M565.54,182.87C556,178.25,513,178.58,512,178.58s-44-.33-53.55,4.29-21.16,42.65-21.16,42.65S500,229.78,512,229.78c11.81,0,74.71-4.26,74.71-4.26S575.13,187.5,565.54,182.87Z"/><path class="cls-17" d="M439.11,225.64c10.39.7,62.08,4.14,72.88,4.14,10.61,0,62.47-3.44,72.88-4.14-1.93-5.83-12.56-36.83-21-40.9-9.34-4.48-50.89-4.16-51.85-4.16s-42.51-.32-51.85,4.16C451.67,188.81,441,219.81,439.11,225.64Z"/><path class="cls-18" d="M512,229.78c8,0,37.87-1.9,58.6-3.29-3.5-10.81-9.87-28.3-15.22-31.22-7.81-4.27-42.58-4-43.38-4s-35.57-.3-43.38,4c-5.35,2.92-11.72,20.41-15.22,31.22C474.06,227.88,503.88,229.78,512,229.78Z"/><path class="cls-19" d="M512,229.78c7.11,0,31.66-1.51,51.6-2.82l-1.51-9.05A10.65,10.65,0,0,0,551.57,209H470a10.66,10.66,0,0,0-10.51,8.91L458,226.8C478.24,228.15,504.46,229.78,512,229.78Z"/><path class="cls-20" d="M527.51,229.22A44,44,0,0,0,534,217.66c3-8.38,5.63-15.3,12-15.38,6.36.08,9,7,12,15.38,2.37,6.66,8.29,8.43,11.23,9.06C556.55,227.54,539.83,228.58,527.51,229.22Z"/><path class="cls-20" d="M497.17,229.22a44.62,44.62,0,0,1-6.49-11.56c-3-8.38-5.63-15.3-12-15.38-6.35.08-9,7-12,15.38-2.37,6.66-8.28,8.43-11.23,9.06C468.14,227.54,484.85,228.58,497.17,229.22Z"/><path class="cls-19" d="M536.73,227.4a10,10,0,0,1-.07-1.23,9.87,9.87,0,0,1,19.73,0c0,.32,0,.64,0,1,1.09-.1,2.18-.19,3.28-.25,0-.23,0-.47,0-.71a13.12,13.12,0,1,0-26.24,0c0,.45,0,.9.07,1.34C534.56,227.43,535.64,227.4,536.73,227.4Z"/><path class="cls-21" d="M582,225.83h.21l.28,0h.1l1.18-.08.27,0,.41,0,.4,0-.14-.44-.19-.55v0c-2.61-7.74-12.63-36-20.69-39.88-9.34-4.48-50.89-4.16-51.85-4.16s-42.51-.32-51.85,4.16c-8.47,4.07-19.1,35.07-21,40.9l3.28.22h0c15.19,1,59.67,3.92,69.6,3.92S567.24,226.81,582,225.83Zm-137.2-7.12c4-11.29,11.33-29.66,17.47-32.72,8.95-4.46,48.78-4.14,49.7-4.14s40.75-.32,49.7,4.14c6.28,3.13,13.78,22.24,17.72,33.45a12.59,12.59,0,0,1-6.28,3.86c-7.41,2.37-13.41-3.34-25.68-3.34s-15.23,7.08-22,7.26-68.95-3.57-75.47-4.79A6.59,6.59,0,0,1,444.82,218.71Z"/><rect class="cls-19" x="509.68" y="180.58" width="4.42" height="6.02"/><path class="cls-19" d="M517.71,193H506.53a4.16,4.16,0,0,1-4.13-4.62l.12-1.05a1.86,1.86,0,0,1,1.84-1.64h15.52a1.86,1.86,0,0,1,1.84,1.64l.11,1.05A4.15,4.15,0,0,1,517.71,193Z"/><path class="cls-13" d="M438.76,224.59a6.55,6.55,0,0,0-3.69-.14c-2.06.51-22.45-1.37-21.21-11.29s15.2-3.39,16.07-2.93a14.37,14.37,0,0,1,4.88,6.4c.82,2.85,5.24,2.07,5.24,2.07Z"/><path class="cls-15" d="M527.57,252.94c-6.25,0-11.94.09-14.38.13l-1.2,0-1.2,0c-2.43,0-8.13-.13-14.38-.13-22.17,0-23.4,1.09-24,1.61s-1.14,1.6-1,5.93a89.7,89.7,0,0,0,1.08,10.12c1.06,6.78,3,10,5.4,14.35,1.12,2.05,5.11,3.56,12.22,4.63a172.43,172.43,0,0,0,43.7,0C541,288.51,545,287,546.06,285c2.36-4.33,4.34-7.57,5.4-14.35a89.7,89.7,0,0,0,1.08-10.12c.16-4.33-.4-5.42-1-5.93s-1.83-1.61-24-1.61Z"/><path class="cls-16" d="M467.42,254.71c.1-1.42-34.71-12.63-38.51-9.36s-3.87,11.87-2.22,13.45,5.52,2.92,10.83,2.86,18.64-.15,20.65-.9S467.2,257.65,467.42,254.71Z"/><g class="cls-22"><path class="cls-16" d="M471.43,227.73l5.23.32c8.15-14.79,17.55-31.89,26.06-47.43-1.81,0-3.81.06-5.92.11Z"/><path class="cls-16" d="M510.06,180.57h-3.13l-25.77,47.74,2.81.17C492.1,213.58,501.53,196.28,510.06,180.57Z"/><path class="cls-16" d="M547.6,181.77c-1.83-.16-3.72-.3-5.63-.42l-26.1,48.35c1.58,0,3.44-.13,5.51-.22C529.5,214.72,539,197.5,547.6,181.77Z"/><path class="cls-16" d="M554.5,182.52c-.94-.13-1.91-.25-2.92-.36l-25.41,47.09,3-.16C537,214.66,546.14,197.91,554.5,182.52Z"/></g><path class="cls-16" d="M492.17,264.33a1,1,0,0,1,.32.78,1,1,0,0,1-.32.76,1.13,1.13,0,0,1-.81.29h-2.89v9.64a1,1,0,0,1-.35.8,1.2,1.2,0,0,1-.86.33,1.15,1.15,0,0,1-.85-.33,1.06,1.06,0,0,1-.33-.8v-9.64h-2.89a1.13,1.13,0,0,1-.81-.3,1,1,0,0,1-.31-.77,1,1,0,0,1,.32-.76,1.16,1.16,0,0,1,.8-.29h8.17A1.13,1.13,0,0,1,492.17,264.33Z"/><path class="cls-16" d="M498.33,267.21a.89.89,0,0,1,.38.73,1.18,1.18,0,0,1-.29.86,1,1,0,0,1-.7.28,1.77,1.77,0,0,1-.63-.13l-.25-.07a1.36,1.36,0,0,0-.41-.05,1.59,1.59,0,0,0-.92.29,2.12,2.12,0,0,0-.73.89,3.32,3.32,0,0,0-.28,1.43v4.36a1.09,1.09,0,0,1-.32.8,1.11,1.11,0,0,1-1.58,0,1.09,1.09,0,0,1-.31-.8v-7.6a1.09,1.09,0,0,1,.31-.8,1.14,1.14,0,0,1,1.58,0,1.09,1.09,0,0,1,.32.8v.24a2.75,2.75,0,0,1,1.21-1.15,3.67,3.67,0,0,1,1.7-.4A1.39,1.39,0,0,1,498.33,267.21Z"/><path class="cls-16" d="M500,265.68a.89.89,0,0,1-.26-.72v-.35a.83.83,0,0,1,.28-.72,2.08,2.08,0,0,1,1.78,0,.86.86,0,0,1,.26.72V265a.87.87,0,0,1-.26.73,1.64,1.64,0,0,1-.92.19A1.5,1.5,0,0,1,500,265.68Zm1.69,10.92a1,1,0,0,1-.79.33,1,1,0,0,1-.79-.33,1.09,1.09,0,0,1-.31-.8v-7.6a1.09,1.09,0,0,1,.31-.8,1,1,0,0,1,.79-.32,1,1,0,0,1,.79.32,1.09,1.09,0,0,1,.32.8v7.6A1.09,1.09,0,0,1,501.72,276.6Z"/><path class="cls-16" d="M511.54,267.55a4.62,4.62,0,0,1,1.63,1.81,6.23,6.23,0,0,1,0,5.27,4.58,4.58,0,0,1-1.62,1.83,4.13,4.13,0,0,1-2.25.65,4,4,0,0,1-1.67-.36,4.62,4.62,0,0,1-1.3-.87v3.61a1.1,1.1,0,0,1-.31.8,1.15,1.15,0,0,1-1.58,0,1.1,1.1,0,0,1-.32-.81V268.2a1.09,1.09,0,0,1,.32-.8,1.14,1.14,0,0,1,1.58,0,1.09,1.09,0,0,1,.31.8v.07a3.76,3.76,0,0,1,1.24-1,3.49,3.49,0,0,1,1.65-.42A4.21,4.21,0,0,1,511.54,267.55Zm-.65,6.65a3.24,3.24,0,0,0,.76-2.21,3.28,3.28,0,0,0-.75-2.2,2.61,2.61,0,0,0-3.89,0,3.58,3.58,0,0,0,0,4.41,2.56,2.56,0,0,0,3.88,0Z"/><path class="cls-16" d="M518.81,265.61a1.27,1.27,0,0,0-.26.79v.86h1.67a1,1,0,0,1,.74.29,1.05,1.05,0,0,1,0,1.45,1,1,0,0,1-.74.29h-1.67v6.51a1.09,1.09,0,0,1-.32.8,1,1,0,0,1-.79.33,1,1,0,0,1-.79-.33,1.09,1.09,0,0,1-.31-.8v-6.51h-1a1,1,0,0,1-.73-.29,1,1,0,0,1,0-1.45,1,1,0,0,1,.73-.29h1v-.85a2.85,2.85,0,0,1,.95-2.24,3.89,3.89,0,0,1,2.73-.87,2.41,2.41,0,0,1,1.19.28.89.89,0,0,1,.5.85,1,1,0,0,1-.25.71.82.82,0,0,1-.63.28l-.19,0-.21,0a3.39,3.39,0,0,0-.74-.11A1,1,0,0,0,518.81,265.61Z"/><path class="cls-16" d="M530.63,272.49a1.2,1.2,0,0,1-.77.28h-6.08a2.84,2.84,0,0,0,2.8,2.32,4,4,0,0,0,1.18-.14,2.65,2.65,0,0,0,.67-.3l.34-.21a1.4,1.4,0,0,1,.63-.16.9.9,0,0,1,.66.27.88.88,0,0,1,.28.65,1.14,1.14,0,0,1-.52.9,4.44,4.44,0,0,1-1.38.72,5.54,5.54,0,0,1-1.75.29,5.38,5.38,0,0,1-2.69-.64,4.55,4.55,0,0,1-1.78-1.78,5.13,5.13,0,0,1-.63-2.55,5.55,5.55,0,0,1,.67-2.78,4.66,4.66,0,0,1,1.74-1.83,4.49,4.49,0,0,1,2.32-.64,4.24,4.24,0,0,1,2.3.67,4.9,4.9,0,0,1,1.72,1.78,4.8,4.8,0,0,1,.64,2.43A.93.93,0,0,1,530.63,272.49Zm-6.83-1.57h4.83v-.12a1.9,1.9,0,0,0-.76-1.33,2.37,2.37,0,0,0-1.55-.55A2.29,2.29,0,0,0,523.8,270.92Z"/><path class="cls-16" d="M538.59,267.21a.91.91,0,0,1,.37.73,1.18,1.18,0,0,1-.29.86,1,1,0,0,1-.7.28,1.77,1.77,0,0,1-.63-.13l-.25-.07a1.32,1.32,0,0,0-.41-.05,1.59,1.59,0,0,0-.92.29,2.12,2.12,0,0,0-.73.89,3.32,3.32,0,0,0-.28,1.43v4.36a1.09,1.09,0,0,1-.32.8,1.11,1.11,0,0,1-1.58,0,1.09,1.09,0,0,1-.31-.8v-7.6a1.09,1.09,0,0,1,.31-.8,1.14,1.14,0,0,1,1.58,0,1.09,1.09,0,0,1,.32.8v.24a2.75,2.75,0,0,1,1.21-1.15,3.67,3.67,0,0,1,1.7-.4A1.44,1.44,0,0,1,538.59,267.21Z"/></g><path class="cls-23" d="M400.54,303.15a27.87,27.87,0,0,0,3.17-.3c.54-10.46-.45-21.42-.88-31.93l-8.06.43a93.77,93.77,0,0,1,4,17.28C398.88,289.56,400.39,303.14,400.54,303.15Z"/><path class="cls-24" d="M404,300.82a1.61,1.61,0,0,1,1.5.58c.25.23.43.57.74.73a2.44,2.44,0,0,0,1,.24c1.94.2,6.4.11,4,3.36-2.16,2.94-7.9,1.77-11.22,1a1.09,1.09,0,0,1-.6-.26,1.5,1.5,0,0,1-.34-.65c-.38-1.39-.9-3.12.81-3.7.72-.25,1.39.23,2.16,0S403.37,300.94,404,300.82Z"/><path class="cls-14" d="M408.86,277.22l-16.44-.31q-6.65-31.67-11.71-63.61a11.42,11.42,0,0,1,0-5c.9-3,4.15-4.77,7.26-5.35,4.83-.9,13.7.36,16.18,5.38,2.62,5.31,2.18,14.79,2.81,20.65A357.7,357.7,0,0,1,408.86,277.22Z"/><path class="cls-23" d="M377.56,303.15a27.48,27.48,0,0,1-3.16-.3c-.55-10.46.44-21.42.87-31.93l8.06.43a93.77,93.77,0,0,0-4,17.28C379.22,289.56,377.71,303.14,377.56,303.15Z"/><path class="cls-24" d="M378,300.82a1.6,1.6,0,0,1,1.5.58c.26.23.43.57.74.73a2.48,2.48,0,0,0,1,.24c1.94.2,6.41.11,4,3.36-2.16,2.94-7.9,1.77-11.21,1a1.12,1.12,0,0,1-.61-.26,1.5,1.5,0,0,1-.34-.65c-.38-1.39-.89-3.12.81-3.7.73-.25,1.4.23,2.17,0S377.3,300.94,378,300.82Z"/><path class="cls-25" d="M369.9,277.22l16.43-.31Q393,245.25,398,213.3a11.27,11.27,0,0,0,0-5c-.9-3-4.15-4.77-7.25-5.35-4.83-.9-13.71.36-16.19,5.38-2.61,5.31-2.17,14.79-2.81,20.65A356.06,356.06,0,0,0,369.9,277.22Z"/><g id="Слой_21" data-name="Слой 21"><path class="cls-26" d="M403.85,151.74l3.59-.32.12-4.75a2,2,0,0,0-1.06-1.83l-1.24-.66a2,2,0,0,0-2,0h0a2,2,0,0,0-.66,2.84l.4.62-.67.06-.74-.62s-.4-.19-.56-.06-.05.8-.05.8Z"/><path class="cls-27" d="M399.19,187.3a52.35,52.35,0,0,1-9.26-26.1c-.09-1.17.21-2.76,1.39-2.83a2,2,0,0,1,1.27.5c3.11,2.26,4.55,6.13,7,9.08.48.59,1.33,1.17,1.93.71a1.47,1.47,0,0,0,.42-1c.33-2.6-.13-5.38,0-8.05.12-2-.37-7.88,1.14-8.83.32-.2,4.81-.55,4.8-.63q1.31,7.16,2.62,14.3,1,5.34,2,10.69c1,5.35.44,13.8-2.83,18.33a3.51,3.51,0,0,1-2.39,1.67c-1.18.1-2.19-.79-3-1.65A50.11,50.11,0,0,1,399.19,187.3Z"/><g id="_Группа_" data-name="&lt;Группа&gt;"><polyline id="_Контур_" data-name="&lt;Контур&gt;" class="cls-14" points="392.18 246.67 388.07 230.72 409.84 229.7"/></g><polygon class="cls-28" points="373.16 231.76 370.74 223.44 373.16 214 409.84 215.37 409.84 229.7 373.16 231.76"/><path class="cls-29" d="M392.14,155.39l-6.36-.57a9.92,9.92,0,0,0-9.89,5.72A163.81,163.81,0,0,0,367,186a101.21,101.21,0,0,0-1.66,44.49s20-3.88,48.27-.39l-8.24-58.55-6.05-11.43A9,9,0,0,0,392.14,155.39Z"/><path class="cls-4" d="M402.62,211.37h-.2v-3.74a4.12,4.12,0,0,0-4.13-4.12H377.17a4.11,4.11,0,0,0-4.12,4.12v3.74h-.23a1.25,1.25,0,0,0-1.24,1.25V215h6.36v-2.35a1.25,1.25,0,0,0-1.25-1.25h-.53v-3a1.77,1.77,0,0,1,1.77-1.77h19.61a1.76,1.76,0,0,1,1.76,1.77v3h-.55a1.25,1.25,0,0,0-1.25,1.25V215h6.36v-2.35A1.25,1.25,0,0,0,402.62,211.37Z"/><rect class="cls-30" x="347.38" y="214.07" width="80.67" height="61.62" rx="11.72" ry="11.72"/><rect class="cls-4" x="360.26" y="213.59" width="4.04" height="62.91" rx="1.19" ry="1.19"/><rect class="cls-4" x="410.76" y="213.59" width="4.04" height="62.91" rx="1.81" ry="1.81"/><path class="cls-27" d="M387,170.19a54.11,54.11,0,0,1-2.74,5.22c-3.32,6.1-5.22,12.84-7.1,19.52a8.28,8.28,0,0,0-.35,4.59c.35,1.29,1,1.75.54,3.11-1,3.22-3.19,3.44-5.35,1.54a64.25,64.25,0,0,1-8.43-8.94,6.45,6.45,0,0,1-1.33-2.38,6.34,6.34,0,0,1,.21-3,86,86,0,0,1,14-30.68c.87-1.2,1.89-2.46,3.33-2.81a5.07,5.07,0,0,1,4.13,1.18,10.42,10.42,0,0,1,3.92,9.71A12.62,12.62,0,0,1,387,170.19Z"/><polygon class="cls-26" points="376.31 202.21 374.3 204.91 378.65 209.05 382.05 207.95 382.58 204.93 379.83 204.4 380.21 203.89 381.13 203.81 380.96 202.88 376.31 202.21"/></g><path class="cls-23" d="M397.8,147.07a37.68,37.68,0,0,1-3.3,5,11.29,11.29,0,0,0-1.75,4.94c-.2,1.36-.68,2.41-2.31,2.64-3.07.44-2.2-2.1-2.89-3.94-.8-2.11-2.5-3.78-3.69-5.66-3.43-5.44-2.45-16.2,4.68-18.49C396.35,129,400.31,141.56,397.8,147.07Z"/><path class="cls-24" d="M385.36,141.8a4,4,0,0,0-2.52.7c-.65.6-.58,1.89.29,2s1.8-.69,2.28-.09c.28.35,0,.86-.18,1.27a7.45,7.45,0,0,0-.68,5.06c-.32.3-.83,0-1.11-.32a16.5,16.5,0,0,1-3.24-5.31,3.25,3.25,0,0,1-1.18,1.15,3.82,3.82,0,0,0-.08-2.29c-.66-2.75-1.12-6,.8-8.22a7.2,7.2,0,0,1,4.17-2.19,21,21,0,0,1,4.76-.15c.68,0,1.51.18,1.67.81a7.61,7.61,0,0,0-3.77,3.16C386.35,137.85,385.45,141.8,385.36,141.8Z"/><path class="cls-24" d="M388.5,135.19l-.16.12a6.74,6.74,0,0,1-2.12,1.36c-1.17.33-2.44-.24-3.59.16-1.3.45-2.15,2-3.09,2.91A13.62,13.62,0,0,1,374,143a14.22,14.22,0,0,1-3.24.58,5.7,5.7,0,0,1-1.65,0c-.65-.18-.63-.47.07-.7,2.17-.69,2.86-3.75,2.69-5.78-.13-1.6-.68-3.27-.07-4.76a5.7,5.7,0,0,1,2.44-2.37c1.06-.72,2.22-.52,3.43-.87s2.3-1.35,3.59-1.61,2.72.34,4.09.6a8.34,8.34,0,0,0,3.41,0,13.86,13.86,0,0,1,3-.62,4.92,4.92,0,0,1,3.79,2.2,10.08,10.08,0,0,1,1.62,7c.07-.36-1.13-1.64-1.37-1.92a3.2,3.2,0,0,0-1.95-1.23A8.38,8.38,0,0,0,388.5,135.19Z"/><g class="cls-1"><path class="cls-31" d="M511.52,105.5a20.3,20.3,0,0,0-20.27,20.27,19.74,19.74,0,0,0,1.77,8.28c5.07,11.09,14.79,22.8,17.65,26.12a1.1,1.1,0,0,0,1.7,0,150.84,150.84,0,0,0,12.3-16.46L518,137.05a12.68,12.68,0,1,1,4.5-4.5l5.5,5.51c.72-1.34,1.4-2.67,2-4a19.74,19.74,0,0,0,1.77-8.28A20.3,20.3,0,0,0,511.52,105.5Z"/></g><path class="cls-32" d="M521.08,126.1a9.53,9.53,0,1,1-9.53-9.54A9.54,9.54,0,0,1,521.08,126.1Z"/><path class="cls-16" d="M504.14,126.1h2.11a5.31,5.31,0,0,1,5.3-5.3v-2.12A7.42,7.42,0,0,0,504.14,126.1Z"/><g id="Слой_18_копия_" data-name="Слой 18 (копия)"><path class="cls-33" d="M378.29,9.79a22.81,22.81,0,0,0-34.87.39,29.63,29.63,0,0,0,.44,38.35l15.61,17.21a2.71,2.71,0,0,0,2,.88,2.78,2.78,0,0,0,2-.93l15.22-17.56A29.64,29.64,0,0,0,378.29,9.79ZM361.88,42.33a14.84,14.84,0,1,1,14.67-15A14.83,14.83,0,0,1,361.88,42.33Z"/><path class="cls-34" d="M156,20a44.5,44.5,0,0,0-68.06.77,57.8,57.8,0,0,0,.85,74.82l30.46,33.59a5.31,5.31,0,0,0,4,1.72,5.37,5.37,0,0,0,3.93-1.81l29.7-34.26A57.86,57.86,0,0,0,156,20Zm-32,63.51a29,29,0,1,1,28.63-29.28A29,29,0,0,1,123.93,83.51Z"/><path class="cls-35" d="M271.08,247.83a19.41,19.41,0,0,0-29.67.33,25.21,25.21,0,0,0,.36,32.63l13.29,14.65a2.31,2.31,0,0,0,1.73.75,2.36,2.36,0,0,0,1.71-.79l12.95-14.94A25.23,25.23,0,0,0,271.08,247.83Zm-14,27.69a12.63,12.63,0,1,1,12.48-12.76A12.62,12.62,0,0,1,257.12,275.52Z"/><path class="cls-36" d="M48,193.1a26.22,26.22,0,0,0-40.11.46,34.08,34.08,0,0,0,.5,44.1l18,19.79A3.13,3.13,0,0,0,31,257.4l17.51-20.2A34.1,34.1,0,0,0,48,193.1ZM29.08,230.53A17.07,17.07,0,1,1,46,213.28,17.05,17.05,0,0,1,29.08,230.53Z"/><path class="cls-37" d="M761.68,21.69a16.16,16.16,0,0,0-24.74.28,21,21,0,0,0,.31,27.2l11.07,12.21a1.93,1.93,0,0,0,1.44.62,2,2,0,0,0,1.43-.66L762,48.89A21,21,0,0,0,761.68,21.69ZM750,44.77a10.53,10.53,0,1,1,10.41-10.64A10.53,10.53,0,0,1,750,44.77Z"/><path class="cls-38" d="M721.82,175.79a33.13,33.13,0,0,0-50.67.57,43.05,43.05,0,0,0,.62,55.72l22.69,25a3.93,3.93,0,0,0,5.87-.07l22.12-25.51A43.08,43.08,0,0,0,721.82,175.79ZM698,223.08a21.56,21.56,0,1,1,21.32-21.81A21.56,21.56,0,0,1,698,223.08Z"/></g></g></svg>