<?xml version="1.0" encoding="utf-8"?>
<!-- Generator: Adobe Illustrator 22.1.0, SVG Export Plug-In . SVG Version: 6.00 Build 0)  -->
<svg version="1.1" xmlns="http://www.w3.org/2000/svg" xmlns:xlink="http://www.w3.org/1999/xlink" x="0px" y="0px"
	 viewBox="0 0 770.5 307.5" style="enable-background:new 0 0 770.5 307.5;" xml:space="preserve">
<style type="text/css">
	.st0{display:none;}
	.st1{opacity:0.8;}
	.st2{fill:#E1E6FB;}
	.st3{fill:#F4CDAF;}
	.st4{fill:#D1D1D1;}
	.st5{fill:#373791;}
	.st6{fill:#EFEFEF;}
	.st7{fill:#304269;}
	.st8{fill:#3F3FAA;}
	.st9{fill:#4B45BD;}
	.st10{fill:#DEDAE8;}
	.st11{fill:#BAC5F4;}
	.st12{fill:#3C4043;}
	.st13{fill:#FFFFFF;}
	.st14{fill:#F8F8FF;}
	.st15{fill:url(#SVGID_1_);}
	.st16{fill:url(#SVGID_2_);}
	.st17{fill:url(#SVGID_3_);}
	.st18{fill:url(#SVGID_4_);}
	.st19{fill:#F5F5FC;}
	.st20{fill:#F7F7F7;stroke:#E1E6FB;stroke-width:3;stroke-miterlimit:10;}
	.st21{fill:url(#SVGID_5_);}
	.st22{fill:url(#SVGID_6_);}
	.st23{fill:url(#SVGID_7_);}
	.st24{fill:url(#SVGID_8_);}
	.st25{fill:url(#SVGID_9_);}
	.st26{fill:#F7F7F7;}
	.st27{fill:url(#SVGID_10_);}
	.st28{fill:url(#SVGID_11_);}
	.st29{display:none;fill:#F7F7F7;}
	.st30{fill:url(#SVGID_12_);}
	.st31{fill:url(#SVGID_13_);}
	.st32{fill:url(#SVGID_14_);}
	.st33{fill:url(#SVGID_15_);}
	.st34{fill:url(#SVGID_16_);}
	.st35{fill:url(#SVGID_17_);}
	.st36{fill:#EAC5B0;}
	.st37{opacity:0.2;fill:#BAC5F4;}
	.st38{opacity:0.57;}
	.st39{fill:#E5E5E7;}
	.st40{fill:none;stroke:#D1D1D1;stroke-miterlimit:10;}
	.st41{fill:#47BEC4;}
	.st42{fill:none;stroke:#FFFFFF;stroke-width:2;stroke-miterlimit:10;}
	.st43{fill:#F77A4B;}
	.st44{fill:url(#SVGID_18_);}
	.st45{fill:url(#SVGID_19_);}
	.st46{fill:url(#SVGID_20_);}
	.st47{fill:url(#SVGID_21_);}
	.st48{fill:url(#SVGID_22_);}
	.st49{fill:url(#SVGID_23_);}
	.st50{fill:url(#SVGID_24_);}
	.st51{fill:url(#SVGID_25_);}
	.st52{fill:url(#SVGID_26_);}
	.st53{clip-path:url(#SVGID_28_);fill:#BAC5F4;}
	.st54{opacity:0.4;fill:#F1F2F2;}
	.st55{fill:#ACD9DD;}
	.st56{opacity:0.2;}
	.st57{fill:#FFFDF3;}
	.st58{fill:#232A35;}
	.st59{fill:#3B455A;}
	.st60{opacity:0.1;}
	.st61{fill:#000100;}
	.st62{fill:url(#SVGID_29_);}
	.st63{fill:url(#SVGID_30_);}
	.st64{fill:url(#SVGID_31_);}
	.st65{fill:url(#SVGID_32_);}
	.st66{fill:#BDBDBD;}
	.st67{fill:url(#SVGID_33_);}
	.st68{fill:#5A5A5C;}
	.st69{opacity:0.56;fill:url(#SVGID_34_);}
	.st70{opacity:0.66;fill:#FFFFFF;}
	.st71{fill:#C4DFE1;}
	.st72{fill:#33435A;}
	.st73{fill:#57859B;}
	.st74{fill:#427CCC;}
	.st75{fill:#FFBFA4;}
	.st76{fill:#141C2B;}
	.st77{fill:#BABCBC;}
	.st78{opacity:0.14;}
	.st79{fill:url(#SVGID_35_);}
	.st80{fill:url(#SVGID_36_);}
	.st81{fill:url(#SVGID_37_);}
	.st82{fill:url(#SVGID_38_);}
	.st83{fill:url(#SVGID_39_);}
	.st84{fill:url(#SVGID_40_);}
	.st85{display:inline;fill:url(#SVGID_41_);}
	.st86{display:inline;fill:url(#SVGID_42_);}
	.st87{display:inline;fill:url(#SVGID_43_);}
	.st88{display:inline;fill:url(#SVGID_44_);}
	.st89{display:inline;fill:url(#SVGID_45_);}
	.st90{display:inline;fill:url(#SVGID_46_);}
	.st91{fill:url(#SVGID_47_);}
	.st92{opacity:0.6;}
	.st93{fill:url(#SVGID_48_);}
	.st94{opacity:0.3;}
	.st95{fill:url(#SVGID_49_);}
	.st96{fill:url(#SVGID_50_);}
	.st97{fill:#DE937A;}
	.st98{fill:#28415A;}
	.st99{fill:#59595B;}
	.st100{fill:#39517C;}
	.st101{fill:#34383A;}
	.st102{fill:#F3CFC1;}
	.st103{fill:#FF6600;}
	.st104{fill:#D9E8F5;}
	.st105{fill:#F5CEB0;}
	.st106{fill:#F26101;}
	.st107{fill:#FFFFF2;}
	.st108{display:inline;}
	.st109{fill:#7DB5DB;}
	.st110{fill:#EFBFA5;}
	.st111{fill:#EACDB0;}
	.st112{fill:#4D4D4D;}
	.st113{display:inline;fill:#D8D8D8;stroke:#FFFFFF;stroke-miterlimit:10;}
	.st114{display:inline;fill:#BCBEC0;}
	.st115{display:inline;fill:#305399;}
	.st116{fill:#F0F1F1;}
	.st117{display:inline;opacity:0.1;fill:#000100;}
	.st118{display:inline;fill:#3B455A;}
	.st119{display:inline;fill:#7DB5DB;}
	.st120{fill:#98C7E2;}
	.st121{fill:#FFFDF0;}
	.st122{opacity:6.000000e-02;fill:#FFFFFF;}
	.st123{opacity:0.1;fill:#000100;}
	.st124{fill:url(#SVGID_51_);}
	.st125{fill:url(#SVGID_52_);}
	.st126{fill:url(#SVGID_53_);}
	.st127{fill:url(#SVGID_54_);}
	.st128{fill:url(#SVGID_55_);}
	.st129{fill:url(#SVGID_56_);}
	.st130{fill:url(#SVGID_57_);}
	.st131{fill:url(#SVGID_58_);}
	.st132{fill:#EAC1A4;}
	.st133{fill:#484F5B;}
	.st134{fill:#8CABEF;}
	.st135{fill:url(#SVGID_59_);}
	.st136{fill:url(#SVGID_60_);}
	.st137{fill:url(#SVGID_61_);}
	.st138{fill:url(#SVGID_62_);}
	.st139{fill:url(#SVGID_63_);}
	.st140{fill:url(#SVGID_64_);}
	.st141{fill:url(#SVGID_65_);}
	.st142{fill:url(#SVGID_66_);}
	.st143{fill:url(#SVGID_67_);}
	.st144{fill:url(#SVGID_68_);}
	.st145{fill:url(#SVGID_69_);}
	.st146{fill:url(#SVGID_70_);}
	.st147{fill:url(#SVGID_71_);}
	.st148{fill:url(#SVGID_72_);}
	.st149{fill:#BABCBE;}
	.st150{fill:#242449;}
	.st151{fill:#2F3787;}
	.st152{fill:#3D475B;}
	.st153{fill:#366362;}
	.st154{fill:#89B336;}
	.st155{fill:#96BD34;}
	.st156{opacity:7.000000e-02;}
	.st157{fill:#B5D381;}
	.st158{fill:#3B308A;}
	.st159{opacity:8.000000e-02;}
	.st160{fill:#F3E6DC;}
	.st161{fill:#92C59B;}
	.st162{fill:#88C9DA;}
	.st163{fill:#F9CD5B;}
	.st164{fill:#F6D5D5;}
	.st165{fill:#424DBF;}
	.st166{fill:#7EACF1;}
	.st167{fill:#F17187;}
	.st168{fill:#EAEAEA;}
	.st169{fill:#A0A2A6;}
	.st170{fill:#CE7361;}
	.st171{fill:#C7C8C9;}
	.st172{opacity:9.000000e-02;}
	.st173{opacity:0.15;}
	.st174{fill:#5B6475;}
	.st175{fill:#EDEDED;}
</style>
<g id="Слой_1" class="st0">
</g>
<g id="Слой_9">
	<g id="Слой_3__x28_копия2_x29_" class="st1">
	</g>
	<g id="Слой_10">
		<g id="Слой_11">
		</g>
		<g id="Слой_11__x28_копия_x29_">
			<g id="Слой_11_копия_2">
			</g>
			<g id="Слой_11_копия_3">
			</g>
		</g>
	</g>
</g>
<g id="poezdki">
	<g id="Слой_3__x28_копия_x29_" class="st1">
	</g>
	<g id="Слой_8">
	</g>
</g>
<g id="auto">
	<g id="Слой_3">
		<g id="Слой_4">
		</g>
	</g>
</g>
<g id="nastroiki">
</g>
<g id="otzivi">
	<g>
		<g>
			<g>
				<g class="st1">
					<g>
						<linearGradient id="SVGID_1_" gradientUnits="userSpaceOnUse" x1="129.0462" y1="116.5024" x2="129.0462" y2="-118.11">
							<stop  offset="0" style="stop-color:#FFFFFF"/>
							<stop  offset="1" style="stop-color:#CFCFCF"/>
						</linearGradient>
						<path class="st15" d="M129.4,6.3C91.4,6,60.3,27.6,60.1,54.6c-0.1,17.7,13,33.2,32.8,41.9l-0.2,27.3c0,1.2,1.6,1.7,2,1.1
							l16.5-22.8c5.6,1.1,11.4,1.7,17.5,1.7c38.1,0.3,69.1-21.3,69.3-48.2C198.2,28.7,167.5,6.6,129.4,6.3z M97.4,58.8
							c-4,0-3.9-6.2,0-6.2C101.4,52.7,101.4,58.8,97.4,58.8z M132.1,59.1c-4,0-3.9-6.2,0-6.2C136.2,52.9,136.1,59.1,132.1,59.1z
							 M167.1,59.1c-4,0-3.9-6.2,0-6.2C171.1,52.9,171,59.1,167.1,59.1z"/>
					</g>
				</g>
				<g class="st92">
					<linearGradient id="SVGID_2_" gradientUnits="userSpaceOnUse" x1="35.4936" y1="234.3685" x2="35.4936" y2="174.8031">
						<stop  offset="0" style="stop-color:#FFFFFF"/>
						<stop  offset="1" style="stop-color:#CFCFCF"/>
					</linearGradient>
					<path class="st16" d="M69.6,210.9c0-6.1-5-11-11-11c0-0.2,0-0.4,0-0.6c0-7.4-6.1-13.4-13.5-13.3c-4,0-7.6,1.8-10.1,4.7
						c-2.3-2.6-5.6-4.2-9.4-4.2c-6.6,0-12,5.3-12.3,11.8c-0.3,0-0.6,0-0.8,0c-6.1,0-11,5-11,11.1c0,4.9,3.3,9.1,7.7,10.5
						c-0.5,1.3-0.8,2.7-0.8,4.2c0,5.9,4.9,10.7,10.8,10.6c0.5,0,0.9,0,1.3-0.1l8.1,1.7c1.7,1.1,3.7,1.8,5.9,1.7c4,0,7.4-2.2,9.2-5.4
						c1.8,1.1,4,1.8,6.4,1.8c6.6,0,11.9-5.4,11.9-12c0-0.3,0-0.6,0-0.9C66.4,220.1,69.6,215.9,69.6,210.9z"/>
				</g>
				<g class="st94">
					<linearGradient id="SVGID_3_" gradientUnits="userSpaceOnUse" x1="740.9772" y1="57.8303" x2="740.9772" y2="6.66">
						<stop  offset="0" style="stop-color:#FFFFFF"/>
						<stop  offset="1" style="stop-color:#CFCFCF"/>
					</linearGradient>
					<path class="st17" d="M770.3,37.7c0-5.2-4.3-9.4-9.5-9.5c0-0.2,0-0.3,0-0.5c0-6.4-5.2-11.5-11.6-11.5c-3.5,0-6.6,1.6-8.7,4
						c-2-2.2-4.8-3.6-8-3.6c-5.7,0-10.3,4.5-10.6,10.1c-0.2,0-0.5,0-0.7,0c-5.3,0-9.5,4.3-9.5,9.6c0,4.2,2.8,7.8,6.6,9
						c-0.5,1.1-0.7,2.3-0.7,3.6c0,5.1,4.2,9.2,9.3,9.1c0.4,0,0.8,0,1.2-0.1l7,1.4c1.5,1,3.2,1.5,5.1,1.5c3.4,0,6.4-1.9,7.9-4.7
						c1.6,1,3.5,1.5,5.5,1.5c5.7,0,10.3-4.7,10.2-10.3c0-0.2,0-0.5,0-0.7C767.5,45.6,770.3,41.9,770.3,37.7z"/>
				</g>
			</g>
			<g>
				<g>
					<g>
						
							<linearGradient id="SVGID_4_" gradientUnits="userSpaceOnUse" x1="796.3171" y1="284.8976" x2="796.3171" y2="177.4981" gradientTransform="matrix(-1 0 0 1 1051.8253 0)">
							<stop  offset="0" style="stop-color:#FFFFFF"/>
							<stop  offset="1" style="stop-color:#CFCFCF"/>
						</linearGradient>
						<path class="st18" d="M224,257c0.1,12.3,14.3,22.2,31.7,22.1c2.8,0,5.4-0.3,8-0.8l7.5,10.4c0.2,0.3,0.9,0.1,0.9-0.5l-0.1-12.5
							c9.1-4,15.1-11.1,15-19.2c-0.1-12.3-14.3-22.2-31.7-22.1C237.9,234.6,223.9,244.7,224,257z M270,255.7c1.8,0,1.8,2.8,0,2.8
							C268.2,258.5,268.1,255.7,270,255.7z M254.1,255.8c1.8,0,1.8,2.8,0,2.8C252.3,258.6,252.2,255.8,254.1,255.8z M238.1,255.8
							c1.8,0,1.8,2.8,0,2.8C236.3,258.6,236.3,255.8,238.1,255.8z"/>
					</g>
				</g>
			</g>
			<g>
				<g>
					<polygon class="st11" points="570.3,207.5 569.1,228.7 572.6,291.5 577.9,291.8 585.8,250.6 592.8,205.3 					"/>
					<path class="st72" d="M576.8,294.4l-3.4,1.5c-0.9,0.4-1.9,0.2-2.6-0.6l0,0c-0.9-1-0.8-2.5,0.3-3.3l1.5-1.2l5.5,0.3l-0.2,1.8
						C577.8,293.6,577.4,294.2,576.8,294.4z"/>
				</g>
				<g>
					<g>
						<polygon class="st11" points="607.7,217.4 608.9,245.4 605.4,292.9 600.1,293.3 593.7,250.1 584.8,213.6 						"/>
					</g>
					<path class="st72" d="M601.4,296l3.3,1.4c0.9,0.4,1.9,0.1,2.6-0.6h0c0.9-1,0.7-2.5-0.3-3.3l-1.5-1.2l-5.4,0.4l0.1,1.7
						C600.3,295.1,600.7,295.7,601.4,296z"/>
				</g>
				<g>
					<g>
						<path class="st2" d="M601.1,145.2l-16.5-1.8c0,0-9.2,1-15.4,22.8c-3.5,12.1-4.5,31.3-4.8,45.9c0.4,2.1,2.7,11.2,12.2,9.7
							c16.5-2.7,25.2-5.3,32.4-4c6.1,1.3,5.6-7.1,4.9-13.5l-2.4-19.9L601.1,145.2z"/>
					</g>
				</g>
				<g>
					<path class="st97" d="M591.7,123.4c-4.3,0.3-8.6,0.8-12.3,2.8c-0.8,0.4-1.7,1-1.9,1.9c-0.1,0.3-0.1,0.7-0.1,1.1
						c0.1,4,0.6,10,4.1,12.7c0.7,0.5,1.5,0.8,2.3,1.1c1.1,0.3,2.2,0.4,3.3,0.3c0.1,1,0,2-0.1,3c1.3,1.1,5.6,0,6-1.6
						c-0.3-1.2-0.6-2.3-0.9-3.5c0.5-0.4,0.9-0.8,1.3-1.2c1.5-1.8,2.1-3.9,2.2-6.2c0.1-2.4,0.5-4.9,0.5-7.3c0-0.9-0.1-1.9-0.7-2.5
						c-0.7-0.7-1.8-0.6-2.7-0.5C592.3,123.3,592,123.4,591.7,123.4z"/>
					<path class="st98" d="M579.1,129.6c1.6-1.9,4.4-3.3,6.3-3.7c5.7-1.3,10.1,0.1,10.1,8.5c0.9-2.4,3.9-7,3.3-9.6
						c-0.5-2.1-1.6-4.8-3.3-6.3c-1.6-1.3-4.6-1.4-6.6-1.9c-1.8-0.4-3.7-0.9-5.5-1.3c-0.4-0.1-0.8-0.2-1.2-0.1
						c-0.5,0.1-0.9,0.3-1.3,0.5c-3.4,2.1-6.8,4.1-10.1,6.2c-0.6,0.4-1.4,0.9-1.4,1.7c0,0.5,0.2,0.9,0.4,1.3c1,1.8,2.4,3.5,3.2,5.3
						c0.6,1.1,3,6.6,4.8,5.3c0.3-1.1,0-2.3,0.2-3.5C578.1,131.1,578.5,130.3,579.1,129.6z"/>
				</g>
				<path class="st11" d="M584.6,143.5L584.6,143.5c-4,1.2-7.6,3.4-10.5,6.5l-15.5,16.2c-1.6,1.7-2.6,3.7-3,6v0
					c-0.5,2.7,0.1,5.6,1.5,7.9l8.4,13.9l2.9-6.5l-3.5-10.2c-0.6-1.7,0-3.6,1.5-4.6l4.7-3.3l9.6-21.5L584.6,143.5z"/>
				<path class="st99" d="M584,154.4l-7.8-0.7c-0.4,0-0.8,0.4-0.7,0.8l3.4,13.3c0.1,0.3,0.3,0.5,0.6,0.5l5.6,0.5
					c0.4,0,0.7-0.3,0.7-0.7l-1.2-13.1C584.5,154.7,584.3,154.5,584,154.4L584,154.4z"/>
				<path class="st97" d="M584.2,167l-2.4-0.9c-0.7-0.2-1-1-0.8-1.6l0,0c0.2-0.6,0.8-1,1.5-0.9l2.1,0.4c0.4,0.1,0.7-0.3,0.7-0.6
					l0-0.5c0-0.4,0.4-0.6,0.7-0.4l4.4,2.9l-0.4,2.5l-1,0C587.4,167.8,585.7,167.5,584.2,167z"/>
				<g>
					<g>
						<path class="st11" d="M610.5,176.4l-20-6.8c-1.2-0.4-2-1.6-1.8-2.9l0,0c0.2-1.5,1.6-2.6,3.1-2.4l12,1.6l-2.7-20.6l2.1,1.1
							c3.3,1.7,5.7,4.6,6.8,8.1l4.5,14.4c0.6,1.9,0.5,4-0.3,5.9v0C613.5,176.2,611.9,176.9,610.5,176.4z"/>
					</g>
				</g>
			</g>
			<g>
				<path class="st72" d="M537.8,292.2l-3.8,2.4c-0.9,0.6-2.2,0.5-3-0.1l0,0c-1.2-1-1.4-2.8-0.3-3.9l1.4-1.5l6.2-4.4l0.6,5.3
					C538.9,290.9,538.5,291.7,537.8,292.2z"/>
				<path class="st100" d="M504.9,139l-3.5,1c-3.1,0.8-5.7,2.9-7.3,5.7l-10.5,18.5c-1.3,2.3-0.8,5.2,1.1,7l0,0
					c2.1,1.9,5.4,1.7,7.2-0.4l6.5-7.7c0.1-0.2,0.3-0.4,0.4-0.6l8.9-20.3C508.5,140.4,506.8,138.5,504.9,139z"/>
				<g>
					<g>
						<polygon class="st101" points="493,189.9 492.9,233 501.6,288.6 507.9,288.6 511.3,237.2 519.4,185.7 						"/>
					</g>
					<path class="st72" d="M506.5,291.9l-3.7,1.9c-1,0.5-2.3,0.3-3.1-0.5l0,0c-1.1-1.1-1.1-2.9,0.1-3.9l1.7-1.5l6.4-0.1l0,1.9
						C507.9,290.6,507.4,291.5,506.5,291.9z"/>
				</g>
				<g>
					<g>
						<polygon class="st12" points="538.4,286.9 533.6,244.1 539.4,196.2 538.1,186.1 512.1,185.1 511.2,201.7 515.5,244.2 
							532,289.1 						"/>
					</g>
				</g>
				<g>
					<g>
						<path class="st7" d="M542.1,204.5c-0.1-1.9-0.2-3.4-0.2-4c-0.1-5-0.6-10-1.2-15c-0.6-4.5-1.3-15.6-2-20
							c-0.6-3.7-2.8-12.8-4.4-16.2c-4-8.5-2.7-9.2-20.1-11.7c-7.6-1.1-9.4,3.6-15.6,9.1c-0.6,0.5-0.6,3.7-0.7,4.6
							c-0.3,1.5-0.5,3-0.8,4.5c-0.2,1.2-0.5,2.3-0.8,3.5l0,0c0,0-5.2,23.8-8.7,28.8c-3.5,5-10.6,12.1,1.3,16.4
							c2.1,0.7,4.2,1.3,6.4,1.7c0,0,9.8-1.1,14.8-1c4.6,0,9.3,0.5,13.8,1.3c3,0.5,6.1,1.2,8.9,2.7c2.6,1.4,4.5,3.3,7.1,4.7
							c0.2,0.1,0.5,0.3,0.8,0.2C542.2,213.8,542.2,208.5,542.1,204.5z"/>
					</g>
				</g>
				<g>
					<g>
						<path class="st100" d="M516.8,161L516.8,161c0.2-1.6,1.7-2.7,3.3-2.5l8.2,1.5l-2.9-20.4c0,0,8.3,1.5,10.4,8.6
							c1.3,4.5,3.2,14.7,3.2,14.7c0.1,0.2,0.1,0.5,0.1,0.8c0.1,3.9-3.7,6.7-7.4,5.5c-5.1-1.7-10.5-4.1-13.2-5.4
							C517.3,163.3,516.7,162.2,516.8,161z"/>
					</g>
				</g>
				<path class="st102" d="M518.1,158.4c0,0-2.7,0.5-2.9,0.2c-0.1-0.2-1.3-2.1-2-3.3c-0.3-0.6-0.4-1.2-0.1-1.8l0.3-0.8l-0.3-1.4
					c-0.1-0.4-0.3-0.6-0.6-0.8c-1-0.5-3.1-1.5-3.3-2.3c-0.3-1,4.2,1,4.2,1l2.3,1.6l1.9,2.3c0.5,0.6,0.7,1.3,0.7,2.1L518.1,158.4z"/>
				<path class="st103" d="M508.6,144l-8.7,0.7c-0.5,0-0.8,0.5-0.6,1l6.2,14.1c0.1,0.3,0.4,0.4,0.7,0.4l6.3-0.5
					c0.4,0,0.7-0.5,0.6-0.9l-3.8-14.3C509.3,144.2,508.9,144,508.6,144L508.6,144z"/>
				<path class="st102" d="M505.1,157.9l2.9-2.8c0.5-0.5,0.6-1.3,0.2-1.9l0,0c-0.5-0.7-1.4-0.8-2-0.4l-2.9,2l-0.6-1.4l-3.5,3.8
					l1.3,2.6l2.7-0.8C504,158.7,504.6,158.4,505.1,157.9z"/>
				<g>
					<g>
						<path class="st100" d="M501.3,157.7L501.3,157.7c-1.2-1.5-3.3-1.9-5-0.9l-12.8,9.7c-1.1,0.8-1.2,2.5-0.2,3.4l1.3,1.2
							c2.2,2.1,5.7,2,7.9-0.1l8.4-8.3C502.3,161.3,502.5,159.2,501.3,157.7z"/>
					</g>
				</g>
				<g>
					<path class="st102" d="M514.2,140c0.9,0.4,2.9,0.6,5.1-0.3c0.4-0.2,0.7-0.6,0.7-1.1c0-1.3-0.1-2.6-0.3-3.9
						c1.6-0.6,3.5-1.4,3.8-3.1c0.1-0.5,0-1.1-0.1-1.6c-0.4-2.2-0.8-4.4-1.1-6.6c-0.1-0.8-0.3-1.5-0.7-2.2c-0.7-1.1-2.1-1.6-3.5-1.9
						c-3.4-0.6-7.1,0.1-9.8,2.4c-0.7,0.6-1.3,1.3-1.6,2.2c-0.5,1.3-0.1,2.8,0.2,4.2c0.3,1.3,0.7,2.5,1,3.8c0.4,1.5,0.9,3.1,2.3,3.7
						c0.7,0.3,1.6,0.2,2.3,0.6C513.7,136.9,513.6,138.7,514.2,140z"/>
					<path class="st98" d="M494.5,118c-0.3-0.5-0.7-1.1-1.1-1.6c-0.9-1.1-1.9-2-2.7-3.2c-0.7-1.2-1-2.8-0.1-3.9
						c0.5-0.7,1.4-1.1,2.3-1.3c2.8-0.8,5.9-0.9,8.7-0.2c2.7,0.7,5.2,1.8,7.9,0.8c2.6-1,4.4-0.6,7.1,0.4c2.9,1,6.8,1.3,9.5,2.8
						c1.1,0.6,2,1.6,2.7,2.6c2.4,3.7,2.4,8.7,0,12.4c-0.5,0.8-1.2,1.6-1.8,2.3c-1.4,1.5-3,3.3-4.9,3.9c0-1.7,1.5-7,0.2-8.4
						c-2.1-2.2-6.7-1.4-9.3-0.9c-2.8,0.6-5.3,2.6-8,3c-2,0.3-4.5-0.7-6.2-1.7C496.7,123.8,495.7,120.1,494.5,118z"/>
				</g>
			</g>
			<g>
				<path class="st104" d="M436.9,146.6l-8.5,2.9l-10.1,15.8c-0.8,1.3-1,2.9-0.6,4.3l2.7,8.6l7.7-4.8L436.9,146.6z"/>
				<polygon class="st104" points="471.7,172.9 460.3,153.2 452.6,149.1 450.7,151 458.9,167.3 461.1,173.4 468.8,175.3 				"/>
				<g>
					<g>
						<path class="st7" d="M461.8,207.7l0.2,34c0,1.6-0.1,3.3-0.4,4.9l-6.8,44.5l-5.3,0l-3-43.4l-6.9-43.4L461.8,207.7z"/>
						<path class="st72" d="M450.6,293.8l3.2,1.6c0.9,0.4,1.9,0.3,2.6-0.4l0,0c0.9-0.9,0.9-2.4-0.1-3.3l-1.4-1.3l-5.5-0.2l0.1,1.8
							C449.5,292.8,449.9,293.5,450.6,293.8z"/>
					</g>
					<g>
						<path class="st72" d="M420.9,294.9l2.9,1.9c0.8,0.5,1.9,0.5,2.7-0.2l0,0c1-0.8,1.1-2.3,0.3-3.3l-1.3-1.5l-5.3-3.5l-0.8,1.8
							C418.7,291.9,419.3,293.9,420.9,294.9z"/>
						<g>
							<path class="st100" d="M420,204.8l-0.9,8.6l6.7,33.6c0.7,3.3,0.7,6.7,0.1,10l-5.6,31.4l5.3,3.5l17.3-42.8
								c0.6-1.5,1-3.2,1-4.9l0.3-11.8l-2.4-29L420,204.8z"/>
						</g>
					</g>
				</g>
				<g>
					<g>
						<path class="st11" d="M466.2,202.4c-3.8-11.8-4.2-24.2-5.3-36.5c-0.3-3.6-0.7-7.3-2.2-10.6c-1.7-3.8-4.6-5.8-7.9-6.9
							c-4.2-1.4-9.3-1.3-13.7-1.6c-4.2-0.1-7.9,15.6-12.2,23.3c-2.6,4.7-5.3,8.8-7.1,13.9c-1.7,4.9-3.3,9.9-4.3,15
							c-1.5,7.7-5.3,13.1-1.7,15.7c0.3,0.1,0.7,0.2,1,0.3c6,2.1,12.1,3.7,18.4,4.6c5.6,0.7,11.2,0.9,16.9,0.3c7.1-0.7,14-1.7,20.3-5
							c0.9-0.5,1.3-1.5,1-2.5C468.4,209,467.3,205.7,466.2,202.4z"/>
					</g>
				</g>
				<g>
					<path class="st97" d="M438.1,132.1c4-6.5,14.8-6.5,15.3,2.2c0.1,2.6,0,5.3-1.1,7.7c-1.1,2.4-3.2,4.4-5.7,4.9c0,0,0,0,0,0
						c-0.1,0.7-0.1,1.3-0.2,2c0,0.1,0,0.3-0.1,0.4c-0.1,0.1-0.3,0.1-0.5,0.1c-0.8-0.1-1.6-0.1-2.4-0.2c-0.4,0-0.8-0.1-1.2-0.3
						c-0.8-0.4-0.9-1.5-0.7-2.4c0-0.2,0.1-0.4,0.1-0.6C437.3,143.4,435.5,136.4,438.1,132.1z"/>
					<g>
						<path class="st12" d="M453.4,123.1c1.9,0.2,3.1,2.4,4.6,3.7c1.3,1.1,2.8,1.7,4.2,2.7s2.5,2.7,2.1,4.5c1.7-0.4,3.5-0.9,5.1-0.1
							c1.6,0.7,2.7,3.1,1.7,4.6c-1,1.4-3,1.2-4,2.6c-1.6,2.1,0.4,6.3-1.9,7.4c-0.5,0.3-1.2,0.2-1.7,0.5c-0.7,0.3-1,1.1-1.5,1.8
							c-1.9,3-5.7,4.4-8.9,3.2c-1.8-1.4-3-3.8-3.2-6.2c-0.2-2.9,1.4-3.5,2.3-6c0.9-2.7,0.7-5.9-0.5-8.4c-0.8-1.7-2.2-3.3-3.8-3.8
							c-0.7-0.2-0.6,0.4-1.3-0.3c-0.3-0.3-0.5-1.3-0.5-1.7C448.4,126.3,450.8,122.8,453.4,123.1z"/>
						<path class="st12" d="M432.2,121.9c-1,0-2.1-0.2-3.1-0.1c-1.5,0.3-1.8,1.7-2.5,2.9c-0.8,1.3-1.8,3-3,3.9
							c-0.8,0.6-1.9,0.8-2.8,1.3c-0.9,0.4-1.9,1.1-2.1,2.2c-0.2,1,0.2,2.1,0.1,3.1c-0.2,1.5-0.7,2.3-0.6,3.9
							c0.1,0.9,0.1,1.8,0.6,2.5c0.6,0.9,1.8,1.2,2.8,1.2c1,0.1,2.1,0,3,0.6c2,1.2,1.1,3.3,1.2,5.2c0.2,2.9,3,5.3,5.7,4.9
							c2.3-0.3,4-2.5,4.5-4.8c0.2-1.2,0-2.4,0.3-3.6c0.2-1.1,1.2-2.6,0.4-3.7c-0.2-0.3-0.5-0.5-0.7-0.8c-0.1-0.2-0.2-0.5-0.2-0.8
							c0-1,0.4-2,1.2-2.6c0.5-0.4,1.2-0.7,1.6-1.2c0.4-0.7,0.4-1.5,0.6-2.3c0.3-1.9,1.8-3.6,3.6-3.9c1.2-0.2,2.2-0.3,3.3-0.8
							c0.2-0.1,2.7-1.4,2.6-1c0.1-0.7-0.2-1.4-0.5-2.1c-0.5-1.1-1-2.1-1.8-2.9c-2.7-2.5-3.8,1.6-6.1,0.5c-0.6-0.3-0.9-0.9-1.3-1.4
							c-0.9-0.9-2.2-0.9-3.3-0.7C434.5,121.4,433.4,121.9,432.2,121.9z"/>
					</g>
				</g>
				<path class="st99" d="M446.8,155.7l8.6,1.6c0.5,0.1,0.7,0.6,0.5,1.1l-7.7,13.4c-0.1,0.3-0.4,0.4-0.7,0.3l-6.2-1.1
					c-0.4-0.1-0.7-0.5-0.5-1l5.3-13.8C446.2,155.9,446.5,155.7,446.8,155.7L446.8,155.7z"/>
				<g>
					<polygon class="st97" points="449.5,172.2 445.5,168.7 446.9,166.9 450.2,168.7 450.5,167.6 453.5,170.9 452.3,173 					"/>
					<g>
						<g>
							<path class="st2" d="M471.6,173.2l-0.1-0.5l-16.8-2.9c-1.2-0.2-2.3,0.4-2.9,1.4l0,0c-0.7,1.3-0.2,3,1.1,3.7
								c3.6,1.9,10.4,5.6,13.8,7.4c1,0.5,2.3,0,2.6-1.1L471.6,173.2z"/>
						</g>
					</g>
				</g>
				<g>
					<path class="st97" d="M446.4,165.9l2.2-1.7c0.5-0.4,0.6-1.2,0.2-1.7h0c-0.4-0.5-1-0.7-1.6-0.4l-2.2,1.2
						c-0.3,0.1-0.6-0.1-0.5-0.4l0-0.1c0-0.2-0.3-0.4-0.4-0.2l-2.7,2.7l1.1,2.1l1.5-0.4C444.9,166.8,445.7,166.4,446.4,165.9z"/>
					<g>
						<g>
							<path class="st2" d="M440.9,164c-4.1,0.6-18.3,2.4-23.3,3.1c0,0-0.3,1.2,0,2.2l2.2,7c0.3,1,1.4,1.5,2.3,1.1l20.4-8.6
								c0.9-0.4,1.3-1.4,0.9-2.3l-0.7-1.5C442.3,164.3,441.6,163.9,440.9,164z"/>
						</g>
					</g>
				</g>
			</g>
			<g>
				<g>
					<path class="st12" d="M651.3,226.9l23.2-7.8l-5.7,38.5c-0.2,1.1-0.2,2.1-0.1,3.2l2,35.4l-4.7,0l-9.1-31
						c-0.3-1.2-0.6-2.4-0.8-3.6l-4.2-31.2l0,0L651.3,226.9z"/>
					<path class="st72" d="M666,296.2l4.7,0l0.3,1.3c0.4,1.6-0.4,3.3-1.8,4.1l-4.9,2.7c-0.3,0.2-0.7,0.3-1.1,0.3l-0.4,0
						c-1.5,0.1-2.8-1-2.9-2.5l0,0c-0.1-0.9,0.3-1.9,1.1-2.4L666,296.2z"/>
				</g>
				<g>
					<polygon class="st12" points="633.2,227.1 638.1,297.8 642.7,298.5 648.3,259.5 657.3,222.6 					"/>
					<path class="st72" d="M638.1,297.8l-5,2.7c-0.7,0.3-1,1.1-0.9,1.8l0,0c0.2,0.9,1,1.5,1.9,1.4l6.6-0.8c1.4-0.2,2.4-1.5,2.2-2.9
						l-0.2-1.6L638.1,297.8z"/>
				</g>
				<g>
					<path class="st7" d="M680.8,238.5c0.5-11.7-9.9-48.8-9.9-48.8l0,0c-1.1-3.5-1.9-7-2.4-10.6c-0.4-2.5-8-31.3-7.4-31.4
						c-5.2,0.4-15.3-0.9-19.2,2.9c-0.1,0.1-0.2,0.2-0.3,0.3c-3,3.4-4.6,10.4-6,14.7c-1.9,5.6-3.3,11.4-4.3,17.3
						c-0.9,5.1-1.4,10.3-1.7,15.5c-0.3,4.5-0.1,8.9-0.2,13.3c-0.2,4.8-1.6,10.1-2.7,14.8c-1.1,4.8-2.5,9.4-4.4,13.9
						c5.2,2.3,11,2.9,16.7,2.9c5.7,0,11.3-0.5,17-0.4c4.8,0.1,9.7,0.6,14.4-0.4C673.9,241.7,677.3,240.1,680.8,238.5L680.8,238.5z"
						/>
				</g>
				<g>
					<path class="st98" d="M643,135.5c-2.4,1.2-4.9,4.2-4.7,7c0.1,1.4,0.8,2.4,0.8,3.9c0.1,2.9,4.4,5.9,1.7,8.7
						c-1.4,1.4-3.5,1.7-5.5,1.9c-0.2,0-0.5,0-0.7,0c-0.4-0.2-0.5-0.6-0.5-1c0-0.4,0.2-0.8,0.3-1.1c1.3-3.9-0.6-8.5-0.9-12.6
						c-0.2-4,0.7-8.3,4-11c2.2,0.7,3.8,1.6,4.9,3.6L643,135.5z"/>
					<path class="st3" d="M644.5,152.6c-2.7-0.3-5-2.3-6.3-4.8c-1.3-2.4-1.6-5.2-1.6-8c0-9.1,11.2-9.7,15.8-3.2
						C656.3,142.3,652.4,153.6,644.5,152.6z"/>
					<path class="st98" d="M658.2,153.7c-1.4-0.4-2.8-0.8-3.9-2c-1.8-1.9-2.3-5.5-3.1-7.9c-0.9-2.5-1.9-5.2-4.2-6.6
						c-1.5-0.9-3-0.8-4.6-0.5c-1.1,0.2-1.1,0.6-2.1,0.2c-0.8-0.3-1.7-1.6-2-2.3c-0.5-1.3-0.3-2.8,0.4-4.1c1.1-1.9,2.5-3,4.6-3.5
						c7.2-1.6,13.5,1.7,17,8.3c1.7,3.2,1.7,7.2,3.4,10.2c1,1.9,2.6,3,3.6,5.1c2.5,5.3,7,11.9,7.9,17.7c0,0.2,0.1,0.5-0.1,0.6
						c-0.3,0.4-0.8,0.1-1.2-0.2c-2-1.6-4.1-3.2-6.1-4.8c-0.8-0.6-1.6-1.3-2.2-2.1c-1.5-2.1-1.5-5.1-3.5-6.7
						C660.8,154.4,659.5,154.1,658.2,153.7z"/>
				</g>
				<g>
					<g>
						<path class="st105" d="M690.2,160.8c1.4,0.3,4.9-0.7,5.7-2c1.9-2.9-2.6-2-4.2-2c0.2-0.6,0.4-1.1,0.5-1.7
							c0.1-0.5-4.7,0.8-5.2,1.3c-1.1,1.2-0.6,2.1-0.5,3.6C687.8,160.4,689,160.6,690.2,160.8z"/>
					</g>
					<g>
						<path class="st100" d="M654.3,171.8l17,7.8c1.6,0.7,3.4,0.3,4.5-1l12.4-15c1.1-1.4,0.9-3.4-0.4-4.6h0c-1.3-1.1-3.2-1-4.4,0.2
							l-6,6.1c-1.5,1.5-3.8,1.5-5.3,0l-10.3-10l-12.4,0.5L654.3,171.8z"/>
					</g>
				</g>
				<path class="st7" d="M641.4,150.9l-3.4,2.6l-13.8,24.1c-0.6,1-0.1,2.3,1,2.8l8.3,3.2l6.1-22.6l2.7-5.8L641.4,150.9z"/>
				<g>
					<path class="st106" d="M653,149.6l8.7,5.7l-30.9,10.9l2-4.9c0.5-1.3,1.5-2.4,2.8-3L653,149.6z"/>
					<g>
						<path class="st103" d="M644.6,152.6L644.6,152.6c1,0.3,1.9,0.8,2.7,1.4l0.9,0.7c4.2,3.3,6.8,8.4,6.9,13.8l0.6,22.7
							c0.1,4.7-4,8.3-8.6,7.7l0,0c-4-0.6-6.9-4.3-6.5-8.3l3-26.8l-8.5-5.2l0,0c-0.8-1-0.6-2.4,0.3-3.2l1.7-1.4
							C639.1,152.3,642,151.8,644.6,152.6z"/>
					</g>
				</g>
				<path class="st99" d="M639.9,158.7l-6.8,3.9c-0.4,0.2-0.4,0.7-0.1,1l10.4,9c0.2,0.2,0.5,0.2,0.7,0.1l4.9-2.8
					c0.3-0.2,0.4-0.7,0.2-1l-8.5-10C640.5,158.6,640.1,158.5,639.9,158.7L639.9,158.7z"/>
				<path class="st105" d="M641.9,169.4l0.8-2.6c0.2-0.8-0.2-1.6-0.9-1.9l0,0c-0.7-0.2-1.5,0-1.8,0.7l-1.5,2.7l-1.1-1l-0.9,5.5
					l2.5,1.3l0.9-1C640.7,172,641.4,170.7,641.9,169.4z"/>
				<g>
					<g>
						<path class="st100" d="M638.3,172.3c-1.2-1.1-3-1.1-4.2,0c-2.2,1.9-4.3,3.8-6.3,5.9c-0.7,0.7-1.6,0.8-2.6,0.9
							c-1.1,0.1-1.7,1.2-1.3,2.2l1.2,2.8c0.9,2.1,3.5,3,5.5,1.8c3.6-2.2,5.9-5.5,8.3-9.7C639.7,174.9,639.5,173.3,638.3,172.3
							L638.3,172.3z"/>
					</g>
				</g>
			</g>
			<g>
				<g>
					<g>
						<polygon class="st3" points="380.1,224.3 357.1,215.9 361.8,256.1 358.8,293.1 363.1,293.2 373.9,260.7 379.2,227.7 
							379.2,227.7 						"/>
						<path class="st72" d="M363,293.2l-4.1-0.1c-0.1,0-0.3,0.1-0.3,0.2l-0.7,2.4c-0.2,0.8,0.1,1.7,0.8,2.1l6.1,3.6
							c0.3,0.2,0.7,0.3,1.1,0.4l0.4,0c1.5,0.2,2.8-0.9,3-2.4l0,0c0.1-0.9-0.3-1.9-1-2.5l-4.6-3.5C363.4,293.3,363.2,293.2,363,293.2
							z"/>
					</g>
					<g>
						<polygon class="st3" points="395.7,225 388.4,295.6 384.8,296 379.7,256.9 371.8,219.9 						"/>
						<path class="st72" d="M389.3,295.8l4.5,2.5c0.6,0.4,1,1.1,0.8,1.8l0,0c-0.2,0.9-1,1.5-2,1.4l-7.4-1.1c-0.9-0.1-1.6-1-1.5-2
							l0.3-1.7c0.1-0.4,0.4-0.7,0.8-0.8l3.5-0.4C388.6,295.6,389,295.6,389.3,295.8z"/>
					</g>
					<g>
						<g>
							<g>
								<path class="st7" d="M406.8,241.3c1.5-1,1.5-2.8,1.5-4.5c0-3.3-0.6-6.7-1.4-9.9c-1.4-6-3.1-13.3-3.8-21.1
									c-1.9-20.2-8.2-33.7-8.2-33.7l-2.1-5.5c-0.4-0.7-0.8-1.4-1.3-2.1c-2.6-4-7-10.9-11.8-12c-0.1,0-0.2,0-0.3-0.1
									c-5-1.1-11.4-0.6-16,1.8c-0.9,0.5-1.6,1.1-2.4,1.7c-2.2,1.8-4,2.8-5,5.5c-0.8,2.4-1,4.9-1.5,7.4c-0.9,5-1.5,10-2.2,15
									c-1.4,9.4-2.6,18.8-4.1,28.2c-0.8,4.8-1.5,9.7-1.9,14.5c-0.3,4.3-4.2,8.7-6.4,12.6c-0.8,1.3,10.2,4.8,11.1,5.1
									c4.5,1.1,9.4,0.8,14,0.8c10.2,0,20.5-0.3,30.7-0.9c3.4-0.2,7.6-0.9,10.6-2.6C406.6,241.5,406.7,241.4,406.8,241.3z"/>
							</g>
						</g>
						<path class="st2" d="M373.8,151.9c0,0-5.8-1.6-6.6,11.5c-0.8,13-2.1,45.9-4,55c-1.9,9-4.6,26.7-4.6,26.7l17.7,0.6l20.2-1.6
							c0,0-6.9-12.7-8-21.8c-1.1-9,0.8-43-3.7-55.8C380.3,153.8,379.3,152.1,373.8,151.9z"/>
						<g>
							<path class="st105" d="M373.2,174.3c0,0,2.2-0.5,2.3-0.7c0.1-0.3,0.7-3.9,0.7-3.9l-1.1-1.1l-0.1-1.7c0,0,2.2-2.2,2.1-3.1
								c-0.1-0.8-2.9,2-2.9,2l-1.3,1.9l-1.1,3.3L373.2,174.3z"/>
						</g>
						<g>
							<g>
								<path class="st100" d="M399.9,180.9L399.9,180.9c0.7,0.8,1.9,0.8,2.5-0.1l2-2.8c0.9-1.2,0.8-2.9-0.2-4l-17.4-19.3l-7.2-2.1
									l3.5,9.3L399.9,180.9z"/>
							</g>
						</g>
						<path class="st103" d="M378.1,161.7h8.7c0.5,0,0.8,0.5,0.7,0.9l-5.1,14.5c-0.1,0.3-0.4,0.5-0.7,0.5h-6.3
							c-0.4,0-0.8-0.4-0.7-0.8l2.7-14.5C377.5,162,377.8,161.7,378.1,161.7L378.1,161.7z"/>
						<path class="st105" d="M384,175.4l-3.2-2.5c-0.5-0.4-0.7-1.2-0.3-1.7l0,0c0.3-0.5,1-0.7,1.6-0.4l2.3,1.1l0.4-1.1l3.2,3.2
							l-1.1,2.1L384,175.4z"/>
						<g>
							<g>
								<path class="st100" d="M405.1,175.4l-17.8-2.9c-0.1,0-0.2,0-0.2,0.1l-1.8,4c0,0.1,0,0.2,0.1,0.3l13.8,4.9
									c1.2,0.4,2.6,0,3.4-1l2.1-2.9C405.3,176.9,405.3,175.6,405.1,175.4z"/>
							</g>
						</g>
					</g>
					<g>
						<g>
							<path class="st98" d="M381.6,142.6c0.9,2.6-0.4,5.4-1.5,7.8c-1,2.1-1.3,3.5,1.2,4.1c1.4,0.3,3.9,0.9,5.1-0.2
								c0.9-0.8,0.4-3.3,0-4.3c-0.3-0.8-1.3-1.2-1.6-1.9c-0.1-0.3-0.2-0.7-0.2-1c0-1.4,0.2-2.8,0.6-4.2c0.3-0.9,0.6-1.8,0.7-2.8
								c0.1-1.4-0.9-3-1.4-4.3c-1-2.4-4.3-5.5-7.1-3.7c-0.6,0.4-1,1.1-1.3,1.8c-0.2,0.4-0.4,0.9-0.4,1.3c0,1.8,1.6,2.1,2.8,3
								C379.9,139.3,381,140.9,381.6,142.6z"/>
							<path class="st3" d="M376.3,152.8c2.4-0.6,4.3-2.6,5.2-4.9c0.9-2.3,1-4.9,0.7-7.4c-0.8-8.2-11.1-7.7-14.6-1.4
								C364.6,144.6,369.2,154.4,376.3,152.8z"/>
						</g>
						<path class="st3" d="M376.3,151.9c0,0.9-0.1,1.9-0.1,2.8c0,0.1,0,0.3-0.1,0.4c-0.1,0.1-0.3,0.1-0.4,0.1
							c-0.8,0-1.5-0.1-2.3-0.1c-0.4,0-0.8,0-1.1-0.2c-0.7-0.4-0.9-1.4-0.8-2.2c0.1-0.8,0.4-1.7,0.2-2.5c1.6,0.8,3.1-1,4.7-0.2
							L376.3,151.9z"/>
					</g>
					<path class="st98" d="M373,126.2c-2.7,0.9-4.4,3.6-7,4.7c-1.5,0.6-3.3,0.7-4.5,1.8c-2.8,2.4-0.5,7.4-2.8,10.3
						c-0.5,0.6-1.1,1-1.6,1.6c-1,1.3-1.2,3-1.2,4.7c0,0.4,0,0.8,0,1.1c0.4,3.8,5.8,3.5,8,3.3c2.4-0.3,1.6-1.6,1.6-1.6l-0.1-0.1
						c-0.2-1.5,0.4-3.2,1.6-4.1c0.4-0.4,1-0.7,1.3-1.1c0.7-1.1,0-2.5,0.1-3.8c0.4-5.2,9.1-4.1,11.6-7.8
						C383,130.7,378,124.5,373,126.2z"/>
				</g>
				<g>
					<g>
						<path class="st100" d="M371.6,175.5L353,184c-2.2,1-4.8,0-5.7-2.3l0,0c-1.1-2.7-0.8-5.8,0.8-8.3l9.7-15
							c0.9-1.3,2.1-2.4,3.5-3.1l3.4-1.6l-6,19.5l11.3-2.5c1-0.2,2,0.2,2.6,1l0,0C373.5,173.1,373,174.9,371.6,175.5z"/>
					</g>
				</g>
			</g>
		</g>
		<g>
			<g>
				<path class="st2" d="M651.5,77.4l40.6-0.1c3.8,0,6.8,3,6.8,6.8l0.1,26.1c0,3.7-3,6.8-6.7,6.8l-6.5,0.1l-7.4,10.4
					c-0.2,0.3-0.7,0.2-0.7-0.2l-0.2-10.2l-25.8,0c-3.7,0-6.8-3-6.8-6.8l-0.1-26.1C644.7,80.5,647.7,77.4,651.5,77.4z"/>
				<rect x="652.5" y="85.3" class="st107" width="32.4" height="1.3"/>
				<rect x="652.5" y="95.6" class="st107" width="38.6" height="1.3"/>
				<rect x="652.5" y="105.9" class="st107" width="38.6" height="1.3"/>
			</g>
		</g>
		<g>
			<path class="st7" d="M386,77.8l-44.7,0c-0.2,0-0.3,0.2-0.3,0.3l0,33.9c0,0.2,0.1,0.3,0.3,0.3l10.1,0l6.9,9.7
				c0.2,0.3,0.6,0.1,0.7-0.2l0.1-9.5l17.5,0c5.4,0,9.7-4.7,9.7-10.6l0-23.7C386.3,77.9,386.2,77.8,386,77.8z"/>
			<g>
				<rect x="352.6" y="83.4" class="st107" width="27.8" height="1.2"/>
				<rect x="347.3" y="92.3" class="st107" width="33.2" height="1.2"/>
				<rect x="347.3" y="101.1" class="st107" width="33.2" height="1.2"/>
			</g>
		</g>
		<g>
			<path class="st7" d="M496.7,44.3l58.5,0c0.2,0,0.4,0.2,0.4,0.4l0,44.3c0,0.2-0.2,0.4-0.4,0.4l-13.2,0l-9.1,12.7
				c-0.3,0.4-0.9,0.2-0.9-0.3l-0.2-12.5l-22.9,0c-7,0-12.7-6.2-12.7-13.8l0-31C496.3,44.5,496.5,44.3,496.7,44.3z"/>
			<g>
				<rect x="503.9" y="51.7" class="st107" width="36.4" height="1.5"/>
				<rect x="503.9" y="63.3" class="st107" width="43.4" height="1.5"/>
				<rect x="503.9" y="74.9" class="st107" width="43.4" height="1.5"/>
			</g>
		</g>
		<g>
			<g>
				<path class="st11" d="M467.6,80.4c0-4.9-4-8.9-8.9-8.9c0-0.2,0-0.3,0-0.5c0-6-4.9-10.8-10.9-10.8c-3.3,0-6.2,1.5-8.2,3.8
					c-1.9-2.1-4.6-3.4-7.6-3.4c-5.4,0-9.7,4.3-10,9.5c-0.2,0-0.5,0-0.7,0c-4.9,0-8.9,4.1-8.9,9c0,4,2.6,7.3,6.2,8.5
					c-0.4,1-0.7,2.2-0.7,3.4c0,4.8,3.9,8.6,8.7,8.6c0.4,0,0.7,0,1.1-0.1l0.1,9.3c0,0.4,0.5,0.6,0.7,0.4l5.8-8.3
					c1.4,0.9,3,1.4,4.8,1.4c3.2,0,6-1.8,7.5-4.4c1.5,0.9,3.3,1.5,5.1,1.4c5.3,0,9.6-4.4,9.6-9.7c0-0.2,0-0.5,0-0.7
					C465,87.8,467.6,84.4,467.6,80.4z"/>
			</g>
			<g>
				<path class="st13" d="M440.2,81.6c-1.5,0-1.5,2.3,0,2.3C441.7,83.9,441.7,81.6,440.2,81.6z"/>
				<path class="st13" d="M427.2,81.5c-1.5,0-1.5,2.3,0,2.3C428.6,83.8,428.7,81.5,427.2,81.5z"/>
				<g>
					<path class="st13" d="M453.3,81.6c-1.5,0-1.5,2.3,0,2.3C454.8,83.9,454.8,81.6,453.3,81.6z"/>
				</g>
			</g>
		</g>
		<g>
			<g>
				<path class="st11" d="M598.7,62.8c-13.8-0.1-25,7.7-25.1,17.5c0,6.4,4.7,12,11.9,15.2l-0.1,9.9c0,0.4,0.6,0.6,0.7,0.4l6-8.3
					c2,0.4,4.1,0.6,6.3,0.6c13.8,0.1,25-7.7,25.1-17.5C623.6,70.9,612.5,62.9,598.7,62.8z"/>
			</g>
			<g>
				<path class="st13" d="M599.7,79.7c-1.4,0-1.5,2.2,0,2.2C601.1,81.9,601.1,79.7,599.7,79.7z"/>
				<path class="st13" d="M587.1,79.6c-1.4,0-1.5,2.2,0,2.2C588.5,81.8,588.6,79.6,587.1,79.6z"/>
				<g>
					<path class="st13" d="M612.4,79.7c-1.4,0-1.5,2.2,0,2.2C613.8,81.9,613.8,79.7,612.4,79.7z"/>
				</g>
			</g>
		</g>
	</g>
</g>
<g id="history">
	<g id="Слой_18">
	</g>
</g>
<g id="driver_x5F_history">
	<g id="Слой_21">
	</g>
	<g id="Слой_18__x28_копия_x29_">
	</g>
</g>
<g id="user_x5F_poezdki">
</g>
</svg>
