<svg xmlns="http://www.w3.org/2000/svg" xmlns:xlink="http://www.w3.org/1999/xlink" viewBox="0 0 779.8 310"><defs><style>.cls-1{isolation:isolate;}.cls-2{fill:#ffbd29;}.cls-3{fill:#ffd454;}.cls-4{fill:#ffb127;}.cls-5{fill:#e38601;}.cls-6{fill:#304269;}.cls-7{fill:#bac5f4;}.cls-8{fill:#e1e6fb;}.cls-9{fill:#e1edf9;}.cls-10{fill:#fff;}.cls-11{fill:#8fcaf2;}.cls-12,.cls-15{fill:#5275a0;}.cls-12{opacity:0.25;}.cls-12,.cls-15,.cls-17,.cls-19{mix-blend-mode:multiply;}.cls-13,.cls-20{fill:#d1ebff;}.cls-13{opacity:0.34;}.cls-14{fill:#dfe3e5;}.cls-15,.cls-17{opacity:0.35;}.cls-16{fill:#e2f0fb;}.cls-17,.cls-19{fill:#b1dafc;}.cls-18{fill:none;stroke:#8fcef9;stroke-miterlimit:10;}.cls-19{opacity:0.21;}.cls-21{fill:#ffa008;}.cls-22{fill:#fac61b;}.cls-23{fill:#fd9f00;}.cls-24{fill:#ffe1bd;}.cls-25{fill:#ffbfa4;}.cls-26{fill:#39517c;}.cls-27{fill:#28415a;}.cls-28{fill:#f4cdaf;}.cls-29{fill:#3f3faa;}.cls-30{fill:#4b45bd;}.cls-31{fill:#d1d1d1;}.cls-32{fill:#e5e5e5;}.cls-33{fill:#dedae8;}.cls-34{fill:#feaf84;}.cls-35{fill:#f7f7f7;}.cls-36{fill:#3c4043;}.cls-37{fill:#ffbe9d;}.cls-38{fill:#6262dd;}.cls-39{fill:#222b70;}.cls-40{fill:url(#Безымянный_градиент_73);}.cls-41{fill:url(#Безымянный_градиент_73-2);}.cls-42{fill:url(#Безымянный_градиент_73-3);}.cls-43{fill:url(#Безымянный_градиент_73-4);}.cls-44{opacity:0.8;}</style><linearGradient id="Безымянный_градиент_73" x1="122.91" y1="185.24" x2="122.91" y2="-44.37" gradientUnits="userSpaceOnUse"><stop offset="0.07" stop-color="#fff"/><stop offset="0.73" stop-color="#e2e2e2"/><stop offset="1" stop-color="#cfcfcf"/></linearGradient><linearGradient id="Безымянный_градиент_73-2" x1="20.98" y1="286.99" x2="20.98" y2="148.97" xlink:href="#Безымянный_градиент_73"/><linearGradient id="Безымянный_градиент_73-3" x1="219.81" y1="328.86" x2="219.81" y2="216.91" xlink:href="#Безымянный_градиент_73"/><linearGradient id="Безымянный_градиент_73-4" x1="706.03" y1="115.26" x2="706.03" y2="24.72" xlink:href="#Безымянный_градиент_73"/></defs><title>illustrations_billing_otzivi</title><g class="cls-1"><g id="Слой_9" data-name="Слой 9"><g id="Слой_10" data-name="Слой 10"><g id="Слой_11_копия_" data-name="Слой 11 (копия)"><path class="cls-2" d="M312.09,246.61v9.81c0,3.41,15.27,6.16,34.11,6.16s34.11-2.75,34.11-6.16v-9.81Z"/><path class="cls-3" d="M380.31,246.43c0,3.4-15.27,6.16-34.11,6.16s-34.11-2.76-34.11-6.16,15.27-6.16,34.11-6.16S380.31,243,380.31,246.43Z"/><path class="cls-4" d="M373.32,245.78c0,1.58-12.14,2.86-27.12,2.86s-27.12-1.28-27.12-2.86,12.14-2.86,27.12-2.86S373.32,244.2,373.32,245.78Z"/><path class="cls-5" d="M320.25,246.61c3.38-1.17,13.72-2,25.95-2s22.57.86,25.95,2c.76-.26,1.17-.54,1.17-.83,0-1.58-12.14-2.86-27.12-2.86s-27.12,1.28-27.12,2.86C319.08,246.07,319.49,246.35,320.25,246.61Z"/><path class="cls-2" d="M314.89,235.45v9.82c0,3.4,15.27,6.16,34.11,6.16s34.11-2.76,34.11-6.16v-9.82Z"/><path class="cls-3" d="M383.11,235.27c0,3.4-15.27,6.16-34.11,6.16s-34.11-2.76-34.11-6.16,15.27-6.16,34.11-6.16S383.11,231.87,383.11,235.27Z"/><path class="cls-4" d="M376.12,234.62c0,1.58-12.14,2.86-27.12,2.86s-27.12-1.28-27.12-2.86S334,231.77,349,231.77,376.12,233,376.12,234.62Z"/><path class="cls-5" d="M323.05,235.45c3.38-1.17,13.72-2,25.95-2s22.57.85,25.95,2c.76-.26,1.17-.54,1.17-.83,0-1.58-12.14-2.85-27.12-2.85s-27.12,1.27-27.12,2.85C321.88,234.91,322.29,235.19,323.05,235.45Z"/><path class="cls-2" d="M308.93,223.24v9.81c0,3.4,15.27,6.16,34.11,6.16s34.12-2.76,34.12-6.16v-9.81Z"/><path class="cls-3" d="M377.16,223.06c0,3.4-15.28,6.16-34.12,6.16s-34.11-2.76-34.11-6.16S324.2,216.9,343,216.9,377.16,219.65,377.16,223.06Z"/><path class="cls-4" d="M370.16,222.41c0,1.58-12.14,2.86-27.12,2.86s-27.12-1.28-27.12-2.86,12.14-2.86,27.12-2.86S370.16,220.83,370.16,222.41Z"/><path class="cls-5" d="M317.09,223.24c3.38-1.17,13.72-2,26-2s22.57.86,25.95,2c.76-.26,1.17-.54,1.17-.83,0-1.58-12.14-2.86-27.12-2.86s-27.12,1.28-27.12,2.86C315.92,222.7,316.33,223,317.09,223.24Z"/><path class="cls-2" d="M312.09,212.08v9.81c0,3.41,15.27,6.16,34.11,6.16s34.11-2.75,34.11-6.16v-9.81Z"/><path class="cls-3" d="M380.31,211.9c0,3.4-15.27,6.16-34.11,6.16s-34.11-2.76-34.11-6.16,15.27-6.16,34.11-6.16S380.31,208.5,380.31,211.9Z"/><path class="cls-4" d="M373.32,211.25c0,1.58-12.14,2.86-27.12,2.86s-27.12-1.28-27.12-2.86,12.14-2.86,27.12-2.86S373.32,209.67,373.32,211.25Z"/><path class="cls-5" d="M320.25,212.08c3.38-1.17,13.72-2,25.95-2s22.57.85,25.95,2c.76-.26,1.17-.54,1.17-.83,0-1.58-12.14-2.86-27.12-2.86s-27.12,1.28-27.12,2.86C319.08,211.54,319.49,211.82,320.25,212.08Z"/><path class="cls-2" d="M313.54,200.93v9.81c0,3.4,15.28,6.16,34.12,6.16s34.11-2.76,34.11-6.16v-9.81Z"/><path class="cls-3" d="M381.77,200.74c0,3.4-15.27,6.16-34.11,6.16s-34.12-2.76-34.12-6.16,15.28-6.16,34.12-6.16S381.77,197.34,381.77,200.74Z"/><path class="cls-4" d="M374.78,200.1c0,1.57-12.15,2.85-27.12,2.85s-27.12-1.28-27.12-2.85,12.14-2.86,27.12-2.86S374.78,198.52,374.78,200.1Z"/><path class="cls-5" d="M321.71,200.93c3.37-1.18,13.71-2,26-2s22.57.85,25.95,2c.76-.27,1.17-.55,1.17-.83,0-1.58-12.15-2.86-27.12-2.86s-27.12,1.28-27.12,2.86C320.54,200.38,321,200.66,321.71,200.93Z"/><path class="cls-2" d="M316.92,189.6v9.81c0,3.4,15.27,6.16,34.11,6.16s34.11-2.76,34.11-6.16V189.6Z"/><path class="cls-3" d="M385.14,189.42c0,3.4-15.27,6.16-34.11,6.16s-34.11-2.76-34.11-6.16,15.27-6.16,34.11-6.16S385.14,186,385.14,189.42Z"/><path class="cls-4" d="M378.15,188.77c0,1.58-12.14,2.86-27.12,2.86s-27.12-1.28-27.12-2.86,12.14-2.86,27.12-2.86S378.15,187.19,378.15,188.77Z"/><path class="cls-6" d="M497.29,52.18s3.85,1,9.67,9,18.7,37.55,18.7,37.55L488.54,106S471.93,70.84,470.82,69.4c-1.77-2.3-7.07-2.79-7.07-2.79l4.35-7.51Z"/><rect class="cls-7" x="511.31" y="239.4" width="33.95" height="23.35"/><path class="cls-8" d="M562.74,262.38H493.83a3.94,3.94,0,0,0,0,7.88h68.91a3.93,3.93,0,0,0,3.94-3.94h0A3.94,3.94,0,0,0,562.74,262.38Z"/><path class="cls-7" d="M566.68,266.33a3.93,3.93,0,0,1-3.94,3.93H493.83a3.93,3.93,0,0,1-3.94-3.93,3.71,3.71,0,0,1,.12-1,3.94,3.94,0,0,0,3.82,3h68.91a3.93,3.93,0,0,0,3.82-3A3.33,3.33,0,0,1,566.68,266.33Z"/><path class="cls-7" d="M634.51,95.8H422.06a4.14,4.14,0,0,0-4.14,4.14v140.3a4.14,4.14,0,0,0,4.14,4.14H634.51a4.14,4.14,0,0,0,4.14-4.14V99.94a4.14,4.14,0,0,0-4.14-4.14Z"/><rect class="cls-9" x="421.37" y="99.94" width="213.83" height="127.62"/><rect class="cls-10" x="449.05" y="107.03" width="172.13" height="116.49" rx="4.09" ry="4.09"/><path class="cls-11" d="M617,106.68,453.19,107a4.13,4.13,0,0,0-4.13,4.15v3.93l172.11-.36v-3.93A4.14,4.14,0,0,0,617,106.68Z"/><path class="cls-10" d="M458.58,111.92a1.39,1.39,0,1,1-1.39-1.39A1.39,1.39,0,0,1,458.58,111.92Z"/><path class="cls-10" d="M464.47,111.91a1.39,1.39,0,1,1-1.39-1.39A1.39,1.39,0,0,1,464.47,111.91Z"/><path class="cls-10" d="M470.36,111.89a1.39,1.39,0,1,1-1.39-1.38A1.4,1.4,0,0,1,470.36,111.89Z"/><rect class="cls-12" x="435.34" y="105.21" width="172.13" height="116.49" rx="4.09" ry="4.09"/><rect class="cls-10" x="431.7" y="102.7" width="172.13" height="116.49" rx="4.09" ry="4.09"/><path class="cls-7" d="M599.67,102.36l-163.83.34a4.13,4.13,0,0,0-4.13,4.15v3.93l172.12-.36v-3.93A4.13,4.13,0,0,0,599.67,102.36Z"/><path class="cls-10" d="M441.23,107.6a1.39,1.39,0,1,1-1.39-1.39A1.39,1.39,0,0,1,441.23,107.6Z"/><path class="cls-10" d="M447.12,107.58a1.39,1.39,0,1,1-1.4-1.39A1.4,1.4,0,0,1,447.12,107.58Z"/><path class="cls-10" d="M453,107.57a1.4,1.4,0,1,1-1.4-1.39A1.4,1.4,0,0,1,453,107.57Z"/><rect class="cls-13" x="522.38" y="160.66" width="64.13" height="35.2" rx="1.65" ry="1.65"/><rect class="cls-11" x="438.44" y="118.21" width="16.98" height="2.72" rx="1.17" ry="1.17" transform="translate(-0.25 0.92) rotate(-0.12)"/><rect class="cls-11" x="438.44" y="144.92" width="10.71" height="2.72" rx="1.17" ry="1.17" transform="translate(-0.3 0.92) rotate(-0.12)"/><rect class="cls-11" x="438.44" y="122.97" width="31.74" height="2.72" rx="1.17" ry="1.17" transform="translate(-0.29 1.07) rotate(-0.13)"/><rect class="cls-14" x="438.45" y="131.58" width="39.06" height="0.99" rx="0.41" ry="0.41" transform="translate(-0.32 1.11) rotate(-0.14)"/><rect class="cls-14" x="438.45" y="129.4" width="39.06" height="0.99" rx="0.41" ry="0.41" transform="translate(-0.31 1.11) rotate(-0.14)"/><rect class="cls-14" x="438.45" y="133.75" width="39.06" height="0.99" rx="0.41" ry="0.41" transform="translate(-0.32 1.11) rotate(-0.14)"/><rect class="cls-14" x="438.45" y="135.92" width="39.06" height="0.99" rx="0.41" ry="0.41" transform="translate(-0.33 1.11) rotate(-0.14)"/><rect class="cls-14" x="438.45" y="138.1" width="29.27" height="0.99" rx="0.41" ry="0.41" transform="translate(-0.34 1.13) rotate(-0.14)"/><rect class="cls-14" x="491.76" y="206.63" width="29.61" height="0.99" rx="0.42" ry="0.42" transform="translate(-0.43 1.05) rotate(-0.12)"/><rect class="cls-14" x="491.76" y="204.46" width="29.61" height="0.99" rx="0.42" ry="0.42" transform="translate(-0.42 1.05) rotate(-0.12)"/><rect class="cls-14" x="491.76" y="208.81" width="29.61" height="0.99" rx="0.42" ry="0.42" transform="matrix(1, 0, 0, 1, -0.43, 1.05)"/><rect class="cls-14" x="491.76" y="210.98" width="29.61" height="0.99" rx="0.42" ry="0.42" transform="translate(-0.44 1.05) rotate(-0.12)"/><rect class="cls-14" x="491.77" y="213.15" width="22.84" height="0.99" rx="0.42" ry="0.42" transform="translate(-0.44 1.04) rotate(-0.12)"/><rect class="cls-14" x="524.83" y="206.65" width="29.61" height="0.99" rx="0.42" ry="0.42" transform="translate(-0.43 1.12) rotate(-0.12)"/><rect class="cls-14" x="524.83" y="204.48" width="29.61" height="0.99" rx="0.42" ry="0.42" transform="translate(-0.42 1.12) rotate(-0.12)"/><rect class="cls-14" x="524.84" y="208.82" width="29.61" height="0.99" rx="0.42" ry="0.42" transform="matrix(1, 0, 0, 1, -0.43, 1.11)"/><rect class="cls-14" x="524.84" y="211" width="29.61" height="0.99" rx="0.42" ry="0.42" transform="translate(-0.43 1.11) rotate(-0.12)"/><rect class="cls-14" x="524.84" y="213.16" width="22.84" height="0.99" rx="0.42" ry="0.42" transform="translate(-0.44 1.11) rotate(-0.12)"/><path class="cls-14" d="M558.33,206.65h28.76a.43.43,0,0,1,.43.43v.14a.42.42,0,0,1-.42.42H558.33a.42.42,0,0,1-.42-.42v-.14A.42.42,0,0,1,558.33,206.65Z" transform="translate(-0.43 1.18) rotate(-0.12)"/><rect class="cls-14" x="557.91" y="204.48" width="29.61" height="0.99" rx="0.42" ry="0.42" transform="translate(-0.42 1.18) rotate(-0.12)"/><rect class="cls-14" x="557.91" y="208.82" width="29.61" height="0.99" rx="0.42" ry="0.42" transform="matrix(1, 0, 0, 1, -0.43, 1.18)"/><rect class="cls-14" x="557.91" y="211" width="29.61" height="0.99" rx="0.42" ry="0.42" transform="translate(-0.43 1.18) rotate(-0.12)"/><rect class="cls-14" x="557.92" y="213.16" width="22.84" height="0.99" rx="0.42" ry="0.42" transform="translate(-0.44 1.18) rotate(-0.12)"/><rect class="cls-14" x="435.68" y="213.51" width="11.02" height="0.99" rx="0.44" ry="0.44" transform="translate(-0.44 0.91) rotate(-0.12)"/><rect class="cls-14" x="450.87" y="213.51" width="11.02" height="0.99" rx="0.44" ry="0.44" transform="translate(-0.44 0.94) rotate(-0.12)"/><rect class="cls-14" x="466.06" y="213.5" width="11.02" height="0.99" rx="0.44" ry="0.44" transform="translate(-0.44 0.97) rotate(-0.12)"/><rect class="cls-15" x="487.06" y="119.87" width="108.38" height="77.35" rx="3.3" ry="3.3"/><rect class="cls-16" x="483.35" y="114.9" width="108.38" height="77.35" rx="3.3" ry="3.3"/><path class="cls-17" d="M491.3,154.36c3.06,0,6.45,24.06,17.26,24.06s21-33.51,28.39-33.51,8.81,24.75,14.7,24.75,12.91-27.11,18.65-27.11,13.16,19.93,13.16,19.93v24.05H491.3Z"/><rect class="cls-10" x="565.86" y="121.93" width="13.39" height="1.21"/><rect class="cls-10" x="565.86" y="124.14" width="13.39" height="1.21"/><rect class="cls-10" x="565.86" y="126.34" width="13.39" height="1.21"/><rect class="cls-10" x="557.18" y="121.93" width="6.07" height="1.21"/><rect class="cls-10" x="557.18" y="124.14" width="6.07" height="1.21"/><rect class="cls-10" x="557.18" y="126.34" width="6.07" height="1.21"/><path class="cls-18" d="M491.66,149.06c3.74,1.86,7.24,23.83,17.15,23.83s20.1-35.8,26.92-35.8,13.44,28.67,20.7,28.67,26.3-35.46,26.3-35.46"/><polyline class="cls-18" points="584.32 186.59 491.3 186.59 491.3 123.58"/><path class="cls-19" d="M491.3,168.63S503,144.3,508.88,144.3c4.75,0,4.88,12.69,8.88,12.69S526.21,131.3,530,131.3s2.9,30.53,8.08,30.53,6.34-20.16,9.62-20.16,6.72,28,10.23,28c6.86,0,13.62-33.78,17.44-33.78s8.11,20.6,8.11,20.6v30.05H491.3Z"/><circle class="cls-10" cx="491.66" cy="148.74" r="0.73"/><path class="cls-10" d="M501.58,167.29a.73.73,0,1,1-1.46,0,.73.73,0,1,1,1.46,0Z"/><path class="cls-10" d="M536.55,137.1a.73.73,0,1,1-.73-.73A.73.73,0,0,1,536.55,137.1Z"/><path class="cls-10" d="M527.4,148.85a.73.73,0,0,1-1.46,0,.73.73,0,0,1,1.46,0Z"/><path class="cls-10" d="M574.12,146.38a.73.73,0,1,1-.73-.73A.73.73,0,0,1,574.12,146.38Z"/><path class="cls-10" d="M583.46,130.3a.73.73,0,1,1-.73-.73A.73.73,0,0,1,583.46,130.3Z"/><circle class="cls-10" cx="556.44" cy="165.66" r="0.73"/><path class="cls-10" d="M520.84,161.1a.73.73,0,1,1-.73-.73A.73.73,0,0,1,520.84,161.1Z"/><path class="cls-10" d="M549.14,156.76a.73.73,0,1,1-.73-.73A.73.73,0,0,1,549.14,156.76Z"/><path class="cls-20" d="M446.93,203.51a2.86,2.86,0,0,1-.73.11,3,3,0,1,1,3-3,3.11,3.11,0,0,1-.12.81l3.73,1.35a7,7,0,0,0,.34-2.16,6.94,6.94,0,1,0-6.94,6.94,6.82,6.82,0,0,0,1.64-.21Z"/><path class="cls-20" d="M469.45,199.89a3,3,0,1,1-2.89-2.25,3,3,0,0,1,.81.12l1.35-3.73a6.94,6.94,0,1,0,4.78,6.6,6.82,6.82,0,0,0-.2-1.64Z"/><rect class="cls-13" x="437.09" y="152.58" width="41.4" height="17.7" rx="1.53" ry="1.53"/><rect class="cls-20" x="435.68" y="157.3" width="41.4" height="17.7" rx="1.53" ry="1.53"/><path class="cls-8" d="M532.39,235.43a4.1,4.1,0,1,1-4.1-4.1A4.1,4.1,0,0,1,532.39,235.43Z"/><path class="cls-21" d="M654.85,253.56v9.36c0,3.25,15.22,5.88,34,5.88s34-2.63,34-5.88v-9.36Z"/><path class="cls-22" d="M722.85,253.39c0,3.24-15.22,5.87-34,5.87s-34-2.63-34-5.87,15.22-5.88,34-5.88S722.85,250.14,722.85,253.39Z"/><path class="cls-23" d="M715.88,252.77c0,1.5-12.1,2.72-27,2.72s-27-1.22-27-2.72,12.1-2.73,27-2.73S715.88,251.26,715.88,252.77Z"/><path class="cls-5" d="M663,253.56c3.37-1.12,13.68-1.93,25.87-1.93s22.5.81,25.87,1.93c.75-.25,1.16-.52,1.16-.79,0-1.51-12.1-2.73-27-2.73s-27,1.22-27,2.73C661.82,253,662.23,253.31,663,253.56Z"/><path class="cls-21" d="M651,242.18v9.36c0,3.25,15.22,5.88,34,5.88s34-2.63,34-5.88v-9.36Z"/><ellipse class="cls-22" cx="684.99" cy="242.01" rx="34" ry="5.88"/><ellipse class="cls-23" cx="684.99" cy="241.39" rx="27.03" ry="2.73"/><path class="cls-5" d="M659.12,242.18c3.37-1.12,13.68-1.93,25.87-1.93s22.5.81,25.87,1.93c.75-.25,1.16-.52,1.16-.79,0-1.51-12.1-2.73-27-2.73s-27,1.22-27,2.73C658,241.66,658.37,241.93,659.12,242.18Z"/><path class="cls-21" d="M653.85,230.19v9.36c0,3.24,15.22,5.87,34,5.87s34-2.63,34-5.87v-9.36Z"/><path class="cls-22" d="M721.85,230c0,3.25-15.22,5.88-34,5.88s-34-2.63-34-5.88,15.22-5.87,34-5.87S721.85,226.77,721.85,230Z"/><path class="cls-23" d="M714.88,229.39c0,1.51-12.1,2.73-27,2.73s-27-1.22-27-2.73,12.1-2.72,27-2.72S714.88,227.89,714.88,229.39Z"/><path class="cls-5" d="M662,230.19c3.37-1.12,13.68-1.94,25.87-1.94s22.5.82,25.87,1.94c.75-.26,1.16-.52,1.16-.8,0-1.5-12.1-2.72-27-2.72s-27,1.22-27,2.72C660.82,229.67,661.23,229.93,662,230.19Z"/><path class="cls-21" d="M651.39,218.43v9.37c0,3.24,15.23,5.87,34,5.87s34-2.63,34-5.87v-9.37Z"/><path class="cls-22" d="M719.4,218.26c0,3.24-15.22,5.88-34,5.88s-34-2.64-34-5.88,15.23-5.88,34-5.88S719.4,215,719.4,218.26Z"/><path class="cls-23" d="M712.43,217.64c0,1.51-12.1,2.73-27,2.73s-27-1.22-27-2.73,12.11-2.73,27-2.73S712.43,216.14,712.43,217.64Z"/><path class="cls-5" d="M659.53,218.43c3.37-1.11,13.67-1.93,25.87-1.93s22.5.82,25.86,1.93c.76-.25,1.17-.51,1.17-.79,0-1.5-12.1-2.73-27-2.73s-27,1.23-27,2.73C658.36,217.92,658.77,218.18,659.53,218.43Z"/><path class="cls-21" d="M654.26,207.46v9.36c0,3.24,15.22,5.87,34,5.87s34-2.63,34-5.87v-9.36Z"/><path class="cls-22" d="M722.26,207.28c0,3.25-15.22,5.88-34,5.88s-34-2.63-34-5.88,15.22-5.87,34-5.87S722.26,204,722.26,207.28Z"/><path class="cls-23" d="M715.29,206.67c0,1.5-12.1,2.72-27,2.72s-27-1.22-27-2.72,12.1-2.73,27-2.73S715.29,205.16,715.29,206.67Z"/><path class="cls-5" d="M662.39,207.46c3.37-1.12,13.68-1.94,25.87-1.94s22.5.82,25.87,1.94c.75-.25,1.16-.52,1.16-.79,0-1.51-12.1-2.73-27-2.73s-27,1.22-27,2.73C661.23,206.94,661.64,207.21,662.39,207.46Z"/><path class="cls-21" d="M651,195.65,651,205c0,3.24,15.28,5.73,34.06,5.55s34-2.95,33.95-6.2L719,195Z"/><path class="cls-22" d="M719,194.83c0,3.24-15.17,6-34,6.2s-34-2.31-34-5.55,15.16-6,33.94-6.2S718.92,191.58,719,194.83Z"/><path class="cls-23" d="M712,194.28c0,1.5-12.07,2.84-27,3s-27-1-27.06-2.47,12.08-2.84,27-3S712,192.77,712,194.28Z"/><path class="cls-5" d="M659.08,195.57c3.36-1.15,13.66-2.06,25.85-2.18s22.51.6,25.89,1.69c.75-.26,1.16-.53,1.15-.8,0-1.51-12.12-2.61-27.05-2.47s-27,1.48-27,3C657.91,195.07,658.33,195.33,659.08,195.57Z"/><path class="cls-21" d="M654.27,185l.08,9.36c0,3.24,15.28,5.73,34.06,5.55s34-3,34-6.2l-.09-9.36Z"/><path class="cls-22" d="M722.27,184.16c0,3.24-15.17,6-33.95,6.19s-34-2.3-34.06-5.55,15.17-6,34-6.2S722.24,180.91,722.27,184.16Z"/><path class="cls-23" d="M715.29,183.6c0,1.51-12.08,2.85-27,3s-27-1-27.06-2.47,12.08-2.84,27-3S715.28,182.1,715.29,183.6Z"/><path class="cls-5" d="M662.4,184.9c3.36-1.15,13.66-2.06,25.85-2.18s22.51.6,25.88,1.69c.76-.26,1.16-.53,1.16-.81,0-1.5-12.13-2.61-27-2.47s-27,1.48-27,3C661.23,184.39,661.64,184.66,662.4,184.9Z"/><path class="cls-21" d="M654.27,173.55l.08,9.36c0,3.25,15.28,5.73,34.06,5.55s34-3,34-6.2l-.09-9.36Z"/><path class="cls-22" d="M722.27,172.73c0,3.24-15.17,6-33.95,6.2s-34-2.31-34.06-5.55,15.17-6,34-6.2S722.24,169.48,722.27,172.73Z"/><path class="cls-23" d="M715.29,172.18c0,1.5-12.08,2.84-27,3s-27-1-27.06-2.47,12.08-2.84,27-3S715.28,170.67,715.29,172.18Z"/><path class="cls-2" d="M623.85,273.52v9.81c0,3.41,15.27,6.16,34.11,6.16s34.11-2.75,34.11-6.16v-9.81Z"/><path class="cls-3" d="M692.07,273.34c0,3.4-15.27,6.16-34.11,6.16s-34.11-2.76-34.11-6.16,15.27-6.16,34.11-6.16S692.07,269.94,692.07,273.34Z"/><path class="cls-4" d="M685.08,272.69c0,1.58-12.14,2.86-27.12,2.86s-27.12-1.28-27.12-2.86S643,269.83,658,269.83,685.08,271.11,685.08,272.69Z"/><path class="cls-5" d="M632,273.52c3.38-1.17,13.72-2,26-2s22.57.85,25.95,2c.76-.26,1.17-.54,1.17-.83,0-1.58-12.14-2.86-27.12-2.86s-27.12,1.28-27.12,2.86C630.84,273,631.25,273.26,632,273.52Z"/><path class="cls-2" d="M619.73,260.63v9.81c0,3.4,15.28,6.16,34.12,6.16S688,273.84,688,270.44v-9.81Z"/><path class="cls-3" d="M688,260.44c0,3.4-15.27,6.16-34.11,6.16s-34.12-2.76-34.12-6.16,15.28-6.16,34.12-6.16S688,257,688,260.44Z"/><path class="cls-4" d="M681,259.79c0,1.58-12.15,2.86-27.12,2.86s-27.12-1.28-27.12-2.86,12.14-2.85,27.12-2.85S681,258.22,681,259.79Z"/><path class="cls-5" d="M627.9,260.63c3.37-1.18,13.71-2,26-2s22.57.85,25.95,2c.76-.27,1.17-.55,1.17-.84,0-1.57-12.15-2.85-27.12-2.85s-27.12,1.28-27.12,2.85C626.73,260.08,627.14,260.36,627.9,260.63Z"/><path class="cls-2" d="M623.36,249.47v9.81c0,3.4,15.27,6.16,34.11,6.16s34.11-2.76,34.11-6.16v-9.81Z"/><path class="cls-3" d="M691.58,249.29c0,3.4-15.27,6.15-34.11,6.15s-34.11-2.75-34.11-6.15,15.27-6.16,34.11-6.16S691.58,245.88,691.58,249.29Z"/><path class="cls-4" d="M684.59,248.64c0,1.58-12.14,2.86-27.12,2.86s-27.12-1.28-27.12-2.86,12.14-2.86,27.12-2.86S684.59,247.06,684.59,248.64Z"/><path class="cls-5" d="M631.52,249.47c3.38-1.17,13.72-2,26-2s22.57.86,25.95,2c.76-.26,1.17-.54,1.17-.83,0-1.58-12.14-2.86-27.12-2.86s-27.12,1.28-27.12,2.86C630.35,248.93,630.76,249.21,631.52,249.47Z"/><path class="cls-2" d="M618.24,237.37v9.81c0,3.4,15.28,6.16,34.12,6.16s34.11-2.76,34.11-6.16v-9.81Z"/><path class="cls-3" d="M686.47,237.18c0,3.4-15.27,6.16-34.11,6.16s-34.12-2.76-34.12-6.16S633.52,231,652.36,231,686.47,233.78,686.47,237.18Z"/><ellipse class="cls-4" cx="652.36" cy="236.54" rx="27.12" ry="2.86"/><path class="cls-5" d="M626.41,237.37c3.37-1.18,13.71-2,26-2s22.57.85,25.95,2c.75-.27,1.17-.55,1.17-.83,0-1.58-12.15-2.86-27.12-2.86s-27.12,1.28-27.12,2.86C625.24,236.82,625.65,237.1,626.41,237.37Z"/><path class="cls-2" d="M620.73,225.37v9.81c0,3.4,15.28,6.16,34.12,6.16S689,238.58,689,235.18v-9.81Z"/><path class="cls-3" d="M689,225.19c0,3.4-15.27,6.16-34.11,6.16s-34.12-2.76-34.12-6.16S636,219,654.85,219,689,221.79,689,225.19Z"/><path class="cls-4" d="M682,224.54c0,1.58-12.14,2.86-27.12,2.86s-27.12-1.28-27.12-2.86,12.14-2.86,27.12-2.86S682,223,682,224.54Z"/><path class="cls-5" d="M628.9,225.37c3.37-1.17,13.71-2,26-2s22.57.86,25.95,2c.76-.26,1.17-.54,1.17-.83,0-1.58-12.14-2.86-27.12-2.86s-27.12,1.28-27.12,2.86C627.73,224.83,628.14,225.11,628.9,225.37Z"/><path class="cls-2" d="M616.83,214.21V224c0,3.4,15.28,6.16,34.12,6.16s34.11-2.76,34.11-6.16v-9.82Z"/><path class="cls-3" d="M685.06,214c0,3.4-15.27,6.16-34.11,6.16s-34.12-2.76-34.12-6.16,15.28-6.16,34.12-6.16S685.06,210.63,685.06,214Z"/><path class="cls-4" d="M678.07,213.38c0,1.58-12.15,2.86-27.12,2.86s-27.12-1.28-27.12-2.86S636,210.52,651,210.52,678.07,211.8,678.07,213.38Z"/><path class="cls-5" d="M625,214.21c3.37-1.17,13.71-2,26-2s22.57.85,25.95,2c.75-.26,1.17-.54,1.17-.83,0-1.58-12.15-2.86-27.12-2.86s-27.12,1.28-27.12,2.86C623.83,213.67,624.24,214,625,214.21Z"/><path class="cls-2" d="M620.15,203.06v9.81c0,3.4,15.28,6.16,34.12,6.16s34.11-2.76,34.11-6.16v-9.81Z"/><path class="cls-3" d="M688.38,202.87c0,3.41-15.27,6.16-34.11,6.16s-34.12-2.75-34.12-6.16,15.28-6.15,34.12-6.15S688.38,199.47,688.38,202.87Z"/><path class="cls-4" d="M681.39,202.23c0,1.58-12.15,2.86-27.12,2.86s-27.12-1.28-27.12-2.86,12.14-2.86,27.12-2.86S681.39,200.65,681.39,202.23Z"/><path class="cls-5" d="M628.32,203.06c3.37-1.18,13.71-2,25.95-2s22.57.85,26,2c.75-.27,1.17-.54,1.17-.83,0-1.58-12.15-2.86-27.12-2.86s-27.12,1.28-27.12,2.86C627.15,202.52,627.56,202.79,628.32,203.06Z"/><path class="cls-2" d="M616.83,190.85v9.82c0,3.4,15.28,6.15,34.12,6.15s34.11-2.75,34.11-6.15v-9.82Z"/><path class="cls-3" d="M685.06,190.67c0,3.4-15.27,6.16-34.11,6.16s-34.12-2.76-34.12-6.16,15.28-6.16,34.12-6.16S685.06,187.27,685.06,190.67Z"/><path class="cls-4" d="M678.07,190c0,1.58-12.15,2.86-27.12,2.86s-27.12-1.28-27.12-2.86S636,187.16,651,187.16,678.07,188.44,678.07,190Z"/><path class="cls-5" d="M625,190.85c3.37-1.17,13.71-2,26-2s22.57.85,25.95,2c.75-.26,1.17-.54,1.17-.83,0-1.58-12.15-2.86-27.12-2.86s-27.12,1.28-27.12,2.86C623.83,190.31,624.24,190.59,625,190.85Z"/><path class="cls-2" d="M623.36,180.09v9.81c0,3.4,15.27,6.16,34.11,6.16s34.11-2.76,34.11-6.16v-9.81Z"/><path class="cls-3" d="M691.58,179.9c0,3.4-15.27,6.16-34.11,6.16s-34.11-2.76-34.11-6.16,15.27-6.16,34.11-6.16S691.58,176.5,691.58,179.9Z"/><path class="cls-4" d="M684.59,179.25c0,1.58-12.14,2.86-27.12,2.86s-27.12-1.28-27.12-2.86,12.14-2.85,27.12-2.85S684.59,177.67,684.59,179.25Z"/><path class="cls-5" d="M631.52,180.09c3.38-1.18,13.72-2,26-2s22.57.85,25.95,2c.76-.27,1.17-.55,1.17-.84,0-1.58-12.14-2.85-27.12-2.85s-27.12,1.27-27.12,2.85C630.35,179.54,630.76,179.82,631.52,180.09Z"/><path class="cls-2" d="M619.6,168.24v9.81c0,3.4,15.27,6.16,34.11,6.16s34.12-2.76,34.12-6.16v-9.81Z"/><path class="cls-3" d="M687.83,168.05c0,3.41-15.27,6.16-34.12,6.16s-34.11-2.75-34.11-6.16,15.27-6.15,34.11-6.15S687.83,164.65,687.83,168.05Z"/><path class="cls-4" d="M680.83,167.41c0,1.58-12.14,2.86-27.12,2.86S626.6,169,626.6,167.41s12.14-2.86,27.11-2.86S680.83,165.83,680.83,167.41Z"/><path class="cls-5" d="M627.76,168.24c3.38-1.18,13.72-2,26-2s22.58.85,26,2c.75-.27,1.16-.54,1.16-.83,0-1.58-12.14-2.86-27.12-2.86s-27.11,1.28-27.11,2.86C626.6,167.7,627,168,627.76,168.24Z"/><path class="cls-2" d="M623.36,157.08v9.81c0,3.4,15.27,6.16,34.11,6.16s34.11-2.76,34.11-6.16v-9.81Z"/><path class="cls-3" d="M691.58,156.9c0,3.4-15.27,6.16-34.11,6.16s-34.11-2.76-34.11-6.16,15.27-6.16,34.11-6.16S691.58,153.5,691.58,156.9Z"/><path class="cls-4" d="M684.59,156.25c0,1.58-12.14,2.86-27.12,2.86s-27.12-1.28-27.12-2.86,12.14-2.86,27.12-2.86S684.59,154.67,684.59,156.25Z"/><path class="cls-4" d="M619.54,232.21l-5.76-2.76-27.44,58.14,5.18,3c15.33,7.34,34,.22,41.78-15.9S634.88,239.55,619.54,232.21Z"/><path class="cls-3" d="M629.4,272.77c-7.74,16.12-26.45,23.24-41.78,15.9s-21.5-26.34-13.76-42.46,26.45-23.23,41.79-15.9S637.14,256.66,629.4,272.77Z"/><path class="cls-4" d="M590.73,282.19c-11.42-5.46-15.83-20.09-9.82-32.6s20.2-18.26,31.62-12.79,15.83,20.09,9.82,32.6S602.16,287.65,590.73,282.19Z"/><path class="cls-3" d="M610.52,250.08a12.38,12.38,0,0,1,2,2.47,10.81,10.81,0,0,1,1.17,2.54,7.69,7.69,0,0,1,.37,2.34,4,4,0,0,1-.42,1.88.67.67,0,0,1-.47.33.75.75,0,0,1-.57-.09l-4.11-2.5a2,2,0,0,1-.64-.54,2.47,2.47,0,0,1-.35-.69c0-.09-.07-.25-.12-.47a3.25,3.25,0,0,0-.34-.77,4.33,4.33,0,0,0-.72-1,5.87,5.87,0,0,0-1.28-1,12.5,12.5,0,0,0-1.19-.63,5.2,5.2,0,0,0-1.11-.35,1.93,1.93,0,0,0-1,0,1.15,1.15,0,0,0-.7.57,1.07,1.07,0,0,0-.12.9,3.17,3.17,0,0,0,.68,1.16,16.41,16.41,0,0,0,1.58,1.61c.69.63,1.54,1.4,2.57,2.31a20.4,20.4,0,0,1,2.53,2.65,8.72,8.72,0,0,1,1.43,2.54A5.67,5.67,0,0,1,610,266a7.16,7.16,0,0,1-1,2.63,5.67,5.67,0,0,1-1.82,1.94,6.44,6.44,0,0,1-2.48,1,8.73,8.73,0,0,1-3,0,14.73,14.73,0,0,1-3.28-.95l-1.22,2.07a.8.8,0,0,1-.57.4,1,1,0,0,1-.74-.13l-4.11-2.5a1,1,0,0,1-.46-.6.81.81,0,0,1,.07-.7l1.27-2.16a13.06,13.06,0,0,1-2.17-2.57,11.22,11.22,0,0,1-1.28-2.61,6.8,6.8,0,0,1-.36-2.46,4.64,4.64,0,0,1,.55-2.1.65.65,0,0,1,.47-.33.72.72,0,0,1,.56.09l4.12,2.5a2.18,2.18,0,0,1,.63.52,2.69,2.69,0,0,1,.33.61l.15.61a4.26,4.26,0,0,0,.36,1,5,5,0,0,0,.78,1.12,6.19,6.19,0,0,0,1.47,1.17,11,11,0,0,0,3,1.35c.87.23,1.48.05,1.82-.53a1,1,0,0,0,0-1,5.14,5.14,0,0,0-.9-1.28,24.25,24.25,0,0,0-1.81-1.75c-.76-.67-1.64-1.47-2.65-2.41a10.63,10.63,0,0,1-3.47-5,6.34,6.34,0,0,1,.87-4.92,5.57,5.57,0,0,1,1.56-1.72,6.43,6.43,0,0,1,2.2-1,8.66,8.66,0,0,1,2.69-.23,11.62,11.62,0,0,1,3.07.64l1.27-2.17a.83.83,0,0,1,.57-.4,1,1,0,0,1,.74.13l4.11,2.5a1,1,0,0,1,.46.6.85.85,0,0,1-.07.7Z"/><path class="cls-2" d="M670.51,227.81l6.61-1.52L693.83,299l-6.6,1.57c-17.56,4-35.55-9-40.17-29S653,231.85,670.51,227.81Z"/><path class="cls-3" d="M655.09,269.63c4.62,20.08,22.6,33.08,40.17,29s28.07-23.59,23.45-43.67-22.6-33.07-40.17-29S650.47,249.56,655.09,269.63Z"/><path class="cls-4" d="M693.4,290.59c13.09-3,20.82-18.14,17.23-33.73S693.48,231,680.4,234.05s-20.82,18.14-17.23,33.73S680.32,293.6,693.4,290.59Z"/><path class="cls-3" d="M686.73,246.74a12.61,12.61,0,0,1,3.4.24,11.26,11.26,0,0,1,2.85,1,8.46,8.46,0,0,1,2.14,1.52,4.89,4.89,0,0,1,1.22,1.83.79.79,0,0,1-.07.65.77.77,0,0,1-.46.41l-4.88,1.5a2.14,2.14,0,0,1-.89.11,2.47,2.47,0,0,1-.79-.25l-.47-.26a3.44,3.44,0,0,0-.86-.33,5.1,5.1,0,0,0-1.26-.14,5.86,5.86,0,0,0-1.7.3,11.5,11.5,0,0,0-1.33.51,5.94,5.94,0,0,0-1.07.65,2.19,2.19,0,0,0-.64.83,1.4,1.4,0,0,0,0,1,1.34,1.34,0,0,0,.64.82,3.31,3.31,0,0,0,1.41.33,15.9,15.9,0,0,0,2.4-.07c1-.08,2.2-.2,3.64-.34a20,20,0,0,1,3.91-.06,8.83,8.83,0,0,1,3,.8,6.24,6.24,0,0,1,2.21,1.77,8.63,8.63,0,0,1,1.44,2.88,7.13,7.13,0,0,1,.28,3,7.73,7.73,0,0,1-1,2.83,9.61,9.61,0,0,1-2.09,2.47,14.87,14.87,0,0,1-3.06,2l.81,2.64a1,1,0,0,1-.08.8,1,1,0,0,1-.62.52l-4.88,1.5a1,1,0,0,1-.8-.08,1,1,0,0,1-.51-.62l-.85-2.76a13.1,13.1,0,0,1-3.58-.18,11.36,11.36,0,0,1-3-1,7.58,7.58,0,0,1-2.23-1.62,5.79,5.79,0,0,1-1.3-2.11.83.83,0,0,1,.06-.65.79.79,0,0,1,.47-.4l4.88-1.51a2.47,2.47,0,0,1,.86-.12,2.75,2.75,0,0,1,.72.21c.13.07.33.18.6.35a4.61,4.61,0,0,0,1,.44,5.06,5.06,0,0,0,1.45.23,6.38,6.38,0,0,0,2-.32,11.39,11.39,0,0,0,3.16-1.44,1.69,1.69,0,0,0,.85-2A1.18,1.18,0,0,0,693,264a5.1,5.1,0,0,0-1.67-.24,25.62,25.62,0,0,0-2.66.14c-1.07.12-2.33.23-3.79.35a10.84,10.84,0,0,1-6.45-1,7.62,7.62,0,0,1-3.35-4.58,7.09,7.09,0,0,1-.29-2.67,7.81,7.81,0,0,1,.72-2.64,9.2,9.2,0,0,1,1.7-2.44,12.2,12.2,0,0,1,2.64-2.08l-.85-2.76a1.07,1.07,0,0,1,.08-.8,1,1,0,0,1,.62-.51l4.88-1.5a1.08,1.08,0,0,1,1.32.69Z"/><path class="cls-24" d="M426.56,98.8a12.83,12.83,0,0,0-1.1,7.17,2.1,2.1,0,0,0,.39,1.07.77.77,0,0,0,1,.16,1.26,1.26,0,0,0,.29-.87c.2-2.15,1.5-4,2.08-6.12"/><path class="cls-6" d="M508.45,63.37c-2.81-5.22-6.64-9.2-9.91-10.66a33.88,33.88,0,0,0-11.6-2.86l-7.42,1.53c-3.92.63-8.29,1.11-11.94,2.68-9.15,3.95-16,12.64-23.22,19.29-4.94,4.59-9.9,9.36-13,15.34,1.16-.09,2.29.49,3.46.41A6.11,6.11,0,0,0,437.53,88c6.72-4.24,13.07-7.59,19.51-12.27,6.13-4.45,9.25-7.38,11.89-7.71Z"/><path class="cls-2" d="M437.05,78.91l-3.61,2.63L460,117.76l3.56-2.18c9.62-7,11.48-20.83,4.17-31S446.67,71.94,437.05,78.91Z"/><ellipse class="cls-3" cx="447.83" cy="99.01" rx="21.5" ry="22.62" transform="translate(24.05 274.41) rotate(-34.95)"/><path class="cls-4" d="M458.13,113.26c-7.16,5.2-17.61,3-23.29-4.84s-4.47-18.48,2.69-23.67,17.61-3,23.29,4.84S465.29,108.07,458.13,113.26Z"/><path class="cls-3" d="M445,90.41a8.8,8.8,0,0,1,2.19-.42,8,8,0,0,1,1.94.13,5.41,5.41,0,0,1,1.56.55,2.82,2.82,0,0,1,1,.89.47.47,0,0,1,0,.4.52.52,0,0,1-.24.32L448.62,94a1.33,1.33,0,0,1-.54.21,2,2,0,0,1-.54,0l-.33-.08a2.38,2.38,0,0,0-.59-.06,3,3,0,0,0-.82.13,4.24,4.24,0,0,0-1,.45,8.12,8.12,0,0,0-.78.52,3.59,3.59,0,0,0-.59.57,1.31,1.31,0,0,0-.3.6.79.79,0,0,0,.11.61.81.81,0,0,0,.52.39,2.39,2.39,0,0,0,.94,0,11.24,11.24,0,0,0,1.52-.44c.61-.21,1.37-.47,2.27-.8a13.35,13.35,0,0,1,2.47-.67,5.86,5.86,0,0,1,2,0,3.94,3.94,0,0,1,1.64.69,4.94,4.94,0,0,1,1.29,1.47,3.94,3.94,0,0,1,.58,1.77,4.5,4.5,0,0,1-.24,1.84,6.32,6.32,0,0,1-1,1.82,9.93,9.93,0,0,1-1.68,1.69l.86,1.44a.57.57,0,0,1,.06.48.68.68,0,0,1-.33.41l-2.9,1.7a.68.68,0,0,1-.52.08.61.61,0,0,1-.41-.28l-.9-1.5a9.18,9.18,0,0,1-2.3.48,7.86,7.86,0,0,1-2-.09,4.84,4.84,0,0,1-1.64-.59,3.55,3.55,0,0,1-1.1-1,.47.47,0,0,1,0-.4.52.52,0,0,1,.24-.32l2.9-1.7a1.6,1.6,0,0,1,.53-.21,1.63,1.63,0,0,1,.49,0c.09,0,.23.05.42.11a3.32,3.32,0,0,0,.7.09,3.82,3.82,0,0,0,1-.1,4.78,4.78,0,0,0,1.21-.52,7.89,7.89,0,0,0,1.82-1.37,1,1,0,0,0,.28-1.3.72.72,0,0,0-.6-.34,3.72,3.72,0,0,0-1.09.13c-.45.11-1,.29-1.67.52s-1.45.52-2.36.83a7.44,7.44,0,0,1-4.24.46,4.44,4.44,0,0,1-2.73-2.17,4,4,0,0,1-.53-1.54,4.43,4.43,0,0,1,.11-1.69,6,6,0,0,1,.75-1.73,8.52,8.52,0,0,1,1.41-1.67l-.9-1.5a.58.58,0,0,1-.06-.48.64.64,0,0,1,.33-.41l2.9-1.7a.73.73,0,0,1,.52-.08.59.59,0,0,1,.41.28Z"/><path class="cls-25" d="M477.78,49.09s.83,3.1,1,4A2.51,2.51,0,0,0,481.4,55c6.58-.37,6.15-4.48,6.15-4.48-1.36-2.08-2.19-8.23-2.19-8.23"/><path class="cls-25" d="M469.24,105.34a16.62,16.62,0,0,1-2.53,3.4,5.94,5.94,0,0,1-2.85,1.15,7,7,0,0,0-3.06,2.34c-.41.51,0,.74.88.55s2-.87,2.36-.87.37.45,0,1.26a8.88,8.88,0,0,1-2,2.6c-.6.46-2.26,1.38-2.44,1.93s-.05.83.83.56a14.1,14.1,0,0,0,2.61-1c.57-.3,1.23.24,3.26-.65a16.48,16.48,0,0,0,1.77-1,2.11,2.11,0,0,0,.36-.09c.78-.31,1.19-3,1.61-3.76a34.29,34.29,0,0,1,3.42-3.47Z"/><path class="cls-26" d="M503.79,67.5c2.22-3.85-.76-9.13-5-9.14-6.3,0-9.26,5.47-8.77,6.37,0,2.51-4.7,17.43-4.87,17.66-7.08,10.2-16.56,23.41-16.56,23.41l4.06,3.57s13.49-13.71,19.46-19.26C498.48,84.23,501.57,71.35,503.79,67.5Z"/><path class="cls-25" d="M469.53,46.41A9.29,9.29,0,0,0,474,50.53a8,8,0,0,0,6.31-.52,9.83,9.83,0,0,0-1.2-18c-3.34-1.17-8.44-.28-10.76,2.63S467.85,43.56,469.53,46.41Z"/><path class="cls-27" d="M457,36.48c2.45,2.16,10.44,2.84,12.88,2.45s7.65-3.51,9.5-5.2c-.07,2.41,2.18,6.63,4.59,6.69a2,2,0,0,0,1.4,2.92,2.68,2.68,0,0,0,2.84-2.06c.32-1.24,2.31-9.23.82-12s-3.26-5.28-8.84-6.53-11.78,4.09-14.85,7.13C463,32.28,452.4,32.42,457,36.48Z"/><path class="cls-25" d="M485.48,40.93c.14-1.28-.69-3-1.81-3.22a1.79,1.79,0,0,0-2.29,1.59c-.14,1.28.67,3.4,1.8,3.59A2,2,0,0,0,485.48,40.93Z"/><path class="cls-28" d="M621.93,204a35.38,35.38,0,0,0,0,4.45c.18,1.17,3.95.93,4.33.28s.14-6.08.14-6.08"/><path class="cls-6" d="M627.34,209.84c0,.49,0,1.14,0,1.75a2.2,2.2,0,0,1-1.78,2.15l-2.14.44s-1.57.2-2.77.47a13.56,13.56,0,0,1-3.54.23c-3.22-.32-5.41-1.41-5.51-1.88-.38-2,8.89-3.42,9.42-4.66.38-.9.18-1.12.7-1a1.3,1.3,0,0,1,.8.61,2.28,2.28,0,0,0,2.39,1.13,2.77,2.77,0,0,0,1.49-.78A1.57,1.57,0,0,1,627.34,209.84Z"/><path class="cls-29" d="M655.17,159.73c-5.77-.1-18.56,2-24.39,2.53.3,2.42-2.5,35.9-3.76,44.71,0,0-2.31,2.42-5.66-.08-2.61-14.9-6-46.66-4.61-52.67,1.76-7.65,25.1-13.7,39.55-12.57"/><path class="cls-28" d="M636.25,208.52a35.67,35.67,0,0,0,.2,4.44c.23,1.16,4,.79,4.34.13s-.08-6.08-.08-6.08"/><path class="cls-6" d="M641.88,214.21c0,.52.07,1.24.08,1.9a2.06,2.06,0,0,1-1.57,2l-2.26.54s-1.56.27-2.75.58a13.49,13.49,0,0,1-3.53.36c-3.23-.2-5.46-1.21-5.57-1.68-.46-1.94,8.75-3.74,9.23-5,.35-.92.15-1.13.67-1a1.24,1.24,0,0,1,.82.57,2.28,2.28,0,0,0,2.43,1,2.75,2.75,0,0,0,1.46-.83A1.58,1.58,0,0,1,641.88,214.21Z"/><path class="cls-30" d="M677.79,142.41c1.51,3.52,2.51,9.88,1,12.6-1.33,2.39-2,3.86-4.23,4.61-9.69,3.22-14.28,2.59-25.22,1.92,0,12.2-6.34,39-7.35,50-4.1,1.82-6.42-.11-6.42-.11C636,188.91,631,155.34,634,150c1.85-3.28,23.92-7.6,24.36-7.55"/><path class="cls-28" d="M600,112l-2.65-.15a2.91,2.91,0,0,0-1.27.25,15.52,15.52,0,0,1-2.23.76c-1.92.51-3.77-.14-5-.36s-.21-1.36,1.63-1.47.84.26,1.72-.29-.82-1.35-2.21-1.86a21,21,0,0,1-2.54-1.17c-1.35-.63-2.53-1-3.31-1.48-.55-.31-1-.85-.38-1s4.36.84,5.19.89,1.29-1.17,3.5-1.19,4.4,2.34,5.42,2.91,5,.26,5,.26"/><path class="cls-31" d="M652.77,90.19s-5.25,0-8.5,2.27c-1.83,1.29-17.68,11.65-19.65,12.71s-26.32,2.47-26.32,2.47a4.33,4.33,0,0,0-1.27,2.81,10.8,10.8,0,0,0,.54,3.24s24.07,2.24,29.13,1.19,25.36-9.71,25.36-9.71"/><path class="cls-32" d="M677.91,142.58c-2.62,6.36-16.58,4.06-24,4.33-6.66.24-8.31-2-8.31-2,.25-9.51,1.81-16.57.32-23.5-2.55-11.79-4-26.23-1.63-28.9,4.65-3.55,17-6.14,26.7-3.13,7.29,2.26,9.59,4.4,9.15,9.87C680,101,680.83,134,677.91,142.58Z"/><polygon class="cls-33" points="667.43 144.19 632.22 141.43 652.65 150.72 667.43 144.19"/><polygon class="cls-7" points="652.52 151.54 667.23 145.43 667.43 144.19 652.47 150.32 652.52 151.54"/><path class="cls-34" d="M650.66,138.89l-3,1.38a4.94,4.94,0,0,0-5.64-.22c-3,1.93,0,8.17,2.13,7.71s8.51-4.53,8.51-4.53Z"/><path class="cls-31" d="M651.17,144.86s-1.61-.5-2.19-3.11a8.9,8.9,0,0,1,.24-3s8.3-4.94,14.18-9.42a44,44,0,0,1,8.64-5.3q-.74-7.59-1.48-15.16c-.26-2.69-.93-6.17-.57-8.85.5-3.59,1.86-9.38,6.22-8.65,7.78,1.29,5.93,17.72,5.66,23.72-.19,4.09.17,11.07-2.37,14.54C675.67,134.92,651.17,144.86,651.17,144.86Z"/><path class="cls-7" d="M652.52,151.54l-32.35-5.25a2.29,2.29,0,0,1-1.93-2.18l-1-22.85a2,2,0,0,1,2.25-2l30.3,4.92a1.93,1.93,0,0,1,1.62,1.83Z"/><path class="cls-35" d="M636.57,133.65a2,2,0,0,1-2.45,2,3.06,3.06,0,0,1-2.46-2.89,2,2,0,0,1,2.46-2A3.06,3.06,0,0,1,636.57,133.65Z"/><path class="cls-35" d="M634.11,127.91a4.26,4.26,0,0,0-5.22,4.3,5.54,5.54,0,0,0,.46,2.21,42,42,0,0,0,4.54,7.53.44.44,0,0,0,.22.14.26.26,0,0,0,.22-.06,31.11,31.11,0,0,0,3.17-3.69l-1.72-2a2.94,2.94,0,0,1-1.66.16,4.07,4.07,0,0,1-3.27-3.85,2.67,2.67,0,0,1,3.27-2.7,4.08,4.08,0,0,1,3.27,3.85,2.8,2.8,0,0,1-.45,1.58l1.42,1.67c.18-.31.36-.62.52-.94a4.6,4.6,0,0,0,.45-2A6.5,6.5,0,0,0,634.11,127.91Z"/><path class="cls-28" d="M662.05,92.15h-2.34a1.86,1.86,0,0,1-2-1.52,39.12,39.12,0,0,1-.62-5.62c-1.8-.3-4.54-2.77-4.54-2.77l-.23-1.89-.12-7.94.27-2.71,3.24-3,10.63.55,2.15,2.15.58,4.93L668.78,79l-1.71,4.79L664.81,85s-.18,1-.41,2.16C664.1,88.76,664.78,92.15,662.05,92.15Z"/><path class="cls-36" d="M651.86,81.88A6.47,6.47,0,0,0,654.32,86c1.51,1,3.38,1.09,5.16,1.12l2.91,0c2.46,0,4.9-.31,6.14-3a8.13,8.13,0,0,0,.64-4,2.59,2.59,0,0,0-.25-1.08.89.89,0,0,0-.85-.52c-.44.07-.7.55-1,.92a2.16,2.16,0,0,1-2.56.85,2.9,2.9,0,0,1-.71-.51l-.28-.23a6.27,6.27,0,0,0-3.19-1.22c-1-.12-2.43-.47-3.15.39-.42.5-.84,1-1.25,1.49a2.32,2.32,0,0,1-.58.55,1.56,1.56,0,0,1-.76.19,1.61,1.61,0,0,1-1.63-1,3.2,3.2,0,0,1-.1-.93,1.58,1.58,0,0,0-.26-.89c-.73-.89-.93.55-1,1A10.66,10.66,0,0,0,651.86,81.88Zm6.69.39a2.72,2.72,0,0,0,2.46.25c.44-.14.64.61.2.75a3.35,3.35,0,0,1-3-.32C657.81,82.69,658.16,82,658.55,82.27Z"/><path class="cls-36" d="M651.17,65a14.32,14.32,0,0,1-.39-2,3.65,3.65,0,0,0,1.88.14V62c0-.31,4.21-.58,4.55-.61,3.2-.3,6.13-.59,9,1.13a8.85,8.85,0,0,1,4.5,6.58,13.73,13.73,0,0,1-2,8.72,20.48,20.48,0,0,0,.23-3.19,6.44,6.44,0,0,0-.7-2,8.1,8.1,0,0,0-2.88-3,10.23,10.23,0,0,0-5.89-1.86,16.48,16.48,0,0,0-6.73,1.31c-.88.44-1.15-1-1.73-1.91a16.88,16.88,0,0,1-.84-2.17Z"/><path class="cls-2" d="M373.17,98.23l4.45-1,11.26,49-4.45,1c-11.83,2.72-23.95-6-27.06-19.56S361.33,101,373.17,98.23Z"/><path class="cls-3" d="M362.78,126.4c3.11,13.52,15.22,22.28,27.06,19.56s18.9-15.89,15.79-29.42S390.41,94.26,378.57,97,359.67,112.88,362.78,126.4Z"/><path class="cls-4" d="M388.59,140.52c8.81-2,14-12.22,11.6-22.72s-11.55-17.4-20.36-15.37-14,12.22-11.61,22.72S379.77,142.54,388.59,140.52Z"/><path class="cls-3" d="M384.09,111a8.18,8.18,0,0,1,2.29.16,7.48,7.48,0,0,1,1.92.67,5.9,5.9,0,0,1,1.44,1,3.35,3.35,0,0,1,.83,1.23.61.61,0,0,1-.36.72l-3.29,1a1.51,1.51,0,0,1-.6.07,1.8,1.8,0,0,1-.53-.17l-.32-.18a2.72,2.72,0,0,0-.57-.22,3.6,3.6,0,0,0-.86-.09,4.09,4.09,0,0,0-1.14.2,7.32,7.32,0,0,0-.9.34,4.72,4.72,0,0,0-.72.44,1.62,1.62,0,0,0-.43.56,1,1,0,0,0,0,.7.9.9,0,0,0,.43.55,2.33,2.33,0,0,0,.95.22,10.49,10.49,0,0,0,1.62,0c.66,0,1.48-.13,2.45-.23a13.81,13.81,0,0,1,2.63,0,6.05,6.05,0,0,1,2,.54,4.23,4.23,0,0,1,1.49,1.19,6,6,0,0,1,1,1.94,4.89,4.89,0,0,1,.19,2.06,5.05,5.05,0,0,1-.65,1.9,6.43,6.43,0,0,1-1.41,1.67,9.53,9.53,0,0,1-2.06,1.35l.55,1.78a.68.68,0,0,1-.05.54.69.69,0,0,1-.42.35l-3.29,1a.65.65,0,0,1-.54-.06.63.63,0,0,1-.34-.41l-.58-1.86a8.65,8.65,0,0,1-2.41-.12,8.4,8.4,0,0,1-2-.66,5.08,5.08,0,0,1-1.5-1.09,3.79,3.79,0,0,1-.87-1.42.52.52,0,0,1,0-.44.51.51,0,0,1,.31-.27l3.29-1a1.52,1.52,0,0,1,.58-.09,2.17,2.17,0,0,1,.49.14l.4.24a2.92,2.92,0,0,0,.68.3,3.42,3.42,0,0,0,1,.15,4,4,0,0,0,1.32-.22,7.31,7.31,0,0,0,2.13-1,1.12,1.12,0,0,0,.58-1.31.82.82,0,0,0-.53-.53,3.47,3.47,0,0,0-1.12-.17c-.48,0-1.08,0-1.79.1s-1.57.16-2.55.24a7.33,7.33,0,0,1-4.35-.69,5.07,5.07,0,0,1-2.25-3.08,4.76,4.76,0,0,1-.2-1.8,5.19,5.19,0,0,1,.48-1.78,6.44,6.44,0,0,1,1.15-1.64,8.23,8.23,0,0,1,1.78-1.4l-.57-1.86a.68.68,0,0,1,.05-.54.65.65,0,0,1,.42-.34l3.29-1a.73.73,0,0,1,.54.06.66.66,0,0,1,.34.41Z"/><g id="_Группа_" data-name="&lt;Группа&gt;"><path id="_Контур_" data-name="&lt;Контур&gt;" class="cls-27" d="M357.6,99.2s9,.26,4.21,10.48S357.6,99.2,357.6,99.2Z"/><path id="_Контур_2" data-name="&lt;Контур&gt;" class="cls-28" d="M358.21,101s2.64,1,4.08,8.88c0,.27,1.91,6-1.39,10.08-1.23,1.54-6.66,1.75-11.45.4s-7.49-7.55-6.38-11.87S352.45,98.5,358.21,101Z"/><path id="_Контур_3" data-name="&lt;Контур&gt;" class="cls-28" d="M358,116.23c-1.16,1.27-1.39,3.83-1.29,6.28,0,.41,0,.83.08,1.23a39.13,39.13,0,0,0,.67,4.6l-8.58-.21a52.68,52.68,0,0,0-.21-8.26S360.72,113.23,358,116.23Z"/></g><g id="_Группа_2" data-name="&lt;Группа&gt;"><path id="_Контур_4" data-name="&lt;Контур&gt;" class="cls-37" d="M362.85,184.54l-13.41-14.46s-8.12,8.59-6.61,18c.74,4.63,2.08,7.05,2.53,9.26s1.46,30.72.88,32.73-3.71,7.47-5.38,13.4c-2,7.13-4,17.47-5.67,23.65s1.05,14.41,1.63,12.33c5-17.83,17.94-38.34,20.06-47.3S360.63,206.54,362.85,184.54Z"/><path id="_Контур_5" data-name="&lt;Контур&gt;" class="cls-28" d="M340.9,266.52s-4.11,11.66-3.78,13.14c.2.91,1.11,4,1.32,4.39.08.17,3,2.51,1.07,2.46s-6.51-6.13-7.19-6.59a2.91,2.91,0,0,1-1.35-3,12.62,12.62,0,0,1,2.5-4.42c.89-1.25,1.59-4.81,1.59-4.81Z"/><path id="_Контур_6" data-name="&lt;Контур&gt;" class="cls-38" d="M342.12,287a11.8,11.8,0,0,0-3.17-2.53h0c-.36-.46-.66-.76-.51-.46.25.49-1.05.75-1.7.22-2.24-1.8-2.88-4.49-4-5.76-1.58-1.82-.47-4.21-.31-4.61a10.47,10.47,0,0,0-3.22,1.45,6.15,6.15,0,0,0-1.72,1.91h0a5.21,5.21,0,0,0,1.46,5.91l5,4.1.91.75a3.79,3.79,0,0,0,2.4.86h4.22a1,1,0,0,0,1-1.09A2.06,2.06,0,0,0,342.12,287Z"/></g><g id="_Группа_3" data-name="&lt;Группа&gt;"><path id="_Контур_7" data-name="&lt;Контур&gt;" class="cls-28" d="M373.1,285.24c-.29-.38-3.72-1.26-5.29-2.09a9.38,9.38,0,0,1-3.47-4c-.29-.92.2-5.4.42-7.28,1.49-13,6.06-31.07,7.09-38.63,1.8-13.14,1.31-26.92-1.86-48.57l-17.6-16.21s-6.18,9.36-5.26,18.94c.54,5.55,5,6.8,5.57,9s8.93,37.44,8.93,37.44a64.78,64.78,0,0,0-3.75,15.3c-.74,6.9,1.2,14.69,1.07,22.69-.07,1.56-.14,5.3-.71,6.45-.69,1.4-2.27,3-2.36,4.81a2.81,2.81,0,0,0,1.92,2.68c1.3.54,2.12-.17,2.58-.15,2.68.13,3.25,2,7.85,2.45a7.39,7.39,0,0,0,4.74-1.49A1,1,0,0,0,373.1,285.24Z"/><path id="_Контур_8" data-name="&lt;Контур&gt;" class="cls-38" d="M373.35,286.9a3.48,3.48,0,0,1-.81.94,4.84,4.84,0,0,1-3.09,1.05h-9.31a5.11,5.11,0,0,1-4.81-3.88h0a5.24,5.24,0,0,1,.22-2.38,11,11,0,0,1,2-3.15c.13.42.78,3,3.16,3.37,1.66.28,3.86,2,6.73,1.93.84,0,1.69-1,1.18-1.25s.92,0,1.83.36a28.8,28.8,0,0,1,2.93,1.44C373.69,285.5,373.65,286.34,373.35,286.9Z"/></g><path id="_Контур_9" data-name="&lt;Контур&gt;" class="cls-28" d="M335,150.17s.9,4.64,1.47,6.55,3.37,14,6,13.83,17.21-12.36,17.21-12.36l-2.06-4.12-12.81,6.11s-1.16-13.88-2.17-17.18Z"/><path id="_Контур_10" data-name="&lt;Контур&gt;" class="cls-8" d="M346.75,128.38A15.47,15.47,0,0,0,339,131c-5.55,4.13-4.23,19.73-4.23,19.73s-.27.81,3.41.6a26.4,26.4,0,0,0,6.65-1.25l-1.07-12.5Z"/><path class="cls-39" d="M341.2,242.35c2.07-5.47,4.93-11.36,5-12.26.08-.75-.67-6.27-.92-8.06a.15.15,0,0,1,0-.12c0-.62-3-23.34-4-26.79a28.54,28.54,0,0,1-1.83-11.62c.35-6.23,5.3-13.65,6.65-15l22.9-.37s3.95,9.34,4.33,15.11c.8,12.17.81,46.29.27,50.18-.68,5.05-8,45.11-8,45.11s-7.59.17-10.36-1.07l4.61-43.85-1-10.68c0-.18-.07-.61-.14-.61a81.15,81.15,0,0,1-1.56,10.13c-1,3.87-11.05,25.6-15,34.95-1.36,3.21-3.43,10.21-3.43,10.21s-5.44-2.55-6.8-4.65C331.89,273,339.14,247.82,341.2,242.35Z"/><g id="_Группа_4" data-name="&lt;Группа&gt;"><path class="cls-7" d="M368.66,164.49c-.8-1.59-1.5-8.24-1.23-9.94s1.91-2.81,2.64-6.86a15,15,0,0,0-2.4-11c-1.7-2.46-4-7.46-4.5-7.6-7.08-2.15-8.23-1.13-13-.92a32.06,32.06,0,0,0-6.17.71c-2.56.57-5.63,1.42-6.15,4.89a34.9,34.9,0,0,0,1.5,15.89c1.08,3.38,7.54,15.05,5.94,17.31a7.71,7.71,0,0,0-1.39,2.14c-.41,2.36,3.4,2.94,7.2,3.38a61,61,0,0,0,11-.07C372.81,171.67,369,165.14,368.66,164.49Z"/></g><path class="cls-27" d="M346.77,127.44a7.7,7.7,0,0,0,3.1-3c1.11-2.33.56-5.91.66-8.41.1-2.65.29-5.53,2.06-7.49a6.32,6.32,0,0,1,4.25-1.84c1.12-.13,1.21.29,2.1-.41a5,5,0,0,0,1.25-2.81,4.74,4.74,0,0,0-1.56-3.74,6.62,6.62,0,0,0-5.37-2c-7.35.6-12.4,5.5-13.73,12.87-.64,3.55.49,7.3-.23,10.72-.44,2.11-1.61,3.61-1.92,5.84-.8,5.79-3.17,13.33-2.34,19.15a.92.92,0,0,0,.26.58c.36.26.82-.15,1.07-.51L340.8,140a11,11,0,0,0,1.5-2.64c.81-2.39,0-5.29,1.41-7.37A10.15,10.15,0,0,1,346.77,127.44Z"/><g id="_Группа_5" data-name="&lt;Группа&gt;"><path id="_Контур_11" data-name="&lt;Контур&gt;" class="cls-28" d="M365.91,146.42s10.65,17.09,14.42,17.09c2.74,0,18.11-18.34,18.11-18.34l-5.21-1.4-12.55,8.64-7.62-12.54Z"/><path class="cls-28" d="M404.53,138.77a7.71,7.71,0,0,1,0-1c.12-.69.59-1.28.75-2a10.09,10.09,0,0,0,.1-1.65c0-.62.42-1.66-.08-1.74.1-.4.25-.84.34-1.24s0-.88-.3-.84c-.52.07-1.09.77-1.42,1.09s-1.12,1.55-1.51,2a5.75,5.75,0,0,1-1.91,1.52s.25-.44.06-.66-1.24.26-2.28.41c-.53.08-1.85,1.69-2.28,2.15s-.85,3.31-1,3.9c-.32,1.55-2.27,3.31-2.27,3.31l4.47,2.21c.11,0,.6-.59.66-.67a3,3,0,0,1,1-.81c1.38-1.35,3.42-2,4.61-3.57a4.66,4.66,0,0,0,1-2.46Z"/></g><g id="_Группа_6" data-name="&lt;Группа&gt;"><path class="cls-8" d="M356.58,127.73c2.27.12,9.54.62,14,7.17,2.5,3.67,5.23,8,6.46,11.41-.59,2-4.41,6.15-7.92,6.1-.18-.13-5.34-6.46-6.34-11.63Z"/></g><path class="cls-3" d="M414.28,222.84A16.82,16.82,0,0,0,429,241.77,17.25,17.25,0,0,0,448,226.89,16.82,16.82,0,0,0,433.36,208,17.25,17.25,0,0,0,414.28,222.84Z"/><path class="cls-4" d="M429.37,238a13.59,13.59,0,0,0,14.91-11.65A12.93,12.93,0,0,0,433,211.71,13.59,13.59,0,0,0,418,223.36,12.93,12.93,0,0,0,429.37,238Z"/><path class="cls-3" d="M432.84,218a6.33,6.33,0,0,1,1.57.55,5.63,5.63,0,0,1,1.2.82,3.83,3.83,0,0,1,.78,1,2.28,2.28,0,0,1,.31,1,.46.46,0,0,1-.13.29.41.41,0,0,1-.28.12l-2.53,0a.94.94,0,0,1-.44-.06,1.5,1.5,0,0,1-.34-.22l-.18-.17a1.27,1.27,0,0,0-.35-.26,2.42,2.42,0,0,0-.58-.23,3.4,3.4,0,0,0-.85-.09,5.21,5.21,0,0,0-.7.06,2.39,2.39,0,0,0-.6.15,1.13,1.13,0,0,0-.43.29.67.67,0,0,0-.17.46.61.61,0,0,0,.18.45,1.67,1.67,0,0,0,.62.33,8.63,8.63,0,0,0,1.14.28l1.78.32a9.88,9.88,0,0,1,1.85.49,4,4,0,0,1,1.32.75,2.78,2.78,0,0,1,.78,1.08,3.73,3.73,0,0,1,.25,1.48,3.31,3.31,0,0,1-.31,1.41,3.72,3.72,0,0,1-.88,1.14,5,5,0,0,1-1.36.84,7.66,7.66,0,0,1-1.74.5V232a.47.47,0,0,1-.15.35.53.53,0,0,1-.37.15l-2.53,0a.5.5,0,0,1-.37-.14.45.45,0,0,1-.15-.34v-1.35a7.27,7.27,0,0,1-1.67-.55,5.69,5.69,0,0,1-1.27-.83,3.5,3.5,0,0,1-.81-1,2.53,2.53,0,0,1-.3-1.11.42.42,0,0,1,.12-.29.46.46,0,0,1,.28-.12l2.54,0a1,1,0,0,1,.73.25c.05.05.13.12.23.23a2.1,2.1,0,0,0,.41.33,2.31,2.31,0,0,0,.65.29,3.45,3.45,0,0,0,1,.12,5.86,5.86,0,0,0,1.71-.24c.46-.14.69-.4.69-.76a.53.53,0,0,0-.25-.46,2.45,2.45,0,0,0-.75-.32,11.25,11.25,0,0,0-1.28-.28c-.52-.09-1.14-.2-1.84-.34a5.37,5.37,0,0,1-2.9-1.3,3.32,3.32,0,0,1-.9-2.49,3.12,3.12,0,0,1,.26-1.23,3.7,3.7,0,0,1,.73-1.1,4.76,4.76,0,0,1,1.16-.87,6.84,6.84,0,0,1,1.56-.59v-1.35a.44.44,0,0,1,.16-.34.5.5,0,0,1,.37-.15l2.53,0a.48.48,0,0,1,.36.14.46.46,0,0,1,.15.34Z"/><path class="cls-7" d="M407.52,268.75a4.77,4.77,0,0,1-3.83-2.08,4.46,4.46,0,0,1-.9.16c-2.72.21-4.08-.85-4.47-3.6a.66.66,0,0,1,.57-.76.67.67,0,0,1,.76.57c.24,1.71.71,2.63,3,2.45l.35-.05a4.43,4.43,0,0,1-.2-2.24,2.55,2.55,0,0,1,1.27-1.8,1.79,1.79,0,0,1,1.71.11,2,2,0,0,1,1,2.22,4.11,4.11,0,0,1-1.88,2.39,3.33,3.33,0,0,0,3.08,1.23.66.66,0,0,1,.79.53.67.67,0,0,1-.53.79A4.13,4.13,0,0,1,407.52,268.75Zm-2.69-6.17a.25.25,0,0,0-.15,0,1.18,1.18,0,0,0-.51.82,3,3,0,0,0,.12,1.5,2.67,2.67,0,0,0,1.23-1.5.61.61,0,0,0-.35-.75A.65.65,0,0,0,404.83,262.58Z"/><path class="cls-8" d="M457.57,268.57h-2.81c-1.69-5.11-5-9.56-9.12-11.78-.43-2.44-1.09-5.41-1.74-5.63s-3.54,1.06-5.8,2.57a47,47,0,0,0-7.86-.69c-14.05,0-25.44,9.46-25.44,21.13,0,6.37,3.39,12.07,8.74,15.94l1.72,6.62a1.46,1.46,0,0,0,1.41,1.09h5.56a1.45,1.45,0,0,0,1.46-1.45V294.6a30.43,30.43,0,0,0,6.55.71,30,30,0,0,0,5.5-.5v1.56a1.45,1.45,0,0,0,1.45,1.45h5.56a1.46,1.46,0,0,0,1.41-1.09l1.5-5.75a21.61,21.61,0,0,0,8.91-10.65h3a2.48,2.48,0,0,0,2.48-2.48v-6.79A2.49,2.49,0,0,0,457.57,268.57Z"/><path class="cls-7" d="M435.34,290.18c-14.62,0-26.46-9.16-26.46-20.46a17.3,17.3,0,0,1,4.39-11.29c-5.2,3.87-8.47,9.49-8.47,15.74s3.39,12.07,8.74,15.94l1.72,6.62a1.46,1.46,0,0,0,1.41,1.09h5.56a1.45,1.45,0,0,0,1.46-1.45V294.6a30.43,30.43,0,0,0,6.55.71,30,30,0,0,0,5.5-.5v1.56a1.45,1.45,0,0,0,1.45,1.45h5.56a1.46,1.46,0,0,0,1.41-1.09l1.5-5.75a24.23,24.23,0,0,0,4.54-3.72A41.21,41.21,0,0,1,435.34,290.18Z"/><path class="cls-9" d="M438.38,258.66a26,26,0,0,0-16.75,0c.11-.61.25-1.23.4-1.85a27.56,27.56,0,0,1,15.94,0C438.13,257.43,438.26,258.05,438.38,258.66Z"/><path class="cls-7" d="M437.5,258.38a25.86,25.86,0,0,0-15,0l-.48-1.57a27.56,27.56,0,0,1,15.94,0C437.81,257.34,437.66,257.86,437.5,258.38Z"/><path class="cls-10" d="M448.52,269a1.75,1.75,0,1,1-1.75-1.75A1.75,1.75,0,0,1,448.52,269Z"/><circle class="cls-7" cx="447.15" cy="268.74" r="0.65"/><path class="cls-3" d="M426,256.66a.67.67,0,0,1-.68-.67V246a.68.68,0,1,1,1.35,0v10A.67.67,0,0,1,426,256.66Z"/><path class="cls-3" d="M430,254.1a.67.67,0,0,1-.68-.67v-10a.68.68,0,0,1,1.35,0v10A.67.67,0,0,1,430,254.1Z"/><path class="cls-3" d="M434.64,256.79a.67.67,0,0,1-.67-.68v-10a.67.67,0,1,1,1.34,0v10A.67.67,0,0,1,434.64,256.79Z"/><polygon class="cls-8" points="701.7 113.71 706.03 112.1 701.84 110.51 700.22 104.17 698.63 110.37 694.29 111.98 698.49 113.58 700.11 119.91 701.7 113.71"/><polygon class="cls-8" points="622.17 33.07 626.51 31.45 622.31 29.86 620.7 23.53 619.11 29.72 614.77 31.34 618.97 32.93 620.58 39.26 622.17 33.07"/><polygon class="cls-8" points="364.4 45.97 368.73 44.36 364.53 42.77 362.92 36.43 361.33 42.63 356.99 44.24 361.19 45.84 362.81 52.17 364.4 45.97"/><polygon class="cls-8" points="282.31 143.62 286.65 142.01 282.45 140.42 280.84 134.09 279.24 140.28 274.91 141.9 279.11 143.49 280.72 149.82 282.31 143.62"/><path class="cls-40" d="M131.08,19.43a35.82,35.82,0,0,1,10.4,3.45,30.43,30.43,0,0,1,7.5,5.38,22.69,22.69,0,0,1,4.6,6.35,18.15,18.15,0,0,1,1.81,6.23,2.69,2.69,0,0,1-.9,2.36,3.49,3.49,0,0,1-2.36.91h-8.47a5,5,0,0,1-3.08-.79,7.85,7.85,0,0,1-1.88-2.12,15.85,15.85,0,0,0-5.5-5.26q-3.69-2.23-10.95-2.24a25.81,25.81,0,0,0-6,.67,17.22,17.22,0,0,0-5,1.93A10.35,10.35,0,0,0,108,39.39a7.22,7.22,0,0,0-1.21,4.11A7.35,7.35,0,0,0,108.09,48a10.42,10.42,0,0,0,4.3,3A45.61,45.61,0,0,0,120,53.42q4.65,1.09,11.31,2.54a70.57,70.57,0,0,1,12.28,3.69,28.16,28.16,0,0,1,8.23,5.08,17.14,17.14,0,0,1,4.59,6.84,25.93,25.93,0,0,1,1.4,8.83A21.64,21.64,0,0,1,156,89.23a22.8,22.8,0,0,1-5.26,7.38,29,29,0,0,1-8.41,5.44,41.72,41.72,0,0,1-11.25,3v8.22a3.31,3.31,0,0,1-3.27,3.27H118a3.3,3.3,0,0,1-3.26-3.27v-8.22a44.13,44.13,0,0,1-10.22-2.84,34,34,0,0,1-8.35-4.9,24,24,0,0,1-5.75-6.72A18.67,18.67,0,0,1,88,82.21a2.65,2.65,0,0,1,.91-2.35A3.43,3.43,0,0,1,91.28,79h8.47a5.68,5.68,0,0,1,3.14.72,5.54,5.54,0,0,1,1.82,2.18A22.49,22.49,0,0,0,106.76,85,11.33,11.33,0,0,0,110,87.78a19.84,19.84,0,0,0,5.14,2,31.42,31.42,0,0,0,7.68.79,44.57,44.57,0,0,0,7-.54,20.65,20.65,0,0,0,5.93-1.82,12.74,12.74,0,0,0,4.11-3.14,7,7,0,0,0,1.57-4.66A5.92,5.92,0,0,0,139.79,76a13.74,13.74,0,0,0-5.14-2.9,73.54,73.54,0,0,0-8.53-2.3q-5.09-1.08-11.73-2.78a62.73,62.73,0,0,1-10.59-3.45,24.81,24.81,0,0,1-7.5-4.9,18.27,18.27,0,0,1-4.42-6.83,27.31,27.31,0,0,1-1.45-9.38,20.93,20.93,0,0,1,1.81-8.71,24.45,24.45,0,0,1,5-7.2A27.09,27.09,0,0,1,105,22.27a39.42,39.42,0,0,1,9.8-3.09V11A3.3,3.3,0,0,1,118,7.69h9.8A3.31,3.31,0,0,1,131.08,11Z"/><path class="cls-41" d="M25.9,187.32a21.46,21.46,0,0,1,6.25,2.07,18.5,18.5,0,0,1,4.51,3.24,13.74,13.74,0,0,1,2.76,3.81,10.9,10.9,0,0,1,1.09,3.75,1.62,1.62,0,0,1-.54,1.42,2.1,2.1,0,0,1-1.42.54H33.46a3,3,0,0,1-1.86-.47,5,5,0,0,1-1.12-1.27,9.54,9.54,0,0,0-3.31-3.17,13,13,0,0,0-6.58-1.34,15.58,15.58,0,0,0-3.6.4,10,10,0,0,0-3,1.16,6.09,6.09,0,0,0-2,1.86,4.3,4.3,0,0,0-.73,2.47,4.44,4.44,0,0,0,.8,2.73,6.23,6.23,0,0,0,2.58,1.81,27.68,27.68,0,0,0,4.58,1.42q2.81.66,6.8,1.53a42,42,0,0,1,7.38,2.22,17,17,0,0,1,4.95,3.05,10.38,10.38,0,0,1,2.76,4.11A15.57,15.57,0,0,1,42,224a13.14,13.14,0,0,1-1.09,5.31,13.6,13.6,0,0,1-3.17,4.43A17.33,17.33,0,0,1,32.66,237a24.87,24.87,0,0,1-6.76,1.82v4.95a1.89,1.89,0,0,1-.59,1.38,1.85,1.85,0,0,1-1.38.58H18a2,2,0,0,1-2-2V238.8a26.57,26.57,0,0,1-6.15-1.71,20.41,20.41,0,0,1-5-2.94,14.45,14.45,0,0,1-3.46-4A11.14,11.14,0,0,1,0,225.06a1.61,1.61,0,0,1,.54-1.42A2.12,2.12,0,0,1,2,223.1H7.06a3.39,3.39,0,0,1,1.89.43A3.27,3.27,0,0,1,10,224.84a13.59,13.59,0,0,0,1.24,1.89,6.65,6.65,0,0,0,2,1.67,11.72,11.72,0,0,0,3.09,1.2,18.83,18.83,0,0,0,4.62.48,26.33,26.33,0,0,0,4.22-.33,12.3,12.3,0,0,0,3.56-1.09,7.65,7.65,0,0,0,2.48-1.89,4.27,4.27,0,0,0,.94-2.8,3.54,3.54,0,0,0-1-2.62A8.24,8.24,0,0,0,28,219.6a44.47,44.47,0,0,0-5.13-1.38q-3-.65-7-1.67a37.72,37.72,0,0,1-6.36-2.07A14.88,14.88,0,0,1,5,211.53a10.91,10.91,0,0,1-2.65-4.11,16,16,0,0,1-.88-5.63,12.64,12.64,0,0,1,1.09-5.24,14.72,14.72,0,0,1,3-4.32,16.06,16.06,0,0,1,4.62-3.2,23.6,23.6,0,0,1,5.89-1.86v-4.94a1.89,1.89,0,0,1,.58-1.39,1.92,1.92,0,0,1,1.38-.58h5.89a2,2,0,0,1,2,2Z"/><path class="cls-42" d="M223.8,248a18.09,18.09,0,0,1,5.07,1.68,15.28,15.28,0,0,1,3.66,2.63,11,11,0,0,1,2.24,3.1,8.69,8.69,0,0,1,.88,3,1.27,1.27,0,0,1-.44,1.15,1.67,1.67,0,0,1-1.15.45h-4.13a2.4,2.4,0,0,1-1.5-.39,3.69,3.69,0,0,1-.91-1,7.75,7.75,0,0,0-2.69-2.57,10.55,10.55,0,0,0-5.34-1.09,12.62,12.62,0,0,0-2.92.33,8.37,8.37,0,0,0-2.42.94,5.12,5.12,0,0,0-1.62,1.51,3.88,3.88,0,0,0,.06,4.21,5.1,5.1,0,0,0,2.1,1.48,23.69,23.69,0,0,0,3.71,1.15c1.52.35,3.35.77,5.52,1.24a33.83,33.83,0,0,1,6,1.8,13.43,13.43,0,0,1,4,2.47,8.42,8.42,0,0,1,2.25,3.34,12.69,12.69,0,0,1,.67,4.3,10.58,10.58,0,0,1-.88,4.31,11.16,11.16,0,0,1-2.57,3.59,14,14,0,0,1-4.1,2.66,20.07,20.07,0,0,1-5.48,1.47v4a1.6,1.6,0,0,1-1.59,1.6h-4.78a1.54,1.54,0,0,1-1.12-.47,1.53,1.53,0,0,1-.47-1.13v-4a21.24,21.24,0,0,1-5-1.38,16.66,16.66,0,0,1-4.07-2.39,11.74,11.74,0,0,1-2.8-3.27,9.12,9.12,0,0,1-1.18-4.1,1.3,1.3,0,0,1,.44-1.15,1.69,1.69,0,0,1,1.15-.45h4.13a2.76,2.76,0,0,1,1.54.36,2.69,2.69,0,0,1,.88,1.06,12.1,12.1,0,0,0,1,1.53,5.56,5.56,0,0,0,1.6,1.36,9.45,9.45,0,0,0,2.5,1,15.25,15.25,0,0,0,3.75.39,21.15,21.15,0,0,0,3.42-.27,10.22,10.22,0,0,0,2.89-.88,6.35,6.35,0,0,0,2-1.54,3.4,3.4,0,0,0,.76-2.27,2.87,2.87,0,0,0-.82-2.12,6.82,6.82,0,0,0-2.51-1.42,36.85,36.85,0,0,0-4.16-1.12q-2.48-.52-5.72-1.36A30.08,30.08,0,0,1,210.5,270a12,12,0,0,1-3.66-2.39,8.9,8.9,0,0,1-2.15-3.33,13.21,13.21,0,0,1-.71-4.57,10.17,10.17,0,0,1,.88-4.25,12.16,12.16,0,0,1,2.45-3.51,13.24,13.24,0,0,1,3.75-2.59,18.69,18.69,0,0,1,4.78-1.5v-4a1.52,1.52,0,0,1,.47-1.12,1.54,1.54,0,0,1,1.12-.47h4.78a1.6,1.6,0,0,1,1.59,1.59Z"/><path class="cls-43" d="M709.26,49.87a14.53,14.53,0,0,1,4.1,1.36,12.29,12.29,0,0,1,3,2.13,9.21,9.21,0,0,1,1.81,2.5,7.18,7.18,0,0,1,.71,2.46,1,1,0,0,1-.35.93,1.36,1.36,0,0,1-.93.36h-3.34A2,2,0,0,1,713,59.3a3.23,3.23,0,0,1-.74-.84,6.3,6.3,0,0,0-2.17-2.08,8.56,8.56,0,0,0-4.32-.88,10.6,10.6,0,0,0-2.36.26,6.8,6.8,0,0,0-2,.77,4.14,4.14,0,0,0-1.31,1.21,3.2,3.2,0,0,0,.05,3.42,4.14,4.14,0,0,0,1.69,1.19,19.53,19.53,0,0,0,3,.93c1.22.29,2.71.62,4.46,1a27,27,0,0,1,4.84,1.46,11,11,0,0,1,3.25,2,6.86,6.86,0,0,1,1.81,2.69,10.19,10.19,0,0,1,.55,3.49,8.47,8.47,0,0,1-.72,3.48A9,9,0,0,1,717,80.31a11.6,11.6,0,0,1-3.32,2.15,16.41,16.41,0,0,1-4.43,1.19v3.24A1.32,1.32,0,0,1,708,88.18H704.1a1.32,1.32,0,0,1-1.29-1.29V83.65a17.49,17.49,0,0,1-4-1.12,13.71,13.71,0,0,1-3.29-1.93A9.47,9.47,0,0,1,693.23,78a7.24,7.24,0,0,1-1-3.32,1.07,1.07,0,0,1,.36-.93,1.36,1.36,0,0,1,.93-.36h3.34a2.25,2.25,0,0,1,1.24.29,2.12,2.12,0,0,1,.71.86,9.82,9.82,0,0,0,.82,1.24,4.38,4.38,0,0,0,1.28,1.1,7.55,7.55,0,0,0,2,.78,12.33,12.33,0,0,0,3,.31,17.87,17.87,0,0,0,2.77-.21,7.84,7.84,0,0,0,2.34-.72,5,5,0,0,0,1.62-1.24,2.76,2.76,0,0,0,.62-1.83,2.36,2.36,0,0,0-.67-1.72,5.48,5.48,0,0,0-2-1.15,28.56,28.56,0,0,0-3.36-.9c-1.34-.29-2.88-.65-4.63-1.1a24,24,0,0,1-4.17-1.36,9.73,9.73,0,0,1-3-1.93,7.14,7.14,0,0,1-1.74-2.7,10.68,10.68,0,0,1-.57-3.69,8.18,8.18,0,0,1,.71-3.44,9.83,9.83,0,0,1,2-2.84,10.76,10.76,0,0,1,3-2.1,15.55,15.55,0,0,1,3.86-1.21V46.53a1.33,1.33,0,0,1,1.29-1.29H708a1.33,1.33,0,0,1,1.29,1.29Z"/></g></g></g></g></svg>