<svg xmlns="http://www.w3.org/2000/svg" xmlns:xlink="http://www.w3.org/1999/xlink" viewBox="0 0 769.34 311.19"><defs><style>.cls-1{isolation:isolate;}.cls-2,.cls-26{opacity:0.8;}.cls-3{fill:url(#Безымянный_градиент_31);}.cls-4{fill:url(#Безымянный_градиент_31-2);}.cls-5{fill:url(#Безымянный_градиент_31-3);}.cls-6{fill:url(#Безымянный_градиент_31-4);}.cls-7{fill:url(#Безымянный_градиент_53);}.cls-8{fill:url(#Безымянный_градиент_31-5);}.cls-9{fill:url(#Безымянный_градиент_31-6);}.cls-10{fill:url(#Безымянный_градиент_51);}.cls-11{fill:#fff;}.cls-12{fill:#f1f2f2;opacity:0.4;}.cls-13{fill:#0d1a38;}.cls-14{fill:#b5a6fe;}.cls-14,.cls-22{mix-blend-mode:multiply;}.cls-15{fill:url(#linear-gradient);}.cls-16{fill:#304269;}.cls-17{fill:#f77a4b;}.cls-18{fill:#3c5582;}.cls-19{fill:#f2edff;}.cls-20,.cls-22{fill:#b5d8ff;}.cls-21{fill:#9ab8d9;}.cls-23{fill:#ded1fd;}.cls-24{fill:url(#linear-gradient-2);}.cls-25{fill:url(#Безымянный_градиент_31-7);}.cls-26{fill:url(#Безымянный_градиент_31-8);}.cls-27{fill:#e5e5e5;}.cls-28{fill:#3f3faa;}.cls-29{fill:#4b45bd;}.cls-30{fill:#a9cee6;}.cls-31{fill:#702b0a;}.cls-32{fill:#f4cdaf;}.cls-33{fill:#d1d1d1;}.cls-34{fill:#3c4043;}.cls-35{fill:#282828;}.cls-36{fill:#422d11;}</style><linearGradient id="Безымянный_градиент_31" x1="699.53" y1="328.81" x2="699.53" y2="-48.32" gradientUnits="userSpaceOnUse"><stop offset="0" stop-color="#fff"/><stop offset="1" stop-color="#cfcfcf"/></linearGradient><linearGradient id="Безымянный_градиент_31-2" x1="616.78" y1="156.61" x2="616.78" y2="-33.72" xlink:href="#Безымянный_градиент_31"/><linearGradient id="Безымянный_градиент_31-3" x1="160.62" y1="251.04" x2="160.62" y2="115.84" xlink:href="#Безымянный_градиент_31"/><linearGradient id="Безымянный_градиент_31-4" x1="259.12" y1="328.81" x2="259.12" y2="-48.32" xlink:href="#Безымянный_градиент_31"/><linearGradient id="Безымянный_градиент_53" x1="753.13" y1="59.31" x2="753.13" y2="-2.05" gradientUnits="userSpaceOnUse"><stop offset="0" stop-color="#fff"/><stop offset="0.87" stop-color="#d5d5d5"/><stop offset="1" stop-color="#cfcfcf"/></linearGradient><linearGradient id="Безымянный_градиент_31-5" x1="30.12" y1="328.81" x2="30.12" y2="-48.32" xlink:href="#Безымянный_градиент_31"/><linearGradient id="Безымянный_градиент_31-6" x1="366" y1="94.81" x2="366" y2="-63.31" xlink:href="#Безымянный_градиент_31"/><linearGradient id="Безымянный_градиент_51" x1="126.42" y1="328.81" x2="126.42" y2="-48.32" gradientUnits="userSpaceOnUse"><stop offset="0.48" stop-color="#fff"/><stop offset="1" stop-color="#cfcfcf"/></linearGradient><linearGradient id="linear-gradient" x1="4411.48" y1="266.63" x2="4443.09" y2="266.63" gradientTransform="matrix(-1, 0, 0, 1, 5022.62, 0)" gradientUnits="userSpaceOnUse"><stop offset="0.02" stop-color="#fff"/><stop offset="1" stop-color="#dcd6e8"/></linearGradient><linearGradient id="linear-gradient-2" x1="4616.58" y1="266.63" x2="4648.2" y2="266.63" xlink:href="#linear-gradient"/><linearGradient id="Безымянный_градиент_31-7" x1="512.92" y1="167.47" x2="512.92" y2="27.55" xlink:href="#Безымянный_градиент_31"/><linearGradient id="Безымянный_градиент_31-8" x1="512.96" y1="106.2" x2="512.96" y2="57.7" xlink:href="#Безымянный_градиент_31"/></defs><title>illustrations</title><g class="cls-1"><g id="auto"><g id="Слой_3" data-name="Слой 3"><path class="cls-3" d="M737.7,187.7a42.59,42.59,0,0,0-3-4.19l-8.46,3.3-7-5.74,1.64-8.93a45,45,0,0,0-9.74-3.85l-4.9,7.65-9-.55-3.94-8.2a45.39,45.39,0,0,0-9.85,2.51l.49,9.09-7.64,4.79-8-4.38a44.9,44.9,0,0,0-6.71,8.05l5.73,7.06L664,202.67l-9,1.17a45,45,0,0,0-.69,10.44l8.77,2.34,2.22,8.73-6.61,6.25a46.13,46.13,0,0,0,2.65,4.79,48.23,48.23,0,0,0,2.93,4.06l8.48-3.28,6.92,5.77L678,251.88a46.34,46.34,0,0,0,9.76,3.89l4.93-7.65,9,.58,3.9,8.22a45.52,45.52,0,0,0,10.16-2.58l-.52-9.1,7.62-4.81,8,4.36a45.69,45.69,0,0,0,6.68-8.08l-5.76-7,3.33-8.38,9-1.19a45.2,45.2,0,0,0,.66-10.46L736,207.35l-2.25-8.74,6.6-6.26A43.34,43.34,0,0,0,737.7,187.7Zm-18.88,30.61a20.29,20.29,0,1,1-13.05-25.58A20.28,20.28,0,0,1,718.82,218.31Z"/><path class="cls-4" d="M636,85.39a21.41,21.41,0,0,0-1.53-2.11L630.24,85l-3.5-2.9.82-4.51a22.51,22.51,0,0,0-4.91-1.94l-2.48,3.86-4.53-.27-2-4.14a22.38,22.38,0,0,0-5,1.26l.25,4.59-3.86,2.41-4-2.2a22.56,22.56,0,0,0-3.39,4.06l2.9,3.56L598.85,93l-4.54.59a22.66,22.66,0,0,0-.35,5.27l4.42,1.18,1.12,4.41-3.33,3.15A23,23,0,0,0,597.5,110c.47.72,1,1.4,1.48,2l4.28-1.66,3.5,2.91-.85,4.51a23.2,23.2,0,0,0,4.92,2l2.49-3.86,4.54.29,2,4.15A23.19,23.19,0,0,0,625,119l-.26-4.59,3.84-2.43,4,2.2a23.28,23.28,0,0,0,3.37-4.08l-2.9-3.55,1.67-4.23,4.55-.6a23.34,23.34,0,0,0,.34-5.28l-4.44-1.16L634,90.9l3.33-3.16A22.61,22.61,0,0,0,636,85.39Zm-9.53,15.45a10.24,10.24,0,1,1-6.58-12.91A10.23,10.23,0,0,1,626.51,100.84Z"/><path class="cls-5" d="M174.3,200.45a15.07,15.07,0,0,0-1.08-1.5l-3,1.19-2.49-2.06.59-3.21a16.91,16.91,0,0,0-3.49-1.38L163,196.24l-3.22-.2-1.41-2.94a15.78,15.78,0,0,0-3.53.9l.17,3.26L152.3,199l-2.86-1.56a16.09,16.09,0,0,0-2.41,2.88l2.06,2.53-1.2,3-3.24.42a16.12,16.12,0,0,0-.24,3.74l3.14.84.8,3.13L146,216.19a16.16,16.16,0,0,0,1,1.72c.33.51.68,1,1,1.46l3-1.18,2.48,2.07-.6,3.2a16.64,16.64,0,0,0,3.49,1.4l1.77-2.74,3.23.2,1.4,3a16.23,16.23,0,0,0,3.64-.93l-.19-3.26,2.73-1.72,2.87,1.56a15.69,15.69,0,0,0,2.39-2.9l-2.06-2.52,1.19-3,3.23-.42a16.25,16.25,0,0,0,.24-3.75l-3.15-.82-.81-3.14,2.37-2.24A16.18,16.18,0,0,0,174.3,200.45Zm-6.77,11a7.27,7.27,0,1,1-4.67-9.17A7.27,7.27,0,0,1,167.53,211.43Z"/><path class="cls-6" d="M259.75,247.81l-.68-1.9c-.69,0-1.38,0-2.07.11s-1.37.17-2,.3l-.29,2a2.92,2.92,0,0,1-4.77,1.8l-1.54-1.31a21.38,21.38,0,0,0-3.35,2.41l.74,1.87a2.91,2.91,0,0,1-3.23,3.94l-2-.36a20.5,20.5,0,0,0-1.71,3.76l1.58,1.25a2.92,2.92,0,0,1-.82,5l-1.9.68c0,.68,0,1.37.11,2.06s.17,1.37.3,2.05l2,.29a2.92,2.92,0,0,1,1.8,4.77l-1.31,1.54a21.77,21.77,0,0,0,2.41,3.34l1.87-.74a2.91,2.91,0,0,1,3.94,3.23l-.36,2a21.93,21.93,0,0,0,3.76,1.71l1.25-1.59a2.92,2.92,0,0,1,5,.83l.68,1.89a20.43,20.43,0,0,0,2.06-.1q1-.11,2-.3l.3-2a2.91,2.91,0,0,1,4.76-1.8l1.54,1.31a20.81,20.81,0,0,0,3.35-2.42l-.74-1.87a2.92,2.92,0,0,1,3.23-3.94l2,.36a21.84,21.84,0,0,0,1.71-3.75L277.81,273a2.91,2.91,0,0,1,.83-5l1.89-.68c0-.69,0-1.37-.1-2.06a19.86,19.86,0,0,0-.31-2.05l-2-.29a2.91,2.91,0,0,1-1.8-4.77l1.3-1.54a21.2,21.2,0,0,0-2.41-3.35l-1.87.75a2.92,2.92,0,0,1-3.94-3.23l.36-2a20.72,20.72,0,0,0-3.75-1.71l-1.26,1.58A2.91,2.91,0,0,1,259.75,247.81Zm8.09,18.65a8.77,8.77,0,1,1-9.59-7.86A8.77,8.77,0,0,1,267.84,266.46Z"/><path class="cls-7" d="M755.51,22.69l-.33-1.49c-.51-.06-1-.1-1.55-.12s-1,0-1.57,0l-.41,1.46a2.21,2.21,0,0,1-3.76.89l-1-1.13a15.52,15.52,0,0,0-2.75,1.48l.37,1.48a2.21,2.21,0,0,1-2.81,2.64l-1.45-.47a16.33,16.33,0,0,0-1.65,2.66l1.07,1.09a2.21,2.21,0,0,1-1.11,3.7l-1.49.32q-.09.77-.12,1.56a13.5,13.5,0,0,0,0,1.56l1.46.42a2.2,2.2,0,0,1,.88,3.75l-1.13,1a16.25,16.25,0,0,0,1.49,2.75l1.47-.38a2.21,2.21,0,0,1,2.65,2.81l-.47,1.45A15.92,15.92,0,0,0,746,51.83l1.09-1.06a2.2,2.2,0,0,1,3.69,1.11l.33,1.48c.51.07,1,.11,1.56.13s1,0,1.56,0l.41-1.47a2.21,2.21,0,0,1,3.76-.88l1,1.13a17,17,0,0,0,2.75-1.48l-.38-1.48a2.2,2.2,0,0,1,2.81-2.64l1.45.46a15.83,15.83,0,0,0,1.65-2.65l-1.07-1.1a2.21,2.21,0,0,1,1.11-3.69l1.49-.32a13.65,13.65,0,0,0,.12-1.56c0-.53,0-1.05,0-1.57l-1.47-.41a2.2,2.2,0,0,1-.88-3.75l1.13-1a16.2,16.2,0,0,0-1.48-2.75l-1.48.37a2.2,2.2,0,0,1-2.64-2.81l.46-1.45a16.46,16.46,0,0,0-2.65-1.64l-1.1,1.06A2.2,2.2,0,0,1,755.51,22.69Zm4.25,14.8a6.63,6.63,0,1,1-6.43-6.84A6.64,6.64,0,0,1,759.76,37.49Z"/><path class="cls-8" d="M34.54,188.86l-.61-2.76c-1-.12-1.92-.2-2.89-.23s-1.95,0-2.91,0l-.77,2.72a4.09,4.09,0,0,1-7,1.64l-1.91-2.1a30,30,0,0,0-5.11,2.76l.69,2.74a4.1,4.1,0,0,1-5.22,4.91l-2.69-.86a29.31,29.31,0,0,0-3.06,4.93l2,2A4.1,4.1,0,0,1,3,211.56l-2.76.6c-.12,1-.2,1.92-.23,2.9s0,1.94,0,2.9l2.72.77a4.1,4.1,0,0,1,1.65,7l-2.1,1.91a29.3,29.3,0,0,0,2.75,5.11l2.74-.7a4.1,4.1,0,0,1,4.91,5.22l-.86,2.7A30.66,30.66,0,0,0,16.8,243l2-2a4.1,4.1,0,0,1,6.86,2.06l.6,2.76c1,.12,1.93.2,2.9.23s1.95,0,2.91-.05l.77-2.72a4.09,4.09,0,0,1,7-1.64l1.91,2.1A30,30,0,0,0,46.87,241l-.7-2.74a4.1,4.1,0,0,1,5.22-4.91l2.7.86a30,30,0,0,0,3.06-4.93l-2-2a4.11,4.11,0,0,1,2.06-6.87l2.77-.6c.12-.95.19-1.92.22-2.9a28,28,0,0,0,0-2.9l-2.72-.77a4.1,4.1,0,0,1-1.64-7l2.1-1.91a30.22,30.22,0,0,0-2.75-5.1l-2.75.69a4.1,4.1,0,0,1-4.91-5.22l.86-2.69A29.31,29.31,0,0,0,43.43,189l-2,2A4.09,4.09,0,0,1,34.54,188.86Zm7.9,27.49a12.33,12.33,0,1,1-11.95-12.7A12.32,12.32,0,0,1,42.44,216.35Z"/><path class="cls-9" d="M393.91,29.1l2.63-1.2a30.24,30.24,0,0,0-1.08-5.8l-2.87-.18a4.17,4.17,0,0,1-3.14-6.58L391.12,13A29.91,29.91,0,0,0,387.3,8.5l-2.59,1.28a4.17,4.17,0,0,1-6-4.13L379,2.79c-.89-.42-1.81-.79-2.74-1.12s-1.88-.62-2.83-.86L371.83,3.2a4.17,4.17,0,0,1-7.27-.57L363.36,0a30.53,30.53,0,0,0-5.8,1.08L357.38,4a4.17,4.17,0,0,1-6.58,3.14l-2.34-1.67A30.5,30.5,0,0,0,344,9.24l1.29,2.59a4.17,4.17,0,0,1-4.14,6l-2.86-.28c-.41.89-.79,1.8-1.12,2.74a28.69,28.69,0,0,0-.85,2.83l2.39,1.59a4.17,4.17,0,0,1-.58,7.27l-2.62,1.19A30.49,30.49,0,0,0,336.55,39l2.87.18a4.17,4.17,0,0,1,3.13,6.58l-1.67,2.34a30.5,30.5,0,0,0,3.82,4.5l2.59-1.29a4.17,4.17,0,0,1,6,4.14L353,58.29c.89.41,1.8.79,2.73,1.12s1.88.61,2.83.85l1.6-2.39a4.16,4.16,0,0,1,7.26.58l1.2,2.62a30.39,30.39,0,0,0,5.8-1.08l.18-2.87A4.17,4.17,0,0,1,381.2,54l2.35,1.67A30.42,30.42,0,0,0,388,51.84l-1.28-2.59a4.17,4.17,0,0,1,4.13-6l2.86.28a28.59,28.59,0,0,0,1.12-2.74,28.75,28.75,0,0,0,.86-2.83l-2.4-1.59A4.16,4.16,0,0,1,393.91,29.1ZM372.17,18.17a1.74,1.74,0,0,1,2.59-.87A15.89,15.89,0,0,1,381.67,28l-12.28.34a4.35,4.35,0,0,0-.32-.43,2.23,2.23,0,0,0-.26-.27ZM357,17.47a15.85,15.85,0,0,1,10.55-2.73A1.73,1.73,0,0,1,369,17l-3.37,9.48a4.36,4.36,0,0,0-1.12.27l-7.66-6.58A1.74,1.74,0,0,1,357,17.47Zm11.43,13.18a2.42,2.42,0,1,1-2.31-2.53A2.42,2.42,0,0,1,368.42,30.65Zm-15.07,5.29a1.74,1.74,0,0,1-2.6-1,15.84,15.84,0,0,1,.29-9.71,15.53,15.53,0,0,1,.89-2,1.73,1.73,0,0,1,2.66-.5l7.6,6.53a4.17,4.17,0,0,0-.22,1.26Zm14.47,10.37a15.89,15.89,0,0,1-13.22-4.72,1.74,1.74,0,0,1,.32-2.67l8.43-5.34a4.11,4.11,0,0,0,2.58,1L369.25,44A1.74,1.74,0,0,1,367.82,46.31ZM381.6,33.47a16.15,16.15,0,0,1-.64,2.38,15.78,15.78,0,0,1-6,7.78,1.73,1.73,0,0,1-2.6-.86L369,33.21a3.85,3.85,0,0,0,.85-1.51l10-.28A1.73,1.73,0,0,1,381.6,33.47Z"/><path class="cls-10" d="M179.67,75.21,185.1,74a59.23,59.23,0,0,0,.19-11.38l-5.36-1.44a8,8,0,0,1-3.38-13.63l4.06-3.79a59.1,59.1,0,0,0-5.49-10l-5.38,1.43A8,8,0,0,1,160,25.08l1.62-5.3q-2.28-1.68-4.74-3.17c-1.63-1-3.31-1.89-5-2.7l-3.93,3.91a8,8,0,0,1-13.49-3.89l-1.26-5.42a58.32,58.32,0,0,0-11.37-.19l-1.44,5.36a8,8,0,0,1-13.64,3.38L103,13a58.4,58.4,0,0,0-10,5.49l1.43,5.38a8,8,0,0,1-10.11,9.75L79,32c-1.13,1.52-2.18,3.1-3.17,4.73s-1.89,3.32-2.7,5l3.91,3.92a8,8,0,0,1-3.89,13.5l-5.42,1.25a58.43,58.43,0,0,0-.19,11.38l5.35,1.44a8,8,0,0,1,3.39,13.63l-4.06,3.79a58.4,58.4,0,0,0,5.49,10l5.38-1.43a8,8,0,0,1,9.75,10.11l-1.62,5.3q2.26,1.68,4.73,3.17c1.64,1,3.31,1.89,5,2.7l3.92-3.91a8,8,0,0,1,13.5,3.89l1.25,5.42a58.34,58.34,0,0,0,11.37.19l1.45-5.36a8,8,0,0,1,13.63-3.38l3.79,4.06a58.78,58.78,0,0,0,10-5.49l-1.43-5.38a8,8,0,0,1,10.11-9.75l5.3,1.62q1.68-2.28,3.17-4.73c1-1.64,1.88-3.32,2.7-5l-3.91-3.92A8,8,0,0,1,179.67,75.21Zm-36.84-29a3.36,3.36,0,0,1,5.23-.64A30.67,30.67,0,0,1,157,68.44l-23.34-4.08a7.81,7.81,0,0,0-.44-.93,5.73,5.73,0,0,0-.38-.62ZM114.44,39a30.69,30.69,0,0,1,21-1.1,3.35,3.35,0,0,1,1.88,4.92l-10,16.61a8,8,0,0,0-2.24.07L113.12,44.16A3.34,3.34,0,0,1,114.44,39ZM131,68.33a4.67,4.67,0,1,1-3.39-5.67A4.68,4.68,0,0,1,131,68.33Zm-30.5,4.19a3.34,3.34,0,0,1-4.52-2.88,30.63,30.63,0,0,1,6.74-21.74,3.34,3.34,0,0,1,5.22.08l11.84,15.26a7.86,7.86,0,0,0-.9,2.28Zm23.33,25.15a30.64,30.64,0,0,1-23.14-14,3.35,3.35,0,0,1,1.63-4.93l18-6.84a7.74,7.74,0,0,0,4.48,2.86l2.64,19.11A3.34,3.34,0,0,1,123.78,97.67Zm31-18.94A31.13,31.13,0,0,1,152.62,83a30.48,30.48,0,0,1-14.3,12.4,3.33,3.33,0,0,1-4.58-2.64L131.08,73.4a7.74,7.74,0,0,0,2.18-2.53l19,3.31A3.34,3.34,0,0,1,154.75,78.73Z"/></g><path class="cls-11" d="M513,121l-.7-2-.71,2a7.07,7.07,0,0,1-3.93,4h0a7.07,7.07,0,0,1,3.93,4l.71,2,.7-2a7.07,7.07,0,0,1,3.93-4h0A7.07,7.07,0,0,1,513,121Z"/><path class="cls-11" d="M428.68,69.61l-.48-1.38-.49,1.38A4.82,4.82,0,0,1,425,72.34h0a4.78,4.78,0,0,1,2.67,2.72l.49,1.38.48-1.38a4.78,4.78,0,0,1,2.67-2.72h0A4.82,4.82,0,0,1,428.68,69.61Z"/><path class="cls-12" d="M398.67,82.77l-.4-1.17-.41,1.17a4.09,4.09,0,0,1-2.27,2.3h0a4.08,4.08,0,0,1,2.27,2.31l.41,1.16.4-1.16a4.08,4.08,0,0,1,2.27-2.31h0A4.09,4.09,0,0,1,398.67,82.77Z"/><path class="cls-12" d="M548.21,35.48l-.23-.67-.24.67a2.3,2.3,0,0,1-1.29,1.31h0a2.3,2.3,0,0,1,1.29,1.31l.24.67.23-.67a2.3,2.3,0,0,1,1.29-1.31h0A2.3,2.3,0,0,1,548.21,35.48Z"/><path class="cls-12" d="M614.36,142.2l-.44-1.25-.44,1.25a4.29,4.29,0,0,1-2.42,2.46h0a4.31,4.31,0,0,1,2.42,2.47l.44,1.24.44-1.24a4.34,4.34,0,0,1,2.42-2.47h0A4.32,4.32,0,0,1,614.36,142.2Z"/><path class="cls-11" d="M449.14,236.81l-.71-2-.7,2a7.1,7.1,0,0,1-3.93,4h0a7.1,7.1,0,0,1,3.93,4l.7,2,.71-2a7.07,7.07,0,0,1,3.93-4h0A7.07,7.07,0,0,1,449.14,236.81Z"/><path class="cls-11" d="M640.69,224.61l-.47-1.33-.46,1.33a4.68,4.68,0,0,1-2.59,2.64h0a4.68,4.68,0,0,1,2.59,2.64l.46,1.34.47-1.34a4.65,4.65,0,0,1,2.59-2.64h0A4.65,4.65,0,0,1,640.69,224.61Z"/></g><g id="Слой_23" data-name="Слой 23"><g id="car"><rect class="cls-13" x="383.87" y="271.97" width="200.06" height="6.52" transform="translate(967.8 550.47) rotate(-180)"/><path class="cls-13" d="M563.07,276c-7.14,0,8.6,0,9,0,6.83-.12,55.42,1.21,56.33-1.58,1-2.94,15.34-24.62,6.14-29.8s-21.21-13.43-21.21-13.43l-27.82-8-22.16,19.09-.94,13.91,1.18,11.31Z"/><path class="cls-13" d="M618.85,266.63a23.52,23.52,0,1,0-23.52,23.52A23.52,23.52,0,0,0,618.85,266.63Z"/><path class="cls-14" d="M595.5,248.35c-13.34,0-20.75,7.69-24.86,15.85,2.23-10.37,8.35-25.9,25-25.9,18,0,23.81,16.15,25.89,26.14C617.44,256.27,609.88,248.35,595.5,248.35Z"/><path class="cls-15" d="M611.13,266.63a15.81,15.81,0,1,0-15.8,15.8A15.8,15.8,0,0,0,611.13,266.63Z"/><path class="cls-13" d="M421.93,276c-.75-.08-64.25-1.58-64.25-1.58l-4.63-11.22-1.41-14.38s5.89-15.08,17.91-21.21,40.78-1.18,40.78-1.18l4.25-2.59,14.85,11.55Z"/><path class="cls-14" d="M388.4,246.8c-19.85,0-30.88,11.44-37,23.59,3.32-15.44,12.43-38.54,37.17-38.54,26.77,0,35.43,24,38.51,38.89C421.05,258.58,409.79,246.8,388.4,246.8Z"/><path class="cls-16" d="M360.63,274.46c-2.41,0-36.52-1.21-37.73-2.42s.19-19.7,1.4-21.77,2.82-2.42,3.13-2.92.9-10.84,1.36-11.7,19.21-19.91,84.37-28.89c14-7.55,35.6-24,63.48-33.34a126.87,126.87,0,0,1,40.51-6.89c47.81,0,83.71,12.91,118.81,36.1,2,4.84,9.69,15.09,11.3,18.13s8.47,35.45,8.94,36.45a23.22,23.22,0,0,1,1.68,5.32c0,1-1.47,1.61-1.47,1.61a3.53,3.53,0,0,1-1.48,4.91c-3.23,1.74-25.67,5.31-30.78,5.37-.74-3.16,1.63-34.48-28.63-34.48s-27.6,36.1-27.6,36.1H419.41s6.66-35.82-29.75-35.82S360.63,274.46,360.63,274.46Z"/><path class="cls-17" d="M645.57,248.89c-2.38-2.38-5.56-28.3-5.56-28.3l6.59-1c.27.44.5.82.66,1.12,1.1,2.08,4.66,17.88,7,28C651.09,249.57,647,250.3,645.57,248.89Z"/><path class="cls-18" d="M592.56,212.82c-1.65,4.22-8,13.78-13,22.34-6.53,8.05-10.8,15.83-15.55,21-25.76,2.11-117.19,8.45-142.18,10.07-.57-6.4-1.63-15.2-8.87-20.52C443.32,240.4,586.09,214.4,592.56,212.82Z"/><path class="cls-19" d="M365,224.48c-12.39-1.2-36.2,11.17-36.2,11.17-.46.86-1.06,11.2-1.36,11.7C341.37,242.9,364.51,226.53,365,224.48Z"/><path class="cls-20" d="M429.23,212.45s56.37-7.94,86.74-8.58,64.82-1,85.83-6.27c-2.95-2.31-26.26-25-81.73-25,0,0-29.09-1.66-50.74,9.1S429.23,212.45,429.23,212.45Z"/><path class="cls-21" d="M520.07,183.76s-29.09-1.67-50.74,9.09c-9.9,4.92-19.13,11.78-26.24,17.76-8.41,1.08-13.86,1.84-13.86,1.84s18.45-20,40.1-30.73,50.74-9.1,50.74-9.1c55.47,0,78.78,22.67,81.73,25-3.71.92-7.85,1.7-12.31,2.35C577.11,192.72,555,183.76,520.07,183.76Z"/><path class="cls-22" d="M600.48,197.91c-13.23,3.1-31.38,4.41-50.41,5.11a302,302,0,0,0,20-22.9c16.44,5.54,25.87,12.67,29.81,15.92C600.12,196.66,600.3,197.28,600.48,197.91Z"/><path class="cls-22" d="M507.1,172.8a120.55,120.55,0,0,1,13-.18h1.85c.26,10.39-.46,20.76-1,31.14l-4.9.1c-11.28.24-26.14,1.49-40.37,3C488.09,196.39,499,183.43,507.1,172.8Z"/><path class="cls-18" d="M515.67,172.53v2.35c2.66,0,4.25.09,4.26.09h.14c21.74,0,41,3.49,57.24,10.38a86.35,86.35,0,0,1,19.24,11c-19.64,3.91-48.89,4.51-74.94,5l-5.69.12c-23.85.5-64,5.54-80.1,7.66,6.82-6.53,20-18.14,34.56-25.36,16.24-8.06,37.08-8.94,45.29-8.94h0v-2.35Zm0,0c-8.94,0-29.8,1-46.34,9.19-21.65,10.75-40.1,30.73-40.1,30.73s56.37-7.94,86.74-8.58,64.82-1,85.83-6.27c-2.95-2.31-26.26-25-81.73-25,0,0-1.63-.09-4.4-.09Z"/><path class="cls-23" d="M637.33,205.34a27.69,27.69,0,0,1-1.37-2.71c-16-10.57-32.16-19-49.55-25a18.73,18.73,0,0,0,7.6,8.3C601.43,190.24,623,208.35,637.33,205.34Z"/><path class="cls-20" d="M637.33,205.34a27.69,27.69,0,0,1-1.37-2.71c-16-10.57-32.16-19-49.55-25a18.73,18.73,0,0,0,7.6,8.3C601.43,190.24,623,208.35,637.33,205.34Z"/><path class="cls-18" d="M594.6,184.88c1.42.83,3.38,2.15,5.65,3.69,9.6,6.49,25.44,17.19,36.59,15.87.36.68.78,1.42,1.24,2.19a18.09,18.09,0,0,1-3.15.27c-11.77,0-26.71-10.1-36-16.38-2.24-1.51-4.17-2.82-5.52-3.61a24.55,24.55,0,0,1-8.9-9.93l.06,0c1.09.37,2.18.74,3.26,1.13A21.64,21.64,0,0,0,594.6,184.88Z"/><path class="cls-20" d="M434.24,201.82c14.32-11.9,33.28-21,37.92-23.39a11.79,11.79,0,0,0,4.5-5c-27.54,9.24-49,25.37-63,33.05l-.1.27h-.4C413.7,208.41,425.27,207.47,434.24,201.82Z"/><path class="cls-18" d="M517.26,172.54c-1.84,6.75-6.36,23.34-8.45,31.59,2.5-.12,4.9-.21,7.16-.26l8.34-.17,2.3-31q-3.2-.1-6.54-.11S519.05,172.56,517.26,172.54Z"/><path class="cls-18" d="M461.06,268.67c9.76,0,20.87-.08,32-.26,18-.29,60.29-1.24,64-3.84,3.2-2.26,12.5-14.67,20-25.75s15.43-24,15.24-27.28c-.36-6.28-.45-6.49-4.83-10.87-4-4-8.61-9.59-8.61-17.2h-.41c0,7.76,4.67,13.42,8.74,17.49,4.35,4.35,4.36,4.47,4.71,10.6.34,6-28.93,48.33-35.11,52.68-2.49,1.76-26.32,3.17-63.74,3.77-29.56.47-60,.27-63.31-.42-10.92-26.28-.18-54.75-.07-55l-.38-.15c-.11.29-10.93,29,.11,55.44l0,.1.1,0C431.33,268.42,444.15,268.67,461.06,268.67Z"/><path class="cls-18" d="M515.93,267.67l.4-.07c-7.57-43.61,5.81-94.35,5.95-94.86l-.39-.11C521.75,173.14,508.35,224,515.93,267.67Z"/><path class="cls-18" d="M413.16,206.76l1.2-.65c3.28.38,12.16-.57,19.33-5.05,12.87-10.69,29.15-18.95,36.11-22.48l1.93-1c.95-.49,1.84-1.94,2.58-3.36l2.55-.88-.12.24c-1,2.1-2.31,4.72-4.14,5.68l-2,1c-6.91,3.51-23.09,11.72-35.81,22.29l-.1.07A38.33,38.33,0,0,1,416,208a10.33,10.33,0,0,1-3.35-.42,2,2,0,0,1-.94-.65Z"/><path class="cls-18" d="M429.23,212.45s5.27-.74,13.44-1.78a84.59,84.59,0,0,0-1.51-9.55C433.85,207.46,429.23,212.45,429.23,212.45Z"/><path class="cls-18" d="M440.47,210.83s1.8.76,7.56.63a57.06,57.06,0,0,0,11-1.46s2.36-12.21-5.55-13.45-13,5.41-13,5.41Z"/><ellipse class="cls-13" cx="390.23" cy="266.63" rx="23.52" ry="23.51" transform="translate(-0.9 1.33) rotate(-0.19)"/><path class="cls-24" d="M406,266.63a15.81,15.81,0,1,0-15.8,15.8A15.8,15.8,0,0,0,406,266.63Z"/><path class="cls-11" d="M454.45,224.43a10.65,10.65,0,0,0-8.78,11,10.07,10.07,0,0,0,.91,3.72c2.64,5.78,7.71,11.89,9.2,13.62a.58.58,0,0,0,.89,0,76.46,76.46,0,0,0,6.41-8.59l-3.47-3.47A6.58,6.58,0,1,1,462,238.4l2.87,2.87c.38-.7.73-1.4,1.05-2.09a10.41,10.41,0,0,0,.92-4.32A10.59,10.59,0,0,0,454.45,224.43Z"/><path class="cls-17" d="M461.21,235a5,5,0,1,1-5-5A5,5,0,0,1,461.21,235Z"/><path class="cls-11" d="M452.37,235h1.11a2.76,2.76,0,0,1,2.76-2.76v-1.11A3.88,3.88,0,0,0,452.37,235Z"/><path class="cls-11" d="M486.82,229.11a1.54,1.54,0,0,1,.49,1.2,1.52,1.52,0,0,1-.49,1.19,1.76,1.76,0,0,1-1.26.44h-4.5v15a1.62,1.62,0,0,1-.55,1.25,1.92,1.92,0,0,1-1.34.5,1.82,1.82,0,0,1-1.32-.5,1.66,1.66,0,0,1-.52-1.25v-15h-4.5a1.77,1.77,0,0,1-1.26-.45,1.58,1.58,0,0,1-.49-1.21,1.51,1.51,0,0,1,.5-1.17,1.77,1.77,0,0,1,1.25-.46h12.73A1.73,1.73,0,0,1,486.82,229.11Z"/><path class="cls-11" d="M496.42,233.58a1.45,1.45,0,0,1,.58,1.15,1.8,1.8,0,0,1-.45,1.33,1.5,1.5,0,0,1-1.09.44,2.72,2.72,0,0,1-1-.2l-.39-.11a2.2,2.2,0,0,0-.64-.09,2.61,2.61,0,0,0-1.44.46,3.48,3.48,0,0,0-1.13,1.39,5.2,5.2,0,0,0-.44,2.22V247a1.71,1.71,0,0,1-.49,1.25,1.66,1.66,0,0,1-1.23.5,1.68,1.68,0,0,1-1.24-.5A1.74,1.74,0,0,1,487,247V235.13a1.73,1.73,0,0,1,.48-1.25,1.68,1.68,0,0,1,1.24-.5,1.66,1.66,0,0,1,1.23.5,1.7,1.7,0,0,1,.49,1.25v.37a4.36,4.36,0,0,1,1.89-1.79,5.83,5.83,0,0,1,2.64-.62A2.19,2.19,0,0,1,496.42,233.58Z"/><path class="cls-11" d="M499.06,231.2a1.34,1.34,0,0,1-.41-1.12v-.54a1.29,1.29,0,0,1,.44-1.12,2.32,2.32,0,0,1,1.37-.32,2.36,2.36,0,0,1,1.41.32,1.37,1.37,0,0,1,.4,1.12v.54a1.3,1.3,0,0,1-.42,1.13,2.52,2.52,0,0,1-1.42.3A2.25,2.25,0,0,1,499.06,231.2Zm2.63,17a1.76,1.76,0,0,1-2.46,0,1.71,1.71,0,0,1-.49-1.25V235.13a1.7,1.7,0,0,1,.49-1.25,1.76,1.76,0,0,1,2.46,0,1.7,1.7,0,0,1,.49,1.25V247A1.71,1.71,0,0,1,501.69,248.22Z"/><path class="cls-11" d="M517,234.11a7.16,7.16,0,0,1,2.54,2.82,8.84,8.84,0,0,1,.93,4.1,9.07,9.07,0,0,1-.91,4.12A7.16,7.16,0,0,1,517,248a6.39,6.39,0,0,1-3.52,1,6.18,6.18,0,0,1-2.59-.55,6.9,6.9,0,0,1-2-1.37v5.62a1.7,1.7,0,0,1-.49,1.25,1.79,1.79,0,0,1-2.47,0,1.7,1.7,0,0,1-.48-1.26V235.13a1.73,1.73,0,0,1,.48-1.25,1.68,1.68,0,0,1,1.24-.5,1.66,1.66,0,0,1,1.23.5,1.7,1.7,0,0,1,.49,1.25v.11a6,6,0,0,1,1.92-1.5,5.49,5.49,0,0,1,2.58-.65A6.53,6.53,0,0,1,517,234.11Zm-1,10.36a5.59,5.59,0,0,0,0-6.86,3.77,3.77,0,0,0-3-1.36,3.82,3.82,0,0,0-3,1.36,5.58,5.58,0,0,0,0,6.86,4,4,0,0,0,6.05,0Z"/><path class="cls-11" d="M528.29,231.1a2,2,0,0,0-.4,1.22v1.35h2.61a1.58,1.58,0,0,1,1.15.44,1.53,1.53,0,0,1,.46,1.13,1.51,1.51,0,0,1-.46,1.13,1.58,1.58,0,0,1-1.15.45h-2.61V247a1.71,1.71,0,0,1-.49,1.25,1.76,1.76,0,0,1-2.46,0,1.71,1.71,0,0,1-.49-1.25V236.82H522.9a1.54,1.54,0,0,1-1.14-.45,1.48,1.48,0,0,1-.46-1.13,1.49,1.49,0,0,1,.46-1.13,1.54,1.54,0,0,1,1.14-.44h1.55v-1.32a4.5,4.5,0,0,1,1.48-3.5,6.08,6.08,0,0,1,4.26-1.35,3.73,3.73,0,0,1,1.84.43,1.41,1.41,0,0,1,.79,1.32,1.57,1.57,0,0,1-.4,1.12,1.3,1.3,0,0,1-1,.43l-.3,0-.33-.06a5.22,5.22,0,0,0-1.15-.17A1.6,1.6,0,0,0,528.29,231.1Z"/><path class="cls-11" d="M546.71,241.81a1.84,1.84,0,0,1-1.2.43h-9.46a4.27,4.27,0,0,0,1.57,2.65,4.41,4.41,0,0,0,2.78,1,6.31,6.31,0,0,0,1.84-.21,5.34,5.34,0,0,0,1-.46,5.46,5.46,0,0,1,.53-.33,2.17,2.17,0,0,1,1-.26,1.38,1.38,0,0,1,1,.43,1.36,1.36,0,0,1,.43,1,1.8,1.8,0,0,1-.8,1.41,7,7,0,0,1-2.15,1.12,8.57,8.57,0,0,1-2.72.45,8.42,8.42,0,0,1-4.2-1,7,7,0,0,1-2.77-2.77,8,8,0,0,1-1-4,8.81,8.81,0,0,1,1-4.33,7.26,7.26,0,0,1,2.72-2.85,7,7,0,0,1,3.61-1,6.78,6.78,0,0,1,3.57,1,7.72,7.72,0,0,1,2.68,2.79,7.43,7.43,0,0,1,1,3.78A1.47,1.47,0,0,1,546.71,241.81Zm-10.64-2.44h7.52v-.2a3,3,0,0,0-1.18-2.06,3.69,3.69,0,0,0-2.41-.86A3.56,3.56,0,0,0,536.07,239.37Z"/><path class="cls-11" d="M559.09,233.58a1.43,1.43,0,0,1,.59,1.15,1.76,1.76,0,0,1-.46,1.33,1.49,1.49,0,0,1-1.09.44,2.71,2.71,0,0,1-1-.2l-.39-.11a2.2,2.2,0,0,0-.64-.09,2.61,2.61,0,0,0-1.44.46,3.39,3.39,0,0,0-1.13,1.39,5.05,5.05,0,0,0-.44,2.22V247a1.75,1.75,0,0,1-.49,1.25,1.78,1.78,0,0,1-2.47,0,1.74,1.74,0,0,1-.48-1.25V235.13a1.73,1.73,0,0,1,.48-1.25,1.78,1.78,0,0,1,2.47,0,1.74,1.74,0,0,1,.49,1.25v.37a4.36,4.36,0,0,1,1.89-1.79,5.83,5.83,0,0,1,2.64-.62A2.15,2.15,0,0,1,559.09,233.58Z"/></g><g class="cls-2"><path class="cls-25" d="M512.91,43.42a30.7,30.7,0,0,0-30.66,30.67,29.93,29.93,0,0,0,2.68,12.52c7.67,16.77,22.37,34.49,26.69,39.52a1.7,1.7,0,0,0,1.29.59,1.68,1.68,0,0,0,1.3-.59,230.92,230.92,0,0,0,18.6-24.91L522.74,91.14a19.18,19.18,0,1,1,6.8-6.8l8.33,8.33c1.09-2,2.11-4,3-6.06a29.78,29.78,0,0,0,2.69-12.52A30.71,30.71,0,0,0,512.91,43.42Z"/></g><path class="cls-26" d="M527.38,74.58A14.42,14.42,0,1,1,513,60.15,14.44,14.44,0,0,1,527.38,74.58Z"/><path class="cls-11" d="M501.75,74.58H505a8,8,0,0,1,8-8V63.36A11.23,11.23,0,0,0,501.75,74.58Z"/><g id="guy_02"><path class="cls-27" d="M358.58,158l-.55-.15-.46-.15-.88-.29c-.57-.2-1.14-.41-1.69-.63-1.11-.43-2.2-.9-3.27-1.4-2.13-1-13.78-6.82-16.77-10.78-1.55-2.09-2.81-6.57-3.85-8.63s-1.92-4.11-2.75-6.17-1.58-4.12-2.3-6.19c-.35-1-.69-2.07-1-3.11l-.49-1.57-.23-.78-.12-.38-.05-.18,0-.07h0l0,0,0,.12c3-1.91-6.93,4.14,8.24-1.92a4.29,4.29,0,1,1-8.56.54c15.16-6.07,5.22,0,8.24-1.91l.06.15,0,.1,0,.09,0,.12.07.2.14.37.27.73.54,1.45c.37,1,.75,1.92,1.14,2.87q1.15,2.86,2.45,5.63c.86,1.83,1.77,3.63,2.74,5.32s2.14,5.73,3.2,7c2.28,2.7,6.8,3.78,10.26,5.19,2.74,1.12,4.84,2.4,5.73,2.7.44.15.88.28,1.32.41l.64.18.3.07.22.05a5.65,5.65,0,0,1-2.71,11Z"/><path class="cls-28" d="M370.37,244.61c.17-4.37,3.33-37.55,2.15-42.54-.53-2.23,4.43.88,1.45-.36.41-6.09.56-10.39.33-11.82-1.27-7.89-16.92,14.68-16.92,14.68L360.19,293l3.74.16,0,.32.06-.31,1.15.05s.52-4.76,1.31-12.23c1.56-7.89,3.32-17.12,3.57-20C370.47,255.63,370.2,249,370.37,244.61Z"/><path class="cls-29" d="M388.48,260.06A54.41,54.41,0,0,0,385.7,248c-.23-4-1.74-41.47-3.31-44.94-2.14-4.74-10.67-3.24-10.67-3.24l.48,2.37h-.35a52.4,52.4,0,0,1-5.58,1.59l16.83,90.09,5,.21S389.1,265.51,388.48,260.06Z"/><path class="cls-27" d="M357.43,204.38s-.56-47.92,1.43-52.85c3.36-8.32,15.13-10.39,23-6.12,1.78,4.81-.23,32.47-.23,32.47s-.09,14.29,2.71,25.59C380.75,202.23,357.43,204.38,357.43,204.38Z"/><path class="cls-30" d="M365.58,151.16c0,.39.2.7.46.7s.47-.31.47-.7-.2-.69-.46-.69S365.59,150.78,365.58,151.16Z"/><path class="cls-13" d="M369.69,151.56c0,1.69-1,3.06-2.31,3.06s-2.3-1.37-2.3-3.06,1-3.05,2.3-3.05S369.69,149.88,369.69,151.56Z"/><polygon class="cls-31" points="357.36 204.62 386.44 204.62 386.47 201.65 357.39 201.65 357.36 204.62"/><path class="cls-27" d="M383.58,147.08a92.1,92.1,0,0,1,8.15,14.13,52.29,52.29,0,0,1,2.88,8,39.51,39.51,0,0,1,1.35,8.64,37.87,37.87,0,0,1-.67,8.78,41.36,41.36,0,0,1-2.54,8.25A63.53,63.53,0,0,1,384.19,209a4.28,4.28,0,0,1-6.89-5.09l0-.05a55.06,55.06,0,0,0,6.82-12.38,29.4,29.4,0,0,0,1.89-13,35.05,35.05,0,0,0-3.91-12.74,81.77,81.77,0,0,0-7.73-12.08h0a5.65,5.65,0,1,1,9-6.78Z"/><path class="cls-32" d="M369.76,148.61a21.13,21.13,0,0,0-2.25,0,1.75,1.75,0,0,0-1.43.29c-1.36-4.1.87-12.26-.5-15.82,2.86.19,10.65,1.93,10.65,1.93s.08,4.67,0,8.62c-.66,3.28-2.35,6.07-4.69,7.18A2.52,2.52,0,0,0,369.76,148.61Z"/><path class="cls-33" d="M367.27,148.62,364,152s-.16-5.85-.11-6.3,1.95-2,1.95-2S365.74,147.13,367.27,148.62Z"/><path class="cls-33" d="M385.13,208.64c.25-.21,2.74-4.56,2.74-4.56s-1.1-4.4-8.13-4.84a31.13,31.13,0,0,0-2.86,5.12Z"/><path class="cls-32" d="M376.59,213.16a5.7,5.7,0,1,1,7.93-1.29A5.65,5.65,0,0,1,376.59,213.16Z"/><path class="cls-33" d="M324.79,120.62c0,.33.72,4.41.72,4.41a9.36,9.36,0,0,0,10.14-3.43,31.73,31.73,0,0,0-2.6-5.25Z"/><path class="cls-32" d="M321.69,112.69c1.52-3.2,5.52-2.34,8.74-.8.56.28.23-2.22,1.06-2.19,2.81.11,3.1,6,1.85,8.59a6.46,6.46,0,0,1-11.65-5.6Z"/><path class="cls-34" d="M362.62,123.45a12.14,12.14,0,0,0-1.16,5.44,1.74,1.74,0,0,1-.38,1.39c-.41.34,0,1-.34.6a9,9,0,0,1-1.59-2.33,19.5,19.5,0,0,1-.18-3.74,5.47,5.47,0,0,1,.86-3.08,6.1,6.1,0,0,1,1.44-1.24,7.79,7.79,0,0,1,2.44-1.27c1.54-.38,2.52.14,1.21,1.31A9.6,9.6,0,0,0,362.62,123.45Z"/><path class="cls-32" d="M373.35,144.15l-6.38.95a40.22,40.22,0,0,1-.86-5.67c-1.88-.23-4.1-.73-4.84-2.68a6.7,6.7,0,0,1-.31-2l-.48-8.24a8.31,8.31,0,0,1,.17-2.82,5.69,5.69,0,0,1,3.24-3.23,12,12,0,0,1,11.06.11,6,6,0,0,1,2.32,2.14,9.67,9.67,0,0,1,.82,5.09l-.09,4.84c0,1.85-.2,4-1.56,5-.72.55-1.69.7-2.3,1.4C373.06,140.38,373.69,142.46,373.35,144.15Z"/><path class="cls-34" d="M360.74,136.42a6.74,6.74,0,0,0,2.64,4.17c1.55,1,3.44,1,5.22.93l2.92-.08c2.47-.08,4.9-.54,6-3.34a8.81,8.81,0,0,0,.48-4.18,2.73,2.73,0,0,0-.3-1.11.89.89,0,0,0-.88-.5c-.43.09-.67.59-.93,1a2.13,2.13,0,0,1-2.53,1,3.57,3.57,0,0,1-.74-.5l-.28-.23a6.12,6.12,0,0,0-3.26-1.12c-1-.09-2.46-.39-3.14.53l-1.2,1.61a2.22,2.22,0,0,1-.55.59,1.57,1.57,0,0,1-.76.23,1.59,1.59,0,0,1-1.67-.92,3.45,3.45,0,0,1-.15-1,1.61,1.61,0,0,0-.29-.9c-.78-.9-.91.6-.92,1.11A11,11,0,0,0,360.74,136.42Zm6.73.11a2.63,2.63,0,0,0,2.48.15c.44-.16.66.61.23.77a3.28,3.28,0,0,1-3-.2C366.74,137,367.06,136.27,367.47,136.53Z"/><path class="cls-34" d="M359.11,118.86a13.57,13.57,0,0,1-.49-2,3.83,3.83,0,0,0,2,.06l-.06-1.18c0-.33,4.35-.79,4.7-.84,3.31-.45,6.34-.87,9.44.78a9.22,9.22,0,0,1,5,6.64,14.34,14.34,0,0,1-1.73,9.14,20.49,20.49,0,0,0,.1-3.31,6.51,6.51,0,0,0-.81-2.05,8.49,8.49,0,0,0-3.12-3,16.19,16.19,0,0,0-6.59-1.88,17.3,17.3,0,0,0-6.65.34c-1,.32-1.12.58-1.77-.4a16.35,16.35,0,0,1-1-2.22Z"/><path class="cls-35" d="M365.12,293.26a10.9,10.9,0,0,0-4.93-.22c-2.64.46-6.13,1.08-6.38,1.53a1.94,1.94,0,0,0-.14,1.12s11-.13,11.48-.37S365.12,293.26,365.12,293.26Z"/><path class="cls-35" d="M388.06,293.26a10.86,10.86,0,0,0-4.92-.22c-2.65.46-6.14,1.08-6.39,1.53a2,2,0,0,0-.14,1.12s11-.13,11.48-.37S388.06,293.26,388.06,293.26Z"/><path class="cls-28" d="M374.07,206s11.39,5.16,10.58,6.35-1.39,6.5-5.89,6.24-5.82-2.39-5.8-4.52A79.18,79.18,0,0,1,374.07,206Z"/><path class="cls-36" d="M367.68,205.21H363a1.53,1.53,0,0,1-1.11-.46,1.57,1.57,0,0,1-.46-1.12l0-1.38a1.21,1.21,0,0,1,1.21-1.21h5a1.55,1.55,0,0,1,1.57,1.58v1A1.6,1.6,0,0,1,367.68,205.21Zm-5-3.63a.67.67,0,0,0-.67.67l0,1.38a1.07,1.07,0,0,0,.3.74,1,1,0,0,0,.73.3h4.68a1,1,0,0,0,1.05-1v-1a1,1,0,0,0-.29-.74,1.07,1.07,0,0,0-.74-.3Z"/><path class="cls-36" d="M369,203.42H365a.27.27,0,1,1,0-.54H369a.27.27,0,1,1,0,.54Z"/><polygon class="cls-33" points="371.05 152.66 367.27 148.62 376.3 142.08 378.3 144.05 371.05 152.66"/><polygon class="cls-13" points="366.46 152.88 363.59 193.16 365.29 197.75 367.64 193.48 367.53 153.2 366.46 152.88"/></g></g></g></svg>