<svg xmlns="http://www.w3.org/2000/svg" viewBox="0 0 629.47 629.47"><defs><style>.cls-1{fill:#454f6a;}.cls-2{fill:#fff;}.cls-3{fill:#dc7859;}.cls-4{fill:none;stroke:#404c68;stroke-miterlimit:10;stroke-width:10px;}</style></defs><title>dokhod</title><g id="Слой_2" data-name="Слой 2"><path class="cls-1" d="M238.32,217.11,198.07,159a13,13,0,0,1,10.71-20.44H308A13,13,0,0,1,318.73,159l-40.25,58.14Z" transform="translate(-0.01 -0.04)"/><path class="cls-1" d="M120.52,381.38a80.93,80.93,0,0,0,67,126.31H329.28A81.1,81.1,0,0,0,377,492.1a98.05,98.05,0,1,0-10.45-7.77,68.74,68.74,0,0,1-37.26,11H187.52a68.58,68.58,0,0,1-56.78-107L238.36,229.45h40.08L356,344a6.17,6.17,0,1,0,10.21-6.92l-77.05-113.8L328.87,166A25.36,25.36,0,0,0,308,126.19H208.78A25.36,25.36,0,0,0,187.92,166L214,203.61l-52.54-31.1a6.17,6.17,0,1,0-6.28,10.62l57.4,34H151.63a6.17,6.17,0,0,0,0,12.34h71.83Zm309.38,114a85.47,85.47,0,1,1,85.47-85.47A85.56,85.56,0,0,1,429.9,495.35Z" transform="translate(-0.01 -0.04)"/><path class="cls-2" d="M318.73,159l-40.25,58.14H238.32L198.07,159a13,13,0,0,1,10.71-20.44H308A13,13,0,0,1,318.73,159Z" transform="translate(-0.01 -0.04)"/><path class="cls-3" d="M429.9,474.07a8.32,8.32,0,0,0,8.32-8.31v-8.68h2.72a27.76,27.76,0,0,0,0-55.51H418.86a11.13,11.13,0,0,1,0-22.26h32.37a8.32,8.32,0,0,0,0-16.63h-13V354a8.32,8.32,0,0,0-16.63,0v8.68h-2.73a27.76,27.76,0,0,0,0,55.52h22.08a11.13,11.13,0,0,1,0,22.25H408.57a8.32,8.32,0,0,0,0,16.63h13v8.68A8.31,8.31,0,0,0,429.9,474.07Z" transform="translate(-0.01 -0.04)"/><path class="cls-3" d="M380.14,235.46,385,231.6v56.56a6.17,6.17,0,0,0,12.33,0V231.6l4.82,3.86a6.17,6.17,0,0,0,7.71-9.64L395,214l-.05,0a5.59,5.59,0,0,0-.82-.55h0a5.35,5.35,0,0,0-.88-.39l-.12-.05a6.29,6.29,0,0,0-.88-.22l-.16,0a5.39,5.39,0,0,0-1.85,0l-.16,0a6.66,6.66,0,0,0-.88.22L389,213a5.75,5.75,0,0,0-.88.39h0a5.68,5.68,0,0,0-.83.55l-.05,0-14.84,11.87a6.17,6.17,0,0,0,7.71,9.64Z" transform="translate(-0.01 -0.04)"/><path class="cls-3" d="M457.69,202.37l4.82-3.85v56.55a6.17,6.17,0,1,0,12.33,0V198.52l4.83,3.85a6.11,6.11,0,0,0,3.84,1.36,6.17,6.17,0,0,0,3.86-11l-14.84-11.87,0,0a7.81,7.81,0,0,0-.82-.55h0a6.31,6.31,0,0,0-.88-.38l-.12,0a6.29,6.29,0,0,0-.88-.22l-.16,0a7,7,0,0,0-.92-.07,7.14,7.14,0,0,0-.93.07l-.16,0a6.66,6.66,0,0,0-.88.22l-.12,0a6.87,6.87,0,0,0-.88.38h0a8,8,0,0,0-.83.55s0,0-.05,0L450,192.74a6.17,6.17,0,0,0,7.71,9.63Z" transform="translate(-0.01 -0.04)"/></g><g id="Слой_6" data-name="Слой 6"><circle class="cls-4" cx="314.73" cy="314.73" r="309.73"/></g></svg>