<svg xmlns="http://www.w3.org/2000/svg" viewBox="0 0 629.47 629.47"><defs><style>.cls-1{fill:#454f6a;}.cls-2,.cls-5{fill:none;stroke-miterlimit:10;}.cls-2{stroke:#454f6a;stroke-width:11px;}.cls-3{fill:#dc7859;}.cls-4{fill:#fff;}.cls-5{stroke:#404c68;stroke-width:10px;}</style></defs><title>priglashaite</title><g id="Слой_1" data-name="Слой 1"><path class="cls-1" d="M491.63,242.09H463.05L463,136.71a12.52,12.52,0,0,0-12.52-12.52H174.36a12.53,12.53,0,0,0-12.53,12.52V242l-28.6,0a26.69,26.69,0,0,0-26.63,26.65V481a26.68,26.68,0,0,0,26.65,26.65H491.63A26.69,26.69,0,0,0,518.29,481V268.74A26.68,26.68,0,0,0,491.63,242.09Zm-28.58,12h28.58a14.71,14.71,0,0,1,3.5.43L463.05,282.8ZM173.83,140.77a7,7,0,0,1,7-7H444a7,7,0,0,1,7,7V293.38L312.44,415.62,173.83,293.38ZM133.24,254.06l28.59,0V282.8l-32.09-28.3A14.72,14.72,0,0,1,133.24,254.06Zm-14.65,14.67a14.54,14.54,0,0,1,1.61-6.66L241.41,369,118.59,468.87Zm373,227H133.25a14.69,14.69,0,0,1-14.34-11.63L250.52,377l58,51.1a6,6,0,0,0,7.93,0l71.17-62.77L506,483.78A14.69,14.69,0,0,1,491.63,495.7Zm14.66-28.61L396.6,357.4l108.08-95.32a14.54,14.54,0,0,1,1.61,6.66Z" transform="translate(-0.01 -0.04)"/><path class="cls-2" d="M312.43,151.35a79.12,79.12,0,0,0-79,79,77,77,0,0,0,6.91,32.28c19.75,43.2,57.65,88.88,68.79,101.83a4.35,4.35,0,0,0,3.31,1.53,4.39,4.39,0,0,0,3.34-1.53,595.06,595.06,0,0,0,47.93-64.19l-25.95-26a49.46,49.46,0,1,1,17.52-17.52l21.47,21.47c2.8-5.2,5.45-10.42,7.82-15.62a77.13,77.13,0,0,0,6.91-32.28A79.13,79.13,0,0,0,312.43,151.35Z" transform="translate(-0.01 -0.04)"/><path class="cls-3" d="M345.33,231.65a32.77,32.77,0,1,1-32.76-32.78A32.81,32.81,0,0,1,345.33,231.65Z" transform="translate(-0.01 -0.04)"/><path class="cls-4" d="M287.07,231.65h7.29a18.22,18.22,0,0,1,18.21-18.21v-7.29A25.53,25.53,0,0,0,287.07,231.65Z" transform="translate(-0.01 -0.04)"/></g><g id="Слой_6" data-name="Слой 6"><circle class="cls-5" cx="314.73" cy="314.73" r="309.73"/></g></svg>