<?xml version="1.0" encoding="utf-8"?>
<!-- Generator: Adobe Illustrator 22.0.0, SVG Export Plug-In . SVG Version: 6.00 Build 0)  -->
<svg version="1.1" id="Слой_2_1_" xmlns="http://www.w3.org/2000/svg" xmlns:xlink="http://www.w3.org/1999/xlink" x="0px"
	 y="0px" viewBox="0 0 100 100" style="enable-background:new 0 0 100 100;" xml:space="preserve">
<style type="text/css">
	.st0{fill:#304269;}
</style>
<title>Монтажная область 6</title>
<path class="st0" d="M90.2,22.3L77.7,9.8c-1.7-1.7-4.5-1.7-6.3,0c0,0,0,0,0,0L47.8,33.5c-1.7,1.7-1.7,4.5,0,6.3c0,0,0,0,0,0l5.2,5.2
	l-8.6,8.6l-5.7-5.7c-1.7-1.7-4.6-1.7-6.3,0L8.8,71.4c-1.7,1.7-1.7,4.6,0,6.3l12.5,12.5c1.7,1.7,4.6,1.7,6.3,0l23.7-23.6
	c1.7-1.7,1.7-4.6,0-6.3l-4.7-4.7l8.6-8.6l5.2,5.2c1.7,1.7,4.5,1.7,6.3,0c0,0,0,0,0,0l23.7-23.6C91.9,26.8,91.9,24,90.2,22.3
	C90.2,22.3,90.2,22.3,90.2,22.3z M49.1,62.4c0.6,0.6,0.6,1.5,0,2L25.4,88.1c-0.6,0.6-1.5,0.6-2,0L10.9,75.6c-0.6-0.6-0.6-1.5,0-2.1
	l23.6-23.7c0.6-0.6,1.5-0.6,2,0l5.7,5.7l-6.8,6.8c-0.6,0.6-0.6,1.5-0.1,2.1c0.6,0.6,1.5,0.6,2.1,0.1c0,0,0.1,0,0.1-0.1l6.8-6.8
	L49.1,62.4z M88.1,26.4L64.4,50.1c-0.6,0.5-1.4,0.5-2,0l-5.2-5.2l7.3-7.3c0.6-0.6,0.5-1.6-0.1-2.1c-0.6-0.5-1.5-0.5-2,0l-7.3,7.3
	l-5.2-5.2c-0.5-0.6-0.5-1.4,0-2l23.6-23.7c0.6-0.5,1.4-0.5,2,0l12.5,12.5C88.6,24.9,88.6,25.8,88.1,26.4L88.1,26.4z"/>
</svg>
