<?xml version="1.0" encoding="utf-8"?>
<!-- Generator: Adobe Illustrator 22.1.0, SVG Export Plug-In . SVG Version: 6.00 Build 0)  -->
<svg version="1.1" xmlns="http://www.w3.org/2000/svg" xmlns:xlink="http://www.w3.org/1686868/xlink" x="0px" y="0px"
	 viewBox="0 0 500 500" style="enable-background:new 0 0 500 500;" xml:space="preserve">
<style type="text/css">
	.st0{display:none;}
	.st1{display:inline;fill:#304269;}
	.st2{display:inline;}
	.st3{fill:#91BED4;}
	.st4{fill:#F26101;}
	.st5{fill:none;stroke:#91BED4;stroke-width:20;stroke-miterlimit:10;}
	.st6{display:inline;fill:none;stroke:#91BED4;stroke-width:20;stroke-miterlimit:10;}
	.st7{display:inline;fill:#D9E8F5;}
	.st8{display:inline;fill:#F26101;}
	.st9{fill:#FFFFFF;}
	.st10{fill:#D9E8F5;}
	.st11{fill:#304269;}
	.st12{display:inline;fill:#CAE4F5;}
	.st13{display:inline;fill:#B4D3E1;}
	.st14{display:inline;fill:#FFFFFF;}
	.st15{display:inline;fill:#91BED4;}
	.st16{fill:none;stroke:#91BED4;stroke-width:6;stroke-miterlimit:10;}
	.st17{fill:none;stroke:#91BED4;stroke-width:3;stroke-miterlimit:10;}
	.st18{opacity:0.5;fill:#304269;}
</style>
<g id="Слой_5" class="st0">
	<rect x="-1152" y="-628" class="st1" width="2271" height="1242"/>
</g>
<g id="route" class="st0">
</g>
<g id="calendar__x28_копия_x29_" class="st0">
</g>
<g id="guide" class="st0">
</g>
<g id="enjoy">
	<g>
		<g>
			<path class="st11" d="M8.3,164c-4.6,0-8.3,3.7-8.3,8.3l0,99.5c0,4.9,3.9,8.8,8.8,8.8h24.5v30.1c0,6.4,5.2,11.6,11.6,11.6h22.4
				c3.7,25.6,23.8,45.7,49.4,49.4c31.8,4.6,61.3-17.5,65.9-49.4h176.2c3.7,25.6,23.8,45.7,49.4,49.4c31.8,4.6,61.3-17.5,65.9-49.4
				h25.7v-68.1c0-17.6-13.7-32.1-31.2-33.3l-105.3-6.6L331.5,157c-5.9-10.6-18.6-11-30.8-11H90.1c-13.2,0-24.1,0.7-29.4,12.8
				L49.9,183v-19H8.3L8.3,164z M416.4,355.5c-23,0-41.6-18.7-41.6-41.6c0-30.2,32.2-52.9,64.1-35.7c5.6,3,10.2,7.6,13.2,13.2
				C469.3,323.4,446.6,355.5,416.4,355.5L416.4,355.5z M374.8,231.7l92.7,5.8c8.8,0.5,15.6,7.8,15.6,16.7v51.4h-8.9
				c-0.1-0.6-0.3-1.3-0.4-1.9c-0.1-0.8-0.3-1.6-0.5-2.4c-0.3-1.1-0.5-2.1-0.8-3.1c-0.2-0.7-0.4-1.5-0.6-2.2
				c-0.3-1.1-0.8-2.1-1.2-3.2c-0.3-0.6-0.5-1.3-0.8-1.9c-0.5-1.2-1.1-2.3-1.7-3.5c-0.2-0.5-0.4-0.9-0.7-1.4
				c-0.9-1.6-1.8-3.1-2.8-4.6c-0.2-0.3-0.5-0.6-0.7-1c-0.8-1.1-1.6-2.3-2.5-3.3c-0.4-0.5-0.9-1-1.3-1.5c-0.8-0.8-1.5-1.7-2.3-2.5
				c-0.5-0.5-1-1-1.6-1.5c-0.8-0.7-1.5-1.5-2.4-2.2c-0.6-0.5-1.2-0.9-1.8-1.4c-0.8-0.6-1.7-1.3-2.5-1.9c-0.6-0.4-1.3-0.9-1.9-1.3
				c-0.9-0.6-1.7-1.1-2.6-1.6c-0.7-0.4-1.4-0.8-2.1-1.1c-0.9-0.5-1.9-0.9-2.8-1.4c-0.7-0.3-1.4-0.6-2.1-0.9c-1-0.4-2-0.8-3-1.1
				c-0.7-0.3-1.4-0.5-2.2-0.7c-1.1-0.3-2.1-0.6-3.2-0.8c-0.7-0.2-1.4-0.4-2.1-0.5c-1.2-0.2-2.5-0.4-3.7-0.6
				c-0.6-0.1-1.2-0.2-1.8-0.3c-1.9-0.2-3.8-0.3-5.7-0.3s-3.8,0.1-5.7,0.3c-0.6,0.1-1.2,0.2-1.8,0.3c-1.2,0.2-2.5,0.3-3.7,0.6
				c-0.7,0.1-1.4,0.3-2.1,0.5c-1.1,0.3-2.2,0.5-3.2,0.8c-0.7,0.2-1.5,0.5-2.2,0.7c-1,0.3-2,0.7-3,1.1c-0.7,0.3-1.4,0.6-2.1,0.9
				c-1,0.4-1.9,0.9-2.8,1.4c-0.7,0.4-1.4,0.7-2.1,1.1c-0.9,0.5-1.8,1-2.6,1.6c-0.7,0.5-1.3,0.8-1.9,1.3c-0.8,0.6-1.7,1.2-2.5,1.9
				c-0.6,0.5-1.2,0.9-1.8,1.4c-0.8,0.7-1.6,1.4-2.4,2.2c-0.5,0.5-1.1,1-1.6,1.5l-0.1,0.1V231.7z M132.2,162.7l1,51.3H54.4l19.1-42.9
				c2.7-6,10.1-8.4,16.7-8.4H132.2L132.2,162.7z M233.2,213.9h-83.3l-1-51.3h83.3L233.2,213.9z M249.8,230.6h108.3v75H249.8V230.6z
				 M248.8,162.7h51.9c6,0,15,0.1,17.9,5.3l25.3,45.9h-94.1L248.8,162.7z M168.8,275.6c-0.8-0.9-1.5-1.7-2.3-2.5
				c-0.5-0.5-1-1-1.6-1.5c-0.8-0.7-1.5-1.5-2.4-2.2c-0.6-0.5-1.2-0.9-1.8-1.4c-0.8-0.6-1.7-1.3-2.5-1.9c-0.6-0.4-1.3-0.9-1.9-1.3
				c-0.9-0.6-1.7-1.1-2.6-1.6c-0.7-0.4-1.5-0.8-2.1-1.1c-0.6-0.3-1.2-0.6-1.8-0.9v-30.6h83.3v74.9h-50.6c-0.1-0.6-0.3-1.3-0.4-1.9
				c-0.1-0.8-0.3-1.6-0.5-2.4c-0.3-1.1-0.5-2.1-0.8-3.1c-0.2-0.7-0.4-1.5-0.6-2.2c-0.3-1.1-0.8-2.1-1.2-3.2
				c-0.3-0.6-0.5-1.3-0.7-1.9c-0.5-1.2-1.1-2.3-1.7-3.5c-0.2-0.5-0.4-0.9-0.7-1.4c-0.9-1.6-1.8-3.1-2.8-4.6c-0.2-0.3-0.5-0.6-0.7-1
				c-0.8-1.1-1.6-2.3-2.5-3.3C169.6,276.6,169.2,276.1,168.8,275.6L168.8,275.6z M124.9,355.5c-23,0-41.6-18.7-41.6-41.6
				c0-30.2,32.2-52.9,64.1-35.7c5.6,3,10.2,7.6,13.2,13.2C177.8,323.3,155.1,355.5,124.9,355.5L124.9,355.5z M49.9,230.6h83.3v25.6
				l-0.8-0.1c-0.6-0.1-1.2-0.2-1.8-0.3c-1.9-0.2-3.8-0.3-5.7-0.3s-3.8,0.1-5.7,0.3c-0.6,0.1-1.2,0.2-1.8,0.3
				c-1.3,0.2-2.5,0.3-3.7,0.6c-0.7,0.1-1.4,0.3-2.1,0.5c-1.1,0.3-2.2,0.5-3.2,0.8c-0.7,0.2-1.5,0.5-2.2,0.7c-1,0.4-2,0.7-3,1.1
				c-0.7,0.3-1.4,0.6-2.1,0.9c-1,0.4-1.9,0.9-2.8,1.4c-0.7,0.4-1.4,0.7-2.1,1.1c-0.9,0.5-1.8,1.1-2.6,1.6c-0.7,0.5-1.3,0.8-1.9,1.3
				c-0.8,0.6-1.7,1.2-2.5,1.9c-0.6,0.5-1.2,0.9-1.8,1.4c-0.8,0.7-1.6,1.4-2.4,2.2c-0.5,0.5-1.1,1-1.6,1.5c-0.8,0.8-1.5,1.7-2.3,2.5
				c-0.4,0.5-0.9,1-1.3,1.5c-0.8,1.1-1.7,2.2-2.5,3.3c-0.2,0.3-0.5,0.6-0.7,1c-1,1.5-1.9,3-2.8,4.6c-0.2,0.5-0.4,0.9-0.7,1.4
				c-0.6,1.2-1.1,2.3-1.7,3.5c-0.3,0.6-0.5,1.3-0.7,1.9c-0.4,1-0.8,2.1-1.2,3.2c-0.2,0.7-0.4,1.5-0.6,2.2c-0.3,1-0.6,2.1-0.8,3.1
				c-0.2,0.8-0.3,1.5-0.5,2.4c-0.1,0.6-0.3,1.3-0.4,1.9H49.9v-33.3V230.6z M16.6,180.6h16.7v83.3H16.6V180.6z"/>
		</g>
		<path class="st11" d="M291.5,247.3h-16.7c-4.6,0-8.3,3.7-8.3,8.3v0c0,4.6,3.7,8.3,8.3,8.3h16.7c4.6,0,8.3-3.7,8.3-8.3v0
			C299.8,251,296.1,247.3,291.5,247.3z"/>
	</g>
</g>
</svg>
