<?xml version="1.0" encoding="utf-8"?>
<!-- Generator: Adobe Illustrator 22.1.0, SVG Export Plug-In . SVG Version: 6.00 Build 0)  -->
<svg version="1.1" id="Layer_1" xmlns="http://www.w3.org/2000/svg" xmlns:xlink="http://www.w3.org/1686868/xlink" x="0px" y="0px"
	 viewBox="0 0 512 512" style="enable-background:new 0 0 512 512;" xml:space="preserve">
<style type="text/css">
	.st0{display:none;fill:#304269;}
	.st1{fill:#304269;}
</style>
<circle class="st0" cx="256" cy="256" r="221"/>
<path class="st1" d="M256,269.7c-31.1,0-56.4-25.3-56.4-56.4s25.3-56.4,56.4-56.4s56.4,25.3,56.4,56.4S287.1,269.7,256,269.7
	L256,269.7z M256,101.3c-61.8,0-112.1,50.3-112.1,112.1c0,76.7,100.3,189.2,104.5,194c4,4.5,11,4.5,15,0
	c4.3-4.8,104.5-117.3,104.5-194C368.1,151.6,317.8,101.3,256,101.3L256,101.3z"/>
</svg>
