<svg xmlns="http://www.w3.org/2000/svg" viewBox="0 0 230.67 60.93"><defs><style>.cls-1{fill:#fff;}.cls-2{fill:#f77a4b;}</style></defs><title>logo_tripfer</title><g id="Слой_4" data-name="Слой 4"><g id="Слой_16" data-name="Слой 16"><path class="cls-1" d="M83.51,9.74a3.21,3.21,0,0,1,1,2.43,3.1,3.1,0,0,1-1,2.4,3.64,3.64,0,0,1-2.55.9H71.87V45.82a3.31,3.31,0,0,1-1.1,2.52,3.92,3.92,0,0,1-2.73,1,3.67,3.67,0,0,1-2.66-1,3.36,3.36,0,0,1-1-2.52V15.47h-9.1a3.57,3.57,0,0,1-2.54-.92,3.19,3.19,0,0,1-1-2.44,3.07,3.07,0,0,1,1-2.37,3.56,3.56,0,0,1,2.51-.93H81A3.57,3.57,0,0,1,83.51,9.74Z"/><path class="cls-1" d="M102.88,18.77a3,3,0,0,1,1.19,2.32,3.57,3.57,0,0,1-.93,2.69,3,3,0,0,1-2.2.9,5.6,5.6,0,0,1-2-.41L98.19,24a4.92,4.92,0,0,0-1.3-.17,5.16,5.16,0,0,0-2.9.93,6.69,6.69,0,0,0-2.28,2.8,10.37,10.37,0,0,0-.9,4.49V45.82a3.48,3.48,0,0,1-1,2.52,3.57,3.57,0,0,1-5,0,3.51,3.51,0,0,1-1-2.52V21.9a3.51,3.51,0,0,1,1-2.52,3.57,3.57,0,0,1,5,0,3.48,3.48,0,0,1,1,2.52v.75A8.8,8.8,0,0,1,94.63,19,11.76,11.76,0,0,1,100,17.79,4.44,4.44,0,0,1,102.88,18.77Z"/><path class="cls-1" d="M108.22,14a2.73,2.73,0,0,1-.81-2.26v-1.1a2.62,2.62,0,0,1,.87-2.26,6.47,6.47,0,0,1,5.61,0,2.72,2.72,0,0,1,.81,2.26v1.1a2.64,2.64,0,0,1-.84,2.28,5,5,0,0,1-2.86.61A4.63,4.63,0,0,1,108.22,14Zm5.33,34.37a3.59,3.59,0,0,1-5,0,3.51,3.51,0,0,1-1-2.52V21.9a3.51,3.51,0,0,1,1-2.52,3.59,3.59,0,0,1,5,0,3.51,3.51,0,0,1,1,2.52V45.82A3.51,3.51,0,0,1,113.55,48.34Z"/><path class="cls-1" d="M144.41,19.84a14.41,14.41,0,0,1,5.12,5.71,17.72,17.72,0,0,1,1.88,8.28,18.14,18.14,0,0,1-1.85,8.31,14.15,14.15,0,0,1-5.07,5.73,12.8,12.8,0,0,1-7.09,2.06,12.47,12.47,0,0,1-5.24-1.13,13.84,13.84,0,0,1-4.08-2.75V57.4a3.48,3.48,0,0,1-1,2.52,3.32,3.32,0,0,1-2.49,1,3.37,3.37,0,0,1-2.49-1,3.44,3.44,0,0,1-1-2.55V21.9a3.47,3.47,0,0,1,1-2.52,3.57,3.57,0,0,1,5,0,3.48,3.48,0,0,1,1,2.52v.23a11.81,11.81,0,0,1,3.88-3,11.05,11.05,0,0,1,5.21-1.3A13.27,13.27,0,0,1,144.41,19.84Zm-2,20.94a10.33,10.33,0,0,0,2.37-7,10.3,10.3,0,0,0-2.34-6.92,7.65,7.65,0,0,0-6.11-2.75,7.74,7.74,0,0,0-6.14,2.75,10.22,10.22,0,0,0-2.37,6.92,10.33,10.33,0,0,0,2.37,7,8.1,8.1,0,0,0,12.22,0Z"/><path class="cls-1" d="M167.27,13.76a4.16,4.16,0,0,0-.81,2.46V19h5.27a3.23,3.23,0,0,1,2.32.89,3.31,3.31,0,0,1,0,4.58,3.2,3.2,0,0,1-2.32.9h-5.27v20.5a3.51,3.51,0,0,1-1,2.52,3.59,3.59,0,0,1-5,0,3.51,3.51,0,0,1-1-2.52V25.32h-3.13a3.18,3.18,0,0,1-2.31-.9,3.28,3.28,0,0,1,0-4.58,3.21,3.21,0,0,1,2.31-.89h3.13V16.28a9.11,9.11,0,0,1,3-7.06q3-2.73,8.6-2.73a7.68,7.68,0,0,1,3.74.87A2.85,2.85,0,0,1,176.42,10a3.2,3.2,0,0,1-.81,2.26,2.59,2.59,0,0,1-2,.86,3.27,3.27,0,0,1-.61-.05l-.66-.12a10,10,0,0,0-2.32-.35A3.2,3.2,0,0,0,167.27,13.76Z"/><path class="cls-1" d="M204.47,35.39a3.66,3.66,0,0,1-2.43.87H182.93a8.67,8.67,0,0,0,3.19,5.36,8.89,8.89,0,0,0,5.61,1.94,12.46,12.46,0,0,0,3.71-.43,9.47,9.47,0,0,0,2.11-.93l1.07-.67a4.56,4.56,0,0,1,2-.52,2.86,2.86,0,0,1,2.09.87,2.79,2.79,0,0,1,.87,2,3.62,3.62,0,0,1-1.62,2.84A13.92,13.92,0,0,1,197.58,49a17.9,17.9,0,0,1-14-1.1A14.05,14.05,0,0,1,178,42.31a16.18,16.18,0,0,1-2-8,17.74,17.74,0,0,1,2.08-8.74,14.78,14.78,0,0,1,5.51-5.76,14.09,14.09,0,0,1,7.29-2,13.52,13.52,0,0,1,7.21,2.08,15.62,15.62,0,0,1,5.42,5.62,15.12,15.12,0,0,1,2,7.65A2.91,2.91,0,0,1,204.47,35.39ZM183,30.47h15.17v-.4a6,6,0,0,0-2.37-4.17,7.52,7.52,0,0,0-4.87-1.74Q184.2,24.16,183,30.47Z"/><path class="cls-1" d="M229.49,18.77a2.94,2.94,0,0,1,1.18,2.32,3.61,3.61,0,0,1-.92,2.69,3.07,3.07,0,0,1-2.2.9,5.56,5.56,0,0,1-2-.41l-.79-.23a4.87,4.87,0,0,0-1.3-.17,5.11,5.11,0,0,0-2.89.93,6.7,6.7,0,0,0-2.29,2.8,10.37,10.37,0,0,0-.9,4.49V45.82a3.51,3.51,0,0,1-1,2.52,3.57,3.57,0,0,1-5,0,3.48,3.48,0,0,1-1-2.52V21.9a3.48,3.48,0,0,1,1-2.52,3.57,3.57,0,0,1,5,0,3.51,3.51,0,0,1,1,2.52v.75A8.8,8.8,0,0,1,221.23,19a11.76,11.76,0,0,1,5.33-1.24A4.49,4.49,0,0,1,229.49,18.77Z"/><path class="cls-1" d="M21.7,0A21.38,21.38,0,0,0,.35,21.36a20.67,20.67,0,0,0,1.87,8.72C7.55,41.76,17.8,54.1,20.81,57.6a1.15,1.15,0,0,0,.89.42,1.19,1.19,0,0,0,.91-.42,159.88,159.88,0,0,0,13-17.35l-7-7a13.4,13.4,0,1,1,4.73-4.74l5.8,5.8c.76-1.4,1.48-2.81,2.12-4.22a20.83,20.83,0,0,0,1.87-8.72A21.39,21.39,0,0,0,21.7,0Z"/><path class="cls-2" d="M31.78,21.7a10,10,0,1,1-10-10A10.05,10.05,0,0,1,31.78,21.7Z"/><path class="cls-1" d="M13.93,21.7h2.23a5.58,5.58,0,0,1,5.58-5.58V13.89A7.81,7.81,0,0,0,13.93,21.7Z"/></g></g></svg>