<svg id="Слой_1" data-name="Слой 1" xmlns="http://www.w3.org/2000/svg" viewBox="0 0 42.72 58.02"><defs><style>.cls-1{fill:#394468;}.cls-2{fill:#db794f;}.cls-3{fill:#fff;}</style></defs><title>logo-blue</title><path class="cls-1" d="M73.08,1.3A21.39,21.39,0,0,0,51.72,22.66a20.83,20.83,0,0,0,1.87,8.72c5.34,11.68,15.58,24,18.59,27.53a1.19,1.19,0,0,0,.9.41,1.18,1.18,0,0,0,.9-.41,160.61,160.61,0,0,0,13-17.35l-7-7a13.38,13.38,0,1,1,4.74-4.74l5.8,5.8c.76-1.4,1.47-2.81,2.11-4.22a20.83,20.83,0,0,0,1.87-8.72A21.39,21.39,0,0,0,73.08,1.3Z" transform="translate(-51.72 -1.3)"/><path class="cls-2" d="M83.16,23a10,10,0,1,1-10-10A10.05,10.05,0,0,1,83.16,23Z" transform="translate(-51.72 -1.3)"/><path class="cls-3" d="M65.3,23h2.23a5.59,5.59,0,0,1,5.59-5.58V15.19A7.82,7.82,0,0,0,65.3,23Z" transform="translate(-51.72 -1.3)"/></svg>