<svg width="121" height="78" viewBox="0 0 121 78" fill="none" xmlns="http://www.w3.org/2000/svg">
<g clip-path="url(#clip0)">
<path d="M35.5 36.9H55.8L55.7 32.1H36.3C35.6 32.1 35.3 31.8 35.3 31.2V26.1H53V21.4H35.3V16.6C35.3 16 35.6 15.6 36.3 15.6H55.8V10.8H35.9C31.5 10.8 29.6 12.2 29.6 16.7V31.3C29.6 35 31.3 36.9 35.5 36.9ZM6.3 36.9H20.7C25.3 36.9 26.8 35.3 26.8 31.3V26.4C26.8 22.4 25.3 20.8 20.7 20.8H5.7V16.6C5.7 16 6 15.7 6.7 15.7H25.5L25.6 10.8H5.9C1.7 10.8 0 12.6 0 16.4V31C0 35.5 2 36.9 6.3 36.9ZM5.7 25.6H20C20.7 25.6 21 25.9 21 26.6V31.1C21 31.8 20.7 32.1 20 32.1H6.7C6 32.1 5.7 31.8 5.7 31.2V25.6ZM74.4 17.4C74.7 16.9 75.2 16.6 75.8 16.6H78.8V36.9H84.5V10.8H74.3C72.8 10.8 71.3 11.7 70.6 13L57.9 36.9H63.9L74.4 17.4ZM75.2 61.7H64.7V56.5H83.2V51.6H58.9V77.7H75C81.9 77.7 84.7 74.2 84.7 69.6C84.8 65.1 82.1 61.7 75.2 61.7ZM75.2 73H64.7V66.6H75.3C77.9 66.6 78.9 68.1 78.9 69.8C78.9 71.5 77.9 73 75.2 73ZM101.8 0L91 10.8H109.7V29.5L120.5 18.7V0H101.8ZM102.4 1.4H116.7L95.7 8.1L102.4 1.4ZM119 18.1L111.1 26V10.8V9.4H109.7H96.9L119 2.2V18.1ZM84.6 41.8H0V46.8H84.6V41.8ZM43.1 51.7H30.1V56.6H42.5C46.2 56.6 48.8 58.9 49.7 62.4H32.9V67.1H49.6C48.8 70.7 46.1 72.9 42.4 72.9H30.1V77.8H43C50.6 77.8 55.9 72.5 55.9 64.7C55.9 57 50.7 51.7 43.1 51.7ZM23 64.2C25.2 63.1 26.2 61.3 26.2 58.9C26.2 54.6 23.3 51.7 16.5 51.7H0V77.8H17.4C24.3 77.8 27.1 74.6 27.1 70.3C27.1 67.4 25.9 65.3 23 64.2ZM5.7 56.5H16.5C19.1 56.5 20.1 58.1 20.1 59.7C20.1 61.3 19.1 62.6 16.5 62.6H5.7V56.5ZM17.6 73H5.7V66.7H17.5C20.2 66.7 21.2 68.1 21.2 69.8C21.2 71.5 20.2 73 17.6 73Z" fill="#ffffff"/>
</g>
<defs>
<clipPath id="clip0">
<rect width="120.4" height="77.8" fill="white"/>
</clipPath>
</defs>
</svg>
