<?xml version="1.0" encoding="utf-8"?>
<!-- Generator: Adobe Illustrator 22.0.0, SVG Export Plug-In . SVG Version: 6.00 Build 0)  -->
<svg version="1.1" id="Layer_1" xmlns="http://www.w3.org/2000/svg" xmlns:xlink="http://www.w3.org/1999/xlink" x="0px" y="0px"
	 viewBox="0 0 512 512" style="enable-background:new 0 0 512 512;" xml:space="preserve">
<style type="text/css">
	.st0{display:none;}
	.st1{display:inline;}
	.st2{fill:#ff6600;}
	.st3{display:inline;fill:#ff6600;}
</style>
<g class="st0">
	<g class="st1">
		<g>
			<path class="st2" d="M256,0C153.8,0,70.6,83.2,70.6,185.4c0,126.9,165.9,313.2,173,321c6.6,7.4,18.2,7.4,24.8,0
				c7.1-7.9,173-194.1,173-321C441.4,83.2,358.2,0,256,0z M256,278.7c-51.4,0-93.3-41.9-93.3-93.3s41.9-93.3,93.3-93.3
				s93.3,41.9,93.3,93.3S307.4,278.7,256,278.7z"/>
		</g>
	</g>
</g>
<g class="st0">
	<g class="st1">
		<g id="directions-bus">
			<path class="st2" d="M40.4,377.3c0,24.3,10.8,45.8,26.9,59.3v48.5c0,16.2,10.8,26.9,26.9,26.9h26.9c16.2,0,26.9-10.8,26.9-26.9
				v-26.9h215.6v26.9c0,16.2,10.8,26.9,26.9,26.9h26.9c16.2,0,26.9-10.8,26.9-26.9v-48.5c16.2-13.5,26.9-35,26.9-59.3V107.8
				C471.6,13.5,374.6,0,256,0S40.4,13.5,40.4,107.8V377.3z M134.7,404.2c-21.6,0-40.4-18.9-40.4-40.4s18.9-40.4,40.4-40.4
				s40.4,18.9,40.4,40.4S156.3,404.2,134.7,404.2z M377.3,404.2c-21.6,0-40.4-18.9-40.4-40.4s18.9-40.4,40.4-40.4
				s40.4,18.9,40.4,40.4S398.8,404.2,377.3,404.2z M397.7,242.5H114.3c-11,0-20-9-20-20v-94.7c0-11,9-20,20-20h283.4
				c11,0,20,9,20,20v94.7C417.7,233.6,408.7,242.5,397.7,242.5z"/>
		</g>
	</g>
</g>
<g class="st0">
	<path class="st3" d="M193.3,312.4c3.7,2.7,9.2,2.7,11.9-0.9l25.6-25.6l-14.6-7.3c-13.7-7.3-26.5-16.5-37.5-28.4l-37.5,22.9
		L193.3,312.4z"/>
	<path class="st3" d="M299.5,312.4l51.3-38.5l-37.5-22.9c-11,11.9-22.9,21.1-37.5,28.4l-14.6,7.3l25.6,25.6
		C290.3,314.2,295.8,315.2,299.5,312.4L299.5,312.4z"/>
	<path class="st3" d="M278.4,327.1c-0.9-0.9-2.7-1.8-3.7-2.7l-28.4-28.4L218,324.3c-0.9,0.9-2.7,1.8-3.7,2.7l32,64.1L278.4,327.1z"
		/>
	<path class="st3" d="M169.5,112.8c-3.7,1.8-5.5,4.6-5.5,8.2v43c0,41.2,23.8,79.6,60.4,98l17.4,9.2c2.7,0.9,5.5,0.9,8.2,0l17.4-9.2
		c37.5-18.3,60.4-56.8,60.4-98v-36.6c0-5.5-3.7-9.2-9.2-9.2h-27.5c-20.1,0-36.6-16.5-36.6-36.6v-4.6L169.5,112.8z"/>
	<path class="st3" d="M151.2,199.8c-3.7-11.9-5.5-23.8-5.5-36.6v-42.1c0-11,6.4-21.1,16.5-25.6l111.7-45.8v32
		c0,10.1,8.2,18.3,18.3,18.3h27.5c15.6,0,27.5,11.9,27.5,27.5v36.6c0,11.9-1.8,24.7-5.5,36.6c21.1-19.2,34.8-45.8,36.6-75.1
		l1.8-22.9c1.8-31.1-15.6-59.5-43.9-72.3L283,7.6c-23.8-10.1-50.4-10.1-73.2,0l-53.1,22.9c-28.4,12.8-45.8,41.2-43.9,72.3l1.8,22.9
		C116.4,154,129.2,181.5,151.2,199.8L151.2,199.8z"/>
	<path class="st3" d="M209.7,512H283v-91.6h-73.2V512z"/>
	<path class="st3" d="M383.7,466.2v-18.3h7.6c8.6,0,16.4-5.4,18.9-13.6c3.3-10.4-3-20.6-11.9-24l-20.1-6.4l-36.7,85
		c-2,4.6-7.3,6.7-11.9,4.7h0c-4.5-2-6.6-7.3-4.6-11.8l77-176.7L368.1,284l-57.7,43c-3.7,2.7-9.2,4.6-13.7,5.5L261,402.1h20.3
		c11,0,20,9,20,20V512h146.5v-51.3c-8.2,3.7-17.4,5.5-25.6,5.5H383.7z"/>
	<path class="st3" d="M462.4,386.6L431.1,311c-2.3-5.6-10.3-5.7-12.7-0.1l-32.9,76.6l18.3,6.4c19.2,6.4,30.2,27.5,23.8,47.6
		c0,0.9-0.9,1.8-0.9,1.8c-0.9,1.8-1.8,3.7-2.7,5.5c24.7-0.9,43-22,42.1-46.7C466.1,396.6,464.3,391.2,462.4,386.6L462.4,386.6z"/>
	<path class="st3" d="M196,331.6c-5.5,0-10.1-1.8-13.7-5.5l-56.8-43l-41.2,25.6c-23.8,14.6-38.5,41.2-38.5,69.6V512h73.2V411.3
		c0-5.1,4.1-9.2,9.2-9.2h0c5.1,0,9.2,4.1,9.2,9.2V512h54.9v-89.9c0-11,9-20,20-20h20.3L196,331.6z"/>
</g>
<path class="st2" d="M166.8,381.7l-90,49.1c-5.3,2.9-53.2,31.4-53.2,81.2c70,0,402.7,0,464.7,0c0-49.8-48.8-77.6-54.6-80.5
	l-96.3-48.2c-12.4-6.2-20.3-18.9-20.3-32.9v-37.8c2.7-3.1,5.8-7,9.1-11.7c13.1-18.5,23.1-38.9,29.9-60.3
	c12.4-3.8,21.5-15.2,21.5-28.8v-40.3c0-8.9-3.9-16.8-10.1-22.4V90.8c0,0,12-90.8-110.9-90.8S145.6,90.8,145.6,90.8v58.3
	c-6.1,5.6-10.1,13.5-10.1,22.4v40.3c0,10.6,5.6,20,13.9,25.4c10.1,43.9,36.5,75.5,36.5,75.5v36.9C186,362.9,178.6,375.3,166.8,381.7
	z"/>
</svg>
