<?xml version="1.0" encoding="utf-8"?>
<!-- Generator: Adobe Illustrator 22.1.0, SVG Export Plug-In . SVG Version: 6.00 Build 0)  -->
<svg version="1.1" id="Слой_1" xmlns="http://www.w3.org/2000/svg" xmlns:xlink="http://www.w3.org/1686868/xlink" x="0px" y="0px"
	 viewBox="0 0 512 512" style="enable-background:new 0 0 512 512;" xml:space="preserve">
<style type="text/css">
	.st0{fill:#FFFFFF;}
</style>
<g id="Слой_1__x28_копия_x29_">
	
		<image style="display:none;overflow:visible;enable-background:new" width="767" height="155" xlink:href="../icons_finall/20358EC6.jpg"  transform="matrix(1.1507 0 0 1.1507 -212.2483 165.7619)">
	</image>
	<path class="st0" d="M715.3,456.9c-1-0.4-4.6-2.1-5.1-2.9c-0.6-0.7-0.4-1.3-0.4-2.1c0.1-0.8-0.1-1.6-0.4-2.4
		c-0.1-0.4-1.1-1.8-1.5-2.1c-0.2-0.2-2.1-1.6-2.4-2c-0.2-0.4-1.4-3.4-1.8-3.8c-0.6-0.7-0.7-2.8-3.1-4.3c-0.7-0.4-1.5-0.8-2.3-1
		c-1-0.2-18.6-7.4-19.2-8.3c-0.6-0.8-3.1-2.8-3.6-3c-0.4-0.1-1.5-1-1.9-1.2c-0.7-0.4-3.4-1.5-3.7-2.2c-0.1-0.6-0.3-1-0.8-1.5
		c-0.5-0.4-2.8-1.8-3.5-1.9c-1.6-0.2-3.7-0.7-4.6-2.1c-0.4-0.6-1-3.2-1.3-3.9c-0.4-1.4-0.4-2.9-1.6-4c-0.6-0.6-2.3-3.2-2.6-3.8
		c-0.4-0.8-0.3-2-0.1-2.9c0.1-0.4,0.4-1,0.6-1.3c0.3-0.4,0.7-0.7,1.1-1.2c0.4-0.6,0.4-1.2,0.3-1.8c-0.1-0.6-1.2-2.5-1.3-2.9
		c-0.1-0.4-0.1-0.9-0.1-1.3c-0.1-0.9-0.3-2-1.1-2.5c-0.7-0.4-1.6-0.4-2.4-0.4c-0.7,0.1-1.5,0.4-2.2,0.7c-0.5,0.2-2.5-1.2-2.9-1.9
		c-0.4-0.7-1.3-1.5-2.1-1.6c-0.7-0.1-1.3,0.2-2,0.6c-0.6,0.3-2.1,2.4-2.8,2.4c-0.6-0.1-4.5-3.3-4.7-3.8c-0.1-0.3-0.2-0.7-0.4-1
		c-0.2-0.6,0.1-1,0.1-1.5c0.1-0.7-0.3-1.5-0.4-2.2c-0.1-0.7-0.3-1.4-0.6-2.2c-0.2-0.6-0.6-1-0.7-1.7c-0.7-2.6,0.1-7.1-0.1-7.6
		c-0.4-0.7-0.5-3.2-0.5-3.6c0-0.5,0-1.1,0-1.6c0.1-1,2.4-3.3,3.2-2.9c0.8,0.4,1.6,1.1,2.6,1.1c0.7,0,2.2-2.8,3.1-3.2
		c0.9-0.3,1.8-0.3,2.6,0c0.8,0.3,1.3,0.7,2.1,0.4c0.9-0.4,1.9-1,2.6-1.6c0.6-0.5,2-3.1,2.4-3.7c0.4-0.5,2.2-2.4,2.9-2.8
		c1-0.5,1.8-1.3,2.8-2c1.5-1,5.1-5.1,5.7-5.8c0.5-0.7,1.3-1,1.5-1.8c0.1-0.7,1.8-3.5,1-9.2c-0.1-0.4-0.7-3.1-1-3.5
		c-0.5-0.9-0.9-2.1-1.9-2.4c-0.9-0.3-4.7-0.6-5.7-1.1c-0.9-0.5-1.7-1-2.6-0.6c-0.9,1.3-2.4,1.3-3.8,1c-2.1-0.5-5.4-4.9-6.3-5.5
		c-0.7-0.4-3.7-2.4-3.7-3.2c0-0.9,1-1.2,1.3-2c0.4-2.1-1.9-2.9-3.4-3.6c-1-0.4-2.1-0.2-3,0c-1.3,0.3-2.6,0.4-3.6,1.3
		c-1,0.8-4.6,2.6-5.1,1.7c-0.2-0.4-0.4-1.5-0.9-1.8c-0.3-0.1-3.2,1.1-4,2c-0.8,0.9-4.3,1.7-4.8-1.4c-0.1-0.6,0-1.5,0.1-2
		c0.1-1.1,1.4-3.5-0.3-4c-1.3-0.4-7.6,2.9-7.9,2.2c-0.4-0.8,0-2-0.7-2.6c-0.7-0.6-1.6-1-2.5-1.2c-0.9-0.1-2.1-0.2-2.7,0.2
		c-0.8,0.5-1.5,1.3-2.3,1.9c-0.4,0.2-1.8,1.1-2.2,1.5c-0.8,0.7-3.9-6-4.4-6.2c-0.5-0.3-1,0.1-1.5-0.1c-0.4-0.1-0.7-2.9-0.4-3.7
		c0.1-0.4,0.3-2.3,0.2-2.7c-0.1-0.7-0.7-1.8-1.4-2.1c-0.9-0.4-5.5-0.7-6.6-1c-1-0.3-4,0.7-4.6,0.7c-0.5,0-2.2-1.1-2.8-1
		c-0.4,0.1-3.5,0.7-3.6,0.3c-0.1-0.5-2.9-2.5-3.3-2.7c-0.3-0.2-2.2-2.9-2.3-3.5c-0.1-0.4-0.1-2-0.2-2.3c-1-2-12.9-8.2-13.8-8.7
		c-0.7-0.4-1.4-0.4-2.1-0.7c-0.8-0.4-1.8-1.1-2.2-1.9c-0.4-0.7-1.3-1.5-1.4-2.4c-0.1-1.1,0.1-2.3,0.7-3.3c0.4-0.7,3.5-3.1,3.8-4
		c0.2-0.7,0.2-1.7,0.2-2.6c0-0.7-0.2-1.9,0.4-2.4c0.6-0.4,1.6-0.4,2.2-0.1c1,0.4,1.6,1,2.8,1c0.9,0,1-0.7,1.6-1.3
		c0.5-0.7,1.3-1.4,2.1-1.5c1-0.1,1.5,0.6,2.5,0.9c0.7,0.2,1.9,0,2.4-0.6c0.3-0.4,0.4-1,0.6-1.4c0.1-0.4,0.7-5.1,0.4-5.6
		c-0.1-0.4-0.5-0.7-0.7-1.1c-0.2-1,0.4-4.4,0.5-5.2c0.1-0.9-0.1-1.7-0.1-2.6c0-2,0.5-4,1.2-5.8c0.8-2.1,1.8-4,2.1-6.3
		c0.1-1.2,0.5-2.3,0.4-3.5c-0.1-0.7-0.5-1.2-0.7-1.8c-0.1-0.8,0.4-1.4,0.7-2.1c0.2-0.4,0.3-1,0.4-1.5c0.1-1.4-2.1-2.1-3.2-1.8
		c-1,0.2-1.8,0.6-2.6,1.3c-0.4,0.4-1.1,0.9-1.7,1c-0.4,0.1-1,0.1-1.4,0.1c-1,0-3.6-1.8-3.8-2.7c-0.1-0.5-0.1-0.9-0.7-1.3
		c-0.4-0.3-1.1-0.7-1.6-0.9c-0.4-0.1-0.8,0.1-1.3,0.3c-0.7,0.3-3,1-3.4,0.8c-0.4-0.2-0.7-0.8-1.3-1c-0.2-0.1-2.1,0-2.7-0.1
		c-1.2-0.2-1.6-1.3-2.3-2.2c-0.5-0.7-1.2-1.1-1.7-1.7c-0.4-0.5-0.7-1.3-1-1.9c-0.4-0.6-1-1.5-2-1.3c-1,0.2-1.8,1.1-2.9,1.2
		c-0.4,0.1-0.8,0.1-1.1-0.1c-0.4-0.2-0.5-1-0.9-1.1c-0.6-0.3-1.8,0.8-2.3,1c-0.9,0.4-2.1,0.7-2.9,0.7c-1,0.1-1.9-0.4-2.9-0.6
		c-0.9-0.2-1.7-0.8-2.6-0.6c-0.9,0.1-1.8,0.3-2.7,0.3c-1,0-1.8-0.1-2.6-0.5c-0.7-0.4-1.3-0.7-2.2-0.4c-0.6,0.1-1,0.7-1.5,1
		c-0.5,0.4-1.2,0.6-1.5,1.1c-0.6,0.7-1,1.5-1.8,2.2c-0.7,0.6-1.7,0.4-2.5,0.4c-0.9-0.1-1.3-0.5-1.7-1.3c-1-1.7-2.2-3.5-2.2-5.5
		c0-0.7,0.1-1.9-0.5-2.4c-0.6-0.4-1.4-0.5-2.1-0.8c-0.1,0-1.6-1.1-2.1-1.6c-0.5-0.5-0.4-1.5-0.4-2.2c0-1-0.6-1.8-1.6-2
		c-0.8-0.2-3.2-1.2-3.5-1.4c-0.4-0.3-0.4-0.4-0.4-1c0-1-3.5-5.6-3.9-6.3c-0.2-0.4-1.5-1-1.9-1.3c-0.4-0.3-1.1-2-1.5-2.3
		c-0.5-0.3-1.2-0.4-1.6-0.8c-0.3-0.3-1.7-2.7-2.3-3.5c-0.6-0.7-1.3-1.3-1.9-2c-0.4-0.5-1-1.5-1.9-1.2c-1.1,0.4-1.5,1.6-2.8,1.6
		c-1.3,0-2-0.7-2.9-1.4c-0.7-0.5-1.7-0.5-2.5-0.1c-0.7,0.4-1.3,1.3-2,1.5c-0.6,0.3-3.2,0.5-3.8,0.5c-1.3,0-1.5-0.5-2.1-1.5
		c-0.8-1.5-2.9-2.6-4.5-3.5c-1-0.5-3.6-2.9-4.1-3.3c-1.1-1-3.2-1.8-4.6-1.9c-1.8-0.1-3.7-0.4-5.4,0.1c-2,0.5-2.1,8.8-5.7,12.9
		c-0.2,0.3-0.7,0.5-1.1,0.7c-0.7,0.4-1.3,1.3-1.7,2c-0.4,0.7-1.8,3.8-1.9,4.6c-0.1,0.9-0.1,1.8-0.1,2.8c0,0.8,0.1,3.7-2.3,3.1
		c-0.7-0.1-3.5-1.8-3.9-2.6s-0.7-1.5-1-2.4c-0.4-1.1-1.1-2.3-1.3-3.5c-0.1-1,0.2-2-0.2-2.9c-0.4-0.9-1.5-1.3-2.1-2
		c-1.4-1.6-0.3-3.8-0.9-5.7c-0.5-1.8-4.2-5.1-4.6-5.4c-0.7-0.5-1.8-0.4-2.6-0.5c-1.3-0.2-2.7-0.7-4-0.5c-1.2,0.1-2.8,2.4-6.3,1.1
		c-0.6-0.2-1-0.6-1.7-0.7c-0.5-0.1-3.5,0.7-4.5,0.4c-0.9-0.3-2.9-2.6-3.4-2.7c-0.4-0.1-3.6,0.5-4.6,0.9c-0.7,0.2-2,1-2.2,1.8
		c-0.8,2.8,2,6.9,1.8,8c-0.3,1.7-10.8-1-12-1.1c-1-0.1-1.6-0.7-2.6-0.4c-0.4,0.1-0.6,0.4-0.9,0.6c-0.4,0.3-3.2,1-4,0.2
		c-0.9-0.8-4.9-1.1-5.9-1.3c-0.5-0.1-1-0.4-1.5-0.5c-1.7-0.4-2.7,1.5-3.5,2.7c-0.4,0.7-5.1,3.1-5.6,3.5c-0.5,0.5-1.7,3.2-2.1,3.4
		c-0.8,0.4-1.5,0.4-1.8,1.4c-0.2,1-0.1,2-0.2,3c-0.1,2.3-1.2,3.8-1.4,3.2c-0.7,0.4-6.4,1.9-6.5,2.4c-0.2,0.8-2.9,2.5-3.8,2.5
		c-2.4,0-4.5-1.5-6.9-1c-0.8,0.1-11.5,3.5-12.1,3.8c-1,0.4-1.5,1-1.8,2.1c-0.3,1.1-0.7,2.1-1.1,3.2c-0.4,0.9-1.1,1.2-1.9,1.8
		c-0.7,0.6-1.3,1.4-2.3,1.3c-0.2-0.1-1.3-0.7-1.3-0.7c-0.2-0.1-0.4-0.4-0.6-0.5c-0.8-0.7-1.8-1.1-2.7-1.6c-2.4-1.1-9.9-3.9-11-4.7
		c-0.8-0.6-1.4-1-2.5-0.7c-0.8,0.3-1.5,1.1-2.4,0.8c-0.5-0.1-0.7-0.6-1-1s-0.5-0.4-1-0.7c-0.8-0.4-1.7-0.1-2.5,0.1
		c-0.4,0.1-0.6,0.4-1,0.5c-0.4,0.1-1,0-1.3-0.1c-0.8-0.1-1.8,0-1.8-1c-0.1-1,0.1-2.1,0.1-3.2c-0.6-0.1-4.7-2.5-4.9-2.9
		c-0.2-0.7,4.1-4.3,4.8-4.7c0.7-0.5,0.5-1.3,0.7-2.1c0.1-1,1.4-3.5,1.7-4c0.7-1.3,1.3-2.6,2.1-3.8c0.1-0.3,0.6-1.9,0.6-2.3
		c0-0.9-0.6-4.1-0.9-4.9c-0.3-0.7-2.4-3.2-3.1-3.8c-0.7-0.6-8.2-4.3-9.3-4.7c-1.6-0.6-2.9-1-3.9-2.5c-0.5-0.8-1-1.8-1.9-2.4
		c-0.9-0.5-1.8,0-2.6,0.4c-0.9,0.4-2,1.1-2.8,0.4c-0.8-0.7-1.7-1.2-2.4-1.8c-0.7-0.7-1.8-0.7-2.8-1.1c-1-0.4,0.4-4.2-0.1-4.7
		c-0.9-0.8-1.6-1.5-2.1-2.6c-0.4-0.7-0.7-1.7-1.3-2.3c-0.8-0.8-1.9-1.5-2.9-2.2c-0.8-0.6-1.8-0.2-2.6,0c-1,0.3-2.3,0.2-3.4,0.2
		c-1.4-0.1-6.1-1.5-6.4-1.8c-0.7-0.4-1.7-1.1-2.6-1.3c-1.7-0.4-3.3-0.4-5-0.7c-1.8-0.2-3.5-0.7-5.4-0.6c-1.2,0.1-2.3,0.4-3.3,1
		c-0.9,0.4-1.7,1-2.7,0.7c-0.1-0.3-2.6-5.3-3.1-5.7c-0.4-0.4-1.3-0.7-1.9-0.7c-1-0.1-2.1,0.4-3.1,0.4c-0.9,0-1.9,0-2.7-0.2
		c-0.8-0.2-1.4-1-2.1-1.5c-0.5-0.3-1.2-0.4-1.8-0.6c-0.7-0.1-1.3-0.4-2-0.7c-1.5-0.6-3.2-0.3-4.7-0.7c-0.6-0.1-1.3-0.4-1.8-1
		c-0.4-0.6-0.2-1.5-0.2-2.1c0.1-0.4,0.1-0.6-0.1-0.9c-0.2-0.3-0.6-0.5-0.8-0.8c-0.5-0.5-1-1-1.5-1.6c-0.1-0.1-0.3-0.2-0.5-0.4
		c-0.4-0.2-1-0.3-1.4-0.4c-0.7-0.3-1.5-0.6-2.3-1c-1-0.4-1.6-1-2.3-1.7c-0.5-0.6-1-1.3-1.6-1.7c-0.7-0.4-1.8-0.1-2.5-0.4
		c-0.8-0.3-1.7-1.3-2.1-2c-1.5-0.2-2.6-0.8-3.5-1.9c-0.4-0.5-1-1-1.2-1.7c-0.1-0.5-0.4-1-0.4-1.6c-0.2-1.5-1.1-3-2-4.3
		c-0.4-0.7-0.8-1.3-0.7-2.1c0.1-0.8,0.9-1.3,1.5-1.8c0.7-0.5,1.3-0.8,1.5-1.7c0.4-1.1-0.4-1.3-1.3-1.8c-0.7-0.4-1.3-1.1-1.9-1.6
		c-0.7-0.6-1.5-1-2.4-1.4c-0.8-0.3-1.7-0.4-2.6-0.6c-1-0.2-1.8-0.4-2.9-0.7c-1-0.1-1.9-0.1-2.9-0.3c-1-0.1-1.4-0.5-1.8-1.4
		c-0.4-0.8-0.5-1.8-0.8-2.6c-0.3-1-0.7-1.2-1.4-1.8c-0.6-0.5-1.3-0.7-2.1-0.8c-0.6-0.1-1.2-0.1-1.8-0.1c-0.7-0.1-1.3,0.1-1.5-0.7
		c-0.2-0.5-0.1-1.3-0.5-1.7c-0.4-0.3-1.3-0.3-1.7-0.4c-0.5-0.1-1-0.4-1.4-0.6c-0.8-0.2-1.8-0.2-2.6-0.1c-1,0.2-1.7,1-2.8,0.9
		c-0.7-0.1-1.5-0.5-2-1c-0.7-0.7-1.4-1-2.1-1.5c-1.6-1.1-3.7-1-5.6-0.8c-1.1,0.1-2,0.7-2.9,1.3c-0.4,0.3-0.9,0.7-1.3,1
		c-0.4,0.4-0.6,0.4-1.2,0.4c-1-0.1-1.8-0.8-2.9-0.6c-1.1,0.1-0.8,1-0.7,1.8c0.2,1.5,1.3,3.8,0.2,5.2c-0.6,0.7-1.1,1.2-2.1,1
		c-0.8-0.1-1.5-0.4-2.3-0.8c-0.8-0.4-1.7-0.8-2.4-1.3c-1.1-0.7-2.4-1-3.6-1.5c-2.5-1-4.9-1.7-7.4-2.2c-0.8-0.1-1.5-0.5-2.1-1.2
		c-0.5-0.7-0.5-1.3-0.7-2c-0.2-1-2.3-1.3-3.2-1.7c-1.3-0.5-2.6-0.9-4-1.3c-0.9-0.3-2-0.5-2.7-1.1c-0.7-0.4-1.3-1.5-1.8-2.1
		c-0.5-0.7-0.4-1.4-0.4-2.3c0-1,0-1.7-0.4-2.5c-0.3-0.7-0.8-1.3-1.5-1.7c-0.9-0.5-2.3,0.3-3.1,0.7c-1.1,0.5-2.1,1.3-3.4,1.2
		c-0.7,0-1-0.4-1.5-0.5c-0.4-0.1-1.1-0.1-1.5,0c-0.8,0.1-1.6,0.7-2.4,1c-0.5,0.2-0.8,0.3-1.3,0.8c-0.4,0.4-0.7,0.9-0.9,1.4
		c-0.2,0.4-0.1,0.9-0.2,1.3c-0.3,0.7-1.6,1.1-2.4,1.1c-0.8,0-2-0.4-2.9-0.1c-0.4,0.2-0.8,0.9-1.2,1.3c-0.4,0.5-1.1,0.9-1.8,1.1
		c-1,0.3-2.6,0.8-3.6,0.5c-1-0.2-0.7-2.4-1-3.2c-0.5-1-2-1.8-3-1.8c-1.1-0.1-1.9,0.4-2.8,0.7c-0.6,0.2-1.1,0.5-1.6,0.9
		c-0.4,0.2-0.7,0.8-1.2,1c-0.9,0.3-2.2-0.7-3.1-1c-0.9-0.2-2-0.1-2.8,0.1c-0.4,0.1-1.3,0.7-1.3,0.7l-1.5,0.4c-0.7,0-1.3-0.4-2-0.5
		c-0.8-0.1-1.9-0.1-2.6,0.2c-0.7,0.2-5.5,3.6-6.3,4.1c-2,1.3-3.2-3.4-9-3.2c-1.2,0-1.7,0.7-2.6,1.3c-0.8,0.6-4-0.4-4.6-1
		c-1.4-1.3-3.6-0.8-5.3-1.6c-0.4-1.3-1.3-3.3-2.4-4c-1-0.6-2.4-0.1-3.2,0.5C11.2,79,10,81,9.9,81.8c-0.7,4.5-4.9,3.5-6,3.5
		c-1,0-3.8-2.6-4-2.9s-2.8,0-3.9-0.1c-1-0.1-2.2-0.1-2.9-1c-0.5-0.7-0.6-1.6-1.3-2.3c-0.5-0.5-4,1-4.7,1.5c-1,0.6-3.3,0.4-3.6-0.1
		c-0.4-0.5-0.7-0.7-1.3-1c-0.8-0.3-3.5-1.2-3.9-1c-0.4,0.1-1,2.2-1.3,2.4c-0.2,0.2-3.4-2-4-2.4c-0.7-0.5-1.9-0.5-2.8-0.7
		c-1-0.2-3.3-3.7-4.1-4.3c-0.4-0.3-5.1-2.3-6.4-2.9c-1.3-0.7-1.8-1.4-2.6-2.6c-0.7-1-1.2-1.3-2.3-1.5c-1.3-0.4-2.8-0.3-4-0.9
		c-1-0.4-1.8-1.1-2.4-1.9c-1.3-1.5-1.9-7.4-2.1-8.2c-0.1-1-2.6-2.6-3.1-2.6c-0.4-0.1-2.1,0.8-2.5,0.8c-0.4,0.1-1.8-1.1-2.4-1
		c-0.4,0.1-1,0.2-1.3,0.6c-0.4,0.4-3.4,3.8-4.1,4c-0.5,0.2-4.2-0.5-4.4-1.3c-0.1-0.4,0-0.8-0.1-1.2c-0.2-0.4-0.7-0.7-1.2-0.8
		c-1.1-0.4-2.2-0.4-3.3-0.7c-0.9-0.3-4.3-2.1-5-2.6c-1.4-1-12.3-4-13.7-4.4c-0.7-0.2-1.7-0.2-2.4,0.1c-1,0.4-1.6,1.5-2.4,2
		c-0.7,0.4-1.8,0.3-2.6,0.4c-1.8,0.1-3.8-0.1-5.4-0.9c-1-0.4-0.2-4.5-1-4.6c-0.5-0.2-8.2-4.9-9.2-4.3c-0.4,0.2-4.5,2.6-5.6,2.2
		c-0.8-0.3-5.4-6.4-5.8-6.8c-0.5-0.4-2.1-4.2-2.2-4.5c-0.2-0.5-10.4-3.8-11.5-4.3c-1.3-0.6-2.7-0.7-4-1.3c-1.2-0.4-7.2-4.6-8.2-4.6
		c-1.2,0-5.1-1.2-5.7-1.8c-0.4-0.4-1-2.5-1.2-2.8c-0.5-0.6-2.1-0.3-2.8-0.2c-1.1,0.1-10.4,6.8-10.9,7c-0.4,0.1-7-1.3-8.2-1.6
		c-1-0.2-3.5-2.4-4.1-2.9c-0.7-0.5-1.7-0.4-2.6-0.4c-0.6,0-4.4-2.3-5.3-2.3c-0.9,0-1.7,0.8-2.3,1.4c-1.5,1.3-6.5,0.7-7.2,0.4
		c-0.5-0.3-1-0.7-1.7-0.7c-0.8,0-3.5-1.4-3.7-2c-0.3-0.7-4-0.9-5.1-0.9c-1,0-4.6-3.4-5-3.8c-0.4-0.4-3.5,0.2-4.4,0.7
		c-0.9,0.5-4.7,1.1-5.7,1.1c-1,0-5,0.6-6.1,0.7c-0.4,0.1-1.8,0.5-2.1,0.6c-1.1,0.4-2.4,0.1-3.5,0.2c-0.6,0-1.3,0.3-1.9,0.6
		c-0.7,0.4-0.6,1-0.6,1.9c0,2.3-1.3,4-3,5.6c-1.7,1.5-4,7.2-5.2,9s-0.1,2.9-3,7.6c-2.9,4.8-2.6,11.1-2.6,11.1
		c2.5,0.6,8.7,1.6,8.7,1.6c4.3,0.4,9,4.8,12.8,7.1s9.5,3.5,13.6,6.5s4.8,20.4,4.1,22.9c-0.7,2.5,6.8,6.5,8.7,8.1
		c1.9,1.6,3.4-2.2,4.9-3.8c1.5-1.5,6.8,0.8,7.7,2c1,1.2,4.1,1.1,6,2.6c1.9,1.5,3.1,0.8,5.3,0.2c2.9-0.4,9.5,7.6,10.9,9.2
		c1.3,1.5,5.8,0.3,9.8,0.3c4,0,3.6,0.7,6.2,2c2.6,1.3,5.1-0.3,7.1-0.5c2.1-0.2,7.6,0.9,10.7,0.7c3.1-0.1,5.1,0.9,7.1,1.3
		c1.8,0.4,6.8,6.5,7.5,8.2s6.5,7.3,7.8,9c1.3,1.7,2.4,0.9,2.9,0.1c0.4-0.9,2.8-1.1,3.8-1.1s1.5-0.4,3.3-0.7
		c1.8-0.3,6.4,10.8,7.7,13.8c1.3,2.9,1.8,8.8,2.5,10.9c0.7,2.1,0.4,5.2,1.8,6.5c1.3,1.3,3.7,4.9,5.9,8.2c2.2,3.2,6.7-1.8,9.3-1.7
		c2.6,0.1,9.9,3.2,11.8,4.7c1.9,1.5,6.3,2.1,8.9,2.6c2.6,0.4,4.2,0.8,7.2,3.7s1.3,1.3,3.5,2c2.3,0.7,4.7,8.2,5.7,11.6
		c1,3.5,3.4,10.9,3.8,12.9s1.3,3.7,1.7,6.8s2.7,10.9,2.9,13.4c0.1,2.5,0.7,13.7,1,15.4c0.1,1,0,2.4,1.3,4.7l-0.4-0.7
		c0,0,0.9,1.3,0.7,1.4c0.8,1.1,1.9,2.5,3.6,4.2c5.6,5.6,6.2,16,7.5,19.1c1.3,3.1,1.8,6,2.3,8.3c0.5,2.3-1.1,5.3-2.1,7.3
		c-1,1.9,1.1,3.8,2.9,5.4c1.9,1.7,0.6,6.5,0.8,9c0.3,2.6,3.5,4,5.2,5.2c1.8,1.1,1.6,2.8,3.2,5.8c0.1,0.3,0.3,0.6,0.4,1
		c1.3,2.8,2.4,5.8,3.8,7.7c1.5,2.2,2.2,5.9,3.1,7.7c0.7,1.5,1.1,10.2,1.5,15.4c0.1,1.4,0.1,2.5,0.3,3.2c0.4,3.3-0.3,13.5-0.7,16.9
		s-2.4,7.4-3.5,9.3c-1,1.9-2.9,8.2-4.6,11.3c-1.8,3.1-1.8,4.1-4.2,7.6s-4.4,1.8-5.5,0.7s-8.7,7.3-9.9,9.3c-1.2,2-1.1,7.6-1.2,10.4
		c0,2.8-3.5,6.8-3.5,6.8s1.3,0.6,5.1,1.8c3.8,1.2,7.4,4.3,9.6,5.9c2.2,1.7,5.4-0.7,8.2-1.6c2.8-0.8,1.5,1.8,1.5,3.3
		c0,1.5,3.5,1,5.6,1c2.1,0.1,8.9,4.3,9.9,5.9s2.9-0.6,3.5-1.5c0.5-0.9,2.1-1.6,4-2.2s1.5-2.8,3-4.7c1.6-1.9,6.4-5.5,9.3-7
		c2.9-1.5,4.9,2.8,6.1,2.7c1.2-0.1,3.1,0.5,5.5,2.4c2.4,1.9,4.5-1.7,6.3-3c1.8-1.3,5.4,0.7,7,1.1c1.5,0.4,3.2-0.3,5.4-1.4
		c2.1-1.1,4.3,1,5.6,2.7c1.3,1.7,2.2,0.2,4.4,0.7c2.3,0.4,4.8-0.1,6.5-0.1c1.8,0,4.1,1.7,4.9,3.5c0.7,1.8,6.8,2.6,9.9,2.5
		c3.2-0.1,6,2,8.2,4.1c2.2,2.1,6.8-0.3,9.9-0.5c2.9-0.2,1.9-1.6,1-2.8c-0.9-1.3,0.4-4,2.1-5.4c1.7-1.4,4.3-4,5-5.4
		c0.7-1.4,1.3-4.9,1.8-8.2c0.3-2.3,2.4-3.2,4.4-3.9c1-0.4,2-0.7,2.8-1.1c2.4-1.3,9.1-2,12.9-3c3.8-1,5.7,2.4,8.7,3.7
		s4.3-1.3,7.2-1.5c2.9-0.1,1.2,3.3-0.1,5.4c-1.3,2.1-0.4,1.5-0.3,3.8c0.1,2.1-3.9,2.8-3.2,5.3s4.3,6.3,6.5,7.8
		c2.3,1.5,3.9-4.7,5.6-5.7c1.7-0.9,2.3,2.6,4,4.8c1.8,2.3,5.8,3.9,7.4,4.9c1.6,1,2,3.5,3.5,5.9c1.5,2.4,2.8,5.1,5.3,8.3
		c2.5,3.2,5.4,2.3,9,3.9s5,7.1,6.8,8.4c1.9,1.3,3.5,1.3,7,2.1c3.5,0.7,1.5,3.5,0.2,4.9c-1.3,1.4-6.8,3.2-7.4,5.4
		c-0.4,2.3,4.6,0.6,8,0.6c3.4-0.1,5.9,10.7,7.3,13.7c1.3,3,15.8-4,19.3-4.2c3.5-0.1,5.7,3.5,8.4,4.4c2.6,0.9,4.9,6.3,5.5,9.7
		c0.7,3.5,6.6-1,10.7-2.8c4.2-1.8,10.4,2.7,12.5,3.8c2.2,1.1,3-0.5,5.9-1.6c2.9-1.1,5.1,1.9,7.4,3.5c2.3,1.6,4.7-0.1,6.4-1.5
		c1.7-1.3,5.6-5.4,9-7c3.4-1.6,9.9-1.4,11.8-1.7c1.5-0.1,4.3,0.7,6.5,1.5c0.6,0.2,1.2,0.4,1.6,0.6c2.1,0.7,4.1-0.7,5.1-2.4
		c1-1.8,4.1-1,7.1-3.3s8.4-0.3,13.4-0.2c5,0.1,5.3-6.9,4.7-9.6c-0.5-2.6,2.2-1,4.2,0.1c2,1.2,3.3-0.4,4.7-0.8
		c1.3-0.4,1.6,2.6,2.3,4.3c0.7,1.8,3.4,0.2,4.8-0.1c1.4-0.4,1.6,0.1,3.6,1.7c2,1.5,2.6-1.3,4.3-4c1.7-2.8,12.8,6.3,18.2,9.2
		c5.4,2.9,8.6-3.8,9.8-6.5s0.7,1,1.3,3.1c0.7,2.1,2.6-0.1,4.9-1.8c2.4-1.7,1.4,0.1,2.1,1.8c0.7,1.7,3.5-2.8,3.7-4.7
		c0.3-1.9,3-1.6,4.9-1.7c1.8,0,2.6,0.8,3.8,2.6c1.3,1.8,1.7,1,3.5,0c1.8-1,2,1.1,3.5,2.5c1.5,1.3,4.7-1.4,9-2.5
		c4.3-1.2,6.3,1.7,10.8,2.9c4.5,1.2-0.3-2.7-3.6-4c-3.3-1.4-4.9-5.3-5.1-7.5c-0.2-2.2,0.4-1.1,2-4.9c1.6-3.8,3.9,1.5,6.7,3.2
		c2.7,1.6,7.4,3.1,10.7,3.4c3.5,0.3,3.5-3.1,5.5-5.7c2-2.6,9-5.1,11.7-6.3c2.7-1.3,6.3-3.4,9.2-5.7c2.9-2.3,5.3-7.7,6.8-9.5
		c1.5-1.8,3.8-1.7,6.8-4c3-2.3,5.5-4.2,6.7-6.5c1-1.9,4-2.6,6.3-2.8c0.4-0.1,0.7-0.1,1.1-0.1c2.1-0.1,7.1,3.7,11.6,6.5
		c4.6,2.9,6.3-1.8,8-3.6s5.5,2.9,7.6,5.1c2,2.1,5.2,1.5,7.9,2.6c2.7,1,3.8,4.3,5.1,6.3c1.3,2,1.9,0.7,6.6,0.7
		c4.6,0.1,4.6,1.3,6.6,2.6c2,1.4,2.9-0.6,4-1.1c1-0.5,2.7,0.3,4.4,2.6c1.8,2.3-1.5,2.1-3.5,2.6c-2,0.6-2.3,2.9-3.1,4.3
		c-0.8,1.3,1.2,5.8,2.4,8.2c1.1,2.4,9.4,6.5,13.4,9c4,2.4,5.4,1.6,8.9,1.8c3.6,0.2,8.8,5.3,11.5,7.1c2.7,1.8,3.8,0.7,8.2,0.4
		c4.4-0.4,9.3,0.2,12.6,0.6c3.3,0.4,3.2-2.6,4.9-4.7c1.7-2.1,2.7,1,3.7,2.6c1,1.6,2,0.9,5.7,0.8c3.8,0,5.1,1.2,7.9,2.2
		s2.8,3.7,4.1,6.3c1.3,2.6,10.5,7.4,13,9.9c2.5,2.4,7.9-2.1,7.9-2.1c1.2-0.8,4.6-0.6,5.3-0.6c0.7,0,3.6,4.6,4,5.6
		c0.4,1,5.2,4,5.6,3.8c0.3-0.1,4.3-5.9,4.6-7c0.1-0.9,0.4-1.8,0.8-2.6c0.6-1,4.1-3.5,5.2-3.5c0.8,0.1,3.5,3.1,4.4,3.9
		c0.6,0.6,3.9,1,4.3,0.6c0.2-0.3,1.7-4.6,2.1-5.4c0.1-0.3,0.6-1.7,0.6-1.9c0-0.4,0-0.9,0.1-1.4c0.1-0.4,0.2-0.8,0.4-1.3
		c0.1-0.4,0.4-0.7,0.5-1c0.3-0.8,1-4.6,1-5c-0.1-0.7-0.5-3.3-0.4-3.9c0.1-0.3,2.7-4.9,3.1-5.4c0.2-0.2,0.5-0.4,0.7-0.6
		c0.4-0.4,0.5-0.7,0.5-1.3c0-0.7-0.2-1.4,0.1-2.1c0.1-0.5,4-5.1,4.1-5.4c0.4-0.5,1.1-1.4,1.2-2.1
		C716.4,457.9,716.1,457.3,715.3,456.9z"/>
</g>
</svg>
