<?xml version="1.0" encoding="utf-8"?>
<!-- Generator: Adobe Illustrator 22.1.0, SVG Export Plug-In . SVG Version: 6.00 Build 0)  -->
<svg version="1.1" xmlns="http://www.w3.org/2000/svg" xmlns:xlink="http://www.w3.org/1686868/xlink" x="0px" y="0px"
	 viewBox="0 0 1200 240" style="enable-background:new 0 0 1200 240;" xml:space="preserve">
<style type="text/css">
	.st0{display:none;}
	.st1{display:inline;}
	.st2{opacity:0.5;fill:#D9E8F5;}
	.st3{opacity:0.5;}
	.st4{fill:#D9E8F5;}
	.st5{opacity:0.31;}
	.st6{fill:#F2F2F2;}
	.st7{fill:#FFFFFF;}
	.st8{display:inline;fill:#FFFFFF;}
	.st9{display:inline;opacity:0.5;}
</style>
<g id="Слой_1" class="st0">
	
		<image style="display:inline;overflow:visible;" width="769" height="155" xlink:href="20358EC2.jpg"  transform="matrix(1.5605 0 0 1.5605 0 0)">
	</image>
	<g class="st1">
		<path class="st2" d="M968.7,209.2c0,0.3-0.3,0.7-0.5,0.9c-0.1,0.1-1.7,2.1-1.8,2.4c-0.1,0.3,0,0.6,0,0.9c0,0.3,0,0.4-0.2,0.6
			c-0.1,0.1-0.2,0.2-0.3,0.3c-0.2,0.2-1.4,2.2-1.4,2.4c-0.1,0.3,0.1,1.4,0.2,1.7c0,0.2-0.3,1.8-0.4,2.2c-0.1,0.1-0.2,0.3-0.2,0.4
			c-0.1,0.2-0.1,0.4-0.2,0.5c-0.1,0.2,0,0.4,0,0.6c0,0.1-0.2,0.7-0.3,0.8c-0.2,0.4-0.8,2.2-0.9,2.4c-0.1,0.2-1.6,0-1.9-0.3
			c-0.4-0.4-1.6-1.7-1.9-1.7c-0.5,0-2,1.1-2.3,1.5c-0.2,0.4-0.3,0.7-0.4,1.1c-0.1,0.5-1.9,3-2,3.1c-0.2,0.1-2.3-1.3-2.5-1.7
			c-0.2-0.4-1.4-2.5-1.8-2.5c-0.3,0-1.8-0.1-2.4,0.2c0,0-2.4,2-3.5,0.9c-1.1-1.1-5.1-3.2-5.7-4.3c-0.6-1.1-0.6-2.3-1.8-2.7
			c-1.2-0.4-1.8-1-3.5-1c-1.7,0-2.1,0.3-2.5-0.4c-0.4-0.7-0.9-2.1-1.6-1.2c-0.8,0.9-0.7,2.2-2.1,2.1c-1.5-0.2-3.6-0.4-5.6-0.3
			c-1.9,0.1-2.4,0.6-3.6-0.2c-1.2-0.8-3.5-3-5.1-3.1c-1.6-0.1-2.2,0.2-3.9-0.8c-1.8-1.1-5.4-2.9-5.9-4c-0.5-1-1.4-3-1-3.6
			c0.4-0.6,0.5-1.7,1.4-1.9c0.9-0.2,2.3-0.2,1.5-1.2c-0.8-1-1.5-1.4-2-1.1c-0.5,0.2-0.9,1.1-1.7,0.5c-0.9-0.6-0.8-1.1-2.9-1.1
			c-2.1,0-2.3,0.6-2.9-0.3c-0.6-0.9-1-2.3-2.2-2.8c-1.2-0.4-2.6-0.2-3.5-1.1c-0.9-1-2.5-3-3.3-2.2c-0.8,0.8-1.5,2.9-3.5,1.6
			c-2-1.3-4.2-2.9-5.1-2.9c-0.1,0-0.3,0-0.5,0c0,0,0.5-0.8,0.2-1.4c-0.3-0.6-0.9-1.2-0.4-1.4c0.5-0.2,1.6-0.5,0.9-1.1
			c-0.7-0.6-4.1-3.5-4.4-3.3c-0.3,0.3-1,0.8-1.5,0.2c-0.5-0.6-0.9-1.7-1.8-2.3c-0.9-0.6-1.4-0.7-1.3-1.2c0-0.4-0.3-2.5,0.3-2.7
			c0.6-0.3,2.3-2,1.8-2.6c-0.6-0.6-1.2-2-1.2-2.9c-0.1-0.9,0.1-1.5,0.6-1.4c0.5,0.1,1.6-0.4,0.6-1.1c-1-0.7-0.9-1.2-1.2-1.6
			c-0.3-0.4-1.3-0.4-1.3-1.2c0-0.8,0.8-1.5,0.4-2.2c-0.4-0.7-1.6-1.2-1.8-0.3c-0.2,0.9-1,2.3-1.6,1.2c-0.7-1.2-1.5-2.3-2-4.4
			c-0.5-2.2-0.5-3.1-1.3-3.2c-0.3,0-0.7-0.1-1.2-0.1c0.2-0.7,0.4-1.5,0.6-1.9c0.3-0.5-1.6-1.4-2.3-2.2c-0.7-0.8,0.1-1,1-0.9
			c0.9,0,0.4-0.7,2.5-1.4c2.1-0.7,2.8,1.2,3.8,1.9c1,0.7,1-0.2,1.3-0.6c0.3-0.3,0.6-0.6,1.8-0.5c1.2,0,0.6-1.6-0.1-2.4
			c-0.7-0.8-1.3-0.8-1.9-0.5c-0.6,0.3-0.8-0.2-1.5-0.7c-0.6-0.6-1.1-0.4-2.4-0.3c-1.2,0.1-0.9-0.3-1-0.6c-0.1-0.3-0.4-0.7-1.2-1.3
			c-0.8-0.6,0.8-2.8,1.6-3.3c0.8-0.5-0.1-1.4-1.2-1.7c-1.1-0.3-0.7-1-1.2-2.3c-0.4-1.3,0-1.6,1-2.3c1-0.8-0.1-0.8-0.9-1.3
			c-0.8-0.5-0.9-0.5-1.1-1.2c-0.1-0.7,1.1-1.3,2-1.4c0.8-0.1,0.4-2,0.2-2.4c-0.1-0.4,0.2-0.9,0.6-1.3c0.3-0.4,0.3-3,0.6-4.2
			c0.2-1.2,0.3-1.6,1.3-2.6c1-1,0.3-0.6,0.1-1.7c-0.3-1,0.5-1.6,1.7-1.5c1.2,0.1,0.8-1.2,1.2-2c0.4-0.8,2.6-1.3,4.2-1.7
			c1.7-0.3-0.3-4.5-0.6-4.7c-0.3-0.3-0.6-0.6-0.2-1c0.4-0.5-0.1-0.6-0.4-2.2c-0.3-1.5,1.2-1.6,2.6-2.7c1.4-1.1,1.1-4.9,0.9-5.5
			c-0.2-0.6-0.2-0.9,0.6-1.7c0.8-0.8,1.2-3.4,1.2-3.4c0.3,0.1,0.7,0.2,0.9,0.4c0.3,0.2,0.2,0.7,0.2,1.1c0,0.9,0.6,1.7,1,2.4
			c0.2,0.3,0.4,0.5,0.8,0.6c0.4,0,0.8,0.1,1.1-0.2c0.3-0.3,0.5-0.6,0.8-1c0.2-0.2,0.5-0.3,0.7-0.5c0.2-0.1,0.4-0.4,0.7-0.5
			c0.4-0.1,0.7,0,1,0.2c0.4,0.2,0.7,0.2,1.1,0.2c0.4,0,0.8,0,1.2-0.1c0.4-0.1,0.8,0.2,1.2,0.3c0.4,0.1,0.8,0.3,1.3,0.3
			c0.4,0,0.9-0.1,1.3-0.3c0.3-0.1,0.7-0.6,1-0.5c0.2,0.1,0.2,0.4,0.4,0.5c0.1,0.1,0.3,0.1,0.5,0.1c0.5-0.1,0.8-0.4,1.3-0.5
			c0.4-0.1,0.7,0.3,0.9,0.6c0.2,0.3,0.3,0.6,0.5,0.9c0.2,0.3,0.5,0.5,0.7,0.8c0.3,0.4,0.5,0.9,1,1c0.3,0.1,1.1,0,1.2,0.1
			c0.2,0.1,0.3,0.4,0.5,0.5c0.2,0.1,1.2-0.3,1.5-0.4c0.2-0.1,0.3-0.2,0.6-0.1c0.2,0.1,0.5,0.3,0.7,0.4c0.2,0.1,0.3,0.3,0.3,0.5
			c0.1,0.4,1.2,1.2,1.7,1.2c0.2,0,0.4,0,0.6,0c0.3-0.1,0.5-0.3,0.7-0.5c0.3-0.3,0.7-0.5,1.2-0.6c0.5-0.1,1.5,0.2,1.4,0.8
			c0,0.2,0,0.5-0.1,0.7c-0.1,0.3-0.4,0.6-0.3,0.9c0,0.3,0.2,0.5,0.3,0.8c0.1,0.6-0.1,1-0.2,1.6c-0.1,0.9-0.6,1.9-0.9,2.8
			c-0.3,0.8-0.5,1.7-0.5,2.6c0,0.4,0.1,0.8,0,1.1c0,0.3-0.3,1.9-0.2,2.3c0,0.2,0.2,0.3,0.3,0.5c0.1,0.2-0.2,2.3-0.2,2.5
			c-0.1,0.2-0.1,0.5-0.2,0.6c-0.2,0.3-0.7,0.4-1,0.3c-0.4-0.1-0.6-0.4-1.1-0.4c-0.4,0-0.7,0.4-0.9,0.7c-0.2,0.3-0.3,0.6-0.7,0.6
			c-0.5,0-0.8-0.2-1.2-0.4c-0.3-0.1-0.7-0.1-1,0c-0.3,0.2-0.2,0.7-0.2,1.1c0,0.4,0,0.8-0.1,1.1c-0.1,0.4-1.5,1.4-1.7,1.7
			c-0.2,0.4-0.3,0.9-0.3,1.5c0,0.4,0.4,0.7,0.6,1.1c0.2,0.3,0.6,0.6,1,0.8c0.3,0.2,0.6,0.2,0.9,0.3c0.4,0.2,5.7,2.9,6.1,3.8
			c0.1,0.1,0.1,0.8,0.1,1c0,0.2,0.9,1.4,1,1.5c0.2,0.1,1.4,1,1.4,1.2c0.1,0.2,1.4-0.1,1.6-0.1c0.3,0,1,0.4,1.2,0.5
			c0.3,0,1.6-0.4,2.1-0.3c0.5,0.1,2.5,0.2,2.9,0.4c0.3,0.1,0.6,0.6,0.6,0.9c0,0.2,0,1-0.1,1.2c-0.1,0.3,0,1.6,0.2,1.6
			c0.2,0.1,0.4-0.1,0.7,0c0.2,0.1,1.6,3,1.9,2.7c0.2-0.1,0.8-0.6,1-0.7c0.4-0.2,0.7-0.6,1-0.8c0.3-0.2,0.8-0.2,1.2-0.1
			c0.4,0,0.8,0.3,1.1,0.5c0.3,0.3,0.2,0.8,0.3,1.2c0.2,0.3,2.9-1.1,3.5-1c0.8,0.2,0.2,1.3,0.1,1.8c0,0.2-0.1,0.6,0,0.9
			c0.2,1.4,1.8,1,2.1,0.6c0.4-0.4,1.7-1,1.8-0.9c0.2,0.1,0.3,0.6,0.4,0.8c0.2,0.5,1.8-0.4,2.2-0.7c0.4-0.4,1-0.4,1.6-0.6
			c0.4-0.1,0.9-0.2,1.3,0c0.6,0.3,1.7,0.7,1.5,1.6c-0.1,0.4-0.6,0.5-0.5,0.9c0,0.4,1.3,1.3,1.6,1.4c0.4,0.2,1.9,2.2,2.8,2.4
			c0.6,0.1,1.3,0.1,1.6-0.4c0.4-0.2,0.8,0,1.2,0.3c0.4,0.2,2.1,0.4,2.5,0.5c0.4,0.1,0.6,0.7,0.8,1.1c0.1,0.2,0.4,1.3,0.4,1.5
			c0.3,2.5-0.4,3.7-0.4,4.1c-0.1,0.4-0.4,0.5-0.7,0.8c-0.3,0.3-1.9,2.1-2.5,2.6c-0.4,0.3-0.8,0.6-1.2,0.9c-0.3,0.1-1.1,1-1.3,1.2
			c-0.2,0.3-0.8,1.4-1.1,1.6c-0.3,0.3-0.8,0.5-1.2,0.7c-0.4,0.1-0.6,0-0.9-0.2c-0.4-0.1-0.8-0.1-1.1,0c-0.4,0.1-1,1.4-1.4,1.4
			c-0.4,0-0.8-0.3-1.1-0.5c-0.4-0.2-1.4,0.9-1.4,1.3c0,0.2,0,0.5,0,0.7c0,0.2,0.1,1.2,0.2,1.6c0.1,0.2-0.3,2.3,0.1,3.4
			c0.1,0.3,0.2,0.5,0.3,0.7c0.1,0.3,0.2,0.6,0.3,1c0.1,0.3,0.2,0.6,0.2,1c0,0.2-0.2,0.4-0.1,0.7c0.1,0.1,0.1,0.3,0.2,0.4
			c0.1,0.2,1.8,1.7,2.1,1.7c0.3,0,1-0.9,1.2-1.1c0.3-0.2,0.5-0.3,0.9-0.3c0.3,0.1,0.7,0.4,0.9,0.7c0.2,0.3,1.1,1,1.3,0.9
			c0.3-0.1,0.6-0.3,1-0.3c0.4,0,0.8,0,1.1,0.2c0.3,0.2,0.4,0.7,0.5,1.1c0,0.2,0,0.4,0.1,0.6c0,0.2,0.5,1,0.6,1.3
			c0.1,0.3,0,0.6-0.1,0.8c-0.1,0.2-0.4,0.3-0.5,0.5c-0.1,0.2-0.2,0.4-0.3,0.6c-0.1,0.4-0.2,0.9,0,1.3c0.1,0.3,0.9,1.4,1.1,1.7
			c0.5,0.5,0.5,1.1,0.7,1.8c0.1,0.3,0.4,1.5,0.6,1.7c0.4,0.6,1.3,0.8,2,0.9c0.3,0,1.3,0.6,1.5,0.8c0.2,0.2,0.3,0.4,0.4,0.7
			c0.1,0.3,1.3,0.8,1.6,1c0.2,0.1,0.7,0.5,0.8,0.5c0.2,0.1,1.3,0.9,1.6,1.3c0.3,0.4,8,3.5,8.5,3.7c0.4,0.1,0.7,0.2,1,0.4
			c1,0.7,1.1,1.6,1.4,1.9c0.2,0.2,0.7,1.5,0.8,1.7c0.1,0.2,0.9,0.8,1,0.9c0.1,0.1,0.6,0.8,0.6,0.9c0.1,0.3,0.2,0.7,0.2,1
			c0,0.4-0.1,0.6,0.1,0.9c0.2,0.3,1.9,1.1,2.3,1.3C968.7,208.6,968.8,208.8,968.7,209.2z"/>
		<path class="st2" d="M875.4,97.4c0,0-0.3,2.7-1.2,3.4c-0.8,0.8-0.8,1.1-0.6,1.7c0.2,0.6,0.6,4.3-0.9,5.5c-1.4,1.1-2.8,1.2-2.6,2.7
			c0.3,1.5,0.8,1.7,0.4,2.2c-0.4,0.5-0.1,0.8,0.2,1c0.3,0.3,2.2,4.4,0.6,4.7c-1.7,0.3-3.8,0.8-4.2,1.7c-0.4,0.8,0,2-1.2,2
			c-1.2-0.1-1.9,0.5-1.7,1.5c0.3,1,0.9,0.7-0.1,1.7c-1,1-1.1,1.4-1.3,2.6c-0.2,1.2-0.2,3.8-0.6,4.2c-0.3,0.4-0.7,0.8-0.6,1.3
			c0.1,0.4,0.6,2.4-0.2,2.4c-0.8,0.1-2.1,0.6-2,1.4c0.1,0.7,0.3,0.7,1.1,1.2c0.8,0.5,1.8,0.6,0.9,1.3c-1,0.8-1.4,1-1,2.3
			c0.4,1.3,0.1,1.9,1.2,2.3c1.1,0.3,1.9,1.2,1.2,1.7c-0.8,0.5-2.4,2.7-1.6,3.3c0.8,0.6,1,1,1.2,1.3c0.1,0.3-0.2,0.7,1,0.6
			c1.3-0.1,1.7-0.2,2.4,0.3c0.6,0.6,0.8,1,1.5,0.7c0.6-0.3,1.2-0.3,1.9,0.5c0.7,0.8,1.3,2.4,0.1,2.4c-1.2,0-1.5,0.2-1.8,0.5
			c-0.3,0.3-0.2,1.2-1.3,0.6c-1-0.7-1.7-2.6-3.8-1.9c-2.1,0.7-1.7,1.5-2.5,1.4c-0.9,0-1.7,0.1-1,0.9c0.7,0.8,2.6,1.7,2.3,2.2
			c-0.2,0.3-0.5,1.2-0.6,1.9c-0.9-0.1-2.1-0.1-2.6-0.3c-0.8-0.3-3.2-1.2-3.9-0.6c-0.8,0.6-1.9,1-2,1.4c-0.1,0.4,0.2,1.1-0.5,0.7
			c-0.8-0.4-1.6-0.8-1.9-0.6c-0.3,0.2-0.6,0.7,0.2,1c0.8,0.3,1.9,0.9,1,1.6c-0.8,0.7-1,0.6-1.1,1.4c-0.1,0.9-0.8,2.7-1.5,2.9
			c-0.1,0-0.1,0-0.2,0c0,0-0.1,0-0.1,0c-0.5,0-0.9-0.5-1.2-1c-0.3-0.6-0.8-1.3-0.2-1.9c0.6-0.6,1.1-1,0.7-1.4
			c-0.4-0.4-0.4-0.5-1-0.5c-0.6,0-1.3-0.8-2.2-0.6c-0.9,0.2-1.3,1.3-2.3,1c-1-0.4-2.2-0.6-2.1-0.1c0.1,0.6,0.2,1.6,1.2,1.7
			c1.1,0,1.6-0.3,1.6,0.5c0,0.9,0.3,2.9-0.3,2.3c-0.6-0.6-0.7-1.3-0.9-0.6c-0.1,0.7-0.1,1.3-0.6,1.4c-0.5,0.1-1.3,0.1-0.6,0.6
			c0.8,0.5,1.3,0.9,0.6,0.9c-0.7,0-2.9-0.2-3,0.5c-0.1,0.4-0.1,0.8-0.2,1.1c-0.1,0.3-0.3,0.5-0.6,0.6c-0.8,0.2-0.8,1.5-2.2,1.3
			c-1.4-0.2-1.8-0.1-2.2-0.7c-0.4-0.6-1.6-2.9-2-3.2c-0.5-0.3-0.7-0.3-1.1-0.7c-0.3-0.4-0.3-0.7-1.1-0.9c-0.8-0.2-0.7-0.8-1.6-0.2
			c-0.7,0.5-1.4,0.8-2,0.4c-0.1-0.1-0.3-0.2-0.4-0.4c-0.6-0.9-0.3-1.6,0.2-2.5c0.5-0.9,1-1.4,1.2-2.2c0.2-0.7,0.8-1.4,0.7-1.8
			c-0.1-0.4,0-0.8-0.5-1c-0.5-0.2-1.1-0.6-0.7-0.9c0.4-0.3,1.2-0.3,1.2-0.7c0.1-0.4-0.3-1.1,0.5-0.7c0.8,0.4,3.1,1,3.1,0.2
			c-0.1-0.8,0.4-1.8,0.1-2.3c-0.2-0.6-0.6-0.4-0.5-1c0-0.6,0.2-1.1-0.2-1.4c-0.4-0.3-1.7-1.2-1.9-1.8c-0.2-0.6-0.1-0.9-0.4-1.4
			c-0.3-0.5-1.2-1-1.1-2c0.1-0.9,0.2-2.5-0.2-3.1c-0.2-0.5-0.9-1.3-1-2.2c-0.1-0.4,0-0.8,0.2-1.2c0.6-1.4,4.7-4.6,4.5-5.8
			c-0.1-1.2-0.2-2.9,0.3-3.5c0.6-0.6,2.7-1,2.8-2.8c0.1-1.9,0.1-2.1,0-3.7c-0.1-1.6-0.7-3.5-1.2-4.2c-0.4-0.7-1.3-1.8-0.7-2.9
			c0.7-1,1.9-3,0-3.4c-1.9-0.4-2.2-1.2-3.1-1.9c-0.9-0.7-1.2-0.7-1.8-1c-0.7-0.2-1.4-0.2-2.4-1.6c-1-1.3-1-2.5-2.5-2.7
			c-1.6-0.2-5.2-0.9-5.1-2.1c0-1.2,1.9-2,1.2-2.7c-0.7-0.7-1-0.5-1.6-1.9c-0.6-1.5-1-2.1-1.9-2.7c-0.9-0.6-1-2.6-2.4-2.9
			c-1.4-0.3-2.6-0.8-3.4-3.2c0,0,0.6-0.4,0.6-1.4c0-0.4,0-0.9,0.1-1.3c0.1-0.5,0.4-0.4,0.8-0.6c0.2-0.1,0.7-1.2,0.9-1.5
			c0.2-0.2,2.3-1.3,2.5-1.6c0.3-0.5,0.8-1.3,1.6-1.2c0.2,0,0.4,0.2,0.7,0.2c0.4,0.1,2.2,0.2,2.6,0.6c0.4,0.4,1.6,0,1.8-0.1
			c0.1-0.1,0.2-0.2,0.4-0.2c0.4-0.1,0.7,0.1,1.1,0.2c0.5,0.1,5.2,1.2,5.3,0.5c0.1-0.5-1.2-2.3-0.8-3.5c0.1-0.3,0.7-0.7,1-0.8
			c0.5-0.2,1.9-0.4,2.1-0.4c0.2,0.1,1.1,1.1,1.5,1.2c0.4,0.2,1.7-0.2,2-0.2c0.3,0,0.5,0.2,0.7,0.3c1.5,0.6,2.3-0.4,2.8-0.5
			c0.6-0.1,1.2,0.2,1.8,0.2c0.4,0.1,0.8,0,1.1,0.2c0.2,0.1,1.8,1.6,2,2.4c0.2,0.8-0.2,1.8,0.4,2.5c0.3,0.3,0.8,0.5,0.9,0.9
			c0.2,0.4,0.1,0.8,0.1,1.3c0.1,0.5,0.4,1,0.5,1.5c0.1,0.4,0.3,0.7,0.5,1.1c0.2,0.3,1.4,1.1,1.7,1.2c1.1,0.2,1-1,1-1.4
			c0-0.4,0-0.8,0-1.2c0-0.4,0.7-1.7,0.9-2c0.2-0.3,0.4-0.7,0.7-0.9c0.1-0.1,0.4-0.2,0.5-0.3c1.6-1.8,1.7-5.5,2.5-5.7
			c0.8-0.2,1.6-0.1,2.4-0.1c0.7,0.1,1.6,0.4,2.1,0.8c0.2,0.2,1.4,1.2,1.8,1.5c0.7,0.4,1.6,0.9,2,1.6c0.2,0.4,0.4,0.7,0.9,0.7
			c0.3,0,1.4-0.1,1.7-0.2c0.3-0.1,0.5-0.5,0.9-0.7c0.3-0.2,0.8-0.2,1.1,0c0.4,0.3,0.8,0.6,1.3,0.6c0.6,0,0.8-0.5,1.2-0.7
			c0.4-0.1,0.6,0.3,0.8,0.5c0.3,0.3,0.6,0.6,0.8,0.9c0.3,0.3,0.8,1.4,1,1.5c0.2,0.2,0.5,0.2,0.7,0.4c0.2,0.1,0.5,0.9,0.7,1
			c0.2,0.1,0.7,0.4,0.8,0.6c0.2,0.3,1.7,2.3,1.7,2.8c0,0.2,0,0.3,0.2,0.4c0.2,0.1,1.2,0.5,1.6,0.6c0.4,0.1,0.7,0.5,0.7,0.9
			c0,0.3-0.1,0.7,0.2,1C874.7,96.9,875.3,97.4,875.4,97.4z"/>
		<path class="st2" d="M877,192.5c0.3,0.6-0.2,1.4-0.2,1.4c-1,0.1-2.3,0.4-2.8,1.2c-0.5,1-1.6,1.9-2.9,2.9c-1.3,1-2.3,1-3,1.7
			c-0.7,0.8-1.7,3.2-3,4.2c-1.3,1-2.8,1.9-4.1,2.5c-1.2,0.6-4.3,1.7-5.2,2.8c-0.9,1.1-0.9,2.6-2.4,2.5c-1.5-0.1-3.5-0.8-4.8-1.5
			c-1.2-0.7-2.2-3-2.9-1.4c-0.7,1.7-1,1.2-0.9,2.2c0.1,1,0.8,2.7,2.2,3.3c1.5,0.6,3.6,2.3,1.6,1.8c-2-0.5-2.8-1.8-4.8-1.3
			c-1.9,0.5-3.3,1.7-4,1.1c-0.7-0.6-0.7-1.5-1.5-1.1c-0.8,0.4-1,0.8-1.5,0c-0.6-0.8-0.9-1.1-1.7-1.1c-0.8,0-2-0.1-2.1,0.7
			c-0.1,0.8-1.3,2.8-1.6,2.1c-0.3-0.7,0.1-1.6-0.9-0.8c-1,0.8-1.9,1.7-2.2,0.8c-0.3-0.9-0.1-2.6-0.6-1.4c-0.5,1.2-1.9,4.2-4.3,2.9
			c-2.4-1.3-7.3-5.3-8-4c-0.8,1.2-1.1,2.4-1.9,1.8c-0.9-0.7-1-0.9-1.6-0.7c-0.6,0.2-1.8,0.8-2.1,0c-0.3-0.8-0.4-2.1-1-1.9
			c-0.6,0.2-1.2,0.9-2.1,0.3c-0.9-0.5-2.1-1.2-1.8-0.1c0.2,1.2,0.1,4.3-2.1,4.2c-2.2,0-4.6-0.9-5.9,0.1c-1.3,1-2.7,0.7-3.1,1.5
			c-0.5,0.8-1.3,1.4-2.3,1.1c-0.2-0.1-0.5-0.2-0.7-0.2c0,0,1.7-2.7,1-3.9c-0.6-1.2-3.1-4.3-2.7-5.2c0.4-0.9,0.8-1.1,0.6-1.9
			c-0.2-0.8-0.4-1.4,0.1-2c0.5-0.6,2.1-2,1.3-2.7c-0.7-0.7-1.3-1.8-1.5-2.5c-0.2-0.7,0.3-1.1-0.5-1.5c-0.8-0.5-2.2-0.1-1.9-1.8
			c0.3-1.8,1.2-3.2,0.9-3.9c-0.3-0.7-0.2-1.5-1.2-2.3c-1-0.8-1.4-0.7-1.4-1.2c-0.1-0.6,0.4-1.3-0.7-2.1c-1-0.8-1.2-2.2-2.7-1.5
			c-1.5,0.7-1.8,1.5-4.1,1.1c-2.2-0.3-4.7,0.1-4.8-0.8c-0.2-0.9,1-1.4,1.3-2.5c0.3-1.1,0.5-2,0.9-2.6c0.4-0.6,0.4-1.3,0.5-1.9
			c0.2-0.6,0.7-0.9,0.5-2.9c-0.2-2-0.9-4.6-0.1-5.3c0.8-0.8,2.4-1.6,3.5-0.9c1,0.7,3,2.9,3.6,1.6c0.5-1.3,0.2-1.7,0.9-2.1
			c0.7-0.3,1.3-0.3,1.4-0.9c0.1-0.5,0.8-2.3,1.3-2.3c0.1,0,0.2,0.1,0.3,0.2c0.5,1,0.5,1.3,1.5,1.3c1,0,2.8,0.7,3.4,0.5
			c0.6-0.1,3.2-0.9,4.8-0.3c1.6,0.6,3.7,0.6,4.9,0.3c1.1-0.3,3.2-1.9,3.8-1.2c0.6,0.7,0.7,1.1,1.4,1c0.7-0.1,1.4,0.7,1.9,0.2
			c0.4-0.5,1-1.1,1.4-0.8c0.5,0.2,1.1,0.8,1.3,0.2c0.2-0.6,0.7-0.8,1.1-0.8c0.4,0,0.9-0.1,1.6-0.6c0.7-0.5,0.9-1.8,1.5-0.8
			c0.7,0.9,1.8,3.3,4.2,3.1c2.5-0.1,3.5,0,4.3-1.8c0.6,0.4,1.3,0.1,2-0.4c0.9-0.6,0.8,0,1.6,0.2c0.8,0.2,0.8,0.5,1.1,0.9
			c0.3,0.4,0.6,0.5,1.1,0.7c0.5,0.3,1.6,2.5,2,3.2c0.4,0.6,0.8,0.6,2.2,0.7c1.4,0.2,1.5-1.2,2.2-1.3c0.4-0.1,0.5-0.3,0.6-0.6
			c0.3,0.3,0.7,0.7,0.9,1c0.3,0.3,0.9,0.3,1.3,0.4c0.5,0.1,0.3,0.5,0.3,1c0,0.5,0.7,0.4,1.5,0.4c0.7,0,0.7,0.2,1,0.6
			c0.4,0.3,0.3,0,1.4,0.3c1.1,0.4,0.3,0.7,0.8,1.4c0.4,0.8,4,0.2,5,0.2c1,0,0.5,1,1.3,1.9c0.8,0.9,0.3-0.7,0.5-1.4
			c0.2-0.7,2,0.4,3,0.6c1,0.2,0.3-0.3,0.6-0.8c0.3-0.5,0.3-0.6,1.3-0.9c1-0.3,0.8-1.4,0.8-1.9c0-0.4,1.3-1.4,1.1-1.9
			c-0.2-0.5-1.3,0.5-2,0.9c-0.7,0.5-2.2,0-2.5-0.3c-0.3-0.3-2.3-0.4-2.7-0.4c-0.4,0-0.7-1.3-0.6-1.8c0.1-0.4-1.8-2.3-2.5-3
			c0.1,0,0.1,0,0.2,0c0.7-0.1,1.4-2,1.5-2.9c0.1-0.9,0.2-0.8,1.1-1.4c0.8-0.7-0.3-1.2-1-1.6c-0.8-0.3-0.4-0.8-0.2-1
			c0.3-0.2,1.1,0.1,1.9,0.6c0.8,0.4,0.4-0.3,0.5-0.7c0.1-0.4,1.2-0.8,2-1.4c0.8-0.6,3.2,0.3,3.9,0.6c0.5,0.2,1.6,0.3,2.6,0.3
			c0.5,0,0.9,0.1,1.2,0.1c0.8,0.1,0.8,1.1,1.3,3.2c0.5,2.2,1.4,3.3,2,4.4c0.7,1.2,1.5-0.2,1.6-1.2c0.2-0.9,1.4-0.4,1.8,0.3
			c0.4,0.7-0.5,1.4-0.4,2.2c0,0.7,1,0.7,1.3,1.2c0.3,0.4,0.2,0.9,1.2,1.6c1,0.7-0.1,1.2-0.6,1.1c-0.5-0.1-0.7,0.5-0.6,1.4
			c0.1,0.9,0.7,2.3,1.2,2.9c0.6,0.6-1.2,2.3-1.8,2.6c-0.6,0.3-0.2,2.3-0.3,2.7c0,0.4,0.4,0.6,1.3,1.2c0.9,0.6,1.3,1.7,1.8,2.3
			c0.5,0.6,1.2,0.1,1.5-0.2c0.3-0.3,3.7,2.7,4.4,3.3c0.7,0.6-0.4,0.9-0.9,1.1C876.1,191.3,876.7,191.9,877,192.5z"/>
		<path class="st2" d="M832.5,130.2c-0.1,1.9-2.2,2.2-2.8,2.8c-0.5,0.6-0.5,2.2-0.3,3.5c0.1,1.3-3.9,4.5-4.5,5.8
			c-0.2,0.4-0.2,0.8-0.2,1.2c0,0-3-0.3-5.3-0.7c-2.3-0.4-2.3-0.3-3.5,1c-1.2,1.4-2.1,0-2.1-0.6c-0.1-0.6-0.8-0.4-1.6,0.2
			c-0.8,0.6-0.3-1.2-1.4-1c-1.1,0.2,0.1-1.8,0.5-3.6c0.1-0.3,0.1-0.6,0-0.8c0-0.1-0.1-0.2-0.2-0.3c-0.5-0.5-1.7-0.5-2.5-1.6
			c-1.1-1.6-1.5-0.3-2.5-1.6c-1-1.3-2.3,2.2-2.7,3.5c-0.4,1.3-0.5-0.5-1.6-0.7c-1.1-0.2,0.1-0.3,0.7-1c0.6-0.8-0.7-1.5-1.2-3.3
			c-0.5-1.8-1.6-3-2.5-4.7c-1-1.7-1.8-0.3-2.3,0.2c-0.5,0.5-1.2,0.9-2.5,1.5c-1.3,0.6-1.3,0.4-2.2,0.7c-0.9,0.4-2.2-0.6-3.2-0.7
			c-1-0.2,0.4,2.9-0.2,3.8c-0.6,0.9-1.7,0.8-2.5,0.1c-0.8-0.7-0.8,1.5-1.5,3.6c-0.7,2.1-1.8,0.5-2.6,0.4c-0.8-0.1-1.1-1.7-0.2-2.7
			c0.9-1-2.3-1.5-3.9-1.6c-1.6-0.2-1.7,0.9-1.5,2.2c0.1,1.4-1.8-1.5-2.5-1.6c-0.7,0-1.3-0.8-1.9-2.1c-0.6-1.2-1.3-1.2-1.4-1.2
			c0-0.3-0.1-0.7-0.3-1.2c-1-2.1-0.7-5.2,0-5.7c0.6-0.4,4.5-2.3,4.7-3.4c0-0.1,0-0.2-0.1-0.3c-0.1-0.1-0.1-0.1-0.3-0.2
			c-1.8-0.9-5.3-1.8-5.2-3.1c0.1-1.4,1-1.8,0.2-2.9c-0.9-1.2-0.6-2.4-1.6-3.6c0.1-0.1,0.1-0.3,0.1-0.4c0-0.1,0-0.2,0-0.3
			c0-0.1,0-0.2,0.1-0.4c0.1-0.7,0.3-1.3,0.4-1.9c0-0.1,0.1-0.2,0.1-0.4c0.1-0.4,0.2-0.8,0.3-1.2c0.2-1.1,1.7-2.3,0.8-4.3
			c-0.9-2-2.1-4.6-1-5.3c1.2-0.8,2.2-1.9,2.8-2.7c0.6-0.8,2.6-1.1,3.1-1.7c0.6-0.6,0.8-4,5.2-3.1c-0.1,0.2-0.7,1.3-0.8,1.8
			c-0.1,0.4,0,0.7-0.3,0.9c-0.3,0.2-2.2,1.8-2.1,2.1c0.1,0.2,1.9,1.2,2.1,1.3c0,0.5-0.1,1,0,1.4c0,0.4,0.5,0.4,0.8,0.4
			c0.2,0,0.4,0.1,0.6,0c0.2,0,0.3-0.2,0.4-0.2c0.4-0.1,0.8-0.2,1.1-0.1c0.2,0.1,0.3,0.1,0.4,0.3c0.1,0.2,0.2,0.4,0.5,0.4
			c0.4,0.1,0.7-0.2,1.1-0.4c0.5-0.2,0.7,0,1.1,0.3c0.5,0.3,3.8,1.6,4.8,2.1c0.4,0.2,0.8,0.4,1.2,0.7c0.1,0.1,0.2,0.2,0.3,0.2
			c0.1,0.1,0.2,0.2,0.3,0.2c0.1,0,0.2,0.1,0.3,0.1c0.5,0.1,0.7-0.3,1-0.5c0.3-0.3,0.7-0.4,0.8-0.8c0.2-0.5,0.4-0.9,0.5-1.4
			c0.1-0.5,0.4-0.8,0.8-0.9c0.3-0.1,5-1.6,5.3-1.7c1.1-0.2,2,0.4,3.1,0.4c0.3,0,1.5-0.7,1.7-1.1c0.1-0.2,2.6-0.9,2.9-1.1
			c0.8,2.5,2,2.9,3.4,3.2c1.4,0.3,1.5,2.4,2.4,2.9c0.9,0.6,1.3,1.2,1.9,2.7c0.1,0.3,0.2,0.5,0.3,0.7c0.1,0.1,0.1,0.2,0.2,0.3
			c0.3,0.4,0.6,0.4,1,0.9c0.7,0.7-1.2,1.4-1.2,2.7c0,1.2,3.6,1.9,5.1,2.1c1.6,0.2,1.5,1.4,2.5,2.7c1,1.3,1.7,1.3,2.4,1.6
			c0.7,0.2,0.9,0.3,1.8,1c0.9,0.7,1.2,1.5,3.1,1.9c1.8,0.4,0.6,2.4,0,3.4c-0.6,1,0.2,2.1,0.7,2.9c0.4,0.7,1.1,2.6,1.2,4.2
			C832.6,128.1,832.6,128.3,832.5,130.2z"/>
		<path class="st2" d="M790.9,220.1c-0.9-0.3-2.2-0.7-2.8-0.7c-0.9,0.1-3.7,0-5.2,0.7c-1.5,0.7-3.2,2.5-4,3.1
			c-0.7,0.6-1.8,1.4-2.8,0.7c-1-0.7-2-2-3.2-1.6c-1.3,0.5-1.6,1.2-2.6,0.7c-1-0.5-3.7-2.5-5.5-1.7c-1.8,0.8-4.5,2.7-4.7,1.2
			c-0.3-1.5-1.3-3.9-2.4-4.3c-1.2-0.4-2.1-2-3.7-1.9c-1.5,0-7.9,3.2-8.5,1.8c-0.6-1.3-1.7-6-3.2-6c-1.5,0-3.7,0.7-3.5-0.2
			c0.2-1,2.6-1.8,3.2-2.4c0.6-0.6,1.5-1.8-0.1-2.2c-1.6-0.3-2.2-0.3-3.1-0.9c-0.8-0.6-1.5-3-3-3.7c-1.6-0.7-2.8-0.3-4-1.7
			c-1.1-1.4-1.7-2.6-2.3-3.6c-0.7-1-0.8-2.2-1.5-2.6c-0.7-0.4-2.5-1.1-3.3-2.1c-0.8-1-1-2.5-1.8-2.1c-0.7,0.4-1.5,3.2-2.5,2.5
			c-1-0.7-2.6-2.3-2.9-3.4c-0.3-1.1,1.5-1.4,1.4-2.3c0-1-0.4-0.7,0.1-1.6c0.6-0.9,1.3-2.5,0-2.4c-1.3,0.1-1.9,1.2-3.2,0.7
			c-1.3-0.6-2.2-2.1-3.8-1.6c-1.7,0.5-4.7,0.8-5.7,1.3c-0.3,0.2-0.8,0.3-1.2,0.5c0,0-0.9-3.7-1.3-5c-0.4-1.2-2.3-2.2-2.8-2.4
			c-0.4-0.2-1.1-2.4-1.7-3.4c-0.5-0.9,0-2.2,1-3.9c1-1.7-0.2-3.2-1-4.2c-0.3-0.4-0.6-0.6-1.1-0.9c2.3-0.8,4.7,0.7,6.2,1
			c1.5,0.3,1-0.6,1.4-1.4c0.4-0.8,0.2-1.5,1-2c0.9-0.4,0.8-0.2,1.7,0.1c0.4,0.1,0.5,0,0.6-0.2c0,0,0.7,0,1.1,0.4
			c0.5,0.5,0.6,0.9,1.8,1.2c1.2,0.4,2.4,0.3,3.1,0c0.7-0.3,3.3-0.5,2.9-1.2c-0.4-0.7-0.5-1,0.4-0.9c0.9,0.1,1.7,0.2,2,0.6
			c0.3,0.5-0.1,0.8,0.7,0.7c0.8-0.2,0.3-0.4,0.8-0.2c0.5,0.2,0.7,0.7,1.5,0.3c0.8-0.5,1.3-1.5,1.9-0.6c0.6,0.8,3.4,1.9,3.7,1.2
			c0.3-0.7,1.2-1.7,2-1.7c0.8,0.1,5.6,0.4,5.9,0.3c0.2-0.2,0.7-0.8,1.3-0.4c0.7,0.4,0.8,1.4,1.4,0.4c0.6-1,1.5-1.1,2.1-1.1
			c0.6,0,0.8,0,2.5-1c1.7-1,1.9-0.7,3.5-1.3c1.6-0.6,1.9,0,2.9-0.8c1-0.8,2.2-0.5,2.9-1.4c0.7-0.9,0.5-1.9,1.7-2.1
			c1.2-0.1,1.2,0.6,1.4,0.1c0.2-0.5,0.1-0.8,0.9-0.7c0.8,0,1.5,0.1,1.5-0.6c0-0.1,0-0.2-0.1-0.3c0,0,2.2-1.1,3.2,0.2
			c1,1.3,0.8,1.9,2.2,1.9c1.3,0,3.3-0.4,3.1,1c-0.2,1.5-0.4,1.5,0.2,1.7c0.5,0.2,1.2-0.2,1.2,0.9c0,1.1-0.5,1.1,0.4,1.8
			c0.8,0.7,1.4,1.4,2.1,1.2c0.6-0.2,1.4-0.9,1.4,0.3c0.1,1.2-1.2,1.4,0.7,2c1.9,0.7,2.4,1,2.9,1.2c0.5,0.2,0.9,0.5,1.9,0.3
			c1-0.1,1.4-0.7,2-0.3c0.6,0.4,0.6,0.3,1.6,0.4c1,0.2,1.1-0.2,1.7,0.3c0.6,0.4,1.4,0.9,2.3,1c0.9,0.1,1.4,0.3,1.5,1.2
			c-0.5,0-1.3,1.8-1.3,2.3c-0.1,0.6-0.7,0.5-1.4,0.9c-0.7,0.3-0.4,0.8-0.9,2.1c-0.5,1.3-2.5-0.9-3.6-1.6c-1-0.7-2.6,0.1-3.5,0.9
			c-0.8,0.8-0.1,3.4,0.1,5.3c0.2,2-0.3,2.3-0.5,2.9c-0.1,0.6-0.1,1.3-0.5,1.9c-0.4,0.6-0.6,1.4-0.9,2.6c-0.3,1.1-1.4,1.6-1.3,2.5
			c0.2,0.9,2.6,0.5,4.8,0.8c2.2,0.3,2.6-0.4,4.1-1.1c1.5-0.7,1.7,0.7,2.7,1.5c1,0.8,0.6,1.5,0.7,2.1c0.1,0.6,0.4,0.5,1.4,1.2
			c1,0.8,0.9,1.6,1.2,2.3c0.3,0.7-0.5,2.2-0.9,3.9c-0.3,1.8,1,1.4,1.9,1.8c0.8,0.5,0.3,0.9,0.5,1.5c0.2,0.7,0.7,1.8,1.5,2.5
			c0.7,0.7-0.8,2.1-1.3,2.7c-0.5,0.6-0.3,1.2-0.1,2c0.2,0.8-0.2,1-0.6,1.9c-0.4,0.9,2,4,2.7,5.2
			C792.5,217.4,790.9,220.1,790.9,220.1z"/>
		<path class="st2" d="M709.6,158.7c-0.3,0.4-0.5,0.5-0.5,1.4c0,0.6,0.2,1.3,0.1,1.6c0,0.3-0.2,0.4-0.6,0.2
			c-0.9-0.4-0.9-0.6-1.7-0.1c-0.9,0.4-0.6,1.2-1,2c-0.4,0.8,0.1,1.7-1.4,1.4c-1.5-0.3-4-1.8-6.2-1c-0.9-0.5-1.9-0.7-2.6-0.9
			c-0.9-0.2-1.1-0.7-0.9-1.7c0.1-1-2-1.2-2.8-1.4c-0.7-0.1-0.7,0.8-1.2,1.4c-0.6,0.7-1.4,0.9-2.3,0.6c-0.9-0.3-1.8,0.7-1.9,1.1
			c-0.2,0.4-1.2-0.1-1.9-0.1c-0.7,0-1.9,0.6-3.3,1.8c-1.4,1.2-0.6-2.1-1-3c-0.4-0.8-2.7,0.4-3.2,0.4c-0.5,0.1-1.1-0.3-2-0.9
			c-0.9-0.6-1.5,0.4-1.8,0.8c-0.3,0.5,0,1-0.6,1.3c-0.6,0.3-0.7-0.4-0.9-1.3c-0.2-0.8-0.9-0.2-1.6-0.3c-0.7-0.1-0.9-0.7-1.3-1
			c-0.4-0.4-0.6-0.5-1.2-0.6c-0.6-0.1-2-0.9-2.4-1c-0.4-0.1-0.7-1.1-0.7-2.2c-0.1-1.1-1.5-2-2.2-2.5c-0.7-0.5-1.3,0.7-1.8,1.5
			c-0.5,0.9-1.5-0.5-2.2-0.9c-0.7-0.4-1,0-1.5,0.3c-0.5,0.3-1.8,0-3.1,0c-0.7,0-1.5-0.3-2.1-0.6c-0.2-2.3-0.3-6.2-0.6-6.8
			c-0.4-0.8-0.7-2.4-1.4-3.4c-0.6-0.9-1.1-2.2-1.6-3.4c1.4-0.7,0.3-1.9,0-2.3c-0.3-0.4,0.8-1.1,1.9-1.1c1.1,0,0.6-0.1,0.9-0.6
			c0.3-0.6,0.3-0.1,1.7-0.4c1.4-0.3-0.4-0.5-1.2-0.9c-0.8-0.5,0-0.5,0.4-1c0.4-0.5,1.9,0,3,0.2c1.1,0.2,1.7-0.1,2.2-0.5
			c0.4-0.4,0.9,0.1,3.4-0.1c2.5-0.2,1.6-0.6,1.9-1.5c0.3-0.9,1.3,0.1,2.5,0.6c1.1,0.5,1.6-0.7,2.2-0.7c0.6,0,1.5,0.6,2.7,0.6
			c1.2,0,1.5,0.7,1.8,1.1c0.3,0.4,1.1,0.4,2.6,0.5c1.5,0.1,1.4,1.3,1.7,2c0.3,0.8,2.6,0.4,3.6,0.3c1-0.1,1.6-0.8,2.2-1.4
			c0.1-0.1,0.2-0.1,0.2-0.1c0,0,0.4,1.6-0.2,2.4c-0.6,0.8-0.6,1.4-0.4,1.6c0.2,0.1,0.9,0.6,0.8,0.9c-0.1,0.4-0.5,0.4,0.3,0.6
			c0.8,0.2,2.6,0.3,3.2,0.8c0.6,0.5,1,0.9,1.9,0.8c0.9-0.1,1.6,0.1,1.7-0.5c0.1-0.6-0.2-1.5,0.8-1.3c1,0.3,3.1,0.2,3.3,1.4
			c0.3,1.2,0.2,3.4,0.8,4.1c0.6,0.7,0.9,1.8,1.6,1.3c0.7-0.5,1-0.9,1.8-0.4c0.8,0.4,1.7,2.6,2.9,2.7c1.3,0.1,2,0.2,2.7,0.7
			c0.8,0.6,1.2,1.2,1.7,0.9c0.5-0.3,0.9-0.7,1.3-0.5c0.4,0.2,0.3,0.6,0.9,0.4c0.6-0.2,0.9-0.4,1.1,0.1c0.3,0.5,1,1.6,1,2.1
			c0,0.5,0.6,1.1,0.4,1.5c-0.2,0.5-0.5,0.7-0.3,1.2C709.6,157.7,709.9,158.2,709.6,158.7z"/>
		<path class="st2" d="M705,184c-0.9,0.3-1.8,0.7-1.9,1.7c-0.2,1.5-0.4,3-0.8,3.6c-0.3,0.6-1.5,1.8-2.2,2.4
			c-0.7,0.6-1.3,1.9-0.9,2.4c0.4,0.5,0.9,1.1-0.4,1.2c-1.3,0.1-3.4,1.1-4.3,0.2c-1-0.9-2.2-1.9-3.6-1.8c-1.4,0.1-4-0.3-4.4-1.1
			c-0.3-0.8-1.3-1.5-2.1-1.5c-0.8,0-1.9,0.2-2.9,0.1c-1-0.2-1.4,0.4-2-0.3c-0.6-0.7-1.5-1.7-2.5-1.2c-0.9,0.5-1.7,0.8-2.4,0.6
			c-0.7-0.2-2.3-1.1-3.1-0.5c-0.8,0.6-1.7,2.2-2.8,1.3c-1.1-0.8-1.9-1.1-2.4-1c-0.5,0-1.4-1.8-2.7-1.2c-1.3,0.7-3.4,2.3-4.1,3.1
			c-0.7,0.8-0.5,1.8-1.3,2.1c-0.8,0.3-1.6,0.6-1.8,1c-0.2,0.4-1.1,1.3-1.5,0.6c-0.5-0.7-3.4-2.6-4.4-2.6c-0.9,0-2.5,0.2-2.5-0.5
			c0-0.7,0.6-1.8-0.7-1.5c-1.2,0.4-2.6,1.4-3.6,0.7c-1-0.7-2.6-2.1-4.2-2.6c-1.7-0.5-2.3-0.8-2.3-0.8s1.5-1.7,1.5-3
			c0-1.2,0-3.7,0.5-4.6c0.5-0.9,3.9-4.5,4.4-4.1c0.5,0.4,1.4,1.2,2.4-0.3c1-1.5,1.1-2,1.8-3.4c0.8-1.4,1.6-4.2,2-5
			c0.5-0.8,1.3-2.6,1.5-4.1c0.2-1.5,0.5-6,0.3-7.5c0-0.3-0.1-0.8-0.1-1.4c0.6,0.3,1.4,0.6,2.1,0.6c1.3,0,2.5,0.3,3.1,0
			c0.5-0.3,0.8-0.7,1.5-0.3c0.7,0.4,1.7,1.7,2.2,0.9c0.5-0.9,1.1-2.1,1.8-1.5c0.7,0.5,2.1,1.4,2.2,2.5c0.1,1.1,0.4,2.1,0.7,2.2
			c0.4,0.1,1.8,1,2.4,1c0.6,0.1,0.7,0.2,1.2,0.6c0.4,0.4,0.6,0.9,1.3,1c0.7,0.1,1.4-0.5,1.6,0.3c0.2,0.9,0.3,1.6,0.9,1.3
			c0.6-0.3,0.3-0.8,0.6-1.3c0.3-0.5,0.9-1.4,1.8-0.8c0.9,0.6,1.5,0.9,2,0.9c0.5-0.1,2.8-1.3,3.2-0.4c0.4,0.8-0.4,4.2,1,3
			c1.4-1.2,2.6-1.8,3.3-1.8c0.7,0,1.8,0.5,1.9,0.1c0.1-0.4,1-1.5,1.9-1.1c0.9,0.3,1.7,0.1,2.3-0.6c0.6-0.7,0.5-1.6,1.2-1.4
			c0.7,0.1,2.9,0.4,2.8,1.4c-0.1,1,0,1.5,0.9,1.7c0.6,0.1,1.7,0.4,2.6,0.9c0.4,0.2,0.8,0.5,1.1,0.9c0.8,1.1,2,2.5,1,4.2
			c-1,1.7-1.5,3-1,3.9c0.5,0.9,1.2,3.1,1.7,3.4c0.4,0.2,2.4,1.2,2.8,2.4C704.1,180.3,705,184,705,184z"/>
		<path class="st2" d="M738.7,66.2c-1.4,0.4-2.6,0.6-2.6,1.4c0,0.8-0.2,2-0.8,2.6c-0.6,0.6-0.8,1.5-0.9,1.9c-0.2,0.5-0.5,1.9-1,0.9
			c-0.5-1,1.5-2.1-1-2c-2.4,0.1-3-0.2-3.6,0.3c-0.6,0.5-0.4,1.1-1.3,0.4c-0.9-0.6-1.2-1.2-1.5-0.7c-0.4,0.5-0.8,1.1-1.1,0.3
			c-0.3-0.8-0.8-1.4-1.7-1.4c-0.9,0-1-0.5-1.9-0.6c-0.9-0.1-1.7-1.9-2.6-1.2c-0.9,0.7-2,2.4-3,2.2c-1-0.2-1.2-0.9-2.1-0.4
			c-0.9,0.6-1.7,1.7-2.8,0.5c-1.1-1.2-1.4-1.2-2.1-1.5c-0.7-0.2-1.4-0.6-2.3-0.2c-0.9,0.4-2.5,0.6-3.2,0c-0.6-0.6-5.1-3.2-5.5-1.6
			c-0.4,1.6,0.2,1.8,0,2.2c-0.2,0.4,1.3,2,0.1,1.9c-1.2,0-1-0.8-2-0.1c-1.1,0.7-1.3,0.8-1.6,0.6c-0.4-0.2-1.6-0.9-2-0.1
			c-0.5,0.9,0,1.4-0.7,1.9c-0.8,0.5-0.4,0.8-0.4,1.2c0,0.4-0.1,0.6-0.4,1c-0.3,0.4-0.6,0.2,0.2,1.2c0.8,0.9,1.8,2.6,2.8,2.8
			c1,0.2,2,0.3,2.5,0.9c0.5,0.7,1.2,1.2,2.3,1.1c1.1-0.1,1.8,0.1,2.5,1c0.7,1,3.8,2.8,2.5,3.9c-1.3,1.2-2.6,2.7-1.5,3.8
			c1.1,1.1,1.2,1.1,1.2,1.7c0.1,0.6,0.3,1.3,0.9,1.9c0.7,0.6,0.4,1.4,1,1.5c0.5,0.2,0.6,0.3,0.5,0.7c-0.1,0.4,0.2,1.7,0.7,1.9
			c0.1,0.1,0.3,0.1,0.5,0.1c0,0-1.5,1.3-2.9,1.3c-1.4-0.1-2.8-0.5-2.8,0.7c0,1.2,0.2,1.5-0.4,1.8c-0.6,0.3-2.1,0.5-2,1.7
			c0.1,1.2,0.4,1.8-0.4,2.1c-0.8,0.3-1.3,0.3-1.4,0.9c-0.1,0.6-0.1,2-0.5,2.4c-0.4,0.4-0.8,0.9-0.6,1.2c0.2,0.3,1.2,1.2,0.2,1.9
			c-1.1,0.7-1.5,1.4-2.2,2.1c-0.7,0.7-1.1,1.8-1.7,2.5c-0.6,0.8-2.2,3.4-2.6,4.5c-0.5,1.1-1,1.4-1.6,2.3c-0.7,0.9-2.8,3.1-2.1,4
			c0.7,0.9,0.5,1.1,0.4,1.7c-0.1,0.6-0.8,2.4-0.1,2.8c0.6,0.4,1.5,0.9,0.7,1.7c-0.8,0.8-0.2,0.8-0.5,1.4c-0.3,0.6-1,2-1.9,1.7
			c-0.8-0.2-1.6-1.5-2.2-1.4c-0.1,0-0.2,0-0.2,0.1c-0.6,0.6-1.2,1.3-2.2,1.4c-1,0.1-3.2,0.5-3.6-0.3c-0.3-0.8-0.1-2-1.7-2
			c-1.5-0.1-2.3-0.1-2.6-0.5c-0.3-0.4-0.6-1.1-1.8-1.1c-1.2,0-2.1-0.6-2.7-0.6c-0.6,0-1,1.2-2.2,0.7c-1.1-0.5-2.1-1.5-2.5-0.6
			c-0.3,0.9,0.6,1.3-1.9,1.5c-2.5,0.2-3-0.2-3.4,0.1c-0.4,0.4-1.1,0.6-2.2,0.5c-1.1-0.2-2.6-0.7-3-0.2c-0.4,0.5-1.1,0.6-0.4,1
			c0.8,0.5,2.6,0.6,1.2,0.9c-1.4,0.3-1.4-0.1-1.7,0.4c-0.3,0.6,0.2,0.6-0.9,0.6c-1.1,0-2.2,0.7-1.9,1.1c0.3,0.4,1.4,1.6,0,2.3
			c-0.1-0.1-0.1-0.3-0.2-0.4c-0.7-1.3-0.6-2.1-1.4-2.6c-0.8-0.5-2.2-1.2-2.3-2.3c-0.1-1.1,0.5-3.2-0.4-4c-0.8-0.8-1.7-1.6-1.3-2.4
			c0.4-0.8,1.1-2.2,0.9-3.2c-0.2-1-0.5-2.3-1-3.7c-0.6-1.4-0.8-5.9-3.3-8.4c-0.9-0.9-1.4-1.6-1.8-2.1c0,0,3.7-1.9,5.4-2
			c1.7-0.1,2,0.5,2.1-0.8c0.1-1.3-1.3-2.8,0.5-3.4c1.8-0.6,7.4-3.9,10.1-6.4c2.7-2.6,3.8-4.5,4.7-5.1c0.8-0.5,3.8-2.1,3.4-2.7
			c-0.4-0.7-0.6-2-0.6-2.8c0-0.8,0-1.2-0.7-2.1c-0.6-0.9-1.5-2.1-0.5-2.4c1-0.3,2.6-1.5,2.5-2.4c-0.2-0.9-0.7-1.9-1.3-1.7
			c-0.6,0.2-1.5,1.3-1.7,0.5c-0.2-0.9-0.5-1.8-1.2-3.2c-0.6-1.4-1.1-2.5-0.3-3.6c0.7-1,4.4-3.1,3.3-3.7c-1.1-0.6-2.5-0.5-2.5-1.3
			c0-0.8,0-2.6,0-3.6c0-1,0.2-1-0.7-1.5c-0.9-0.5-1.9-1.6-0.7-2.7c1.1-1.1,1.6-1.3,3.5-1.7c1.9-0.3,1.5-1.7,3.6-1.9
			c2-0.2,3.6-1,3.9-2c0.3-1,1.3-3.2,2.4-4.3c1.1-1.1,3.9-4.9,3.6-5.7c-0.3-0.9-0.7-2.6-0.7-2.6c0.1-0.1,0.3-0.1,0.4-0.2
			c0.2-0.1,0.3-0.2,0.5-0.2c0.4-0.1,0.8-0.2,1.2-0.1c0.4,0.1,0.9,0.5,1.3,0.4c0.2-0.1,0.4-0.3,0.5-0.4c0.2-0.2,0.5-0.3,0.7-0.4
			c0.4-0.2,0.8-0.4,1.2-0.3c0.4,0,1.1,0.4,1.3,0.8c0.2,0.4,0,1.3,0.5,1.4c0.5,0.1,1.2-0.1,1.6-0.2c0.3-0.1,0.6-0.3,0.8-0.5
			c0.2-0.2,0.3-0.5,0.5-0.6c0.4-0.2,0.9,0.1,1.2,0.1c0.3,0,0.9-0.2,1-0.5c0.1-0.2,0-0.4,0.1-0.6c0.1-0.2,0.2-0.4,0.4-0.6
			c0.2-0.2,0.3-0.2,0.5-0.3c0.3-0.2,0.7-0.4,1.1-0.5c0.2,0,0.5-0.1,0.7,0c0.2,0.1,0.4,0.2,0.7,0.2c0.6,0,1-0.3,1.5-0.5
			c0.4-0.2,1-0.6,1.4-0.3c0.3,0.2,0.5,0.5,0.7,0.8c0.2,0.4,0.2,0.7,0.2,1.1c0,0.4,0,0.7,0.2,1c0.2,0.3,0.5,0.7,0.8,0.9
			c0.3,0.2,0.8,0.3,1.2,0.5c0.6,0.2,1.2,0.4,1.8,0.6c0.4,0.2,1.3,0.3,1.4,0.7c0.1,0.4,0.1,0.6,0.3,0.9c0.3,0.3,0.6,0.5,0.9,0.5
			c1.1,0.2,2.2,0.5,3.3,1c0.5,0.2,1.1,0.4,1.6,0.7c0.4,0.2,0.7,0.4,1.1,0.6c0.3,0.2,0.7,0.3,1,0.4c0.4,0.1,0.7-0.1,0.9-0.5
			c0.5-0.6,0-1.6-0.1-2.3c-0.1-0.4-0.2-0.7,0.3-0.8c0.5-0.1,0.8,0.2,1.3,0.3c0.3,0,0.3,0,0.5-0.2c0.2-0.2,0.4-0.3,0.6-0.4
			c0.4-0.3,0.8-0.5,1.3-0.6c0.8-0.1,1.8-0.1,2.5,0.4c0.3,0.2,0.7,0.4,0.9,0.7c0.2,0.2,0.6,0.4,0.9,0.5c0.5,0.1,0.8-0.3,1.2-0.4
			c0.4-0.1,0.8-0.1,1.2,0c0.2,0.1,0.4,0.2,0.6,0.2c0.2,0.1,0.6,0.1,0.7,0.2c0.2,0.2,0.1,0.5,0.2,0.7c0.1,0.3,0.4,0.3,0.7,0.3
			c0.3,0,0.5,0,0.8,0.1c0.4,0,0.7,0.1,0.9,0.4c0.3,0.2,0.5,0.4,0.6,0.8c0.1,0.4,0.2,0.8,0.3,1.2c0.2,0.4,0.4,0.5,0.8,0.6
			c0.4,0.1,0.8,0.1,1.2,0.1c0.4,0.1,0.8,0.2,1.2,0.3c0.4,0.1,0.8,0.1,1.1,0.3c0.4,0.1,0.8,0.4,1.1,0.6c0.3,0.2,0.5,0.5,0.8,0.7
			c0.4,0.2,0.8,0.3,0.6,0.8c-0.2,0.4-0.4,0.5-0.7,0.8c-0.3,0.2-0.6,0.4-0.7,0.8c-0.1,0.4,0.1,0.6,0.3,0.9c0.4,0.6,0.8,1.2,0.9,1.9
			c0,0.2,0.1,0.5,0.2,0.7c0.1,0.3,0.3,0.5,0.5,0.7c0.4,0.5,0.9,0.8,1.5,0.9c0.2,0.3,0.6,0.8,0.9,0.9c0.3,0.1,0.8,0,1.1,0.2
			c0.3,0.2,0.5,0.5,0.7,0.8c0.3,0.3,0.6,0.6,1,0.7c0.3,0.1,0.6,0.3,1,0.4c0.2,0.1,0.4,0.1,0.6,0.2C739.6,63.5,740.1,65.8,738.7,66.2
			z"/>
		<path class="st2" d="M672.5,51.8c-1.1,1.1-2.1,3.3-2.4,4.3c-0.3,1-1.9,1.8-3.9,2c-2,0.2-1.7,1.5-3.6,1.9c-1.9,0.3-2.4,0.5-3.5,1.7
			c-1.1,1.1-0.2,2.2,0.7,2.7c0.9,0.5,0.7,0.5,0.7,1.5c0,1,0,2.7,0,3.6c0,0.8,1.4,0.7,2.5,1.3c1.1,0.6-2.6,2.7-3.3,3.7
			c-0.7,1-0.3,2.2,0.3,3.6c0.6,1.4,1,2.3,1.2,3.2c0.2,0.9,1.1-0.3,1.7-0.5c0.6-0.2,1.2,0.9,1.3,1.7c0.2,0.9-1.5,2.1-2.5,2.4
			c-1,0.3-0.1,1.5,0.5,2.4c0.6,0.9,0.7,1.2,0.7,2.1c0,0.8,0.3,2.2,0.6,2.8c0.4,0.7-2.6,2.2-3.4,2.7c-0.8,0.5-2,2.5-4.7,5.1
			c-2.7,2.5-8.3,5.9-10.1,6.4c-1.8,0.6-0.4,2.1-0.5,3.4c-0.1,1.3-0.4,0.7-2.1,0.8c-1.7,0.1-5.4,2-5.4,2c-0.6-1-0.5-1.6-0.6-2.1
			c-0.1-0.7-0.4-5.7-0.4-6.8c-0.1-1.1-1.1-4.5-1.3-5.9c-0.2-1.4-0.6-2.1-0.7-3c-0.1-0.9-1.2-4.1-1.6-5.7c-0.4-1.5-1.5-4.8-2.5-5.1
			c-1-0.3-0.2,0.4-1.6-0.9c-1.3-1.2-2-1.4-3.2-1.6c-1.2-0.2-3.1-0.5-3.9-1.1c-0.9-0.7-4.1-2-5.2-2.1c-1.1-0.1-3.1,2.1-4.1,0.7
			c-1-1.4-2-3-2.6-3.6c-0.6-0.6-0.4-1.9-0.8-2.9c-0.3-0.9-0.5-3.5-1.1-4.8c-0.6-1.3-2.6-6.2-3.4-6.1c-0.8,0.1-1,0.3-1.5,0.3
			c-0.4,0-1.5,0.1-1.7,0.5c-0.2,0.4-0.7,0.7-1.3,0c-0.6-0.8-3.1-3.2-3.4-4c-0.3-0.7-2.5-3.4-3.3-3.6c-0.8-0.2-1.7-0.7-3.1-0.6
			c-1.4,0.1-3.8-0.4-4.7-0.3c-0.9,0.1-2,0.8-3.2,0.2c-1.1-0.6-1-0.9-2.7-0.9c-1.7,0-3.7,0.5-4.3-0.1c-0.6-0.7-3.5-4.2-4.5-3.9
			c-1,0.3-1.5,0.6-2.4-0.1c-0.8-0.7-2.2-0.6-2.7-1.2c-0.4-0.5-2.7-1.6-3.4-0.9c-0.7,0.7-1.3,2.3-2.2,1.6c-0.8-0.7-4.1-2.5-3.8-3.6
			c0.3-1.1,0-8.8-1.8-10.1c-1.8-1.3-4.4-1.8-6-2.8c-1.6-1-3.8-2.9-5.6-3.1c0,0-2.7-0.4-3.8-0.7c0,0-0.1-2.8,1.2-4.9
			c1.3-2.1,0.8-2.6,1.3-3.4c0.6-0.8,1.5-3.3,2.3-4c0.8-0.7,1.3-1.5,1.3-2.5c0-0.4-0.1-0.6,0.3-0.8c0.2-0.1,0.6-0.3,0.8-0.3
			c0.5,0,1.1,0.1,1.6-0.1c0.1,0,0.7-0.2,0.9-0.3c0.5-0.1,2.3-0.3,2.7-0.3c0.4,0,2.1-0.3,2.5-0.5c0.4-0.2,1.8-0.5,1.9-0.3
			c0.2,0.2,1.8,1.7,2.2,1.7c0.5,0,2.1,0,2.2,0.4c0.1,0.3,1.3,0.9,1.6,0.9c0.3,0,0.5,0.2,0.7,0.3c0.3,0.2,2.5,0.4,3.2-0.2
			c0.3-0.2,0.6-0.6,1-0.6c0.4,0,2.1,1,2.3,1c0.4,0,0.8-0.1,1.2,0.2c0.3,0.2,1.4,1.2,1.8,1.3c0.5,0.1,3.4,0.8,3.6,0.7
			c0.2-0.1,4.3-3.1,4.8-3.1c0.3,0,1-0.2,1.2,0.1c0.1,0.1,0.4,1.1,0.5,1.2c0.3,0.3,2,0.8,2.5,0.8c0.4,0,3.1,1.8,3.6,2
			c0.6,0.2,1.2,0.3,1.8,0.6c0.5,0.2,5,1.7,5.1,1.9c0.1,0.1,0.7,1.8,1,2c0.2,0.1,2.2,2.8,2.6,3c0.5,0.2,2.3-0.9,2.5-1
			c0.5-0.2,3.8,1.8,4.1,1.9c0.3,0.1,0,1.9,0.4,2.1c0.7,0.4,1.6,0.4,2.4,0.4c0.3,0,0.8,0,1.1-0.1c0.4-0.2,0.7-0.7,1.1-0.9
			c0.3-0.1,0.7-0.1,1.1,0c0.6,0.2,5.4,1.5,6,2c0.3,0.2,1.8,1,2.2,1.1c0.5,0.1,1,0.1,1.4,0.3c0.2,0.1,0.4,0.2,0.5,0.4
			c0.1,0.2,0,0.4,0.1,0.5c0.1,0.3,1.7,0.6,2,0.5c0.3-0.1,1.6-1.6,1.8-1.8c0.2-0.1,0.4-0.2,0.6-0.2c0.3-0.1,0.9,0.5,1.1,0.4
			c0.2,0,0.9-0.4,1.1-0.4c0.2,0.1,1.3,0.8,1.4,1.2c0.1,0.4,0.3,2.9,0.9,3.6c0.3,0.3,0.6,0.7,1,0.8c0.6,0.3,1.2,0.2,1.8,0.4
			c0.5,0.1,0.7,0.2,1,0.7c0.4,0.5,0.6,0.8,1.1,1.1c0.5,0.3,2.7,1.1,2.8,1.3c0.3,0.3,1.4,1.8,1.8,1.9c0.4,0.1,0.9,0.1,1.2,0.3
			c0.3,0.2,1.7,1.2,1.8,1.1c0.1-0.1,0.4-1,0.5-1.1c0.2-0.1,1.4,0.3,1.7,0.4c0.3,0.1,0.4,0.2,0.6,0.4c0.1,0.2,1.2,0.3,1.6,0
			c0.3-0.2,1.8-0.9,2.1-0.7c0.3,0.3,0.3,0.7,0.6,1c0.3,0.4,0.8,0.4,1.3,0.4c0.5,0,1.6-0.1,1.7,0c0.1,0.1,1.4,1.3,1.8,1.3
			c0.5,0,2.4,0.4,2.7-1.6c0-0.3,0.5-1.2,0.7-1.4c0.3-0.3,1-0.5,1.4-0.2c0.5,0.3,0.9,1.2,1.1,1.8c0.7,0.4,1.7,0.1,2.3,0.7
			c0.3,0.3,1.7,0.7,2.1,0.4c0.4-0.3,0.6-0.6,1.2-0.6c2.5-0.1,3.1,2,4,1.4c0.4-0.2,2.5-1.7,2.8-1.8c0.3-0.1,0.8-0.1,1.2-0.1
			c0.4,0.1,0.6,0.3,1.1,0.2c0,0,0.1,0,0.1,0c0,0,0.4,1.8,0.7,2.6C676.4,46.9,673.5,50.7,672.5,51.8z"/>
		<path class="st2" d="M780.7,87c-0.4,0.5-0.6,1.1-0.9,1.7h0c-4.4-0.9-4.6,2.6-5.2,3.1c-0.6,0.6-2.5,0.9-3.1,1.7
			c-0.6,0.8-1.6,1.9-2.8,2.7c-1.2,0.8,0.1,3.3,1,5.3c0.9,2-0.6,3.2-0.8,4.3c-0.2,1.1-0.6,2.3-0.8,4.1c0,0.2-0.1,0.3-0.1,0.4
			c-0.4,1-1.6-0.3-2.7-0.4c-1.1-0.1-0.5-0.9-0.8-1.5c-0.3-0.6-1.3,0.6-1.9,1.3c-0.6,0.7-0.6,0.5-2.7-0.5c-2.1-1-1.7-0.2-2.1-0.1
			c-0.4,0-0.9-0.2-1.5-0.5c-0.6-0.4-6.6-0.9-7.2-0.8c-0.6,0.1-0.3,0.2-0.8,0.6c-0.5,0.4-1.1,0-1.6,0.7c-0.5,0.7,0,0.1-0.9,0.3
			c-0.9,0.2-1.9,2.4-2.5,3.1c-0.6,0.7-1.2,1.3-1.7,1.3c-0.5,0-1.3,0.5-1.6,1.1c-0.3,0.6-1.2-0.2-1.6-0.4c-0.4-0.2-1.3,0.2-2.7,0.9
			c-1.4,0.7-1.6,0.1-1.9-0.6c-0.3-0.7-1.8-0.9-2.8-1.5c-0.9-0.6-1.5,0-2,0.5c-0.4,0.5-1.2-0.7-1.7-1.6c-0.5-1,0.2-1,1.6-1.7
			c1.5-0.6-1.5-2.6-2.8-3.7c-1.2-1.1-0.7-0.4-2.5-0.9c-1.8-0.6-2.3-1.2-3.2-1.5c-0.9-0.3-1.3,0.1-1.2,0.5c0,0.4,0.1,0.6-0.6,0.8
			c-0.7,0.2-2.3-0.5-3.3-1.2c-0.9-0.8-1.3-1.1-2.1-0.8c-0.8,0.3-1.3,1.7-1.7,2.5c-0.4,0.8-1.2,0.2-2.5,0.7c-1.3,0.5-1.4-0.7-1.5-1.5
			c-0.1-0.8-0.7-2-0.9-2.9c-0.2-1,0-1.4,0.6-2.7c0.4-1-0.3-1-0.9-1.1c-0.2,0-0.4,0-0.5-0.1c-0.5-0.3-0.8-1.5-0.7-1.9
			c0.2-0.4,0.1-0.5-0.5-0.7c-0.5-0.1-0.3-1-1-1.5c-0.7-0.6-0.9-1.3-0.9-1.9c-0.1-0.6-0.1-0.7-1.2-1.7c-1.1-1.1,0.1-2.7,1.5-3.8
			c1.3-1.2-1.8-3-2.5-3.9c-0.7-1-1.4-1.1-2.5-1c-1.1,0.1-1.8-0.4-2.3-1.1c-0.5-0.7-1.5-0.7-2.5-0.9c-1-0.2-2-1.9-2.8-2.8
			c-0.8-0.9-0.5-0.8-0.2-1.2c0.3-0.4,0.4-0.6,0.4-1c0-0.4-0.4-0.7,0.4-1.2c0.8-0.5,0.3-1,0.7-1.9c0.5-0.8,1.7-0.1,2,0.1
			c0.4,0.2,0.6,0,1.6-0.6c1.1-0.7,0.9,0.1,2,0.1c1.2,0-0.3-1.5-0.1-1.9c0.2-0.4-0.4-0.6,0-2.2c0.4-1.6,4.9,1,5.5,1.6
			c0.6,0.6,2.3,0.4,3.2,0c0.9-0.4,1.6-0.1,2.3,0.2c0.7,0.2,1,0.3,2.1,1.5c1.1,1.2,1.9,0.1,2.8-0.5c0.9-0.6,1.1,0.1,2.1,0.4
			c1,0.2,2-1.5,3-2.2c0.9-0.7,1.7,1.1,2.6,1.2c0.9,0.1,1,0.6,1.9,0.6c0.9,0,1.4,0.6,1.7,1.4c0.3,0.8,0.7,0.2,1.1-0.3
			c0.4-0.5,0.7,0,1.5,0.7c0.9,0.6,0.7,0.1,1.3-0.4c0.6-0.5,1.2-0.2,3.6-0.3c2.4-0.1,0.5,1,1,2c0.5,1,0.9-0.5,1-0.9
			c0.2-0.5,0.3-1.3,0.9-1.9c0.6-0.6,0.7-1.8,0.8-2.6c0-0.8,1.2-1,2.6-1.4c1.4-0.4,1-2.8,1-2.8c0.1,0,0.2,0.1,0.2,0.2
			c0.2,0.3,0.4,0.5,0.7,0.7c0.1,0.1,0.3,0.2,0.4,0.3c0.1,0.1,0.1,0.2,0.1,0.4c0,0.3-0.1,0.7,0.1,0.9c0.2,0.2,0.5,0.4,0.8,0.4
			c0.7,0.2,1.4,0.1,2.1,0.3c0.3,0.1,0.6,0.2,0.9,0.3c0.3,0.1,0.6,0.1,0.8,0.3c0.3,0.2,0.6,0.6,0.9,0.7c0.4,0.1,0.8,0.1,1.2,0.1
			c0.5,0,0.9-0.2,1.4-0.2c0.3,0,0.6,0.1,0.8,0.3c0.2,0.2,1.3,2.4,1.4,2.5c0.5,0.1,0.8-0.1,1.2-0.3c0.5-0.2,0.9-0.4,1.4-0.4
			c0.8-0.1,1.6,0.1,2.4,0.3c0.7,0.1,1.5,0.1,2.2,0.3c0.4,0.1,0.8,0.4,1.1,0.6c0.1,0.1,2.2,0.7,2.8,0.8c0.5,0,1,0,1.5-0.1
			c0.4-0.1,0.8-0.2,1.2,0c0.4,0.3,0.9,0.6,1.3,1c0.3,0.3,0.4,0.7,0.5,1c0.2,0.5,0.5,0.8,0.9,1.1c0.2,0.2-0.3,1.9,0.1,2.1
			c0.4,0.2,0.9,0.2,1.2,0.5c0.3,0.3,0.7,0.5,1.1,0.8c0.4,0.3,0.9,0,1.2-0.2c0.4-0.1,0.8-0.4,1.2-0.2c0.4,0.2,0.6,0.7,0.8,1
			c0.4,0.6,1,0.8,1.7,1.1c0.5,0.2,3.8,1.8,4.1,2.1c0.3,0.2,1.2,1.3,1.3,1.7c0.1,0.3,0.4,1.8,0.4,2.2C780.9,86.2,780.8,86.9,780.7,87
			z"/>
		<g class="st3">
			
				<image style="overflow:visible;opacity:0.71;" width="213" height="195" xlink:href="20358EC6.png"  transform="matrix(0.24 0 0 0.24 822.36 147.96)">
			</image>
			<g>
				<path class="st4" d="M857.2,175c0,0.4,0.2,1.5-0.8,1.9c-1,0.3-1,0.4-1.3,0.9c-0.3,0.5,0.4,1.1-0.6,0.8c-1-0.2-2.8-1.4-3-0.6
					c-0.2,0.7,0.3,2.3-0.5,1.4c-0.8-0.9-0.2-1.9-1.3-1.9c-1,0-4.6,0.6-5-0.2c-0.4-0.8,0.3-1-0.8-1.4c-1.1-0.4-1.1,0-1.4-0.3
					c-0.4-0.3-0.3-0.5-1-0.6c-0.7,0-1.4,0-1.5-0.4c0-0.5,0.2-0.9-0.3-1c-0.5-0.1-1,0-1.3-0.4c-0.2-0.2-0.7-0.7-0.9-1
					c0.1-0.3,0.1-0.7,0.2-1.1c0.1-0.7,2.3-0.5,3-0.5c0.7,0,0.2-0.4-0.6-0.9c-0.8-0.5,0-0.5,0.6-0.6c0.5-0.1,0.5-0.6,0.6-1.4
					c0.1-0.7,0.3,0,0.9,0.6c0.6,0.6,0.3-1.5,0.3-2.3c0-0.9-0.5-0.5-1.6-0.5c-1.1,0-1.1-1.1-1.2-1.7c-0.1-0.6,1.2-0.3,2.1,0.1
					c1,0.4,1.4-0.8,2.3-1c0.8-0.2,1.6,0.6,2.2,0.6c0.6,0,0.6,0.1,1,0.5c0.4,0.4-0.1,0.8-0.7,1.4c-0.6,0.6-0.1,1.3,0.2,1.9
					c0.3,0.5,0.6,0.9,1.2,1c0,0,0.1,0,0.1,0c0.7,0.7,2.5,2.6,2.5,3c-0.1,0.5,0.2,1.9,0.6,1.8c0.4,0,2.4,0.1,2.7,0.4
					c0.3,0.3,1.8,0.7,2.5,0.3c0.7-0.4,1.8-1.4,2-0.9C858.6,173.5,857.2,174.5,857.2,175z"/>
			</g>
		</g>
		<path class="st2" d="M770.2,123.9c-0.7,0.5-1,3.6,0,5.7c0.2,0.4,0.3,0.8,0.3,1.2c-0.1,1.3-1.6,1.9-2.1,2.6c-0.7,0.9-0.8,2.1-1,3.2
			c-0.2,1-2.2,2.3-2.5,2.8c-0.3,0.4-0.5,0.7-1.2,0.8c-0.7,0-0.9,0.2-0.8,0.7c0,0.5-0.5,0.6-0.5,1.6c0,1-0.2,0.5-0.5,1.2
			c-0.4,0.7,0.2,0.8,0.5,1.8c0.3,1-0.9,2.1-1.4,2.3c-0.6,0.2-0.6,0.2-1.2,0.9c-0.6,0.7-1.7,0.6-2.3,1.7c-0.5,0.9,1.1,2,1.5,2.8
			c0.1,0.1,0.1,0.2,0.1,0.3c0,0.8-0.6,0.6-1.5,0.6c-0.8,0-0.7,0.3-0.9,0.7c-0.2,0.5-0.2-0.3-1.4-0.1c-1.2,0.1-1,1.2-1.7,2.1
			c-0.7,0.9-2,0.6-2.9,1.4c-1,0.8-1.2,0.2-2.9,0.8c-1.6,0.6-1.8,0.3-3.5,1.3c-1.7,1-1.9,1-2.5,1c-0.6,0-1.4,0.1-2.1,1.1
			c-0.6,1-0.8,0-1.4-0.4c-0.7-0.4-1.1,0.2-1.3,0.4c-0.2,0.2-5.1-0.2-5.9-0.3c-0.8-0.1-1.7,0.9-2,1.7c-0.3,0.7-3.1-0.4-3.7-1.2
			c-0.6-0.8-1.2,0.1-1.9,0.6c-0.8,0.5-1,0-1.5-0.3c-0.5-0.2,0,0-0.8,0.2c-0.8,0.2-0.4-0.2-0.7-0.7c-0.3-0.5-1.1-0.5-2-0.6
			c-0.9-0.1-0.8,0.2-0.4,0.9c0.4,0.7-2.2,0.9-2.9,1.2c-0.7,0.3-1.9,0.4-3.1,0c-1.3-0.4-1.3-0.8-1.8-1.2c-0.5-0.5-1.1-0.4-1.1-0.4
			c0.1-0.4-0.1-1.1-0.1-1.6c0-1,0.2-1,0.5-1.4c0.3-0.4-0.1-1-0.3-1.5c-0.3-0.5,0.1-0.8,0.3-1.2c0.2-0.5-0.4-1-0.4-1.5
			c0-0.5-0.7-1.6-1-2.1c-0.3-0.5-0.5-0.2-1.1-0.1c-0.6,0.2-0.5-0.2-0.9-0.4c-0.4-0.2-0.8,0.2-1.3,0.5c-0.5,0.3-1-0.3-1.7-0.9
			c-0.7-0.6-1.5-0.6-2.7-0.7c-1.3-0.1-2.2-2.3-2.9-2.7c-0.8-0.4-1.1-0.1-1.8,0.4c-0.7,0.5-1-0.6-1.6-1.3c-0.6-0.7-0.5-2.9-0.8-4.1
			c-0.3-1.2-2.4-1.1-3.3-1.4c-1-0.3-0.7,0.7-0.8,1.3c-0.1,0.6-0.8,0.4-1.7,0.5c-0.9,0.1-1.3-0.3-1.9-0.8c-0.6-0.5-2.4-0.6-3.2-0.8
			c-0.8-0.2-0.4-0.3-0.3-0.6c0.1-0.4-0.6-0.8-0.8-0.9c-0.2-0.1-0.2-0.8,0.4-1.6c0.6-0.8,0.2-2.4,0.2-2.4c0.6-0.1,1.4,1.1,2.2,1.4
			c0.9,0.3,1.5-1.1,1.9-1.7c0.3-0.6-0.2-0.7,0.5-1.4c0.8-0.7-0.1-1.3-0.7-1.7c-0.6-0.4,0-2.2,0.1-2.8c0.1-0.6,0.3-0.9-0.4-1.7
			c-0.7-0.9,1.4-3.1,2.1-4c0.7-0.9,1.2-1.1,1.6-2.3c0.5-1.1,2-3.8,2.6-4.5c0.6-0.8,1-1.8,1.7-2.5c0.7-0.7,1.1-1.4,2.2-2.1
			c1.1-0.8,0.1-1.6-0.2-1.9c-0.2-0.3,0.2-0.9,0.6-1.2c0.4-0.4,0.5-1.8,0.5-2.4c0.1-0.6,0.5-0.6,1.4-0.9c0.8-0.3,0.5-0.9,0.4-2.1
			c-0.1-1.2,1.4-1.4,2-1.7c0.6-0.3,0.4-0.6,0.4-1.8c0-1.2,1.4-0.8,2.8-0.7c1.4,0.1,2.9-1.3,2.9-1.3c0.6,0.1,1.3,0.1,0.9,1.1
			c-0.6,1.3-0.8,1.7-0.6,2.7c0.2,1,0.8,2.1,0.9,2.9c0.1,0.8,0.2,2,1.5,1.5c1.3-0.5,2.2,0.1,2.5-0.7c0.4-0.8,0.9-2.3,1.7-2.5
			c0.8-0.3,1.2,0.1,2.1,0.8c0.9,0.8,2.6,1.5,3.3,1.2c0.7-0.2,0.6-0.4,0.6-0.8c0-0.4,0.3-0.8,1.2-0.5c0.9,0.3,1.4,0.9,3.2,1.5
			c1.8,0.6,1.2-0.2,2.5,0.9c1.2,1.1,4.2,3.1,2.8,3.7c-1.5,0.6-2.1,0.7-1.6,1.7c0.5,1,1.2,2.1,1.7,1.6c0.4-0.5,1-1.1,2-0.5
			c0.9,0.6,2.4,0.8,2.8,1.5c0.3,0.7,0.6,1.3,1.9,0.6c1.4-0.7,2.3-1.1,2.7-0.9c0.4,0.2,1.3,1,1.6,0.4c0.3-0.6,1.1-1,1.6-1.1
			c0.5,0,1.1-0.7,1.7-1.3c0.6-0.7,1.5-2.9,2.5-3.1c0.9-0.2,0.5,0.4,0.9-0.3c0.5-0.7,1.1-0.3,1.6-0.7c0.5-0.4,0.2-0.6,0.8-0.6
			c0.6-0.1,6.6,0.5,7.2,0.8c0.6,0.4,1.1,0.6,1.5,0.5c0.4,0,0-0.9,2.1,0.1c2.1,1,2.1,1.2,2.7,0.5c0.6-0.7,1.6-1.9,1.9-1.3
			c0.3,0.6-0.3,1.3,0.8,1.5c1,0.1,2.2,1.4,2.7,0.4c1,1.2,0.7,2.4,1.6,3.6c0.9,1.2,0,1.6-0.2,2.9c-0.1,1.3,3.4,2.3,5.2,3.1
			C776.3,120.8,770.9,123.4,770.2,123.9z"/>
		<path class="st2" d="M830,158.6c0.1,0.8-2.2,0.2-3.1-0.2c-0.8-0.4-0.4,0.3-0.5,0.7c-0.1,0.4-0.8,0.4-1.2,0.7
			c-0.4,0.3,0.2,0.7,0.7,0.9c0.5,0.2,0.4,0.6,0.5,1c0.1,0.4-0.4,1.1-0.7,1.8c-0.2,0.8-0.8,1.3-1.2,2.2c-0.5,0.9-0.8,1.6-0.2,2.5
			c0.1,0.2,0.3,0.3,0.4,0.4c-0.8,1.8-1.9,1.7-4.3,1.8c-2.5,0.1-3.6-2.2-4.2-3.1c-0.7-0.9-0.9,0.3-1.5,0.8c-0.7,0.5-1.2,0.6-1.6,0.6
			c-0.4,0-0.9,0.1-1.1,0.8c-0.2,0.6-0.8,0-1.3-0.2c-0.5-0.2-1,0.3-1.4,0.8c-0.4,0.5-1.2-0.3-1.9-0.2c-0.7,0.1-0.8-0.3-1.4-1
			c-0.6-0.7-2.7,0.9-3.8,1.2c-1.1,0.3-3.2,0.3-4.9-0.3c-1.6-0.6-4.2,0.2-4.8,0.3c-0.6,0.1-2.4-0.5-3.4-0.5c-1,0-1.1-0.3-1.5-1.3
			c-0.1-0.2-0.2-0.2-0.3-0.2c0-0.9-0.6-1.1-1.5-1.2c-0.9-0.1-1.7-0.5-2.3-1c-0.6-0.4-0.8-0.1-1.7-0.3c-1-0.2-1,0-1.6-0.4
			c-0.6-0.4-1,0.2-2,0.3c-1,0.1-1.4-0.1-1.9-0.3c-0.5-0.2-1-0.5-2.9-1.2c-1.9-0.7-0.6-0.8-0.7-2c-0.1-1.2-0.8-0.5-1.4-0.3
			c-0.6,0.2-1.2-0.6-2.1-1.2c-0.8-0.7-0.4-0.7-0.4-1.8c0-1.1-0.6-0.7-1.2-0.9c-0.5-0.2-0.4-0.3-0.2-1.7c0.2-1.5-1.8-1.1-3.1-1
			c-1.3,0-1.2-0.6-2.2-1.9c-1-1.3-3.2-0.2-3.2-0.2c-0.4-0.8-2-1.8-1.5-2.8c0.6-1.1,1.7-1,2.3-1.7c0.6-0.7,0.6-0.7,1.2-0.9
			c0.6-0.2,1.7-1.3,1.4-2.3c-0.3-1-0.9-1.2-0.5-1.8c0.4-0.7,0.5-0.2,0.5-1.2c0-1,0.6-1.1,0.5-1.6c0-0.5,0.1-0.6,0.8-0.7
			c0.7,0,0.9-0.3,1.2-0.8c0.3-0.4,2.4-1.7,2.5-2.8c0.2-1,0.3-2.3,1-3.2c0.5-0.7,2-1.4,2.1-2.6c0.1,0,0.8,0,1.4,1.2
			c0.6,1.2,1.2,2,1.9,2.1c0.7,0,2.7,2.9,2.5,1.6c-0.2-1.4,0-2.4,1.5-2.2c1.5,0.2,4.8,0.6,3.9,1.6c-0.9,1-0.6,2.6,0.2,2.7
			c0.8,0.1,1.9,1.7,2.6-0.4c0.7-2.1,0.7-4.3,1.5-3.6c0.8,0.7,2,0.9,2.5-0.1c0.6-0.9-0.8-4,0.2-3.8c1,0.2,2.3,1.1,3.2,0.7
			c0.8-0.4,0.9-0.1,2.2-0.7c1.3-0.6,1.9-1,2.5-1.5c0.5-0.5,1.3-1.9,2.3-0.2c1,1.7,2,2.9,2.5,4.7c0.5,1.8,1.8,2.6,1.2,3.3
			c-0.6,0.8-1.8,0.9-0.7,1c1.1,0.2,1.2,2,1.6,0.7c0.4-1.3,1.7-4.8,2.7-3.5c1,1.4,1.4,0.1,2.5,1.6c1.1,1.6,3.1,0.9,2.7,2.7
			c-0.4,1.8-1.6,3.7-0.5,3.6c1.1-0.2,0.6,1.6,1.4,1c0.8-0.6,1.5-0.8,1.6-0.2c0.1,0.6,0.9,2,2.1,0.6c1.2-1.4,1.2-1.4,3.5-1
			c2.3,0.4,5.3,0.7,5.3,0.7c0.1,0.9,0.8,1.7,1,2.2c0.3,0.6,0.3,2.2,0.2,3.1c-0.1,0.9,0.8,1.5,1.1,2c0.3,0.5,0.2,0.8,0.4,1.4
			c0.2,0.6,1.5,1.5,1.9,1.8c0.4,0.3,0.2,0.8,0.2,1.4c0,0.6,0.3,0.4,0.5,1C830.3,156.8,829.9,157.8,830,158.6z"/>
		<g>
			<g class="st5">
				<g>
					<path class="st6" d="M637.5,112.9l-0.3-0.6c0,0,0.2-0.1,0.5-0.2l0.3,0.6C637.7,112.8,637.5,112.9,637.5,112.9z"/>
				</g>
				<g>
					<path class="st6" d="M676.1,44.9l-0.3,0.1l-0.3,0.1c0.1,0.4,0.2,0.8,0.3,1l0.7-0.2C676.3,45.6,676.2,45.3,676.1,44.9z
						 M675.9,47l-0.3-0.1c-0.1,0.3-0.3,0.6-0.5,0.9l0.3,0.2l0.3,0.2c0.2-0.4,0.4-0.7,0.5-1L675.9,47z M674.8,48.8l-0.3-0.2
						c-0.2,0.3-0.4,0.6-0.6,0.9l0.3,0.2l0.3,0.2c0.2-0.3,0.4-0.6,0.6-0.9L674.8,48.8z M673.3,50.3c-0.2,0.3-0.5,0.6-0.7,0.8l0.3,0.2
						l0.3,0.2c0.2-0.2,0.4-0.5,0.7-0.8L673.3,50.3z M672.2,52.1l-0.3-0.2c-0.2,0.3-0.4,0.6-0.6,0.9l0.3,0.2l0.3,0.2
						c0.2-0.3,0.4-0.6,0.6-0.8L672.2,52.1z M671,53.9l-0.3-0.2c-0.2,0.3-0.3,0.6-0.5,1l0.3,0.1l0.3,0.1c0.1-0.3,0.3-0.6,0.5-0.9
						L671,53.9z M670.1,55.8l-0.3-0.1c0,0.1-0.1,0.2-0.1,0.3c0,0.2-0.2,0.3-0.3,0.5l0.2,0.2l0.3,0.2c0.2-0.3,0.4-0.5,0.5-0.8
						c0-0.1,0-0.2,0.1-0.2L670.1,55.8z M668.8,57.3l-0.2-0.3c-0.3,0.1-0.6,0.3-0.9,0.4l0.1,0.3l0.1,0.3c0.4-0.1,0.7-0.3,1-0.4
						L668.8,57.3z M686868.8,58l-0.1-0.3c-0.2,0-0.4,0.1-0.6,0.1c-0.2,0-0.3,0-0.4,0.1l0.1,0.3l0.1,0.3c0.1,0,0.2,0,0.4-0.1
						c0.2,0,0.5-0.1,0.7-0.1L686868.8,58z M664.8,58.5l-0.2-0.3c-0.2,0.2-0.4,0.3-0.6,0.5c-0.1,0.1-0.2,0.2-0.2,0.2l0.2,0.3l0.2,0.3
						c0.1-0.1,0.2-0.2,0.3-0.3c0.2-0.2,0.3-0.3,0.5-0.4L664.8,58.5z M663.1,59.8l-0.1-0.3c-0.1,0.1-0.3,0.1-0.5,0.1
						c-0.2,0-0.3,0.1-0.5,0.1l0.1,0.7c0.1,0,0.3-0.1,0.5-0.1c0.2,0,0.4-0.1,0.6-0.2L663.1,59.8z M661,60.2l-0.1-0.3
						c-0.4,0.1-0.7,0.3-1,0.5l0.2,0.3l0.2,0.3c0.3-0.2,0.5-0.3,0.9-0.4L661,60.2z M659.3,61.4l-0.2-0.2c-0.1,0.1-0.1,0.1-0.2,0.2
						c-0.2,0.2-0.4,0.5-0.5,0.7l0.3,0.1l0.3,0.1c0.1-0.2,0.2-0.3,0.3-0.5c0.1-0.1,0.1-0.1,0.2-0.2L659.3,61.4z M659,63.1l-0.3,0.2
						l-0.3,0.2c0.2,0.3,0.4,0.6,0.8,0.9l0.2-0.3l0.2-0.3C659.3,63.5,659.1,63.3,659,63.1z M660.5,64.3l-0.2,0.3l-0.2,0.3
						c0.1,0.1,0.1,0.1,0.1,0.3l0,0.2c0,0.1,0,0.1,0,0.2v0l0.3,0l0.3,0c0-0.1,0-0.2,0-0.2l0-0.2C660.9,64.9,660.8,64.6,660.5,64.3z
						 M660.9,66.6l-0.3,0l-0.3,0c0,0.3,0,0.7,0,1.1l0.3,0h0.3C660.9,67.3,660.9,66.9,660.9,66.6z M660.9,69.3c0-0.2,0-0.4,0-0.6
						l-0.3,0l-0.3,0c0,0.2,0,0.5,0,0.6c0,0.2,0.1,0.4,0.2,0.6l0.3-0.2l0.3-0.2C660.9,69.5,660.9,69.4,660.9,69.3z M661.9,69.9
						l-0.1,0l-0.1,0.3l-0.1,0.3l0.1,0c0.3,0.1,0.6,0.2,0.8,0.3l0.1-0.3l0.1-0.3C662.5,70.1,662.2,70,661.9,69.9z M663.2,71.2
						l-0.3-0.1c-0.1,0.2-0.3,0.4-0.6,0.7l0.2,0.3l0.2,0.3c0.4-0.4,0.6-0.7,0.8-0.9L663.2,71.2z M661.7,72.7l-0.2-0.3l-0.4,0.3
						c-0.1,0.1-0.3,0.2-0.4,0.3l0.2,0.3l0.2,0.3c0.1-0.1,0.3-0.2,0.4-0.3l0.4-0.3L661.7,72.7z M660.1,74.1l-0.2-0.2
						c-0.2,0.2-0.3,0.3-0.4,0.4c-0.1,0.2-0.2,0.4-0.3,0.6l0.3,0.1l0.3,0.1c0.1-0.1,0.1-0.3,0.2-0.4c0.1-0.1,0.2-0.2,0.3-0.3
						L660.1,74.1z M659.7,75.9l-0.3,0l-0.3,0c0,0.3,0.1,0.7,0.3,1.1l0.3-0.1l0.3-0.1C659.8,76.5,659.7,76.2,659.7,75.9z M660.4,77.9
						L660.4,77.9L660,78l-0.3,0.1l0,0.1c0.1,0.3,0.3,0.6,0.4,0.9l0.3-0.1l0.3-0.1C660.6,78.5,660.5,78.2,660.4,77.9z M661.2,79.8
						l-0.7,0.2c0.1,0.4,0.2,0.7,0.3,1l0.3-0.1l0.3-0.1C661.4,80.5,661.3,80.2,661.2,79.8z M662.6,80.9l-0.2-0.3
						c-0.2,0.1-0.3,0.2-0.5,0.3c-0.1,0.1-0.3,0.2-0.4,0.3l0.2,0.3l0.2,0.3c0.2-0.1,0.3-0.2,0.5-0.3c0.1-0.1,0.3-0.2,0.4-0.3
						L662.6,80.9z M663.8,80.8l-0.3,0.2l-0.3,0.2c0.2,0.2,0.3,0.5,0.4,0.8l0.3-0.1l0.3-0.1C664.3,81.4,664,81.1,663.8,80.8z
						 M664.1,83l-0.3-0.1c-0.1,0.2-0.3,0.5-0.6,0.7l0.2,0.3l0.2,0.3c0.3-0.3,0.6-0.6,0.7-0.9L664.1,83z M662.6,84.5l-0.2-0.3
						c-0.3,0.2-0.6,0.3-0.8,0.4c0,0-0.1,0-0.1,0l0.1,0.3l0.1,0.3c0,0,0,0,0,0c0.3-0.1,0.6-0.2,1-0.4L662.6,84.5z M661.7,85.7
						l-0.3,0.1l-0.3,0.1c0.1,0.3,0.3,0.6,0.5,1l0.3-0.2l0.3-0.2C661.9,86.1,661.8,85.9,661.7,85.7z M662.8,87.4l-0.3,0.2l-0.3,0.2
						c0.2,0.3,0.3,0.6,0.3,0.8l0.3-0.1l0.3-0.1C663.2,88.1,663,87.8,662.8,87.4z M663.3,89.6l-0.3,0l-0.3,0c0,0.3,0.1,0.7,0.1,1.1
						l0.3-0.1l0.3-0.1C663.4,90.2,663.3,89.9,663.3,89.6z M663.9,92c-0.1-0.1-0.1-0.3-0.2-0.4l-0.3,0.1l-0.3,0.1
						c0.1,0.2,0.1,0.4,0.2,0.5c0,0,0,0.1-0.1,0.1l0.3,0.2l0.3,0.2c0.1-0.2,0.2-0.4,0.2-0.6C663.9,92.2,663.9,92.1,663.9,92z
						 M662.7,93.3l-0.2-0.3c-0.2,0.2-0.5,0.4-0.9,0.6l0.2,0.3l0.2,0.3c0.4-0.2,0.6-0.4,0.9-0.6L662.7,93.3z M660.9,94.5l-0.2-0.3
						l-0.2,0.1c-0.2,0.1-0.4,0.3-0.6,0.3c-0.1,0-0.1,0.1-0.2,0.2L660,95l0.2,0.3c0,0,0.1-0.1,0.1-0.1c0.1-0.1,0.3-0.2,0.5-0.3
						l0.2-0.1L660.9,94.5z M659.3,95.8l-0.3-0.2c-0.2,0.2-0.3,0.4-0.5,0.6l-0.1,0.2l0.3,0.2l0.3,0.2l0.1-0.2
						c0.2-0.2,0.4-0.4,0.5-0.6L659.3,95.8z M657.9,97.4l-0.3-0.2c-0.2,0.2-0.4,0.5-0.7,0.8l0.3,0.2l0.3,0.2c0.3-0.3,0.5-0.5,0.7-0.8
						L657.9,97.4z M656.5,99l-0.3-0.2c-0.2,0.2-0.5,0.5-0.7,0.7l0.2,0.3l0.2,0.3c0.3-0.3,0.5-0.5,0.8-0.8L656.5,99z M655,100.4
						l-0.2-0.3c-0.2,0.2-0.5,0.4-0.8,0.7l0.2,0.3l0.2,0.3c0.3-0.2,0.6-0.5,0.8-0.7L655,100.4z M653.3,101.8l-0.2-0.3
						c-0.3,0.2-0.6,0.4-0.8,0.6l0.2,0.3l0.2,0.3c0.3-0.2,0.6-0.4,0.9-0.6L653.3,101.8z M651.6,103l-0.2-0.3
						c-0.3,0.2-0.6,0.4-0.9,0.6l0.4,0.6c0.3-0.2,0.6-0.4,0.9-0.6L651.6,103z M649.8,104.1l-0.2-0.3c-0.3,0.2-0.6,0.4-0.9,0.5
						l0.3,0.6c0.3-0.2,0.6-0.4,0.9-0.5L649.8,104.1z M648,105.2l-0.2-0.3c-0.3,0.2-0.6,0.3-0.9,0.5l0.2,0.3l0.2,0.3
						c0.3-0.1,0.6-0.3,0.9-0.5L648,105.2z M646.1,106.1l-0.1-0.3c-0.3,0.1-0.5,0.2-0.7,0.3c-0.1,0-0.2,0.1-0.3,0.1l0.1,0.3l0.1,0.3
						c0.1,0,0.2-0.1,0.2-0.1c0.2-0.1,0.5-0.2,0.7-0.3L646.1,106.1z M644.8,107.5c0,0,0-0.1,0-0.1l-0.3-0.1l-0.3-0.1
						c0,0.1,0,0.2,0,0.2c0,0.3,0.1,0.6,0.2,0.9l0.3-0.1l0.3-0.1C644.9,108,644.8,107.7,644.8,107.5z M645.2,109.3l-0.3,0.1l-0.3,0.1
						c0,0.1,0,0.2,0,0.3v0.1c0,0.2,0,0.4-0.1,0.5l0.3,0.1l0.3,0.1c0.1-0.2,0.1-0.4,0.1-0.7c0,0,0-0.1,0-0.1
						C645.2,109.6,645.2,109.4,645.2,109.3z M642.8,110.2l0,0.2l0,0.1l0,0.4c0.4,0,0.8,0,1,0l0-0.3l0-0.3
						C643.6,110.2,643.2,110.2,642.8,110.2z M641.7,110.7l-0.1-0.3c-0.3,0.1-0.7,0.2-1,0.3l0.1,0.3l0.1,0.3c0.4-0.1,0.7-0.2,1-0.3
						L641.7,110.7z M639.7,111.5l-0.1-0.3c-0.3,0.1-0.7,0.3-1,0.4l0.1,0.3l0.1,0.3c0.3-0.1,0.6-0.3,1-0.4L639.7,111.5z"/>
				</g>
				<g>
					<path class="st6" d="M675.2,44c-0.1-0.3-0.1-0.5-0.1-0.5l0.7-0.2c0,0,0,0.2,0.1,0.5L675.2,44z"/>
				</g>
			</g>
			<g class="st5">
				<g>
					<g>
						<path class="st4" d="M768.5,109.8c-0.3-0.1-0.5-0.2-0.5-0.2l0.3-0.6c0,0,0.2,0.1,0.4,0.2L768.5,109.8z"/>
					</g>
					<g>
						<path class="st4" d="M772.4,108.9c-0.2,0-0.5,0-0.9,0.1l0.1,0.7c0.3,0,0.6-0.1,0.8-0.1c0,0,0.1,0,0.1,0l0.1-0.7
							C772.5,108.9,772.5,108.9,772.4,108.9z M770.5,109.2c-0.2,0-0.4,0.1-0.5,0.1c-0.1,0-0.3,0-0.4,0l0,0.7c0.1,0,0.1,0,0.2,0
							c0.1,0,0.2,0,0.4,0c0.2,0,0.3-0.1,0.6-0.1L770.5,109.2z M776.9,109.5c-0.2,0-0.4,0.1-0.6,0.2l0.4,0.6c0.1,0,0.1-0.1,0.1-0.1
							c0,0,0,0.1,0,0.1l0.7-0.1C777.4,109.7,777.1,109.5,776.9,109.5z M773.6,109.7l-0.6,0.3c0.1,0.3,0.3,0.7,0.6,1l0.5-0.5
							C773.8,110.3,773.7,110,773.6,109.7z M775.5,110.3c-0.2,0.1-0.4,0.2-0.6,0.3c-0.1,0-0.1,0-0.2,0.1l0.1,0.7
							c0.1,0,0.2,0,0.3-0.1c0.2-0.1,0.5-0.2,0.7-0.4L775.5,110.3z M779.8,111.2c-0.1,0-0.2-0.1-0.3-0.1l-0.3,0.6
							c0.1,0,0.1,0.1,0.2,0.1c0.3,0.1,0.5,0.2,0.6,0.3l0.4-0.6C780.3,111.5,780.1,111.4,779.8,111.2z M776.8,111.3
							c0,0.2,0,0.3-0.1,0.4c0,0.2-0.1,0.4-0.1,0.6l0.7,0c0-0.1,0-0.3,0.1-0.5c0-0.1,0-0.3,0.1-0.5L776.8,111.3z M778.2,111.3
							c-0.1,0.1-0.2,0.2-0.3,0.3c-0.1,0.1-0.2,0.3-0.4,0.4l0.4,0.5c0.2-0.2,0.4-0.4,0.5-0.5c0.1-0.1,0.1-0.2,0.2-0.3L778.2,111.3z
							 M780.6,112.6c0,0,0,0.1-0.2,0.3c-0.1,0.1-0.2,0.2-0.2,0.3l0.6,0.4c0.1-0.1,0.1-0.2,0.2-0.3c0.2-0.3,0.3-0.5,0.3-0.8
							L780.6,112.6z M779.7,114.2c-0.2,0.4-0.3,0.7-0.3,1l0.7,0.1c0.1-0.3,0.2-0.6,0.3-0.9L779.7,114.2z M779.2,116.2
							c-0.1,0.3-0.2,0.6-0.3,0.9l0.6,0.3c0.1-0.3,0.3-0.7,0.4-1L779.2,116.2z M778.4,118c-0.1,0.2-0.3,0.5-0.4,0.6
							c0,0-0.1,0.1-0.1,0.1l0.5,0.5c0.1-0.1,0.1-0.1,0.2-0.2c0.2-0.2,0.3-0.4,0.5-0.7L778.4,118z M777.1,119.2
							c-0.3,0.1-0.6,0.3-0.9,0.3l0.2,0.7c0.4-0.1,0.7-0.2,1-0.4L777.1,119.2z"/>
					</g>
					<g>
						<path class="st4" d="M774.8,120.5C774.8,120.5,774.8,120.5,774.8,120.5l0-0.7c0,0,0,0,0,0c0.2,0,0.3,0,0.5,0l0.1,0.7
							C775.1,120.5,775,120.5,774.8,120.5z"/>
					</g>
				</g>
				<g>
					<g>
						<path class="st4" d="M811.1,138l0-0.7c0,0,0,0,0,0c0,0,0,0,0-0.1l0.7,0C811.7,137.8,811.4,138,811.1,138z"/>
					</g>
					<g>
						<path class="st4" d="M814.2,103.4c-0.3,0.2-0.5,0.5-0.8,0.7l0.5,0.5c0.3-0.2,0.5-0.5,0.8-0.7L814.2,103.4z M812.6,104.9
							c-0.1,0.1-0.3,0.3-0.3,0.4c-0.1,0.2-0.3,0.4-0.3,0.6l0.7,0.1c0-0.1,0.1-0.2,0.2-0.3c0.1-0.1,0.2-0.2,0.3-0.4L812.6,104.9z
							 M813.3,107.4c-0.2-0.2-0.4-0.4-0.5-0.7l-0.6,0.4c0.2,0.3,0.3,0.5,0.5,0.7l0.1,0.1l0.5-0.4L813.3,107.4z M814,108.6l-0.7,0.2
							c0.1,0.2,0.1,0.5,0.2,0.9l0.7-0.1C814.2,109.2,814.1,108.9,814,108.6z M814.3,110.8l-0.7,0c0,0.4,0,0.8,0.1,1.1l0.7-0.1
							C814.3,111.4,814.3,111.1,814.3,110.8z M814.8,112.4l-0.4,0.6c0.3,0.2,0.7,0.3,1.1,0.5l0.2-0.7
							C815.3,112.7,815,112.6,814.8,112.4z M816.7,113.1L816.7,113.1l-0.3,0.6l0,0c0.1,0.1,0.2,0.1,0.2,0.3c0,0.1,0,0.1,0,0.2
							l0.7,0.1c0-0.1,0-0.2,0-0.3C817.3,113.6,817.1,113.3,816.7,113.1z M816.2,115.1c-0.1,0.3-0.3,0.5-0.4,0.8l-0.1,0.1l0.6,0.3
							l0.1-0.1c0.2-0.3,0.3-0.5,0.4-0.8L816.2,115.1z M815.2,117c0,0,0,0.1-0.1,0.1c-0.1,0.3-0.2,0.6-0.2,1v0l0.7,0
							c0-0.3,0-0.5,0.1-0.7c0,0,0-0.1,0-0.1L815.2,117z M815.8,119.1l-0.7,0.2c0.1,0.4,0.2,0.7,0.4,1.1l0.6-0.3
							C816,119.7,815.9,119.4,815.8,119.1z M816.8,120.9l-0.6,0.3c0.1,0.2,0.2,0.5,0.3,0.9l0.7-0.2
							C817,121.5,816.9,121.1,816.8,120.9z M817.6,123.8c0-0.3-0.1-0.6-0.2-0.9l-0.7,0.1c0.1,0.3,0.1,0.6,0.2,0.9l0,0.2l0.7-0.1
							L817.6,123.8z M816.9,124.9c-0.1,0.1-0.2,0.2-0.4,0.4c-0.1,0.1-0.2,0.2-0.3,0.3l0.5,0.5c0.1-0.1,0.2-0.2,0.3-0.2
							c0.2-0.2,0.4-0.3,0.5-0.5L816.9,124.9z M815.4,126.4c-0.2,0.3-0.4,0.7-0.5,1l0.6,0.3c0.1-0.3,0.3-0.6,0.5-0.9L815.4,126.4z
							 M814.5,128.3c-0.1,0.3-0.3,0.6-0.4,0.8l0,0.1l0.6,0.4l0.1-0.1c0.2-0.3,0.3-0.5,0.5-0.9L814.5,128.3z M813.4,129.9
							c-0.2,0.2-0.5,0.3-0.8,0.4l0.3,0.7c0.4-0.2,0.7-0.3,1-0.5L813.4,129.9z M811.6,130.7c-0.1,0-0.1,0.1-0.2,0.1
							c-0.3,0.2-0.8,0.4-0.8,0.9l0.7,0c0,0,0-0.1,0.4-0.3c0.1,0,0.1,0,0.2-0.1L811.6,130.7z M812.5,133.1c-0.2-0.3-0.5-0.6-0.7-0.8
							l-0.5,0.5c0.2,0.2,0.4,0.4,0.6,0.7l0,0L812.5,133.1L812.5,133.1z M812,134c-0.2,0.2-0.6,0.2-0.8,0.3l0.1,0.7
							c0.4-0.1,0.8-0.2,1.1-0.4L812,134z M811.4,136c-0.1-0.3-0.3-0.6-0.3-0.8l-0.7,0.2c0.1,0.3,0.2,0.6,0.4,0.9l0,0.1l0.6-0.3
							L811.4,136z"/>
					</g>
					<g>
						<path class="st4" d="M815.4,103.3l-0.4-0.5c0.3-0.2,0.4-0.3,0.4-0.3l0.4,0.6C815.8,103,815.7,103.1,815.4,103.3z"/>
					</g>
				</g>
				<g>
					<g>
						<path class="st4" d="M768.9,107.5c-0.3-0.1-0.5-0.2-0.5-0.2l0.3-0.6c0,0,0.2,0.1,0.5,0.2L768.9,107.5z"/>
					</g>
					<g>
						<path class="st4" d="M789.9,100.8c-0.2,0.1-0.4,0.1-0.7,0.1c-0.1,0-0.2,0-0.3,0l0.1,0.7c0.1,0,0.2,0,0.3,0
							c0.3,0,0.6-0.1,0.8-0.2L789.9,100.8z M787.8,101.4c-0.2,0.1-0.3,0.2-0.4,0.4c-0.1,0.1-0.3,0.2-0.4,0.3l0.4,0.6
							c0.2-0.1,0.3-0.2,0.4-0.4c0.1-0.1,0.3-0.2,0.4-0.3L787.8,101.4z M786.1,102.5c-0.1,0-0.2,0-0.3,0.1c-0.3,0-0.5,0.1-0.8,0.2
							l0.3,0.6c0.2-0.1,0.4-0.1,0.6-0.2c0.1,0,0.3,0,0.4-0.1L786.1,102.5z M784,103.5c-0.2,0.3-0.5,0.6-0.7,0.9l0.6,0.3
							c0.2-0.3,0.4-0.6,0.6-0.8L784,103.5z M782.9,105.5l-0.2,0.5c0,0-0.1,0.1-0.2,0.1l0.3,0.6c0.3-0.1,0.5-0.3,0.5-0.5l0.2-0.5
							L782.9,105.5z M776.3,106.2l0,0.7l1.1,0.1l0.1-0.7L776.3,106.2z M778.4,106.4l0,0.7c0.4,0,0.7,0,1.1,0l0-0.7
							C779.1,106.4,778.7,106.4,778.4,106.4z M781.6,106.4c-0.3,0-0.6,0.1-1,0.1l0,0.7c0.4,0,0.8,0,1.1-0.1L781.6,106.4z
							 M775.1,106.2c-0.5,0.1-0.8,0.2-1.1,0.4l0.3,0.6c0.3-0.1,0.6-0.2,0.9-0.3L775.1,106.2z M773,107.1c-0.2,0.1-0.4,0.2-0.6,0.2
							c-0.1,0-0.2,0.1-0.4,0.1l0.1,0.7c0.2,0,0.3-0.1,0.5-0.1c0.2-0.1,0.4-0.2,0.6-0.3L773,107.1z M770.1,107.2l-0.2,0.7
							c0.4,0.1,0.8,0.2,1.1,0.2l0.1-0.7C770.8,107.4,770.5,107.3,770.1,107.2z"/>
					</g>
					<g>
						<path class="st4" d="M791.3,100.1c0,0.1-0.1,0.3-0.1,0.4l-0.6-0.3c0.1-0.2,0.1-0.3,0.1-0.3l0.3,0
							C791.1,100,791.2,100.1,791.3,100.1z"/>
					</g>
				</g>
			</g>
		</g>
	</g>
</g>
<g id="Слой_1__x28_копия_x29_">
	
		<image style="display:none;overflow:visible;" width="769" height="155" xlink:href="20358EC6.jpg"  transform="matrix(1.5605 0 0 1.5605 0 0)">
	</image>
	<path class="st7" d="M1261.1,395.5c-1.3-0.6-6.3-2.9-7-3.9c-0.8-1-0.6-1.7-0.5-2.8c0.1-1.1-0.1-2.2-0.5-3.2c-0.2-0.5-1.5-2.4-2-2.8
		c-0.3-0.3-2.9-2.2-3.2-2.7c-0.3-0.5-1.9-4.6-2.4-5.1c-0.8-1-1-3.8-4.2-5.8c-1-0.6-2-1.1-3.1-1.4c-1.4-0.3-25.3-10.1-26.1-11.3
		c-0.8-1.1-4.2-3.8-4.9-4.1c-0.5-0.2-2.1-1.4-2.6-1.6c-1-0.5-4.6-2-5-3c-0.2-0.8-0.4-1.4-1.1-2.1c-0.7-0.6-3.8-2.4-4.7-2.6
		c-2.2-0.3-5-0.9-6.3-2.9c-0.6-0.8-1.4-4.3-1.7-5.3c-0.6-1.9-0.6-4-2.2-5.4c-0.8-0.8-3.1-4.3-3.5-5.1c-0.6-1.1-0.4-2.7-0.1-3.9
		c0.2-0.6,0.5-1.3,0.8-1.8c0.4-0.6,1-1,1.5-1.6c0.6-0.8,0.6-1.6,0.4-2.5c-0.2-0.8-1.6-3.4-1.8-3.9c-0.1-0.6-0.1-1.2-0.2-1.8
		c-0.2-1.2-0.4-2.7-1.5-3.4c-1-0.6-2.2-0.6-3.3-0.5c-1,0.1-2,0.5-3,0.9c-0.7,0.3-3.4-1.6-4-2.6c-0.5-0.9-1.7-2-2.8-2.2
		c-1-0.2-1.8,0.3-2.7,0.8c-0.8,0.4-2.9,3.3-3.8,3.3c-0.8-0.1-6.1-4.5-6.4-5.2c-0.2-0.4-0.3-0.9-0.5-1.3c-0.3-0.8,0.2-1.4,0.2-2.1
		c0.1-1-0.4-2-0.6-3c-0.2-1-0.4-1.9-0.8-3c-0.3-0.8-0.8-1.4-1-2.3c-1-3.5,0.2-9.7-0.2-10.4c-0.5-1-0.7-4.3-0.7-4.9
		c0-0.7,0-1.5,0-2.2c0.1-1.4,3.3-4.5,4.4-4c1.1,0.5,2.2,1.5,3.5,1.5c1,0,3-3.8,4.2-4.3c1.2-0.4,2.4-0.4,3.5,0c1.1,0.4,1.7,1,2.8,0.5
		c1.2-0.5,2.6-1.3,3.6-2.2c0.8-0.7,2.7-4.2,3.2-5c0.5-0.7,3-3.3,4-3.8c1.4-0.7,2.5-1.8,3.8-2.7c2.1-1.4,7-6.9,7.8-7.9
		c0.7-0.9,1.8-1.3,2-2.4c0.2-1,2.4-4.7,1.4-12.5c-0.1-0.5-1-4.2-1.4-4.7c-0.7-1.2-1.2-2.8-2.6-3.3c-1.2-0.4-6.4-0.8-7.8-1.5
		c-1.2-0.7-2.3-1.3-3.6-0.8c-1.2,1.7-3.2,1.8-5.1,1.3c-2.8-0.7-7.3-6.7-8.5-7.5c-1-0.6-5-3.2-5-4.4c0-1.2,1.4-1.6,1.7-2.7
		c0.6-2.8-2.6-4-4.6-4.9c-1.3-0.5-2.8-0.3-4.1,0c-1.7,0.4-3.5,0.6-4.9,1.8c-1.3,1.1-6.2,3.6-6.9,2.3c-0.3-0.6-0.6-2.1-1.2-2.4
		c-0.4-0.2-4.4,1.5-5.5,2.7c-1.1,1.2-5.9,2.3-6.5-1.9c-0.2-0.8,0-2,0.1-2.7c0.2-1.5,1.9-4.7-0.4-5.5c-1.7-0.5-10.3,4-10.8,3
		c-0.6-1.1,0-2.7-1-3.6c-0.9-0.8-2.2-1.4-3.4-1.6c-1.2-0.2-2.8-0.3-3.7,0.3c-1.1,0.7-2,1.8-3.1,2.6c-0.5,0.3-2.5,1.5-3,2
		c-1.1,0.9-5.3-8.1-6-8.4c-0.7-0.4-1.4,0.1-2-0.1c-0.6-0.2-1-3.9-0.6-5c0.2-0.6,0.4-3.1,0.3-3.7c-0.2-1-1-2.4-1.9-2.8
		c-1.2-0.6-7.5-1-9-1.3c-1.4-0.4-5.5,1-6.3,1c-0.7,0-3-1.5-3.8-1.4c-0.5,0.1-4.7,0.9-4.9,0.4c-0.2-0.7-4-3.4-4.5-3.7
		c-0.4-0.3-3-4-3.1-4.7c-0.1-0.6-0.2-2.7-0.3-3.1c-1.3-2.7-17.6-11.2-18.7-11.8c-0.9-0.5-1.9-0.5-2.9-1c-1.1-0.6-2.4-1.5-3-2.6
		c-0.6-1-1.8-2.1-1.9-3.3c-0.1-1.5,0.2-3.1,1-4.5c0.6-1,4.8-4.2,5.2-5.4c0.3-1,0.3-2.3,0.3-3.5c0-1-0.3-2.6,0.6-3.3
		c0.8-0.6,2.2-0.5,3-0.2c1.3,0.6,2.2,1.3,3.8,1.4c1.2,0,1.4-0.9,2.2-1.8c0.7-0.9,1.7-1.9,2.9-2c1.4-0.2,2.1,0.8,3.4,1.2
		c1,0.3,2.6,0,3.2-0.8c0.4-0.5,0.6-1.3,0.8-1.9c0.1-0.6,0.9-7,0.6-7.6c-0.2-0.6-0.7-0.9-0.9-1.5c-0.3-1.3,0.6-6,0.7-7.1
		c0.2-1.2-0.2-2.3-0.1-3.5c0-2.7,0.7-5.5,1.6-7.9c1.1-2.8,2.4-5.5,2.9-8.5c0.2-1.6,0.7-3.1,0.5-4.8c-0.1-0.9-0.7-1.6-0.9-2.4
		c-0.2-1.1,0.6-1.9,1-2.9c0.3-0.6,0.4-1.4,0.5-2c0.1-1.9-2.9-2.8-4.4-2.5c-1.4,0.3-2.5,0.8-3.6,1.8c-0.6,0.6-1.5,1.2-2.3,1.4
		c-0.6,0.2-1.3,0.1-1.9,0.1c-1.4,0-4.9-2.5-5.1-3.7c-0.1-0.7-0.2-1.2-0.9-1.7c-0.6-0.4-1.5-1-2.2-1.2c-0.6-0.2-1.1,0.2-1.7,0.4
		c-0.9,0.4-4.1,1.4-4.6,1.1c-0.6-0.3-1-1.1-1.7-1.4c-0.3-0.1-2.9,0-3.7-0.2c-1.6-0.3-2.2-1.8-3.1-3c-0.7-0.9-1.6-1.5-2.3-2.3
		c-0.6-0.7-0.9-1.8-1.4-2.6c-0.5-0.8-1.4-2-2.7-1.7c-1.4,0.3-2.5,1.5-4,1.6c-0.5,0.1-1.1,0.1-1.5-0.2c-0.5-0.3-0.7-1.3-1.2-1.5
		c-0.8-0.4-2.4,1.1-3.1,1.4c-1.2,0.6-2.8,0.9-4,0.9c-1.4,0.1-2.6-0.5-3.9-0.8c-1.2-0.3-2.3-1.1-3.6-0.8c-1.2,0.2-2.4,0.4-3.7,0.4
		c-1.3,0-2.4-0.1-3.5-0.7c-0.9-0.5-1.8-1-3-0.6c-0.8,0.2-1.3,1-2,1.4c-0.7,0.5-1.6,0.8-2.1,1.5c-0.8,1-1.4,2.1-2.4,3
		c-0.9,0.8-2.3,0.6-3.4,0.6c-1.2-0.1-1.8-0.7-2.3-1.8c-1.3-2.3-3-4.7-3-7.5c0-1,0.1-2.6-0.7-3.2c-0.8-0.6-1.9-0.7-2.8-1.1
		c-0.1,0-2.2-1.5-2.9-2.2c-0.7-0.7-0.5-2-0.5-3c0-1.4-0.8-2.4-2.2-2.7c-1.1-0.3-4.3-1.6-4.8-1.9c-0.6-0.4-0.5-0.6-0.5-1.4
		c0-1.4-4.7-7.6-5.3-8.5c-0.3-0.6-2.1-1.4-2.6-1.8c-0.5-0.4-1.5-2.7-2.1-3.1c-0.7-0.4-1.6-0.5-2.2-1.1c-0.4-0.4-2.3-3.7-3.1-4.7
		c-0.8-1-1.7-1.8-2.6-2.7c-0.6-0.7-1.4-2-2.6-1.6c-1.5,0.6-2,2.2-3.8,2.2c-1.7,0-2.7-1-4-1.9c-1-0.7-2.3-0.7-3.4-0.1
		c-1,0.6-1.7,1.7-2.7,2.1c-0.8,0.4-4.3,0.7-5.2,0.7c-1.7,0-2.1-0.7-2.8-2.1c-1.1-2.1-4-3.6-6.1-4.8c-1.3-0.7-4.9-3.9-5.6-4.5
		c-1.5-1.4-4.3-2.4-6.3-2.6c-2.5-0.2-5-0.5-7.4,0.2c-2.7,0.7-2.9,11.9-7.8,17.6c-0.3,0.4-1,0.7-1.5,1c-0.9,0.6-1.8,1.8-2.3,2.7
		c-0.5,1-2.5,5.1-2.6,6.3c-0.2,1.2-0.2,2.5-0.2,3.8c0,1.1,0.2,5-3.1,4.2c-0.9-0.2-4.7-2.5-5.3-3.5c-0.6-1-1-2.1-1.4-3.3
		c-0.5-1.5-1.5-3.1-1.7-4.7c-0.1-1.3,0.3-2.7-0.3-3.9c-0.6-1.2-2.1-1.8-2.9-2.7c-1.9-2.2-0.4-5.2-1.2-7.8c-0.7-2.4-5.7-7-6.3-7.4
		c-1-0.7-2.4-0.6-3.5-0.7c-1.8-0.3-3.7-1-5.5-0.7c-1.6,0.2-3.8,3.3-8.5,1.5c-0.8-0.3-1.4-0.8-2.3-0.9c-0.7-0.1-4.8,1-6.1,0.5
		c-1.2-0.4-3.9-3.5-4.6-3.7c-0.6-0.1-4.9,0.7-6.3,1.2c-1,0.3-2.7,1.3-3,2.4c-1.1,3.8,2.7,9.4,2.5,10.9c-0.4,2.3-14.7-1.3-16.3-1.5
		c-1.3-0.1-2.2-1-3.5-0.6c-0.5,0.2-0.8,0.5-1.2,0.8c-0.6,0.4-4.4,1.4-5.5,0.3c-1.2-1.1-6.7-1.5-8-1.8c-0.7-0.2-1.4-0.6-2.1-0.7
		c-2.3-0.5-3.7,2.1-4.8,3.7c-0.6,0.9-7,4.2-7.6,4.8c-0.7,0.7-2.3,4.3-2.8,4.6c-1.1,0.6-2.1,0.5-2.4,1.9c-0.3,1.4-0.2,2.7-0.3,4.1
		c-0.2,3.1-1.6,5.2-1.9,4.3c-0.9,0.6-8.7,2.6-8.9,3.3c-0.3,1.1-4,3.4-5.1,3.4c-3.2,0-6.1-2-9.4-1.4c-1.1,0.2-15.6,4.8-16.5,5.1
		c-1.3,0.6-2.1,1.3-2.5,2.9c-0.4,1.5-0.9,2.9-1.5,4.4c-0.5,1.2-1.5,1.6-2.6,2.5c-1,0.8-1.7,1.9-3.1,1.7c-0.3-0.1-1.8-1-1.8-1
		c-0.3-0.2-0.6-0.5-0.8-0.7c-1.1-1-2.4-1.5-3.7-2.2c-3.3-1.5-13.4-5.3-15-6.4c-1.1-0.8-1.9-1.4-3.4-0.9c-1.1,0.4-2,1.5-3.3,1.1
		c-0.7-0.2-1-0.8-1.4-1.3c-0.4-0.5-0.7-0.6-1.3-0.9c-1.1-0.5-2.3-0.2-3.4,0.2c-0.5,0.2-0.8,0.6-1.3,0.7c-0.5,0.1-1.3,0-1.8-0.1
		c-1.1-0.1-2.4,0-2.5-1.3c-0.2-1.4,0.2-2.9,0.1-4.4c-0.8-0.2-6.4-3.4-6.6-3.9c-0.3-1,5.6-5.8,6.5-6.4c1-0.7,0.7-1.8,0.9-2.9
		c0.2-1.4,1.9-4.7,2.3-5.4c1-1.7,1.7-3.5,2.8-5.1c0.2-0.4,0.8-2.6,0.8-3.1c0-1.2-0.8-5.6-1.2-6.7c-0.4-1-3.3-4.4-4.2-5.1
		c-0.9-0.8-11.2-5.9-12.7-6.4c-2.2-0.8-4-1.4-5.3-3.4c-0.7-1.1-1.3-2.5-2.6-3.2c-1.2-0.7-2.4,0-3.5,0.5c-1.2,0.5-2.7,1.5-3.8,0.6
		c-1.1-0.9-2.3-1.6-3.3-2.5c-1-0.9-2.5-0.9-3.8-1.5c-1.3-0.6,0.5-5.7-0.2-6.4c-1.2-1.1-2.2-2-2.8-3.5c-0.5-1-0.9-2.3-1.7-3.1
		c-1.1-1.1-2.6-2.1-3.9-3c-1.1-0.8-2.4-0.3-3.5,0c-1.4,0.4-3.1,0.3-4.6,0.3c-1.9-0.1-8.3-2-8.7-2.4c-0.9-0.6-2.3-1.5-3.5-1.8
		c-2.3-0.6-4.5-0.6-6.8-1c-2.4-0.3-4.8-1-7.3-0.8c-1.6,0.2-3.1,0.6-4.5,1.3c-1.2,0.6-2.3,1.3-3.7,0.9c-0.2-0.4-3.5-7.2-4.2-7.7
		c-0.6-0.6-1.8-0.9-2.6-1c-1.4-0.1-2.8,0.5-4.2,0.5c-1.2,0-2.6,0-3.7-0.3c-1.1-0.3-1.9-1.4-2.8-2.1c-0.7-0.4-1.6-0.6-2.4-0.8
		c-0.9-0.2-1.8-0.6-2.7-0.9c-2-0.8-4.3-0.4-6.4-1c-0.8-0.2-1.8-0.6-2.4-1.3c-0.5-0.8-0.3-2-0.3-2.9c0.1-0.6,0.1-0.8-0.2-1.2
		c-0.3-0.4-0.8-0.7-1.1-1.1c-0.7-0.7-1.4-1.4-2.1-2.2c-0.2-0.2-0.4-0.3-0.7-0.5c-0.6-0.3-1.3-0.4-1.9-0.6c-1-0.4-2-0.8-3.1-1.3
		c-1.3-0.5-2.2-1.3-3.1-2.3c-0.7-0.8-1.3-1.7-2.2-2.3c-0.9-0.6-2.4-0.1-3.4-0.5c-1.1-0.4-2.3-1.8-2.8-2.7c-2-0.3-3.5-1.1-4.7-2.6
		c-0.6-0.7-1.4-1.4-1.6-2.3c-0.2-0.7-0.5-1.4-0.6-2.2c-0.3-2-1.5-4.1-2.7-5.9c-0.6-0.9-1.1-1.7-0.9-2.9c0.2-1.1,1.2-1.8,2.1-2.5
		c1-0.7,1.7-1.1,2.1-2.3c0.6-1.5-0.6-1.8-1.8-2.4c-1-0.6-1.7-1.5-2.6-2.2c-1-0.8-2.1-1.4-3.3-1.9c-1.1-0.4-2.3-0.6-3.5-0.8
		c-1.3-0.3-2.5-0.6-3.9-0.9c-1.3-0.2-2.6-0.2-3.9-0.4c-1.3-0.2-1.9-0.7-2.4-1.9c-0.5-1.1-0.7-2.5-1.1-3.6c-0.4-1.3-1-1.6-1.9-2.4
		c-0.8-0.7-1.7-0.9-2.9-1.1c-0.8-0.1-1.6-0.2-2.4-0.2c-1-0.1-1.8,0.2-2.1-0.9c-0.3-0.7-0.1-1.7-0.7-2.3c-0.5-0.4-1.7-0.4-2.3-0.6
		c-0.7-0.2-1.3-0.5-1.9-0.8c-1.1-0.3-2.5-0.3-3.6-0.1c-1.4,0.3-2.3,1.4-3.8,1.2c-1-0.1-2.1-0.7-2.7-1.4c-0.9-0.9-1.9-1.3-2.9-2
		c-2.2-1.5-5-1.4-7.6-1.1c-1.5,0.2-2.7,1-3.9,1.8c-0.6,0.4-1.2,0.9-1.8,1.3c-0.6,0.5-0.8,0.6-1.6,0.5c-1.3-0.2-2.5-1.1-3.9-0.8
		c-1.5,0.2-1.1,1.3-0.9,2.4c0.3,2,1.7,5.1,0.3,7.1c-0.8,1-1.5,1.6-2.8,1.4c-1.1-0.2-2.1-0.6-3.1-1.1c-1.1-0.5-2.3-1.1-3.3-1.8
		c-1.5-0.9-3.2-1.4-4.9-2.1c-3.4-1.4-6.7-2.3-10.1-3c-1.1-0.2-2.1-0.7-2.9-1.6c-0.7-0.9-0.7-1.7-1-2.7c-0.3-1.4-3.1-1.8-4.4-2.3
		c-1.8-0.7-3.6-1.2-5.5-1.8c-1.2-0.4-2.7-0.7-3.7-1.5c-0.9-0.6-1.8-2-2.5-2.9c-0.7-1-0.6-1.9-0.6-3.1c0-1.3,0-2.3-0.5-3.4
		c-0.4-0.9-1.1-1.8-2-2.3c-1.2-0.7-3.1,0.4-4.2,1c-1.5,0.7-2.9,1.7-4.6,1.6c-0.9,0-1.3-0.5-2-0.7c-0.6-0.2-1.5-0.1-2.1,0
		c-1.1,0.2-2.2,0.9-3.2,1.4c-0.7,0.3-1.1,0.4-1.7,1.1c-0.5,0.6-0.9,1.2-1.2,1.9c-0.3,0.6-0.1,1.2-0.3,1.8c-0.4,1-2.2,1.5-3.2,1.5
		c-1.1,0-2.7-0.6-3.9-0.2c-0.6,0.3-1.1,1.2-1.6,1.7c-0.6,0.7-1.5,1.2-2.4,1.5c-1.4,0.4-3.5,1.1-4.9,0.7c-1.4-0.3-0.9-3.2-1.4-4.3
		c-0.7-1.3-2.7-2.4-4.1-2.5c-1.5-0.1-2.6,0.5-3.8,1c-0.8,0.3-1.5,0.7-2.2,1.2c-0.5,0.3-1,1.1-1.6,1.3c-1.2,0.4-3-1-4.2-1.3
		c-1.2-0.3-2.7-0.2-3.8,0.2c-0.5,0.2-1.7,1-1.7,1l-2.1,0.5c-1,0-1.7-0.6-2.7-0.7c-1.1-0.2-2.6-0.1-3.5,0.3c-1,0.3-7.5,4.9-8.6,5.6
		c-2.7,1.7-4.4-4.6-12.2-4.4c-1.6,0-2.3,0.9-3.6,1.8c-1.1,0.8-5.5-0.5-6.3-1.3c-1.9-1.8-4.9-1.1-7.2-2.2c-0.5-1.7-1.8-4.5-3.3-5.5
		c-1.3-0.8-3.3-0.2-4.3,0.7c-0.6,0.6-2.2,3.4-2.3,4.4c-0.9,6.1-6.6,4.8-8.2,4.8c-1.3,0-5.2-3.6-5.5-4c-0.3-0.4-3.8,0-5.3-0.1
		c-1.4-0.1-3-0.2-4-1.3c-0.7-0.9-0.8-2.2-1.7-3.1c-0.7-0.7-5.5,1.4-6.4,2.1c-1.3,0.8-4.5,0.5-4.9-0.1c-0.5-0.7-0.9-1-1.7-1.4
		c-1.1-0.4-4.7-1.6-5.3-1.3c-0.5,0.2-1.3,3-1.7,3.3c-0.3,0.3-4.6-2.7-5.5-3.3c-1-0.7-2.6-0.7-3.8-1c-1.3-0.3-4.5-5-5.6-5.9
		c-0.5-0.4-7-3.1-8.7-3.9c-1.8-0.9-2.5-1.9-3.5-3.5c-0.9-1.3-1.6-1.7-3.1-2c-1.8-0.5-3.8-0.4-5.5-1.2c-1.3-0.6-2.4-1.5-3.2-2.6
		c-1.8-2.1-2.6-10-2.8-11.1c-0.2-1.3-3.5-3.5-4.2-3.6c-0.6-0.2-2.8,1.1-3.4,1.1c-0.6,0.1-2.5-1.5-3.3-1.4c-0.6,0.1-1.3,0.3-1.8,0.8
		c-0.6,0.5-4.6,5.1-5.6,5.5c-0.7,0.3-5.7-0.7-6-1.7c-0.2-0.5,0-1.1-0.2-1.6c-0.3-0.6-1-0.9-1.6-1.1c-1.5-0.6-3-0.5-4.5-0.9
		c-1.2-0.4-5.8-2.8-6.8-3.5c-1.9-1.3-16.7-5.4-18.6-6c-1-0.3-2.3-0.3-3.3,0.1c-1.3,0.6-2.2,2-3.3,2.7c-0.9,0.5-2.4,0.4-3.5,0.5
		c-2.5,0.1-5.1-0.1-7.3-1.2c-1.3-0.6-0.3-6.1-1.3-6.3c-0.7-0.3-11.2-6.6-12.5-5.9c-0.6,0.3-6.1,3.6-7.6,3c-1.1-0.4-7.4-8.7-7.9-9.2
		c-0.7-0.6-2.8-5.7-3-6.1c-0.3-0.7-14.1-5.1-15.7-5.9c-1.8-0.8-3.7-1-5.5-1.7c-1.6-0.6-9.8-6.2-11.1-6.2c-1.6,0-7-1.6-7.8-2.5
		c-0.5-0.5-1.3-3.4-1.6-3.8c-0.7-0.8-2.9-0.4-3.8-0.3c-1.5,0.1-14.2,9.3-14.8,9.5c-0.6,0.2-9.5-1.8-11.1-2.2
		c-1.4-0.3-4.7-3.3-5.6-3.9c-1-0.7-2.3-0.5-3.5-0.5c-0.8,0-6-3.1-7.2-3.1c-1.2,0-2.3,1.1-3.1,1.9c-2,1.7-8.9,1-9.8,0.5
		c-0.7-0.4-1.4-1-2.3-1c-1.1,0-4.7-1.9-5-2.7c-0.4-1-5.4-1.2-6.9-1.2c-1.4,0-6.2-4.6-6.8-5.1c-0.6-0.5-4.7,0.3-6,1
		c-1.2,0.7-6.4,1.5-7.7,1.5s-6.8,0.8-8.3,1c-0.6,0.1-2.4,0.7-2.8,0.8c-1.5,0.5-3.3,0.2-4.8,0.3c-0.8,0-1.8,0.4-2.6,0.8
		c-1,0.6-0.8,1.4-0.8,2.6c0,3.1-1.8,5.5-4.1,7.6c-2.3,2.1-5.4,9.8-7.1,12.2c-1.7,2.4-0.1,3.9-4.1,10.4c-4,6.5-3.6,15.1-3.6,15.1
		c3.4,0.8,11.8,2.2,11.8,2.2c5.8,0.6,12.3,6.5,17.4,9.6c5.1,3.1,12.9,4.7,18.5,8.8c5.6,4.1,6.5,27.8,5.6,31.2
		c-0.9,3.4,9.2,8.8,11.8,11c2.6,2.2,4.6-3,6.7-5.1c2.1-2.1,9.2,1.1,10.5,2.7c1.3,1.6,5.6,1.5,8.2,3.6c2.6,2.1,4.2,1.1,7.2,0.3
		C38.1-96,47.1-85.2,49-83c1.8,2.1,7.9,0.4,13.3,0.4c5.4,0,4.9,1,8.4,2.7c3.5,1.8,6.9-0.4,9.7-0.7c2.8-0.3,10.4,1.2,14.6,0.9
		c4.2-0.2,7,1.2,9.6,1.8c2.5,0.6,9.2,8.8,10.2,11.1c1,2.3,8.8,9.9,10.6,12.2c1.8,2.3,3.3,1.2,3.9,0.1c0.6-1.2,3.8-1.5,5.1-1.5
		s2-0.6,4.5-1c2.4-0.4,8.7,14.7,10.5,18.7c1.8,4,2.4,12,3.4,14.8c1,2.9,0.6,7.1,2.4,8.8c1.8,1.8,5,6.7,8,11.1
		c3,4.3,9.1-2.5,12.6-2.3c3.5,0.2,13.5,4.4,16.1,6.4s8.5,2.9,12.1,3.5c3.6,0.6,5.7,1.1,9.8,5s1.8,1.7,4.8,2.7
		c3.1,1,6.4,11.1,7.8,15.8c1.3,4.7,4.6,14.8,5.1,17.5c0.5,2.7,1.8,5,2.3,9.3c0.5,4.3,3.7,14.8,3.9,18.2c0.2,3.4,1,18.6,1.4,20.9
		c0.2,1.4,0,3.3,1.8,6.4l-0.5-1c0,0,1.2,1.8,1,1.9c1.1,1.5,2.6,3.4,4.9,5.7c7.6,7.6,8.4,21.7,10.2,25.9c1.7,4.2,2.4,8.1,3.1,11.3
		c0.7,3.1-1.5,7.2-2.8,9.9c-1.3,2.6,1.5,5.1,4,7.4c2.6,2.3,0.8,8.8,1.1,12.3c0.4,3.5,4.7,5.5,7.1,7.1c2.4,1.5,2.2,3.8,4.3,7.9
		c0.2,0.4,0.4,0.8,0.6,1.3c1.8,3.8,3.3,7.9,5.1,10.5c2,3,3,8,4.2,10.5c0.9,2,1.5,13.9,2,21c0.1,1.9,0.2,3.4,0.4,4.3
		c0.6,4.5-0.4,18.3-1,23c-0.6,4.7-3.3,10.1-4.7,12.6c-1.4,2.6-3.9,11.2-6.3,15.4c-2.4,4.2-2.5,5.6-5.7,10.4c-3.2,4.8-6,2.4-7.5,1
		c-1.5-1.4-11.8,9.9-13.5,12.6c-1.6,2.7-1.5,10.4-1.6,14.2c0,3.8-4.7,9.2-4.7,9.2s1.8,0.8,7,2.5c5.2,1.6,10.1,5.8,13.1,8
		c3,2.3,7.3-1,11.1-2.2c3.8-1.1,2,2.4,2.1,4.5c0,2,4.7,1.3,7.6,1.4c2.9,0.1,12.1,5.9,13.5,8c1.4,2.1,4-0.8,4.7-2
		c0.7-1.2,2.9-2.2,5.5-3c2.6-0.8,2-3.8,4.1-6.4c2.2-2.6,8.7-7.5,12.7-9.5c4-2,6.6,3.8,8.3,3.7c1.6-0.1,4.2,0.7,7.5,3.2
		c3.3,2.6,6.1-2.3,8.6-4.1c2.5-1.8,7.4,0.9,9.5,1.5c2.1,0.6,4.4-0.4,7.3-1.9c2.9-1.5,5.8,1.4,7.6,3.7c1.8,2.3,3,0.3,6,0.9
		c3.1,0.6,6.5-0.2,8.9-0.2c2.4,0,5.6,2.3,6.6,4.7c1,2.5,9.2,3.6,13.4,3.4c4.3-0.2,8.2,2.7,11.2,5.6c3,2.8,9.3-0.4,13.4-0.7
		c4-0.3,2.6-2.2,1.4-3.8c-1.2-1.7,0.6-5.5,2.9-7.4c2.3-1.9,5.8-5.5,6.8-7.4c1-1.9,1.8-6.6,2.4-11.2c0.4-3.1,3.2-4.3,6-5.3
		c1.4-0.5,2.7-0.9,3.8-1.5c3.2-1.8,12.4-2.7,17.6-4.1c5.1-1.4,7.8,3.2,11.8,5c4,1.8,5.9-1.8,9.8-2.1c3.9-0.2,1.6,4.5-0.1,7.4
		s-0.5,2.1-0.4,5.1c0.2,2.9-5.3,3.8-4.3,7.2c1,3.4,5.8,8.5,8.8,10.6c3.1,2.1,5.3-6.4,7.6-7.7c2.3-1.2,3.1,3.5,5.5,6.5
		c2.4,3.1,7.9,5.3,10,6.6c2.2,1.3,2.7,4.8,4.7,8c2,3.2,3.8,7,7.2,11.3c3.4,4.3,7.3,3.1,12.2,5.3c4.9,2.2,6.8,9.6,9.3,11.4
		c2.6,1.8,4.7,1.8,9.5,2.9c4.8,1,2.1,4.8,0.3,6.7c-1.8,1.9-9.3,4.3-10,7.3c-0.6,3.1,6.3,0.8,10.9,0.8c4.6-0.1,8,14.5,9.9,18.6
		c1.8,4.1,21.5-5.5,26.3-5.7c4.7-0.1,7.8,4.7,11.4,6c3.6,1.2,6.6,8.5,7.5,13.2c0.9,4.7,9-1.4,14.6-3.8c5.7-2.4,14.1,3.7,17,5.2
		c3,1.5,4.1-0.7,8-2.2c3.9-1.5,6.9,2.6,10,4.8c3.1,2.2,6.4-0.2,8.7-2c2.3-1.8,7.6-7.3,12.2-9.5c4.6-2.2,13.4-1.9,16.1-2.3
		c2.1-0.2,5.9,1,8.8,2.1c0.8,0.3,1.6,0.6,2.2,0.8c2.9,0.9,5.6-0.9,7-3.3c1.4-2.4,5.6-1.4,9.6-4.5c4-3.1,11.4-0.4,18.2-0.3
		c6.8,0.2,7.2-9.4,6.4-13c-0.7-3.6,3-1.4,5.7,0.2c2.7,1.6,4.5-0.6,6.4-1.1c1.8-0.6,2.2,3.5,3.1,5.9c1,2.4,4.6,0.3,6.5-0.2
		c1.9-0.5,2.2,0.2,4.9,2.3s3.6-1.7,5.9-5.4c2.3-3.8,17.4,8.6,24.7,12.5c7.3,3.9,11.7-5.1,13.3-8.9c1.6-3.8,1,1.4,1.8,4.2
		c0.9,2.8,3.5-0.1,6.7-2.4c3.2-2.3,1.9,0.2,2.8,2.4c0.9,2.3,4.7-3.8,5-6.4c0.4-2.6,4.1-2.2,6.6-2.3c2.5,0,3.5,1.1,5.2,3.5
		c1.7,2.4,2.3,1.3,4.7,0c2.5-1.3,2.7,1.5,4.7,3.4c2,1.8,6.4-1.9,12.3-3.4c5.9-1.6,8.5,2.3,14.7,3.9c6.1,1.6-0.4-3.7-4.9-5.5
		c-4.5-1.9-6.6-7.2-6.9-10.2c-0.3-3,0.5-1.5,2.7-6.6c2.2-5.1,5.3,2,9.1,4.3c3.7,2.2,10,4.2,14.6,4.6c4.7,0.4,4.7-4.2,7.5-7.7
		c2.7-3.5,12.2-6.9,15.9-8.6c3.7-1.7,8.6-4.6,12.5-7.7s7.2-10.5,9.2-12.9c2.1-2.4,5.1-2.3,9.2-5.4c4.1-3.1,7.5-5.7,9.1-8.8
		c1.3-2.6,5.5-3.5,8.5-3.8c0.6-0.1,1-0.1,1.5-0.1c2.9-0.1,9.6,5,15.8,8.8c6.2,3.9,8.5-2.5,10.9-4.9c2.4-2.4,7.5,3.9,10.3,6.9
		c2.7,2.9,7.1,2.1,10.8,3.5c3.7,1.3,5.1,5.9,6.9,8.5c1.8,2.7,2.6,0.9,9,1c6.3,0.1,6.3,1.7,9,3.5c2.7,1.9,3.9-0.8,5.4-1.5
		c1.4-0.7,3.7,0.4,6,3.5c2.4,3.1-2,2.9-4.7,3.6c-2.7,0.8-3.1,4-4.2,5.9c-1.1,1.8,1.6,7.9,3.2,11.1c1.5,3.2,12.8,8.9,18.2,12.2
		c5.5,3.3,7.3,2.2,12.1,2.5c4.9,0.3,11.9,7.2,15.6,9.7c3.7,2.5,5.1,1,11.1,0.5c6-0.5,12.6,0.3,17.1,0.8c4.5,0.5,4.3-3.5,6.6-6.4
		c2.3-2.9,3.7,1.4,5,3.6c1.3,2.2,2.7,1.2,7.8,1.1c5.1,0,6.9,1.6,10.8,3c3.9,1.4,3.8,5,5.6,8.5c1.8,3.5,14.3,10.1,17.7,13.4
		c3.4,3.3,10.8-2.8,10.8-2.8c1.6-1.1,6.3-0.8,7.2-0.8c1,0,4.9,6.3,5.4,7.6c0.5,1.3,7.1,5.4,7.6,5.2c0.4-0.2,5.9-8,6.2-9.5
		c0.2-1.2,0.5-2.4,1.1-3.5c0.8-1.3,5.6-4.7,7.1-4.7c1.1,0.1,4.8,4.2,6,5.3c0.8,0.8,5.3,1.4,5.8,0.8c0.3-0.4,2.3-6.2,2.8-7.3
		c0.2-0.4,0.8-2.3,0.8-2.6c0-0.6,0-1.2,0.1-1.9c0.2-0.6,0.3-1.1,0.5-1.7c0.2-0.5,0.5-0.9,0.7-1.3c0.4-1.1,1.3-6.2,1.3-6.8
		c-0.1-1-0.7-4.5-0.5-5.3c0.1-0.4,3.7-6.7,4.2-7.3c0.3-0.3,0.7-0.5,1-0.8c0.6-0.6,0.7-0.9,0.7-1.8c0-1-0.3-1.9,0.1-2.9
		c0.2-0.7,5.4-6.9,5.6-7.3c0.6-0.7,1.5-1.9,1.6-2.8C1262.5,396.8,1262.1,396,1261.1,395.5z"/>
</g>
<g id="Слой_2" class="st0">
	<circle class="st8" cx="847" cy="173" r="3"/>
	<g class="st9">
		
			<image style="overflow:visible;opacity:0.71;" width="167" height="167" xlink:href="20358EC2.png"  transform="matrix(0.24 0 0 0.24 826.92 153)">
		</image>
		<g>
			<circle class="st7" cx="847" cy="173" r="5"/>
		</g>
	</g>
	<circle class="st8" cx="892" cy="158" r="3"/>
	<g class="st9">
		
			<image style="overflow:visible;opacity:0.71;" width="167" height="167" xlink:href="20358EC1.png"  transform="matrix(0.24 0 0 0.24 871.92 138)">
		</image>
		<g>
			<circle class="st7" cx="892" cy="158" r="5"/>
		</g>
	</g>
	<circle class="st8" cx="672" cy="174" r="3"/>
	<g class="st9">
		
			<image style="overflow:visible;opacity:0.71;" width="167" height="167" xlink:href="20358ECE.png"  transform="matrix(0.24 0 0 0.24 651.92 154)">
		</image>
		<g>
			<circle class="st7" cx="672" cy="174" r="5"/>
		</g>
	</g>
	<circle class="st8" cx="660" cy="114" r="3"/>
	<g class="st9">
		
			<image style="overflow:visible;opacity:0.71;" width="167" height="167" xlink:href="20358EC0.png"  transform="matrix(0.24 0 0 0.24 639.92 94)">
		</image>
		<g>
			<circle class="st7" cx="660" cy="114" r="5"/>
		</g>
	</g>
</g>
</svg>
