<?xml version="1.0" encoding="utf-8"?>
<!-- Generator: Adobe Illustrator 22.1.0, SVG Export Plug-In . SVG Version: 6.00 Build 0)  -->
<svg version="1.1" xmlns="http://www.w3.org/2000/svg" xmlns:xlink="http://www.w3.org/1686868/xlink" x="0px" y="0px"
	 viewBox="0 0 500 500" style="enable-background:new 0 0 500 500;" xml:space="preserve">
<style type="text/css">
	.st0{display:none;}
	.st1{display:inline;fill:#304269;}
	.st2{display:inline;}
	.st3{fill:#91BED4;}
	.st4{fill:#F26101;}
	.st5{fill:none;stroke:#91BED4;stroke-width:20;stroke-miterlimit:10;}
	.st6{display:inline;fill:none;stroke:#91BED4;stroke-width:20;stroke-miterlimit:10;}
	.st7{display:inline;fill:#D9E8F5;}
	.st8{display:inline;fill:#F26101;}
	.st9{fill:#FFFFFF;}
	.st10{fill:#D9E8F5;}
	.st11{fill:#304269;}
	.st12{display:inline;fill:#CAE4F5;}
	.st13{display:inline;fill:#B4D3E1;}
	.st14{display:inline;fill:#FFFFFF;}
	.st15{display:inline;fill:#91BED4;}
	.st16{fill:none;stroke:#91BED4;stroke-width:6;stroke-miterlimit:10;}
	.st17{fill:none;stroke:#91BED4;stroke-width:3;stroke-miterlimit:10;}
	.st18{opacity:0.5;fill:#304269;}
</style>
<g id="Слой_5" class="st0">
	<rect x="-632" y="-628" class="st1" width="2271" height="1242"/>
</g>
<g id="route" class="st0">
</g>
<g id="calendar__x28_копия_x29_" class="st0">
</g>
<g id="guide" class="st0">
</g>
<g id="enjoy">
	<g>
		<path class="st11" d="M350,247.2L350,247.2c-4.6,0-8.3,3.7-8.3,8.3v16.7c0,4.6,3.7,8.3,8.3,8.3l0,0c4.6,0,8.3-3.7,8.3-8.3v-16.7
			C358.3,251,354.6,247.2,350,247.2z"/>
		<rect x="21" y="221.9" class="st11" width="352.3" height="16.7"/>
		<g>
			<path class="st11" d="M8.3,271.9c-4.6,0-8.3,3.7-8.3,8.3l0,33.3c0,4.6,3.7,8.3,8.3,8.3h6.4l46.7,23.3c4,10.5,12,18.9,22.3,23.3
				c21,9,45.3-0.7,54.3-21.7H387c4.2,9.7,11.9,17.4,21.6,21.6c21,9.1,45.4-0.6,54.5-21.6h28.6c4.6,0,8.3-3.7,8.3-8.3v-33.3
				c0-4.6-3.7-8.3-8.3-8.3h-8.3v-20.8c0-10.5-5-20.4-13.3-26.7l-22.4-24.8l-49.8-65.6c-6.3-7.5-16.5-13-26.3-13.1H41.1
				c-3.5,0-6.6,2.2-7.8,5.4l-24.5,68c-0.3,0.8-0.5,1.7-0.5,2.6c0,0.1-0.1,0.2-0.1,0.3V271.9L8.3,271.9z M62.5,162.7l-18.2,67.6H28.7
				l18.2-67.6H62.5z M424.8,221.9H350l-0.5-59.2h22c4.8,0,9.4,2.1,12.5,5.7L424.8,221.9z M463.2,313.9c0-0.1-0.1-0.2-0.1-0.3h20.2
				v16.7h-16.7c0-2.8-0.3-5.6-0.9-8.3c0-0.1,0-0.2,0-0.3C465.1,319,464.3,316.4,463.2,313.9L463.2,313.9z M400.9,336.5
				c-0.6-2.3-0.9-4.7-0.9-7c0.2-13.6,11.4-24.4,25-24.2c13.7,0.2,24.8,11.3,25,25c-0.2,11.1-7.6,20.7-18.3,23.7
				C418.4,357.6,404.6,349.8,400.9,336.5L400.9,336.5z M316.1,162.7h16.7l0.5,68c0,4.6,3.7,8.3,8.3,8.3h97.2l21.1,23.8
				c4.2,3.2,6.7,8.1,6.7,13.3v20.8h-16.9c-0.7-0.5-1.4-0.8-2.1-1.3c-0.8-0.5-1.7-1.1-2.5-1.6c-1.3-0.7-2.6-1.3-3.9-1.9
				c-0.8-0.4-1.7-0.8-2.5-1.1c-1.5-0.5-3-0.9-4.6-1.3c-0.7-0.2-1.5-0.4-2.2-0.6c-2.3-0.4-4.7-0.6-7-0.6c-23,0-41.6,18.7-41.7,41.7
				h-66.7L316.1,162.7z M182.8,162.7h116.7l0.5,167.6H183.3L182.8,162.7z M75.9,336.5c-0.6-2-0.9-4.1-0.9-6.2
				c-0.2-11.2,7.2-21.1,18-24.1c13.1-3.7,26.7,4,30.3,17.1c3.7,13.1-4,26.7-17.1,30.3C93.2,357.2,79.6,349.6,75.9,336.5L75.9,336.5z
				 M49.3,316.9c0.5-1,0.7-2.2,0.7-3.3v-33.3c0-4.6-3.7-8.3-8.3-8.3H25v-33.3h25c3.5,0,6.6-2.2,7.8-5.4l22.4-70.5h85.9l0.5,167.7
				h-25.1c0-23-18.7-41.6-41.7-41.7c-2.7,0-5.4,0.3-8.1,0.8c-0.8,0.2-1.7,0.5-2.5,0.7c-1.7,0.4-3.4,0.9-5,1.6
				c-1,0.4-1.8,0.9-2.8,1.4c-1.4,0.7-2.8,1.4-4.1,2.2c-0.9,0.6-1.8,1.3-2.6,1.9c-1.2,0.9-2.3,1.8-3.4,2.8c-0.8,0.8-1.5,1.6-2.3,2.4
				c-1,1.1-1.9,2.2-2.8,3.3c-0.7,0.9-1.3,1.9-1.9,2.8c-0.8,1.2-1.5,2.5-2.1,3.8c-0.5,1.1-0.9,2.1-1.3,3.2c-0.5,1.4-0.9,2.8-1.3,4.2
				c-0.3,1.1-0.6,2.3-0.8,3.5c-0.1,0.6-0.3,1.2-0.4,1.8l-11.2-5.6l0-0.1c0.5-0.6,1-1.2,1.3-1.9C49,317.5,49.1,317.2,49.3,316.9
				L49.3,316.9z M16.7,288.6h16.7v16.7H16.7V288.6z M16.7,305.3"/>
		</g>
	</g>
</g>
</svg>
