<?xml version="1.0" encoding="utf-8"?>
<!-- Generator: Adobe Illustrator 22.1.0, SVG Export Plug-In . SVG Version: 6.00 Build 0)  -->
<svg version="1.1" xmlns="http://www.w3.org/2000/svg" xmlns:xlink="http://www.w3.org/1686868/xlink" x="0px" y="0px"
	 viewBox="0 0 500 500" style="enable-background:new 0 0 500 500;" xml:space="preserve">
<style type="text/css">
	.st0{display:none;}
	.st1{display:inline;fill:#304269;}
	.st2{display:inline;}
	.st3{fill:#91BED4;}
	.st4{fill:#F26101;}
	.st5{fill:none;stroke:#91BED4;stroke-width:20;stroke-miterlimit:10;}
	.st6{display:inline;fill:none;stroke:#91BED4;stroke-width:20;stroke-miterlimit:10;}
	.st7{display:inline;fill:#D9E8F5;}
	.st8{display:inline;fill:#F26101;}
	.st9{fill:#FFFFFF;}
	.st10{fill:#D9E8F5;}
	.st11{fill:#304269;}
	.st12{display:inline;fill:#CAE4F5;}
	.st13{display:inline;fill:#B4D3E1;}
	.st14{display:inline;fill:#FFFFFF;}
	.st15{display:inline;fill:#91BED4;}
	.st16{fill:none;stroke:#91BED4;stroke-width:6;stroke-miterlimit:10;}
	.st17{fill:none;stroke:#91BED4;stroke-width:3;stroke-miterlimit:10;}
	.st18{opacity:0.5;fill:#304269;}
</style>
<g id="Слой_5" class="st0">
	<rect x="-112" y="-628" class="st1" width="2271" height="1242"/>
</g>
<g id="route" class="st0">
</g>
<g id="calendar__x28_копия_x29_" class="st0">
</g>
<g id="guide" class="st0">
</g>
<g id="enjoy">
	<g>
		<g>
			<path class="st11" d="M454.1,329.1c3.9,0,7-3.1,7-7v-38.3c0-18-9.9-34.6-25.7-43.2c-0.3-0.1-0.5-0.3-0.8-0.4L390.3,223l-9.6-5.2
				l-13.5-11.2c-20.3-16.9-43.1-30.7-67.6-40.7c-42.5-16-88.2-21.8-133.3-16.8l-68.8,7.3l-38.4,4c-0.8,0.1-1.6,0.3-2.4,0.7
				c-3.5,1.7-4.9,6-3.2,9.4l12.1,24.1l-25.3,31.7c-1,1.2-1.5,2.8-1.5,4.4V294c0,1.9,0.7,3.7,2,5l26.2,26.2
				c1.4,23.3,19,42.5,42.2,45.8c26.9,3.8,51.8-14.9,55.6-41.8H335c3.1,21.6,20.1,38.6,41.7,41.7c26.9,3.9,51.8-14.8,55.7-41.7H454.1
				L454.1,329.1z M383.7,357.3c-19.4,0-35.2-15.8-35.2-35.2c0-19.4,15.8-35.2,35.2-35.2s35.2,15.8,35.2,35.2
				C418.9,341.5,403.2,357.3,383.7,357.3L383.7,357.3z M116.3,357.3c-19.4,0-35.2-15.8-35.2-35.2c0-19.4,15.8-35.2,35.2-35.2
				c19.4,0,35.2,15.8,35.2,35.2C151.5,341.5,135.7,357.3,116.3,357.3L116.3,357.3z M52.9,244.7h26.2l-3.5,14.1H52.9V244.7z
				 M133.5,235.6c1.2,2,3.3,3.3,5.7,3.4H222l19,76.1h-76c-0.1-0.5-0.2-1.1-0.3-1.6c-0.1-0.7-0.2-1.3-0.4-2c-0.2-0.9-0.5-1.8-0.7-2.6
				c-0.2-0.6-0.3-1.2-0.5-1.9c-0.3-0.9-0.6-1.8-1-2.7c-0.2-0.5-0.4-1.1-0.6-1.6c-0.4-1-0.9-2-1.4-3c-0.2-0.4-0.4-0.8-0.6-1.2
				c-0.7-1.3-1.5-2.6-2.4-3.9c-0.2-0.3-0.4-0.5-0.6-0.8c-0.7-1-1.4-1.9-2.1-2.8c-0.4-0.4-0.7-0.8-1.1-1.2c-0.6-0.7-1.2-1.4-2-2.1
				c-0.4-0.4-0.9-0.8-1.3-1.3c-0.7-0.6-1.3-1.2-2-1.8c-0.5-0.4-1-0.8-1.5-1.2c-0.7-0.5-1.4-1.1-2.1-1.6c-0.5-0.4-1.1-0.7-1.6-1.1
				c-0.7-0.5-1.5-0.9-2.2-1.4c-0.6-0.3-1.1-0.6-1.7-0.9c-0.8-0.4-1.6-0.8-2.4-1.1c-0.6-0.3-1.2-0.5-1.8-0.8
				c-0.8-0.3-1.7-0.6-2.5-0.9c-0.6-0.2-1.2-0.4-1.8-0.6c-0.9-0.3-1.8-0.5-2.7-0.7c-0.6-0.1-1.2-0.3-1.8-0.4c-1-0.2-2.1-0.3-3.1-0.5
				c-0.5-0.1-1-0.2-1.6-0.2c-1.6-0.2-3.2-0.2-4.8-0.2c-2.4,0-4.9,0.2-7.3,0.6c-0.4,0.1-0.9,0.1-1.4,0.2c-2.3,0.4-4.5,1-6.7,1.7
				c-0.4,0.1-0.8,0.3-1.2,0.4c-2,0.7-3.9,1.5-5.8,2.5c-0.3,0.1-0.6,0.2-0.8,0.4c-2,1.1-3.9,2.3-5.7,3.6c-0.4,0.3-0.8,0.6-1.2,0.9
				c-1.8,1.4-3.4,2.8-5,4.4c-0.2,0.2-0.4,0.4-0.6,0.6c-1.4,1.5-2.8,3.1-4,4.7c-0.3,0.4-0.5,0.7-0.8,1.1c-1.3,1.8-2.4,3.7-3.4,5.7
				c-0.2,0.4-0.4,0.9-0.6,1.3c-1,2-1.8,4.1-2.5,6.2c0,0.1-0.1,0.1-0.1,0.2L52.9,291v-18.2h28.2c3.2,0,6-2.2,6.8-5.3l7-28.2
				c0.1-0.6,0.2-1.1,0.2-1.7c0-3.9-3.1-7-7-7H54.9l24.6-30.8c1.7-2.1,2-5.1,0.8-7.5l-9.5-19.1l23.8-2.5L133.5,235.6z M217.3,221.9
				h-75.5l-31.7-52.9l57.8-6.1c9.9-1,19.9-1.5,29.8-1.5c1.6,0,3.3,0.1,4.9,0.1L217.3,221.9z M366.3,221.9l-134.3,0l-14.7-59.8
				c26.4,1.4,52.4,7,77,16.6C317.4,188.3,366.3,221.9,366.3,221.9z M447.1,286.9h-28.9c-0.2-0.2-0.4-0.4-0.6-0.6
				c-0.7-0.6-1.3-1.2-2-1.8c-0.5-0.4-1-0.8-1.5-1.2c-0.7-0.5-1.4-1.1-2.1-1.6c-0.5-0.4-1.1-0.7-1.6-1.1c-0.7-0.5-1.5-0.9-2.2-1.4
				c-0.6-0.3-1.1-0.6-1.7-0.9c-0.8-0.4-1.6-0.8-2.4-1.1c-0.6-0.3-1.2-0.5-1.8-0.8c-0.8-0.3-1.7-0.6-2.5-0.9
				c-0.6-0.2-1.2-0.4-1.8-0.6c-0.9-0.3-1.8-0.5-2.7-0.7c-0.6-0.1-1.2-0.3-1.8-0.4c-1-0.2-2.1-0.3-3.1-0.5c-0.5-0.1-1-0.2-1.6-0.2
				c-1.6-0.2-3.2-0.2-4.8-0.2c-1.6,0-3.2,0.1-4.8,0.3c-0.5,0-1,0.1-1.6,0.2c-1.1,0.1-2.1,0.3-3.1,0.5c-0.6,0.1-1.2,0.3-1.8,0.4
				c-0.9,0.2-1.8,0.4-2.7,0.7c-0.6,0.2-1.2,0.4-1.8,0.6c-0.9,0.3-1.7,0.6-2.5,0.9c-0.6,0.2-1.2,0.5-1.8,0.8
				c-0.8,0.4-1.6,0.7-2.4,1.1c-0.6,0.3-1.2,0.6-1.7,0.9c-0.8,0.4-1.5,0.9-2.2,1.4c-0.6,0.4-1.1,0.7-1.6,1.1c-0.7,0.5-1.4,1-2.1,1.6
				c-0.5,0.4-1,0.8-1.5,1.2c-0.7,0.6-1.3,1.2-2,1.8c-0.4,0.4-0.9,0.8-1.3,1.3c-0.7,0.7-1.3,1.4-2,2.1c-0.4,0.4-0.7,0.8-1.1,1.2
				c-0.7,0.9-1.4,1.9-2.1,2.8c-0.2,0.3-0.4,0.5-0.6,0.8c-0.8,1.3-1.6,2.6-2.4,3.9c-0.2,0.4-0.4,0.8-0.6,1.2c-0.5,1-1,2-1.4,3
				c-0.2,0.5-0.4,1.1-0.6,1.6c-0.3,0.9-0.7,1.8-1,2.7c-0.2,0.6-0.4,1.2-0.5,1.9c-0.3,0.9-0.5,1.8-0.7,2.6c-0.1,0.7-0.3,1.3-0.4,2
				c-0.1,0.5-0.2,1.1-0.3,1.6h-79.5l-19-76.1h156.7l35.9,14.2c11.1,6.2,18,18,18,30.7V286.9z M447.1,315.1h-14.6
				c-0.1-0.5-0.2-1.1-0.3-1.6c-0.1-0.7-0.2-1.3-0.4-2c-0.2-0.9-0.5-1.8-0.7-2.6c-0.2-0.6-0.3-1.2-0.5-1.9c-0.3-0.9-0.6-1.8-1-2.7
				c-0.2-0.5-0.4-1.1-0.6-1.6c-0.2-0.6-0.5-1.1-0.8-1.7h18.9V315.1z M447.1,301"/>
		</g>
		<path class="st11" d="M285.2,247.3h-21.1c-3.9,0-7,3.2-7,7v0c0,3.9,3.2,7,7,7h21.1c3.9,0,7-3.2,7-7v0
			C292.2,250.4,289.1,247.3,285.2,247.3z"/>
		<path class="st11" d="M172.6,247.3h-28.2c-3.9,0-7,3.2-7,7v0c0,3.9,3.2,7,7,7h28.2c3.9,0,7-3.2,7-7v0
			C179.6,250.4,176.5,247.3,172.6,247.3z"/>
	</g>
</g>
</svg>
