<svg id="Слой_1" data-name="Слой 1" xmlns="http://www.w3.org/2000/svg" viewBox="0 0 640.4 640.4"><defs><style>.cls-1,.cls-2{fill:#304269;}.cls-2{stroke:#304269;stroke-miterlimit:10;stroke-width:4px;}</style></defs><title>money</title><path class="cls-1" d="M320.2,640.39C143.66,640.39,0,496.75,0,320.19S143.66,0,320.2,0s320.2,143.66,320.2,320.2-143.64,320.2-320.2,320.2Zm0-621c-165.84,0-300.77,134.93-300.77,300.77S154.36,621.08,320.2,621.08s300.89-135,300.89-300.89S486.13,19.42,320.2,19.42Zm0,0" transform="translate(0 0.01)"/><path class="cls-2" d="M393.61,393q0-17.28-6.56-28.58t-22.16-20.79q-15.6-9.5-46.12-20.05t-45-20.54q-14.44-10-21.39-23.3t-6.94-32.33q0-31,20.35-49.73t53.06-19.87V142.27h10.46v35.57q35,1.91,54,23.29t19,58.29H392.09q0-32.33-18.35-52t-50.12-19.68q-30.81,0-49.35,16.54t-18.54,42.79q0,18.65,6.18,29.48t20.54,19.69q14.35,8.83,40.41,17.78t39.94,15.88a87.55,87.55,0,0,1,23,16.07,60,60,0,0,1,13.6,20.35q4.47,11.22,4.47,26.43,0,30.24-19.68,49t-52.78,20.64V498.1H321V462.54q-40.32-1.53-62.38-22.92t-22.06-58.86h10.27q0,33.57,21,52.54t57.15,19q29.87,0,49.26-17.09T393.61,393Z" transform="translate(0 0.01)"/></svg>