<svg id="Слой_3" data-name="Слой 3" xmlns="http://www.w3.org/2000/svg" viewBox="0 0 687.51 387.79"><defs><style>.cls-1{fill:#f3f6ff;}.cls-2,.cls-5{fill:#ebefff;}.cls-11,.cls-3,.cls-4,.cls-7{fill:#c5d0fc;}.cls-11,.cls-15,.cls-4,.cls-5{stroke:#c5d0fc;}.cls-10,.cls-11,.cls-15,.cls-4,.cls-5,.cls-8{stroke-miterlimit:10;}.cls-15,.cls-4{stroke-width:3px;}.cls-5,.cls-8{stroke-width:4px;}.cls-13,.cls-6,.cls-9{fill:#bbc3f1;}.cls-7{opacity:0.2;}.cls-8{fill:#e1e4f9;}.cls-10,.cls-8{stroke:#304269;}.cls-9{opacity:0.6;}.cls-10{fill:#304269;}.cls-10,.cls-11{stroke-width:2px;}.cls-12{fill:#e4e7f9;}.cls-13{opacity:0.15;}.cls-14{fill:#a9b8ed;}.cls-15{fill:none;}</style></defs><title>no-result</title><g id="bg"><path class="cls-1" d="M793.33,506.83s43.67-32,103.67-32,73.33,36,130.67,36,67.08-36,145.21-36,121.45,113.33,121.45,113.33H637.67Z" transform="translate(-611.56 -206.14)"/><path class="cls-2" d="M611.67,591.75c-2.6,5.55,43.93-87.59,152.66-87.59,111.34,0,134.67,58,249.67,58s99.67-40,187.67-40c87.23,0,98.13,75.38,97.37,69.82Z" transform="translate(-611.56 -206.14)"/></g><path class="cls-3" d="M671.56,417A54.91,54.91,0,0,1,676,392.34l1.52-3.51,1.2,2.38a54.61,54.61,0,0,1,5.76,27.54l-.54,9.9a14.12,14.12,0,0,0-11.71-.07ZM678,431.15a10.36,10.36,0,1,1-10.35,10.36A10.36,10.36,0,0,1,678,431.15Zm-15.25,28.6a54.78,54.78,0,0,1-26.18,10.49l-2.58.31,2.1-3.25A54.87,54.87,0,0,1,654,450l10-6a14.21,14.21,0,0,0,6.82,9.71Zm31,132c0-.08-8.15-133.38-8.15-133.38l6,4.43a58.59,58.59,0,0,0,28,11.22l6.61.8h.23a1.91,1.91,0,0,0,1.6-2.94l-4.31-6.66a58.65,58.65,0,0,0-19.17-18.47l-12.6-7.71a14.14,14.14,0,0,0-4.34-7.93l.67-12.17a58.5,58.5,0,0,0-6.17-29.46l-3-6a1.89,1.89,0,0,0-2.55-.84,1.85,1.85,0,0,0-.89.94l-3.14,7.24a58.75,58.75,0,0,0-4.73,26.39l.77,13.76a14.17,14.17,0,0,0-4.59,8.71l-11.88,7.06a58.77,58.77,0,0,0-19.19,18.49l-4.3,6.66a1.91,1.91,0,0,0,.56,2.64,2,2,0,0,0,1,.3h.23L637,474a58.42,58.42,0,0,0,28-11.22l5.57-4.1L664,591.76h3.83l6.86-136.09.39-.29a14.11,14.11,0,0,0,6.3-.11l8.39,136.51ZM720,470.24a54.77,54.77,0,0,1-26.19-10.5l-8.38-6.21a14.19,14.19,0,0,0,6.54-10L702.56,450A54.87,54.87,0,0,1,720.5,467.3l2.1,3.25Zm0,0" transform="translate(-611.56 -206.14)"/><path class="cls-3" d="M678,447.74a6.23,6.23,0,1,0-6.22-6.23,6.24,6.24,0,0,0,6.22,6.23Zm0-8.65a2.42,2.42,0,1,1-2.42,2.42,2.42,2.42,0,0,1,2.42-2.42Zm0,0Z" transform="translate(-611.56 -206.14)"/><line class="cls-4" x1="77.01" y1="326.99" x2="55.76" y2="348.24"/><line class="cls-4" x1="77.01" y1="326.99" x2="55.76" y2="348.24"/><line class="cls-4" x1="56.09" y1="326.99" x2="78.39" y2="347.39"/><g id="tree"><polygon class="cls-5" points="600.77 288.02 600.77 383.43 580.77 383.43 580.77 326.02 556.27 301.52 563.6 294.19 580.77 311.29 580.77 288.02 600.77 288.02"/><path class="cls-5" d="M1268.19,485.58A28.5,28.5,0,0,1,1215,499.85a52.56,52.56,0,0,1-33.58-1.29,26.2,26.2,0,0,1-47.5-15.27,2.81,2.81,0,0,1,0-.29,27.29,27.29,0,0,1,14.89-50.17c.55,0,1.1,0,1.64.06a52.39,52.39,0,0,1,101.06,26.77A28.48,28.48,0,0,1,1268.19,485.58Z" transform="translate(-611.56 -206.14)"/><path class="cls-6" d="M1185.27,432.17c-5.78-2.09-14.14-1-16.24,5.67s1.78,13.43,8.8,13.91l-1.29-2.26c-3.48,8.21-4,19.67,4.3,25.15,10.51,6.94,32.36,4.43,35.23-10.12.37-1.89-2.52-2.69-2.89-.8-2.53,12.77-23.22,14.8-31.82,7.6-5.91-5-4.49-15-2.23-20.32a1.52,1.52,0,0,0-1.3-2.25c-5.45-.38-8.21-6.95-5.28-11.48,2.41-3.72,8.24-3.54,11.93-2.2,1.81.66,2.6-2.24.79-2.9Z" transform="translate(-611.56 -206.14)"/><path class="cls-7" d="M1220.18,506.32s37,.36,40.18-40.37c.31-4,7.83,14.05,7.83,14.05l-3.85,19.87-9.9,10.1L1242,514.08l-14.34-2.68Z" transform="translate(-611.56 -206.14)"/></g><g id="logo"><path class="cls-8" d="M959.22,373.5a79.25,79.25,0,0,0-79.15,79.14A77.18,77.18,0,0,0,887,485c16,34.9,43.72,71.41,59.72,91l0,0c3.84,4.71,7,8.44,9.15,11a4.4,4.4,0,0,0,3.33,1.53,4.35,4.35,0,0,0,1.48-.26,4,4,0,0,0,.88-.42,4.2,4.2,0,0,0,1-.85c2.94-3.41,7.73-9.09,13.54-16.39,6.48-8.12,14.22-18.24,22.12-29.49,3.75-5.33,7.52-10.91,11.21-16.65a2.6,2.6,0,0,0-.34-3.24l-8.86-8.86-14-14a3.14,3.14,0,0,0-3.69-.56,49.64,49.64,0,1,1-21.18-93.48A49.67,49.67,0,0,1,1003.28,477a3.25,3.25,0,0,0,.58,3.82l17.81,17.81a2.05,2.05,0,0,0,3.26-.5l1.06-2q2.91-5.58,5.47-11.17,1.45-3.18,2.6-6.47a77.93,77.93,0,0,0,4.32-25.86A79.25,79.25,0,0,0,959.22,373.5Z" transform="translate(-611.56 -206.14)"/><path class="cls-8" d="M996.57,453.92a37.23,37.23,0,1,1-37.21-37.24A37.27,37.27,0,0,1,996.57,453.92Z" transform="translate(-611.56 -206.14)"/><path class="cls-9" d="M999.09,514.07l8.87,9s-16.46,24.16-22.29,32-24.42,30.43-24.42,30.43c-1.66,1.56-2.38,1.45-4.12,0l-8.86-10.82S974.42,556.83,999.09,514.07Z" transform="translate(-611.56 -206.14)"/><path class="cls-9" d="M1031.17,480.5a183.22,183.22,0,0,1-8,16.81L1014,488.1c2.91-3.35,6.1-10.54,6.1-10.54Z" transform="translate(-611.56 -206.14)"/><rect class="cls-10" x="316.99" y="382.36" width="61.33" height="2.33" rx="1.17" ry="1.17"/><rect class="cls-11" x="560.1" y="382.57" width="61.33" height="2.33" rx="1.17" ry="1.17"/></g><g id="ufo"><path class="cls-3" d="M1045.62,269.9l5.32-4.34,27.29,16.26-1.82,9.66a2.3,2.3,0,1,0,4.53.85l2-10.44,4-3.45c11.91,6.82,21.67,10.64,29,11.35,6.46.63,9-1.41,9.4-1.83a2.09,2.09,0,0,0,.2-.22,2.33,2.33,0,0,0,.38-2.23l-6.55-18.12a2.29,2.29,0,0,0-1-1.2l-6.88-4.1a34,34,0,0,0,2.86-7.93,1.13,1.13,0,0,0,0-.18,34,34,0,0,0-55.49-33,1.58,1.58,0,0,0-.15.12,34,34,0,0,0-5.61,6.29l-6.36-3.79a2.31,2.31,0,0,0-1.5-.3L1026,226a2.33,2.33,0,0,0-1.91,1.68c-.15.58-.76,3.75,2.87,9.13,4,6,11.68,12.51,22.79,19.49l-1.11,5.23-5.94,4.84a2.31,2.31,0,0,0-.24,3.35h0A2.31,2.31,0,0,0,1045.62,269.9Zm50.64-48.48A29.48,29.48,0,0,1,1110.45,250l-46-27.42A29.47,29.47,0,0,1,1096.26,221.42Zm-35.63,4.23,48.87,29.11a29.57,29.57,0,0,1-1.91,5l-50.41-30A29.45,29.45,0,0,1,1060.63,225.65Zm19.93,52.18-27.23-16.22.59-2.81L1082.75,276Zm5.92-5L1056,254.63c-16.73-10-23.25-17.17-25.78-21.42l87.43,52.07C1112.65,285.08,1103.21,282.78,1086.48,272.82Zm-53.34-43.21,12-1.68,70.19,41.8,4.08,11.28Z" transform="translate(-611.56 -206.14)"/><polygon class="cls-12" points="471.19 69.83 469 71.69 441.77 55.47 442.36 52.66 471.19 69.83"/><path class="cls-12" d="M1117.6,285.28c-4.95-.2-14.39-2.5-31.12-12.46L1056,254.63c-16.73-10-23.25-17.17-25.78-21.42Z" transform="translate(-611.56 -206.14)"/><polygon class="cls-12" points="507.89 74.86 421.58 23.46 433.62 21.79 503.81 63.59 507.89 74.86"/><path class="cls-12" d="M1109.5,254.76a29.57,29.57,0,0,1-1.91,5l-50.41-30a29.45,29.45,0,0,1,3.45-4.06Z" transform="translate(-611.56 -206.14)"/><path class="cls-12" d="M1110.45,250l-46-27.42a29.43,29.43,0,0,1,46,27.42Z" transform="translate(-611.56 -206.14)"/><polygon class="cls-13" points="469.38 86.19 413.41 385.61 32.99 385.61 437.08 55.34 471.35 75.75 469.38 86.19"/><path class="cls-6" d="M1056.61,238.13a2.3,2.3,0,1,0-2.24,2,2.33,2.33,0,0,0,2.24-2Zm0,0" transform="translate(-611.56 -206.14)"/><path class="cls-6" d="M1072.76,247.75a2.31,2.31,0,1,0-2.24,2,2.33,2.33,0,0,0,2.24-2Zm0,0" transform="translate(-611.56 -206.14)"/><path class="cls-6" d="M1088.91,257.37a2.3,2.3,0,1,0-2.23,2,2.32,2.32,0,0,0,2.23-2Zm0,0" transform="translate(-611.56 -206.14)"/><path class="cls-6" d="M1105.07,267a2.31,2.31,0,1,0-2.24,2,2.33,2.33,0,0,0,2.24-2Zm0,0" transform="translate(-611.56 -206.14)"/><path class="cls-3" d="M1051.31,220a2.11,2.11,0,0,0,.35.26,2.3,2.3,0,0,0,2.9-.45,35.19,35.19,0,0,1,13.92-9.2,2.31,2.31,0,0,0-1.38-4.4,39.15,39.15,0,0,0-16,10.54,2.3,2.3,0,0,0,.19,3.25Zm0,0" transform="translate(-611.56 -206.14)"/><path class="cls-3" d="M1117.11,260.24a2.29,2.29,0,0,0,1,2.72,2.56,2.56,0,0,0,.44.21,2.3,2.3,0,0,0,2.92-1.45,69.73,69.73,0,0,0,2.4-10.55,2.3,2.3,0,0,0-4.56-.67,67.58,67.58,0,0,1-2.2,9.74Zm0,0" transform="translate(-611.56 -206.14)"/></g><g id="cloud"><path class="cls-5" d="M1077.72,448.74a21.41,21.41,0,0,0-21.11-20.24,22,22,0,0,0-17.44,8.75l-.29-.12c-.24-.12-.49-.24-.75-.34l-.43-.16-.77-.24-.43-.11c-.28-.06-.57-.11-.86-.15-.12,0-.25-.05-.38-.06-.42,0-.83-.07-1.26-.07a11.25,11.25,0,0,0-11.25,11.25c0,.16,0,.31,0,.47h0a17.29,17.29,0,0,0-8.77,14.72,16.08,16.08,0,0,0,16.06,16.06h30.63l.39,0,.08,0,.17,0,.38,0H1074a15.05,15.05,0,0,0,15-15,15.37,15.37,0,0,0-11.28-14.72ZM1074,476" transform="translate(-611.56 -206.14)"/><path class="cls-7" d="M1075.9,450.25c0,14.66-12.9,26.37-12.9,26.37,22.38,0,24.56.63,24.56-11.87,0-3.89-2.71-12.62-2.71-12.62Z" transform="translate(-611.56 -206.14)"/></g><g id="cloud-2" data-name="cloud"><path class="cls-5" d="M842.63,394.58a17.52,17.52,0,0,0-12.86,16.78,17.16,17.16,0,0,0,17.14,17.14h14a3.25,3.25,0,0,0,.44,0h.28l.44,0H897a18.33,18.33,0,0,0,18.31-18.31,19.71,19.71,0,0,0-10-16.78h0a4.87,4.87,0,0,0,0-.54,12.83,12.83,0,0,0-12.82-12.82,13.41,13.41,0,0,0-1.43.08,3.11,3.11,0,0,0-.44.07c-.33.05-.66.1-1,.17l-.49.13c-.3.08-.59.17-.88.27l-.49.18-.86.38c-.11.06-.22.09-.32.15a25.15,25.15,0,0,0-19.88-10,24.4,24.4,0,0,0-24.07,23.08Zm4.28,31.06" transform="translate(-611.56 -206.14)"/><path class="cls-7" d="M903.27,394.41c0,25.09-28.64,32.75-28.64,32.75,37.62,0,40.31-.91,40.31-18.25,0-3.88-3.27-11.08-3.27-11.08Z" transform="translate(-611.56 -206.14)"/></g><g id="_6" data-name="6"><path id="icon" class="cls-14" d="M856.26,525.62s-2.19-2-5.54-10.34c-2.42-6.06-5.21-8.29-7.19-9.08,3.91-11.18,2.51-11.87,1.38-12.42-2.32-1.15-5.71,2.29-7.93,5.05a14.71,14.71,0,0,0-3.92-4.2c-1.94-1.29-3.39-1.13-4.26-.77l-.73.3-.24.76a13.36,13.36,0,0,0,2,11.77l.16.26c-1.53,2.09-9.91,8.42-15.19,7.81-3-.36-6.87-2.61-11.31-5.22-10.36-6.1-24.56-14.46-44.49-8.51-24.84,7.42-32.89,38.36-38.21,58.82-.91,3.47-1.76,6.74-2.59,9.55-5.3,17.75-24.64,12.45-25.47,12.21h0a1.69,1.69,0,0,0-2.09,2.12h0a13.56,13.56,0,0,0,8.28,9,18.48,18.48,0,0,0,6.72,1.2,25.89,25.89,0,0,0,13-3.69c9.9-5.83,24.07-40.21,26.85-47.12a1.71,1.71,0,0,0-.56-2h0a1.69,1.69,0,0,0-2.6.71c-3.42,8.46-16.75,40.37-25.41,45.47-5.53,3.27-11.93,4.13-16.72,2.26a10.24,10.24,0,0,1-5-4,32,32,0,0,0,8.93.06c6.11-.89,14.08-4.23,17.35-15.24.86-2.87,1.72-6.17,2.63-9.65,5.44-20.92,12.9-49.56,35.9-56.43,18.52-5.53,31.43,2.08,41.8,8.17,4.77,2.81,8.88,5.24,12.64,5.67,6.73.77,16.22-6.19,18.43-9.33a2.69,2.69,0,0,0,.49-2.84,8.78,8.78,0,0,0-.64-1.08,10.18,10.18,0,0,1-1.93-7.67,5.28,5.28,0,0,1,.78.51c1.81,1.41,3.27,3.86,3.3,4.54v2.56a.89.89,0,0,0,1.63.51l1.46-2.11a32.06,32.06,0,0,1,4.49-5.22,86.77,86.77,0,0,1-2.74,8.92l-.22.54a1.35,1.35,0,0,0,1.51,1.82l.53-.1s3.07-.15,6.07,7.35a47.43,47.43,0,0,0,5.14,10.13,4.78,4.78,0,0,1-4.64.33c-1-.5-2.13-1.13-3.33-1.8-5.08-2.85-9.09-5.1-10.72-2.25-.76,1.32-4.41,4.89-5.61,6.06l-.71.68a5.63,5.63,0,0,0-1,1.86c-1.17,2.78-3.59,8.57-9.52,9.67-8.57,1.6-9.66,5.15-9.65,8.17a88.51,88.51,0,0,1-1.2,11.91c-1.66,9.61-4.1,11.24-4.8,11.52a13.48,13.48,0,0,1-6.07,1c2.92-2.14,6.76-5.5,7.21-8.68s.33-10.85.24-16.42c0-1.85-.06-3.47-.06-4.61,0-2.71,1.71-6,2.78-7.74a1.7,1.7,0,0,0-.47-2.25h0a1.69,1.69,0,0,0-2.44.5,23.05,23.05,0,0,0-3.16,8c-3.56.32-9.24-1.35-12.92-2.66a15.86,15.86,0,0,0-.07-9.29c-2.31-7-9.37-10.47-12.7-11.78a1.7,1.7,0,0,0-2.26,1.11h0a1.72,1.72,0,0,0,1,2.06c2.81,1.1,8.88,4.09,10.72,9.7,1.59,4.77-.2,10.56-5.27,17.18C760.62,571.66,755.25,583,755,583.48l-1.35,2.89,3.16-.5c.13,0,12.39-2,17.17-1.66,2.2.14,4.51,2.21,6.14,4.12H750.93a2.83,2.83,0,0,1-2.08-1.08c-.83-1.24-.53-3.7.82-6.89,1-2.42,2.64-5.44,4.36-8.63,4.77-8.9,9.72-18.11,7.62-23.67a6.22,6.22,0,0,0-3.86-3.73,19,19,0,0,1-10.57-9,1.56,1.56,0,0,0-1.87-.79l-.27.09h0a1.55,1.55,0,0,0-.91,2.18,22.44,22.44,0,0,0,12.43,10.7,2.87,2.87,0,0,1,1.87,1.75c1.55,4.12-3.42,13.41-7.43,20.86-1.75,3.27-3.41,6.35-4.49,8.91-1.87,4.41-2,7.8-.53,10.1a6.12,6.12,0,0,0,4.91,2.59h32.56a1.7,1.7,0,0,0,1.46-2.58h0c-.5-.81-5-8-10.75-8.33-3.53-.21-10.44.64-14.57,1.21,2.61-4.69,8.89-15.08,21.14-31a37.9,37.9,0,0,0,4.74-7.84c3.26,1.17,8.8,2.88,13.17,2.88l.8,0c0,.82,0,1.73,0,2.72.09,5.46.22,12.93-.2,15.89-.33,2.3-5.29,6.25-8.69,8.32h0a1.7,1.7,0,0,0,0,2.9h0c.19.11,4.91,2.9,12.13.12,7.83-3,8.18-26.35,8.18-26.7,0-1.2,0-3.43,6.88-4.72,7.73-1.44,10.73-8.63,12-11.7.14-.31.3-.71.39-.89l.54-.53a55.68,55.68,0,0,0,5.92-6.36c1.26.2,4.43,2,6.4,3.09,1.23.69,2.4,1.33,3.45,1.86,5.24,2.63,9.65-1.71,9.85-1.89l.09-.09a1.6,1.6,0,0,0-.11-2.31Z" transform="translate(-611.56 -206.14)"/></g><line class="cls-15" x1="59.27" y1="280.86" x2="74.44" y2="280.86"/><line class="cls-15" x1="55.69" y1="369.48" x2="79.19" y2="369.48"/></svg>