<?xml version="1.0" encoding="utf-8"?>
<!-- Generator: Adobe Illustrator 22.1.0, SVG Export Plug-In . SVG Version: 6.00 Build 0)  -->
<svg version="1.1" xmlns="http://www.w3.org/2000/svg" xmlns:xlink="http://www.w3.org/1686868/xlink" x="0px" y="0px"
	 viewBox="0 0 500 180" style="enable-background:new 0 0 500 180;" xml:space="preserve">
<style type="text/css">
	.st0{display:none;}
	.st1{display:inline;fill:#FFFFFF;}
	.st2{fill:#FFFFFF;}
</style>
<g id="map" class="st0">
	<path class="st1" d="M427.1,163c-0.3-0.2-1.7-0.8-1.9-1c-0.2-0.3-0.2-0.5-0.1-0.7c0-0.3,0-0.6-0.1-0.9c-0.1-0.1-0.4-0.6-0.5-0.7
		c-0.1-0.1-0.8-0.6-0.9-0.7c-0.1-0.1-0.5-1.2-0.6-1.4c-0.2-0.3-0.3-1-1.1-1.6c-0.3-0.2-0.5-0.3-0.8-0.4c-0.4-0.1-6.8-2.7-7-3
		c-0.2-0.3-1.1-1-1.3-1.1c-0.1-0.1-0.6-0.4-0.7-0.4c-0.3-0.1-1.2-0.5-1.3-0.8c-0.1-0.2-0.1-0.4-0.3-0.6c-0.2-0.2-1-0.6-1.3-0.7
		c-0.6-0.1-1.3-0.2-1.7-0.8c-0.2-0.2-0.4-1.2-0.5-1.4c-0.2-0.5-0.2-1.1-0.6-1.4c-0.2-0.2-0.8-1.2-0.9-1.4c-0.2-0.3-0.1-0.7,0-1
		c0.1-0.2,0.1-0.3,0.2-0.5c0.1-0.2,0.3-0.3,0.4-0.4c0.2-0.2,0.2-0.4,0.1-0.7c-0.1-0.2-0.4-0.9-0.5-1c0-0.2,0-0.3-0.1-0.5
		c-0.1-0.3-0.1-0.7-0.4-0.9c-0.3-0.2-0.6-0.2-0.9-0.1c-0.3,0-0.5,0.1-0.8,0.2c-0.2,0.1-0.9-0.4-1.1-0.7c-0.1-0.2-0.5-0.5-0.7-0.6
		c-0.3-0.1-0.5,0.1-0.7,0.2c-0.2,0.1-0.8,0.9-1,0.9c-0.2,0-1.6-1.2-1.7-1.4c-0.1-0.1-0.1-0.2-0.1-0.3c-0.1-0.2,0.1-0.4,0.1-0.6
		c0-0.3-0.1-0.5-0.2-0.8s-0.1-0.5-0.2-0.8c-0.1-0.2-0.2-0.4-0.3-0.6c-0.3-0.9,0.1-2.6-0.1-2.8c-0.1-0.3-0.2-1.2-0.2-1.3
		c0-0.2,0-0.4,0-0.6c0-0.4,0.9-1.2,1.2-1.1c0.3,0.1,0.6,0.4,0.9,0.4c0.3,0,0.8-1,1.1-1.2c0.3-0.1,0.6-0.1,0.9,0s0.5,0.3,0.7,0.1
		c0.3-0.1,0.7-0.3,1-0.6c0.2-0.2,0.7-1.1,0.9-1.3c0.1-0.2,0.8-0.9,1.1-1c0.4-0.2,0.7-0.5,1-0.7c0.6-0.4,1.9-1.8,2.1-2.1
		c0.2-0.2,0.5-0.3,0.5-0.6c0.1-0.3,0.6-1.3,0.4-3.3c0-0.1-0.3-1.1-0.4-1.3c-0.2-0.3-0.3-0.7-0.7-0.9c-0.3-0.1-1.7-0.2-2.1-0.4
		c-0.3-0.2-0.6-0.3-1-0.2c-0.3,0.5-0.9,0.5-1.4,0.3c-0.7-0.2-2-1.8-2.3-2c-0.3-0.2-1.3-0.9-1.3-1.2c0-0.3,0.4-0.4,0.5-0.7
		c0.2-0.7-0.7-1.1-1.2-1.3c-0.3-0.1-0.7-0.1-1.1,0c-0.5,0.1-0.9,0.2-1.3,0.5c-0.3,0.3-1.7,1-1.8,0.6c-0.1-0.2-0.2-0.6-0.3-0.6
		c-0.1-0.1-1.2,0.4-1.5,0.7c-0.3,0.3-1.6,0.6-1.7-0.5c-0.1-0.2,0-0.5,0-0.7c0.1-0.4,0.5-1.3-0.1-1.5c-0.5-0.1-2.8,1.1-2.9,0.8
		c-0.2-0.3,0-0.7-0.3-1c-0.2-0.2-0.6-0.4-0.9-0.4c-0.3-0.1-0.7-0.1-1,0.1c-0.3,0.2-0.5,0.5-0.8,0.7c-0.1,0.1-0.7,0.4-0.8,0.5
		c-0.3,0.2-1.4-2.2-1.6-2.2c-0.2-0.1-0.4,0-0.5,0c-0.2-0.1-0.3-1-0.2-1.3c0.1-0.2,0.1-0.8,0.1-1c-0.1-0.3-0.3-0.6-0.5-0.7
		c-0.3-0.2-2-0.3-2.4-0.3c-0.4-0.1-1.5,0.3-1.7,0.3c-0.2,0-0.8-0.4-1-0.4c-0.1,0-1.3,0.2-1.3,0.1c-0.1-0.2-1.1-0.9-1.2-1
		c-0.1-0.1-0.8-1.1-0.8-1.3c0-0.2-0.1-0.7-0.1-0.8c-0.3-0.7-4.7-3-5-3.2c-0.2-0.1-0.5-0.1-0.8-0.3c-0.3-0.2-0.6-0.4-0.8-0.7
		c-0.2-0.3-0.5-0.6-0.5-0.9c0-0.4,0.1-0.8,0.3-1.2c0.2-0.3,1.3-1.1,1.4-1.4c0.1-0.3,0.1-0.6,0.1-0.9c0-0.3-0.1-0.7,0.2-0.9
		c0.2-0.2,0.6-0.1,0.8-0.1c0.3,0.2,0.6,0.3,1,0.4c0.3,0,0.4-0.2,0.6-0.5c0.2-0.2,0.5-0.5,0.8-0.5c0.4-0.1,0.6,0.2,0.9,0.3
		c0.3,0.1,0.7,0,0.9-0.2c0.1-0.1,0.2-0.3,0.2-0.5c0-0.2,0.2-1.9,0.2-2c-0.1-0.2-0.2-0.2-0.2-0.4c-0.1-0.3,0.2-1.6,0.2-1.9
		c0.1-0.3-0.1-0.6,0-0.9c0-0.7,0.2-1.5,0.4-2.1c0.3-0.7,0.6-1.5,0.8-2.3c0.1-0.4,0.2-0.8,0.1-1.3c0-0.2-0.2-0.4-0.2-0.6
		c-0.1-0.3,0.2-0.5,0.3-0.8c0.1-0.2,0.1-0.4,0.1-0.5c0-0.5-0.8-0.7-1.2-0.7c-0.4,0.1-0.7,0.2-1,0.5c-0.2,0.2-0.4,0.3-0.6,0.4
		c-0.2,0.1-0.3,0-0.5,0c-0.4,0-1.3-0.7-1.4-1c0-0.2-0.1-0.3-0.2-0.5c-0.2-0.1-0.4-0.3-0.6-0.3c-0.2-0.1-0.3,0.1-0.5,0.1
		c-0.2,0.1-1.1,0.4-1.2,0.3c-0.2-0.1-0.3-0.3-0.5-0.4c-0.1,0-0.8,0-1-0.1c-0.4-0.1-0.6-0.5-0.8-0.8c-0.2-0.2-0.4-0.4-0.6-0.6
		c-0.2-0.2-0.2-0.5-0.4-0.7s-0.4-0.5-0.7-0.5c-0.4,0.1-0.7,0.4-1.1,0.4c-0.1,0-0.3,0-0.4-0.1c-0.1-0.1-0.2-0.3-0.3-0.4
		c-0.2-0.1-0.6,0.3-0.8,0.4c-0.3,0.2-0.7,0.2-1.1,0.2c-0.4,0-0.7-0.1-1-0.2c-0.3-0.1-0.6-0.3-1-0.2c-0.3,0.1-0.6,0.1-1,0.1
		s-0.6,0-0.9-0.2c-0.2-0.1-0.5-0.3-0.8-0.2c-0.2,0.1-0.3,0.3-0.5,0.4c-0.2,0.1-0.4,0.2-0.6,0.4c-0.2,0.3-0.4,0.6-0.6,0.8
		c-0.2,0.2-0.6,0.2-0.9,0.2c-0.3,0-0.5-0.2-0.6-0.5c-0.3-0.6-0.8-1.3-0.8-2c0-0.3,0-0.7-0.2-0.9c-0.2-0.2-0.5-0.2-0.7-0.3
		c0,0-0.6-0.4-0.8-0.6c-0.2-0.2-0.1-0.5-0.1-0.8c0-0.4-0.2-0.6-0.6-0.7c-0.3-0.1-1.2-0.4-1.3-0.5c-0.2-0.1-0.1-0.2-0.1-0.4
		c0-0.4-1.3-2-1.4-2.3c-0.1-0.2-0.6-0.4-0.7-0.5s-0.4-0.7-0.6-0.8c-0.2-0.1-0.4-0.1-0.6-0.3c-0.1-0.1-0.6-1-0.8-1.3
		c-0.2-0.3-0.5-0.5-0.7-0.7c-0.2-0.2-0.4-0.5-0.7-0.4c-0.4,0.2-0.5,0.6-1,0.6c-0.5,0-0.7-0.3-1.1-0.5c-0.3-0.2-0.6-0.2-0.9,0
		c-0.3,0.2-0.5,0.5-0.7,0.6c-0.2,0.1-1.2,0.2-1.4,0.2c-0.5,0-0.6-0.2-0.7-0.6c-0.3-0.6-1.1-1-1.6-1.3c-0.3-0.2-1.3-1-1.5-1.2
		c-0.4-0.4-1.2-0.6-1.7-0.7c-0.7-0.1-1.3-0.1-2,0.1c-0.7,0.2-0.8,3.2-2.1,4.7c-0.1,0.1-0.3,0.2-0.4,0.3c-0.2,0.2-0.5,0.5-0.6,0.7
		c-0.1,0.3-0.7,1.4-0.7,1.7c-0.1,0.3-0.1,0.7-0.1,1c0,0.3,0.1,1.3-0.8,1.1c-0.2-0.1-1.3-0.7-1.4-0.9c-0.2-0.3-0.3-0.6-0.4-0.9
		c-0.1-0.4-0.4-0.8-0.5-1.3c0-0.3,0.1-0.7-0.1-1c-0.2-0.3-0.6-0.5-0.8-0.7c-0.5-0.6-0.1-1.4-0.3-2.1c-0.2-0.6-1.5-1.9-1.7-2
		c-0.3-0.2-0.6-0.2-0.9-0.2c-0.5-0.1-1-0.3-1.5-0.2c-0.4,0.1-1,0.9-2.3,0.4c-0.2-0.1-0.4-0.2-0.6-0.2c-0.2,0-1.3,0.3-1.6,0.1
		c-0.3-0.1-1-0.9-1.2-1c-0.2,0-1.3,0.2-1.7,0.3c-0.3,0.1-0.7,0.3-0.8,0.6c-0.3,1,0.7,2.5,0.7,2.9c-0.1,0.6-3.9-0.3-4.4-0.4
		c-0.3,0-0.6-0.3-0.9-0.2c-0.1,0.1-0.2,0.1-0.3,0.2c-0.2,0.1-1.2,0.4-1.5,0.1c-0.3-0.3-1.8-0.4-2.1-0.5c-0.2-0.1-0.4-0.2-0.6-0.2
		c-0.6-0.1-1,0.6-1.3,1c-0.2,0.2-1.9,1.1-2,1.3c-0.2,0.2-0.6,1.2-0.7,1.2c-0.3,0.2-0.6,0.1-0.6,0.5s-0.1,0.7-0.1,1.1
		c-0.1,0.8-0.4,1.4-0.5,1.2c-0.2,0.2-2.3,0.7-2.4,0.9c-0.1,0.3-1.1,0.9-1.4,0.9c-0.9,0-1.6-0.5-2.5-0.4c-0.3,0.1-4.2,1.3-4.4,1.4
		c-0.3,0.2-0.6,0.3-0.7,0.8c-0.1,0.4-0.2,0.8-0.4,1.2c-0.1,0.3-0.4,0.4-0.7,0.7c-0.3,0.2-0.5,0.5-0.8,0.5c-0.1,0-0.5-0.3-0.5-0.3
		c-0.1-0.1-0.2-0.1-0.2-0.2c-0.3-0.3-0.6-0.4-1-0.6c-0.9-0.4-3.6-1.4-4-1.7c-0.3-0.2-0.5-0.4-0.9-0.2c-0.3,0.1-0.5,0.4-0.9,0.3
		c-0.2-0.1-0.3-0.2-0.4-0.3c-0.1-0.1-0.2-0.2-0.3-0.2c-0.3-0.1-0.6-0.1-0.9,0.1c-0.1,0.1-0.2,0.2-0.3,0.2c-0.1,0-0.3,0-0.5,0
		c-0.3,0-0.6,0-0.7-0.3c-0.1-0.4,0.1-0.8,0-1.2c-0.2-0.1-1.7-0.9-1.8-1c-0.1-0.3,1.5-1.6,1.7-1.7c0.3-0.2,0.2-0.5,0.2-0.8
		c0.1-0.4,0.5-1.3,0.6-1.4c0.3-0.5,0.5-0.9,0.7-1.4c0.1-0.1,0.2-0.7,0.2-0.8c0-0.3-0.2-1.5-0.3-1.8c-0.1-0.3-0.9-1.2-1.1-1.4
		c-0.2-0.2-3-1.6-3.4-1.7c-0.6-0.2-1.1-0.4-1.4-0.9c-0.2-0.3-0.3-0.7-0.7-0.9c-0.3-0.2-0.6,0-0.9,0.1c-0.3,0.1-0.7,0.4-1,0.2
		c-0.3-0.2-0.6-0.4-0.9-0.7s-0.7-0.2-1-0.4s0.1-1.5-0.1-1.7c-0.3-0.3-0.6-0.5-0.7-0.9c-0.1-0.3-0.2-0.6-0.5-0.8
		c-0.3-0.3-0.7-0.6-1-0.8c-0.3-0.2-0.6-0.1-0.9,0c-0.4,0.1-0.8,0.1-1.2,0.1c-0.5,0-2.2-0.5-2.3-0.6c-0.2-0.2-0.6-0.4-0.9-0.5
		c-0.6-0.2-1.2-0.2-1.8-0.3c-0.6-0.1-1.3-0.3-2-0.2c-0.4,0.1-0.8,0.2-1.2,0.3c-0.3,0.2-0.6,0.3-1,0.2c-0.1-0.1-0.9-1.9-1.1-2.1
		c-0.2-0.2-0.5-0.2-0.7-0.3c-0.4,0-0.7,0.1-1.1,0.1c-0.3,0-0.7,0-1-0.1c-0.3-0.1-0.5-0.4-0.7-0.6c-0.2-0.1-0.4-0.2-0.6-0.2
		c-0.2-0.1-0.5-0.2-0.7-0.2c-0.5-0.2-1.2-0.1-1.7-0.3c-0.2-0.1-0.5-0.2-0.6-0.3c-0.1-0.2-0.1-0.5-0.1-0.8c0-0.2,0-0.2-0.1-0.3
		c-0.1-0.1-0.2-0.2-0.3-0.3c-0.2-0.2-0.4-0.4-0.6-0.6c-0.1-0.1-0.1-0.1-0.2-0.1c-0.2-0.1-0.3-0.1-0.5-0.2c-0.3-0.1-0.5-0.2-0.8-0.3
		c-0.3-0.1-0.6-0.3-0.8-0.6c-0.2-0.2-0.3-0.5-0.6-0.6s-0.6,0-0.9-0.1c-0.3-0.1-0.6-0.5-0.7-0.7c-0.5-0.1-0.9-0.3-1.3-0.7
		c-0.2-0.2-0.4-0.4-0.4-0.6c-0.1-0.2-0.1-0.4-0.2-0.6c-0.1-0.5-0.4-1.1-0.7-1.6c-0.2-0.2-0.3-0.5-0.2-0.8c0.1-0.3,0.3-0.5,0.6-0.7
		c0.3-0.2,0.5-0.3,0.6-0.6c0.2-0.4-0.2-0.5-0.5-0.6c-0.3-0.2-0.5-0.4-0.7-0.6c-0.3-0.2-0.6-0.4-0.9-0.5c-0.3-0.1-0.6-0.2-0.9-0.2
		c-0.3-0.1-0.7-0.2-1-0.2c-0.3-0.1-0.7-0.1-1-0.1c-0.3-0.1-0.5-0.2-0.6-0.5c-0.1-0.3-0.2-0.7-0.3-1c-0.1-0.3-0.3-0.4-0.5-0.6
		c-0.2-0.2-0.5-0.2-0.8-0.3c-0.2,0-0.4-0.1-0.6-0.1c-0.3,0-0.5,0.1-0.6-0.2c-0.1-0.2,0-0.5-0.2-0.6c-0.1-0.1-0.5-0.1-0.6-0.2
		c-0.2-0.1-0.3-0.1-0.5-0.2c-0.3-0.1-0.7-0.1-1,0c-0.4,0.1-0.6,0.4-1,0.3c-0.3,0-0.6-0.2-0.7-0.4c-0.2-0.2-0.5-0.3-0.8-0.5
		c-0.6-0.4-1.3-0.4-2-0.3c-0.4,0.1-0.7,0.3-1,0.5c-0.2,0.1-0.3,0.2-0.5,0.3c-0.2,0.1-0.2,0.2-0.4,0.1c-0.3-0.1-0.7-0.3-1-0.2
		c-0.4,0.1-0.3,0.3-0.2,0.6c0.1,0.5,0.5,1.4,0.1,1.9c-0.2,0.3-0.4,0.4-0.7,0.4c-0.3-0.1-0.6-0.2-0.8-0.3c-0.3-0.1-0.6-0.3-0.9-0.5
		c-0.4-0.2-0.9-0.4-1.3-0.6c-0.9-0.4-1.8-0.6-2.7-0.8c-0.3-0.1-0.6-0.2-0.8-0.4c-0.2-0.2-0.2-0.5-0.3-0.7c-0.1-0.4-0.8-0.5-1.2-0.6
		c-0.5-0.2-1-0.3-1.5-0.5c-0.3-0.1-0.7-0.2-1-0.4c-0.2-0.2-0.5-0.5-0.7-0.8c-0.2-0.3-0.2-0.5-0.2-0.8c0-0.3,0-0.6-0.1-0.9
		c-0.1-0.2-0.3-0.5-0.5-0.6c-0.3-0.2-0.8,0.1-1.1,0.3c-0.4,0.2-0.8,0.5-1.2,0.4c-0.2,0-0.3-0.1-0.5-0.2c-0.2-0.1-0.4,0-0.6,0
		c-0.3,0.1-0.6,0.2-0.9,0.4c-0.2,0.1-0.3,0.1-0.5,0.3c-0.1,0.2-0.2,0.3-0.3,0.5c-0.1,0.2,0,0.3-0.1,0.5c-0.1,0.3-0.6,0.4-0.9,0.4
		c-0.3,0-0.7-0.2-1-0.1c-0.2,0.1-0.3,0.3-0.4,0.5c-0.2,0.2-0.4,0.3-0.6,0.4c-0.4,0.1-0.9,0.3-1.3,0.2c-0.4-0.1-0.2-0.9-0.4-1.2
		c-0.2-0.3-0.7-0.6-1.1-0.7c-0.4,0-0.7,0.1-1,0.3c-0.2,0.1-0.4,0.2-0.6,0.3c-0.1,0.1-0.3,0.3-0.4,0.3c-0.3,0.1-0.8-0.3-1.1-0.3
		c-0.3-0.1-0.7-0.1-1,0.1c-0.1,0.1-0.5,0.3-0.5,0.3l-0.6,0.1c-0.3,0-0.5-0.2-0.7-0.2c-0.3-0.1-0.7,0-0.9,0.1c-0.3,0.1-2,1.3-2.3,1.5
		c-0.7,0.5-1.2-1.2-3.3-1.2c-0.4,0-0.6,0.2-1,0.5c-0.3,0.2-1.5-0.1-1.7-0.3c-0.5-0.5-1.3-0.3-1.9-0.6c-0.1-0.5-0.5-1.2-0.9-1.5
		c-0.3-0.2-0.9-0.1-1.2,0.2c-0.2,0.2-0.6,0.9-0.6,1.2c-0.2,1.6-1.8,1.3-2.2,1.3c-0.3,0-1.4-1-1.5-1.1s-1,0-1.4,0
		c-0.4,0-0.8-0.1-1.1-0.3c-0.2-0.2-0.2-0.6-0.5-0.8c-0.2-0.2-1.5,0.4-1.7,0.6c-0.3,0.2-1.2,0.1-1.3,0c-0.1-0.2-0.2-0.3-0.5-0.4
		c-0.3-0.1-1.3-0.4-1.4-0.3c-0.1,0.1-0.3,0.8-0.5,0.9c-0.1,0.1-1.2-0.7-1.5-0.9c-0.3-0.2-0.7-0.2-1-0.3c-0.3-0.1-1.2-1.3-1.5-1.6
		c-0.1-0.1-1.9-0.8-2.3-1c-0.5-0.2-0.7-0.5-0.9-0.9c-0.2-0.3-0.4-0.5-0.8-0.5c-0.5-0.1-1-0.1-1.5-0.3c-0.3-0.2-0.6-0.4-0.9-0.7
		c-0.5-0.6-0.7-2.7-0.7-3c-0.1-0.3-0.9-0.9-1.1-1c-0.2-0.1-0.7,0.3-0.9,0.3c-0.2,0-0.7-0.4-0.9-0.4c-0.2,0-0.3,0.1-0.5,0.2
		c-0.2,0.1-1.2,1.4-1.5,1.5c-0.2,0.1-1.5-0.2-1.6-0.5c-0.1-0.1,0-0.3-0.1-0.4c-0.1-0.2-0.3-0.2-0.4-0.3c-0.4-0.2-0.8-0.1-1.2-0.2
		c-0.3-0.1-1.6-0.7-1.8-0.9c-0.5-0.3-4.5-1.4-5-1.6c-0.3-0.1-0.6-0.1-0.9,0c-0.3,0.2-0.6,0.5-0.9,0.7c-0.2,0.1-0.6,0.1-0.9,0.1
		c-0.7,0-1.4,0-2-0.3c-0.3-0.2-0.1-1.6-0.3-1.7c-0.2-0.1-3-1.8-3.3-1.6c-0.2,0.1-1.6,1-2,0.8c-0.3-0.1-2-2.3-2.1-2.5
		c-0.2-0.2-0.7-1.5-0.8-1.6c-0.1-0.2-3.8-1.4-4.2-1.6c-0.5-0.2-1-0.3-1.5-0.5c-0.4-0.2-2.6-1.7-3-1.7c-0.4,0-1.9-0.4-2.1-0.7
		c-0.1-0.1-0.3-0.9-0.4-1c-0.2-0.2-0.8-0.1-1-0.1c-0.4,0-3.8,2.5-4,2.5s-2.5-0.5-3-0.6c-0.4-0.1-1.3-0.9-1.5-1
		c-0.3-0.2-0.6-0.1-0.9-0.1c-0.2,0-1.6-0.8-1.9-0.8c-0.3,0-0.6,0.3-0.8,0.5c-0.5,0.5-2.4,0.3-2.6,0.1c-0.2-0.1-0.4-0.3-0.6-0.3
		C91,2.5,90,2,89.9,1.7c-0.1-0.3-1.4-0.3-1.8-0.3c-0.4,0-1.7-1.2-1.8-1.4S85,0.1,84.7,0.3c-0.3,0.2-1.7,0.4-2.1,0.4S80.8,0.9,80.4,1
		c-0.2,0-0.6,0.2-0.7,0.2c-0.4,0.1-0.9,0.1-1.3,0.1c-0.2,0-0.5,0.1-0.7,0.2c-0.3,0.2-0.2,0.4-0.2,0.7c0,0.8-0.5,1.5-1.1,2
		s-1.4,2.6-1.9,3.3s0,1-1.1,2.8s-1,4-1,4c0.9,0.2,3.2,0.6,3.2,0.6c1.6,0.2,3.3,1.7,4.7,2.6c1.4,0.8,3.5,1.3,5,2.4
		c1.5,1.1,1.7,7.4,1.5,8.4c-0.2,0.9,2.5,2.4,3.2,2.9c0.7,0.6,1.2-0.8,1.8-1.4c0.6-0.6,2.5,0.3,2.8,0.7s1.5,0.4,2.2,1
		c0.7,0.6,1.1,0.3,1.9,0.1c1-0.1,3.5,2.8,4,3.3c0.5,0.6,2.1,0.1,3.6,0.1c1.4,0,1.3,0.3,2.2,0.7c0.9,0.5,1.8-0.1,2.6-0.2
		c0.7-0.1,2.8,0.3,3.9,0.2c1.1-0.1,1.9,0.3,2.6,0.5c0.7,0.2,2.5,2.4,2.7,3s2.4,2.7,2.8,3.3c0.5,0.6,0.9,0.3,1,0
		c0.2-0.3,1-0.4,1.4-0.4s0.5-0.2,1.2-0.3c0.6-0.1,2.3,3.9,2.8,5c0.5,1.1,0.6,3.2,0.9,4c0.3,0.8,0.2,1.9,0.6,2.4
		c0.5,0.5,1.3,1.8,2.1,3c0.8,1.2,2.4-0.7,3.4-0.6c0.9,0.1,3.6,1.2,4.3,1.7s2.3,0.8,3.2,0.9s1.5,0.3,2.6,1.3s0.5,0.5,1.3,0.7
		c0.8,0.3,1.7,3,2.1,4.2c0.3,1.3,1.2,4,1.4,4.7c0.1,0.7,0.5,1.3,0.6,2.5c0.1,1.2,1,4,1,4.9c0.1,0.9,0.3,5,0.4,5.6
		c0.1,0.4,0,0.9,0.5,1.7l-0.1-0.3c0,0,0.3,0.5,0.3,0.5c0.3,0.4,0.7,0.9,1.3,1.5c2,2,2.2,5.8,2.7,6.9c0.5,1.1,0.6,2.2,0.8,3
		c0.2,0.8-0.4,1.9-0.7,2.7c-0.3,0.7,0.4,1.4,1.1,2c0.7,0.6,0.2,2.4,0.3,3.3c0.1,0.9,1.3,1.5,1.9,1.9c0.6,0.4,0.6,1,1.2,2.1
		c0.1,0.1,0.1,0.2,0.2,0.3c0.5,1,0.9,2.1,1.4,2.8c0.5,0.8,0.8,2.1,1.1,2.8c0.2,0.5,0.4,3.7,0.5,5.6c0,0.5,0.1,0.9,0.1,1.2
		c0.2,1.2-0.1,4.9-0.3,6.2s-0.9,2.7-1.3,3.4c-0.4,0.7-1,3-1.7,4.1c-0.6,1.1-0.7,1.5-1.5,2.8c-0.9,1.3-1.6,0.6-2,0.3
		s-3.2,2.7-3.6,3.4c-0.4,0.7-0.4,2.8-0.4,3.8c0,1-1.3,2.5-1.3,2.5s0.5,0.2,1.9,0.7c1.4,0.4,2.7,1.6,3.5,2.1c0.8,0.6,2-0.3,3-0.6
		c1-0.3,0.5,0.6,0.6,1.2c0,0.5,1.3,0.3,2,0.4c0.8,0,3.2,1.6,3.6,2.1c0.4,0.6,1.1-0.2,1.3-0.5s0.8-0.6,1.5-0.8s0.5-1,1.1-1.7
		c0.6-0.7,2.3-2,3.4-2.5c1.1-0.5,1.8,1,2.2,1c0.4,0,1.1,0.2,2,0.9c0.9,0.7,1.6-0.6,2.3-1.1c0.7-0.5,2,0.2,2.5,0.4
		c0.6,0.2,1.2-0.1,2-0.5c0.8-0.4,1.6,0.4,2,1c0.5,0.6,0.8,0.1,1.6,0.2c0.8,0.2,1.7-0.1,2.4-0.1s1.5,0.6,1.8,1.3
		c0.3,0.7,2.5,1,3.6,0.9c1.2-0.1,2.2,0.7,3,1.5c0.8,0.7,2.5-0.1,3.6-0.2c1.1-0.1,0.7-0.6,0.4-1c-0.3-0.5,0.2-1.5,0.8-2
		c0.6-0.5,1.6-1.5,1.8-2c0.3-0.5,0.5-1.8,0.6-3c0.1-0.8,0.9-1.2,1.6-1.4c0.4-0.1,0.7-0.2,1-0.4c0.9-0.5,3.3-0.7,4.7-1.1
		c1.4-0.4,2.1,0.9,3.2,1.3c1.1,0.5,1.6-0.5,2.6-0.6c1-0.1,0.4,1.2,0,2c-0.5,0.8-0.1,0.6-0.1,1.4c0.1,0.8-1.4,1-1.2,1.9
		c0.3,0.9,1.6,2.3,2.4,2.8c0.8,0.6,1.4-1.7,2-2.1c0.6-0.3,0.8,0.9,1.5,1.7c0.6,0.8,2.1,1.4,2.7,1.8c0.6,0.3,0.7,1.3,1.3,2.1
		c0.5,0.9,1,1.9,1.9,3c0.9,1.2,2,0.8,3.3,1.4c1.3,0.6,1.8,2.6,2.5,3.1c0.7,0.5,1.3,0.5,2.5,0.8c1.3,0.3,0.6,1.3,0.1,1.8
		c-0.5,0.5-2.5,1.2-2.7,2c-0.2,0.8,1.7,0.2,2.9,0.2c1.2,0,2.1,3.9,2.7,5c0.5,1.1,5.8-1.5,7-1.5c1.3,0,2.1,1.3,3.1,1.6
		c1,0.3,1.8,2.3,2,3.5c0.2,1.3,2.4-0.4,3.9-1c1.5-0.6,3.8,1,4.6,1.4c0.8,0.4,1.1-0.2,2.1-0.6s1.8,0.7,2.7,1.3
		c0.8,0.6,1.7-0.1,2.3-0.5c0.6-0.5,2-2,3.3-2.5c1.2-0.6,3.6-0.5,4.3-0.6c0.6-0.1,1.6,0.3,2.4,0.6c0.2,0.1,0.4,0.2,0.6,0.2
		c0.8,0.2,1.5-0.2,1.9-0.9s1.5-0.4,2.6-1.2c1.1-0.8,3.1-0.1,4.9-0.1c1.8,0.1,1.9-2.5,1.7-3.5c-0.2-1,0.8-0.4,1.5,0.1
		c0.7,0.4,1.2-0.2,1.7-0.3c0.5-0.2,0.6,0.9,0.8,1.6c0.3,0.6,1.2,0.1,1.7-0.1c0.5-0.1,0.6,0.1,1.3,0.6c0.7,0.6,1-0.5,1.6-1.4
		c0.6-1,4.7,2.3,6.6,3.3c2,1,3.1-1.4,3.6-2.4s0.3,0.4,0.5,1.1c0.2,0.7,0.9,0,1.8-0.6s0.5,0.1,0.7,0.6c0.2,0.6,1.3-1,1.3-1.7
		c0.1-0.7,1.1-0.6,1.8-0.6c0.7,0,0.9,0.3,1.4,0.9c0.5,0.6,0.6,0.3,1.3,0c0.7-0.3,0.7,0.4,1.3,0.9c0.5,0.5,1.7-0.5,3.3-0.9
		c1.6-0.4,2.3,0.6,3.9,1c1.6,0.4-0.1-1-1.3-1.5c-1.2-0.5-1.8-1.9-1.8-2.7c-0.1-0.8,0.1-0.4,0.7-1.8s1.4,0.5,2.4,1.2
		c1,0.6,2.7,1.1,3.9,1.2c1.3,0.1,1.3-1.1,2-2.1c0.7-0.9,3.3-1.8,4.3-2.3c1-0.5,2.3-1.2,3.3-2.1c1-0.8,1.9-2.8,2.5-3.5
		c0.6-0.6,1.4-0.6,2.5-1.4c1.1-0.8,2-1.5,2.4-2.4c0.3-0.7,1.5-0.9,2.3-1c0.2,0,0.3,0,0.4,0c0.8,0,2.6,1.3,4.2,2.4
		c1.7,1,2.3-0.7,2.9-1.3c0.6-0.6,2,1,2.8,1.8c0.7,0.8,1.9,0.6,2.9,0.9c1,0.3,1.4,1.6,1.8,2.3c0.5,0.7,0.7,0.2,2.4,0.3
		c1.7,0,1.7,0.5,2.4,0.9c0.7,0.5,1-0.2,1.4-0.4c0.4-0.2,1,0.1,1.6,0.9c0.6,0.8-0.5,0.8-1.3,1c-0.7,0.2-0.8,1.1-1.1,1.6
		c-0.3,0.5,0.4,2.1,0.9,3c0.4,0.9,3.4,2.4,4.9,3.3c1.5,0.9,2,0.6,3.2,0.7c1.3,0.1,3.2,1.9,4.2,2.6c1,0.7,1.4,0.3,3,0.1
		c1.6-0.1,3.4,0.1,4.6,0.2c1.2,0.1,1.2-0.9,1.8-1.7c0.6-0.8,1,0.4,1.3,1c0.3,0.6,0.7,0.3,2.1,0.3c1.4,0,1.8,0.4,2.9,0.8
		s1,1.3,1.5,2.3c0.5,0.9,3.8,2.7,4.7,3.6c0.9,0.9,2.9-0.7,2.9-0.7c0.4-0.3,1.7-0.2,1.9-0.2c0.3,0,1.3,1.7,1.4,2
		c0.1,0.3,1.9,1.4,2,1.4c0.1-0.1,1.6-2.1,1.7-2.5c0.1-0.3,0.1-0.6,0.3-0.9c0.2-0.3,1.5-1.3,1.9-1.3c0.3,0,1.3,1.1,1.6,1.4
		c0.2,0.2,1.4,0.4,1.6,0.2c0.1-0.1,0.6-1.7,0.7-2c0.1-0.1,0.2-0.6,0.2-0.7c0-0.2,0-0.3,0-0.5c0.1-0.2,0.1-0.3,0.1-0.5
		c0.1-0.1,0.1-0.2,0.2-0.3c0.1-0.3,0.3-1.7,0.3-1.8c0-0.3-0.2-1.2-0.1-1.4c0-0.1,1-1.8,1.1-2c0.1-0.1,0.2-0.1,0.3-0.2
		c0.2-0.2,0.2-0.2,0.2-0.5c0-0.3-0.1-0.5,0-0.8c0.1-0.2,1.4-1.8,1.5-2c0.2-0.2,0.4-0.5,0.4-0.7C427.5,163.4,427.4,163.2,427.1,163z"
		/>
</g>
<g id="users_x5F_group">
	<g>
		<path class="st2" d="M205.7,25.2C205.7,11.3,217,0,230.9,0c13.9,0,25.2,11.3,25.2,25.2s-11.3,25.2-25.2,25.2
			C217,50.4,205.7,39.1,205.7,25.2z M243,67.5c0.3-5.5,2.1-10.6,5.2-14.7c-2.1-0.4-4.3-0.7-6.6-0.7h-21.4c-2.3,0-4.5,0.2-6.6,0.7
			c3.2,4.5,5.2,10,5.2,15.9c3.9-2.2,8.4-3.4,13.2-3.4C235.9,65.2,239.6,66.1,243,67.5z M247.3,69.8c7.3,4.6,12.4,12.3,13.4,21.3
			c3,1.4,6.3,2.2,9.8,2.2c12.8,0,23.2-10.4,23.2-23.2c0-12.8-10.4-23.2-23.2-23.2C257.7,46.9,247.4,57.1,247.3,69.8z M232.1,117.2
			c12.8,0,23.2-10.4,23.2-23.2c0-12.8-10.4-23.2-23.2-23.2c-12.8,0-23.2,10.4-23.2,23.2C208.9,106.9,219.3,117.2,232.1,117.2z
			 M241.9,118.8h-19.7c-16.4,0-29.7,13.3-29.7,29.7v24.1l0.1,0.4l1.7,0.5c15.6,4.9,29.2,6.5,40.4,6.5c21.8,0,34.5-6.2,35.2-6.6
			l1.5-0.8h0.2v-24.1C271.6,132.1,258.3,118.8,241.9,118.8z M280.3,94.9h-19.5c-0.2,7.8-3.5,14.8-8.8,19.9
			c14.6,4.3,25.2,17.8,25.2,33.8v7.4c19.3-0.7,30.4-6.2,31.1-6.5l1.6-0.8h0.2v-24.1C310,108.2,296.6,94.9,280.3,94.9z M285.5,46.4
			c7.3,4.6,12.4,12.3,13.4,21.3c3,1.4,6.3,2.2,9.8,2.2c12.8,0,23.2-10.4,23.2-23.2c0-12.8-10.4-23.2-23.2-23.2
			C296,23.6,285.7,33.8,285.5,46.4z M318.5,71.6H299c-0.2,7.8-3.5,14.8-8.8,19.9c14.6,4.3,25.2,17.8,25.2,33.8v7.4
			c19.3-0.7,30.4-6.2,31.1-6.5l1.5-0.8h0.2v-24.1C348.2,84.9,334.9,71.6,318.5,71.6z M191.4,93.3c4.5,0,8.8-1.3,12.3-3.6
			c1.1-7.4,5.1-13.9,10.8-18.3c0-0.4,0.1-0.9,0.1-1.3c0-12.8-10.4-23.2-23.2-23.2c-12.8,0-23.2,10.4-23.2,23.2
			C168.2,82.9,178.6,93.3,191.4,93.3z M212.2,114.8c-5.2-5-8.6-12-8.8-19.8c-0.7-0.1-1.4-0.1-2.2-0.1h-19.7
			c-16.4,0-29.7,13.3-29.7,29.7v24.1l0.1,0.4l1.7,0.5c12.5,3.9,23.7,5.7,33.4,6.3v-7.3C187,132.6,197.6,119.1,212.2,114.8z"/>
	</g>
</g>
<g id="Слой_3" class="st0">
	<path class="st1" d="M327.6,173.8v-19.4c4.1-2.4,6.5-6.9,6.2-11.7c0-6.9-4.2-12.4-9.3-12.4s-9.3,5.6-9.3,12.4
		c-0.3,4.7,2.1,9.2,6.2,11.7v19.4h-21.7V79.5L281,70.2v16.7h9.3v6.2H281v12.4h9.3v6.2H281v12.4h9.3v6.2H281v12.4h9.3v6.2H281v12.4
		h9.3v6.2H281v6.2h-6.2V48.9l-37.2-10.6v11.4h21.7v6.2h-21.7v12.4h21.7v6.2h-21.7v12.4h21.7v6.2h-21.7v12.4h21.7v6.2h-21.7v12.4
		h21.7v6.2h-21.7v12.4h21.7v6.2h-21.7v12.4h21.7v6.2h-21.7v6.2h-6.2V0h-55.9v12.4h27.9v6.2h-27.9v12.4h27.9v6.2h-27.9v12.4h27.9v6.2
		h-27.9v12.4h27.9v6.2h-27.9v12.4h27.9v6.2h-27.9v12.4h27.9v6.2h-27.9v12.4h27.9v6.2h-27.9v12.4h27.9v6.2h-27.9v12.4h27.9v6.2h-27.9
		v6.2h-18.6v6.2h186.2v-6.2H327.6z"/>
</g>
</svg>
