<svg id="Слой_1" data-name="Слой 1" xmlns="http://www.w3.org/2000/svg" viewBox="0 0 640.4 640.4"><defs><style>.cls-1,.cls-2{fill:#f26722;}.cls-2{stroke:#f26722;stroke-miterlimit:10;stroke-width:4px;}</style></defs><title>percent</title><path class="cls-1" d="M319.2,640.4C142.66,640.4-1,496.76-1,320.2S142.66,0,319.2,0,639.4,143.66,639.4,320.2,495.76,640.4,319.2,640.4Zm0-621C153.36,19.43,18.43,154.36,18.43,320.2S153.36,621.09,319.2,621.09s300.89-135,300.89-300.89S485.13,19.43,319.2,19.43Zm0,0" transform="translate(1)"/><path class="cls-2" d="M164.9,213.77q0-30.65,18.53-51.08t46.09-20.43q27.79,0,46.09,20.55T293.9,215v17.1q0,30.18-18.18,50.6T230,303.09q-27.8,0-46.44-20.19T164.9,230.64ZM178,232.1q0,24.78,14.13,41.48T230,290.27q22.81,0,36.83-16.45t14-42.92V213.74q0-25.76-14.13-42.2t-37.18-16.45q-22.58,0-37.06,16.45T178,215.41ZM238.07,462l-10.69-7.37L396.29,184.31,407,191.68ZM344.5,408.34q0-30.64,18.41-51t46-20.31q27.8,0,46.21,20.31T473.5,410v16.87q0,30.64-18.41,50.95t-45.73,20.32q-27.57,0-46.21-20.2T344.5,425.68Zm13.07,18.56q0,25.52,14.13,42t37.66,16.45q23.28,0,37.18-16.57t13.89-43V408.3q0-26.94-13.89-42.67t-37.66-15.74q-23.52,0-37.42,16.1t-13.89,43.27Z" transform="translate(1)"/></svg>