<?xml version="1.0" encoding="utf-8"?>
<!-- Generator: Adobe Illustrator 22.0.0, SVG Export Plug-In . SVG Version: 6.00 Build 0)  -->
<svg version="1.1" id="Capa_1" xmlns="http://www.w3.org/2000/svg" xmlns:xlink="http://www.w3.org/1999/xlink" x="0px" y="0px"
	 viewBox="0 0 489.4 489.4" style="enable-background:new 0 0 489.4 489.4;" xml:space="preserve">
<style type="text/css">
	.st0{fill:#686868;}
</style>
<g>
	<g>
		<path class="st0" d="M0,437.8c0,28.5,23.2,51.6,51.6,51.6h386.2c28.5,0,51.6-23.2,51.6-51.6V51.6c0-28.5-23.2-51.6-51.6-51.6H51.6
			C23.1,0,0,23.2,0,51.6V437.8z M51.6,24.5h386.2c14.9,0,27.1,12.2,27.1,27.1v238.1l-99.2-99.1c-4.8-4.8-12.5-4.8-17.3,0
			L205.2,333.8l-79.3-79.3c-4.8-4.8-12.5-4.8-17.3,0l-84.1,84.1v-287C24.5,36.7,36.7,24.5,51.6,24.5z"/>
		<path class="st0" d="M151.7,196.1c34.4,0,62.3-28,62.3-62.3s-28-62.3-62.3-62.3s-62.3,28-62.3,62.3S117.3,196.1,151.7,196.1z"/>
	</g>
</g>
</svg>
