<svg id="Слой_1" data-name="Слой 1" xmlns="http://www.w3.org/2000/svg" viewBox="0 0 640.4 640.4"><defs><style>.cls-1{fill:#304269;}</style></defs><title>referal</title><path class="cls-1" d="M319.2,640.4C142.66,640.4-1,496.76-1,320.2S142.66,0,319.2,0,639.4,143.66,639.4,320.2,495.76,640.4,319.2,640.4Zm0-621C153.36,19.43,18.43,154.36,18.43,320.2S153.36,621.09,319.2,621.09s300.89-135,300.89-300.89S485.13,19.43,319.2,19.43Zm0,0" transform="translate(1)"/><path class="cls-1" d="M319.2,640.4a317.64,317.64,0,0,1-185.27-59.32A9.72,9.72,0,0,1,136.11,564c80.47-29.77,93.45-53.93,93.45-100.26,0-12.33-2.74-16.31-7.67-23.58-6.64-9.59-15.64-22.76-21.9-57.06-1-4.93-1.8-5.31-6.16-7.4-11.75-5.68-22.54-13.83-25.4-51.07,0-18,6.16-28,11.37-33.06-1.14-6.46-3-17.54-4.73-29.58-8.8-53.83-9.19-119.88,66.62-150.57,66.06-26.74,118.82-12.13,135.42,5.31,11.64.36,41.87,3.49,62.92,28,32.41,37.62,22.08,123.48,18.56,146.69,5.12,5.12,11.38,15,11.38,32.58-2.74,37.92-13.56,46.07-25.4,51.75-4.34,2.09-5.22,2.47-6.16,7.4-6.26,34.3-15.26,47.47-21.88,57.06-4.93,7.27-7.67,11.25-7.67,23.58,0,46.33,13,70.49,93.42,100.26a9.75,9.75,0,0,1,2.28,17.05A317.71,317.71,0,0,1,319.2,640.4ZM160.37,575.5a299.45,299.45,0,0,0,317.65,0c-67.36-27.77-88.59-55.62-88.59-111.73,0-18.3,5.38-26.16,11.18-34.5,5.87-8.61,13.18-19.34,18.75-49.66,2.75-14.58,11.19-18.65,16.87-21.4,6-2.86,12.22-5.89,14.41-35,0-14.87-6.72-18.85-6.92-19a10.25,10.25,0,0,1-5.12-10.43c4.73-25.77,12.71-106.24-13.27-136.46-17.71-20.55-45.68-21.13-51-20.94a25.26,25.26,0,0,1-2.57-.29c-2.54-.65-6.81-2.84-8.15-5.12-5.21-9-51.16-27.19-114.65-1.5-62.73,25.4-62.83,79.79-54.68,129.64,2.65,18.56,5.58,34.67,5.58,34.67a9.74,9.74,0,0,1-5.48,10.62c.1,0-6.55,4.08-6.55,19.53,2.18,28.41,8.34,31.37,14.41,34.3,5.58,2.65,14.12,6.72,16.76,21.4,5.61,30.25,13,40.95,18.88,49.56,5.77,8.35,11.08,16.3,11.08,34.5,0,56.21-21.13,84.15-88.62,111.83Zm0,0" transform="translate(1)"/></svg>