<?xml version="1.0" encoding="utf-8"?>
<!-- Generator: Adobe Illustrator 22.0.0, SVG Export Plug-In . SVG Version: 6.00 Build 0)  -->
<svg version="1.1" id="Capa_1" xmlns="http://www.w3.org/2000/svg" xmlns:xlink="http://www.w3.org/1999/xlink" x="0px" y="0px"
	 viewBox="0 0 512 512" style="enable-background:new 0 0 512 512;" xml:space="preserve">
<style type="text/css">
	.st0{fill:#FF6600;}
</style>
<g>
	<g>
		<g>
			<g>
				<circle class="st0" cx="386" cy="210" r="20"/>
				<path class="st0" d="M432,40h-26V20c0-11-9-20-20-20s-20,9-20,20v20h-91V20c0-11-9-20-20-20c-11,0-20,9-20,20v20h-90V20
					c0-11-9-20-20-20s-20,9-20,20v20H80C35.9,40,0,75.9,0,120v312c0,44.1,35.9,80,80,80h153c11,0,20-9,20-20s-9-20-20-20H80
					c-22.1,0-40-17.9-40-40V120c0-22.1,17.9-40,40-40h25v20c0,11,9,20,20,20s20-9,20-20V80h90v20c0,11,9,20,20,20c11,0,20-9,20-20
					V80h91v20c0,11,9,20,20,20s20-9,20-20V80h26c22.1,0,40,17.9,40,40v114c0,11,9,20,20,20s20-9,20-20V120C512,75.9,476.1,40,432,40
					z"/>
				<circle class="st0" cx="299" cy="210" r="20"/>
				<circle class="st0" cx="212" cy="297" r="20"/>
				<circle class="st0" cx="125" cy="210" r="20"/>
				<circle class="st0" cx="125" cy="297" r="20"/>
				<circle class="st0" cx="125" cy="384" r="20"/>
				<circle class="st0" cx="212" cy="384" r="20"/>
				<circle class="st0" cx="212" cy="210" r="20"/>
			</g>
		</g>
	</g>
</g>
<g>
	<path class="st0" d="M394.5,277C329.7,277,277,329.7,277,394.5S329.7,512,394.5,512S512,459.3,512,394.5S459.3,277,394.5,277z
		 M456,333.6l-67.7,136.6c-0.7,1.4-2,2.2-3.5,2.2c-0.2,0-0.4,0-0.7-0.1c-1.7-0.3-3-1.7-3.2-3.4l-7.1-58.6l-62-10.4
		c-1.7-0.3-3-1.6-3.2-3.3c-0.2-1.7,0.7-3.4,2.2-4.1l140.1-64.3c1.5-0.7,3.3-0.4,4.4,0.8C456.5,330.3,456.8,332.1,456,333.6z"/>
</g>
</svg>
