<?xml version="1.0" encoding="utf-8"?>
<!-- Generator: Adobe Illustrator 22.1.0, SVG Export Plug-In . SVG Version: 6.00 Build 0)  -->
<svg version="1.1" xmlns="http://www.w3.org/2000/svg" xmlns:xlink="http://www.w3.org/1686868/xlink" x="0px" y="0px"
	 viewBox="0 0 500 500" style="enable-background:new 0 0 500 500;" xml:space="preserve">
<style type="text/css">
	.st0{display:none;}
	.st1{display:inline;fill:#304269;}
	.st2{display:inline;}
	.st3{fill:#91BED4;}
	.st4{fill:#F26101;}
	.st5{fill:none;stroke:#91BED4;stroke-width:20;stroke-miterlimit:10;}
	.st6{display:inline;fill:none;stroke:#91BED4;stroke-width:20;stroke-miterlimit:10;}
	.st7{display:inline;fill:#D9E8F5;}
	.st8{display:inline;fill:#F26101;}
	.st9{fill:#FFFFFF;}
	.st10{fill:#D9E8F5;}
	.st11{fill:#304269;}
	.st12{display:inline;fill:#CAE4F5;}
	.st13{display:inline;fill:#B4D3E1;}
	.st14{display:inline;fill:#FFFFFF;}
	.st15{display:inline;fill:#91BED4;}
	.st16{fill:none;stroke:#91BED4;stroke-width:6;stroke-miterlimit:10;}
	.st17{fill:none;stroke:#91BED4;stroke-width:3;stroke-miterlimit:10;}
	.st18{opacity:0.5;fill:#304269;}
</style>
<g id="Слой_5" class="st0">
	<rect x="-1672" y="-628" class="st1" width="2271" height="1242"/>
</g>
<g id="route" class="st0">
</g>
<g id="calendar__x28_копия_x29_" class="st0">
</g>
<g id="guide" class="st0">
</g>
<g id="enjoy">
	<g class="st0">
		<path class="st7" d="M7.1,332v69c0,5.4,3.2,10.3,8.1,12.5l31.6,14.1c2.7,1.2,5.6,1.8,8.5,1.8h418.1c10.7,0,19.3-8.6,19.3-19.3
			v-36.9c0-6.5-1.8-12.9-5.1-18.4l-2.3-3.7c-7.5-12.4-19.8-21.1-34-23.9l-65-12.9c-13.2-2.6-25.7-9.7-36.8-17.2l-47.1-31.8
			c-16.7-11.3-36.3-17.3-56.5-17.3h-86.5c-26.7,0-52.3,10.6-71.2,29.4l0,0c-13.8,13.8-31.4,23.3-50.5,27.3l-10.2,2.1
			C15.7,309.2,7.1,319.7,7.1,332L7.1,332z"/>
		<path class="st14" d="M67.7,327.7c0-4.3,2.4-8.2,6.2-10.1c11-5.7,21.1-13.1,30-22c14.9-14.9,34.7-23,55.8-23h86.5
			c15.8,0,31.2,4.7,44.2,13.5l47.1,31.8c3.1,2.1,6.3,4.1,9.6,5.9c4.3,2.4,7.1,6.9,7.1,11.8l0,0c0,1.9-1.6,3.5-3.5,3.5H79.1
			C72.8,339.1,67.7,334,67.7,327.7L67.7,327.7L67.7,327.7z"/>
		<path class="st14" d="M414.6,383.6c22.2,0,40.1,18,40.1,40.1c0,22.2-18,40.1-40.1,40.1c-22.2,0-40.1-18-40.1-40.1
			C374.5,401.5,392.4,383.6,414.6,383.6L414.6,383.6z"/>
		<path class="st14" d="M87.1,383.6c22.2,0,40.1,18,40.1,40.1c0,22.2-18,40.1-40.1,40.1c-22.2,0-40.1-18-40.1-40.1
			C47,401.5,65,383.6,87.1,383.6L87.1,383.6z"/>
		<path class="st12" d="M87.1,409.2c8,0,14.5,6.5,14.5,14.5s-6.5,14.5-14.5,14.5c-8,0-14.5-6.5-14.5-14.5S79.1,409.2,87.1,409.2
			L87.1,409.2z"/>
		<path class="st12" d="M414.6,409.2c8,0,14.5,6.5,14.5,14.5s-6.5,14.5-14.5,14.5c-8,0-14.5-6.5-14.5-14.5S406.6,409.2,414.6,409.2
			L414.6,409.2z"/>
		<path class="st15" d="M193.3,332v-52.3h52.9c14.4,0,28.3,4.3,40.3,12.3l47.1,31.8c3.3,2.2,6.7,4.3,10.1,6.2c0.9,0.5,1.6,1.2,2.2,2
			H193.3L193.3,332z M350.5,317.5c-3.1-1.7-6.1-3.6-9-5.5l-47.1-31.8c-14.3-9.7-31-14.8-48.2-14.8h-86.5c-23,0-44.6,8.9-60.8,25.1
			c-8.4,8.3-17.9,15.3-28.3,20.7c-6.2,3.2-10,9.5-10,16.4c0,10.2,8.3,18.5,18.5,18.5h29.5c3.9,0,7.1-3.2,7.1-7.1
			c0-3.9-3.2-7.1-7.1-7.1H79.1c-2.4,0-4.3-1.9-4.3-4.3c0-1.6,0.9-3.1,2.3-3.8c11.7-6.1,22.4-13.9,31.8-23.3
			c13.6-13.5,31.6-21,50.8-21H179V332h-23.7c-3.9,0-7.1,3.2-7.1,7.1c0,3.9,3.2,7.1,7.1,7.1h195.3c5.9,0,10.6-4.8,10.6-10.6
			C361.3,328.1,357.1,321.2,350.5,317.5L350.5,317.5z"/>
		<path class="st8" d="M210.9,357h-22c-3.9,0-7.1,3.2-7.1,7.1c0,3.9,3.2,7.1,7.1,7.1h22c3.9,0,7.1-3.2,7.1-7.1
			C218,360.2,214.8,357,210.9,357L210.9,357z"/>
		<path class="st15" d="M485.8,410.1c0,6.7-5.5,12.2-12.2,12.2h-11.7c-0.3-10.3-3.9-20.2-10.5-28.3c0-0.1-0.1-0.1-0.1-0.2
			c-0.4-0.5-0.8-1-1.3-1.5c-0.1-0.1-0.2-0.3-0.3-0.4c-0.5-0.5-0.9-1-1.4-1.5c-0.1-0.1-0.2-0.2-0.2-0.2c-6.1-6.1-13.7-10.4-21.9-12.4
			c-3.7-0.9-7.6-1.4-11.5-1.4c-3.2,0-6.3,0.3-9.3,0.9c-9.1,1.8-17.4,6.2-24.1,12.9c-0.1,0.1-0.2,0.2-0.2,0.2c-0.5,0.5-0.9,1-1.4,1.5
			c-0.1,0.1-0.2,0.2-0.3,0.4c-0.4,0.5-0.9,1-1.3,1.5c0,0-0.1,0.1-0.1,0.2c-6.6,8.1-10.2,17.9-10.5,28.3h-233
			c-0.3-10.3-3.9-20.2-10.5-28.3c0,0-0.1-0.1-0.1-0.1c-0.4-0.5-0.9-1-1.3-1.5c-0.1-0.1-0.2-0.2-0.2-0.3c-0.5-0.6-1.1-1.2-1.6-1.7
			c-2.3-2.3-4.8-4.3-7.4-6c-7.9-5.2-16.9-7.8-26-7.8c-12.1,0-24.2,4.6-33.4,13.8c-0.5,0.5-1,1.1-1.5,1.6c-0.1,0.2-0.3,0.3-0.4,0.5
			c-0.4,0.4-0.7,0.8-1,1.2c-0.1,0.2-0.3,0.4-0.4,0.5c-0.3,0.4-0.7,0.9-1,1.3c-0.1,0.1-0.2,0.3-0.3,0.4c-0.9,1.2-1.7,2.5-2.5,3.8
			c0,0,0,0.1-0.1,0.1c-0.4,0.6-0.7,1.3-1.1,1.9c0,0,0,0,0,0.1c-2.5,4.7-4.2,9.8-4.9,15.1L18.2,407c-2.4-1.1-3.9-3.4-3.9-6v-69
			c0-8.8,6.3-16.6,14.9-18.4l10.2-2.1c20.5-4.3,39.2-14.4,54.1-29.2c17.7-17.6,41.2-27.3,66.2-27.3h86.5c18.8,0,36.9,5.6,52.5,16.1
			l47.1,31.8c9.5,6.4,23.8,15.2,39.4,18.3l65,12.9c12.2,2.4,22.9,9.9,29.3,20.6l2.3,3.7l0,0c2.7,4.5,4.1,9.5,4.1,14.7L485.8,410.1
			L485.8,410.1L485.8,410.1z M438,447c-6.2,6.2-14.5,9.7-23.3,9.7c-8.8,0-17.1-3.4-23.3-9.7c-11.2-11.2-12.7-28.6-4.3-41.4
			c0-0.1,0.1-0.1,0.1-0.2c0.2-0.4,0.5-0.7,0.8-1.1c0.1-0.2,0.2-0.3,0.4-0.5c0.2-0.3,0.4-0.6,0.7-0.9c0.2-0.2,0.4-0.5,0.6-0.7
			c0.2-0.2,0.3-0.4,0.5-0.6c0.4-0.4,0.8-0.9,1.2-1.3c6.2-6.2,14.5-9.7,23.3-9.7s17.1,3.4,23.3,9.7c0.4,0.4,0.8,0.9,1.2,1.3
			c0.2,0.2,0.3,0.4,0.5,0.6c0.2,0.2,0.4,0.5,0.6,0.7c0.2,0.3,0.4,0.6,0.7,0.9c0.1,0.2,0.2,0.3,0.4,0.5c0.3,0.4,0.5,0.7,0.8,1.1
			c0,0.1,0.1,0.1,0.1,0.2C450.6,418.4,449.2,435.8,438,447L438,447z M110.5,447c-6.2,6.2-14.5,9.7-23.3,9.7S70,453.3,63.8,447
			c-10-10-12.2-24.9-6.7-37c0-0.1,0.1-0.2,0.1-0.3c0.2-0.4,0.3-0.7,0.5-1.1c0.1-0.2,0.2-0.3,0.3-0.5c0.2-0.3,0.3-0.6,0.5-0.9
			c0.1-0.2,0.2-0.4,0.4-0.6c0.2-0.3,0.3-0.5,0.5-0.8c0.2-0.2,0.3-0.5,0.5-0.7c0.2-0.2,0.3-0.5,0.5-0.7c0.2-0.3,0.4-0.5,0.6-0.8
			c0.2-0.2,0.3-0.4,0.5-0.6c0.2-0.3,0.5-0.6,0.7-0.9c0.1-0.2,0.3-0.3,0.4-0.5c0.4-0.4,0.7-0.8,1.1-1.2c0,0,0.1-0.1,0.1-0.1
			c0.1-0.1,0.2-0.1,0.2-0.2c0.3-0.3,0.7-0.6,1-0.9c0.1-0.1,0.2-0.2,0.3-0.2c0.3-0.3,0.7-0.6,1-0.9c0,0,0.1-0.1,0.1-0.1
			c12.1-9.8,29.5-9.8,41.5,0c0,0,0,0,0,0c0.4,0.3,0.7,0.6,1.1,0.9c0.1,0.1,0.1,0.1,0.2,0.2c0.4,0.4,0.8,0.8,1.2,1.2
			c0.4,0.4,0.8,0.9,1.2,1.3c0.2,0.2,0.3,0.4,0.5,0.6c0.2,0.2,0.4,0.5,0.6,0.7c0.2,0.3,0.4,0.6,0.7,0.9c0.1,0.2,0.2,0.3,0.4,0.5
			c0.3,0.4,0.5,0.7,0.8,1.1c0,0.1,0.1,0.1,0.1,0.2C123.1,418.4,121.7,435.8,110.5,447L110.5,447z M420.3,313.6l-8.7-1.7
			 M397.4,309.1l-9.5-1.9c-13-2.6-25.8-10.5-34.2-16.2l-47.1-31.8c-17.9-12.1-38.8-18.5-60.5-18.5h-86.5
			c-28.8,0-55.8,11.2-76.2,31.5c-12.9,12.9-29.1,21.6-47,25.3l-10.2,2.1C11,302.9,0,316.4,0,332v69c0,8.2,4.9,15.7,12.4,19
			l28.4,12.6c1.7,9,6,17.5,13,24.5c9.2,9.2,21.3,13.8,33.4,13.8c12.1,0,24.2-4.6,33.4-13.8c5.9-5.9,9.9-13,12-20.6h236.6
			c2.1,7.5,6.1,14.7,12,20.6c8.9,8.9,20.8,13.8,33.4,13.8c12.6,0,24.5-4.9,33.4-13.8c5.9-5.9,9.9-13,12-20.6h13.5
			c14.6,0,26.4-11.8,26.4-26.4v-36.9c0-7.8-2.1-15.4-6.1-22.1l0,0l-2.3-3.7c-8.5-14.1-22.6-24-38.7-27.2l-18.4-3.7"/>
		<path class="st8" d="M92.4,428.9c-1.4,1.4-3.2,2.2-5.2,2.2c-2,0-3.8-0.8-5.2-2.2c-1.4-1.4-2.2-3.2-2.2-5.2c0-2,0.8-3.8,2.2-5.2
			l0,0c1.4-1.4,3.2-2.2,5.2-2.2c2,0,3.8,0.8,5.2,2.2C95.2,421.3,95.2,426,92.4,428.9L92.4,428.9z M87.1,402.1
			c-5.8,0-11.2,2.3-15.3,6.3l0,0c-4.1,4.1-6.3,9.5-6.3,15.3c0,5.8,2.2,11.2,6.3,15.3c4.1,4.1,9.5,6.3,15.3,6.3
			c5.8,0,11.2-2.2,15.3-6.3c8.4-8.4,8.4-22.2,0-30.6C98.3,404.3,92.9,402.1,87.1,402.1L87.1,402.1z"/>
		<path class="st8" d="M419.8,428.9c-1.4,1.4-3.2,2.2-5.2,2.2c-2,0-3.8-0.8-5.2-2.2c-2.9-2.9-2.9-7.6,0-10.4
			c1.4-1.4,3.2-2.2,5.2-2.2c2,0,3.8,0.8,5.2,2.2c1.4,1.4,2.2,3.2,2.2,5.2C422,425.7,421.2,427.5,419.8,428.9L419.8,428.9z
			 M414.6,402.1c-5.8,0-11.2,2.2-15.3,6.3c-8.4,8.4-8.4,22.2,0,30.6c4.1,4.1,9.5,6.3,15.3,6.3c5.8,0,11.2-2.2,15.3-6.3
			c4.1-4.1,6.3-9.5,6.3-15.3s-2.2-11.2-6.3-15.3C425.8,404.3,420.4,402.1,414.6,402.1L414.6,402.1z"/>
	</g>
	<g>
		<g>
			<g>
				<path class="st11" d="M7.2,222.4C3.1,223,0,226.5,0,230.6l0,67.5c0,13,7.9,24.6,19.9,29.4l27,10.8c1,0.4,2,0.6,3.1,0.6h3
					c5,14.3,16.2,25.5,30.5,30.5c26,9.1,54.4-4.6,63.5-30.5h222.6c5,14.3,16.2,25.5,30.5,30.5c26,9.1,54.4-4.6,63.5-30.5h28
					c4.6,0,8.3-3.7,8.3-8.3v-49.5c0-13.6-7.3-26.2-19.1-32.9c-29.1-16.6-61.9-25.5-95.3-25.8L357,206.8
					c-41.5-22.6-88-34.5-135.3-34.5c-42.7,0-89.5,8.5-125.9,25c-11,5-21.8,10.7-32.1,17L7.2,222.4L7.2,222.4z M384,329
					c-0.4-2.2-0.7-4.4-0.7-6.7c0-15.8,11.1-29.5,26.7-32.7c18-3.7,35.6,7.9,39.3,26c3.7,18-7.9,35.6-26,39.3
					C405.3,358.6,387.7,347,384,329L384,329z M233.3,239h150c31.3,0,62.1,8.2,89.3,23.7c6.6,3.8,10.7,10.8,10.7,18.5v41.1h-16.7
					c0-27.6-22.4-50-50-50c-27.6,0-50,22.4-50,50H233.3V239z M233.3,189.3c40.5,1.8,80.1,12.7,115.7,32.1l1.6,0.9H233.3V189.3z
					 M216.7,222.3h-88.2l-14.6-14.6c31.2-12.4,64.5-18.8,98.1-18.8h4.7V222.3z M67.3,329c-0.4-2.2-0.7-4.4-0.7-6.7
					c0-15.8,11.1-29.5,26.7-32.7c18-3.7,35.6,7.9,39.3,26c3.7,18-7.9,35.6-26,39.3C88.6,358.6,71,347,67.3,329L67.3,329z
					 M16.7,237.8l51.2-7.3c1.1-0.2,2.2-0.6,3.2-1.2c8.5-5.3,17.3-10.1,26.4-14.5l21.6,21.6c1.6,1.6,3.7,2.4,5.9,2.4h91.7v83.3H150
					c0-27.6-22.4-50-50-50c-1.7,0-3.4,0.1-5.1,0.3c-0.6,0.1-1.2,0.2-1.8,0.3c-1,0.2-2.1,0.3-3.1,0.5c-0.6,0.1-1.2,0.3-1.9,0.5
					c-1,0.2-1.9,0.5-2.9,0.7c-0.7,0.2-1.3,0.5-2.1,0.8c-0.8,0.3-1.8,0.6-2.5,0.9c-0.7,0.3-1.3,0.6-2.1,1c-0.8,0.4-1.6,0.7-2.3,1.1
					c-0.7,0.4-1.3,0.7-2,1.2c-0.7,0.5-1.5,0.9-2.1,1.3c-0.7,0.4-1.3,1-1.9,1.4c-0.6,0.5-1.3,0.9-1.9,1.4c-0.6,0.5-1.3,1.2-1.8,1.7
					c-0.6,0.5-1.1,1-1.7,1.6c-0.6,0.6-1.2,1.3-1.7,1.8c-0.5,0.5-1,1-1.5,1.7c-0.5,0.6-1,1.4-1.5,2c-0.5,0.6-0.9,1.2-1.4,1.8
					c-0.5,0.7-0.9,1.4-1.3,2.1c-0.4,0.7-0.8,1.3-1.2,2c-0.4,0.7-0.7,1.5-1.1,2.2c-0.3,0.7-0.7,1.4-1,2.1c-0.3,0.8-0.6,1.5-0.8,2.3
					c-0.3,0.8-0.6,1.5-0.8,2.3c-0.3,0.8-0.4,1.6-0.6,2.4c-0.2,0.8-0.5,1.6-0.6,2.4c-0.2,0.8-0.3,1.6-0.4,2.4
					c-0.1,0.8-0.3,1.7-0.4,2.5c-0.1,0.8-0.1,1.7-0.1,2.5c-0.1,0.8-0.1,1.5-0.1,2.3L26.1,312c-5.7-2.3-9.5-7.8-9.4-13.9V264h16.7
					c4.6,0,8.3-3.7,8.3-8.3v0c0-4.6-3.7-8.3-8.3-8.3H16.7V237.8z M16.7,247.3"/>
			</g>
			<g>
				<path class="st11" d="M283.3,247.3h-16.7c-4.6,0-8.3,3.7-8.3,8.3v0c0,4.6,3.7,8.3,8.3,8.3h16.7c4.6,0,8.3-3.7,8.3-8.3v0
					C291.7,251,287.9,247.3,283.3,247.3z"/>
			</g>
		</g>
	</g>
</g>
</svg>
