<svg xmlns="http://www.w3.org/2000/svg" xmlns:xlink="http://www.w3.org/1999/xlink" viewBox="0 0 629.47 629.47"><defs><style>.cls-1,.cls-5{fill:none;}.cls-2{clip-path:url(#clip-path);}.cls-3{fill:#454f6a;}.cls-4{fill:#d86b43;}.cls-5{stroke:#404c68;stroke-miterlimit:10;stroke-width:10px;}</style><clipPath id="clip-path" transform="translate(-0.01 -0.04)"><rect class="cls-1" x="63.71" y="156.27" width="464" height="317"/></clipPath></defs><title>share</title><g id="Слой_3" data-name="Слой 3"><g class="cls-2"><path class="cls-3" d="M95.13,359.27l2.91,0V466.43a6,6,0,0,0,6,6,56.91,56.91,0,0,0,56.85-56.85V366.26a315.39,315.39,0,0,1,67.43,22.55l126.2,58.89a6,6,0,0,0,8.53-5.43V358.79A56.84,56.84,0,0,0,363,246V162.55a6,6,0,0,0-8.53-5.43L228.31,216A317,317,0,0,1,95.13,245.56,31.45,31.45,0,0,0,63.71,277v50.86a31.46,31.46,0,0,0,31.42,31.43Zm305.5-56.86A44.94,44.94,0,0,1,363,346.68V258.14a44.94,44.94,0,0,1,37.59,44.27ZM148.89,415.57A44.93,44.93,0,0,1,110,460V359.63a314.79,314.79,0,0,1,38.87,4.31ZM351,432.86l-30-14V186l30-14Zm-117.66-206,75.72-35.33V413.27l-75.72-35.33A328.11,328.11,0,0,0,160.88,354V250.81a328.11,328.11,0,0,0,72.5-23.93ZM75.7,277a19.46,19.46,0,0,1,19.43-19.43,325.09,325.09,0,0,0,53.77-4.5v98.73a326.16,326.16,0,0,0-53.77-4.49A19.46,19.46,0,0,1,75.7,327.84Zm0,0" transform="translate(-0.01 -0.04)"/><path class="cls-4" d="M405.4,388.66a6,6,0,0,0,4.7,11,105.74,105.74,0,0,0,0-194.59,6,6,0,1,0-4.7,11,93.74,93.74,0,0,1,0,172.52Zm0,0" transform="translate(-0.01 -0.04)"/><path class="cls-4" d="M431.59,157a6,6,0,1,0-4.69,11,146,146,0,0,1,0,268.67,6,6,0,0,0,4.69,11,158,158,0,0,0,0-290.74Zm0,0" transform="translate(-0.01 -0.04)"/></g></g><g id="Слой_6" data-name="Слой 6"><circle class="cls-5" cx="314.73" cy="314.73" r="309.73"/></g></svg>