<svg id="Capa_1" data-name="Capa 1" xmlns="http://www.w3.org/2000/svg" viewBox="0 0 446.65 494.84"><defs><style>.cls-1{fill:#304269;}</style></defs><title>sort</title><path class="cls-1" d="M322,482a12.87,12.87,0,1,0,25.73,0V43.83l77,77a12.84,12.84,0,0,0,18.21-18.1L344,3.87a13.16,13.16,0,0,0-18.1,0l-98.86,98.86a12.8,12.8,0,0,0,18.1,18.1l77-77V482Z"/><path class="cls-1" d="M219.59,374a12.76,12.76,0,0,0-18.1,0l-77,77V12.87a12.87,12.87,0,0,0-25.74,0V451L21.87,374a12.8,12.8,0,1,0-18.1,18.1L102.63,491a12.87,12.87,0,0,0,18.2,0l98.87-98.86A13,13,0,0,0,219.59,374Z"/></svg>