<?xml version="1.0" encoding="utf-8"?>
<!-- Generator: Adobe Illustrator 22.0.0, SVG Export Plug-In . SVG Version: 6.00 Build 0)  -->
<svg version="1.1" id="Слой_1" xmlns="http://www.w3.org/2000/svg" xmlns:xlink="http://www.w3.org/1999/xlink" x="0px" y="0px"
	 viewBox="0 0 512 512" style="enable-background:new 0 0 512 512;" xml:space="preserve">
<style type="text/css">
	.st0{fill:#FFFFFF;}
	.st1{fill:none;stroke:#FFFFFF;stroke-width:9;stroke-miterlimit:10;}
</style>
<g id="surface1">
	<path class="st0" d="M288.3,236.8h-25.8v12.9h25.8V236.8z"/>
	<path class="st0" d="M67.8,217.5l43.9-6.3c8-4.9,16.3-9.3,24.9-13.2c28.3-12.8,58.9-19.4,89.9-19.4h7.6c36.6,0,72.6,9.2,104.8,26.7
		l22.1,12.1c25.9,0.3,51.3,7.2,73.8,20c9.1,5.2,14.8,15,14.8,25.5v38.3c0,3.6-2.9,6.5-6.5,6.5h-21.7c-7.1,20.1-29.1,30.7-49.2,23.7
		c-11.1-3.9-19.8-12.6-23.7-23.7H176.2c-7.1,20.1-29.1,30.7-49.2,23.7c-11.1-3.9-19.8-12.6-23.7-23.7H101c-0.8,0-1.6-0.2-2.4-0.5
		L77.7,299c-9.3-3.7-15.5-12.7-15.4-22.8v-52.3C62.3,220.7,64.7,218,67.8,217.5z M359.8,300.1c2.9,14,16.5,23,30.5,20.1
		c14-2.9,23-16.5,20.1-30.5c-2.9-14-16.5-23-30.5-20.1c-12,2.5-20.7,13-20.7,25.3C359.3,296.6,359.5,298.4,359.8,300.1z
		 M243.1,294.9h103.3c0-21.4,17.3-38.7,38.7-38.7s38.7,17.3,38.7,38.7h12.9V263c0-5.9-3.2-11.4-8.3-14.3
		c-21.1-12-44.9-18.4-69.2-18.4H243.1V294.9z M243.1,217.4H334l-1.2-0.7c-27.6-15-58.3-23.5-89.6-24.9V217.4z M230.2,191.6h-3.7
		c-26,0-51.8,4.9-76,14.6l11.3,11.3h68.3V191.6z M114.5,300.1c2.9,14,16.5,23,30.5,20.1c14-2.9,23-16.5,20.1-30.5
		c-2.9-14-16.5-23-30.5-20.1c-12,2.5-20.7,13-20.7,25.3C113.9,296.6,114.1,298.4,114.5,300.1z M75.2,236.8h19.4v12.9H75.2v26.5
		c0,4.8,2.9,9,7.3,10.8l18.5,7.4c0-0.6,0.1-1.2,0.1-1.8c0-0.6,0.1-1.3,0.1-1.9c0.1-0.6,0.2-1.3,0.3-1.9c0.1-0.6,0.2-1.3,0.3-1.9
		c0.1-0.6,0.3-1.2,0.5-1.9c0.2-0.6,0.3-1.2,0.5-1.8c0.2-0.6,0.4-1.2,0.6-1.8c0.2-0.6,0.4-1.2,0.6-1.8c0.2-0.6,0.5-1.1,0.8-1.7
		c0.3-0.5,0.5-1.2,0.8-1.7c0.3-0.6,0.6-1,0.9-1.5c0.3-0.5,0.6-1.1,1-1.6c0.4-0.5,0.7-0.9,1.1-1.4c0.4-0.5,0.8-1,1.2-1.5
		c0.4-0.5,0.8-0.9,1.2-1.3c0.4-0.4,0.8-1,1.3-1.4c0.4-0.5,0.9-0.8,1.3-1.2c0.4-0.4,0.9-0.9,1.4-1.3c0.5-0.4,1-0.7,1.5-1.1
		c0.5-0.4,1-0.8,1.5-1.1c0.5-0.3,1.1-0.6,1.7-1c0.6-0.4,1-0.6,1.5-0.9c0.5-0.3,1.2-0.6,1.8-0.9s1.1-0.5,1.6-0.8
		c0.5-0.2,1.3-0.5,1.9-0.7c0.6-0.2,1.1-0.4,1.6-0.6c0.7-0.2,1.5-0.4,2.2-0.6c0.5-0.1,1-0.3,1.5-0.4c0.8-0.2,1.6-0.3,2.4-0.4
		c0.5-0.1,0.9-0.2,1.4-0.2c1.3-0.1,2.6-0.2,3.9-0.2c21.4,0,38.7,17.4,38.7,38.7h51.7v-64.6h-71c-1.7,0-3.4-0.7-4.6-1.9l-16.7-16.7
		c-7,3.3-13.9,7.1-20.5,11.2c-0.8,0.5-1.6,0.8-2.5,0.9l-39.7,5.7V236.8z"/>
</g>
<circle class="st1" cx="256" cy="256" r="248.5"/>
</svg>
