
<svg width="135px"  height="135px"  xmlns="http://www.w3.org/2000/svg" viewBox="0 0 100 100" preserveAspectRatio="xMidYMid" class="lds-sunny" style="background: none;"><circle cx="50" cy="50" r="25" ng-attr-fill="{{config.c1}}" fill="#ff6600"></circle><g transform="rotate(19.9848 50 50)"><path d="M43 23L57 23L50 10Z" transform="rotate(30 50 50)" ng-attr-fill="{{config.c2}}" fill="rgba(100%,40%,0%,0.446)"></path><path d="M43 23L57 23L50 10Z" transform="rotate(60 50 50)" ng-attr-fill="{{config.c2}}" fill="rgba(100%,40%,0%,0.446)"></path><path d="M43 23L57 23L50 10Z" transform="rotate(90 50 50)" ng-attr-fill="{{config.c2}}" fill="rgba(100%,40%,0%,0.446)"></path><path d="M43 23L57 23L50 10Z" transform="rotate(120 50 50)" ng-attr-fill="{{config.c2}}" fill="rgba(100%,40%,0%,0.446)"></path><path d="M43 23L57 23L50 10Z" transform="rotate(150 50 50)" ng-attr-fill="{{config.c2}}" fill="rgba(100%,40%,0%,0.446)"></path><path d="M43 23L57 23L50 10Z" transform="rotate(180 50 50)" ng-attr-fill="{{config.c2}}" fill="rgba(100%,40%,0%,0.446)"></path><path d="M43 23L57 23L50 10Z" transform="rotate(210 50 50)" ng-attr-fill="{{config.c2}}" fill="rgba(100%,40%,0%,0.446)"></path><path d="M43 23L57 23L50 10Z" transform="rotate(240 50 50)" ng-attr-fill="{{config.c2}}" fill="rgba(100%,40%,0%,0.446)"></path><path d="M43 23L57 23L50 10Z" transform="rotate(270 50 50)" ng-attr-fill="{{config.c2}}" fill="rgba(100%,40%,0%,0.446)"></path><path d="M43 23L57 23L50 10Z" transform="rotate(300 50 50)" ng-attr-fill="{{config.c2}}" fill="rgba(100%,40%,0%,0.446)"></path><path d="M43 23L57 23L50 10Z" transform="rotate(330 50 50)" ng-attr-fill="{{config.c2}}" fill="rgba(100%,40%,0%,0.446)"></path><path d="M43 23L57 23L50 10Z" transform="rotate(360 50 50)" ng-attr-fill="{{config.c2}}" fill="rgba(100%,40%,0%,0.446)"></path><animateTransform attributeName="transform" type="rotate" calcMode="linear" values="0 50 50;180 50 50" keyTimes="0;1" dur="1.2s" begin="0s" repeatCount="indefinite"></animateTransform></g></svg>