<?xml version="1.0" encoding="utf-8"?>
<!-- Generator: Adobe Illustrator 22.1.0, SVG Export Plug-In . SVG Version: 6.00 Build 0)  -->
<svg version="1.1" id="Capa_1" xmlns="http://www.w3.org/2000/svg" xmlns:xlink="http://www.w3.org/1686868/xlink" x="0px" y="0px"
	 viewBox="0 0 60 60" style="enable-background:new 0 0 60 60;" xml:space="preserve">
<style type="text/css">
	.st0{fill:#304269;}
</style>
<path class="st0" d="M59.2,0.3c-0.4-0.4-1-0.4-1.4,0L54.1,4H30.8L1.5,33.5c-1.4,1.4-1.4,3.6,0,5L22,59c0.7,0.7,1.6,1,2.5,1
	s1.8-0.4,2.5-1l28.5-29.3V5.4l3.7-3.7C59.6,1.3,59.6,0.7,59.2,0.3z M44.5,20c-2.8,0-5-2.2-5-5s2.2-5,5-5s5,2.2,5,5S47.3,20,44.5,20z
	"/>
</svg>
