<?xml version="1.0" encoding="utf-8"?>
<!-- Generator: Adobe Illustrator 22.0.0, SVG Export Plug-In . SVG Version: 6.00 Build 0)  -->
<svg version="1.1" id="Layer_1" xmlns="http://www.w3.org/2000/svg" xmlns:xlink="http://www.w3.org/1999/xlink" x="0px" y="0px"
	 viewBox="0 0 512 512" style="enable-background:new 0 0 512 512;" xml:space="preserve">
<style type="text/css">
	.st0{display:none;}
	.st1{display:inline;}
	.st2{fill:#686868;}
	.st3{display:inline;fill:#686868;}
	.st4{display:none;fill:#686868;}
	.st5{fill:#FF6600;}
</style>
<g class="st0">
	<g class="st1">
		<g>
			<path class="st2" d="M256,0C153.8,0,70.6,83.2,70.6,185.4c0,126.9,165.9,313.2,173,321c6.6,7.4,18.2,7.4,24.8,0
				c7.1-7.9,173-194.1,173-321C441.4,83.2,358.2,0,256,0z M256,278.7c-51.4,0-93.3-41.9-93.3-93.3s41.9-93.3,93.3-93.3
				s93.3,41.9,93.3,93.3S307.4,278.7,256,278.7z"/>
		</g>
	</g>
</g>
<g class="st0">
	<g class="st1">
		<g id="directions-bus">
			<path class="st2" d="M40.4,377.3c0,24.3,10.8,45.8,26.9,59.3v48.5c0,16.2,10.8,26.9,26.9,26.9h26.9c16.2,0,26.9-10.8,26.9-26.9
				v-26.9h215.6v26.9c0,16.2,10.8,26.9,26.9,26.9h26.9c16.2,0,26.9-10.8,26.9-26.9v-48.5c16.2-13.5,26.9-35,26.9-59.3V107.8
				C471.6,13.5,374.6,0,256,0S40.4,13.5,40.4,107.8V377.3z M134.7,404.2c-21.6,0-40.4-18.9-40.4-40.4s18.9-40.4,40.4-40.4
				s40.4,18.9,40.4,40.4S156.3,404.2,134.7,404.2z M377.3,404.2c-21.6,0-40.4-18.9-40.4-40.4s18.9-40.4,40.4-40.4
				s40.4,18.9,40.4,40.4S398.8,404.2,377.3,404.2z M397.7,242.5H114.3c-11,0-20-9-20-20v-94.7c0-11,9-20,20-20h283.4
				c11,0,20,9,20,20v94.7C417.7,233.6,408.7,242.5,397.7,242.5z"/>
		</g>
	</g>
</g>
<g class="st0">
	<path class="st3" d="M193.3,312.4c3.7,2.7,9.2,2.7,11.9-0.9l25.6-25.6l-14.6-7.3c-13.7-7.3-26.5-16.5-37.5-28.4l-37.5,22.9
		L193.3,312.4z"/>
	<path class="st3" d="M299.5,312.4l51.3-38.5l-37.5-22.9c-11,11.9-22.9,21.1-37.5,28.4l-14.6,7.3l25.6,25.6
		C290.3,314.2,295.8,315.2,299.5,312.4L299.5,312.4z"/>
	<path class="st3" d="M278.4,327.1c-0.9-0.9-2.7-1.8-3.7-2.7l-28.4-28.4L218,324.3c-0.9,0.9-2.7,1.8-3.7,2.7l32,64.1L278.4,327.1z"
		/>
	<path class="st3" d="M169.5,112.8c-3.7,1.8-5.5,4.6-5.5,8.2v43c0,41.2,23.8,79.6,60.4,98l17.4,9.2c2.7,0.9,5.5,0.9,8.2,0l17.4-9.2
		c37.5-18.3,60.4-56.8,60.4-98v-36.6c0-5.5-3.7-9.2-9.2-9.2h-27.5c-20.1,0-36.6-16.5-36.6-36.6v-4.6L169.5,112.8z"/>
	<path class="st3" d="M151.2,199.8c-3.7-11.9-5.5-23.8-5.5-36.6v-42.1c0-11,6.4-21.1,16.5-25.6l111.7-45.8v32
		c0,10.1,8.2,18.3,18.3,18.3h27.5c15.6,0,27.5,11.9,27.5,27.5v36.6c0,11.9-1.8,24.7-5.5,36.6c21.1-19.2,34.8-45.8,36.6-75.1
		l1.8-22.9c1.8-31.1-15.6-59.5-43.9-72.3L283,7.6c-23.8-10.1-50.4-10.1-73.2,0l-53.1,22.9c-28.4,12.8-45.8,41.2-43.9,72.3l1.8,22.9
		C116.4,154,129.2,181.5,151.2,199.8L151.2,199.8z"/>
	<path class="st3" d="M209.7,512H283v-91.6h-73.2V512z"/>
	<path class="st3" d="M383.7,466.2v-18.3h7.6c8.6,0,16.4-5.4,18.9-13.6c3.3-10.4-3-20.6-11.9-24l-20.1-6.4l-36.7,85
		c-2,4.6-7.3,6.7-11.9,4.7h0c-4.5-2-6.6-7.3-4.6-11.8l77-176.7L368.1,284l-57.7,43c-3.7,2.7-9.2,4.6-13.7,5.5L261,402.1h20.3
		c11,0,20,9,20,20V512h146.5v-51.3c-8.2,3.7-17.4,5.5-25.6,5.5H383.7z"/>
	<path class="st3" d="M462.4,386.6L431.1,311c-2.3-5.6-10.3-5.7-12.7-0.1l-32.9,76.6l18.3,6.4c19.2,6.4,30.2,27.5,23.8,47.6
		c0,0.9-0.9,1.8-0.9,1.8c-0.9,1.8-1.8,3.7-2.7,5.5c24.7-0.9,43-22,42.1-46.7C466.1,396.6,464.3,391.2,462.4,386.6L462.4,386.6z"/>
	<path class="st3" d="M196,331.6c-5.5,0-10.1-1.8-13.7-5.5l-56.8-43l-41.2,25.6c-23.8,14.6-38.5,41.2-38.5,69.6V512h73.2V411.3
		c0-5.1,4.1-9.2,9.2-9.2h0c5.1,0,9.2,4.1,9.2,9.2V512h54.9v-89.9c0-11,9-20,20-20h20.3L196,331.6z"/>
</g>
<path class="st4" d="M430.3,294v18.7c0,3.7-3,6.9-6.7,6.8c-1.7-0.1-3.3-0.8-4.4-1.9c-1.2-1.2-1.9-2.8-1.9-4.6v-9H262.5v8.7
	c0,3.6-2.7,6.7-6.3,6.8c-3.7,0.1-6.7-2.8-6.7-6.5v-9H94.7v8.7c0,3.7-3,6.9-6.7,6.8c-1.7-0.1-3.3-0.8-4.4-1.9
	c-1.2-1.2-1.9-2.8-1.9-4.6v-19c0-2.8,2.2-5,5-5h162.8v-11.6h-114c-3,0-5.4-2.7-5-5.7c3.3-23.4,25.8-36.8,28.4-38.3l48.7-26.6
	c6.4-3.5,10.4-10.2,10.4-17.5v-20c0,0-14.3-17.1-19.8-40.9c-4.5-2.9-7.6-8-7.6-13.8V92.9c0-4.8,2.1-9.1,5.5-12.1V49.2
	c0,0-6.5-49.2,60.1-49.2s60.1,49.2,60.1,49.2v31.6c3.3,3,5.5,7.3,5.5,12.1v21.9c0,7.3-4.9,13.5-11.6,15.6
	c-3.7,11.6-9.1,22.7-16.2,32.7c-1.8,2.5-3.5,4.7-4.9,6.4v20.5c0,7.5,4.3,14.4,11,17.8l52.2,26.1c2.9,1.5,25.9,14.5,29.2,37.9
	c0.4,3-1.9,5.7-5,5.7h-114V289h162.8C428,289,430.3,291.2,430.3,294z"/>
<path class="st4" d="M223.8,465l-32.5,17.7c-1.9,1-19.2,11.3-19.2,29.3c25.3,0,145.4,0,167.8,0c0-18-17.6-28-19.7-29.1l-34.8-17.4
	c-4.5-2.2-7.3-6.8-7.3-11.9V440c1-1.1,2.1-2.5,3.3-4.2c4.7-6.7,8.3-14.1,10.8-21.8c4.5-1.4,7.7-5.5,7.7-10.4V389
	c0-3.2-1.4-6.1-3.6-8.1v-21.1c0,0,4.3-32.8-40.1-32.8s-40.1,32.8-40.1,32.8V381c-2.2,2-3.6,4.9-3.6,8.1v14.6c0,3.8,2,7.2,5,9.2
	c3.6,15.8,13.2,27.3,13.2,27.3v13.3C230.7,458.2,228.1,462.6,223.8,465z"/>
<path class="st4" d="M51.7,465l-32.5,17.7C17.3,483.7,0,494,0,512c25.3,0,145.4,0,167.8,0c0-18-17.6-28-19.7-29.1l-34.8-17.4
	c-4.5-2.2-7.3-6.8-7.3-11.9V440c1-1.1,2.1-2.5,3.3-4.2c4.7-6.7,8.3-14.1,10.8-21.8c4.5-1.4,7.7-5.5,7.7-10.4V389
	c0-3.2-1.4-6.1-3.6-8.1v-21.1c0,0,4.3-32.8-40.1-32.8S44,359.9,44,359.9V381c-2.2,2-3.6,4.9-3.6,8.1v14.6c0,3.8,2,7.2,5,9.2
	c3.6,15.8,13.2,27.3,13.2,27.3v13.3C58.6,458.2,56,462.6,51.7,465z"/>
<path class="st4" d="M395.9,465l-32.5,17.7c-1.9,1-19.2,11.3-19.2,29.3c25.3,0,145.4,0,167.8,0c0-18-17.6-28-19.7-29.1l-34.8-17.4
	c-4.5-2.2-7.3-6.8-7.3-11.9V440c1-1.1,2.1-2.5,3.3-4.2c4.7-6.7,8.3-14.1,10.8-21.8c4.5-1.4,7.7-5.5,7.7-10.4V389
	c0-3.2-1.4-6.1-3.6-8.1v-21.1c0,0,4.3-32.8-40.1-32.8s-40.1,32.8-40.1,32.8V381c-2.2,2-3.6,4.9-3.6,8.1v14.6c0,3.8,2,7.2,5,9.2
	c3.6,15.8,13.2,27.3,13.2,27.3v13.3C402.8,458.2,400.2,462.6,395.9,465z"/>
<g class="st0">
	<g class="st1">
		<g>
			<g>
				<path class="st2" d="M276,281.6h88c11,0,20,9,20,20v88c0,11-9,20-20,20h-88c-11,0-20-9-20-20v-88C256,290.6,265,281.6,276,281.6
					z"/>
				<path class="st2" d="M435.2,51.2h-25.6V0h-51.2v51.2H153.6V0h-51.2v51.2H76.8c-28.3,0-50.9,22.9-50.9,51.2l-0.3,358.4
					c0,28.3,22.9,51.2,51.2,51.2h358.4c28.3,0,51.2-22.9,51.2-51.2V102.4C486.4,74.1,463.5,51.2,435.2,51.2z M435.2,460.8H76.8
					V179.2h358.4V460.8z"/>
			</g>
		</g>
	</g>
</g>
<path class="st4" d="M500.6,211.9l-58.7-14.4c-3.5-11.1-8.1-21.9-13.5-32.3c8.8-14.6,27.3-45.6,27.3-45.6c3.5-5.9,2.6-13.5-2.3-18.3
	L411,58.9c-4.9-4.9-12.4-5.8-18.3-2.3c-0.4,0.2-30.8,18.5-45.6,27.4c-10.3-5.4-21-9.9-32-13.4c-4.4-18-14.5-58.7-14.5-58.7
	c-1.7-6.7-7.7-11.4-14.6-11.4h-60c-6.9,0-12.9,4.7-14.6,11.4c-4.1,16.8-11,44.8-14.4,58.7c-11.8,3.7-23.1,8.6-34,14.5
	c-6.4-3.9-16-9.6-24.9-14.9l-22.5-13.5c-5.9-3.5-13.5-2.6-18.3,2.3l-42.4,42.4c-4.9,4.9-5.8,12.4-2.3,18.3
	c0.2,0.3,17.8,29.7,29.3,48.9c-4.7,9.3-8.7,19-11.8,28.9c-20,5-58.2,14.4-58.7,14.5C4.7,213.6,0,219.6,0,226.5v60
	c0,6.9,4.7,12.9,11.4,14.6c0.4,0.1,38.4,9.4,58.7,14.4c3.6,11.3,8.2,22.3,13.8,32.8l-26.2,43.7c-3.5,5.9-2.6,13.5,2.3,18.3
	l42.4,42.4c4.9,4.9,12.4,5.8,18.3,2.3c0.4-0.2,29.5-17.7,43.8-26.2c10.4,5.6,21.3,10.1,32.6,13.7l14.4,58.7
	c1.7,6.7,7.7,11.4,14.6,11.4h60c6.9,0,12.9-4.7,14.6-11.4l14.4-58.7c11.5-3.7,22.7-8.4,33.3-14.1c14.4,8.7,44.4,26.7,44.4,26.7
	c5.9,3.5,13.5,2.6,18.3-2.3l42.4-42.4c4.9-4.9,5.8-12.4,2.3-18.3c0,0-18.3-30.5-27-44.9c5.3-10.1,9.7-20.6,13.2-31.5
	c17.8-4.4,58.2-14.3,58.7-14.4c6.7-1.7,11.4-7.7,11.4-14.6v-60C512,219.6,507.3,213.6,500.6,211.9z M256,361.5
	c-57.9,0-105-47.1-105-105s47.1-105,105-105s105,47.1,105,105S313.9,361.5,256,361.5z M256,181.5c-41.3,0-75,33.7-75,75
	c0,41.4,33.7,75,75,75c41.4,0,75-33.7,75-75S297.3,181.5,256,181.5z"/>
<g class="st0">
	<g class="st1">
		<path d="M458.1,409.2c5.2-7.5,8.3-16.6,8.3-26.5v-9.1c0-25.6-20.8-46.4-46.4-46.4s-46.4,20.8-46.4,46.4v9.1c0,9.8,3.1,19,8.3,26.5
			c-18.1,0.5-34.1,9.8-43.9,23.8c-9.8-14-25.7-23.2-43.9-23.8c5.2-7.5,8.3-16.6,8.3-26.5v-9.1c0-25.6-20.8-46.4-46.4-46.4
			s-46.4,20.8-46.4,46.4v9.1c0,9.8,3.1,19,8.3,26.5c-18.1,0.5-34.1,9.8-43.9,23.8c-9.8-14-25.7-23.2-43.9-23.8
			c5.2-7.5,8.3-16.6,8.3-26.5v-9.1c0-25.6-20.8-46.4-46.4-46.4S45.6,348,45.6,373.6v9.1c0,9.8,3.1,19,8.3,26.5
			C24,410.1,0,434.6,0,464.7V502c0,5.5,4.5,10,10,10h164h164h164c5.5,0,10-4.5,10-10v-37.3C512,434.6,488,410.1,458.1,409.2z
			 M65.6,373.6c0-14.6,11.9-26.4,26.4-26.4s26.4,11.9,26.4,26.4v9.1c0,14.6-11.9,26.4-26.4,26.4s-26.4-11.9-26.4-26.4V373.6z
			 M164,492H20v-27.3c0-19.6,16-35.6,35.6-35.6H82v40c0,5.5,4.5,10,10,10s10-4.5,10-10v-40h26.4c19.6,0,35.6,16,35.6,35.6V492z
			 M229.6,373.6c0-14.6,11.9-26.4,26.4-26.4s26.4,11.9,26.4,26.4v9.1c0,14.6-11.9,26.4-26.4,26.4s-26.4-11.9-26.4-26.4V373.6z
			 M328,492H184v-27.3c0-19.6,15.9-35.6,35.6-35.6h26.6v40c0,5.5,4.5,10,10,10c5.5,0,10-4.5,10-10v-40h26.3
			c19.6,0,35.6,16,35.6,35.6V492z M393.6,373.6c0-14.6,11.9-26.4,26.4-26.4s26.4,11.9,26.4,26.4v9.1c0,14.6-11.9,26.4-26.4,26.4
			s-26.4-11.9-26.4-26.4V373.6z M492,492H348v-27.3c0-19.6,16-35.6,35.6-35.6h26.7v40c0,5.5,4.5,10,10,10s10-4.5,10-10v-40h26.2
			c19.6,0,35.6,16,35.6,35.6V492z"/>
	</g>
</g>
<path class="st5" d="M461.7,371.1l-37.1-88.9c-2.3-5.6-7.8-9.3-13.9-9.3h0c-5.9,0-11.2,3.4-13.7,8.7l-1.9,4.1l-77.7-48.7l16.2-12
	c29-20.5,47.8-53.8,49.5-89.6l1.7-21.3c2.6-35.9-17.9-69.1-51.2-83.7L285,8.3c-26.5-11.1-55.5-11.1-82,0l-49.5,21.3
	c-33.3,14.5-52.9,47.8-51.2,83.7l1.7,21.3c2.6,35.9,20.5,68.3,49.5,89.6l16.2,12l-87.1,54.6c-27.3,17.1-44.4,47-44.4,79.4V512h409.8
	v-76.8C466,418.1,470.3,393.3,461.7,371.1L461.7,371.1z M341.4,272.1L293.6,308c-3.4,2.6-8.5,2.6-11.1-0.9l-23.9-23.9l13.7-6.8
	c12.8-6.8,24.8-15.4,35-26.5L341.4,272.1z M273.9,322.5l-29.9,59.8l-29.9-59.8c0.9-0.9,2.6-1.7,3.4-2.6l26.5-26.5l26.5,26.5
	C271.4,320.8,272.2,321.6,273.9,322.5z M150.1,130.4v40.1c0,11.1,1.7,23,5.1,34.1c-19.6-17.9-32.4-42.7-34.1-70l-1.7-21.3
	c-1.7-29,14.5-55.5,41-67.4l49.5-21.3c22.2-9.4,47-9.4,68.3,0l49.5,21.3c26.5,12,42.7,38.4,41,67.4l-1.7,21.3
	c-1.7,26.5-13.7,52.1-34.1,70c3.4-11.1,5.1-22.2,5.1-34.1v-34.1c0-14.5-11.1-25.6-25.6-25.6h-25.6c-9.4,0-17.1-7.7-17.1-17.1V63.8
	l-104.2,43.5C156.1,110.8,150.1,120.2,150.1,130.4L150.1,130.4z M167.2,170.5v-39.3c0-3.4,1.7-6.8,5.1-7.7l80.2-33.3v3.4
	c0,18.8,15.4,34.1,34.1,34.1h25.6c5.1,0,8.5,3.4,8.5,8.5v34.1c0,38.4-22.2,74.3-56.3,91.3l-16.2,8.5c-2.6,0.9-5.1,0.9-7.7,0
	l-16.2-8.5C189.4,244.8,167.2,208.9,167.2,170.5z M180.9,250.8c10.2,11.1,21.3,19.6,35,26.5l13.7,6.8L205.6,308
	c-3.4,2.6-7.7,3.4-11.1,0.9L146.7,273L180.9,250.8z M192.8,494.9h-51.2V401c0-4.7-3.8-8.5-8.5-8.5h0c-4.7,0-8.5,3.8-8.5,8.5v93.9
	H56.2V371.1c0-26.5,13.7-51.2,35.9-64.9l38.4-23.9l52.9,40.1c3.4,2.6,8.5,4.3,12.8,5.1l32.4,65.7h-15.9c-11,0-20,8.9-20,20V494.9z
	 M278.2,494.9h-68.3v-85.4h68.3V494.9z M431.9,494.9H295.3v-82.5c0-11-8.9-20-20-20h-17.6l32.4-65.7c5.1,0,9.4-1.7,12.8-5.1
	l52.9-40.1l31.6,19.6l-71.8,164.8c-1.8,4.2,0.1,9.1,4.3,11l0,0c4.3,1.9,9.3-0.1,11.1-4.3l34.2-79.3l18.8,6
	c9.4,3.4,14.5,13.7,11.1,23c-2.6,7.7-9.4,12-17.1,12h-6v17.1H408c8.5,0,16.2-1.7,23.9-5.1V494.9z M409.7,435.2
	c0.9-1.7,1.7-3.4,2.6-5.1c6.8-17.9-1.7-38.4-19.6-45.2c-0.9,0-0.9-0.9-1.7-0.9l-17.1-6l34.8-81c0.7-1.6,3-1.6,3.7,0l33.2,80.1
	c8.5,21.3-0.9,45.2-22.2,53.8C419.1,433.5,414.8,435.2,409.7,435.2z"/>
</svg>
