<?xml version="1.0" encoding="utf-8"?>
<!-- Generator: Adobe Illustrator 22.1.0, SVG Export Plug-In . SVG Version: 6.00 Build 0)  -->
<svg version="1.1" xmlns="http://www.w3.org/2000/svg" xmlns:xlink="http://www.w3.org/1999/xlink" x="0px" y="0px"
	 viewBox="0 0 768.7 309.3" style="enable-background:new 0 0 768.7 309.3;" xml:space="preserve">
<style type="text/css">
	.st0{display:none;}
	.st1{opacity:0.8;}
	.st2{fill:#E1E6FB;}
	.st3{fill:#F4CDAF;}
	.st4{fill:#D1D1D1;}
	.st5{fill:#373791;}
	.st6{fill:#EFEFEF;}
	.st7{fill:#304269;}
	.st8{fill:#3F3FAA;}
	.st9{fill:#4B45BD;}
	.st10{fill:#DEDAE8;}
	.st11{fill:#BAC5F4;}
	.st12{fill:#3C4043;}
	.st13{fill:#FFFFFF;}
	.st14{fill:#F8F8FF;}
	.st15{fill:url(#SVGID_1_);}
	.st16{fill:url(#SVGID_2_);}
	.st17{fill:url(#SVGID_3_);}
	.st18{fill:url(#SVGID_4_);}
	.st19{fill:#F5F5FC;}
	.st20{fill:#F7F7F7;stroke:#E1E6FB;stroke-width:3;stroke-miterlimit:10;}
	.st21{fill:url(#SVGID_5_);}
	.st22{fill:url(#SVGID_6_);}
	.st23{fill:url(#SVGID_7_);}
	.st24{fill:url(#SVGID_8_);}
	.st25{fill:url(#SVGID_9_);}
	.st26{fill:#F7F7F7;}
	.st27{fill:url(#SVGID_10_);}
	.st28{fill:url(#SVGID_11_);}
	.st29{display:none;fill:#F7F7F7;}
	.st30{fill:url(#SVGID_12_);}
	.st31{fill:url(#SVGID_13_);}
	.st32{fill:url(#SVGID_14_);}
	.st33{fill:url(#SVGID_15_);}
	.st34{fill:url(#SVGID_16_);}
	.st35{fill:url(#SVGID_17_);}
	.st36{fill:#EAC5B0;}
	.st37{opacity:0.2;fill:#BAC5F4;}
	.st38{opacity:0.57;}
	.st39{fill:#E5E5E7;}
	.st40{fill:none;stroke:#D1D1D1;stroke-miterlimit:10;}
	.st41{fill:#47BEC4;}
	.st42{fill:none;stroke:#FFFFFF;stroke-width:2;stroke-miterlimit:10;}
	.st43{fill:#F77A4B;}
	.st44{fill:url(#SVGID_18_);}
	.st45{fill:url(#SVGID_19_);}
	.st46{fill:url(#SVGID_20_);}
	.st47{fill:url(#SVGID_21_);}
	.st48{fill:url(#SVGID_22_);}
	.st49{fill:url(#SVGID_23_);}
	.st50{fill:url(#SVGID_24_);}
	.st51{fill:url(#SVGID_25_);}
	.st52{fill:url(#SVGID_26_);}
	.st53{clip-path:url(#SVGID_28_);fill:#BAC5F4;}
	.st54{opacity:0.4;fill:#F1F2F2;}
	.st55{fill:#ACD9DD;}
	.st56{opacity:0.2;}
	.st57{fill:#FFFDF3;}
	.st58{fill:#232A35;}
	.st59{fill:#3B455A;}
	.st60{opacity:0.1;}
	.st61{fill:#000100;}
	.st62{fill:url(#SVGID_29_);}
	.st63{fill:url(#SVGID_30_);}
	.st64{fill:url(#SVGID_31_);}
	.st65{fill:url(#SVGID_32_);}
	.st66{fill:#BDBDBD;}
	.st67{fill:url(#SVGID_33_);}
	.st68{fill:#5A5A5C;}
	.st69{opacity:0.56;fill:url(#SVGID_34_);}
	.st70{opacity:0.66;fill:#FFFFFF;}
	.st71{fill:#C4DFE1;}
	.st72{fill:#33435A;}
	.st73{fill:#57859B;}
	.st74{fill:#427CCC;}
	.st75{fill:#FFBFA4;}
	.st76{fill:#141C2B;}
	.st77{fill:#BABCBC;}
	.st78{opacity:0.14;}
	.st79{fill:url(#SVGID_35_);}
	.st80{fill:url(#SVGID_36_);}
	.st81{fill:url(#SVGID_37_);}
	.st82{fill:url(#SVGID_38_);}
	.st83{fill:url(#SVGID_39_);}
	.st84{fill:url(#SVGID_40_);}
	.st85{display:inline;fill:url(#SVGID_41_);}
	.st86{display:inline;fill:url(#SVGID_42_);}
	.st87{display:inline;fill:url(#SVGID_43_);}
	.st88{display:inline;fill:url(#SVGID_44_);}
	.st89{display:inline;fill:url(#SVGID_45_);}
	.st90{display:inline;fill:url(#SVGID_46_);}
	.st91{fill:url(#SVGID_47_);}
	.st92{opacity:0.6;}
	.st93{fill:url(#SVGID_48_);}
	.st94{opacity:0.3;}
	.st95{fill:url(#SVGID_49_);}
	.st96{fill:url(#SVGID_50_);}
	.st97{fill:#DE937A;}
	.st98{fill:#28415A;}
	.st99{fill:#59595B;}
	.st100{fill:#39517C;}
	.st101{fill:#34383A;}
	.st102{fill:#F3CFC1;}
	.st103{fill:#FF6600;}
	.st104{fill:#D9E8F5;}
	.st105{fill:#F5CEB0;}
	.st106{fill:#F26101;}
	.st107{fill:#FFFFF2;}
	.st108{display:inline;}
	.st109{fill:#7DB5DB;}
	.st110{fill:#EFBFA5;}
	.st111{fill:#EACDB0;}
	.st112{fill:#4D4D4D;}
	.st113{display:inline;fill:#D8D8D8;stroke:#FFFFFF;stroke-miterlimit:10;}
	.st114{display:inline;fill:#BCBEC0;}
	.st115{display:inline;fill:#305399;}
	.st116{fill:#F0F1F1;}
	.st117{display:inline;opacity:0.1;fill:#000100;}
	.st118{display:inline;fill:#3B455A;}
	.st119{display:inline;fill:#7DB5DB;}
	.st120{fill:#98C7E2;}
	.st121{fill:#FFFDF0;}
	.st122{opacity:6.000000e-02;fill:#FFFFFF;}
	.st123{opacity:0.1;fill:#000100;}
	.st124{fill:url(#SVGID_51_);}
	.st125{fill:url(#SVGID_52_);}
	.st126{fill:url(#SVGID_53_);}
	.st127{fill:url(#SVGID_54_);}
	.st128{fill:url(#SVGID_55_);}
	.st129{fill:url(#SVGID_56_);}
	.st130{fill:url(#SVGID_57_);}
	.st131{fill:url(#SVGID_58_);}
	.st132{fill:#EAC1A4;}
	.st133{fill:#484F5B;}
	.st134{fill:#8CABEF;}
	.st135{fill:url(#SVGID_59_);}
	.st136{fill:url(#SVGID_60_);}
	.st137{fill:url(#SVGID_61_);}
	.st138{fill:url(#SVGID_62_);}
	.st139{fill:url(#SVGID_63_);}
	.st140{fill:url(#SVGID_64_);}
	.st141{fill:url(#SVGID_65_);}
	.st142{fill:url(#SVGID_66_);}
	.st143{fill:url(#SVGID_67_);}
	.st144{fill:url(#SVGID_68_);}
	.st145{fill:url(#SVGID_69_);}
	.st146{fill:url(#SVGID_70_);}
	.st147{fill:url(#SVGID_71_);}
	.st148{fill:url(#SVGID_72_);}
	.st149{fill:#BABCBE;}
	.st150{fill:#242449;}
	.st151{fill:#2F3787;}
	.st152{fill:#3D475B;}
	.st153{fill:#366362;}
	.st154{fill:#89B336;}
	.st155{fill:#96BD34;}
	.st156{opacity:7.000000e-02;}
	.st157{fill:#B5D381;}
	.st158{fill:#3B308A;}
	.st159{opacity:8.000000e-02;}
	.st160{fill:#F3E6DC;}
	.st161{fill:#92C59B;}
	.st162{fill:#88C9DA;}
	.st163{fill:#F9CD5B;}
	.st164{fill:#F6D5D5;}
	.st165{fill:#424DBF;}
	.st166{fill:#7EACF1;}
	.st167{fill:#F17187;}
	.st168{fill:#EAEAEA;}
	.st169{fill:#A0A2A6;}
	.st170{fill:#CE7361;}
	.st171{fill:#C7C8C9;}
	.st172{opacity:9.000000e-02;}
	.st173{opacity:0.15;}
	.st174{fill:#5B6475;}
	.st175{fill:#EDEDED;}
	.st176{fill:url(#SVGID_73_);}
	.st177{fill:url(#SVGID_74_);}
	.st178{fill:url(#SVGID_75_);}
	.st179{fill:url(#XMLID_27_);}
	.st180{fill:url(#SVGID_76_);}
	.st181{opacity:0.56;fill:url(#SVGID_77_);}
	.st182{fill:#CCCCCC;}
	.st183{opacity:0.15;fill:#181818;}
	.st184{fill:#BCBEC0;}
	.st185{fill:url(#SVGID_78_);}
	.st186{fill:url(#SVGID_79_);}
	.st187{fill:url(#SVGID_80_);}
	.st188{fill:url(#SVGID_81_);}
	.st189{fill:url(#SVGID_82_);}
	.st190{fill:url(#SVGID_83_);}
	.st191{fill:url(#SVGID_84_);}
	.st192{fill:url(#SVGID_85_);}
	.st193{fill:url(#SVGID_86_);}
	.st194{fill:#253548;}
	.st195{opacity:0.3;fill:#5BB5DC;}
	.st196{fill:#B26650;}
	.st197{fill:#ABABAB;}
</style>
<g id="Слой_1" class="st0">
</g>
<g id="Слой_9">
	<g id="Слой_3__x28_копия2_x29_" class="st1">
	</g>
	<g id="Слой_10">
		<g id="Слой_11">
		</g>
		<g id="Слой_11__x28_копия_x29_">
			<g id="Слой_11_копия_2">
			</g>
			<g id="Слой_11_копия_3">
			</g>
		</g>
	</g>
</g>
<g id="poezdki">
	<g id="Слой_3__x28_копия_x29_" class="st1">
	</g>
	<g id="Слой_8">
	</g>
</g>
<g id="auto">
	<g id="Слой_3">
		<g id="Слой_4">
		</g>
	</g>
</g>
<g id="nastroiki">
</g>
<g id="otzivi">
</g>
<g id="history">
	<g id="Слой_18">
	</g>
</g>
<g id="driver_x5F_history">
	<g id="Слой_21">
	</g>
	<g id="Слой_18__x28_копия_x29_">
	</g>
</g>
<g id="user_x5F_poezdki">
</g>
<g id="Слой_23">
	<g>
		<g>
			<g>
				<linearGradient id="SVGID_1_" gradientUnits="userSpaceOnUse" x1="570.7081" y1="132.8196" x2="570.7081" y2="36.4785">
					<stop  offset="0" style="stop-color:#FFFFFF"/>
					<stop  offset="1" style="stop-color:#CFCFCF"/>
				</linearGradient>
				<path class="st15" d="M597.1,82.8c-0.6-1-1.4-2-2.1-2.9l-5.9,2.3l-4.8-4l1.1-6.2c-2.1-1.2-4.4-2-6.7-2.7l-3.4,5.3l-6.2-0.4
					l-2.7-5.7c-2.3,0.3-4.6,0.9-6.8,1.7l0.3,6.3l-5.3,3.3l-5.5-3c-1.8,1.7-3.3,3.6-4.6,5.6l4,4.9l-2.3,5.8l-6.2,0.8
					c-0.4,2.4-0.6,4.8-0.5,7.2l6.1,1.6l1.5,6l-4.6,4.3c0.5,1.1,1.1,2.2,1.8,3.3c0.6,1,1.3,1.9,2,2.8l5.9-2.3l4.8,4l-1.2,6.2
					c2.1,1.2,4.4,2.1,6.7,2.7l3.4-5.3l6.2,0.4l2.7,5.7c2.4-0.3,4.7-0.9,7-1.8l-0.4-6.3l5.3-3.3l5.5,3c1.8-1.7,3.3-3.6,4.6-5.6
					l-4-4.9l2.3-5.8l6.2-0.8c0.4-2.4,0.6-4.8,0.5-7.2l-6.1-1.6l-1.6-6l4.6-4.3C598.4,84.9,597.8,83.8,597.1,82.8z M584,104
					c-2.4,7.4-10.3,11.4-17.7,9c-7.4-2.4-11.4-10.3-9-17.7c2.4-7.4,10.3-11.4,17.7-9C582.4,88.7,586.5,96.6,584,104z"/>
				<path class="st13" d="M577,80.1c-10.8-3.5-22.4,2.4-25.9,13.2c-3.5,10.8,2.4,22.4,13.2,25.9c10.8,3.5,22.4-2.4,25.9-13.2
					C593.8,95.2,587.8,83.6,577,80.1z M588.3,105.4c-3.2,9.7-13.6,15.1-23.3,11.9c-9.8-3.2-15.1-13.6-11.9-23.3
					c3.2-9.7,13.6-15.1,23.4-11.9C586.2,85.2,591.5,95.6,588.3,105.4z"/>
			</g>
			<g>
				<linearGradient id="SVGID_2_" gradientUnits="userSpaceOnUse" x1="128.6039" y1="102.4757" x2="128.6039" y2="-25.2097">
					<stop  offset="0" style="stop-color:#FFFFFF"/>
					<stop  offset="1" style="stop-color:#CFCFCF"/>
				</linearGradient>
				<path class="st16" d="M163.6,36.2c-0.9-1.3-1.8-2.6-2.8-3.8l-7.8,3l-6.4-5.3l1.5-8.2c-2.8-1.5-5.8-2.7-8.9-3.5l-4.5,7l-8.2-0.5
					l-3.6-7.5c-3,0.4-6.1,1.2-9,2.3l0.4,8.3l-7,4.4l-7.3-4c-2.4,2.2-4.4,4.7-6.2,7.4l5.3,6.5l-3.1,7.7L87.8,51
					c-0.6,3.1-0.8,6.4-0.6,9.6l8,2.1l2,8l-6.1,5.7c0.7,1.5,1.5,3,2.4,4.4c0.8,1.3,1.7,2.5,2.7,3.7l7.8-3l6.3,5.3l-1.5,8.2
					c2.8,1.5,5.8,2.7,8.9,3.6l4.5-7l8.2,0.5l3.6,7.5c3.1-0.4,6.3-1.2,9.3-2.4l-0.5-8.3l7-4.4l7.3,4c2.4-2.3,4.4-4.7,6.1-7.4
					l-5.3-6.5l3-7.7l8.3-1.1c0.6-3.2,0.8-6.4,0.6-9.6l-8.1-2.1l-2.1-8l6.1-5.7C165.3,39,164.5,37.6,163.6,36.2z M146.3,64.2
					c-3.2,9.8-13.6,15.1-23.4,12c-9.8-3.2-15.1-13.7-11.9-23.4c3.1-9.8,13.6-15.1,23.4-12C144.1,44,149.5,54.5,146.3,64.2z"/>
			</g>
		</g>
		<g>
			<g>
				<g id="XMLID_28_">
					<g id="XMLID_29_">
						<g id="XMLID_32_">
							<linearGradient id="SVGID_3_" gradientUnits="userSpaceOnUse" x1="683.273" y1="274.2397" x2="683.273" y2="185.6716">
								<stop  offset="0" style="stop-color:#FFFFFF"/>
								<stop  offset="1" style="stop-color:#CFCFCF"/>
							</linearGradient>
							<path class="st17" d="M700.7,224L700.7,224c0,1.5,1.2,2.7,2.7,2.7l1.3,0c1.5,0,2.7-1.2,2.7-2.7l0,0
								c0.1-13.3-10.6-24.2-23.9-24.2c-13.2,0-24,10.8-24.1,24.2l-0.1,22.1l6.6,0l0.1-22.1c0-9.6,7.9-17.5,17.4-17.5
								C693,206.5,700.7,214.3,700.7,224z"/>
						</g>
						<g id="XMLID_30_">
							<linearGradient id="XMLID_27_" gradientUnits="userSpaceOnUse" x1="686.6972" y1="283.7696" x2="686.6972" y2="202.2832">
								<stop  offset="0" style="stop-color:#FFFFFF"/>
								<stop  offset="1" style="stop-color:#CFCFCF"/>
							</linearGradient>
							<path id="XMLID_31_" class="st179" d="M720.8,281.3c0,1.4-1.1,2.6-2.6,2.6l-63.1,0c-1.4,0-2.6-1.2-2.6-2.6l0-41.3
								c0-1.4,1.1-2.6,2.6-2.6l63.1,0c1.4,0,2.6,1.2,2.6,2.6L720.8,281.3z"/>
						</g>
					</g>
				</g>
				<path class="st13" d="M692.3,253.7c0-3.1-2.5-5.7-5.6-5.7c-3.1,0-5.6,2.5-5.6,5.7c0,1.9,0.9,3.5,2.3,4.6l-1.8,12.9l10.3,0
					l-1.8-12.9C691.4,257.2,692.3,255.5,692.3,253.7z"/>
			</g>
		</g>
		<g>
			<path class="st66" d="M244.5,267.1c0.7,0.2,1.5,0.3,2.2,0.4C246,267.4,245.2,267.3,244.5,267.1z M246.7,267.5
				c0.4,0.1,0.7,0.1,1.1,0.1C247.5,267.6,247.1,267.6,246.7,267.5z"/>
			<linearGradient id="SVGID_4_" gradientUnits="userSpaceOnUse" x1="250.1929" y1="304.4813" x2="250.1929" y2="218.6464">
				<stop  offset="0" style="stop-color:#FFFFFF"/>
				<stop  offset="1" style="stop-color:#CFCFCF"/>
			</linearGradient>
			<path class="st18" d="M269.3,227.7c-0.2-0.3-0.4-0.5-0.7-0.8c-0.4-0.4-0.8-0.9-1.2-1.3c-1.3-1.2-2.6-2.3-4.1-3.2
				c-0.4-0.2-0.8-0.5-1.1-0.7c-1.6-0.9-3.3-1.6-5.1-2.1c-0.8-0.2-1.7-0.4-2.5-0.6c-2-0.4-4.1-0.5-6.1-0.3c-0.6,0-1.2,0.1-1.8,0.2
				c0,0-0.1,0-0.1,0c-0.9,0.1-1.8,0.3-2.7,0.6c-0.1,0-0.2,0.1-0.3,0.1c-0.5,0.1-1,0.3-1.4,0.4c-7.3,2.5-13.2,8.4-15.5,16.3
				c-3.4,11.8,2.5,24.2,13.5,29.2l-3.4,11.6l-0.6-0.2c-0.4-0.1-0.7,0.1-0.8,0.5l0,0.1c-0.1,0.3,0.1,0.5,0.3,0.7l-6.1,21.4
				c-0.5,1.9,1,3.9,3.5,4.7l0.1,0c2.5,0.7,4.9-0.2,5.5-2.1l6.3-21.2l-0.1,0c0.2,0,0.4-0.2,0.5-0.4l0,0c0.1-0.3-0.1-0.7-0.4-0.8
				l-0.4-0.1l3.5-12c11.6,1.1,22.7-6.1,26.1-17.6C276.3,242,274.3,233.8,269.3,227.7z M270.9,248.2c-0.5,2-1.3,3.9-2.3,5.6v0.7h-0.5
				c0,0,0,0,0,0.1c-0.1,0.1-0.2,0.3-0.3,0.4c-0.1,0.1-0.2,0.2-0.3,0.4c0,0.1-0.1,0.1-0.1,0.2c-0.1,0.1-0.2,0.2-0.2,0.3
				c-0.5,0.6-1,1.2-1.5,1.8c-0.1,0.1-0.2,0.2-0.3,0.3c-0.2,0.2-0.3,0.3-0.5,0.5c-0.1,0.1-0.2,0.2-0.4,0.3c-0.1,0.1-0.2,0.2-0.3,0.3
				c-0.1,0.1-0.2,0.2-0.3,0.2c0,0-0.1,0-0.1,0.1c-0.1,0.1-0.2,0.2-0.3,0.3c0,0-0.1,0.1-0.1,0.1c-0.1,0.1-0.2,0.2-0.3,0.2
				c-0.3,0.2-0.6,0.4-0.9,0.6c-3.9,2.6-8.7,3.9-13.4,3.5c-0.3,0-0.6,0-0.8-0.1c-2.5-0.3-4.9-1-7.1-2.1c-2.3-1.2-4.4-2.7-6.1-4.7
				c-2.5-2.7-4.2-6.1-5-9.7c-1-4.8-0.3-10,2.1-14.3c2.2-4,5.7-7.2,9.9-9.1c0.5-0.2,1-0.4,1.4-0.6c0.1,0,0.1,0,0.2-0.1
				c0.1,0,0.1,0,0.2-0.1c0.9-0.3,1.8-0.5,2.8-0.7c0,0,0.1,0,0.1,0c0.6-0.1,1.2-0.2,1.8-0.3c2-0.2,4.1-0.1,6.1,0.3
				c1.2,0.2,2.5,0.6,3.6,1c0.1,0,0.1,0,0.2,0.1c0.5,0.2,1,0.4,1.5,0.7c0,0,0.1,0,0.1,0.1h0c0.1,0,0.2,0.1,0.3,0.1
				c0.1,0.1,0.2,0.1,0.3,0.2c0.2,0.1,0.5,0.3,0.7,0.4l0.1,0.1c0.1,0.1,0.2,0.1,0.4,0.2c0.1,0,0.1,0.1,0.2,0.1
				c0.1,0.1,0.3,0.2,0.4,0.3c0.1,0.1,0.2,0.2,0.4,0.3c0.2,0.2,0.5,0.4,0.7,0.5c0.2,0.2,0.5,0.4,0.7,0.6c0.1,0.1,0.1,0.1,0.2,0.2
				c0.1,0.1,0.2,0.2,0.3,0.3c0.4,0.4,0.8,0.7,1.2,1.1c0.2,0.2,0.3,0.4,0.5,0.5c0,0,0.1,0.1,0.1,0.1c0.1,0.2,0.3,0.3,0.4,0.5
				c0.2,0.2,0.3,0.4,0.5,0.6c0.1,0.1,0.2,0.2,0.2,0.3c0.1,0.1,0.1,0.2,0.2,0.3c0.1,0.1,0.2,0.3,0.3,0.4c0.1,0.1,0.1,0.2,0.2,0.3
				c0.1,0.1,0.1,0.2,0.2,0.3c0.1,0.1,0.2,0.3,0.2,0.4c0,0,0,0,0,0c0,0,0,0,0,0c0.1,0.1,0.1,0.2,0.2,0.3c0.1,0.2,0.2,0.3,0.3,0.5
				s0.2,0.3,0.2,0.5C271.5,238.2,272.2,243.4,270.9,248.2z"/>
			<path class="st68" d="M259.8,224.4c0,0,0.1,0,0.1,0.1C259.9,224.5,259.9,224.4,259.8,224.4z"/>
			<linearGradient id="SVGID_5_" gradientUnits="userSpaceOnUse" x1="250.4719" y1="263.4758" x2="250.4719" y2="197.5472">
				<stop  offset="0" style="stop-color:#FFFFFF"/>
				<stop  offset="1" style="stop-color:#CFCFCF"/>
			</linearGradient>
			<path style="opacity:0.56;fill:url(#SVGID_5_);" d="M249.3,224.2c-0.1,0-0.1,0-0.2,0c0.1,0,0.2,0,0.3,0
				C249.4,224.2,249.4,224.2,249.3,224.2z M271.4,241.2c0-0.2-0.1-0.5-0.1-0.7c0-0.1,0-0.2-0.1-0.4c0-0.2-0.1-0.5-0.1-0.7
				c0-0.2-0.1-0.3-0.1-0.5c0,0,0-0.1,0-0.1c0,0,0,0,0-0.1c0-0.1,0-0.2-0.1-0.3c0-0.1-0.1-0.2-0.1-0.4c0-0.1-0.1-0.2-0.1-0.3
				c0,0,0,0,0-0.1c0-0.1-0.1-0.2-0.1-0.3c0-0.1-0.1-0.2-0.1-0.3c0-0.1-0.1-0.3-0.1-0.4c0-0.1-0.1-0.3-0.1-0.4c0-0.1-0.1-0.2-0.1-0.3
				c0-0.1-0.1-0.2-0.1-0.3c0-0.1-0.1-0.2-0.1-0.3c0-0.1-0.1-0.2-0.1-0.3c-0.1-0.2-0.1-0.3-0.2-0.5c-0.1-0.1-0.1-0.3-0.2-0.4
				c0,0,0,0,0,0c-0.1-0.2-0.2-0.3-0.2-0.5c-0.1-0.2-0.2-0.3-0.2-0.5c-0.1-0.1-0.1-0.2-0.2-0.3c0,0,0,0,0,0c-0.1-0.2-0.2-0.4-0.4-0.6
				c-0.1-0.1-0.2-0.3-0.3-0.4c-0.1-0.1-0.1-0.2-0.2-0.3c-0.3-0.4-0.6-0.9-1-1.3c-0.1-0.1-0.2-0.2-0.3-0.3c-0.1-0.2-0.3-0.3-0.4-0.5
				c-0.1-0.1-0.1-0.2-0.2-0.3c-0.1-0.1-0.2-0.2-0.3-0.3c-0.1-0.1-0.1-0.1-0.2-0.2c-0.1-0.1-0.2-0.2-0.3-0.3
				c-0.2-0.2-0.4-0.4-0.6-0.6c-0.4-0.3-0.8-0.7-1.2-1c-0.1-0.1-0.2-0.2-0.3-0.2c0,0,0,0-0.1,0c-0.1,0-0.1-0.1-0.2-0.1
				c-0.1,0-0.1-0.1-0.2-0.1c0,0,0,0,0,0c-0.1-0.1-0.3-0.2-0.4-0.3c-0.1-0.1-0.3-0.2-0.4-0.3c0,0-0.1-0.1-0.1-0.1
				c-0.1-0.1-0.2-0.2-0.4-0.2c-0.1-0.1-0.3-0.2-0.4-0.3c-0.1,0-0.1-0.1-0.2-0.1c-0.1,0-0.1-0.1-0.2-0.1c-0.1-0.1-0.2-0.1-0.3-0.2
				c-0.1,0-0.2-0.1-0.3-0.1h0c0,0-0.1,0-0.1-0.1c-0.5-0.2-1-0.5-1.5-0.7c-0.1,0-0.1,0-0.2-0.1c-1.2-0.5-2.4-0.8-3.6-1
				c-2-0.4-4.1-0.5-6.1-0.3c-0.6,0.1-1.2,0.1-1.8,0.3c0,0-0.1,0-0.1,0c-0.9,0.2-1.9,0.4-2.8,0.7c-0.1,0-0.1,0-0.2,0.1
				c-0.1,0-0.1,0-0.2,0.1c-0.5,0.2-1,0.4-1.4,0.6c-4.2,1.8-7.7,5.1-9.9,9.1c-2.4,4.3-3.1,9.5-2.1,14.3c0.8,3.6,2.5,6.9,5,9.7
				c1.8,1.9,3.8,3.5,6.1,4.7c2.2,1.1,4.6,1.9,7.1,2.1c0.3,0,0.6,0.1,0.8,0.1c4.7,0.4,9.5-0.9,13.4-3.5c0.3-0.2,0.6-0.4,0.9-0.6
				c0.1-0.1,0.2-0.1,0.3-0.2c0,0,0.1-0.1,0.1-0.1c0.1-0.1,0.2-0.2,0.3-0.3c0,0,0.1,0,0.1-0.1c0.1-0.1,0.2-0.2,0.3-0.2
				c0.1-0.1,0.2-0.2,0.3-0.3c0.1-0.1,0.2-0.2,0.4-0.3c0.2-0.2,0.3-0.3,0.5-0.5c0.1-0.1,0.2-0.2,0.3-0.3c0.5-0.6,1-1.2,1.5-1.8
				c0.1-0.1,0.2-0.2,0.2-0.3c0-0.1,0.1-0.1,0.1-0.2c0.1-0.1,0.2-0.2,0.3-0.4c0.1-0.1,0.2-0.3,0.3-0.4c0,0,0,0,0-0.1
				c0.2-0.2,0.3-0.5,0.5-0.7c0.8-1.5,1.5-3,2-4.7c0.1-0.2,0.1-0.4,0.1-0.5c0-0.2,0.1-0.4,0.1-0.5v0c0-0.2,0.1-0.3,0.1-0.5
				c0-0.2,0.1-0.4,0.1-0.6c0-0.2,0.1-0.5,0.1-0.7c0-0.1,0-0.2,0-0.4c0-0.2,0-0.3,0.1-0.5c0-0.1,0-0.1,0-0.2c0-0.1,0-0.3,0-0.4
				c0-0.1,0-0.2,0-0.2c0-0.2,0-0.3,0-0.4c0-0.1,0-0.2,0-0.3c0,0,0-0.1,0-0.1c0-0.2,0-0.4,0-0.6C271.5,242.4,271.4,241.8,271.4,241.2
				z M237.4,251.1c0,0,0,0.1,0,0.1c0,0.1,0,0.1-0.1,0.2c0,0.1-0.1,0.2-0.1,0.3c-0.1,0.1-0.1,0.2-0.2,0.3c0,0,0,0,0,0
				c0,0-0.1,0.1-0.1,0.1c-0.5,0.5-1.2,0.7-1.9,0.5c-0.2,0-0.3-0.1-0.4-0.2c-0.1-0.1-0.3-0.2-0.4-0.3c-0.5-0.5-0.7-1.2-0.5-1.9
				c0.1-0.3,0.3-0.6,0.5-0.8c0.2-0.2,0.5-0.4,0.8-0.5c0.4-0.1,0.8-0.1,1.2,0c0.2,0.1,0.4,0.2,0.6,0.3c0.1,0.1,0.2,0.1,0.2,0.2
				c0.1,0.1,0.1,0.2,0.2,0.2c0.1,0.2,0.2,0.3,0.3,0.5c0.1,0.3,0.1,0.6,0.1,0.9C237.4,251,237.4,251,237.4,251.1z M261.5,232.8
				c-0.1,0-0.2-0.1-0.3-0.2c0,0-0.1-0.1-0.1-0.1c0,0-0.1-0.1-0.1-0.1c0,0-0.1-0.1-0.1-0.1c-0.1-0.1-0.1-0.1-0.2-0.2
				c-0.1-0.1-0.1-0.1-0.2-0.2c0,0-0.1-0.1-0.1-0.1c-0.1-0.1-0.1-0.1-0.2-0.2c-0.1-0.1-0.1-0.1-0.2-0.2c-0.1-0.1-0.2-0.2-0.3-0.3
				c-0.1-0.1-0.1-0.1-0.2-0.2c0,0-0.1-0.1-0.1-0.1c-0.1-0.1-0.1-0.1-0.2-0.1c0,0-0.1,0-0.1-0.1c0,0-0.1-0.1-0.1-0.1
				c-0.1-0.1-0.1-0.1-0.2-0.2c0,0-0.1,0-0.1-0.1c-0.1,0-0.1-0.1-0.2-0.1c-0.2-0.2-0.5-0.3-0.7-0.5c-0.1-0.1-0.2-0.1-0.3-0.2
				c-0.1-0.1-0.2-0.1-0.3-0.2c-0.1,0-0.1-0.1-0.2-0.1c-0.1-0.1-0.2-0.1-0.3-0.2c-0.1-0.1-0.2-0.1-0.3-0.2c0,0-0.1,0-0.1,0
				c0,0,0,0,0,0c-0.1,0-0.1-0.1-0.2-0.1c-0.1,0-0.2-0.1-0.2-0.1c0,0,0,0,0,0c0,0,0,0-0.1,0c-0.3-0.1-0.5-0.2-0.8-0.3c0,0,0,0,0,0
				c-0.1,0-0.2-0.1-0.3-0.1c0,0-0.1,0-0.1,0c0,0-0.1,0-0.1,0c0,0,0,0,0,0c0,0-0.1,0-0.1,0c-0.1,0-0.2-0.1-0.3-0.1
				c-0.1,0-0.2-0.1-0.3-0.1c-0.4-0.1-0.9-0.2-1.3-0.3c-0.1,0-0.2,0-0.3-0.1c-0.1,0-0.1,0-0.2,0c0,0,0,0-0.1,0c0,0-0.1,0-0.1,0
				c0,0-0.1,0-0.1,0c-0.1,0-0.1,0-0.2,0c0,0,0,0,0,0c-0.1,0-0.2,0-0.2,0c-0.1,0-0.2,0-0.2,0c-0.1,0-0.3,0-0.4,0c0,0-0.1,0-0.1,0
				c-0.1,0-0.3,0-0.4,0c0,0,0,0-0.1,0c-0.1,0-0.1,0-0.2,0c-0.2,0-0.4,0-0.7,0c-0.1,0-0.2,0-0.2,0c-0.1,0-0.3,0-0.4,0
				c0,0-0.1,0-0.1,0c-0.1,0-0.2,0-0.4,0c-0.1,0-0.1,0-0.2,0c-0.1,0-0.1,0-0.2,0c-0.1,0-0.2,0-0.3,0c-0.1,0-0.3,0-0.4,0.1
				c-0.2,0-0.3,0.1-0.5,0.1c0,0,0,0,0,0c-0.1,0-0.2,0-0.3,0.1c-0.1,0-0.3,0.1-0.4,0.1c-0.2,0.1-0.4,0.1-0.6,0.2
				c-0.1,0-0.2,0.1-0.3,0.1c-0.1,0-0.2,0.1-0.3,0.1c-0.1,0-0.2,0.1-0.3,0.1c-0.1,0-0.1,0-0.2,0.1c0,0,0,0,0,0
				c-0.1,0-0.1,0.1-0.2,0.1c-0.1,0-0.1,0-0.1,0.1c-0.1,0-0.1,0-0.1,0.1c-0.1,0.1-0.2,0.1-0.4,0.2c-0.1,0-0.2,0.1-0.3,0.2
				c-0.1,0-0.2,0.1-0.3,0.1c-0.1,0-0.2,0.1-0.3,0.1c0,0,0,0,0,0c-0.1,0-0.1,0.1-0.2,0.1c0,0,0,0,0,0c-0.1,0-0.2,0.1-0.2,0.1
				c0,0-0.1,0-0.1,0c0,0,0,0,0,0c0,0-0.1,0.1-0.1,0.1c-0.1,0-0.1,0.1-0.2,0.1c-0.1,0.1-0.2,0.2-0.4,0.2c0,0,0,0-0.1,0
				c-0.1,0.1-0.3,0.2-0.4,0.3c-0.1,0.1-0.2,0.1-0.2,0.2c0,0,0,0-0.1,0c0,0-0.1,0.1-0.1,0.1c0,0,0,0-0.1,0.1
				c-0.1,0.1-0.2,0.2-0.4,0.3c0,0,0,0,0,0c-0.1,0.1-0.2,0.2-0.3,0.3c0,0,0,0-0.1,0.1c-0.1,0.1-0.2,0.2-0.3,0.3
				c-0.1,0.1-0.2,0.2-0.3,0.4c-0.1,0.1-0.1,0.1-0.2,0.2c-0.1,0.1-0.2,0.2-0.3,0.4c-0.1,0.1-0.2,0.2-0.2,0.3c0,0,0,0,0,0
				c0,0.1-0.1,0.1-0.1,0.2c0,0,0,0,0,0.1c0,0.1-0.1,0.1-0.1,0.2c-0.1,0.1-0.1,0.2-0.2,0.3c-0.1,0.1-0.1,0.2-0.2,0.3
				c-0.2,0.3-0.4,0.6-0.5,0.9c0,0,0,0,0,0c-0.1,0.1-0.2,0.3-0.2,0.5c-0.1,0.2-0.2,0.3-0.3,0.5c-0.1,0.1-0.1,0.2-0.2,0.3
				c0,0.1-0.1,0.1-0.1,0.2c0,0.1-0.1,0.2-0.1,0.3c-0.1,0.2-0.2,0.4-0.2,0.6c0,0.1-0.1,0.3-0.1,0.4c0,0.1,0,0.1-0.1,0.2
				c0,0.1-0.1,0.2-0.1,0.3c0,0,0,0.1,0,0.1c0,0,0,0,0,0c0,0.1-0.1,0.2-0.1,0.3c0,0.2-0.1,0.3-0.1,0.5c0,0.1,0,0.2-0.1,0.3
				c-0.1,0.3-0.1,0.5-0.1,0.8c0,0.1,0,0.1,0,0.2c0,0.3-0.1,0.6-0.1,1c0,0.2,0,0.3,0,0.5c0,0.2,0,0.3,0,0.5c0,1,0.1,2,0.3,3
				c0,0.1,0,0.2,0,0.3c0,1.1-1.2,1.7-2,1.4c-0.1,0-0.1,0-0.2-0.1c-0.1-0.1-0.2-0.1-0.3-0.2c-0.2-0.2-0.3-0.4-0.4-0.8
				c-0.4-2-0.5-4-0.2-5.9c0-0.1,0-0.2,0-0.3c0-0.3,0.1-0.5,0.1-0.8c0.3-1.4,0.7-2.8,1.3-4.1c0.2-0.5,0.5-1,0.8-1.5
				c0.2-0.3,0.4-0.7,0.6-1c0.3-0.5,0.7-1,1-1.4c0,0,0,0,0,0c0.3-0.3,0.5-0.6,0.8-0.9c0.1-0.1,0.3-0.3,0.4-0.4
				c0.3-0.3,0.6-0.5,0.9-0.8c0.1-0.1,0.3-0.3,0.5-0.4c0.5-0.4,0.9-0.7,1.4-1.1c0.3-0.2,0.7-0.4,1-0.6c0.1-0.1,0.3-0.1,0.4-0.2
				c0.1,0,0.1-0.1,0.2-0.1c0.2-0.1,0.3-0.2,0.5-0.2c0,0,0.1,0,0.1-0.1c0.1,0,0.1,0,0.2-0.1c0.2-0.1,0.3-0.1,0.5-0.2
				c0.1,0,0.2-0.1,0.3-0.1c0,0,0.1,0,0.1-0.1c0.1,0,0.2-0.1,0.4-0.1c0.2-0.1,0.4-0.1,0.6-0.2c0,0,0.1,0,0.1,0c0.1,0,0.2-0.1,0.3-0.1
				c0,0,0,0,0,0c0,0,0,0,0.1,0c0,0,0,0,0,0c0,0,0.1,0,0.1,0c0,0,0.1,0,0.1,0c0.1,0,0.1,0,0.2-0.1c0,0,0,0,0,0c0.1,0,0.1,0,0.2,0
				c0,0,0,0,0.1,0c0.1,0,0.2,0,0.3-0.1c0.3-0.1,0.5-0.1,0.8-0.2c0.1,0,0.2,0,0.3-0.1c0,0,0.1,0,0.1,0c0.2,0,0.4-0.1,0.6-0.1
				c0.2,0,0.4,0,0.6-0.1c0.1,0,0.2,0,0.3,0c0,0,0.1,0,0.1,0c0.1,0,0.2,0,0.2,0c0.2,0,0.3,0,0.5,0c0.1,0,0.2,0,0.2,0
				c0.1,0,0.2,0,0.3,0c0.1,0,0.2,0,0.3,0c0,0,0.1,0,0.1,0c0.1,0,0.2,0,0.2,0c0.1,0,0.2,0,0.2,0c0,0,0.1,0,0.1,0c0,0,0,0,0,0
				c0.1,0,0.2,0,0.2,0c0.1,0,0.2,0,0.3,0c0,0,0,0,0,0c0,0,0.1,0,0.1,0c0.4,0,0.8,0.1,1.2,0.2c0.1,0,0.1,0,0.2,0c0.1,0,0.2,0,0.3,0.1
				c0,0,0,0,0.1,0c0,0,0.1,0,0.1,0c0,0,0.1,0,0.1,0c0,0,0,0,0.1,0c0.2,0,0.4,0.1,0.5,0.1c0,0,0.1,0,0.1,0c0.1,0,0.3,0.1,0.4,0.1
				c0.1,0,0.1,0,0.2,0.1c0.2,0,0.3,0.1,0.5,0.1c0.3,0.1,0.6,0.2,0.9,0.3c0,0,0.1,0,0.1,0.1c0.1,0,0.2,0.1,0.3,0.1c0,0,0.1,0,0.1,0
				c0.1,0,0.1,0.1,0.2,0.1c0.2,0.1,0.3,0.1,0.5,0.2c0.1,0,0.2,0.1,0.2,0.1c0,0,0.1,0,0.1,0.1c0.2,0.1,0.4,0.2,0.6,0.3
				c0.1,0.1,0.2,0.1,0.3,0.2c0.1,0,0.1,0.1,0.2,0.1c0,0,0.1,0.1,0.1,0.1c0.6,0.4,1.2,0.7,1.8,1.2c0.1,0.1,0.2,0.1,0.2,0.2
				c0.1,0.1,0.3,0.2,0.4,0.3c0.1,0.1,0.3,0.2,0.4,0.3c0.1,0.1,0.3,0.2,0.4,0.4c0.1,0.1,0.3,0.3,0.4,0.4c0.3,0.3,0.5,0.5,0.7,0.8
				C264.3,231.7,262.7,233.4,261.5,232.8z M249.3,224.2c-0.1,0-0.1,0-0.2,0c0.1,0,0.2,0,0.3,0C249.4,224.2,249.4,224.2,249.3,224.2z
				"/>
			<path class="st70" d="M240.7,226.5c-6.8,3.9-10.2,11.6-8.7,19.2c0.4,1.9,3.3,1.1,2.9-0.7c-1.4-6.6,2-13.5,8.1-16.4
				c6.1-2.9,13.5-1.3,18,3.8c1.3,1.4,3.4-0.6,2.1-2c-0.5-0.6-1-1.1-1.5-1.6C255.9,223.8,247.4,222.7,240.7,226.5z"/>
			<path class="st71" d="M233.6,250.1c-0.3,1,0.3,2.1,1.3,2.4c1,0.3,2.1-0.3,2.4-1.3c0.3-1-0.3-2.1-1.3-2.4
				C235,248.5,233.9,249.1,233.6,250.1z"/>
			<path class="st13" d="M233.6,250.1c-0.3,1,0.3,2.1,1.3,2.4c1,0.3,2.1-0.3,2.4-1.3c0.3-1-0.3-2.1-1.3-2.4
				C235,248.5,233.9,249.1,233.6,250.1z"/>
			<path class="st72" d="M268.6,253.8v0.7h-0.4c0,0,0,0,0,0c0.1-0.1,0.1-0.2,0.2-0.4C268.5,254.1,268.6,253.9,268.6,253.8z"/>
			<path class="st73" d="M260,224.5c0.1,0,0.2,0.1,0.3,0.1C260.2,224.6,260.1,224.5,260,224.5z"/>
			<path class="st74" d="M268.6,253.8c-0.1,0.1-0.1,0.2-0.2,0.4c-0.1,0.1-0.1,0.2-0.2,0.4c0,0,0,0,0,0h0
				C268.3,254.3,268.5,254.1,268.6,253.8z"/>
		</g>
		<g>
			<g>
				<path class="st75" d="M357.1,123.7l4,0.6l1.4-5c0.3-0.9,0-2-0.8-2.6l0,0c-1-0.9-2.6-0.7-3.3,0.5l-0.8,1.4
					c-0.1,0.2-0.4,0.4-0.7,0.3l0,0c-0.2,0-0.4-0.1-0.5-0.3l-0.1-0.1c-0.2-0.3-0.6-0.3-0.9-0.1l0,0c-0.2,0.2-0.3,0.5-0.2,0.7
					L357.1,123.7z"/>
			</g>
			<g>
				<g>
					<path class="st7" d="M328.2,166.8c-1.9-5.8-3.2-11.3-3.1-11.3c4.2,0,8.4,0,12.6-0.1c2.7-0.1,6.5,1.1,8.1-1
						c2.1-2.6,2.7-8.6,3.7-11.8c1.1-3.6,2.3-7.2,3.4-10.8c0.7-2.1,1.7-8.7,3.6-9.4c0.3-0.1,2.4,0.2,3.9,0.4c0.9,0.1,1.5,0.9,1.4,1.7
						c-0.3,4.9-0.6,9.9-0.9,14.8c-0.2,4.1-0.5,8.2-0.7,12.3c-0.4,7.2-2.4,9.9-7.6,14.8c-5.2,4.8-10.8,9.2-16.3,13.6
						C333.8,182,330.5,174.1,328.2,166.8z"/>
				</g>
			</g>
		</g>
		<g>
			<g>
				<g id="XMLID_110_">
					<path class="st72" d="M333.5,308.7l4.2,1c1,0.3,2.1-0.2,2.6-1.1l0,0c0.7-1.1,0.3-2.6-0.9-3.3l-1.7-0.9l-6,0l0.2,2.4
						C332,307.7,332.6,308.5,333.5,308.7z"/>
				</g>
				<g id="XMLID_109_">
					<path class="st72" d="M314.5,303.1l-0.1,1.9c0,0.4-0.3,0.7-0.6,0.9l-4,1.8c-0.9,0.4-2,0.2-2.7-0.6l0,0
						c-0.9-1.1-0.6-2.6,0.5-3.4l1.4-0.9L314.5,303.1z"/>
				</g>
				<polygon class="st182" points="338.7,212.5 341.7,222.2 340.4,226.7 340.5,226.7 339.7,252.5 337.7,304.4 331.8,304.4 
					319.2,244.1 318.5,247 314.5,303.1 309,302.8 298.3,230 297.9,215.2 				"/>
			</g>
			<g>
				<path class="st100" d="M312.6,154.8c0,0,6.9-0.8,6.9-0.8c15.5-1.8,17.3,19.9,19.7,30.6c3.4,15.5,5.2,31.5,4.2,47.5
					c-5-2.5-11.7-1.8-17.3-1.8c-10.3,0-20.9,0-30.7,1.9c-1.8,0.4-1.4-13-1.1-15.5c0.6-5.1,1.2-10.1,1.8-15.2
					c1.1-9.1,2.2-18.3,3.3-27.4c0-0.3,0.1-0.5,0.1-0.8c0.1-1,0.4-1.9,0.9-2.8l6.1-11.5C307.6,156.7,309.9,155.1,312.6,154.8z"/>
			</g>
			<g>
				<g>
					<g>
						<path class="st75" d="M311.1,131.9c0.4-1.5,0.9-3,1.7-4.4c1.5-2.6,4.1-4.8,7.2-5c5.6-0.5,11.8,3,12.3,8.9
							c0.3,3.7,0.9,7.7-0.2,11.4c-0.5,1.9-1.6,3.8-3.2,5c-1.1,0.9-3.5,1.1-4.3,2.2c-2.7,3.3,1.2,4.9-3.7,7.2
							c-0.2,0.1-0.5,0.2-0.8,0.2c-0.4,0-0.7-0.2-1.1-0.4c-0.6-0.4-1.2-0.8-1.9-1.2c-0.1,0-0.1-0.1-0.2-0.2c-0.1-0.1,0-0.3,0-0.4
							c1.2-5.2-4.8-6.7-6.1-11.4c-0.7-2.5-0.9-5-0.6-7.6C310.5,134.7,310.8,133.2,311.1,131.9z"/>
					</g>
				</g>
			</g>
		</g>
		<g>
			<g>
				<g>
					<path class="st75" d="M570.5,115.8C570.5,115.8,570.5,115.8,570.5,115.8c0.7,1.1-0.2,2-0.2,3c0,0.9,1.5,1.6,0.9,2.5
						c-0.2,0.4-0.9,1-1.3,1.7c-0.7,1-1,2.6-0.9,4c0,5.5,0,11-0.6,16.5c0,0.3-0.1,0.6,0.1,0.9c0.2,0.5,0.7,0.7,1.2,0.9
						c2.3,1.1,4.5,2.2,6.6,3.7c1.8,1.3,3.6,2.8,4.6,4.8c1.1,2,1.3,4.4,0.2,6.4c-0.8,1.5-2.2,2.6-3.9,2.5c-4.3,0-6.5-4.4-8.9-7.3
						c-2.3-2.7-4.2-5-6.2-7.8c-0.2-0.3-0.5-0.7-0.6-1.1c-0.1-0.4,0-0.9,0.1-1.3c1.2-5.4,2.5-10.6,2.5-16.1c0-1.5,0.6-2.8,0.4-4.2
						c-0.1-0.9-0.9-1.6-1.1-2.5c-0.2-0.9-0.5-1.9-0.3-2.8c0.4-2.5,3.8-5.2,6.3-4.5C569.8,115.2,570.2,115.4,570.5,115.8z"/>
				</g>
				<g>
					<path class="st2" d="M568.5,156.7c-2.5-2.8-5-5.7-7.3-8.7c-0.4-0.6-0.9-1.1-1-1.8c-0.1-0.5-0.1-1,0-1.5
						c0.5-4.2,1.2-8.4,2.3-12.5c0-0.2,0.1-0.3,0.2-0.4c0.1-0.1,0.2-0.1,0.4-0.1c1.3-0.2,6.5-1.6,7.3-0.7c0.9,1-0.5,3.8-0.6,4.9
						c-0.3,2-0.6,3.9-0.7,5.9c-0.1,0.7-0.1,1.5,0.3,2c0.4,0.6,1,0.9,1.6,1.1c3.5,1.6,6.8,3.9,10.2,5.9c2.4,1.3,4.9,2.5,7.1,4.1
						c4.4,3.1,6.3,3.9,8.3,7.2c1.9,3.2,2.2,7.6-0.8,10.2c-3.1,2.7-7.8,2.1-11.3,0.3c-1.4-0.7-2.5-1.9-3.6-3
						C576.6,165.3,572.5,161.1,568.5,156.7z"/>
				</g>
			</g>
			<g>
				<g>
					<g>
						<g>
							<g>
								<path class="st75" d="M575.6,303c-1.1,0-2.1-0.2-3.2-0.3c-0.6-10.6,0.4-21.7,0.9-32.3c2.7,0.1,5.4,0.3,8.2,0.4
									c-1.9,5.7-3.2,11.5-4,17.5C577.2,289.2,575.7,302.9,575.6,303z"/>
							</g>
							<g>
								<path class="st72" d="M572,300.6c-0.7-0.1-1.1,0.2-1.5,0.6c-0.3,0.2-0.4,0.6-0.7,0.7c-0.3,0.2-0.6,0.2-1,0.2
									c-2,0.2-6.5,0.1-4.1,3.4c2.2,3,8,1.8,11.3,1c0.2-0.1,0.5-0.1,0.6-0.3c0.2-0.2,0.3-0.4,0.3-0.7c0.4-1.4,0.9-3.2-0.8-3.7
									c-0.7-0.3-1.4,0.2-2.2,0C573.4,301.6,572.7,300.7,572,300.6z"/>
							</g>
						</g>
					</g>
					<path class="st7" d="M567.2,276.7l16.6-0.3c4.5-21.3,8.4-42.8,11.8-64.4c0.3-1.7,0.5-3.4,0-5c-0.9-3.1-4.2-4.8-7.3-5.4
						c-4.9-0.9-13.9,0.4-16.4,5.4c-2.6,5.4-2.2,15-2.8,20.9C567.4,244.1,566.7,260.4,567.2,276.7z"/>
				</g>
				<g>
					<g>
						<g>
							<g>
								<path class="st75" d="M607.3,303c1.1,0,2.1-0.2,3.2-0.3c0.6-10.6-0.4-21.7-0.9-32.3c-2.7,0.1-5.4,0.3-8.2,0.4
									c1.9,5.7,3.2,11.5,4,17.5C605.6,289.2,607.1,302.9,607.3,303z"/>
							</g>
							<g>
								<path class="st72" d="M606.5,300.6c-0.7-0.1-1.1,0.2-1.5,0.6c-0.3,0.2-0.4,0.6-0.7,0.7c-0.3,0.2-0.6,0.2-1,0.2
									c-2,0.2-6.5,0.1-4.1,3.4c2.2,3,8,1.8,11.3,1c0.2-0.1,0.5-0.1,0.6-0.3c0.2-0.2,0.3-0.4,0.3-0.7c0.4-1.4,0.9-3.2-0.8-3.7
									c-0.7-0.3-1.4,0.2-2.2,0C607.8,301.6,607.1,300.7,606.5,300.6z"/>
							</g>
						</g>
					</g>
					<path class="st100" d="M615.7,276.7l-16.6-0.3c-4.5-21.3-8.4-42.8-11.8-64.4c-0.3-1.7-0.5-3.4,0-5c0.9-3.1,4.2-4.8,7.3-5.4
						c4.9-0.9,13.9,0.4,16.4,5.4c2.6,5.4,2.2,15,2.8,20.9C615.5,244.1,616.1,260.4,615.7,276.7z"/>
				</g>
			</g>
			<g>
				<g>
					<path class="st11" d="M601.5,159.7c4.4,4.2,7.8,9.7,9.8,15.3c3.6,10,3.6,20.6,3.7,31c0,3.5,0,6.9,0,10.4c0,3.4-0.3,4.1-4,3.7
						c-6.9-0.8-14-2.3-20.3-5.3c-3-1.5-5.7-3.3-8.8-4.4c-4.5-1.7-9.2-0.9-13.6-2c1.9-5.9,3.3-10.9,4.3-16.9c1-6.2,2-13,3.5-19.2
						c0.9-3.7,2.6-7.1,4.3-10.5c1.1-2.3,2.4-4.6,4.3-6.3C590.5,150.5,597,155.5,601.5,159.7z"/>
				</g>
			</g>
			<g>
				<g>
					<g>
						<path class="st75" d="M585.5,143.7c0.9,2,2.4,3.7,3.7,5.6c1.2,1.8,1.6,3.4,2,5.5c0.2,1.5,0.8,2.7,2.6,2.9
							c3.4,0.5,2.4-2.3,3.2-4.4c0.9-2.4,2.8-4.2,4.1-6.3c3.8-6.1,2.7-18.1-5.2-20.6C587.1,123.6,582.7,137.6,585.5,143.7z"/>
					</g>
				</g>
				<g>
					<path class="st12" d="M599.4,137.9c1,0,2.1,0.1,2.8,0.8c0.7,0.7,0.7,2.1-0.3,2.3c-0.9,0.1-2-0.8-2.5-0.1c-0.3,0.4,0,1,0.2,1.4
						c0.9,1.8,1.2,3.8,0.8,5.6c0.4,0.3,0.9,0,1.2-0.4c1.6-1.7,2.8-3.7,3.6-5.9c0.3,0.5,0.8,1,1.3,1.3c-0.3-0.8-0.1-1.7,0.1-2.5
						c0.7-3.1,1.2-6.7-0.9-9.2c-1.1-1.3-2.9-2.1-4.6-2.4c-1.8-0.3-3.5-0.2-5.3-0.2c-0.8,0-1.7,0.2-1.9,0.9c1.7,0.7,3.4,2,4.2,3.5
						C598.3,133.5,599.3,137.9,599.4,137.9z"/>
				</g>
				<g>
					<path class="st12" d="M595.9,130.5c0.1,0,0.1,0.1,0.2,0.1c0.8,0.6,1.5,1.3,2.4,1.5c1.3,0.4,2.7-0.3,4,0.2
						c1.4,0.5,2.4,2.2,3.4,3.2c1.7,1.7,3.9,2.9,6.2,3.6c1.2,0.4,2.4,0.6,3.6,0.6c0.6,0,1.3,0.1,1.8,0c0.7-0.2,0.7-0.5-0.1-0.8
						c-2.4-0.8-3.2-4.2-3-6.5c0.1-1.8,0.8-3.7,0.1-5.3c-0.5-1.3-1.6-1.9-2.7-2.6c-1.2-0.8-2.5-0.6-3.8-1c-1.4-0.4-2.6-1.5-4-1.8
						c-1.5-0.3-3,0.4-4.6,0.7c-1.3,0.2-2.6,0.2-3.8,0c-1.1-0.2-2.2-0.7-3.4-0.7c-1.7,0-3.2,1.1-4.2,2.4c-1.4,1.9-2.3,5.3-1.8,7.8
						c-0.1-0.4,1.3-1.8,1.5-2.1c0.6-0.7,1.3-1.3,2.2-1.4C591.9,128.3,594.3,129.3,595.9,130.5z"/>
				</g>
			</g>
		</g>
		<g>
			<g>
				<g id="XMLID_104_">
					<g id="XMLID_105_">
						<g id="XMLID_108_">
							<path class="st66" d="M341,179.4L341,179.4c0.6,1.3,2.1,2,3.4,1.4l1.1-0.5c1.3-0.6,2-2.1,1.4-3.4l0,0
								c-5-12.1-18.7-17.8-30.7-12.8c-11.9,5-17.6,18.9-12.6,30.9l8.2,20l6-2.5l-8.2-20c-3.6-8.7,0.5-18.8,9.1-22.4
								C327.4,166.5,337.4,170.7,341,179.4z"/>
						</g>
						<g id="XMLID_106_">
							<g>
								<path id="XMLID_39_" class="st11" d="M368.4,237.3c0.2,1.4-0.8,2.7-2.2,2.8l-61.3,7.6c-1.4,0.2-2.6-0.8-2.8-2.2l-5-40.2
									c-0.2-1.4,0.8-2.7,2.2-2.8l61.3-7.6c1.4-0.2,2.6,0.8,2.8,2.2L368.4,237.3z"/>
							</g>
						</g>
					</g>
				</g>
				<path class="st183" d="M368.4,237.3l-3.1-24.6c-18,19.7-46.3,29.8-62.5,34.3c0.5,0.6,1.3,0.9,2.1,0.8l61.3-7.6
					C367.6,239.9,368.6,238.6,368.4,237.3z"/>
				<path class="st7" d="M337.4,213.8c-0.4-3.1-3.1-5.2-6.2-4.8s-5.2,3.2-4.8,6.2c0.2,1.8,1.3,3.3,2.8,4.2L329,232l10-1.2l-3.3-12.3
					C336.9,217.3,337.6,215.6,337.4,213.8z"/>
				<path class="st183" d="M299.8,207.3l1.1,8.6c-0.2-3.7,0.5-11.9,11.5-13.3l-9.9,1.2C300.8,204.1,299.6,205.6,299.8,207.3z"/>
				<path class="st7" d="M329,232c0,0,7.2-3,6.7-13.5l3.3,12.3L329,232z"/>
			</g>
		</g>
		<g>
			<g>
				<g>
					<g>
						<g id="XMLID_24_">
							<path id="XMLID_25_" class="st75" d="M426.1,255.9l2.4,17c0.8,7.6,2.9,15,3.7,22.6c0.2,1.7,0,3.6,0.6,5.3
								c0.6,1.6,2,1.8,3.3,0.7c1.7-1.4,1.1-4,1.1-6c0.4-13.3,2-26.3,2.8-39.5c0-0.2,0-0.4-0.1-0.5c-0.1-0.1-0.3-0.1-0.4-0.1
								C438.2,255.5,426.1,256.3,426.1,255.9z"/>
						</g>
						<path class="st76" d="M437.2,298.5l0.7,1.3c0.4,0.8,0.4,1.7-0.2,2.4l-3.1,3.9c-0.3,0.4-0.8,0.7-1.3,0.8l-2.8,0.6
							c-0.8,0.2-1.6-0.1-2.2-0.7v0c-0.7-0.8-0.8-1.9-0.2-2.8l4-5.7H437.2z"/>
					</g>
					<path class="st8" d="M423.7,250c-1.1-11.2-1.5-22.3,0.6-34c0.3-1.6,0.6-3.1,1.4-4.5c2.3-3.7,7.4-4.1,11.6-3.7
						c3.9,0.4,7.8,1.3,11.5,2.6c6.2,2.2,4.5,10.5,4.4,16.2c0,0.6-0.1,1.1-0.3,1.7l-9.4,23.6c-0.2,0.4-0.3,0.8-0.3,1.3l-4.1,39.6
						c-0.2,2.4-2.2,4.2-4.6,4.3h0c-2.5,0.1-4.7-1.7-5-4.2c-1.3-9.1-2.5-18.2-3.8-27.4C424.9,260.4,424.2,255.2,423.7,250z"/>
				</g>
				<g>
					<g>
						<g id="XMLID_22_">
							<path id="XMLID_23_" class="st75" d="M454.6,259.8l8.4,15c3.5,6.8,8.2,13,11.7,19.8c0.8,1.6,1.3,3.4,2.5,4.7
								c1.2,1.3,2.5,0.9,3.3-0.5c1.1-1.9-0.5-4.1-1.1-6c-4.5-12.5-7.7-25.2-11.8-37.8c-0.1-0.2-0.1-0.4-0.3-0.4
								c-0.1,0-0.3,0-0.4,0.1C465.7,255,454.8,260.1,454.6,259.8z"/>
						</g>
						<path class="st76" d="M480.5,295.4l1.1,0.9c0.8,0.6,1.1,1.6,0.8,2.6l-1.4,4.6c-0.1,0.5-0.5,0.9-0.9,1.2l-2.4,1.6
							c-0.7,0.4-1.5,0.5-2.2,0.1l0,0c-0.9-0.5-1.4-1.5-1.1-2.5l1.7-6.5L480.5,295.4z"/>
					</g>
					<g>
						<path class="st9" d="M450.3,255.2c-3.4-7-6.7-14-9.1-21.4c-1.2-3.9-2.2-7.8-3-11.8c-0.7-3.7,0.3-7.2,1-10.9
							c0.1-0.5,0.2-1.1,0.6-1.5c0.3-0.4,0.8-0.6,1.3-0.7c7-2.6,14.3-4.2,21.6-4.9c0.6-0.1,1.2-0.1,1.7,0.2c0.6,0.4,0.8,1.1,1,1.8
							c1.5,5.8,4.2,12.3,4.3,18.2c0.1,3.1-0.2,6.4-0.2,9.5c0,5.4,0,10.7-0.1,16.1c0,0.5,0.1,0.9,0.2,1.4l10.2,36.8
							c0.5,1.9-0.1,4-1.7,5.2l0,0c-2.4,2-6,1.3-7.6-1.4c-4.2-7.6-8.5-15.2-12.7-22.7C455.1,264.4,452.6,259.8,450.3,255.2z"/>
					</g>
				</g>
				<path class="st184" d="M468.1,178.3c0-0.1,0-0.2,0-0.3c-1.1-6.2,0-12.5-1-18.7c-0.9-5.5-3.1-8.4-7.9-10.9
					c-4.5-2.4-9.6-3.5-14.6-3.1c-5,0.4-10.3,1.3-14.3,4.6c-1.7,1.4-2.8,3-3.8,5c-4.3,8.3-3.5,18-3.1,27.1c0.3,9.2-2.7,19.3-5.2,28.2
					c14.2,6.7,30.2,8.8,45.5,5.7c0.9-0.2,1.8-0.4,2.3-1.2c0.3-0.5,0.4-1.2,0.4-1.8c0.3-4.9,0.8-9.8,1-14.7
					C467.8,191.6,468.7,184.8,468.1,178.3z"/>
				<g>
					<g>
						<path class="st12" d="M452.3,126c1,1.7,1.4,3.7,1.5,5.6c0,0.5,0.1,1.1,0.5,1.4c0.5,0.3,0.1,1.1,0.4,0.6c0.3-0.4,1.5-2,1.6-2.5
							c0.1-1.3,0.1-2.6,0-3.9c-0.1-1.1-0.3-2.3-1.1-3.2c-0.4-0.5-1-0.9-1.6-1.2c-0.8-0.5-1.7-1-2.7-1.2c-1.7-0.3-2.7,0.3-1.2,1.4
							C450.8,123.9,451.7,124.8,452.3,126z"/>
						<g>
							<path class="st75" d="M441.9,148.3c0,0.8-0.2,1.6,0.6,2.3c0.3,0.3,0.8,0.4,1.3,0.5c1.2,0.2,2.4,0.1,3.5-0.2
								c0.5-0.1,0.9-0.3,1.3-0.7c0.4-0.4,0.4-0.8,0.5-1.3c0-0.6,0.1-1.2,0.2-1.8c0.2-1.3,0.3-2.7,0.3-4.1c2-0.3,4.3-1,5-3.1
								c0.2-0.7,0.2-1.4,0.2-2.1c0-2.9,0-5.8,0.1-8.7c0-1,0-2-0.3-3c-0.6-1.6-2.1-2.6-3.6-3.2c-3.8-1.6-8.3-1.5-11.8,0.7
								c-0.9,0.6-1.8,1.3-2.4,2.4c-0.8,1.6-0.7,3.6-0.6,5.4c0.1,1.7,0.2,3.4,0.4,5.1c0.1,1.9,0.4,4.2,1.9,5.2
								c0.8,0.5,1.8,0.6,2.5,1.4c1.2,1.2,0.6,3.1,1,4.6C441.9,147.9,441.9,148.1,441.9,148.3z"/>
						</g>
						<path class="st12" d="M455.8,121c0.2-0.7,0.3-1.4,0.4-2.1c-0.7,0.2-1.4,0.3-2.1,0.2c0-0.4,0-0.8,0-1.2c0-0.3-4.7-0.6-5.1-0.6
							c-3.6-0.3-6.8-0.6-10,1.3c-2.8,1.6-4.5,4.1-4.9,7.2c-0.4,3,0.6,7,2.3,9.5c0-0.8-0.5-2.7-0.3-3.5c0.1-0.8,0.4-1.5,0.7-2.2
							c0.7-1.4,1.9-2.5,3.2-3.3c2.1-1.3,4.5-2,6.9-2.3c2.2-0.3,4.9-0.6,7.1,0c1.1,0.3,1.2,0.5,1.9-0.5c0.1-0.2,1-2.4,0.9-2.4
							C456.6,121,456.2,121,455.8,121z"/>
					</g>
				</g>
			</g>
		</g>
		<g>
			<g>
				<g>
					<g>
						<path class="st11" d="M491,214.5h-96.6v-59c0-3,2.4-5.5,5.5-5.5h85.7c3,0,5.5,2.4,5.5,5.5V214.5z"/>
					</g>
					<rect x="398.2" y="154.5" class="st9" width="88.9" height="56.5"/>
				</g>
			</g>
			<g>
				<g>
					<path class="st77" d="M496.7,219.6c-0.1,0.1-0.2,0.2-0.2,0.4c0,0,0,0,0,0c-0.8,1.1-1.8,1.9-3,2.4c-0.8,0.3-1.6,0.5-2.5,0.5h0
						l-3.3,0l-3.5,0l-0.5,0l-1.7,0l-5.1,0l-10.3,0l-15,0h0l-15.1,0l-16.2,0l-25.9-0.1c-2,0-3.9-0.9-5.1-2.4
						c-0.2-0.3-0.4-0.5-0.6-0.8l32.1,0.1l15.6,0l15.6,0l14.2,0l9.7,0l4.9,0l1.7,0h0.5l3.5,0l5.8,0L496.7,219.6z"/>
					<path class="st11" d="M494.9,220.2H390.5c-1.1,0-2-0.9-2-2v-1.9c0-1.1,0.9-2,2-2h104.4c1.1,0,2,0.9,2,2v1.9
						C496.9,219.3,496,220.2,494.9,220.2z"/>
				</g>
				<path class="st78" d="M450.7,218.1h-16.1c-0.5,0-0.9-0.4-0.9-0.9v-0.3c0-0.5,0.4-0.9,0.9-0.9h16.1c0.5,0,0.9,0.4,0.9,0.9v0.3
					C451.6,217.7,451.2,218.1,450.7,218.1z"/>
			</g>
		</g>
		<g>
			<rect x="398.2" y="173.7" class="st13" width="88.9" height="26"/>
			<g>
				<linearGradient id="SVGID_6_" gradientUnits="userSpaceOnUse" x1="419.7957" y1="186.7272" x2="430.9026" y2="186.7272">
					<stop  offset="1.376186e-03" style="stop-color:#F8C547"/>
					<stop  offset="1" style="stop-color:#F71D69"/>
				</linearGradient>
				<path class="st22" d="M430.7,183.7L430.7,183.7c0.4,0.7,0.1,1.6-0.7,1.8l-3.1,1.1l3.1,1.1c0.7,0.3,1.1,1.1,0.7,1.8l0,0.1
					c-0.4,0.7-1.3,0.9-1.9,0.4l-2.5-2l0.5,3.3c0.1,0.8-0.5,1.5-1.3,1.5h-0.1c-0.8,0-1.4-0.7-1.3-1.5l0.5-3.3l-2.6,2.1
					c-0.6,0.5-1.5,0.3-1.9-0.4l-0.1-0.1c-0.4-0.7-0.1-1.6,0.7-1.8l3-1.1l-3-1.1c-0.7-0.3-1.1-1.1-0.7-1.8l0,0
					c0.4-0.7,1.3-0.9,1.9-0.4l2.6,2l-0.5-3.3c-0.1-0.8,0.5-1.5,1.3-1.5h0.1c0.8,0,1.4,0.7,1.3,1.5l-0.5,3.3l2.6-2
					C429.4,182.9,430.3,183.1,430.7,183.7z"/>
			</g>
			<g>
				<linearGradient id="SVGID_7_" gradientUnits="userSpaceOnUse" x1="437.7076" y1="186.7272" x2="448.8143" y2="186.7272">
					<stop  offset="1.376186e-03" style="stop-color:#F8C547"/>
					<stop  offset="1" style="stop-color:#F71D69"/>
				</linearGradient>
				<path class="st23" d="M448.6,183.7L448.6,183.7c0.4,0.7,0.1,1.6-0.7,1.8l-3.1,1.1l3.1,1.1c0.7,0.3,1.1,1.1,0.7,1.8l0,0.1
					c-0.4,0.7-1.3,0.9-1.9,0.4l-2.5-2l0.5,3.3c0.1,0.8-0.5,1.5-1.3,1.5h-0.1c-0.8,0-1.4-0.7-1.3-1.5l0.5-3.3l-2.6,2.1
					c-0.6,0.5-1.5,0.3-1.9-0.4l-0.1-0.1c-0.4-0.7-0.1-1.6,0.7-1.8l3-1.1l-3-1.1c-0.7-0.3-1.1-1.1-0.7-1.8l0,0
					c0.4-0.7,1.3-0.9,1.9-0.4l2.6,2L442,182c-0.1-0.8,0.5-1.5,1.3-1.5h0.1c0.8,0,1.4,0.7,1.3,1.5l-0.5,3.3l2.6-2
					C447.4,182.9,448.3,183.1,448.6,183.7z"/>
			</g>
			<g>
				<linearGradient id="SVGID_8_" gradientUnits="userSpaceOnUse" x1="455.6193" y1="186.7272" x2="466.7261" y2="186.7272">
					<stop  offset="1.376186e-03" style="stop-color:#F8C547"/>
					<stop  offset="1" style="stop-color:#F71D69"/>
				</linearGradient>
				<path class="st24" d="M466.6,183.7L466.6,183.7c0.4,0.7,0.1,1.6-0.7,1.8l-3.1,1.1l3.1,1.1c0.7,0.3,1.1,1.1,0.7,1.8l0,0.1
					c-0.4,0.7-1.3,0.9-1.9,0.4l-2.5-2l0.5,3.3c0.1,0.8-0.5,1.5-1.3,1.5h-0.1c-0.8,0-1.4-0.7-1.3-1.5l0.5-3.3l-2.6,2.1
					c-0.6,0.5-1.5,0.3-1.9-0.4l-0.1-0.1c-0.4-0.7-0.1-1.6,0.7-1.8l3-1.1l-3-1.1c-0.7-0.3-1.1-1.1-0.7-1.8l0,0
					c0.4-0.7,1.3-0.9,1.9-0.4l2.6,2l-0.5-3.3c-0.1-0.8,0.5-1.5,1.3-1.5h0.1c0.8,0,1.4,0.7,1.3,1.5l-0.5,3.3l2.6-2
					C465.3,182.9,466.2,183.1,466.6,183.7z"/>
			</g>
			<g>
				<linearGradient id="SVGID_9_" gradientUnits="userSpaceOnUse" x1="496.596" y1="123.8126" x2="496.596" y2="69.0808">
					<stop  offset="0" style="stop-color:#FFFFFF"/>
					<stop  offset="1" style="stop-color:#CFCFCF"/>
				</linearGradient>
				<path class="st25" d="M510,100.4L510,100.4c1,1.7,0.2,3.9-1.7,4.6l-7.6,2.8l7.6,2.8c1.8,0.7,2.7,2.8,1.7,4.6l-0.1,0.1
					c-1,1.7-3.3,2.2-4.8,1l-6.3-5l1.2,8.2c0.3,1.9-1.2,3.7-3.2,3.7h-0.2c-1.9,0-3.4-1.7-3.2-3.6l1.1-8.2l-6.4,5.2
					c-1.5,1.2-3.8,0.8-4.8-0.9l-0.2-0.3c-1-1.7-0.2-3.9,1.7-4.6l7.5-2.8L485,105c-1.8-0.7-2.6-2.8-1.7-4.6l0-0.1
					c1-1.7,3.2-2.2,4.8-1l6.6,5l-1.2-8.2c-0.3-1.9,1.2-3.7,3.2-3.7h0.2c2,0,3.5,1.7,3.2,3.7l-1.2,8.2l6.4-5
					C506.7,98.2,509,98.7,510,100.4z"/>
			</g>
			<g>
				<linearGradient id="SVGID_10_" gradientUnits="userSpaceOnUse" x1="749.4629" y1="55.8899" x2="749.4629" y2="1.158">
					<stop  offset="0" style="stop-color:#FFFFFF"/>
					<stop  offset="1" style="stop-color:#CFCFCF"/>
				</linearGradient>
				<path class="st27" d="M762.8,32.5L762.8,32.5c1,1.7,0.2,3.9-1.7,4.6l-7.6,2.8l7.6,2.8c1.8,0.7,2.7,2.8,1.7,4.6l-0.1,0.1
					c-1,1.7-3.3,2.2-4.8,1l-6.3-5l1.2,8.2c0.3,1.9-1.2,3.7-3.2,3.7h-0.2c-1.9,0-3.4-1.7-3.2-3.6l1.1-8.2l-6.4,5.2
					c-1.5,1.2-3.8,0.8-4.8-0.9l-0.2-0.3c-1-1.7-0.2-3.9,1.7-4.6l7.5-2.8l-7.5-2.8c-1.8-0.7-2.6-2.8-1.7-4.6l0-0.1
					c1-1.7,3.2-2.2,4.8-1l6.6,5l-1.2-8.2c-0.3-1.9,1.2-3.7,3.2-3.7h0.2c2,0,3.5,1.7,3.2,3.7l-1.2,8.2l6.4-5
					C759.6,30.3,761.9,30.8,762.8,32.5z"/>
			</g>
			<g>
				<linearGradient id="SVGID_11_" gradientUnits="userSpaceOnUse" x1="347.5591" y1="56.202" x2="347.5591" y2="-21.9368">
					<stop  offset="0" style="stop-color:#FFFFFF"/>
					<stop  offset="1" style="stop-color:#CFCFCF"/>
				</linearGradient>
				<path class="st28" d="M366.6,22.8L366.6,22.8c1.4,2.5,0.2,5.6-2.4,6.5l-10.9,4.1l10.9,4c2.6,1,3.8,4.1,2.4,6.5l-0.1,0.2
					c-1.4,2.5-4.6,3.1-6.9,1.4l-9-7.2l1.8,11.7c0.4,2.8-1.7,5.3-4.5,5.3h-0.2c-2.8,0-4.9-2.4-4.5-5.2l1.6-11.7l-9.1,7.4
					c-2.2,1.8-5.5,1.2-6.9-1.3l-0.3-0.5c-1.4-2.4-0.3-5.5,2.4-6.5l10.8-4l-10.7-4c-2.6-1-3.8-4.1-2.4-6.5l0.1-0.1
					c1.4-2.4,4.6-3.1,6.8-1.4l9.4,7.2l-1.7-11.7c-0.4-2.8,1.7-5.2,4.5-5.2h0.3c2.8,0,4.9,2.5,4.5,5.3l-1.8,11.7l9.2-7.1
					C362,19.7,365.3,20.3,366.6,22.8z"/>
			</g>
			<g>
				<linearGradient id="SVGID_12_" gradientUnits="userSpaceOnUse" x1="28.1499" y1="245.6952" x2="28.1499" y2="167.5564">
					<stop  offset="0" style="stop-color:#FFFFFF"/>
					<stop  offset="1" style="stop-color:#CFCFCF"/>
				</linearGradient>
				<path class="st30" d="M47.2,212.3L47.2,212.3c1.4,2.5,0.2,5.6-2.4,6.5l-10.9,4.1l10.9,4c2.6,1,3.8,4.1,2.4,6.5l-0.1,0.2
					c-1.4,2.5-4.6,3.1-6.9,1.4l-9-7.2l1.8,11.7c0.4,2.8-1.7,5.3-4.5,5.3h-0.2c-2.8,0-4.9-2.4-4.5-5.2l1.6-11.7l-9.1,7.4
					c-2.2,1.8-5.5,1.2-6.9-1.3l-0.3-0.5c-1.4-2.4-0.3-5.5,2.4-6.5l10.8-4l-10.7-4c-2.6-1-3.8-4.1-2.4-6.5l0.1-0.1
					c1.4-2.4,4.6-3.1,6.8-1.4l9.4,7.2l-1.7-11.7c-0.4-2.8,1.7-5.2,4.5-5.2h0.3c2.8,0,4.9,2.5,4.5,5.3L31.3,218l9.2-7.1
					C42.6,209.2,45.8,209.8,47.2,212.3z"/>
			</g>
			<g>
				<linearGradient id="SVGID_13_" gradientUnits="userSpaceOnUse" x1="473.5311" y1="186.7272" x2="484.6379" y2="186.7272">
					<stop  offset="1.376186e-03" style="stop-color:#F8C547"/>
					<stop  offset="1" style="stop-color:#F71D69"/>
				</linearGradient>
				<path class="st31" d="M484.5,183.7L484.5,183.7c0.4,0.7,0.1,1.6-0.7,1.8l-3.1,1.1l3.1,1.1c0.7,0.3,1.1,1.1,0.7,1.8l0,0.1
					c-0.4,0.7-1.3,0.9-1.9,0.4l-2.5-2l0.5,3.3c0.1,0.8-0.5,1.5-1.3,1.5h-0.1c-0.8,0-1.4-0.7-1.3-1.5l0.5-3.3l-2.6,2.1
					c-0.6,0.5-1.5,0.3-1.9-0.4l-0.1-0.1c-0.4-0.7-0.1-1.6,0.7-1.8l3-1.1l-3-1.1c-0.7-0.3-1.1-1.1-0.7-1.8l0,0
					c0.4-0.7,1.3-0.9,1.9-0.4l2.6,2l-0.5-3.3c-0.1-0.8,0.5-1.5,1.3-1.5h0.1c0.8,0,1.4,0.7,1.3,1.5l-0.5,3.3l2.6-2
					C483.2,182.9,484.1,183.1,484.5,183.7z"/>
			</g>
			<linearGradient id="SVGID_14_" gradientUnits="userSpaceOnUse" x1="401.9684" y1="186.7272" x2="413.0753" y2="186.7272">
				<stop  offset="1.376186e-03" style="stop-color:#F8C547"/>
				<stop  offset="1" style="stop-color:#F71D69"/>
			</linearGradient>
			<path class="st32" d="M412.9,183.7L412.9,183.7c0.4,0.7,0.1,1.6-0.7,1.8l-3.1,1.1l3.1,1.1c0.7,0.3,1.1,1.1,0.7,1.8l0,0.1
				c-0.4,0.7-1.3,0.9-1.9,0.4l-2.5-2l0.5,3.3c0.1,0.8-0.5,1.5-1.3,1.5h-0.1c-0.8,0-1.4-0.7-1.3-1.5l0.5-3.3l-2.6,2.1
				c-0.6,0.5-1.5,0.3-1.9-0.4l-0.1-0.1c-0.4-0.7-0.1-1.6,0.7-1.8l3-1.1l-3-1.1c-0.7-0.3-1.1-1.1-0.7-1.8l0,0
				c0.4-0.7,1.3-0.9,1.9-0.4l2.6,2l-0.5-3.3c-0.1-0.8,0.5-1.5,1.3-1.5h0.1c0.8,0,1.4,0.7,1.3,1.5l-0.5,3.3l2.6-2
				C411.6,182.9,412.5,183.1,412.9,183.7z"/>
		</g>
		<g>
			<path class="st75" d="M489.2,180c-0.2-0.1-0.4-0.2-0.6-0.2c-0.3,0-0.5,0.4-0.6,0.7c-0.3,1.1,0.1,2.4,1.1,3.1
				c-1.3,0.8-3.4-0.7-4.3,0.5c-0.2,0.3-0.3,0.8-0.3,1.2c0,1.7-0.1,3.4,0,5.1c0,0.5,0,1.1,0.4,1.4c0.4,0.4,0.9,0.4,1.4,0.5
				c0.7,0.1,1.5,0.1,2.2,0.2c1.2,0.1,2.6,0.1,3.5-0.7c0.8-0.7,0.9-1.9,1-2.9c0.1-1.6,0.2-3.3,0.2-4.9
				C493.3,181.3,491.1,181,489.2,180z"/>
			<path class="st184" d="M494.5,182.5c0.3,2.1,0.6,4.3,0.9,6.4c0.2,1.2,0.3,2.4,0,3.5c-0.4,1.5-1.7,2.7-3.2,3
				c-0.9,0.2-2.2-0.2-2.2-1.1c0-0.4,0.2-0.7,0.4-1c2.5-4.6,1.3-9.5,1.4-14.4C493.8,178.8,494.3,180.8,494.5,182.5z"/>
		</g>
		<g>
			<path class="st100" d="M564.5,211.9c-0.3,2.8-0.8,5.5-1.6,8.3c-0.6,2.2-1.4,4.3-2.3,6.3l21.4,6.2l4.6-14.4L564.5,211.9z
				 M576.4,230.8C576.4,230.8,576.4,230.8,576.4,230.8C576.4,230.8,576.4,230.8,576.4,230.8z"/>
			<path class="st12" d="M628.1,229.1l-39-11.6l0,0.1c0,0.2,0,0.4,0,0.5l-0.2,0.8l-4.5,14.4l-0.3,1.1c0,0.1,0,0.1-0.1,0.2l39.3,11.2
				c3.4,1,7.3-1.9,8.6-6.5l0-0.2C633.2,234.6,631.5,230.1,628.1,229.1z"/>
			<path class="st68" d="M484.9,189.9c0-0.1,0.1-0.2,0.1-0.3C485,189.7,484.9,189.8,484.9,189.9z"/>
			<path class="st12" d="M559.8,210.6c0.1-0.9,0.1-1.8,0.1-2.7c0.2-9.3-2.8-18.5-8.5-25.9c-5.7-7.4-14-12.8-23.1-14.8
				c-8.9-1.9-18.4-0.9-26.6,3.1c-2,1-3.8,2.1-5.6,3.4c-1.8,1.3-3.5,2.7-5.1,4.3c-1.4,1.4-2.7,2.8-3.8,4.4c-0.7,1-1.4,1.9-2,2.9
				c0,0,0,0,0,0v0c-0.6,1-1.2,2-1.7,3c-0.4,0.7-0.7,1.4-1,2.1c-1.3,3-2.3,6.1-2.9,9.4c-0.7,3.7-0.9,7.5-0.5,11.2
				c0.1,1.1,0.3,2.3,0.5,3.4c0,0.1,0,0.1,0,0.2c0.2,0.9,0.3,1.7,0.6,2.6c0.2,0.8,0.4,1.6,0.7,2.5c0.1,0.2,0.1,0.4,0.2,0.6
				c0.3,0.9,0.6,1.8,1,2.6c2.8,6.9,7.5,12.9,13.6,17.3c7.4,5.4,16.6,8.2,25.7,7.7c9.3-0.5,18.2-4.2,25.2-10.4
				c3.8-3.5,7-7.7,9.2-12.3l4.9,1.4c-9.2,20.2-31.9,31.2-53.7,24.9c-14.6-4.2-25.4-15.2-30.1-28.6c-0.3-0.9-0.6-1.7-0.8-2.6
				c-0.1-0.2-0.1-0.4-0.2-0.6c-0.4-1.7-0.8-3.3-1-5.1c0-0.1,0-0.1,0-0.2c-0.2-1.1-0.3-2.3-0.4-3.4c-0.3-3.7-0.1-7.5,0.6-11.2
				c0.3-1.5,0.6-3.1,1.1-4.6c1-3.3,2.3-6.5,3.9-9.4c0.4-0.7,0.8-1.4,1.2-2.1c1.7-2.8,3.7-5.3,6-7.6c0.8-0.8,1.5-1.5,2.4-2.3
				c0.5-0.4,1-0.8,1.5-1.3c11.1-9.1,26.4-12.8,41.2-8.5c21.2,6.1,34.5,26.6,32.4,48L559.8,210.6z"/>
			<path class="st68" d="M539,173.7c-2.7-1.5-5.6-2.8-8.6-3.7c-0.3-0.1-0.7-0.2-1-0.3c-0.3-0.1-0.7-0.2-1-0.3c0,0,0,0,0,0
				c-0.3-0.1-0.6-0.1-0.9-0.2c-0.4-0.1-0.7-0.1-1.1-0.2c-0.4-0.1-0.9-0.2-1.3-0.2c-0.2,0-0.4-0.1-0.7-0.1c-0.3,0-0.6-0.1-0.9-0.1
				c-0.1,0-0.3,0-0.4,0c-0.3,0-0.6,0-0.8-0.1c-0.1,0-0.3,0-0.4,0c-0.3,0-0.5,0-0.8,0c-0.2,0-0.4,0-0.6,0c-0.1,0-0.1,0-0.2,0
				c-0.4,0-0.7,0-1.1,0c-1.1,0-2.2,0.1-3.3,0.2c-0.5,0-0.9,0.1-1.4,0.2c-0.2,0-0.4,0.1-0.7,0.1c-0.4,0.1-0.9,0.1-1.3,0.2
				c-0.3,0.1-0.6,0.1-1,0.2c-0.1,0-0.2,0-0.3,0.1c0,0-0.1,0-0.1,0c-0.2,0-0.4,0.1-0.6,0.1c-0.2,0.1-0.5,0.1-0.7,0.2
				c-0.2,0-0.4,0.1-0.6,0.2c0,0-0.1,0-0.1,0c-0.2,0.1-0.4,0.1-0.5,0.2c-0.2,0.1-0.4,0.1-0.6,0.2c-0.2,0.1-0.5,0.2-0.7,0.2
				c-0.2,0.1-0.5,0.2-0.7,0.3c-0.2,0.1-0.4,0.1-0.6,0.2c-0.2,0.1-0.4,0.1-0.6,0.2c-0.2,0.1-0.4,0.2-0.6,0.2
				c-0.2,0.1-0.4,0.2-0.6,0.2c-0.3,0.1-0.6,0.3-0.9,0.4c-0.3,0.1-0.5,0.2-0.8,0.4c0,0,0,0-0.1,0c-0.3,0.1-0.6,0.3-0.8,0.4
				c-0.3,0.1-0.6,0.3-0.8,0.4c-0.2,0.1-0.4,0.2-0.6,0.3c0,0,0,0,0,0c-0.4,0.2-0.7,0.4-1.1,0.7c-0.3,0.2-0.5,0.3-0.8,0.5
				c-0.2,0.1-0.4,0.3-0.6,0.4c-0.8,0.6-1.6,1.1-2.4,1.8c-0.2,0.2-0.4,0.3-0.6,0.5c-0.3,0.3-0.6,0.5-0.9,0.8
				c-0.2,0.1-0.3,0.3-0.5,0.4c-0.2,0.2-0.4,0.4-0.6,0.6c-0.1,0.1-0.2,0.2-0.3,0.3c-0.2,0.1-0.3,0.3-0.5,0.5c-0.3,0.3-0.7,0.7-1,1.1
				c-0.6,0.7-1.2,1.4-1.8,2.1c-0.1,0.2-0.3,0.4-0.4,0.6c0,0-0.1,0.1-0.1,0.1c-0.1,0.1-0.2,0.2-0.2,0.3s-0.2,0.2-0.2,0.3c0,0,0,0,0,0
				c-0.2,0.2-0.3,0.5-0.5,0.7c-0.2,0.2-0.3,0.5-0.5,0.7c-0.1,0.1-0.1,0.2-0.2,0.3c-0.1,0.2-0.3,0.4-0.4,0.7
				c-0.2,0.3-0.3,0.5-0.5,0.8c-0.1,0.1-0.2,0.3-0.2,0.4c-0.1,0.1-0.1,0.3-0.2,0.4c-0.1,0.2-0.2,0.4-0.3,0.6c0.1-0.2,0.2-0.4,0.3-0.6
				c0.2-0.5,0.5-0.9,0.8-1.4c0-0.1,0.1-0.1,0.1-0.2c0.1-0.2,0.3-0.4,0.4-0.7c0.1-0.1,0.1-0.2,0.2-0.3c0.2-0.2,0.3-0.5,0.5-0.7
				c0.2-0.2,0.3-0.5,0.5-0.7c0.3-0.5,0.7-0.9,1-1.4c0.3-0.4,0.7-0.9,1.1-1.3c0.1-0.1,0.2-0.3,0.3-0.4c0.2-0.2,0.3-0.4,0.5-0.5
				c0.7-0.7,1.4-1.5,2.1-2.1c0.3-0.3,0.7-0.6,1-0.9c0.1-0.1,0.1-0.1,0.2-0.2c0.3-0.3,0.6-0.5,0.9-0.8c0.4-0.3,0.8-0.6,1.1-0.9
				c0.2-0.1,0.4-0.3,0.6-0.4c0.2-0.1,0.3-0.2,0.5-0.3c0.2-0.2,0.5-0.3,0.7-0.5c0.2-0.1,0.3-0.2,0.5-0.3c0.2-0.1,0.4-0.2,0.6-0.4
				c0.2-0.2,0.5-0.3,0.7-0.4c0,0,0,0,0.1,0c0,0,0,0,0,0c0.2-0.1,0.3-0.2,0.5-0.3c0.3-0.2,0.6-0.3,0.9-0.5c0.3-0.2,0.6-0.3,0.9-0.5
				c8.2-4.1,17.7-5.3,26.6-3C532.4,170.4,535.8,171.8,539,173.7z"/>
			<path class="st194" d="M564.5,211.9c-0.3,2.8-0.8,5.5-1.6,8.3c-0.6,2.2-1.4,4.3-2.3,6.3l-4.9-1.4c2.2-4.5,3.7-9.5,4.1-14.6
				L564.5,211.9z"/>
			<path class="st195" d="M484.6,209.6c0-0.4,0-0.7,0-1.1c0,0.3,0,0.5,0,0.8C484.6,209.4,484.6,209.5,484.6,209.6z M551.3,185.2
				c-0.4-0.6-0.8-1.1-1.2-1.6c-0.1-0.2-0.3-0.4-0.4-0.5c-0.1-0.1-0.1-0.1-0.2-0.2c-0.2-0.2-0.3-0.4-0.5-0.6c0-0.1-0.1-0.1-0.1-0.2
				c-0.1-0.2-0.3-0.3-0.4-0.5c-0.2-0.2-0.3-0.4-0.5-0.6c-0.2-0.2-0.4-0.4-0.6-0.7c-0.3-0.3-0.6-0.6-0.9-0.9
				c-0.2-0.2-0.3-0.3-0.5-0.5c-1-1-2.1-1.9-3.3-2.8c-0.2-0.1-0.4-0.3-0.6-0.4c-0.1-0.1-0.2-0.1-0.3-0.2c-0.2-0.2-0.4-0.3-0.7-0.5
				c-0.2-0.2-0.5-0.3-0.7-0.5c0,0-0.1,0-0.1-0.1c-0.4-0.3-0.9-0.6-1.4-0.8c-2.7-1.5-5.6-2.8-8.6-3.7c-0.3-0.1-0.7-0.2-1-0.3
				c-0.3-0.1-0.7-0.2-1-0.3c0,0,0,0,0,0c-0.3-0.1-0.6-0.1-0.9-0.2c-0.4-0.1-0.7-0.1-1.1-0.2c-0.4-0.1-0.9-0.2-1.3-0.2
				c-0.2,0-0.4-0.1-0.7-0.1c-0.3,0-0.6-0.1-0.9-0.1c-0.1,0-0.3,0-0.4,0c-0.3,0-0.6,0-0.8-0.1c-0.1,0-0.3,0-0.4,0c-0.3,0-0.5,0-0.8,0
				c-0.2,0-0.4,0-0.6,0c-0.1,0-0.1,0-0.2,0c-0.4,0-0.7,0-1.1,0c-1.1,0-2.2,0.1-3.3,0.2c-0.5,0-0.9,0.1-1.4,0.2
				c-0.2,0-0.4,0.1-0.7,0.1c-0.4,0.1-0.9,0.1-1.3,0.2c-0.3,0.1-0.6,0.1-1,0.2c-0.1,0-0.2,0-0.3,0.1c0,0-0.1,0-0.1,0
				c-0.2,0-0.4,0.1-0.6,0.1c-0.2,0.1-0.5,0.1-0.7,0.2c-0.2,0-0.4,0.1-0.6,0.2c0,0-0.1,0-0.1,0c-0.2,0.1-0.4,0.1-0.5,0.2
				c-0.2,0.1-0.4,0.1-0.6,0.2c-0.2,0.1-0.5,0.2-0.7,0.2c-0.2,0.1-0.5,0.2-0.7,0.3c-0.2,0.1-0.4,0.1-0.6,0.2
				c-0.2,0.1-0.4,0.1-0.6,0.2c-0.2,0.1-0.4,0.2-0.6,0.2c-0.2,0.1-0.4,0.2-0.6,0.2c-0.3,0.1-0.6,0.3-0.9,0.4
				c-0.3,0.1-0.5,0.2-0.8,0.4c0,0,0,0-0.1,0c-0.3,0.1-0.6,0.3-0.8,0.4c-0.3,0.1-0.6,0.3-0.8,0.4c-0.2,0.1-0.4,0.2-0.6,0.3
				c0,0,0,0,0,0c-0.4,0.2-0.7,0.4-1.1,0.7c-0.3,0.2-0.5,0.3-0.8,0.5c-0.2,0.1-0.4,0.3-0.6,0.4c-0.8,0.6-1.6,1.1-2.4,1.8
				c-0.2,0.2-0.4,0.3-0.6,0.5c-0.3,0.3-0.6,0.5-0.9,0.8c-0.2,0.1-0.3,0.3-0.5,0.4c-0.2,0.2-0.4,0.4-0.6,0.6
				c-0.1,0.1-0.2,0.2-0.3,0.3c-0.2,0.1-0.3,0.3-0.5,0.5c-0.3,0.3-0.7,0.7-1,1.1c-0.6,0.7-1.2,1.4-1.8,2.1c-0.1,0.2-0.3,0.4-0.4,0.6
				c0,0-0.1,0.1-0.1,0.1c-0.1,0.1-0.2,0.2-0.2,0.3c-0.1,0.1-0.2,0.2-0.2,0.3c0,0,0,0,0,0c-0.2,0.2-0.3,0.5-0.5,0.7
				c-0.2,0.2-0.3,0.5-0.5,0.7c-0.1,0.1-0.1,0.2-0.2,0.3c-0.1,0.2-0.3,0.4-0.4,0.7c-0.2,0.3-0.3,0.5-0.5,0.8
				c-0.1,0.1-0.1,0.3-0.2,0.4c-0.1,0.1-0.1,0.3-0.2,0.4c-0.1,0.2-0.2,0.4-0.3,0.6c0,0,0,0,0,0.1c-0.1,0.1-0.2,0.3-0.2,0.4
				c0,0.1-0.1,0.2-0.1,0.3c-0.5,0.9-0.9,1.9-1.3,2.8c0,0.1-0.1,0.2-0.1,0.3c-0.8,2.2-1.5,4.4-1.9,6.7c-0.7,3.7-0.9,7.5-0.5,11.2
				c0.1,1.1,0.3,2.3,0.5,3.4c0,0.1,0,0.1,0,0.2c0.3,1.7,0.8,3.4,1.3,5.1c0,0.1,0.1,0.2,0.1,0.3c0,0.1,0.1,0.2,0.1,0.3
				c0.3,0.9,0.7,1.8,1.1,2.7c3.4,7.7,9.3,14.2,16.7,18.3c8,4.4,17.5,5.7,26.4,3.9c6.6-1.4,12.8-4.6,17.8-9.1
				c3.6-3.2,6.5-7.1,8.6-11.3c2-4,3.4-8.4,4-13c0.1-0.5,0.1-1,0.1-1.6C558.4,201.3,556.1,192.5,551.3,185.2z M524.2,241
				c-14,2.9-28.3-3.5-35.4-16c-0.4-0.7-0.8-1.5-1.1-2.2c-0.2-0.4-0.4-0.9-0.6-1.3c-0.1-0.2-0.1-0.4-0.2-0.5
				c-0.1-0.3-0.2-0.5-0.3-0.8c-0.1-0.2-0.1-0.4-0.2-0.6c-0.1-0.2-0.1-0.4-0.2-0.6c-0.1-0.2-0.1-0.4-0.2-0.5c0,0,0-0.1,0-0.1
				c0-0.1-0.1-0.2-0.1-0.3c-0.1-0.2-0.1-0.3-0.1-0.5c0-0.1-0.1-0.2-0.1-0.3c0,0,0-0.1,0-0.1c0-0.2-0.1-0.3-0.1-0.5c0,0,0-0.1,0-0.1
				c-0.1-0.2-0.1-0.4-0.1-0.6c-0.1-0.4-0.2-0.9-0.2-1.3c0-0.1,0-0.1,0-0.2c-0.1-0.9-0.3-1.8-0.3-2.8c0-0.2,0-0.4,0-0.6
				c0-0.3,0-0.6,0-0.9c0-0.1,0-0.3,0-0.4c0-0.4,0-0.7,0-1.1c0-0.2,0-0.4,0-0.6c0-0.2,0-0.4,0-0.6c0,0,0,0,0-0.1c0-0.1,0-0.3,0-0.4
				c0-0.2,0-0.4,0.1-0.7c0-0.1,0-0.3,0-0.4c0-0.3,0.1-0.5,0.1-0.8c0-0.2,0.1-0.4,0.1-0.6c0-0.2,0.1-0.4,0.1-0.6
				c0-0.2,0.1-0.4,0.1-0.6c0-0.2,0.1-0.3,0.1-0.5c0-0.1,0-0.1,0-0.1c0-0.2,0.1-0.3,0.1-0.5c0.1-0.4,0.2-0.8,0.3-1.2c0,0,0,0,0,0
				c0.1-0.2,0.1-0.5,0.2-0.7c0-0.1,0.1-0.3,0.1-0.4c0.1-0.3,0.2-0.6,0.3-0.9c0.2-0.6,0.4-1.1,0.6-1.6c0-0.1,0.1-0.2,0.1-0.3
				c0.1-0.2,0.2-0.5,0.3-0.7c0.1-0.3,0.3-0.6,0.4-0.9c0.1-0.3,0.3-0.6,0.4-0.9c0.2-0.3,0.3-0.7,0.5-1c0.1-0.2,0.2-0.4,0.3-0.7
				c0.1-0.2,0.2-0.4,0.3-0.6c0.1-0.2,0.2-0.4,0.3-0.6c0.5-0.8,1-1.5,1.5-2.3c0.2-0.2,0.3-0.4,0.5-0.7c0.1-0.1,0.2-0.3,0.3-0.5
				c0.4-0.5,0.8-1,1.2-1.5c0.9-1,1.9-2,2.9-2.8c2.6-2.3,6.4,1.6,3.7,4c-0.5,0.5-1,0.9-1.5,1.4c-0.1,0.1-0.3,0.3-0.4,0.4
				c-0.3,0.3-0.6,0.6-0.8,0.9c-0.2,0.2-0.4,0.5-0.6,0.7c-0.2,0.2-0.4,0.5-0.6,0.7c-0.9,1.2-1.7,2.4-2.4,3.7
				c-0.1,0.2-0.2,0.4-0.4,0.7c0,0.1-0.1,0.1-0.1,0.2c-0.1,0.2-0.2,0.4-0.3,0.7c0,0,0,0.1-0.1,0.1c-0.1,0.2-0.2,0.4-0.3,0.6
				c-0.1,0.3-0.3,0.7-0.4,1c-0.1,0.3-0.2,0.5-0.3,0.8c0,0,0,0,0,0c0,0.1,0,0.1-0.1,0.2c-0.1,0.2-0.1,0.4-0.2,0.6
				c-0.1,0.4-0.2,0.8-0.4,1.2c-0.1,0.4-0.2,0.8-0.3,1.1c0,0.1-0.1,0.3-0.1,0.4c0,0.1,0,0.2-0.1,0.3c-0.1,0.3-0.1,0.6-0.2,0.9
				c0,0.2-0.1,0.3-0.1,0.5c0,0.2,0,0.3-0.1,0.5c0,0.2,0,0.3-0.1,0.5c0,0.1,0,0.3,0,0.5c0,0.3-0.1,0.6-0.1,0.9c0,0.3,0,0.6,0,0.9
				c0,0.8,0,1.5,0,2.3c0,0.2,0,0.4,0,0.7c0,0.2,0,0.5,0.1,0.7c0,0.2,0,0.4,0.1,0.7c0,0.2,0.1,0.4,0.1,0.6c0.1,0.5,0.1,0.9,0.2,1.4
				c0,0.1,0,0.1,0,0.2c0,0,0,0.1,0,0.1c0,0.2,0.1,0.3,0.1,0.5c0,0,0,0.1,0,0.1c0,0.2,0.1,0.4,0.1,0.6c0.2,0.9,0.5,1.7,0.8,2.6
				c0.1,0.2,0.1,0.3,0.2,0.5c0.1,0.3,0.2,0.5,0.3,0.8c0.1,0.2,0.2,0.4,0.2,0.6c0.1,0.2,0.2,0.4,0.3,0.6c0.3,0.5,0.5,1,0.8,1.5
				c0,0,0,0,0,0c0.1,0.1,0.1,0.2,0.2,0.4c0.1,0.2,0.2,0.3,0.3,0.5c0.1,0.1,0.2,0.3,0.2,0.4c0.1,0.1,0.2,0.3,0.3,0.4
				c0.1,0.1,0.1,0.2,0.2,0.3c0.1,0.1,0.1,0.2,0.2,0.3c0,0,0.1,0.1,0.1,0.1c0.3,0.4,0.6,0.8,0.9,1.2c0.1,0.2,0.3,0.3,0.4,0.5
				c0.8,1,1.7,1.9,2.6,2.7c0.2,0.2,0.4,0.4,0.6,0.6c0.1,0.1,0.1,0.1,0.2,0.2c0.2,0.2,0.5,0.4,0.7,0.6c0.2,0.2,0.4,0.3,0.7,0.5
				c0.3,0.3,0.7,0.5,1,0.7c0.5,0.4,1.1,0.7,1.6,1c0.5,0.3,1,0.6,1.5,0.8c0.1,0,0.2,0.1,0.3,0.1c0.2,0.1,0.4,0.2,0.6,0.3
				c0.1,0,0.2,0.1,0.3,0.1c0.3,0.1,0.5,0.2,0.8,0.3c0.2,0.1,0.4,0.2,0.6,0.2c0.7,0.3,1.4,0.5,2.1,0.7c0.2,0.1,0.4,0.1,0.6,0.2
				c0.1,0,0.2,0.1,0.3,0.1c0.2,0,0.4,0.1,0.5,0.1c0.4,0.1,0.9,0.2,1.3,0.3c0.2,0,0.4,0.1,0.5,0.1c0,0,0,0,0.1,0c0.1,0,0.3,0,0.4,0.1
				c0,0,0.1,0,0.1,0c0.2,0,0.4,0.1,0.7,0.1c0.3,0,0.6,0.1,1,0.1c0.3,0,0.6,0,1,0.1c0.3,0,0.6,0,1,0c1.8,0,3.6-0.2,5.5-0.6
				C526.3,235,527.6,240.3,524.2,241z M536.7,235.8c-0.6,1.9-2.5,3-4.4,2.5c-1.9-0.5-3-2.5-2.4-4.5c0.6-1.9,2.5-3,4.4-2.5
				C536.1,231.8,537.2,233.8,536.7,235.8z M484.6,209.3c0,0.1,0,0.2,0,0.3c0-0.4,0-0.7,0-1.1C484.6,208.8,484.6,209,484.6,209.3z"/>
			<path class="st70" d="M488.8,225.1c7.1,12.5,21.4,18.9,35.4,16c3.4-0.7,2.1-6-1.3-5.3c-12.2,2.5-24.8-3.7-30.2-14.9
				c-5.4-11.3-2.4-24.9,7-33.1c2.7-2.3-1.1-6.3-3.7-4c-1,0.9-2,1.8-2.9,2.9C483.8,197.2,481.8,212.8,488.8,225.1z"/>
			<path class="st71" d="M532.3,238.2c1.9,0.5,3.9-0.6,4.4-2.5c0.6-1.9-0.5-3.9-2.4-4.5c-1.9-0.5-3.9,0.6-4.4,2.5
				C529.3,235.7,530.4,237.7,532.3,238.2z"/>
			<path class="st70" d="M532.3,238.2c1.9,0.5,3.9-0.6,4.4-2.5c0.6-1.9-0.5-3.9-2.4-4.5c-1.9-0.5-3.9,0.6-4.4,2.5
				C529.3,235.7,530.4,237.7,532.3,238.2z"/>
			<path class="st196" d="M589.1,217.7c-0.1-0.4-0.3-0.7-0.7-0.9l0,0c-0.6-0.2-1.3,0.1-1.5,0.7l-0.3,0.8l2.1,0.6L589.1,217.7z"/>
			<path class="st197" d="M584.2,233.4l-2.2-0.6l-0.3,1c-0.2,0.6,0.2,1.3,0.8,1.5l0.2,0c0.5,0.1,1-0.2,1.2-0.6l-0.1,0L584.2,233.4z"
				/>
			<polygon class="st197" points="588.7,218.9 586.6,218.3 582,232.7 584.2,233.4 			"/>
			<path class="st196" d="M588.8,219l0.2-0.8c0.1-0.2,0.1-0.4,0-0.5l-0.4,1.3L588.8,219z"/>
			<path class="st197" d="M584.3,233.4l-0.1,0l-0.4,1.3l0.1,0c0-0.1,0.1-0.1,0.1-0.2L584.3,233.4z"/>
			<polygon class="st197" points="584.2,233.4 584.3,233.4 588.8,219 588.7,218.9 			"/>
			<path class="st72" d="M559.9,207.8c0,0.9-0.1,1.8-0.1,2.7c-0.4,5.1-1.9,10-4.1,14.6c-2.3,4.6-5.4,8.8-9.2,12.3
				c-7,6.3-15.9,9.9-25.2,10.4c-9.1,0.5-18.3-2.3-25.7-7.7c-6-4.4-10.7-10.5-13.6-17.3l1.7,0l0.5,0c3.4,7.7,9.3,14.2,16.7,18.3
				c8,4.4,17.5,5.7,26.4,3.9c6.6-1.4,12.8-4.6,17.8-9.1c3.6-3.2,6.5-7.1,8.6-11.3c2-4,3.4-8.4,4-13c0.1-0.5,0.1-1,0.1-1.6
				c0.7-8.7-1.6-17.5-6.5-24.7c-0.4-0.6-0.8-1.1-1.2-1.6c-0.1-0.2-0.3-0.4-0.4-0.5c-0.1-0.1-0.1-0.1-0.2-0.2
				c-0.2-0.2-0.3-0.4-0.5-0.6c0-0.1-0.1-0.1-0.1-0.2c-0.1-0.2-0.3-0.3-0.4-0.5c-0.2-0.2-0.3-0.4-0.5-0.6c-0.2-0.2-0.4-0.4-0.6-0.7
				c-0.3-0.3-0.6-0.6-0.9-0.9c-0.2-0.2-0.3-0.3-0.5-0.5c-1-1-2.1-1.9-3.3-2.8c-0.2-0.1-0.4-0.3-0.6-0.4c-0.1-0.1-0.2-0.1-0.3-0.2
				c-0.2-0.2-0.4-0.3-0.7-0.5c-0.2-0.2-0.5-0.3-0.7-0.5c0,0-0.1,0-0.1-0.1v-0.8H539c-3.2-1.9-6.7-3.3-10.3-4.3
				c-8.9-2.2-18.4-1.1-26.6,3c-0.3,0.1-0.6,0.3-0.9,0.5c-0.3,0.2-0.6,0.3-0.9,0.5c-0.2,0.1-0.3,0.2-0.5,0.3c0,0,0,0,0,0
				c0,0,0,0-0.1,0h-3.8c1.8-1.3,3.7-2.4,5.6-3.4c8.2-4.1,17.7-5.1,26.6-3.1c9.2,2,17.4,7.4,23.1,14.8
				C557.1,189.3,560.1,198.5,559.9,207.8z"/>
			<path class="st72" d="M496.1,173.7h3.8c-0.2,0.1-0.5,0.3-0.7,0.4c-0.2,0.1-0.4,0.2-0.6,0.4c-0.2,0.1-0.4,0.2-0.5,0.3
				c-0.2,0.2-0.5,0.3-0.7,0.5c-0.2,0.1-0.3,0.2-0.5,0.3c-0.2,0.1-0.4,0.3-0.6,0.4c-0.4,0.3-0.8,0.6-1.1,0.9
				c-0.3,0.2-0.6,0.5-0.9,0.8c-0.1,0.1-0.1,0.1-0.2,0.2c-0.3,0.3-0.7,0.6-1,0.9c-0.7,0.7-1.4,1.4-2.1,2.1c-0.2,0.2-0.3,0.4-0.5,0.5
				c-0.1,0.1-0.2,0.3-0.3,0.4c-0.4,0.4-0.7,0.9-1.1,1.3c-0.3,0.4-0.7,0.9-1,1.4c-0.2,0.2-0.3,0.5-0.5,0.7c-0.2,0.2-0.3,0.5-0.5,0.7
				c-0.1,0.1-0.1,0.2-0.2,0.3c-0.1,0.2-0.3,0.4-0.4,0.7v0c0,0.1-0.1,0.1-0.1,0.2c-0.3,0.4-0.5,0.9-0.8,1.4c-0.1,0.2-0.2,0.4-0.3,0.6
				c0,0,0,0,0,0.1c-0.1,0.1-0.2,0.3-0.2,0.4c0,0.1-0.1,0.2-0.1,0.3c-0.5,0.9-0.9,1.8-1.3,2.8c-0.6,1.3-1,2.7-1.5,4.2
				c-0.3,1-0.5,1.9-0.7,2.9c-0.8,3.8-1,7.6-0.7,11.2c0.1,1.1,0.2,2.3,0.4,3.4c0,0.1,0,0.1,0,0.2c0.3,1.7,0.7,3.4,1.2,5.1
				c0.1,0.2,0.1,0.4,0.2,0.6c0.3,0.9,0.6,1.8,1,2.7l-1.7,0c-0.4-0.9-0.7-1.8-1-2.6c-0.1-0.2-0.1-0.4-0.2-0.6
				c-0.3-0.8-0.5-1.6-0.7-2.5c-0.2-0.9-0.4-1.7-0.6-2.6c0-0.1,0-0.1,0-0.2c-0.2-1.1-0.3-2.3-0.5-3.4c-0.3-3.7-0.2-7.5,0.5-11.2
				c0.6-3.2,1.6-6.4,2.9-9.4c0.3-0.7,0.6-1.4,1-2.1c0.5-1,1.1-2,1.7-3v0c0,0,0,0,0,0c0.6-1,1.3-2,2-2.9c1.2-1.5,2.4-3,3.8-4.4
				C492.6,176.5,494.3,175,496.1,173.7z"/>
			<path class="st72" d="M540.4,173.7v0.8c0,0,0,0,0,0c-0.2-0.1-0.4-0.3-0.7-0.4c-0.2-0.1-0.5-0.3-0.7-0.4H540.4z"/>
			<path class="st73" d="M485,189.6c0.1-0.2,0.2-0.3,0.3-0.5C485.2,189.3,485.1,189.5,485,189.6z"/>
			<path class="st74" d="M540.4,174.5L540.4,174.5c-0.4-0.3-0.9-0.6-1.4-0.8c0.2,0.1,0.5,0.3,0.7,0.4
				C539.9,174.3,540.1,174.4,540.4,174.5C540.4,174.5,540.4,174.5,540.4,174.5z"/>
			<path class="st72" d="M483.1,220.2c0.3,0.9,0.7,1.8,1.1,2.7l-0.5,0c-0.4-0.9-0.7-1.8-1-2.7c-0.1-0.2-0.1-0.4-0.2-0.6
				c-0.5-1.7-0.9-3.4-1.2-5.1c0-0.1,0-0.1,0-0.2c-0.2-1.1-0.3-2.3-0.4-3.4c-0.3-3.7-0.1-7.5,0.7-11.2c0.2-1,0.4-1.9,0.7-2.9
				c0.4-1.4,0.9-2.8,1.5-4.2c0.4-1,0.8-1.9,1.3-2.8c-0.5,0.9-0.9,1.9-1.3,2.8c0,0.1-0.1,0.2-0.1,0.3c-0.8,2.2-1.5,4.4-1.9,6.7
				c-0.7,3.7-0.9,7.5-0.5,11.2c0.1,1.1,0.3,2.3,0.5,3.4c0,0.1,0,0.1,0,0.2c0.3,1.7,0.8,3.4,1.3,5.1c0,0.1,0.1,0.2,0.1,0.3
				C483,220,483,220.1,483.1,220.2z"/>
		</g>
		<g>
			<g>
				<path class="st75" d="M576.3,227C576.3,226.9,576.3,226.9,576.3,227c0.2-1.3,1.4-1.3,2-2c0.6-0.7,0-2.1,1-2.3
					c0.4-0.1,1.2-0.1,2-0.3c1.1-0.3,2.3-1.2,3.2-2.2c3.5-3.9,7-7.8,10.9-11.3c0.2-0.2,0.4-0.4,0.5-0.7c0.2-0.5-0.1-1-0.3-1.4
					c-1-2.2-1.8-4.4-2.4-6.8c-0.5-2.1-0.8-4.2-0.2-6.3c0.5-2.1,1.9-4,3.9-4.7c1.5-0.5,3.2-0.4,4.4,0.7c3,2.7,1.8,7.3,1.7,10.8
					c-0.1,3.3-0.2,6.2-0.5,9.4c0,0.4-0.1,0.8-0.3,1.1c-0.2,0.4-0.5,0.6-0.9,0.9c-4.3,3-8.5,5.9-12,9.8c-1,1.1-2.2,1.6-3,2.7
					c-0.5,0.7-0.4,1.7-0.8,2.5c-0.4,0.8-0.9,1.7-1.6,2.2c-1.8,1.5-6,1.2-7.3-0.8C576.5,227.8,576.3,227.4,576.3,227z"/>
			</g>
			<g>
				<g>
					<path class="st2" d="M603.6,199.3c0,3.6-0.1,7.2-0.3,10.8c0,0.7-0.1,1.4-0.4,2c-0.2,0.4-0.6,0.7-1,1.1c-3,2.7-6.2,5.1-9.5,7.4
						c-0.1,0.1-0.3,0.2-0.4,0.2c-0.1,0-0.2-0.1-0.3-0.2c-1-0.7-5.6-3-5.6-4.2c0-1.3,2.7-2.4,3.5-3c1.5-1.2,2.9-2.4,4.3-3.7
						c0.5-0.5,1-1,1.1-1.6c0.1-0.6-0.2-1.2-0.4-1.8c-1.5-3.4-2.3-7.1-3.5-10.6c-0.8-2.4-1.9-4.9-2.5-7.4c-1.2-4.9-1.5-12.2-0.7-15.8
						c0.7-3.4,2.3-8.6,6.1-8.5c4,0.1,5.3,2.4,6.6,5.8c0.5,1.4,2.6,11.3,2.6,12.8C603.4,188,603.6,193.6,603.6,199.3z"/>
				</g>
			</g>
		</g>
		<g>
			<g>
				<path class="st75" d="M304.1,216.6l-3.7,1.7l1.4,4.3c0.4,1.3,1.6,2.3,3,2.5l0,0c1.2,0.2,2.4-0.3,3.2-1.2l0,0
					c0.6-0.7,0.5-1.8-0.3-2.3l-1.2-0.9l0.5-0.2c0.1-0.1,0.3-0.1,0.5,0l0.2,0.1c0.3,0.1,0.7,0,0.8-0.4l0,0c0.1-0.3,0-0.6-0.2-0.7
					L304.1,216.6z"/>
			</g>
			<g>
				<g>
					<g>
						<path class="st7" d="M310.6,155.2c1.4,3,1.1,8.1,1.7,11.4c0.6,3.2-3.2,4.6-5.3,7.1c-3.7,4.3-5.8,8.8-8.8,14.9
							c-0.4,0.7-0.5,2.2-0.6,3c-0.1,0.6,0,1.2,0.2,1.8c0.8,2.4,2.2,4.4,3.1,6.7c0.9,2.3,1.4,5,2.1,7.4c0.6,2.1,3.4,8.2,2.2,9.8
							c-0.3,0.3-4.9,2.4-4.9,2.5c-2.8-4.7-5.5-9.4-8.3-14.2c-3.4-5.8-6.9-10.7-7.1-17.6c-0.2-5.8,1.5-11.7,5-16.4
							C293,167.5,304.4,155.2,310.6,155.2z"/>
					</g>
				</g>
			</g>
		</g>
		<g>
			<path class="st75" d="M395.6,180c0.2-0.1,0.4-0.2,0.6-0.2c0.3,0,0.5,0.4,0.6,0.7c0.3,1.1-0.1,2.4-1.1,3.1
				c1.3,0.8,3.4-0.7,4.3,0.5c0.2,0.3,0.3,0.8,0.3,1.2c0,1.7,0.1,3.4,0,5.1c0,0.5,0,1.1-0.4,1.4c-0.4,0.4-0.9,0.4-1.4,0.5
				c-0.7,0.1-1.5,0.1-2.2,0.2c-1.2,0.1-2.6,0.1-3.5-0.7c-0.8-0.7-0.9-1.9-1-2.9c-0.1-1.6-0.2-3.3-0.2-4.9
				C391.5,181.3,393.7,181,395.6,180z"/>
			<path class="st184" d="M390.2,182.5c-0.3,2.1-0.6,4.3-0.9,6.4c-0.2,1.2-0.3,2.4,0,3.5c0.4,1.5,1.7,2.7,3.2,3
				c0.9,0.2,2.2-0.2,2.2-1.1c0-0.4-0.2-0.7-0.4-1c-2.5-4.6-1.3-9.5-1.4-14.4C391,178.8,390.4,180.8,390.2,182.5z"/>
		</g>
	</g>
	<g>
		<g>
			<g>
				<g>
					<g>
						<path class="st72" d="M315.4,145.8c-1,1.2-2.9,0.8-4.3,0c-5.6-3.1-8.6-10.2-7.1-16.4c1.3-5.2,8.1-8.8,9.1-2.3
							c0.4,2.3-1.2,5.5-1,8C312.5,138.8,314.1,142.4,315.4,145.8z"/>
					</g>
				</g>
			</g>
			<g>
				<g>
					<g>
						<path class="st72" d="M326.6,118.2c0.6,0.1,1.2,0.3,1.8,0.4c1.3,0.3,2.2,0.3,3.4-0.6c0.3-0.3,2.4-3,1.7-3.4
							c4.4,2.5,2,7.7,1.1,11.2c-0.6,2.4-0.3,5.5-2.3,7.4c-2.2,2-4.2,0.3-6.5-0.3c-2.1-0.5-4.3-0.5-6.4-0.9c-3.5-0.6-8.7-1.9-8.4-6.4
							c0.4-5.3,5.4-7.5,10.1-7.9C323.2,117.5,324.8,117.8,326.6,118.2z"/>
					</g>
				</g>
			</g>
		</g>
	</g>
</g>
</svg>
