<?xml version="1.0" encoding="utf-8"?>
<!-- Generator: Adobe Illustrator 22.1.0, SVG Export Plug-In . SVG Version: 6.00 Build 0)  -->
<svg version="1.1" xmlns="http://www.w3.org/2000/svg" xmlns:xlink="http://www.w3.org/1999/xlink" x="0px" y="0px"
	 viewBox="0 0 770 311.2" style="enable-background:new 0 0 770 311.2;" xml:space="preserve">
<style type="text/css">
	.st0{display:none;}
	.st1{opacity:0.8;}
	.st2{fill:#E1E6FB;}
	.st3{fill:#F4CDAF;}
	.st4{fill:#D1D1D1;}
	.st5{fill:#373791;}
	.st6{fill:#EFEFEF;}
	.st7{fill:#304269;}
	.st8{fill:#3F3FAA;}
	.st9{fill:#4B45BD;}
	.st10{fill:#DEDAE8;}
	.st11{fill:#BAC5F4;}
	.st12{fill:#3C4043;}
	.st13{fill:#FFFFFF;}
	.st14{fill:#F8F8FF;}
	.st15{fill:url(#SVGID_1_);}
	.st16{fill:url(#SVGID_2_);}
	.st17{fill:url(#SVGID_3_);}
	.st18{fill:url(#SVGID_4_);}
	.st19{fill:#F5F5FC;}
	.st20{fill:#F7F7F7;stroke:#E1E6FB;stroke-width:3;stroke-miterlimit:10;}
	.st21{fill:url(#SVGID_5_);}
	.st22{fill:url(#SVGID_6_);}
	.st23{fill:url(#SVGID_7_);}
	.st24{fill:url(#SVGID_8_);}
	.st25{fill:url(#SVGID_9_);}
	.st26{fill:#F7F7F7;}
	.st27{fill:url(#SVGID_10_);}
	.st28{fill:url(#SVGID_11_);}
	.st29{display:none;fill:#F7F7F7;}
	.st30{fill:url(#SVGID_12_);}
	.st31{fill:url(#SVGID_13_);}
	.st32{fill:url(#SVGID_14_);}
	.st33{fill:url(#SVGID_15_);}
	.st34{fill:url(#SVGID_16_);}
	.st35{fill:url(#SVGID_17_);}
	.st36{fill:#EAC5B0;}
	.st37{opacity:0.2;fill:#BAC5F4;}
	.st38{opacity:0.57;}
	.st39{fill:#E5E5E7;}
	.st40{fill:none;stroke:#D1D1D1;stroke-miterlimit:10;}
	.st41{fill:#47BEC4;}
	.st42{fill:none;stroke:#FFFFFF;stroke-width:2;stroke-miterlimit:10;}
	.st43{fill:#F77A4B;}
	.st44{fill:url(#SVGID_18_);}
	.st45{fill:url(#SVGID_19_);}
	.st46{fill:url(#SVGID_20_);}
	.st47{fill:url(#SVGID_21_);}
	.st48{fill:url(#SVGID_22_);}
	.st49{fill:url(#SVGID_23_);}
	.st50{fill:url(#SVGID_24_);}
	.st51{fill:url(#SVGID_25_);}
	.st52{fill:url(#SVGID_26_);}
	.st53{clip-path:url(#SVGID_28_);fill:#BAC5F4;}
	.st54{opacity:0.4;fill:#F1F2F2;}
	.st55{fill:#ACD9DD;}
	.st56{opacity:0.2;}
	.st57{fill:#FFFDF3;}
	.st58{fill:#232A35;}
	.st59{fill:#3B455A;}
	.st60{opacity:0.1;}
	.st61{fill:#000100;}
	.st62{fill:url(#SVGID_29_);}
	.st63{fill:url(#SVGID_30_);}
	.st64{fill:url(#SVGID_31_);}
	.st65{fill:url(#SVGID_32_);}
	.st66{fill:#BDBDBD;}
	.st67{fill:url(#SVGID_33_);}
	.st68{fill:#5A5A5C;}
	.st69{opacity:0.56;fill:url(#SVGID_34_);}
	.st70{opacity:0.66;fill:#FFFFFF;}
	.st71{fill:#C4DFE1;}
	.st72{fill:#33435A;}
	.st73{fill:#57859B;}
	.st74{fill:#427CCC;}
	.st75{fill:#FFBFA4;}
	.st76{fill:#141C2B;}
	.st77{fill:#BABCBC;}
	.st78{opacity:0.14;}
	.st79{fill:url(#SVGID_35_);}
	.st80{fill:url(#SVGID_36_);}
	.st81{fill:url(#SVGID_37_);}
	.st82{fill:url(#SVGID_38_);}
	.st83{fill:url(#SVGID_39_);}
	.st84{fill:url(#SVGID_40_);}
	.st85{display:inline;fill:url(#SVGID_41_);}
	.st86{display:inline;fill:url(#SVGID_42_);}
	.st87{display:inline;fill:url(#SVGID_43_);}
	.st88{display:inline;fill:url(#SVGID_44_);}
	.st89{display:inline;fill:url(#SVGID_45_);}
	.st90{display:inline;fill:url(#SVGID_46_);}
	.st91{fill:url(#SVGID_47_);}
	.st92{opacity:0.6;}
	.st93{fill:url(#SVGID_48_);}
	.st94{opacity:0.3;}
	.st95{fill:url(#SVGID_49_);}
	.st96{fill:url(#SVGID_50_);}
	.st97{fill:#DE937A;}
	.st98{fill:#28415A;}
	.st99{fill:#59595B;}
	.st100{fill:#39517C;}
	.st101{fill:#34383A;}
	.st102{fill:#F3CFC1;}
	.st103{fill:#FF6600;}
	.st104{fill:#D9E8F5;}
	.st105{fill:#F5CEB0;}
	.st106{fill:#F26101;}
	.st107{fill:#FFFFF2;}
	.st108{display:inline;}
	.st109{fill:#7DB5DB;}
	.st110{fill:#EFBFA5;}
	.st111{fill:#EACDB0;}
	.st112{fill:#4D4D4D;}
	.st113{display:inline;fill:#D8D8D8;stroke:#FFFFFF;stroke-miterlimit:10;}
	.st114{display:inline;fill:#BCBEC0;}
	.st115{display:inline;fill:#305399;}
	.st116{fill:#F0F1F1;}
	.st117{display:inline;opacity:0.1;fill:#000100;}
	.st118{display:inline;fill:#3B455A;}
	.st119{display:inline;fill:#7DB5DB;}
	.st120{fill:#98C7E2;}
	.st121{fill:#FFFDF0;}
	.st122{opacity:6.000000e-02;fill:#FFFFFF;}
	.st123{opacity:0.1;fill:#000100;}
	.st124{fill:url(#SVGID_51_);}
	.st125{fill:url(#SVGID_52_);}
	.st126{fill:url(#SVGID_53_);}
	.st127{fill:url(#SVGID_54_);}
	.st128{fill:url(#SVGID_55_);}
	.st129{fill:url(#SVGID_56_);}
	.st130{fill:url(#SVGID_57_);}
	.st131{fill:url(#SVGID_58_);}
	.st132{fill:#EAC1A4;}
	.st133{fill:#484F5B;}
	.st134{fill:#8CABEF;}
	.st135{fill:url(#SVGID_59_);}
	.st136{fill:url(#SVGID_60_);}
	.st137{fill:url(#SVGID_61_);}
	.st138{fill:url(#SVGID_62_);}
	.st139{fill:url(#SVGID_63_);}
	.st140{fill:url(#SVGID_64_);}
	.st141{fill:url(#SVGID_65_);}
	.st142{fill:url(#SVGID_66_);}
	.st143{fill:url(#SVGID_67_);}
	.st144{fill:url(#SVGID_68_);}
	.st145{fill:url(#SVGID_69_);}
	.st146{fill:url(#SVGID_70_);}
	.st147{fill:url(#SVGID_71_);}
	.st148{fill:url(#SVGID_72_);}
	.st149{fill:#BABCBE;}
	.st150{fill:#242449;}
	.st151{fill:#2F3787;}
	.st152{fill:#3D475B;}
	.st153{fill:#366362;}
	.st154{fill:#89B336;}
	.st155{fill:#96BD34;}
	.st156{opacity:7.000000e-02;}
	.st157{fill:#B5D381;}
	.st158{fill:#3B308A;}
	.st159{opacity:8.000000e-02;}
	.st160{fill:#F3E6DC;}
	.st161{fill:#92C59B;}
	.st162{fill:#88C9DA;}
	.st163{fill:#F9CD5B;}
	.st164{fill:#F6D5D5;}
	.st165{fill:#424DBF;}
	.st166{fill:#7EACF1;}
	.st167{fill:#F17187;}
	.st168{fill:#EAEAEA;}
	.st169{fill:#A0A2A6;}
	.st170{fill:#CE7361;}
	.st171{fill:#C7C8C9;}
	.st172{opacity:9.000000e-02;}
	.st173{opacity:0.15;}
	.st174{fill:#5B6475;}
	.st175{fill:#EDEDED;}
</style>
<g id="Слой_1" class="st0">
</g>
<g id="Слой_9">
	<g id="Слой_3__x28_копия2_x29_" class="st1">
	</g>
	<g id="Слой_10">
		<g id="Слой_11">
		</g>
		<g id="Слой_11__x28_копия_x29_">
			<g id="Слой_11_копия_2">
			</g>
			<g id="Слой_11_копия_3">
			</g>
		</g>
	</g>
</g>
<g id="poezdki">
	<g id="Слой_3__x28_копия_x29_" class="st1">
	</g>
	<g id="Слой_8">
	</g>
</g>
<g id="auto">
	<g id="Слой_3">
		<g id="Слой_4">
		</g>
	</g>
</g>
<g id="nastroiki">
</g>
<g id="otzivi">
</g>
<g id="history">
	<g id="Слой_18">
	</g>
</g>
<g id="driver_x5F_history">
	<g id="Слой_21">
	</g>
	<g id="Слой_18__x28_копия_x29_">
	</g>
</g>
<g id="user_x5F_poezdki">
	<g>
		<linearGradient id="SVGID_1_" gradientUnits="userSpaceOnUse" x1="362.3273" y1="66.5798" x2="362.3273" y2="-11.4231">
			<stop  offset="0" style="stop-color:#FFFFFF"/>
			<stop  offset="1" style="stop-color:#CFCFCF"/>
		</linearGradient>
		<path class="st15" d="M379.6,8.9C375.2,3.9,368.7,1,362,1c-6.7,0.1-13.1,3.1-17.3,8.3c-9.3,11.2-9.1,27.4,0.4,38.3l15.6,17.2
			c0.5,0.6,1.3,0.9,2,0.9c0.8,0,1.5-0.4,2-0.9L380,47.3C389.2,36.1,389.1,19.9,379.6,8.9z M363.1,41.5c-8.2,0.1-14.9-6.5-15-14.7
			c-0.1-8.2,6.5-14.9,14.7-15c8.2-0.1,14.9,6.5,15,14.7C377.9,34.7,371.3,41.4,363.1,41.5z"/>
	</g>
	<g>
		<linearGradient id="SVGID_2_" gradientUnits="userSpaceOnUse" x1="123.6006" y1="133.2464" x2="123.6006" y2="-12.7916">
			<stop  offset="0" style="stop-color:#FFFFFF"/>
			<stop  offset="1" style="stop-color:#CFCFCF"/>
		</linearGradient>
		<path class="st16" d="M157.2,19.1C148.6,9.2,136.1,3.6,123,3.7c-13.1,0.1-25.5,6.1-33.8,16.2C71.1,41.7,71.4,73.4,90,94.7
			l30.5,33.6c1,1.1,2.5,1.7,4,1.7s2.9-0.7,3.9-1.8L158.1,94C176.1,72.2,175.8,40.5,157.2,19.1z M125.2,82.7
			C109.2,82.8,96.1,70,95.9,54c-0.2-16,12.6-29.1,28.6-29.3c16-0.2,29.1,12.6,29.3,28.6C154,69.4,141.2,82.5,125.2,82.7z"/>
	</g>
	<g>
		<linearGradient id="SVGID_3_" gradientUnits="userSpaceOnUse" x1="257.6808" y1="325.9131" x2="257.6808" y2="227.1361">
			<stop  offset="0.4826" style="stop-color:#FFFFFF"/>
			<stop  offset="1" style="stop-color:#CFCFCF"/>
		</linearGradient>
		<path class="st17" d="M272.3,247c-3.7-4.3-9.2-6.8-14.9-6.7c-5.7,0.1-11.1,2.7-14.8,7.1c-7.9,9.5-7.7,23.3,0.4,32.6l13.3,14.6
			c0.4,0.5,1.1,0.8,1.7,0.7s1.3-0.3,1.7-0.8l13-14.9C280.6,270.1,280.4,256.3,272.3,247z M258.4,274.7c-7,0.1-12.7-5.5-12.8-12.5
			c-0.1-7,5.5-12.7,12.5-12.8c7-0.1,12.7,5.5,12.8,12.5C270.9,268.9,265.3,274.6,258.4,274.7z"/>
	</g>
	<g>
		<linearGradient id="SVGID_4_" gradientUnits="userSpaceOnUse" x1="29.4064" y1="259.9131" x2="29.4064" y2="175.7836">
			<stop  offset="0" style="stop-color:#FFFFFF"/>
			<stop  offset="1" style="stop-color:#CFCFCF"/>
		</linearGradient>
		<path class="st18" d="M49.2,192.3c-5.1-5.9-12.4-9.2-20.2-9.1c-7.7,0.1-15,3.6-19.9,9.6c-10.7,12.8-10.4,31.5,0.5,44.1l18,19.8
			c0.6,0.6,1.4,1,2.3,1s1.7-0.4,2.3-1.1l17.5-20.2C60.4,223.5,60.1,204.9,49.2,192.3z M30.3,229.7c-9.4,0.1-17.2-7.4-17.3-16.9
			c-0.1-9.4,7.5-17.2,16.9-17.3c9.4-0.1,17.2,7.5,17.3,16.9C47.3,221.8,39.8,229.6,30.3,229.7z"/>
	</g>
	<g>
		<linearGradient id="SVGID_5_" gradientUnits="userSpaceOnUse" x1="750.7194" y1="65.9131" x2="750.7194" y2="-4.1155">
			<stop  offset="0" style="stop-color:#FFFFFF"/>
			<stop  offset="1" style="stop-color:#CFCFCF"/>
		</linearGradient>
		<path class="st21" d="M762.9,20.8c-3.1-3.6-7.7-5.7-12.4-5.6c-4.8,0.1-9.3,2.2-12.3,5.9c-6.6,7.9-6.4,19.4,0.3,27.2l11.1,12.2
			c0.4,0.4,0.9,0.6,1.4,0.6s1.1-0.2,1.4-0.7L763.2,48C769.8,40.1,769.7,28.6,762.9,20.8z M751.3,43.9c-5.8,0.1-10.6-4.6-10.6-10.4
			c-0.1-5.8,4.6-10.6,10.4-10.6c5.8-0.1,10.6,4.6,10.6,10.4C761.8,39.1,757.1,43.9,751.3,43.9z"/>
	</g>
	<g>
		<linearGradient id="SVGID_6_" gradientUnits="userSpaceOnUse" x1="698.0496" y1="257.9131" x2="698.0496" y2="154.2706">
			<stop  offset="0" style="stop-color:#FFFFFF"/>
			<stop  offset="1" style="stop-color:#CFCFCF"/>
		</linearGradient>
		<path class="st22" d="M723.1,174.9c-6.4-7.4-15.7-11.6-25.5-11.5c-9.8,0.1-19,4.5-25.2,12.1c-13.5,16.2-13.2,39.8,0.6,55.7
			l22.7,25c0.7,0.8,1.8,1.3,2.9,1.3c1.1,0,2.2-0.5,2.9-1.3l22.1-25.5C737.2,214.4,736.9,190.9,723.1,174.9z M699.2,222.2
			c-11.9,0.1-21.7-9.4-21.8-21.3c-0.1-11.9,9.4-21.7,21.3-21.8c11.9-0.1,21.7,9.4,21.8,21.3C720.7,212.3,711.1,222.1,699.2,222.2z"
			/>
	</g>
	<g>
		<g>
			<g>
				<g>
					<g>
						<path class="st75" d="M609.1,119.6l0.6-3.8c0.1-0.6,0.7-1.1,1.3-1l0,0c0.6,0.1,1,0.5,1,1.1l0.2,2.6c0,0,1-1,1.3-0.8
							c1,0.7-1.4,4.6-1.4,4.6l-2.3,0L609.1,119.6z"/>
					</g>
				</g>
				<g>
					<g>
						<path class="st100" d="M634,160.6c0.2-0.9,0.2-2.1-0.4-3.5c-0.3-0.9-0.9-1.7-1.5-2.5c-2.3-2.7-5.7-4.5-8.3-6.9
							c-1.5-1.3-3-2.6-4.6-3.9c-1.8-1.5-3.1-3.6-3.5-6l-2.7-15.4c-0.1-0.8-0.9-1.4-1.7-1.4l-1.5,0.1c-0.9,0.1-1.5,0.8-1.6,1.6
							l-0.3,18.9c-0.1,3.1,1.4,6.1,3.8,8c2.4,1.9,4.7,3.7,6.9,5.7c3.1,2.8,5.9,6.4,10.1,7.6C631.3,163.7,633.5,162.7,634,160.6z"/>
					</g>
				</g>
			</g>
			<g>
				<g>
					<g>
						<g>
							<polygon class="st149" points="646.8,211.2 648.6,223.1 645.1,290.3 639.3,289.1 629.6,212.7 							"/>
						</g>
					</g>
					<g>
						<g>
							<path class="st149" d="M618.2,209l-1.1,42.6c0,1.3,0.1,2.5,0.5,3.7l10.8,36.6l6.6-2.5l-5.3-32.7c-0.2-1.1-0.2-2.2-0.1-3.2
								l4.9-45L618.2,209z"/>
						</g>
					</g>
					<g>
						<g>
							<path class="st150" d="M632.8,286.9l-3.8,1.7c-1,0.5-1.5,1.7-1,2.7l1.8,3.7l-4.1,2.6c0,0-0.4,2.3,1,3.3
								c1.1,0.7,6.7-3.6,9.2-5.6c0.7-0.6,1.1-1.6,0.9-2.5l-1.1-4.5C635.3,287,633.9,286.4,632.8,286.9z"/>
						</g>
					</g>
					<g>
						<g>
							<path class="st150" d="M644.2,287.6l-3.7,0.6c-1.2,0.2-2,1.4-1.8,2.6l0.7,3.8l-4.7,1.4c0,0-1,2.1,0.1,3.4
								c0.8,1,7.5-1.8,10.4-3.1c0.8-0.4,1.4-1.2,1.4-2.1l0.1-4.5C646.8,288.5,645.6,287.4,644.2,287.6z"/>
						</g>
					</g>
				</g>
				<g>
					<g>
						<path class="st150" d="M630.2,136.3c0.6,2,1.5,3.9,2.6,5.6c0-3.6,0.6-7.3,1.6-10.8c0.1-0.3,0.2-0.6,0-0.8
							c-0.1-0.2-0.4-0.3-0.7-0.4C629.2,128.9,629.1,132.9,630.2,136.3z"/>
					</g>
				</g>
				<g>
					<g>
						<g>
							<path class="st75" d="M632.7,142c0.5,1.5,1.2,3.2,2.8,4.1c1.8,1.1,3.8,0.5,5.1-0.3c4.5-2.7,12.3-17.8,0.6-21.5
								C630.5,121,630.7,135.8,632.7,142z"/>
						</g>
					</g>
					<g>
						<g>
							<path class="st150" d="M641.9,142.1c0.7,1,2.3,0.8,3.4,0.3c4.7-2.2,7.5-7.7,6.6-12.8c-0.8-4.2-6-7.5-7.2-2.3
								c-0.4,1.8,0.6,4.4,0.3,6.5C644.7,136.7,643.2,139.5,641.9,142.1z"/>
						</g>
					</g>
					<g>
						<g>
							<path class="st150" d="M630.5,119c-5.3,3-7.7,9.5-12.6,13.1c4.4,2,9.6,2.1,14.1,0.3c4.4-1.8,14.8-2.8,13.5-8.9
								C644,117.3,635.2,116.4,630.5,119z"/>
						</g>
					</g>
				</g>
				<g>
					<g>
						<path class="st7" d="M651.2,157.4c3.1,5.3,3,11.3,2.6,17.1c-1,13,0.3,28.2-4.2,40.6c-8.5,0-24.8-3.9-33.2-4.8
							c-1.6-11.3-0.7-18,0.2-30.8c0.5-6.3,1.4-14.8,3.7-20.9c1.8-4.9,6.7-11.3,14.1-11.1C641.4,147.8,648.4,152.6,651.2,157.4z"/>
					</g>
				</g>
				<g>
					<path class="st75" d="M637.4,150.2c-0.8,0.3-1.7,0.2-2.6-0.7c-0.8-0.8-0.5-1-0.4-2.1c0.2-1.7,0.7-3.3,1-5l4.6,1
						c0,0-0.9,4.4-1,4.8C638.8,149.1,638.2,149.9,637.4,150.2z"/>
				</g>
			</g>
			<g>
				<g>
					<g>
						<polygon class="st75" points="660,206.6 655,209.4 653.7,207.2 656.8,204.6 655.7,203.8 660.4,202 661.9,204 						"/>
					</g>
				</g>
				<g>
					<g>
						<path class="st100" d="M648.4,155.6c-0.6,1-0.8,2.3-0.7,4c0.1,1.1,0.4,2.1,0.9,3.1c1.6,3.4,4.4,6.3,6.5,9.4
							c2.2,3.4,4.5,6.7,6.7,10.1l-3.7,19.1l2,1.7c1.4,1.2,3.5,0.5,4-1.2l5.5-17.7c1.3-4.1,0.5-8.5-2-12c-1.4-1.9-2.7-3.8-4.2-6.2
							c-2.6-4-4.6-8.9-8.8-11.5C652.3,153,649.6,153.4,648.4,155.6z"/>
					</g>
				</g>
			</g>
		</g>
		<g>
			<g id="XMLID_258_">
				<g id="XMLID_260_">
					<g>
						<path class="st151" d="M487.2,296.1c0.2,1.3-0.5,2.6-1.8,3l-3.8,1.2c-1,0.3-2.1-0.1-2.7-1l0,0c-0.7-1-0.4-2.4,0.6-3.2l2-0.8
							l5.4-0.2L487.2,296.1z"/>
					</g>
				</g>
				<g id="XMLID_259_">
					<g>
						<polygon class="st150" points="499.6,224.4 487.1,295.2 481.4,295.4 478.1,246.2 476.5,221.7 						"/>
					</g>
				</g>
			</g>
			<g id="XMLID_255_">
				<g id="XMLID_257_">
					<g>
						<polygon class="st150" points="516.6,223.7 509,292.4 503.4,292.9 498,240.3 493.6,224.7 						"/>
					</g>
				</g>
				<g id="XMLID_256_">
					<g>
						<path class="st151" d="M503.4,292.9l-0.1,0.2c-0.4,1.3,0.3,2.7,1.6,3.3l2.9,1.2c1,0.4,2.2,0.1,2.8-0.7l0,0
							c0.8-1,0.7-2.4-0.3-3.3l-1.4-1.2L503.4,292.9z"/>
					</g>
				</g>
			</g>
			<g>
				<g>
					<polygon class="st152" points="477.8,225.7 475.3,217.5 477.8,208.2 516.6,209.6 516.6,223.7 					"/>
				</g>
			</g>
		</g>
		<g>
			<g>
				<g>
					<path class="st75" d="M442.4,154.3l-0.1,0.6c-0.2,1-1.1,1.6-2.1,1.5l-2.9-0.3c-0.7-0.1-1.4-0.6-1.7-1.3l-0.5-1.3
						c-0.2-0.6-0.1-1.4,0.3-1.9l0,0c0.7-0.9,2-1,2.9-0.3l0.6,0.5l0.1-0.7l-0.5-0.8l0.8-0.5l2.6,2.5
						C442.3,152.9,442.5,153.6,442.4,154.3z"/>
				</g>
			</g>
			<g>
				<g>
					<g>
						<polygon class="st153" points="485.8,144.2 463.7,154.7 441.9,151.6 440.5,156.8 465.7,164.9 498.3,154.1 						"/>
					</g>
				</g>
			</g>
		</g>
		<g>
			<g>
				<g>
					<g>
						<path class="st75" d="M498.5,123.6c-3.9,2.4-9.5,1-13.1,4c-2.3,1.9-3.2,5.4-2.6,8.4c0.3,1.4,0.8,2.8,1.8,3.9
							c0.6,0.7,1.4,1.2,2.3,1.5c1.1,0.5,2.3,0.8,3.5,0.8c-0.1,1.1-0.3,2.2-0.5,3.3c2.3-0.3,4.5-0.5,6.8-0.8c-0.1-1.3-0.3-2.6-0.4-4
							c0.5-0.3,1.1-0.7,1.5-1.1c2.9-2.6,4.1-7.1,3.1-11C500.4,126.9,499.4,125.3,498.5,123.6z"/>
					</g>
				</g>
			</g>
			<g>
				<g>
					<path class="st150" d="M488.2,126.9c0.2-0.1,0.3-0.1,0.5-0.2c2.4-0.8,4.9-1,7.4-0.7c1.7,0.2,3.6,0.8,4.2,2.6
						c0.3,0.8,0.3,1.7,0.2,2.5c0,1.1,0,2.1,0,3.2c0,0.2,0,0.4,0.1,0.6c0.3,0.5,1.1,0.3,1.5-0.2c1.3-1.7,2.9-4.4,3.3-6.4
						c0.3-1.7-0.3-3.7,0.4-5.2c0.3-0.7,1-1.3,1.5-1.9c1.1-1.3,1.5-3.3,0.9-4.9c-0.3-1.1-1-2-2.1-2.5c-1.7-0.8-3.7-0.1-5.5-0.5
						c-0.9-0.2-1.8-0.7-2.7-0.8c-1.9-0.3-3.8,0.8-5.3,2.1c-1.5,1.3-2.8,2.9-4.6,3.6c-1.5,0.6-3.1,0.7-4.6,1.2
						c-2.5,0.9-4.5,3-5.4,5.5c-1,2.8-0.7,6.3,1.3,8.5c1,1.1,1.9,2.3,2.8,3.6c0.3,0.4,2,2,1.9,0.4c-0.1-1.3-0.6-2.5-0.7-3.8
						C483.1,130.3,485.4,127.9,488.2,126.9z"/>
				</g>
			</g>
		</g>
		<g>
			<g>
				<path class="st149" d="M504.9,145.7l-18.8-1.6c0,0-6.2,8.1-13,31.3c-6.8,23.2-1.8,43.7-1.8,43.7s21.2-3.8,51.1-0.4l-8.7-57.5
					L504.9,145.7z"/>
			</g>
		</g>
		<g>
			<g>
				<g id="XMLID_252_">
					<g id="XMLID_254_">
						<g>
							<polygon class="st75" points="427,122.3 429.1,120 429.1,117.2 429.6,116.9 430,117.6 430.6,115.2 432.2,114.1 434.6,114.9 
								436.1,117.1 435,119.5 432.5,121.3 429.7,124.5 							"/>
						</g>
					</g>
					<g id="XMLID_253_">
						<g>
							<path class="st100" d="M426.2,120.3l-16.8,18.9c-2.6,2.9-6.2,4.7-10.1,4.8l-6.3,0.3l2.4,19.6l16.3-7.3l1.7-1.2
								c1.8-1.3,3.3-2.9,4.4-4.9l14.8-26.6L426.2,120.3z"/>
						</g>
					</g>
				</g>
				<g>
					<g id="XMLID_251_">
						<g>
							<path class="st150" d="M392.9,293.4v1.1c0,1,0.5,1.9,1.4,2.3l3.8,1.9c1,0.5,2.1,0.3,2.9-0.5v0c1.1-1.1,0.9-2.9-0.4-3.8
								l-1.4-1H392.9z"/>
						</g>
					</g>
					<g id="XMLID_250_">
						<g>
							<path class="st150" d="M374.4,298.2L374.4,298.2c0.8,0.8,1.9,0.9,2.9,0.5l3.8-1.9c0.9-0.4,1.4-1.3,1.4-2.3v-1.1h-6.3l-1.4,1
								C373.4,295.3,373.3,297.1,374.4,298.2z"/>
						</g>
					</g>
					<g>
						<g id="XMLID_249_">
							<g>
								<path class="st7" d="M383.8,143.8h-0.8l-4.2,8.6c0,0-0.9,22.5-1,29.4c-0.1,2.3-0.8,6.5-1.7,11c-1.7,8.8-4.2,18.9-4.2,18.9
									s0.3,0.5,3.1,0.4c-1.6,0.4-3.2,1-4.7,1.7c-0.7,0.4-1.4,0.8-2.1,1.2c-1.9,1.2-3.6,2.6-5.7,3.7c-0.3,0.1-0.6,0.3-0.9,0.2
									c-1.7-0.2-1.8-5.6-1.6-9.6c0.1-1.9,0.2-3.5,0.2-4.1c0.1-5.2,0.6-10.4,1.4-15.7c0.6-4.7,1.4-9.5,2.3-14.3
									c1.4-7.5,2.6-14.1,5.4-21.2c1-2.5,2-5.1,3.7-7.2c2.3-2.8,6.9-4.9,10.6-4.8c0.1,0.1,0.3,1.8,0.1,1.8
									C383.7,143.8,383.8,143.8,383.8,143.8z"/>
							</g>
						</g>
						<g id="XMLID_248_">
							<g>
								<path class="st7" d="M412,215.2c-1.3-0.9-2.6-2.1-4.1-2.5c-0.3-0.1-0.6-0.2-0.8-0.2c-3.8-1.1-8-2.9-12-2.8
									c-0.4,0-0.9,0-1.3,0c5.8-0.4,9.7-0.5,9.7-0.5s-0.9-8.3-1.6-16c-0.5-4.9-0.9-9.5-1-11.6c-0.3-5.5-9.4-37.7-9.4-37.7l-3.2,0
									c0.3-0.3,0.4-0.9,0.5-1.3c0-0.1,0-0.2,0.1-0.3c0.9,0.2,1.9,0.4,2.7,0.7c4.9,1.7,7.7,5.2,9.3,10.1c1.3,3.9,2.7,7.9,4,11.8
									c1.1,3.2,2.2,6.5,3.1,9.8c2.5,8.6,3.9,17.5,5,26.4c0.5,4.5,1,8.9,1.4,13.4C414.8,217.1,413.9,216.5,412,215.2z"/>
							</g>
						</g>
						<g>
							<g>
								<path class="st151" d="M407.1,212.5c-3.8-1.1-8-2.8-12-2.8c-0.4,0-0.9,0-1.3,0c-0.4,0-0.7,0.1-1.1,0.1
									c-2.7,0.2-5.7,0.5-8.8,0.9c-0.2,0-0.3,0-0.5,0.1c-4,0.9-6.6,1.2-8.3,1.3c-1.6,0.4-3.2,1-4.7,1.7c-0.7,0.4-1.4,0.8-2.1,1.2
									l0,4.4l7.9,74.2h6.3l6.7-49l0-0.3l3.7,49.2h6.3l8.2-55.7L407.1,212.5z"/>
							</g>
						</g>
						<g>
							<g>
								<path class="st13" d="M401.9,193.2c-0.5-4.9-0.9-9.5-1-11.6c-0.3-5.5-9.4-37.7-9.4-37.7l-3.2,0c0,0-0.1,0.1-0.1,0.1
									c-0.1,0.1-0.2,0.2-0.3,0.2c-0.3,0.1-0.5,0.1-0.8,0c-1.1-0.1-2.1-0.3-3.2-0.4l-0.8,0l-4.2,8.6c0,0-0.9,22.5-1.1,29.4
									c-0.1,2.3-0.8,6.5-1.7,11c-1.7,8.8-4.2,18.9-4.2,18.9s0.3,0.5,3.1,0.4c1.7-0.1,4.3-0.4,8.3-1.3c0.2,0,0.3,0,0.5-0.1
									c3.1-0.4,6.2-0.7,8.8-0.9c0.4,0,0.7-0.1,1.1-0.1c5.8-0.4,9.7-0.5,9.7-0.5S402.7,200.8,401.9,193.2z"/>
							</g>
						</g>
					</g>
				</g>
				<g id="XMLID_243_">
					<g id="XMLID_245_">
						<g>
							<polygon class="st75" points="408.2,177.9 411.3,178.1 413.4,176.3 414,176.6 413.7,177.3 415.9,176.3 417.8,176.8 
								418.7,179.2 418,181.8 415.5,182.4 412.6,181.6 408.3,181.5 							"/>
						</g>
					</g>
					<g id="XMLID_244_">
						<g>
							<path class="st100" d="M407.6,176.3l-9.7-1.2c-3.1-0.4-5.9-2.1-7.6-4.6l-11.8-18.3c-1.3-2-4.4-1.7-5.2,0.6l-0.1,0.2
								c-1.4,3.7-1.2,7.7,0.4,11.2l7.2,15.9c0.7,1.6,1.9,2.9,3.2,3.9v0c2.3,1.8,5.3,2.5,8.2,2l15.5-2.5c2.1-0.4,3.5-2.5,2.9-4.6v0
								C410.3,177.5,409.1,176.5,407.6,176.3z"/>
						</g>
					</g>
				</g>
				<g>
					<g>
						<g>
							<path class="st150" d="M394.1,123.3c0.8,1.6,1.1,3.5,1.1,5.3c0,0.5,0,1,0.4,1.3c0.4,0.3,0,1,0.3,0.6c0.3-0.4,1.5-1.8,1.5-2.3
								c0.2-1.2,0.2-2.4,0.2-3.6c0-1.1-0.2-2.2-0.8-3c-0.4-0.5-0.9-0.9-1.4-1.2c-0.7-0.5-1.5-1-2.4-1.2c-1.5-0.4-2.5,0.1-1.2,1.3
								C392.8,121.2,393.6,122.1,394.1,123.3z"/>
						</g>
					</g>
					<g>
						<g>
							<g>
								<path class="st75" d="M383.7,143.4c2.1,0.3,4.1,0.6,6.2,0.9c0.4-1.8,0.7-3.7,0.8-5.5c1.8-0.2,4-0.7,4.7-2.6
									c0.2-0.6,0.3-1.3,0.3-1.9c0.2-2.7,0.3-5.3,0.5-8c0.1-0.9,0.1-1.9-0.2-2.7c-0.5-1.5-1.8-2.5-3.1-3.1
									c-3.4-1.6-7.4-1.8-10.8,0.1c-0.9,0.5-1.7,1.2-2.3,2.1c-0.8,1.4-0.8,3.2-0.8,4.9c0,1.6,0.1,3.1,0.1,4.7
									c0,1.8,0.2,3.9,1.5,4.9c0.7,0.5,1.6,0.7,2.2,1.4C384,139.7,383.4,141.7,383.7,143.4z"/>
							</g>
						</g>
					</g>
					<g>
						<g>
							<path class="st150" d="M397.5,118.8c0.2-0.6,0.4-1.3,0.5-2c-0.6,0.2-1.3,0.2-1.9,0.1c0-0.4,0-0.8,0.1-1.2
								c0-0.3-4.2-0.8-4.6-0.8c-3.2-0.4-6.2-0.9-9.2,0.8c-2.6,1.4-4.3,3.5-4.8,6.5c-0.5,2.8,0.2,6.5,1.7,8.9c0-0.7-0.3-2.5-0.1-3.2
								c0.1-0.7,0.4-1.4,0.8-2c0.7-1.2,1.8-2.2,3-2.9c2-1.1,4.2-1.6,6.4-1.8c2-0.2,4.5-0.3,6.5,0.3c0.9,0.3,1.1,0.6,1.7-0.4
								c0.1-0.2,1-2.1,0.9-2.2C398.2,118.8,397.9,118.8,397.5,118.8z"/>
						</g>
					</g>
				</g>
			</g>
		</g>
		<g>
			<g>
				<g>
					
						<ellipse transform="matrix(8.248050e-02 -0.9966 0.9966 8.248050e-02 229.7918 661.4921)" class="st11" cx="474.1" cy="205.9" rx="62.6" ry="62.6"/>
				</g>
			</g>
			<g>
				<path class="st154" d="M489.1,145.1c1.1,0.3,2.2,0.6,3.3,0.9L489.1,145.1z"/>
			</g>
			<g>
				<g>
					<path class="st155" d="M490.9,150.5c0.3,0.1,0.5,0.2,0.8,0.3c0.1-0.1,0.2-0.1,0.2-0.2C491.6,150.5,491.2,150.5,490.9,150.5z"/>
				</g>
				<g>
					<path class="st155" d="M487.8,153.5c1.9,0,4.8,3.2,6.3,2.2c2-1.4,1.5-2.6,2.1-3.4c-1.5-0.6-3-1.2-4.5-1.7
						C490.4,151.7,489.1,152.6,487.8,153.5z"/>
				</g>
				<g>
					<path class="st155" d="M490.9,150.5c-0.6-0.2-1.2-0.4-1.8-0.5C489.6,150.2,490.2,150.4,490.9,150.5z"/>
				</g>
				<g class="st156">
					<path class="st13" d="M524.3,177.1c-2.9-4.9-6.4-9.4-10.5-13.3c-0.1-0.1-0.1-0.1-0.2-0.2c-0.4-0.4-0.8-0.8-1.3-1.2
						c-0.1-0.1-0.1-0.1-0.2-0.2c-0.4-0.4-0.9-0.7-1.3-1.1c-0.1,0-0.1-0.1-0.2-0.1c-0.5-0.4-0.9-0.7-1.4-1.1c0,0-0.1-0.1-0.1-0.1
						c-0.5-0.4-1-0.7-1.5-1.1c0,0,0,0,0,0c-0.5-0.4-1-0.7-1.6-1.1c0,0,0,0,0,0c-1.1-0.7-2.2-1.4-3.3-2.1l0,0v0
						c-6.1-3.5-13-5.9-20.2-7l0,0l0,0c-0.4-0.1-0.8-0.1-1.3-0.2c-0.2,0-0.5-0.1-0.7-0.1c-0.3,0-0.6-0.1-0.8-0.1l0,0v0
						c-1.2-0.1-2.3-0.2-3.5-0.2v0l0,0c-0.3,0-0.5,0-0.8,0c-0.5,0-1.1,0-1.6,0c-0.5,0-0.9,0-1.4,0c-0.2,0-0.3,0-0.5,0
						c-0.3,0-0.6,0-0.8,0c-0.2,0-0.4,0-0.7,0c-0.2,0-0.4,0-0.6,0c-0.3,0-0.5,0-0.8,0.1c-0.1,0-0.2,0-0.4,0c-1.5,0.1-3,0.3-4.5,0.6
						l0,0l0,0c-0.4,0.1-0.8,0.1-1.2,0.2l0,0l0,0c-0.5,0.1-1,0.2-1.5,0.3c0,0,0,0-0.1,0c-0.5,0.1-1,0.2-1.4,0.3c0,0-0.1,0-0.1,0
						c-0.5,0.1-0.9,0.2-1.4,0.4c0,0-0.1,0-0.1,0c-0.5,0.1-0.9,0.3-1.4,0.4c0,0,0,0-0.1,0c-0.5,0.1-1,0.3-1.4,0.5l0,0
						c-5.3,1.7-10.3,4.2-14.8,7.4l0,0l0,0c-15.2,10.5-25.2,28-25.2,47.9c0,13.3,4.5,25.6,12.1,35.5c-4.9-8.5-7.7-18.4-7.7-29
						c0-17.6,7.8-33.3,20.1-44c0.1-0.1,0.2-0.2,0.3-0.2c0.2-0.2,0.5-0.4,0.7-0.6c0.1-0.1,0.3-0.2,0.4-0.3c0.2-0.2,0.4-0.3,0.6-0.5
						c0.2-0.1,0.3-0.2,0.5-0.4c0.2-0.2,0.4-0.3,0.6-0.5c0.2-0.1,0.3-0.2,0.5-0.4c0.2-0.1,0.4-0.3,0.6-0.4c0.2-0.1,0.3-0.2,0.5-0.4
						c0.2-0.1,0.4-0.3,0.6-0.4c0.2-0.1,0.3-0.2,0.5-0.3c0.2-0.1,0.4-0.3,0.6-0.4c0.2-0.1,0.3-0.2,0.5-0.3c0.2-0.1,0.4-0.3,0.6-0.4
						c0.2-0.1,0.3-0.2,0.5-0.3c0.2-0.1,0.4-0.3,0.7-0.4c0.2-0.1,0.3-0.2,0.5-0.3c0.3-0.1,0.5-0.3,0.8-0.4c0.1-0.1,0.3-0.1,0.4-0.2
						c0.4-0.2,0.8-0.4,1.2-0.6c0.1-0.1,0.2-0.1,0.4-0.2c0.3-0.1,0.6-0.3,0.8-0.4c0.2-0.1,0.3-0.2,0.5-0.2c0.2-0.1,0.5-0.2,0.7-0.3
						c0.2-0.1,0.4-0.2,0.5-0.2c0.2-0.1,0.5-0.2,0.7-0.3c0.2-0.1,0.4-0.2,0.6-0.2c0.2-0.1,0.5-0.2,0.7-0.3c0.2-0.1,0.4-0.1,0.6-0.2
						c0.2-0.1,0.5-0.2,0.7-0.3c0.2-0.1,0.4-0.1,0.6-0.2c0.2-0.1,0.5-0.2,0.7-0.3c0.2-0.1,0.4-0.1,0.6-0.2c0.3-0.1,0.5-0.2,0.8-0.2
						c0.2-0.1,0.4-0.1,0.5-0.2c0.3-0.1,0.5-0.2,0.8-0.2c0.2,0,0.3-0.1,0.5-0.1c0.4-0.1,0.7-0.2,1.1-0.3c0.1,0,0.2,0,0.3-0.1
						c0.4-0.1,0.9-0.2,1.3-0.3c0.1,0,0.3-0.1,0.4-0.1c0.3-0.1,0.6-0.1,0.9-0.2c0.2,0,0.3-0.1,0.5-0.1c0.3-0.1,0.6-0.1,0.8-0.2
						c0.2,0,0.4-0.1,0.6-0.1c0.3,0,0.5-0.1,0.8-0.1c0.2,0,0.4-0.1,0.6-0.1c0.3,0,0.5-0.1,0.8-0.1c0.2,0,0.4-0.1,0.6-0.1
						c0.3,0,0.5-0.1,0.8-0.1c0.2,0,0.4,0,0.6-0.1c0.3,0,0.5-0.1,0.8-0.1c0.2,0,0.4,0,0.6,0c0.3,0,0.6,0,0.9-0.1c0.2,0,0.4,0,0.6,0
						c0.3,0,0.6,0,1,0c0.2,0,0.3,0,0.5,0c0.5,0,1,0,1.4,0c0.1,0,0.2,0,0.4,0l0,0c8.7,0.1,16.9,2,24.2,5.4c0.1,0,0.1,0.1,0.2,0.1
						c0.4,0.2,0.7,0.4,1.1,0.5c0.2,0.1,0.3,0.2,0.5,0.2c0.3,0.1,0.6,0.3,0.9,0.5c0.2,0.1,0.3,0.2,0.5,0.3c0.3,0.2,0.7,0.4,1,0.6
						c0.1,0.1,0.3,0.1,0.4,0.2c0.4,0.2,0.7,0.4,1.1,0.6c0.2,0.1,0.3,0.2,0.5,0.3c0.3,0.2,0.5,0.3,0.8,0.5c0.2,0.1,0.3,0.2,0.5,0.3
						c0.3,0.2,0.5,0.4,0.8,0.5c0.1,0.1,0.3,0.2,0.4,0.3l0,0C516.3,168.2,520.6,172.4,524.3,177.1z"/>
				</g>
			</g>
			<g>
				<g>
					<path class="st157" d="M473.6,149.1C473.6,149.1,473.6,149.1,473.6,149.1C473.6,149.1,473.6,149.1,473.6,149.1z"/>
				</g>
				<g>
					<g>
						<path class="st9" d="M496.2,147.3c-1.7-0.2-3.4-0.2-5.3,0.1c0.8-0.5,1.3-1,1.6-1.4c-1.1-0.3-2.2-0.6-3.3-0.9
							c-0.1,0-0.2,0.1-0.2,0.1c-1.5,0.5-1.7,0.6-1.5,1.5c-0.6-0.2-1.2-0.5-1.7-0.8h-7.3c4.6,5.1-4.3,4.7-7.6,4.8
							c-0.6,0-0.7-1.2-0.4-1.5c0.2-0.1,3.8,0,3.1,0c3,0,2.6-0.2,2.6-3.3c-2.9,2.2-2.8,0-6.2,0c-3.1,0-4.7,0.2-7.4,1.4
							c0.9,0.8,1.8,1.5,2.7,2.3c-1.1-0.3-4.8-1.7-5.8-1.3c-0.5,0.2-0.6,1.4-1.2,1.4c-2.3,0-8.7,1.3-8.7-1.4c0,0,0,0-0.1,0
							c-5.8,2.5-11.1,5.8-15.8,9.8c3-0.5,6.2-0.3,6.8-0.3c0.3,0,2.2,5,2.2,5.3c0.1,2.2-1.4,3-2.5,5.1c-2,3.7-2.9,8.6-2.6,12.8
							c0,0.2,2.5,2.4,2.5,3.3c0,3.7,0.4,3.8,3,6.5v-4.6c1.5,4,3.4,5.5,4.8,9.5c1.6,4.4,7.7,1,9.8,4c0.9,1.3,2.7,0.7,3.5,2l2.2,3.4
							c1.3,2.1,3,1.3,5.4,1.3c2.3,0-2.1,8-2.1,8.7c0,2.8,3.8,9.1,3.8,10.2c-0.1,3.3,4,3.8,6.3,5.8c1.8,1.6,0.5,6.3,0.5,8.3
							c0,1.7,0.3,3.3,0.9,4.8l0,0l0,0c0.5,1.4,1.1,2.7,1.7,4.1c0.1,0.2,0.2,0.5,0.3,0.7c0,0.1,0.1,0.2,0.1,0.3
							c0.1,0.2,0.1,0.4,0.2,0.6c0,0.1,0.1,0.2,0.1,0.3c0.1,0.2,0.1,0.4,0.2,0.6c0,0.1,0.1,0.2,0.1,0.3c0.1,0.3,0.2,0.6,0.2,1
							c0.3,1.7-0.4,3.5,0,5.1c0.4,1.7,1.8,2.7,1.8,4.5c0,2.8,7.9,3.4,9.5,3.4c0,0-5.8-3-5.8-2.7c0-2.7,1.4-2.5,1.4-4.1
							c0-1.9-1.8-3.6-0.7-6.3c1.2-3,1.1-2.9,4.3-2.9c-0.1-1.4-0.3-2.7-0.6-4c2.9-4.5,9.6-8.8,11.4-10c2.4-1.6,1.1-6.1,2.1-8.5
							c0.9-2.1,3.7-4,3.8-6.6c0-0.1,0-0.3,0-0.4c0,0,0-0.1,0-0.1c0-0.1,0-0.2,0-0.3c0,0,0,0,0-0.1c0-0.1-0.1-0.2-0.1-0.3
							c0,0,0,0,0,0c0-0.1-0.1-0.2-0.1-0.3v0l0,0c-0.6-0.8-1.7-1.1-2.7-1c-1.4,0-1.6-2.3-2.6-2.3c-3,0-6.1-0.5-8.7-2.4
							c-0.4-0.3-0.9-4.1-1.6-5.1c-1.1-1.4-4.4,1-5.7-0.8c-0.5-0.7-1.7-3.4-2.5-3.4c-1.1,0-7.1-1.2-8.3,0c0.2-0.2-2-0.9-2.4-0.9
							c0.1,0-7.7,4.1-7.7,1.9c0-2.7,1.3-6.3-1.9-6.3c-5.2,0-0.8-1.4-0.8-3.7c0-3.1-5,0.8-7.7,0.8c0.1,0-3-5-1.5-5
							c1.1,0,1.2-2.1,2-3.1c2.1-2.4,5.6-2.7,8-2.2c1,0.2,4.6,4.4,4.6,5.3c0-0.2,1.5-1.2,1.7-1.5c0.7-1.1,0.3-1.6,0.5-2.7
							c0.6-3.7,0.8-4.4,3.7-6.7c2.2-1.6,5.2-3.5,6.9-5.7c1.3-1.6,2.5-2.5,4.4-3.4c-0.2,0.1,1.8,1.2,2.2,1.2c1.7,0,2.1-1.4,3-2.7h-3
							c3.3-2.5-2.7-3.9,4-3.9c3.3,0,3.6,0,5.6-2.3c-3.2,0-2.4,0-2.4-3.3c0-0.5-0.9-2.5-1.8-1.7c-2.4,2.3-2.3-0.4-3.3-2
							c-1.3-2-2.8,0.1-3.3,1.3c-0.7,1.5-6.4,3.8-6.3,5.8c0,1.1-1.9,1.1-1.8-0.2c0.1-1.9-6.6-3.7-6.7-4.5c-0.1-1,3.3-3.6,6.2-3.6
							c1.4,0,0.7-1.6,1.1-1.6c2.8,0,6.2-0.9,7.7-3.2c-0.4,0-4,0-4,0c0-1.3-0.6-2.1,0.9-2.1c3.5,0,4.5,2.7,8.4,2.7
							c-1.4,1-2.7,2-4.1,3c1.9,0,4.8,3.2,6.3,2.2c2.7-1.8,0.9-3.5,3.2-3.9c0.2,0.3,0.6,0.5,1.1,0.7c0.7,0.3,3.3,0.7,3.7,1.4
							c0.5,0.8,1.9,5.4,0.9,5.8c-1.6,0.7-6.2,5.7-2.7,7c2.7,1,3.5-0.3,5.9-1.8c2.3-1.4,2.9-0.9,5.5,0c0,0,2.7-0.1,3.6,0.3
							c2.2,0.8,2-0.6,2.2-0.5c0.9,0.3,2.6,0.5,3.8,0.1C514.5,157,505.9,150.9,496.2,147.3z"/>
					</g>
					<g>
						<path class="st158" d="M470.2,190.9c-0.4,0.4-0.8,0.8-1.3,1.3c3.9,0,6.3,1.3,9.9,1.3C476.4,189.8,474.5,190.9,470.2,190.9z"/>
					</g>
					<g>
						<path class="st158" d="M483.2,194.1c-3.2-0.1-3.3,0.4-5.3,2.6c1.7,0,3.3,0,5,0C484.4,196.6,484.2,194.1,483.2,194.1z"/>
					</g>
					<g>
						<path class="st158" d="M487.7,197.4C487.7,192.9,483.2,197.4,487.7,197.4L487.7,197.4z"/>
					</g>
				</g>
			</g>
			<g class="st159">
				<g>
					<path d="M506.9,152.5c6.2,9.7,9.9,21.3,9.9,33.7c0,34.6-28,62.6-62.6,62.6c-12,0-23.2-3.4-32.8-9.3
						c11.1,17.4,30.6,28.9,52.8,28.9c34.6,0,62.6-28,62.6-62.6C536.8,183.3,524.8,163.5,506.9,152.5z"/>
				</g>
			</g>
		</g>
		<g>
			<g>
				<g>
					<g>
						<path class="st149" d="M504.9,152l19.7,18l7.3,20.7l5.3-1.2l-3.3-19.1c-0.8-4.4-3.4-8.3-7.1-10.7l-21.9-14L504.9,152z"/>
					</g>
				</g>
			</g>
			<g>
				<g>
					<polygon class="st75" points="533,189.5 536.4,188.5 538.6,194 536.2,196.8 533,196.2 533.7,193.5 533,193.7 532.6,194.5 
						531.7,194 					"/>
				</g>
			</g>
		</g>
		<g>
			<g>
				<g>
					<g>
						<g>
							<polygon class="st160" points="613.7,210.6 611.1,211.5 612.1,212 613.6,211.5 616.8,213.3 617.2,212.6 							"/>
						</g>
						<g>
							<polygon class="st160" points="609.6,158.6 608.7,158 605.3,158.8 605,159.6 							"/>
						</g>
						<g>
							<polygon class="st160" points="595.5,161.9 600.7,160.7 601,159.8 595.5,161.1 589.8,158.9 589.6,159.7 							"/>
						</g>
						<g>
							<path class="st160" d="M633.3,221.8l-0.2-0.1l-13.6-7.7l-0.3,0.7l7.2,4.1l7.7,3.6l7.5-2.4c0.1-0.3,0.2-0.6,0.3-0.9
								L633.3,221.8z"/>
						</g>
						<g>
							<path class="st160" d="M647.9,217.9l0.8-0.3l-0.6-0.3C648.1,217.6,648,217.7,647.9,217.9z"/>
						</g>
						<g>
							<polygon class="st160" points="573.3,177.3 572.5,176.9 571.6,190.2 572.4,190.4 							"/>
						</g>
						<g>
							<polygon class="st160" points="600.1,215.5 599.8,216.5 609.6,212.9 608.6,212.4 							"/>
						</g>
						<g>
							<polygon class="st160" points="574.3,162.4 573.5,162 572.7,173.8 573.5,174.3 							"/>
						</g>
						<g>
							<polygon class="st160" points="571,210.5 571.3,206.4 570.5,206.1 570.2,211 572.1,211.8 572.3,211 							"/>
						</g>
						<g>
							<polygon class="st160" points="572.2,192.7 571.4,192.5 570.7,203.8 571.5,204.1 							"/>
						</g>
						<g>
							<polygon class="st160" points="574.8,154.1 585.8,158.2 586,157.5 574.1,153 573.7,158.6 574.5,159.1 							"/>
						</g>
						<g>
							<path class="st160" d="M659.2,181.3c0.3-0.6,0.6-1.1,0.9-1.7l1-15.9l-0.9,1.9L659.2,181.3z"/>
						</g>
						<g>
							<polygon class="st160" points="658.5,159.3 656.1,159.1 647.4,161.4 646.8,162.3 							"/>
						</g>
						<g>
							<polygon class="st160" points="661.4,159.6 661.4,159.6 661.1,159.5 							"/>
						</g>
						<g>
							<path class="st160" d="M652,216.5c0.1-0.3,0.3-0.6,0.4-0.9l-1.3,0.4L652,216.5z"/>
						</g>
						<g>
							<path class="st160" d="M657.6,205.9c0.3-0.3,0.5-0.6,0.9-0.8l0.5-8.3c-0.3,0.4-0.6,0.8-0.9,1.3L657.6,205.9z"/>
						</g>
						<g>
							<polygon class="st160" points="618.6,156.5 619.5,156.2 636.9,164.9 642.7,163.4 643.2,162.5 637,164 621.2,156.1 
								617.7,155.9 							"/>
						</g>
						<g>
							<polygon class="st161" points="593.3,218 593.1,218.9 597.5,217.3 597.7,216.4 							"/>
						</g>
						<g>
							<polygon class="st161" points="576.1,212.7 575.9,213.5 581.5,215.9 581.8,215.2 							"/>
						</g>
						<g>
							<path class="st162" d="M659,184.7l0.8,0.5l0.4-5.7c-0.3,0.6-0.6,1.1-0.9,1.7L659,184.7z"/>
						</g>
						<g>
							<path class="st162" d="M658.1,198c0.3-0.4,0.6-0.8,0.9-1.3l0.2-3.5l-0.8-0.5L658.1,198z"/>
						</g>
						<g>
							<path class="st162" d="M647.8,217.1l-5.9,1.9c-0.1,0.3-0.2,0.6-0.3,0.9l6.4-2c0.1-0.2,0.2-0.4,0.2-0.6L647.8,217.1z"/>
						</g>
						<g>
							<polygon class="st13" points="589.6,159.7 589.8,158.9 586,157.5 585.8,158.2 							"/>
						</g>
						<g>
							<polygon class="st13" points="572.3,211 572.1,211.8 574.7,212.9 574.9,212.1 							"/>
						</g>
						<g>
							<polygon class="st13" points="574.9,212.1 574.7,212.9 575.9,213.5 576.1,212.7 							"/>
						</g>
						<g>
							<polygon class="st13" points="599.7,215.7 599.5,216.6 599.8,216.5 600.1,215.5 							"/>
						</g>
						<g>
							<polygon class="st13" points="597.7,216.4 597.5,217.3 599.5,216.6 599.7,215.7 							"/>
						</g>
						<g>
							<path class="st13" d="M651.2,216.1l-2.9,0.9c0,0.1-0.1,0.3-0.1,0.4l0.6,0.3l3.2-1c0,0,0-0.1,0.1-0.1L651.2,216.1z"/>
						</g>
						<g>
							<polygon class="st13" points="573.5,174.3 572.7,173.8 572.5,176.9 573.3,177.3 							"/>
						</g>
						<g>
							<path class="st13" d="M648.1,217.4c0.1-0.1,0.1-0.3,0.1-0.4l-0.5,0.2L648.1,217.4z"/>
						</g>
						<g>
							<path class="st161" d="M657.1,214.2l-4.6,1.5c-0.1,0.3-0.3,0.6-0.4,0.9l0.1,0.1l5.7-1.8l0.6-9.7c-0.3,0.3-0.6,0.5-0.9,0.8
								L657.1,214.2z"/>
						</g>
						<g>
							<path class="st161" d="M652,216.6l0.2-0.1l-0.1-0.1C652,216.6,652,216.6,652,216.6z"/>
						</g>
						<g>
							<polygon class="st13" points="608.6,212.4 609.6,212.9 612.1,212 611.1,211.5 							"/>
						</g>
						<g>
							<polygon class="st13" points="632.8,222.4 633.2,222.6 634.1,222.4 626.4,218.8 							"/>
						</g>
						<g>
							<polygon class="st13" points="617.2,212.6 616.8,213.3 619.3,214.7 619.6,214 							"/>
						</g>
						<g>
							<polygon class="st13" points="574.5,159.1 573.7,158.6 573.5,162 574.3,162.4 							"/>
						</g>
						<g>
							<polygon class="st13" points="571.5,204.1 570.7,203.8 570.5,206.1 571.3,206.4 							"/>
						</g>
						<g>
							<polygon class="st13" points="572.4,190.4 571.6,190.2 571.4,192.5 572.2,192.7 							"/>
						</g>
						<g>
							<polygon class="st13" points="646.8,162.3 647.4,161.4 643.2,162.5 642.7,163.4 							"/>
						</g>
						<g>
							<polygon class="st13" points="660.6,159.5 660.2,165.6 661.1,163.7 661.4,159.6 661.1,159.5 							"/>
						</g>
						<g>
							<polygon class="st13" points="605,159.6 605.3,158.8 601,159.8 600.7,160.7 							"/>
						</g>
						<g>
							<polygon class="st160" points="590.6,219 590.4,218.9 581.8,215.2 581.5,215.9 590,219.6 590.9,219.7 593.1,218.9 593.3,218 
															"/>
						</g>
						<g>
							<polygon class="st163" points="612.6,157.9 612.9,157 608.7,158 609.6,158.6 							"/>
						</g>
						<g>
							<polygon class="st163" points="618.6,156.5 617.7,155.9 617.6,155.9 615.1,156.5 614.9,157.3 							"/>
						</g>
						<g>
							<polygon class="st163" points="658.5,192.7 659.2,193.3 659.7,185.2 659,184.7 							"/>
						</g>
						<g>
							<polygon class="st163" points="614.9,157.3 615.1,156.5 612.9,157 612.6,157.9 							"/>
						</g>
						<g>
							<polygon class="st164" points="647.7,185.2 638.1,178.5 634.4,185.3 644.7,191.2 							"/>
						</g>
						<g>
							<polygon class="st160" points="571.3,206.4 571,210.5 572.3,211 573.3,207.3 							"/>
						</g>
						<g>
							<polygon class="st164" points="629.9,187.3 610.5,174.4 606.1,191.8 622.8,200.8 							"/>
						</g>
						<g>
							<polygon class="st164" points="605.4,194.5 602.1,207.3 611.1,211.5 613.7,210.6 617.2,212.6 621.8,203.2 							"/>
						</g>
						<g>
							<polygon class="st164" points="584,165.2 585.8,158.2 574.8,154.1 574.5,159.1 584.2,164.6 							"/>
						</g>
						<g>
							<polygon class="st164" points="600.1,215.5 608.6,212.4 601.7,209.2 							"/>
						</g>
						<g>
							<polygon class="st164" points="580,180.9 573.3,177.3 572.4,190.4 577.2,191.8 							"/>
						</g>
						<g>
							<polygon class="st164" points="650.8,179 661.1,159.5 661.5,157.7 646.8,162.3 641.4,172.4 							"/>
						</g>
						<g>
							<polygon class="st160" points="576.7,194 572.2,192.7 571.5,204.1 573.8,205.1 							"/>
						</g>
						<g>
							<path class="st164" d="M645.8,195.1l-13.4-6.1l-7.1,13.1l-1.9-1l21.1,11.3c1.8-4.2,3.7-8.3,5.5-12.3c1.5-3.4,3.1-6.7,4.7-10
								l-4.9-3.4L645.8,195.1z"/>
						</g>
						<g>
							<polygon class="st164" points="631.8,183.8 635.6,176.7 613.8,161.5 611.2,171.9 							"/>
						</g>
						<g>
							<path class="st164" d="M649.1,214.9l2.1,1.1l1.3-0.4c0.8-1.8,1.7-3.6,2.5-5.4c0.7-1.5,1.5-3.1,2.6-4.4l0.5-7.8
								c-2.9,4.2-5.6,8.6-7.6,13.3C650,212.5,649.5,213.7,649.1,214.9z"/>
						</g>
						<g>
							<path class="st164" d="M657.8,183.9c0.4-0.9,0.9-1.7,1.4-2.6l1-15.7l-7.3,14.9L657.8,183.9z"/>
						</g>
						<g>
							<polygon class="st164" points="583.5,167 574.3,162.4 573.5,174.3 580.7,178.1 							"/>
						</g>
						<g>
							<polygon class="st164" points="642.7,163.4 636.9,164.9 619.5,156.2 618.6,156.5 638.8,170.6 							"/>
						</g>
						<g>
							<polygon class="st164" points="593.3,184.9 600.7,160.7 595.5,161.9 589.6,159.7 584.4,180.1 							"/>
						</g>
						<g>
							<path class="st164" d="M623.6,204.2l-4.1,9.7l13.6,7.7l0.2,0.1l8.6-2.7c0.5-1.4,1-2.8,1.6-4.2L623.6,204.2z"/>
						</g>
						<g>
							<polygon class="st164" points="604.3,190.8 612,160.3 609.6,158.6 605,159.6 596.4,186.6 							"/>
						</g>
						<g>
							<polygon class="st165" points="583.7,182.9 576.1,212.7 581.8,215.2 586.2,203.4 594.7,209.1 593.3,218 597.7,216.4 
								603.6,193.5 							"/>
						</g>
						<g>
							<path class="st166" d="M659,184.7l0.2-3.4c-0.5,0.9-0.9,1.7-1.4,2.6L659,184.7z"/>
						</g>
						<g>
							<path class="st166" d="M650,200.2c-1.8,4-3.7,8.1-5.5,12.3l4.6,2.5c0.5-1.2,0.9-2.4,1.4-3.6c2-4.7,4.7-9.1,7.6-13.3l0.3-5.3
								l-3.7-2.6C653.1,193.4,651.5,196.8,650,200.2z"/>
						</g>
						<g>
							<path class="st166" d="M641.9,219l5.9-1.9l-4.3-2.3C642.9,216.2,642.4,217.6,641.9,219z"/>
						</g>
						<g>
							<polygon class="st13" points="583.5,167 583.5,167 580.7,178.1 584.4,180.1 589.6,159.7 585.8,158.2 584,165.2 							"/>
						</g>
						<g>
							<polygon class="st13" points="580,180.9 577.2,191.8 578.6,192.2 577,194.1 576.7,194 573.8,205.1 574.4,205.3 573.3,207.3 
								573.3,207.3 572.3,211 574.9,212.1 582.4,182.2 							"/>
						</g>
						<g>
							<polygon class="st13" points="582.4,182.2 574.9,212.1 576.1,212.7 583.7,182.9 							"/>
						</g>
						<g>
							<polygon class="st13" points="601.9,207.2 602.1,207.3 605.4,194.5 605.1,194.3 							"/>
						</g>
						<g>
							<polygon class="st13" points="601.4,209.1 599.7,215.7 600.1,215.5 601.7,209.2 							"/>
						</g>
						<g>
							<polygon class="st13" points="604.3,190.8 606.1,191.8 610.5,174.4 609.3,173.5 610.3,171.4 611.2,171.9 613.8,161.5 
								612,160.3 							"/>
						</g>
						<g>
							<polygon class="st13" points="601.2,209 601.4,207 601.9,207.2 605.1,194.3 603.6,193.5 597.7,216.4 599.7,215.7 
								601.4,209.1 							"/>
						</g>
						<g>
							<polygon class="st13" points="580.7,178.1 573.5,174.3 573.3,177.3 580,180.9 							"/>
						</g>
						<g>
							<polygon class="st13" points="603.8,192.6 604.3,190.8 596.4,186.6 596.2,187.1 592.8,186.8 593.3,184.9 584.4,180.1 
								583.9,182.1 							"/>
						</g>
						<g>
							<path class="st13" d="M648.3,217l2.9-0.9l-2.1-1.1C648.8,215.6,648.6,216.3,648.3,217z"/>
						</g>
						<g>
							<path class="st13" d="M622.8,200.8L622.8,200.8l-16.7-9l-0.7,2.7l16.4,8.8l0,0l1.8,1l0,0l19.9,10.6c0.3-0.8,0.7-1.6,1-2.4
								l-21.1-11.3L622.8,200.8z"/>
						</g>
						<g>
							<polygon class="st13" points="583.9,182.1 583.7,182.9 603.6,193.5 603.8,192.6 							"/>
						</g>
						<g>
							<path class="st13" d="M644.5,212.5c-0.3,0.8-0.7,1.6-1,2.4l4.3,2.3l0.5-0.2c0.3-0.7,0.5-1.4,0.8-2.1L644.5,212.5z"/>
						</g>
						<g>
							<polygon class="st13" points="583.9,182.1 584.4,180.1 580.7,178.1 580,180.9 582.4,182.2 582.6,181.4 							"/>
						</g>
						<g>
							<polygon class="st13" points="582.6,181.4 582.4,182.2 583.7,182.9 583.9,182.1 							"/>
						</g>
						<g>
							<polygon class="st13" points="604.3,190.8 603.8,192.6 605.4,193.4 605.1,194.3 605.4,194.5 606.1,191.8 							"/>
						</g>
						<g>
							<polygon class="st13" points="603.8,192.6 603.6,193.5 605.1,194.3 605.4,193.4 							"/>
						</g>
						<g>
							<path class="st165" d="M652.4,215.6l4.6-1.5l0.5-8.3c-1.1,1.2-1.9,2.8-2.6,4.4C654.1,212.1,653.3,213.9,652.4,215.6z"/>
						</g>
						<g>
							<polygon class="st13" points="601.7,209.2 608.6,212.4 611.1,211.5 602.1,207.3 							"/>
						</g>
						<g>
							<polygon class="st13" points="601.4,209.1 601.7,209.2 602.1,207.3 601.9,207.2 							"/>
						</g>
						<g>
							<polygon class="st13" points="601.4,207 601.2,209 601.4,209.1 601.9,207.2 							"/>
						</g>
						<g>
							<polygon class="st13" points="621.8,203.2 617.2,212.6 619.6,214 623.6,204.2 							"/>
						</g>
						<g>
							<polygon class="st13" points="621.8,203.2 621.8,203.2 623.6,204.2 623.6,204.2 							"/>
						</g>
						<g>
							<polygon class="st13" points="584,165.2 584.2,164.6 574.5,159.1 574.3,162.4 583.5,167 							"/>
						</g>
						<g>
							<polygon class="st13" points="584,165.2 583.5,167 583.5,167 							"/>
						</g>
						<g>
							<polygon class="st164" points="573.8,205.1 571.5,204.1 571.3,206.4 573.3,207.3 							"/>
						</g>
						<g>
							<polygon class="st13" points="573.3,207.3 574.4,205.3 573.8,205.1 573.3,207.3 							"/>
						</g>
						<g>
							<polygon class="st13" points="577.2,191.8 572.4,190.4 572.2,192.7 576.7,194 							"/>
						</g>
						<g>
							<polygon class="st13" points="577,194.1 578.6,192.2 577.2,191.8 576.7,194 							"/>
						</g>
						<g>
							<polygon class="st13" points="634.4,185.3 638.1,178.5 635.6,176.7 631.8,183.8 							"/>
						</g>
						<g>
							<polygon class="st13" points="641.4,172.4 646.8,162.3 642.7,163.4 638.8,170.6 							"/>
						</g>
						<g>
							<polygon class="st13" points="629.9,187.3 622.8,200.8 623.4,201.1 625.3,202.1 632.4,189 632.4,189 							"/>
						</g>
						<g>
							<polygon class="st13" points="622.8,200.8 623.4,201.1 622.8,200.8 							"/>
						</g>
						<g>
							<polygon class="st13" points="650.8,179 652.9,180.5 660.6,165.3 661,159.7 661,159.1 							"/>
						</g>
						<g>
							<polygon class="st13" points="645.8,195.1 649.9,186.7 647.7,185.2 644.7,191.2 634.4,185.3 632.4,189 							"/>
						</g>
						<g>
							<polygon class="st13" points="631.8,183.8 611.2,171.9 610.5,174.4 629.9,187.3 							"/>
						</g>
						<g>
							<polygon class="st13" points="610.3,171.4 609.3,173.5 610.5,174.4 611.2,171.9 							"/>
						</g>
						<g>
							<polygon class="st13" points="632.4,189 632.4,189 634.4,185.3 631.8,183.8 629.9,187.3 							"/>
						</g>
						<g>
							<polygon class="st13" points="596.4,186.6 605,159.6 600.7,160.7 593.3,184.9 							"/>
						</g>
						<g>
							<polygon class="st13" points="596.2,187.1 596.4,186.6 593.3,184.9 592.8,186.8 							"/>
						</g>
						<g>
							<polygon class="st165" points="586.2,203.4 581.8,215.2 590.4,218.9 590.6,219 593.3,218 594.7,209.1 							"/>
						</g>
						<g>
							<polygon class="st103" points="613.8,161.5 635.6,176.7 638.8,170.6 618.6,156.5 614.9,157.3 							"/>
						</g>
						<g>
							<polygon class="st103" points="612.6,157.9 609.6,158.6 612,160.3 							"/>
						</g>
						<g>
							<path class="st103" d="M654.7,190.1c1-2.1,2.1-4.2,3.1-6.2l-4.9-3.4l-3.1,6.3L654.7,190.1z"/>
						</g>
						<g>
							<polygon class="st103" points="647.7,185.2 650.8,179 641.4,172.4 638.1,178.5 							"/>
						</g>
						<g>
							<path class="st103" d="M654.7,190.1l3.7,2.6l0.5-8l-1.1-0.8C656.8,186,655.7,188,654.7,190.1z"/>
						</g>
						<g>
							<polygon class="st103" points="613.8,161.5 614.9,157.3 612.6,157.9 612,160.3 							"/>
						</g>
						<g>
							<polygon class="st103" points="641.4,172.4 638.8,170.6 635.6,176.7 638.1,178.5 							"/>
						</g>
						<g>
							<polygon class="st167" points="649.9,186.7 652.9,180.5 650.8,179 647.7,185.2 							"/>
						</g>
					</g>
					<g>
						<g class="st60">
							<polygon points="594.9,161.8 574.7,154 570.9,210.6 590,219 							"/>
						</g>
						<g class="st60">
							<polygon points="636.7,164.7 619.3,155.9 613.5,210.4 633.1,221.8 							"/>
						</g>
					</g>
					<g>
						<path class="st168" d="M570.3,211.3c0.6,0.3,1.3,0.6,1.9,0.8c5.9,2.5,11.7,5.1,17.6,7.6c1.2,0.5,2.2-0.1,3.5-0.6
							c1.4-0.5,2.9-1,4.3-1.6c2.9-1,5.7-2.1,8.6-3.1c1.3-0.5,2.5-0.9,3.8-1.4c0.8-0.3,1.5-0.6,2.3-0.8c0.3-0.1,0.7-0.2,1-0.4
							c0,0,0.1-0.1,0.2-0.1c0.1,0,0.1,0.1,0.2,0.1c1.2,1,3,1.7,4.4,2.5c1.2,0.7,2.4,1.4,3.7,2.1c2.9,1.6,5.8,3.3,8.7,4.9
							c0.6,0.3,1.2,0.7,1.8,1c0.7,0.4,0.9,0.4,1.7,0.1c1.6-0.5,3.1-1,4.7-1.5c6.3-2,12.6-4,18.9-6c0.2-0.1,0.4-0.2,0.4-0.5
							c0.5-7.2,0.9-14.3,1.4-21.5c0.5-7.8,1-15.5,1.5-23.3c0.3-3.9,0.5-7.8,0.8-11.7c0-0.3-0.3-0.6-0.6-0.5
							c-5.9,1.5-11.9,3.1-17.8,4.6c-1.4,0.4-2.9,0.7-4.3,1.1c-0.6,0.2-1.4,0.5-2.1,0.6c0,0,0,0,0,0c-0.2-0.1-0.4-0.2-0.6-0.3
							c-3.4-1.7-6.9-3.4-10.3-5.1c-1.4-0.7-2.8-1.4-4.3-2.1c-0.8-0.4-1.6-1-2.5-0.9c-2.9,0.4-5.9,1.4-8.8,2.1
							c-2.9,0.7-5.9,1.4-8.8,2.1c-1.4,0.3-2.8,0.7-4.3,1c-0.4,0.1-0.9,0.2-1.3,0.3c-0.1,0-0.5,0.1-0.4,0.1c-0.7-0.1-1.4-0.6-2.1-0.8
							c-6.3-2.4-12.7-4.8-19-7.2c-0.3-0.1-0.6,0.1-0.7,0.4c-0.5,7.4-1,14.8-1.5,22.3c-0.5,7.6-1,15.1-1.5,22.7
							c-0.3,4.1-0.6,8.3-0.8,12.4C569.9,211,570.1,211.2,570.3,211.3z M613.4,211.8C613.3,211.8,613.3,211.8,613.4,211.8
							L613.4,211.8z M593.5,161.2c0.6,0.2,1.3,0.7,1.9,0.7c0.5,0.1,1-0.2,1.5-0.3c1-0.2,2.1-0.5,3.1-0.7c2.8-0.7,5.6-1.3,8.4-2
							c2.8-0.7,5.7-1.3,8.5-2c0.6-0.2,1.3-0.3,1.9-0.5c0.6-0.1,0.5-0.1,0.7-0.1c0.4,0.1,0.9,0.4,1.3,0.6c0.9,0.4,1.8,0.9,2.7,1.3
							c3.7,1.8,7.3,3.6,11,5.5c0.7,0.3,1.6,1,2.3,1c0.6,0,1.4-0.4,2-0.5c1.1-0.3,2.2-0.6,3.2-0.8c6.2-1.6,12.3-3.2,18.5-4.8
							c-0.5,7-0.9,14-1.4,21.1c-0.5,7.6-1,15.2-1.5,22.7c-0.3,3.9-0.5,7.8-0.8,11.6c-5.3,1.7-10.7,3.4-16,5.1
							c-1.8,0.6-3.7,1.2-5.5,1.8c-0.5,0.2-1.1,0.4-1.6,0.5c-0.8,0.2-0.6,0.3-1.3-0.1c-2.7-1.5-5.4-3.1-8.2-4.6c-2.7-1.5-5.3-3-8-4.5
							c-0.8-0.4-1.6-1.1-2.5-1.4c-0.6-0.2-1.1,0.1-1.7,0.3c-1.1,0.4-2.2,0.8-3.4,1.2c-3.1,1.1-6.2,2.3-9.4,3.4c-1.3,0.5-2.7,1-4,1.5
							c-1.4,0.5-3.1,1.4-4.5,1.6c-1,0.1-2.9-1-3.9-1.5c-1.7-0.7-3.4-1.5-5.1-2.2c-3.1-1.3-6.2-2.7-9.3-4c-0.5-0.2-1.1-0.5-1.6-0.7
							c0.5-6.9,0.9-13.9,1.4-20.8c0.6-8.2,1.1-16.5,1.7-24.7c0.2-3.6,0.5-7.2,0.7-10.8c5.3,2,10.6,4,15.8,6
							C591.6,160.5,592.5,160.8,593.5,161.2z"/>
					</g>
				</g>
				<g>
					<path class="st169" d="M613.4,211.8C613.4,211.8,613.3,211.8,613.4,211.8L613.4,211.8C613.3,211.8,613.3,211.8,613.4,211.8
						L613.4,211.8L613.4,211.8C613.3,211.8,613.3,211.8,613.4,211.8L613.4,211.8C613.4,211.8,613.4,211.8,613.4,211.8L613.4,211.8z"
						/>
				</g>
				<g>
					<path class="st169" d="M613.5,211C613.4,211,613.4,211,613.5,211L613.5,211C613.4,211,613.4,211,613.5,211L613.5,211L613.5,211
						C613.4,211,613.4,211,613.5,211L613.5,211C613.4,211,613.5,211,613.5,211L613.5,211z"/>
				</g>
			</g>
		</g>
		<g>
			<g>
				<g>
					<path class="st103" d="M436.3,82.4c-12.2,2.6-20,14.5-17.4,26.7c0.7,3.2,2,6.1,3.8,8.6c8,10.9,21.3,21.4,25.2,24.4
						c0.3,0.2,0.7,0.3,1,0.2c0.4-0.1,0.7-0.3,0.8-0.6c1.7-3,6.1-11.4,9.6-20.7l-8.8-5.7c-1.8,1.7-4.1,2.9-6.6,3.4
						c-7.6,1.6-15.1-3.3-16.7-10.9c-1.6-7.6,3.3-15.1,10.9-16.7c7.6-1.6,15.1,3.3,16.7,10.9c0.5,2.6,0.3,5.1-0.4,7.4l7.3,4.7
						c0.5-1.6,0.9-3.2,1.3-4.8c0.7-3.1,0.7-6.2,0-9.4C460.4,87.6,448.5,79.8,436.3,82.4z"/>
				</g>
				<g>
					<path class="st103" d="M451.4,102.6c1.2,5.7-2.5,11.4-8.2,12.6c-5.7,1.2-11.4-2.5-12.6-8.2c-1.2-5.7,2.5-11.4,8.2-12.6
						C444.6,93.2,450.2,96.9,451.4,102.6z"/>
					<path class="st13" d="M433,106.5l2.3-0.5c-0.7-3.2,1.4-6.3,4.6-7l-0.5-2.3C434.9,97.6,432,102,433,106.5z"/>
				</g>
			</g>
		</g>
		<g>
			<g>
				<path class="st151" d="M612.1,294.1l2.1-0.6c1-0.3,2,0.1,2.6,1l3.4,5.2c0.7,1.1-0.1,2.5-1.4,2.5h-1.1c-1.3,0-2.5-0.3-3.7-0.9
					l-1.9-1L612.1,294.1z"/>
			</g>
			<g>
				<path class="st7" d="M545.4,275.7c0,0-5.2,3.8-5.2,7.2c0,0-0.6,7.1,0.9,9.9l4.5,4.1c2.1,1.9,4.9,2.9,7.8,2.7l10-0.6l4.7-20.6
					L545.4,275.7z"/>
			</g>
			<g>
				<path class="st100" d="M561.3,280.3c0,0-6.3-1.5-8.4,2.8l-4.3,7.9l4.3,5.8c2,2.7,5.1,4.2,8.5,4.2l51.7-0.2L613,294l-18.4-5.2
					c1.6-1.1,3-2.8,3.8-4.6c1.5-3.1,0.3-5.5-0.9-8.4c-0.4-0.9-2.1-5.9-3.6-5.5C594,270.3,561.3,280.3,561.3,280.3z"/>
			</g>
			<g>
				<g>
					<g>
						<polygon class="st170" points="527.8,202.4 525.1,197.7 527.1,196.5 529.6,199.3 530.3,198.3 532,202.6 530.2,204.1 						"/>
					</g>
				</g>
				<g>
					<g>
						<path class="st2" d="M566,213.3l-12.3,3.3c-3.5,0.9-7.3-0.1-9.8-2.8L531.9,201l-3.5,3.2l11.3,21.8c2,3.9,6.4,6,10.7,5.1
							l14.8-3L566,213.3z"/>
					</g>
				</g>
			</g>
			<g>
				<g>
					<g>
						<path class="st11" d="M548.1,264.3c3.9-10.9,4.7-22.6,6.1-34c0.4-3.4,0.9-6.9,2.4-9.9c1.7-3.5,4.5-5.3,7.7-6.2
							c4-1.2,8.7-1,12.9-1.1c3.9,0,6.9,14.9,10.7,22.2c2.3,4.5,4.7,8.4,6.2,13.3c1.4,4.6,2.8,9.4,3.6,14.2
							c1.2,7.3,4.6,12.4,1.1,14.8c-0.3,0.1-0.6,0.2-0.9,0.3c-5.7,1.8-11.5,3.1-17.4,3.7c-5.3,0.5-10.6,0.5-15.8-0.2
							c-7.2-0.9-14.1-2.2-20.3-6.1C545.6,271.4,546.9,267.8,548.1,264.3z"/>
					</g>
				</g>
			</g>
			<g>
				<g>
					<g>
						<polygon class="st170" points="579,266.8 575.5,270.9 573.7,269.6 575.4,266.2 574.2,265.9 577.6,262.8 579.7,263.9 						"/>
					</g>
				</g>
				<g>
					<g>
						<path class="st2" d="M579.5,228.4l4.7,9c1.4,2.6,1.4,5.8,0.2,8.5l-8.2,17.6l4.3,2.1l13.8-17.9c2.4-3.2,2.7-7.5,0.6-10.9
							l-11.4-18.6l-1.6,1.1C578.8,221.4,577.9,225.3,579.5,228.4z"/>
					</g>
				</g>
			</g>
			<g>
				<g>
					<path class="st170" d="M579.4,202.1c-2-6.8-11.8-9.5-14.4-1.7c-0.8,2.3-1.3,4.8-0.9,7.3c0.4,2.4,1.8,4.8,4,5.9c0,0,0,0,0,0
						c-0.1,0.6-0.2,1.2-0.3,1.9c0,0.1,0,0.3,0,0.4c0.1,0.1,0.3,0.2,0.4,0.2c0.7,0.1,1.5,0.3,2.2,0.4c0.4,0.1,0.8,0.1,1.1,0
						c0.8-0.2,1.1-1.2,1.2-2c0-0.2,0-0.4,0-0.6C577.4,212.4,580.8,206.5,579.4,202.1z"/>
				</g>
				<g>
					<g>
						<path class="st150" d="M567.8,190.1c-1.8-0.3-3.4,1.4-5.1,2.2c-1.4,0.7-3,0.9-4.4,1.5c-1.5,0.6-2.9,1.9-3,3.5
							c-1.4-0.8-3-1.6-4.6-1.4c-1.6,0.3-3.2,2.2-2.6,3.8c0.5,1.5,2.4,1.9,3,3.3c0.9,2.3-1.9,5.7-0.1,7.2c0.4,0.4,1,0.5,1.4,0.9
							c0.5,0.5,0.7,1.3,0.9,2c1,3.2,4.1,5.4,7.3,5c2-0.9,3.6-2.7,4.4-4.8c0.9-2.6-0.4-3.5-0.6-6c-0.2-2.7,0.8-5.5,2.5-7.5
							c1.1-1.3,2.8-2.4,4.4-2.5c0.7,0,0.4,0.5,1.2,0c0.3-0.2,0.8-1,0.9-1.5C571.6,194.3,570.2,190.5,567.8,190.1z"/>
					</g>
					<g>
						<path class="st150" d="M587.2,194.2c0.9,0.3,1.9,0.3,2.8,0.7c1.3,0.6,1.2,2,1.5,3.2c0.4,1.3,0.9,3.2,1.8,4.2
							c0.6,0.8,1.5,1.2,2.2,1.8c0.8,0.6,1.4,1.5,1.4,2.5c0,1-0.7,1.8-0.9,2.8c-0.2,1.5,0.1,2.2-0.4,3.7c-0.3,0.8-0.5,1.6-1.1,2.1
							c-0.8,0.7-1.9,0.6-2.8,0.4c-0.9-0.2-1.9-0.5-2.9-0.2c-2.1,0.6-1.8,2.7-2.4,4.4c-0.9,2.6-4,4-6.3,3c-2-0.9-3-3.2-2.9-5.5
							c0.1-1.1,0.6-2.2,0.6-3.3c0.1-1.1-0.5-2.6,0.5-3.5c0.2-0.2,0.6-0.3,0.8-0.5c0.2-0.2,0.3-0.4,0.4-0.7c0.2-0.9,0.1-1.9-0.4-2.6
							c-0.4-0.5-0.9-0.9-1.1-1.5c-0.2-0.7,0-1.5,0.1-2.3c0.2-1.8-0.8-3.7-2.3-4.4c-1-0.5-1.9-0.8-2.8-1.6c-0.1-0.1-2.1-2-2.2-1.6
							c0.1-0.7,0.5-1.2,0.9-1.8c0.7-0.9,1.4-1.7,2.4-2.2c3-1.6,3,2.4,5.4,1.9c0.6-0.1,1-0.6,1.6-0.9c1-0.6,2.2-0.3,3.2,0.2
							C585.3,193.2,586.2,193.9,587.2,194.2z"/>
					</g>
				</g>
			</g>
		</g>
		<g>
			<g>
				<g>
					<g>
						<g>
							<path class="st168" d="M570.5,242.1l-9.4-0.9l0.2-2.4c0-0.3,0.3-0.5,0.6-0.5l8.3,0.8c0.3,0,0.5,0.3,0.5,0.6L570.5,242.1z"/>
						</g>
					</g>
					<g>
						<g>
							<path class="st171" d="M572.7,293l-71.1-6.9c-0.4,0-0.7-0.4-0.6-0.8l4.8-49.4c0-0.4,0.4-0.7,0.8-0.6l71.1,6.9
								c0.4,0,0.7,0.4,0.6,0.8l-4.8,49.4C573.4,292.8,573.1,293.1,572.7,293z"/>
						</g>
						<g>
							
								<rect x="503" y="249.5" transform="matrix(0.9953 9.677021e-02 -9.677021e-02 0.9953 28.4252 -50.9361)" class="st9" width="72.7" height="36.1"/>
						</g>
					</g>
					<g>
						<polygon class="st168" points="527.7,248.4 531.1,238.1 536.9,231.8 549,233 553,240.3 554.4,251 						"/>
					</g>
					<g>
						<path class="st168" d="M519.8,245l-10.4-1c-0.3,0-0.6-0.3-0.5-0.6l0.3-3.2c0-0.3,0.3-0.6,0.6-0.5l10.4,1
							c0.3,0,0.6,0.3,0.5,0.6l-0.3,3.2C520.4,244.7,520.1,245,519.8,245z"/>
					</g>
					<g class="st172">
						<polygon points="527.7,248.4 527.6,254.8 553.7,257.7 554.4,251 						"/>
					</g>
					<g class="st173">
						<path d="M558.2,263.9c-0.6-1.6-1.3-3-2.3-4.4c0.1,0.3,0.3,0.6,0.4,0.9c1.2,3.4,1.3,7.2,0.3,10.7c-0.3,0.9-0.6,1.7-1,2.5
							c-1.5,3.3-4.1,6-7.3,7.8c-3.2,1.8-6.9,2.6-10.5,2.3c-3.8-0.3-7.4-1.8-10.3-4.2c-1.2-1-2.2-2.1-3.1-3.3c1.1,2.6,2.8,4.9,5,6.7
							c2.9,2.4,6.5,3.9,10.3,4.2c3.7,0.3,7.4-0.5,10.5-2.3c3.2-1.8,5.8-4.5,7.3-7.8c0.4-0.8,0.7-1.7,1-2.5
							C559.6,271.1,559.5,267.3,558.2,263.9z"/>
					</g>
					<g>
						<g>
							<g>
								<g>
									
										<ellipse transform="matrix(9.675830e-02 -0.9953 0.9953 9.675830e-02 221.9233 778.2767)" class="st174" cx="539.8" cy="266.9" rx="17.4" ry="17.9"/>
								</g>
							</g>
							<g>
								<path class="st175" d="M556,257.9c-1.9-3.2-4.8-5.8-8.2-7.4c-3.5-1.7-7.6-2.2-11.5-1.5c-3.7,0.6-7.2,2.4-9.9,5
									c-2.7,2.6-4.5,6-5.2,9.7c-0.7,3.7-0.1,7.6,1.6,11c1.6,3.3,4.3,6.1,7.6,8c3.4,1.9,7.4,2.7,11.3,2.4c3.8-0.4,7.4-1.9,10.3-4.3
									c2.9-2.4,5-5.7,5.9-9.3c0.2-0.9,0.4-1.8,0.5-2.8C558.8,264.9,558,261.1,556,257.9z M553.4,278.3c-2.3,2.6-5.5,4.6-9,5.4
									c-3.6,0.9-7.6,0.7-11.1-0.7c-3.4-1.3-6.3-3.6-8.3-6.5c-4.2-6.1-4.1-14.3,0.4-20.2c2.1-2.8,5.2-4.9,8.6-6.1
									c3.5-1.2,7.5-1.2,11.1-0.1c7.1,2.1,12.2,8.5,12.7,15.7c0.1,0.9,0,1.8-0.1,2.7C557.3,272.2,555.8,275.6,553.4,278.3z"/>
							</g>
						</g>
						<g>
							
								<ellipse transform="matrix(9.675910e-02 -0.9953 0.9953 9.675910e-02 221.9229 778.2764)" class="st101" cx="539.8" cy="266.9" rx="11.8" ry="12.2"/>
						</g>
					</g>
				</g>
			</g>
		</g>
	</g>
</g>
</svg>
