<svg id="Layer_1" data-name="Layer 1" xmlns="http://www.w3.org/2000/svg" viewBox="0 0 512 512"><defs><style>.cls-1{fill:#304269;}.cls-2{fill:#f60;}.cls-3{fill:#2fc9b6;}.cls-4{fill:#25a59a;}.cls-5{fill:#ffd34e;}</style></defs><title>wheel</title><path class="cls-1" d="M256,0C397.39,0,512,114.61,512,256S397.39,512,256,512,0,397.39,0,256,114.61,0,256,0Z" transform="translate(0 0)"/><path class="cls-2" d="M400.35,230.47H367.73c-22,0-44-9-58.72-25.29a70.26,70.26,0,0,0-53-23.65,72.52,72.52,0,0,0-53,22.84,80.88,80.88,0,0,1-58.72,25.28H111.65a139.5,139.5,0,0,0-2.45,25.28,124.6,124.6,0,0,0,2.45,24.47h33.43c22.84,0,43.23,9.79,59.54,26.1l.82.81c16.31,16.31,26.09,36.7,26.09,59.54V400.1a123.43,123.43,0,0,0,48.94,0V365.85c0-22.84,10.6-44,26.09-59.54l.82-.81c15.5-16.31,36.7-26.1,59.54-26.1h34.25a124.6,124.6,0,0,0,2.45-24.47C402.8,246.78,402,238.62,400.35,230.47Z" transform="translate(0 0)"/><path class="cls-3" d="M451.73,254.93c0-53.82-22-102.76-57.09-138.64l-34.25,34.25A149.43,149.43,0,0,1,402.8,254.93c0,40.78-16.31,77.48-43.22,103.58l35.07,35.07C429.71,357.69,451.73,308.76,451.73,254.93Z" transform="translate(0 0)"/><path class="cls-3" d="M109.2,254.93c0-40.77,16.31-77.47,43.22-103.57l-35.06-35.07A195.28,195.28,0,0,0,60.27,254.93c0,54.65,22,102.76,57.09,138.65l34.25-34.26A149.4,149.4,0,0,1,109.2,254.93Z" transform="translate(0 0)"/><path class="cls-4" d="M256,108.13c40.78,0,77.48,16.31,103.58,43.23l35.07-35.07A195.3,195.3,0,0,0,256,59.2c-54.64,0-102.76,22-138.64,57.09l34.25,34.25A149.4,149.4,0,0,1,256,108.13Z" transform="translate(0 0)"/><path class="cls-4" d="M256,401.73c-40.78,0-77.48-16.31-103.58-43.22l-35.07,35.07A195.3,195.3,0,0,0,256,450.67c53.83,0,102.76-22,138.64-57.09l-34.25-34.26A149.4,149.4,0,0,1,256,401.73Z" transform="translate(0 0)"/><ellipse class="cls-5" cx="256" cy="254.12" rx="48.12" ry="26.91"/></svg>