<?xml version="1.0" encoding="utf-8"?>
<!-- Generator: Adobe Illustrator 22.0.0, SVG Export Plug-In . SVG Version: 6.00 Build 0)  -->
<svg version="1.1" id="Capa_1" xmlns="http://www.w3.org/2000/svg" xmlns:xlink="http://www.w3.org/1999/xlink" x="0px" y="0px"
	 viewBox="0 0 512 512" style="enable-background:new 0 0 512 512;" xml:space="preserve">
<style type="text/css">
	.st0{fill:#FFFFFF;}
	.st1{fill:none;stroke:#FFFFFF;stroke-width:9;stroke-miterlimit:10;}
</style>
<g>
	<g>
		<g>
			<path class="st0" d="M153.8,374.9c-1.1-1.1-2.7-1.8-4.2-1.8s-3.1,0.6-4.2,1.8c-1.1,1.1-1.8,2.7-1.8,4.2s0.6,3.1,1.8,4.2
				c1.1,1.1,2.7,1.8,4.2,1.8s3.1-0.6,4.2-1.8c1.1-1.1,1.8-2.7,1.8-4.2S155,376,153.8,374.9z"/>
		</g>
	</g>
	<g>
		<g>
			<path class="st0" d="M383.6,212.3c-1.1-1.1-2.6-1.8-4.2-1.8c-1.6,0-3.1,0.6-4.2,1.8c-1.1,1.1-1.8,2.7-1.8,4.2s0.6,3.1,1.8,4.2
				c1.1,1.1,2.7,1.8,4.2,1.8c1.6,0,3.1-0.6,4.2-1.8c1.1-1.1,1.8-2.7,1.8-4.2S384.7,213.4,383.6,212.3z"/>
		</g>
	</g>
	<g>
		<g>
			<path class="st0" d="M407.2,104.8c-1.1-1.1-2.6-1.8-4.2-1.8l-147,0c-3.3,0-6,2.7-6,6v17.1l-56.7,15.2c-3.2,0.9-5.1,4.1-4.2,7.3
				l29.4,109.6l-25.4,25.4c-3.2-4.7-8.7-7.8-14.8-7.8h-57.4c-9.9,0-17.9,8-17.9,17.9v97.4c0,9.9,8,17.9,17.9,17.9h57.4
				c8.4,0,15.5-5.8,17.4-13.6l7.1,6.2c5.5,4.8,12.5,7.4,19.8,7.4H403c3.3,0,6-2.7,6-6V109C409,107.4,408.4,105.9,407.2,104.8z
				 M184.3,391.1c0,3.3-2.7,6-6,6h-57.4c-3.3,0-6-2.7-6-6v-97.4c0-3.3,2.7-6,6-6h22.7v68.8c0,3.3,2.7,6,6,6s6-2.7,6-6v-68.8h22.7
				c3.3,0,6,2.7,6,6L184.3,391.1L184.3,391.1z M202.2,151.3l47.8-12.8v22.1l-4,1.1c-1.5,0.4-2.8,1.4-3.6,2.8s-1,3-0.6,4.5
				c2.3,8.6-2.8,17.4-11.4,19.7c-1.5,0.4-2.8,1.4-3.6,2.8c-0.8,1.4-1,3-0.6,4.5l23.3,86.3h-12l-6.2-24.2c-0.2-0.8-0.5-1.5-1-2.1
				L202.2,151.3z M250,188v50.4l-10.9-40.4C243.7,195.7,247.4,192.2,250,188z M335.9,397H222.6l0,0c-4.4,0-8.6-1.6-11.9-4.5
				L196.2,380v-82.7l26.1-26.1l4.7,18.5c0.7,2.6,3.1,4.5,5.8,4.5l117.5,0c4.6,0,8.4,3.8,8.4,8.4c0,4.6-3.8,8.4-8.4,8.4h-60.2
				c-3.3,0-6,2.7-6,6s2.7,6,6,6h78.9c4.6,0,8.4,3.8,8.4,8.4c0,4.6-3.8,8.4-8.4,8.4h-78.9c-3.3,0-6,2.7-6,6s2.7,6,6,6h66.1
				c4.6,0,8.4,3.8,8.4,8.4c0,4.6-3.8,8.4-8.4,8.4h-66.1c-3.3,0-6,2.7-6,6s2.7,6,6,6h45.7c4.6,0,8.4,3.8,8.4,8.4
				C344.3,393.3,340.5,397,335.9,397z M397,397L397,397h-42.6c1.2-2.6,1.8-5.4,1.8-8.4s-0.7-5.8-1.8-8.4h1.9
				c11.2,0,20.3-9.1,20.3-20.3c0-3.3-0.8-6.4-2.2-9.1c8.6-2.4,14.9-10.2,14.9-19.6c0-4.5-1.5-8.7-4-12.1v-75.7c0-3.3-2.7-6-6-6
				s-6,2.7-6,6v68c-1.4-0.3-2.9-0.5-4.4-0.5h-0.2c1.2-2.6,1.8-5.4,1.8-8.4c0-11.2-9.1-20.3-20.3-20.3h-9.6
				c10.2-4.4,17.4-14.5,17.4-26.3c0-15.8-12.8-28.6-28.6-28.6c-15.8,0-28.6,12.8-28.6,28.6c0,11.8,7.2,21.9,17.4,26.3h-32.7V168.7
				c10.7-2.3,19.1-10.8,21.4-21.4h45c2.3,10.7,10.8,19.1,21.4,21.4v18.6c0,3.3,2.7,6,6,6s6-2.7,6-6v-23.9c0-3.3-2.7-6-6-6
				c-8.9,0-16.1-7.2-16.1-16.1c0-3.3-2.7-6-6-6h-55.6c-3.3,0-6,2.7-6,6c0,8.9-7.2,16.1-16.1,16.1c-3.3,0-6,2.7-6,6v119H262V115
				l135.1,0V397z M329.5,272.6c-9.2,0-16.6-7.5-16.6-16.6s7.5-16.6,16.6-16.6c9.2,0,16.6,7.5,16.6,16.6
				C346.2,265.2,338.7,272.6,329.5,272.6z"/>
		</g>
	</g>
</g>
<circle class="st1" cx="256" cy="257" r="248.5"/>
</svg>
